<svg width="179" height="50" viewBox="0 0 179 50" fill="none" xmlns="http://www.w3.org/2000/svg">
<path d="M104.315 1.91125V7.13018L114.403 11.0723L104.315 14.8224V20.195L121.592 13.1976V8.86904L104.315 1.91125Z" fill="#BD00FF"/>
<path d="M164.347 35.23H171.924C171.807 32.2539 170.454 30.9783 168.214 30.9783C166.435 30.9783 164.813 31.9443 164.347 35.23ZM168.369 48.1004C162.532 48.1004 158.551 44.6215 158.551 37.8965V37.5113C158.551 30.7467 162.763 27.0362 168.173 27.0362C173.199 27.0362 177.412 29.8563 177.412 36.5441V38.9801H164.272C164.505 42.6126 166.048 44.0047 168.484 44.0047C170.648 44.0047 171.807 42.8454 172.196 41.3766H177.412C176.795 45.2023 173.663 48.1004 168.369 48.1004ZM145.059 27.4622H150.702V31.1715C151.9 28.4654 153.794 27.191 156.77 27.191V32.7556C152.944 32.7556 150.702 33.9148 150.702 37.2785V47.6768H145.059V27.4622ZM140.961 47.6768H135.316V44.6995C134.35 46.6327 132.457 48.1004 129.44 48.1004C125.808 48.1004 123.14 45.8972 123.14 41.145V27.4622H128.823V40.2942C128.823 42.6126 129.749 43.6951 131.761 43.6951C133.731 43.6951 135.316 42.4578 135.316 39.9461V27.4622H140.961V47.6768ZM115.834 21.354V27.4622H119.699V31.672H115.834V41.259C115.834 42.7686 116.529 43.4634 117.843 43.4634C118.655 43.4634 119.273 43.3471 119.814 43.1166V47.5208C119.158 47.7152 118.036 47.9456 116.644 47.9456C112.24 47.9456 110.15 45.9367 110.15 41.8386V31.672H107.792V27.4622H110.15V23.6725L115.834 21.354ZM87.4218 27.4622H93.0644V30.4767C94.0712 28.5818 96.08 27.0362 99.1725 27.0362C102.845 27.0362 105.28 29.2394 105.28 34.1476V47.6768H99.6346V34.9972C99.6346 32.6403 98.6697 31.5963 96.6213 31.5963C94.6496 31.5963 93.0644 32.7951 93.0644 35.3464V47.6768H87.4218V27.4622ZM70.8758 35.23H78.4516C78.3364 32.2539 76.9828 30.9783 74.7411 30.9783C72.9638 30.9783 71.3402 31.9443 70.8758 35.23ZM74.8971 48.1004C69.0589 48.1004 65.0784 44.6215 65.0784 37.8965V37.5113C65.0784 30.7467 69.2917 27.0362 74.7027 27.0362C79.7272 27.0362 83.9417 29.8563 83.9417 36.5441V38.9801H70.799C71.0306 42.6126 72.5774 44.0047 75.0111 44.0047C77.176 44.0047 78.3364 42.8454 78.7228 41.3766H83.9417C83.3214 45.2023 80.1916 48.1004 74.8971 48.1004ZM53.7118 48.1004C48.1076 48.1004 44.0491 44.6215 44.0491 37.7801V37.5113C44.0491 30.6699 48.3776 27.0362 53.7502 27.0362C58.3499 27.0362 62.1384 29.3558 62.6028 34.6492H57.1907C56.8426 32.6799 55.8382 31.4043 53.8666 31.4043C51.4689 31.4043 49.808 33.2968 49.808 37.2785V37.8965C49.808 41.9946 51.2769 43.8499 53.9061 43.8499C55.8382 43.8499 57.2675 42.4194 57.5771 40.2162H62.718C62.3316 44.8147 59.2007 48.1004 53.7118 48.1004ZM32.6824 48.1004C27.0782 48.1004 23.0197 44.6215 23.0197 37.7801V37.5113C23.0197 30.6699 27.3483 27.0362 32.7208 27.0362C37.3206 27.0362 41.1091 29.3558 41.5734 34.6492H36.1613C35.8133 32.6799 34.8089 31.4043 32.8372 31.4043C30.4396 31.4043 28.7787 33.2968 28.7787 37.2785V37.8965C28.7787 41.9946 30.2475 43.8499 32.8768 43.8499C34.8089 43.8499 36.2381 42.4194 36.5477 40.2162H41.6887C41.3023 44.8147 38.1714 48.1004 32.6824 48.1004ZM14.2428 40.9506V39.0185H11.9999C9.2182 39.0185 7.78893 39.7913 7.78893 41.607V41.8002C7.78893 43.1923 8.63974 44.1583 10.5322 44.1583C12.4655 44.1583 14.2428 43.077 14.2428 40.9506ZM8.83178 48.1004C5.19925 48.1004 2.18359 46.2463 2.18359 42.1471V41.9178C2.18359 36.9293 6.51213 35.3068 11.7311 35.3068H14.2428V34.342C14.2428 32.3307 13.3535 31.0935 11.2667 31.0935C9.37299 31.0935 8.36855 32.176 8.21259 33.7228H2.80162C3.18803 29.2394 6.74374 27.0362 11.5379 27.0362C16.4076 27.0362 19.8865 29.123 19.8865 34.1476V47.6768H14.3591V45.3559C13.3919 46.826 11.5379 48.1004 8.83178 48.1004Z" fill="black"/>
</svg>
