<svg width="82" height="82" viewBox="0 0 82 82" fill="none" xmlns="http://www.w3.org/2000/svg">
<g clip-path="url(#clip0_4151_27235)">
<path fill-rule="evenodd" clip-rule="evenodd" d="M79.8196 40.8996H71.6486C71.1688 40.9 70.7071 41.0825 70.3566 41.4101C70.0062 41.7377 69.7931 42.1861 69.7604 42.6648C68.7433 57.6889 56.1372 69.4575 41.062 69.4575C25.2005 69.4575 12.2962 56.5533 12.2962 40.6918C12.2962 25.7123 23.5301 13.3962 38.4272 12.0446C38.8977 12.0021 39.3353 11.7852 39.6539 11.4364C39.9725 11.0876 40.149 10.6322 40.1488 10.1597V1.98476C40.1489 1.72324 40.0949 1.46454 39.99 1.22498C39.8851 0.985409 39.7317 0.770176 39.5395 0.592854C39.3473 0.415532 39.1204 0.279969 38.8732 0.194719C38.626 0.109468 38.3638 0.07638 38.1031 0.0975409C30.3941 0.7317 23.0296 3.56686 16.8854 8.26576C10.7412 12.9647 6.07611 19.3295 3.44492 26.6033C0.813745 33.877 0.327262 41.7535 2.04334 49.2957C3.75943 56.838 7.60585 63.7285 13.1251 69.1478C18.6443 74.5671 25.604 78.287 33.1763 79.865C40.7487 81.443 48.6149 80.8127 55.8394 78.0491C63.0638 75.2854 69.3424 70.5048 73.9283 64.2758C78.5141 58.0468 81.2143 50.6317 81.7075 42.9124C81.7236 42.6544 81.6868 42.3959 81.5993 42.1527C81.5117 41.9095 81.3753 41.6867 81.1985 41.4982C81.0216 41.3097 80.808 41.1594 80.5709 41.0565C80.3338 40.9537 80.0781 40.9 79.8196 40.8996ZM55.6311 23.0364C55.992 22.8264 56.4123 22.7416 56.8264 22.7954C57.2405 22.8491 57.6253 23.0383 57.9207 23.3335C58.216 23.6287 58.4055 24.0133 58.4595 24.4274C58.5135 24.8415 58.4291 25.2618 58.2193 25.6229L45.2364 47.9979C44.5735 49.1676 43.6451 50.1653 42.526 50.9104C41.4069 51.6556 40.1283 52.1273 38.7934 52.2878C38.3965 52.3397 37.9967 52.366 37.5964 52.3666C36.4561 52.3687 35.327 52.1429 34.2752 51.7025C33.2234 51.2621 32.2703 50.616 31.4717 49.8022C31.468 49.799 31.4649 49.7943 31.4624 49.7925C30.5126 48.8437 29.7936 47.6893 29.361 46.4185C28.9283 45.1477 28.7935 43.7944 28.9669 42.4632C29.1404 41.1319 29.6175 39.8584 30.3614 38.7409C31.1053 37.6234 32.0961 36.6918 33.2573 36.018L55.6311 23.0364ZM69.6406 37.3971C68.998 31.7276 66.6735 26.3802 62.9661 22.0431C62.6573 21.6812 62.4963 21.2162 62.5153 20.7409C62.5343 20.2655 62.7319 19.8149 63.0686 19.4788L68.9657 13.5803C69.1486 13.3973 69.3671 13.2537 69.6077 13.1585C69.8483 13.0632 70.1059 13.0182 70.3645 13.0264C70.6231 13.0345 70.8773 13.0955 71.1114 13.2057C71.3456 13.3159 71.5546 13.4729 71.7257 13.667C77.4839 20.17 80.9692 28.3702 81.6553 37.029C81.6761 37.2896 81.6428 37.5518 81.5574 37.7989C81.4721 38.0461 81.3364 38.2729 81.1591 38.465C80.9818 38.6572 80.7666 38.8106 80.5271 38.9155C80.2875 39.0204 80.0289 39.0746 79.7674 39.0747H71.5221C71.0572 39.075 70.6084 38.9042 70.2614 38.5947C69.9144 38.2853 69.6934 37.859 69.6406 37.3971ZM60.3925 18.7868C59.9579 18.787 59.5367 18.6371 59.2 18.3623C54.7783 14.7567 49.379 12.5564 43.6966 12.0444C43.2261 12.002 42.7885 11.785 42.4697 11.4363C42.151 11.0875 41.9743 10.6322 41.9742 10.1597V1.93271C41.9744 1.67421 42.0275 1.41848 42.1303 1.1813C42.233 0.944113 42.3833 0.730498 42.5718 0.553627C42.7604 0.376756 42.9831 0.240378 43.2264 0.152904C43.4696 0.0654303 43.7282 0.0287148 43.9862 0.0450218C52.656 0.572191 60.9187 3.90666 67.5259 9.54466C67.7252 9.71391 67.8872 9.92261 68.0018 10.1576C68.1164 10.3926 68.1811 10.6488 68.1917 10.91C68.2024 11.1712 68.1588 11.4318 68.0637 11.6754C67.9686 11.9189 67.8241 12.1401 67.6393 12.325L61.7315 18.2333C61.5557 18.4092 61.3469 18.5486 61.1171 18.6435C60.8874 18.7385 60.6411 18.7872 60.3925 18.7868Z" fill="#E28D00"/>
</g>
<defs>
<clipPath id="clip0_4151_27235">
<rect width="80.7477" height="80.7477" fill="white" transform="translate(0.916016 0.322502)"/>
</clipPath>
</defs>
</svg>
