<svg width="32" height="32" viewBox="0 0 32 32" fill="none" xmlns="http://www.w3.org/2000/svg">
<path d="M19.6268 11.7198L13.9068 17.4532L11.7068 15.2532C11.5872 15.1136 11.4401 15.0002 11.2747 14.9202C11.1093 14.8402 10.9291 14.7952 10.7455 14.7881C10.5619 14.781 10.3788 14.812 10.2077 14.879C10.0366 14.946 9.88116 15.0477 9.75122 15.1776C9.62128 15.3076 9.5196 15.463 9.45257 15.6341C9.38554 15.8052 9.3546 15.9883 9.36169 16.1719C9.36878 16.3555 9.41376 16.5357 9.49379 16.7011C9.57382 16.8666 9.68718 17.0136 9.82675 17.1332L12.9601 20.2798C13.0847 20.4034 13.2324 20.5012 13.3949 20.5675C13.5573 20.6339 13.7313 20.6675 13.9068 20.6665C14.2565 20.665 14.5917 20.5262 14.8401 20.2798L21.5068 13.6132C21.6317 13.4892 21.7309 13.3418 21.7986 13.1793C21.8663 13.0168 21.9012 12.8425 21.9012 12.6665C21.9012 12.4905 21.8663 12.3162 21.7986 12.1537C21.7309 11.9913 21.6317 11.8438 21.5068 11.7198C21.2569 11.4715 20.919 11.3321 20.5668 11.3321C20.2145 11.3321 19.8766 11.4715 19.6268 11.7198ZM16.0001 2.6665C13.363 2.6665 10.7851 3.44849 8.59248 4.91358C6.39983 6.37866 4.69086 8.46104 3.68169 10.8974C2.67253 13.3337 2.40848 16.0146 2.92295 18.601C3.43742 21.1875 4.7073 23.5632 6.572 25.4279C8.4367 27.2926 10.8125 28.5625 13.3989 29.077C15.9853 29.5914 18.6662 29.3274 21.1025 28.3182C23.5389 27.3091 25.6213 25.6001 27.0863 23.4074C28.5514 21.2148 29.3334 18.6369 29.3334 15.9998C29.3334 14.2489 28.9885 12.5151 28.3185 10.8974C27.6484 9.27972 26.6663 7.80986 25.4282 6.57175C24.1901 5.33363 22.7202 4.35151 21.1025 3.68144C19.4849 3.01138 17.751 2.6665 16.0001 2.6665ZM16.0001 26.6665C13.8904 26.6665 11.8281 26.0409 10.074 24.8688C8.31988 23.6968 6.95271 22.0309 6.14537 20.0818C5.33804 18.1327 5.1268 15.988 5.53838 13.9189C5.94995 11.8497 6.96586 9.94913 8.45761 8.45737C9.94938 6.96561 11.85 5.9497 13.9191 5.53813C15.9883 5.12655 18.133 5.33779 20.082 6.14512C22.0311 6.95246 23.697 8.31963 24.8691 10.0738C26.0412 11.8279 26.6668 13.8902 26.6668 15.9998C26.6668 18.8288 25.5429 21.5419 23.5426 23.5423C21.5422 25.5427 18.8291 26.6665 16.0001 26.6665Z" fill="#6FCF97"/>
</svg>
