<svg xmlns="http://www.w3.org/2000/svg" width="20" height="21" viewBox="0 0 20 21" fill="none">
  <path fill-rule="evenodd" clip-rule="evenodd" d="M6.86491 2.1665C6.86491 1.82133 7.14473 1.5415 7.48991 1.5415H12.4899C12.8351 1.5415 13.1149 1.82133 13.1149 2.1665C13.1149 2.51168 12.8351 2.7915 12.4899 2.7915H7.48991C7.14473 2.7915 6.86491 2.51168 6.86491 2.1665ZM9.98991 4.87484C6.31009 4.87484 3.32324 7.86168 3.32324 11.5415C3.32324 15.2213 6.31009 18.2082 9.98991 18.2082C13.6697 18.2082 16.6566 15.2213 16.6566 11.5415C16.6566 7.86168 13.6697 4.87484 9.98991 4.87484ZM2.07324 11.5415C2.07324 7.17133 5.61973 3.62484 9.98991 3.62484C14.3601 3.62484 17.9066 7.17133 17.9066 11.5415C17.9066 15.9117 14.3601 19.4582 9.98991 19.4582C5.61973 19.4582 2.07324 15.9117 2.07324 11.5415ZM9.98991 6.5415C10.3351 6.5415 10.6149 6.82133 10.6149 7.1665V11.3332C10.6149 11.6783 10.3351 11.9582 9.98991 11.9582C9.64473 11.9582 9.36491 11.6783 9.36491 11.3332V7.1665C9.36491 6.82133 9.64473 6.5415 9.98991 6.5415Z" fill="#178A86"/>
</svg>