<svg width="24" height="24" viewBox="0 0 24 24" fill="none" xmlns="http://www.w3.org/2000/svg">
<path d="M12 13.4949L4.8034 20.6918C4.60693 20.888 4.35997 20.9885 4.06254 20.9933C3.76534 20.9978 3.51389 20.8973 3.30819 20.6918C3.10273 20.4861 3 20.2369 3 19.9442C3 19.6515 3.10273 19.4023 3.30819 19.1966L10.5051 12L3.30819 4.80341C3.11195 4.60693 3.01147 4.35997 3.00674 4.06254C3.00225 3.76534 3.10273 3.51389 3.30819 3.30819C3.51389 3.10273 3.76309 3 4.0558 3C4.3485 3 4.59771 3.10273 4.8034 3.30819L12 10.5051L19.1966 3.30819C19.3931 3.11195 19.64 3.01147 19.9375 3.00674C20.2347 3.00225 20.4861 3.10273 20.6918 3.30819C20.8973 3.51389 21 3.76309 21 4.0558C21 4.34851 20.8973 4.59771 20.6918 4.80341L13.4949 12L20.6918 19.1966C20.888 19.3931 20.9885 19.64 20.9933 19.9375C20.9978 20.2347 20.8973 20.4861 20.6918 20.6918C20.4861 20.8973 20.2369 21 19.9442 21C19.6515 21 19.4023 20.8973 19.1966 20.6918L12 13.4949Z" fill="currentColor"/>
</svg>
