<svg width="20" height="20" viewBox="0 0 20 20" fill="none" xmlns="http://www.w3.org/2000/svg">
<path d="M7.19779 7.19795C7.45568 6.94005 7.87381 6.94005 8.1317 7.19795L10.4163 9.48256L12.7009 7.19795C12.9588 6.94005 13.377 6.94005 13.6348 7.19795C13.8927 7.45584 13.8927 7.87397 13.6348 8.13186L11.3502 10.4165L13.6348 12.7011C13.8927 12.959 13.8927 13.3771 13.6348 13.635C13.377 13.8929 12.9588 13.8929 12.7009 13.635L10.4163 11.3504L8.1317 13.635C7.87381 13.8929 7.45568 13.8929 7.19779 13.635C6.93989 13.3771 6.93989 12.959 7.19779 12.7011L9.4824 10.4165L7.19779 8.13186C6.93989 7.87397 6.93989 7.45584 7.19779 7.19795Z" fill="currentColor"/>
<path fill-rule="evenodd" clip-rule="evenodd" d="M1.66675 10.4165C1.66675 5.58401 5.58426 1.6665 10.4167 1.6665C15.2492 1.6665 19.1667 5.58401 19.1667 10.4165C19.1667 15.249 15.2492 19.1665 10.4167 19.1665C5.58426 19.1665 1.66675 15.249 1.66675 10.4165ZM10.4167 2.98726C6.31369 2.98726 2.9875 6.31344 2.9875 10.4165C2.9875 14.5196 6.31369 17.8457 10.4167 17.8457C14.5198 17.8457 17.846 14.5196 17.846 10.4165C17.846 6.31344 14.5198 2.98726 10.4167 2.98726Z" fill="currentColor"/>
</svg>
