<svg width="19" height="20" viewBox="0 0 19 20" fill="none" xmlns="http://www.w3.org/2000/svg">
<path fill-rule="evenodd" clip-rule="evenodd" d="M6.70669 2.35773L6.55528 3.25931C7.07716 3.24456 7.59906 3.23718 8.12096 3.23718C9.27701 3.23718 10.4342 3.25891 11.5912 3.30189L11.4324 2.36343C11.3546 1.8862 11.3054 1.7149 11.215 1.61074C11.165 1.55311 10.9907 1.39535 10.2885 1.39535H7.85126C7.13861 1.39535 6.96959 1.54873 6.92453 1.59982C6.83884 1.69699 6.79048 1.86024 6.70669 2.35773ZM5.33067 2.12631L5.13055 3.31789C4.26243 3.36475 3.39434 3.43202 2.52631 3.51968L0.629651 3.70563C0.246175 3.74322 -0.0342161 4.08457 0.00337948 4.46805C0.0409751 4.85152 0.382321 5.13191 0.765796 5.09432L2.66347 4.90827L2.66551 4.90807C4.48419 4.72436 6.30264 4.63253 8.12096 4.63253C11.2043 4.63253 14.2976 4.78947 17.3731 5.09425C17.7565 5.13224 18.0982 4.85221 18.1361 4.46877C18.1741 4.08534 17.8941 3.7437 17.5107 3.7057C16.0162 3.55759 14.5172 3.44387 13.0169 3.36558C13.0159 3.35841 13.0148 3.35123 13.0136 3.34405L12.8093 2.13684L12.8005 2.0827C12.7393 1.70238 12.6477 1.13279 12.2689 0.696227C11.8305 0.191069 11.1584 0 10.2885 0H7.85126C6.99181 0 6.31898 0.176853 5.87799 0.676921C5.49967 1.10593 5.4057 1.67348 5.34165 2.06034L5.33067 2.12631ZM16.1384 7.3845C16.1633 6.99999 15.8717 6.66815 15.4872 6.64333C15.1026 6.61852 14.7708 6.91011 14.746 7.29462L14.1416 16.6582L14.1415 16.6601C14.1152 17.0348 14.093 17.3319 14.0408 17.5909C13.99 17.8431 13.9195 18.0088 13.8285 18.1273C13.6714 18.3318 13.2836 18.6047 12.0562 18.6047H6.0841C4.85672 18.6047 4.46887 18.3318 4.31182 18.1273C4.22075 18.0088 4.15024 17.8431 4.09944 17.5909C4.04728 17.3319 4.02506 17.0348 3.99881 16.6601L3.99867 16.6582L3.39428 7.29462C3.36946 6.91011 3.03763 6.61852 2.65312 6.64333C2.2686 6.66815 1.97701 6.99999 2.00183 7.3845L2.60647 16.7519L2.60798 16.7734C2.63249 17.1234 2.65944 17.5083 2.73156 17.8664C2.80634 18.2377 2.93815 18.6296 3.20522 18.9773C3.76445 19.7054 4.71613 20 6.0841 20H12.0562C13.4241 20 14.3758 19.7054 14.9351 18.9773C15.2021 18.6296 15.3339 18.2377 15.4087 17.8664C15.4808 17.5083 15.5078 17.1234 15.5323 16.7734L15.5335 16.7557L16.1384 7.3845ZM6.81866 14.186C6.81866 13.8007 7.13102 13.4883 7.51634 13.4883H10.614C10.9993 13.4883 11.3117 13.8007 11.3117 14.186C11.3117 14.5713 10.9993 14.8837 10.614 14.8837H7.51634C7.13102 14.8837 6.81866 14.5713 6.81866 14.186ZM6.74417 9.76742C6.35886 9.76742 6.0465 10.0798 6.0465 10.4651C6.0465 10.8504 6.35886 11.1628 6.74417 11.1628H11.3953C11.7806 11.1628 12.093 10.8504 12.093 10.4651C12.093 10.0798 11.7806 9.76742 11.3953 9.76742H6.74417Z" fill="#768C9A"/>
</svg>
