<svg width="126" height="24" viewBox="0 0 126 24" fill="none" xmlns="http://www.w3.org/2000/svg">
<path d="M119.131 20.1829C119.131 18.3424 120.625 16.8492 122.465 16.8492C124.305 16.8492 125.798 18.3424 125.798 20.1829C125.798 22.0233 124.305 23.5155 122.465 23.5155C120.625 23.5155 119.131 22.0233 119.131 20.1829Z" fill="#86BC24"/>
<path d="M12.8159 11.3545C12.8159 9.243 12.408 7.67651 11.5919 6.65597C10.7749 5.63639 9.53721 5.12708 7.87332 5.12708H6.10333V18.0392H7.45753C9.30569 18.0392 10.66 17.4913 11.5224 16.3916C12.3837 15.2939 12.8159 13.6145 12.8159 11.3545ZM19.1282 11.1346C19.1282 14.9814 18.0941 17.9456 16.026 20.0262C13.9579 22.1078 11.0507 23.1486 7.30323 23.1486H0.0214844V0.0977173H7.81152C11.4249 0.0977173 14.2145 1.04398 16.1803 2.93555C18.1452 4.82808 19.1282 7.55981 19.1282 11.1346Z" fill="#0F0B0B"/>
<path d="M39.2983 23.1486H45.0927V0.00128174H39.2983V23.1486Z" fill="#0F0B0B"/>
<path d="M53.2331 14.5143C53.2331 15.9901 53.426 17.1158 53.811 17.8894C54.1968 18.664 54.843 19.0508 55.7516 19.0508C56.6506 19.0508 57.2863 18.664 57.6567 17.8894C58.0271 17.1158 58.2114 15.9901 58.2114 14.5143C58.2114 13.0462 58.0242 11.9388 57.649 11.1913C57.2728 10.4418 56.6314 10.0665 55.7219 10.0665C54.8325 10.0665 54.1968 10.4399 53.811 11.1826C53.426 11.9263 53.2331 13.0365 53.2331 14.5143ZM64.1089 14.5143C64.1089 17.3261 63.3719 19.5196 61.8941 21.0919C60.4174 22.6651 58.3503 23.4522 55.6929 23.4522C53.1444 23.4522 51.1158 22.6477 49.6101 21.0388C48.1025 19.4298 47.3491 17.2557 47.3491 14.5143C47.3491 11.7112 48.0871 9.53312 49.5649 7.98012C51.0425 6.42712 53.1145 5.65063 55.7825 5.65063C57.4311 5.65063 58.8896 6.01045 60.1532 6.72907C61.4177 7.44769 62.3939 8.47691 63.0797 9.8177C63.7665 11.1566 64.1089 12.7231 64.1089 14.5143Z" fill="#0F0B0B"/>
<path d="M66.4092 23.1487H72.2045V14.2898V5.95477H66.4092V23.1487Z" fill="#0F0B0B"/>
<path d="M66.4092 3.87477H72.2045V0H66.4092V3.87477Z" fill="#0F0B0B"/>
<path d="M83.9453 18.7631C84.7277 18.7631 85.6594 18.5644 86.7464 18.1698V22.496C85.9651 22.8394 85.2225 23.0854 84.5164 23.231C83.8103 23.3786 82.9816 23.4519 82.0335 23.4519C80.0879 23.4519 78.6854 22.9629 77.8239 21.9867C76.9665 21.0106 76.5363 19.5116 76.5363 17.4888V10.401H74.5068V5.95614H76.5363V1.5653L82.376 0.549561V5.95614H86.0733V10.401H82.376V17.0933C82.376 18.2065 82.8997 18.7631 83.9453 18.7631Z" fill="#0F0B0B"/>
<path d="M97.3584 18.7631C98.1407 18.7631 99.0726 18.5644 100.16 18.1698V22.496C99.3794 22.8394 98.6355 23.0854 97.9294 23.231C97.2224 23.3786 96.3967 23.4519 95.4465 23.4519C93.501 23.4519 92.0986 22.9629 91.2391 21.9867C90.3797 21.0106 89.9495 19.5116 89.9495 17.4888V10.401H87.9189V5.95614H89.9495V1.49875L95.7881 0.549561V5.95614H99.4873V10.401H95.7881V17.0933C95.7881 18.2065 96.3119 18.7631 97.3584 18.7631Z" fill="#0F0B0B"/>
<path d="M107.471 12.4193C107.55 11.4779 107.82 10.7882 108.279 10.3474C108.74 9.9075 109.309 9.68759 109.99 9.68759C110.733 9.68759 111.323 9.9345 111.761 10.4322C112.202 10.9271 112.431 11.5898 112.45 12.4193H107.471ZM115.643 7.67739C114.266 6.32696 112.312 5.65076 109.783 5.65076C107.126 5.65076 105.081 6.42725 103.648 7.98024C102.215 9.53324 101.499 11.7615 101.499 14.6649C101.499 17.4767 102.273 19.6451 103.818 21.1672C105.365 22.6893 107.536 23.4514 110.332 23.4514C111.675 23.4514 112.831 23.3598 113.799 23.1774C114.762 22.9971 115.694 22.671 116.597 22.2003L115.707 18.3255C115.05 18.5937 114.425 18.8001 113.835 18.9361C112.982 19.1338 112.047 19.2332 111.028 19.2332C109.911 19.2332 109.029 18.9602 108.383 18.4142C107.737 17.8673 107.392 17.113 107.353 16.1523H117.71V13.5122C117.71 10.9724 117.022 9.02686 115.643 7.67739Z" fill="#0F0B0B"/>
<path d="M26.819 12.4193C26.898 11.4779 27.1672 10.7882 27.6262 10.3474C28.0864 9.9075 28.6566 9.68759 29.3386 9.68759C30.0794 9.68759 30.6696 9.9345 31.1086 10.4322C31.5494 10.9271 31.778 11.5898 31.7983 12.4193H26.819ZM34.992 7.67739C33.6136 6.32696 31.6602 5.65076 29.1312 5.65076C26.4727 5.65076 24.4286 6.42725 22.9962 7.98024C21.5638 9.53324 20.8462 11.7615 20.8462 14.6649C20.8462 17.4767 21.6198 19.6451 23.1671 21.1672C24.7123 22.6893 26.8836 23.4514 29.68 23.4514C31.0227 23.4514 32.1782 23.3598 33.1467 23.1774C34.1093 22.9971 35.0413 22.671 35.9461 22.2003L35.0547 18.3255C34.3978 18.5937 33.7727 18.8001 33.1834 18.9361C32.3288 19.1338 31.394 19.2332 30.3753 19.2332C29.2593 19.2332 28.3769 18.9602 27.7306 18.4142C27.0833 17.8673 26.74 17.113 26.7005 16.1523H37.0582V13.5122C37.0582 10.9724 36.3694 9.02686 34.992 7.67739Z" fill="#0F0B0B"/>
</svg>
