<svg width="46" height="46" viewBox="0 0 46 46" fill="none" xmlns="http://www.w3.org/2000/svg">
<path fill-rule="evenodd" clip-rule="evenodd" d="M0.360291 22.999C0.360291 35.3644 10.3846 45.3887 22.7499 45.3887C35.1154 45.3887 45.1397 35.3644 45.1397 22.999C45.1397 10.6337 35.1154 0.609425 22.7499 0.609425C10.3846 0.609425 0.360291 10.6337 0.360291 22.999ZM22.7499 42.6092C11.9197 42.6092 3.13974 33.8293 3.13974 22.999C3.13974 12.1688 11.9197 3.38887 22.7499 3.38887C33.5804 3.38887 42.3603 12.1688 42.3603 22.999C42.3603 33.8293 33.5804 42.6092 22.7499 42.6092Z" fill="#DB7119"/>
<path d="M17.4446 16.3693C17.4446 18.0174 16.1086 19.3532 14.4604 19.3532C12.8125 19.3532 11.4765 18.0174 11.4765 16.3693C11.4765 14.7211 12.8125 13.3848 14.4604 13.3848C16.1086 13.3848 17.4446 14.7211 17.4446 16.3693Z" fill="#DB7119"/>
<path fill-rule="evenodd" clip-rule="evenodd" d="M14.4604 19.3069C16.083 19.3069 17.3983 17.9919 17.3983 16.3693C17.3983 14.7467 16.083 13.4311 14.4604 13.4311C12.8381 13.4311 11.5228 14.7467 11.5228 16.3693C11.5228 17.9919 12.8381 19.3069 14.4604 19.3069ZM14.4604 19.3532C16.1086 19.3532 17.4446 18.0174 17.4446 16.3693C17.4446 14.7211 16.1086 13.3848 14.4604 13.3848C12.8125 13.3848 11.4765 14.7211 11.4765 16.3693C11.4765 18.0174 12.8125 19.3532 14.4604 19.3532Z" fill="#DB7119"/>
<path d="M34.0239 16.3693C34.0239 18.0174 32.6873 19.3532 31.0391 19.3532C29.3912 19.3532 28.0552 18.0174 28.0552 16.3693C28.0552 14.7211 29.3912 13.3848 31.0391 13.3848C32.6873 13.3848 34.0239 14.7211 34.0239 16.3693Z" fill="#DB7119"/>
<path fill-rule="evenodd" clip-rule="evenodd" d="M31.0391 19.3069C32.6617 19.3069 33.9775 17.9918 33.9775 16.3693C33.9775 14.7467 32.6617 13.4311 31.0391 13.4311C29.4168 13.4311 28.1015 14.7467 28.1015 16.3693C28.1015 17.9919 29.4168 19.3069 31.0391 19.3069ZM31.0391 19.3532C32.6873 19.3532 34.0239 18.0174 34.0239 16.3693C34.0239 14.7211 32.6873 13.3848 31.0391 13.3848C29.3912 13.3848 28.0552 14.7211 28.0552 16.3693C28.0552 18.0174 29.3912 19.3532 31.0391 19.3532Z" fill="#DB7119"/>
<path d="M12.682 34.2616C11.8484 33.695 11.7066 32.5221 12.3826 31.7745C15.1391 28.7257 18.9949 26.9062 23.1919 26.9062C27.3894 26.9062 31.2451 28.7257 34.0014 31.7745C34.677 32.5221 34.5358 33.695 33.7022 34.2616C33.6927 34.268 33.6839 34.274 33.6746 34.2803C32.988 34.7467 32.0669 34.6315 31.5073 34.0185C27.0342 29.1202 19.3498 29.1198 14.8763 34.0185C14.3172 34.6315 13.3957 34.7467 12.7096 34.2803C12.7004 34.274 12.6909 34.268 12.682 34.2616Z" fill="#DB7119"/>
<path fill-rule="evenodd" clip-rule="evenodd" d="M12.709 34.2239L12.709 34.224C12.714 34.2276 12.718 34.2302 12.7225 34.2332C12.7263 34.2357 12.7304 34.2384 12.7359 34.2422L12.7096 34.2803L12.7357 34.242C13.4024 34.6952 14.2983 34.5835 14.8421 33.9873L14.8421 33.9873C19.334 29.0685 27.05 29.0689 31.5415 33.9873L31.5086 34.0173L31.5415 33.9873C32.0859 34.5835 32.9813 34.6952 33.6486 34.242L33.6762 34.2233C34.4866 33.6725 34.6238 32.5322 33.967 31.8055C31.2191 28.7659 27.3756 26.9526 23.1919 26.9526C19.0086 26.9526 15.1651 28.7659 12.417 31.8055L12.417 31.8055C11.7598 32.5322 11.8977 33.6725 12.708 34.2233L12.709 34.2239ZM33.7022 34.2616L33.6746 34.2803C32.988 34.7467 32.0669 34.6315 31.5073 34.0185C27.0342 29.1202 19.3498 29.1198 14.8763 34.0185M12.682 34.2616C11.8484 33.695 11.7066 32.5221 12.3826 31.7745C15.1391 28.7257 18.9949 26.9062 23.1919 26.9062C27.3894 26.9062 31.2451 28.7257 34.0014 31.7745C34.677 32.5221 34.5358 33.695 33.7022 34.2616" fill="#DB7119"/>
</svg>
