<svg width="115" height="96" viewBox="0 0 115 96" fill="none" xmlns="http://www.w3.org/2000/svg">
<path d="M72.5344 41.3169C74.6207 42.2164 77.0188 42.3261 79.3917 42.4301C81.4545 48.5004 82.2275 57.7186 87.9792 60.1333C93.7308 62.5481 100.971 61.6706 103.357 58.7695C111.428 48.9823 112.411 37.2914 111.194 26.038C110.299 17.6967 109.437 0.0525382 95.8117 1.33067C85.6417 2.28616 80.4069 12.9104 78.4039 21.8694C78.3388 21.8763 78.2818 21.8823 78.2167 21.8891C73.3772 22.5879 68.6525 25.6283 66.9334 29.8583C64.9813 34.6889 67.7587 39.2602 72.5181 41.3186L72.5344 41.3169Z" fill="#F7AACE"/>
<path fill-rule="evenodd" clip-rule="evenodd" d="M101.177 18.1835C101.787 18.0026 102.428 18.35 102.609 18.9595C104.812 26.3812 105.777 33.6572 105.636 41.9865C105.627 42.5423 105.222 43.0121 104.673 43.1029C101.703 43.5948 97.3668 43.7035 94.4362 43.595C93.8008 43.5715 93.3048 43.0373 93.3283 42.4019C93.3519 41.7665 93.886 41.2705 94.5214 41.294C97.0622 41.3881 100.645 41.3098 103.345 40.9689C103.393 33.2682 102.447 26.5066 100.401 19.6148C100.22 19.0053 100.568 18.3645 101.177 18.1835Z" fill="white"/>
<path d="M9.2473 41.3169C11.3336 42.2164 13.7317 42.3261 16.1046 42.4301C18.1674 48.5004 18.9404 57.7186 24.692 60.1333C30.4437 62.5481 37.6839 61.6706 40.0696 58.7695C48.1412 48.9823 49.1242 37.2914 47.9065 26.038C47.0119 17.6967 46.1501 0.0525382 32.5246 1.33067C22.3546 2.28616 17.1198 12.9104 15.1168 21.8694C15.0517 21.8763 14.9947 21.8823 14.9296 21.8891C10.0901 22.5879 5.36536 25.6283 3.64629 29.8583C1.69419 34.6889 4.47155 39.2602 9.23103 41.3186L9.2473 41.3169Z" fill="#F7AACE"/>
<path fill-rule="evenodd" clip-rule="evenodd" d="M37.8902 18.1835C38.4997 18.0026 39.1405 18.35 39.3215 18.9595C41.5248 26.3812 42.4897 33.6572 42.3492 41.9865C42.3399 42.5423 41.9347 43.0121 41.3862 43.1029C38.4164 43.5948 34.0797 43.7035 31.1491 43.595C30.5137 43.5715 30.0177 43.0373 30.0412 42.4019C30.0648 41.7665 30.5989 41.2705 31.2343 41.294C33.7751 41.3881 37.3575 41.3098 40.0583 40.9689C40.106 33.2682 39.1602 26.5066 37.1142 19.6148C36.9332 19.0053 37.2806 18.3645 37.8902 18.1835Z" fill="white"/>
<path d="M35.8093 68.3176C38.3193 69.4 41.2045 69.532 44.0593 69.6573C46.5408 76.9606 47.4704 88.0511 54.3901 90.9565C61.3098 93.862 70.0207 92.8067 72.891 89.3164C82.6025 77.5418 83.7856 63.4765 82.3211 49.9373C81.2452 39.9019 80.2092 18.674 63.8163 20.2111C51.5806 21.3602 45.2821 34.142 42.8719 44.9206C42.7935 44.9288 42.725 44.9361 42.6466 44.9443C36.8241 45.7848 31.1397 49.4425 29.0713 54.5315C26.7224 60.3431 30.0637 65.8431 35.7897 68.3197L35.8093 68.3176Z" fill="#E84C8D"/>
<path fill-rule="evenodd" clip-rule="evenodd" d="M70.2709 40.4893C71.0043 40.2716 71.7752 40.6896 71.9929 41.4229C74.6434 50.3521 75.804 59.1059 75.6346 69.127C75.6232 69.7957 75.1357 70.3608 74.4759 70.4701C70.9028 71.0618 65.6853 71.1923 62.1596 71.0616C61.3951 71.0333 60.7984 70.3906 60.8267 69.6262C60.855 68.8618 61.4977 68.265 62.2622 68.2933C65.3189 68.4066 69.629 68.3126 72.8784 67.9026C72.9362 58.6378 71.7985 50.5028 69.3372 42.2113C69.1196 41.4779 69.5376 40.7069 70.2709 40.4893Z" fill="white"/>
</svg>
