<svg width="32" height="32" viewBox="0 0 32 32" fill="none" xmlns="http://www.w3.org/2000/svg">
<path d="M16.0003 2.66669C13.3632 2.66669 10.7854 3.44867 8.59273 4.91376C6.40007 6.37884 4.69111 8.46123 3.68194 10.8976C2.67277 13.3339 2.40872 16.0148 2.92319 18.6012C3.43766 21.1876 4.70754 23.5634 6.57224 25.4281C8.43694 27.2928 10.8127 28.5627 13.3991 29.0772C15.9855 29.5916 18.6664 29.3276 21.1028 28.3184C23.5391 27.3092 25.6215 25.6003 27.0866 23.4076C28.5517 21.215 29.3337 18.6371 29.3337 16C29.3337 14.2491 28.9888 12.5152 28.3187 10.8976C27.6487 9.2799 26.6665 7.81004 25.4284 6.57193C24.1903 5.33382 22.7205 4.35169 21.1028 3.68163C19.4851 3.01156 17.7513 2.66669 16.0003 2.66669ZM16.0003 26.6667C13.1714 26.6667 10.4582 25.5429 8.45786 23.5425C6.45747 21.5421 5.33366 18.829 5.33366 16C5.33072 13.6311 6.12435 11.3301 7.587 9.46669L22.5337 24.4134C20.6703 25.876 18.3692 26.6696 16.0003 26.6667ZM24.4137 22.5334L9.467 7.58669C11.3304 6.12404 13.6315 5.33041 16.0003 5.33335C18.8293 5.33335 21.5424 6.45716 23.5428 8.45755C25.5432 10.4579 26.667 13.171 26.667 16C26.6699 18.3689 25.8763 20.67 24.4137 22.5334Z" fill="#EB5757"/>
</svg>
