<svg width="43" height="42" viewBox="0 0 43 42" fill="none" xmlns="http://www.w3.org/2000/svg">
<path fill-rule="evenodd" clip-rule="evenodd" d="M21.25 42C32.848 42 42.25 32.598 42.25 21C42.25 9.40202 32.848 0 21.25 0C9.65202 0 0.25 9.40202 0.25 21C0.25 32.598 9.65202 42 21.25 42ZM13.049 17.5981C14.5949 17.5981 15.8478 16.3453 15.8478 14.7993C15.8478 13.2534 14.5949 12 13.049 12C11.5031 12 10.25 13.2534 10.25 14.7993C10.25 16.3453 11.5031 17.5981 13.049 17.5981ZM31.3984 14.7993C31.3984 16.3453 30.1453 17.5981 28.599 17.5981C27.0532 17.5981 25.8 16.3453 25.8 14.7993C25.8 13.2534 27.0532 12 28.599 12C30.1453 12 31.3984 13.2534 31.3984 14.7993ZM31.9293 29.6188C32.5633 28.9174 32.4305 27.8172 31.6484 27.2859C31.6422 27.2815 31.6358 27.2772 31.6292 27.2729C31.627 27.2714 31.6248 27.2699 31.6226 27.2684C30.9791 26.831 30.1147 26.9389 29.5903 27.5138C25.3943 32.1088 18.1868 32.1088 13.9911 27.5138C13.4662 26.9389 12.6018 26.831 11.9585 27.2684L11.9324 27.2859C11.1505 27.8172 11.0181 28.9174 11.6518 29.6188C14.2371 32.4784 17.8536 34.185 21.7908 34.185C25.7273 34.185 29.3438 32.4784 31.9293 29.6188Z" fill="#1ED842"/>
</svg>
