<svg width="42" height="42" viewBox="0 0 42 42" fill="none" xmlns="http://www.w3.org/2000/svg">
<path fill-rule="evenodd" clip-rule="evenodd" d="M21 42C32.598 42 42 32.598 42 21C42 9.40202 32.598 0 21 0C9.40202 0 0 9.40202 0 21C0 32.598 9.40202 42 21 42ZM12.799 17.5981C14.3449 17.5981 15.5978 16.3453 15.5978 14.7993C15.5978 13.2534 14.3449 12 12.799 12C11.2531 12 10 13.2534 10 14.7993C10 16.3453 11.2531 17.5981 12.799 17.5981ZM31.1484 14.7993C31.1484 16.3453 29.8953 17.5981 28.349 17.5981C26.8032 17.5981 25.55 16.3453 25.55 14.7993C25.55 13.2534 26.8032 12 28.349 12C29.8953 12 31.1484 13.2534 31.1484 14.7993ZM20.2262 33.9156H21.3239C25.3148 33.9156 28.5501 30.6798 28.5501 26.689V25.6105C28.5501 25.2734 28.2767 25 27.9394 25H13.6107C13.2735 25 13 25.2734 13 25.6105V26.689C13 30.6798 16.2353 33.9156 20.2262 33.9156Z" fill="#0B9825"/>
</svg>
