<svg width="43" height="42" viewBox="0 0 43 42" fill="none" xmlns="http://www.w3.org/2000/svg">
<path fill-rule="evenodd" clip-rule="evenodd" d="M21.75 42C33.348 42 42.75 32.598 42.75 21C42.75 9.40202 33.348 0 21.75 0C10.152 0 0.75 9.40202 0.75 21C0.75 32.598 10.152 42 21.75 42ZM13.549 17.5981C15.0949 17.5981 16.3478 16.3453 16.3478 14.7993C16.3478 13.2534 15.0949 12 13.549 12C12.0031 12 10.75 13.2534 10.75 14.7993C10.75 16.3453 12.0031 17.5981 13.549 17.5981ZM31.8984 14.7993C31.8984 16.3453 30.6453 17.5981 29.099 17.5981C27.5532 17.5981 26.3 16.3453 26.3 14.7993C26.3 13.2534 27.5532 12 29.099 12C30.6453 12 31.8984 13.2534 31.8984 14.7993ZM11.1519 29.5662C10.5178 30.2674 10.6508 31.3676 11.4327 31.899C11.441 31.905 11.4499 31.9106 11.4586 31.9166C12.1021 32.354 12.9665 32.2459 13.4909 31.671C17.6868 27.0762 24.8944 27.0766 29.09 31.671C29.6149 32.2459 30.4788 32.354 31.1228 31.9166L31.1487 31.899C31.9306 31.3676 32.0631 30.2674 31.4293 29.5662C28.8441 26.7065 25.2276 25 21.2905 25C17.3539 25 13.7373 26.7065 11.1519 29.5662Z" fill="#DB7119"/>
</svg>
