<svg width="43" height="42" viewBox="0 0 43 42" fill="none" xmlns="http://www.w3.org/2000/svg">
<path fill-rule="evenodd" clip-rule="evenodd" d="M21.5 42C33.098 42 42.5 32.598 42.5 21C42.5 9.40202 33.098 0 21.5 0C9.90202 0 0.5 9.40202 0.5 21C0.5 32.598 9.90202 42 21.5 42ZM13.299 17.5981C14.8449 17.5981 16.0978 16.3453 16.0978 14.7993C16.0978 13.2534 14.8449 12 13.299 12C11.7531 12 10.5 13.2534 10.5 14.7993C10.5 16.3453 11.7531 17.5981 13.299 17.5981ZM31.6484 14.7993C31.6484 16.3453 30.3953 17.5981 28.849 17.5981C27.3032 17.5981 26.05 16.3453 26.05 14.7993C26.05 13.2534 27.3032 12 28.849 12C30.3953 12 31.6484 13.2534 31.6484 14.7993ZM15.5107 31.799H28.4594C29.1778 31.799 29.7601 31.2167 29.7601 30.4987V30.3009C29.7601 29.5823 29.1778 29 28.4594 29H15.5107C14.7923 29 14.21 29.5823 14.21 30.3009V30.4987C14.21 31.2167 14.7923 31.799 15.5107 31.799Z" fill="#F0D24D"/>
</svg>
