<svg width="33" height="32" viewBox="0 0 33 32" fill="none" xmlns="http://www.w3.org/2000/svg">
<path d="M22.774 5.41162H10.2249C6.46024 5.41162 3.95044 7.29397 3.95044 11.6861V20.4704C3.95044 24.8626 6.46024 26.745 10.2249 26.745H22.774C26.5387 26.745 29.0485 24.8626 29.0485 20.4704V11.6861C29.0485 7.29397 26.5387 5.41162 22.774 5.41162ZM23.3638 13.054L19.4359 16.1912C18.6077 16.8563 17.5536 17.1826 16.4995 17.1826C15.4453 17.1826 14.3787 16.8563 13.563 16.1912L9.63515 13.054C9.23358 12.7277 9.17083 12.1253 9.48456 11.7238C9.81083 11.3222 10.4006 11.2469 10.8022 11.5732L14.73 14.7104C15.6838 15.4759 17.3026 15.4759 18.2563 14.7104L22.1842 11.5732C22.5857 11.2469 23.1881 11.3097 23.5018 11.7238C23.8281 12.1253 23.7653 12.7277 23.3638 13.054Z" fill="#178A86"/>
</svg>
