<svg width="46" height="46" viewBox="0 0 46 46" fill="none" xmlns="http://www.w3.org/2000/svg">
<path fill-rule="evenodd" clip-rule="evenodd" d="M0.610291 22.9989C0.610291 35.3643 10.6341 45.3887 22.9998 45.3887C35.3653 45.3887 45.3897 35.3643 45.3897 22.9989C45.3897 10.6336 35.3653 0.609222 22.9998 0.609222C10.6341 0.609222 0.610291 10.6336 0.610291 22.9989ZM22.9998 42.6092C12.1692 42.6092 3.38974 33.8293 3.38974 22.9989C3.38974 12.1686 12.1692 3.38867 22.9998 3.38867C33.8303 3.38867 42.6103 12.1686 42.6103 22.9989C42.6103 33.8292 33.8303 42.6092 22.9998 42.6092Z" fill="#D91A1C"/>
<path d="M17.6946 16.3693C17.6946 18.0175 16.3588 19.3532 14.7106 19.3532C13.0625 19.3532 11.7264 18.0175 11.7264 16.3693C11.7264 14.7211 13.0625 13.3848 14.7106 13.3848C16.3588 13.3848 17.6946 14.7211 17.6946 16.3693Z" fill="#D91A1C"/>
<path fill-rule="evenodd" clip-rule="evenodd" d="M14.7106 19.3069C16.3332 19.3069 17.6483 17.9919 17.6483 16.3693C17.6483 14.7467 16.3332 13.4311 14.7106 13.4311C13.0881 13.4311 11.7728 14.7467 11.7728 16.3693C11.7728 17.9919 13.088 19.3069 14.7106 19.3069ZM14.7106 19.3532C16.3588 19.3532 17.6946 18.0175 17.6946 16.3693C17.6946 14.7211 16.3588 13.3848 14.7106 13.3848C13.0625 13.3848 11.7264 14.7211 11.7264 16.3693C11.7264 18.0175 13.0625 19.3532 14.7106 19.3532Z" fill="#D91A1C"/>
<path d="M34.2741 16.3693C34.2741 18.0175 32.938 19.3532 31.2895 19.3532C29.6413 19.3532 28.3053 18.0175 28.3053 16.3693C28.3053 14.7211 29.6413 13.3848 31.2895 13.3848C32.938 13.3848 34.2741 14.7211 34.2741 16.3693Z" fill="#D91A1C"/>
<path fill-rule="evenodd" clip-rule="evenodd" d="M31.2895 19.3069C32.9125 19.3069 34.2277 17.9919 34.2277 16.3693C34.2277 14.7467 32.9125 13.4311 31.2895 13.4311C29.6669 13.4311 28.3516 14.7467 28.3516 16.3693C28.3516 17.9919 29.6669 19.3069 31.2895 19.3069ZM31.2895 19.3532C32.938 19.3532 34.2741 18.0175 34.2741 16.3693C34.2741 14.7211 32.938 13.3848 31.2895 13.3848C29.6413 13.3848 28.3053 14.7211 28.3053 16.3693C28.3053 18.0175 29.6413 19.3532 31.2895 19.3532Z" fill="#D91A1C"/>
<path d="M22.4149 24.2148H23.5855C27.8403 24.2148 31.2896 27.6641 31.2896 31.9189V33.0687C31.2896 33.4283 30.9983 33.7196 30.6387 33.7196H15.3623C15.0026 33.7196 14.7107 33.4283 14.7107 33.0687V31.9189C14.7107 27.6641 18.16 24.2148 22.4149 24.2148Z" fill="#D91A1C"/>
<path fill-rule="evenodd" clip-rule="evenodd" d="M23.5855 24.2612H22.4149C18.1856 24.2612 14.757 27.6897 14.757 31.9189V33.0687C14.757 33.4027 15.0281 33.6733 15.3623 33.6733H30.6387C30.9728 33.6733 31.2433 33.4028 31.2433 33.0687V31.9189C31.2433 27.6897 27.8147 24.2612 23.5855 24.2612ZM23.5855 24.2148H22.4149C18.16 24.2148 14.7107 27.6641 14.7107 31.9189V33.0687C14.7107 33.4283 15.0026 33.7196 15.3623 33.7196H30.6387C30.9983 33.7196 31.2896 33.4283 31.2896 33.0687V31.9189C31.2896 27.6641 27.8403 24.2148 23.5855 24.2148Z" fill="#D91A1C"/>
</svg>
