<svg width="46" height="46" viewBox="0 0 46 46" fill="none" xmlns="http://www.w3.org/2000/svg">
<path fill-rule="evenodd" clip-rule="evenodd" d="M0.610291 22.9988C0.610291 35.3643 10.6347 45.3887 23.0001 45.3887C35.3657 45.3887 45.3897 35.3642 45.3897 22.9988C45.3897 10.6335 35.3657 0.609028 23.0001 0.609028C10.6347 0.609028 0.610291 10.6334 0.610291 22.9988ZM23.0001 42.6092C12.1697 42.6092 3.38974 33.8292 3.38974 22.9988C3.38974 12.1685 12.1697 3.38848 23.0001 3.38848C33.8307 3.38848 42.6103 12.1685 42.6103 22.9988C42.6103 33.8292 33.8307 42.6092 23.0001 42.6092Z" fill="#0B9825"/>
<path d="M17.8055 16.3693C17.8055 18.0175 16.4695 19.3533 14.8213 19.3533C13.1731 19.3533 11.837 18.0175 11.837 16.3693C11.837 14.7211 13.1731 13.3848 14.8213 13.3848C16.4695 13.3848 17.8055 14.7211 17.8055 16.3693Z" fill="#0B9825"/>
<path fill-rule="evenodd" clip-rule="evenodd" d="M14.8213 19.3069C16.4439 19.3069 17.7591 17.9919 17.7591 16.3693C17.7591 14.7467 16.4439 13.4311 14.8213 13.4311C13.1987 13.4311 11.8833 14.7467 11.8833 16.3693C11.8833 17.9919 13.1987 19.3069 14.8213 19.3069ZM14.8213 19.3533C16.4695 19.3533 17.8055 18.0175 17.8055 16.3693C17.8055 14.7211 16.4695 13.3848 14.8213 13.3848C13.1731 13.3848 11.837 14.7211 11.837 16.3693C11.837 18.0175 13.1731 19.3533 14.8213 19.3533Z" fill="#0B9825"/>
<path d="M34.3843 16.3693C34.3843 18.0175 33.0481 19.3533 31.3999 19.3533C29.752 19.3533 28.4158 18.0175 28.4158 16.3693C28.4158 14.7211 29.752 13.3848 31.3999 13.3848C33.0481 13.3848 34.3843 14.7211 34.3843 16.3693Z" fill="#0B9825"/>
<path fill-rule="evenodd" clip-rule="evenodd" d="M31.3999 19.3069C33.0225 19.3069 34.338 17.9919 34.338 16.3693C34.338 14.7467 33.0225 13.4311 31.3999 13.4311C29.7776 13.4311 28.4621 14.7467 28.4621 16.3693C28.4621 17.9919 29.7776 19.3069 31.3999 19.3069ZM31.3999 19.3533C33.0481 19.3533 34.3843 18.0175 34.3843 16.3693C34.3843 14.7211 33.0481 13.3848 31.3999 13.3848C29.752 13.3848 28.4158 14.7211 28.4158 16.3693C28.4158 18.0175 29.752 19.3533 31.3999 19.3533Z" fill="#0B9825"/>
<path d="M23.6958 37.3687H22.5255C18.2705 37.3687 14.8212 33.9188 14.8212 29.6641V28.5142C14.8212 28.1548 15.1128 27.8633 15.4724 27.8633H30.7489C31.1086 27.8633 31.4001 28.1548 31.4001 28.5142V29.6641C31.4001 33.9188 27.9508 37.3687 23.6958 37.3687Z" fill="#0B9825"/>
<path fill-rule="evenodd" clip-rule="evenodd" d="M22.5255 37.3224H23.6958C27.9252 37.3224 31.3538 33.8932 31.3538 29.6641V28.5142C31.3538 28.1804 31.083 27.9096 30.7489 27.9096H15.4724C15.1383 27.9096 14.8676 28.1804 14.8676 28.5142V29.6641C14.8676 33.8932 18.2961 37.3224 22.5255 37.3224ZM22.5255 37.3687H23.6958C27.9508 37.3687 31.4001 33.9188 31.4001 29.6641V28.5142C31.4001 28.1548 31.1086 27.8633 30.7489 27.8633H15.4724C15.1128 27.8633 14.8212 28.1548 14.8212 28.5142V29.6641C14.8212 33.9188 18.2705 37.3687 22.5255 37.3687Z" fill="#0B9825"/>
</svg>
