<svg width="32" height="32" viewBox="0 0 32 32" fill="none" xmlns="http://www.w3.org/2000/svg">
<g clip-path="url(#clip0_153_35688)">
<path d="M16.0001 10.1211C12.7617 10.1211 10.1313 12.7515 10.1313 15.9899C10.1313 19.2283 12.7617 21.8651 16.0001 21.8651C19.2385 21.8651 21.8753 19.2283 21.8753 15.9899C21.8753 12.7515 19.2385 10.1211 16.0001 10.1211Z" fill="#178A86"/>
<path d="M24.8576 0H7.1424C3.2064 0 0 3.2064 0 7.1424V24.8576C0 28.8 3.2064 32 7.1424 32H24.8576C28.8 32 32 28.8 32 24.8576V7.1424C32 3.2064 28.8 0 24.8576 0ZM16 26.368C10.2848 26.368 5.632 21.7152 5.632 16C5.632 10.2848 10.2848 5.6384 16 5.6384C21.7152 5.6384 26.368 10.2848 26.368 16C26.368 21.7152 21.7152 26.368 16 26.368ZM26.5856 7.52C25.376 7.52 24.3904 6.5408 24.3904 5.3312C24.3904 4.1216 25.376 3.136 26.5856 3.136C27.7952 3.136 28.7808 4.1216 28.7808 5.3312C28.7808 6.5408 27.7952 7.52 26.5856 7.52Z" fill="#178A86"/>
</g>
<defs>
<clipPath id="clip0_153_35688">
<rect width="32" height="32" fill="white"/>
</clipPath>
</defs>
</svg>
