<svg width="33" height="32" viewBox="0 0 33 32" fill="none" xmlns="http://www.w3.org/2000/svg">
<path d="M27.7644 11.1954C26.386 5.13043 21.0956 2.3999 16.4485 2.3999C16.4485 2.3999 16.4485 2.3999 16.4354 2.3999C11.8013 2.3999 6.49781 5.1173 5.11942 11.1822C3.5835 17.956 7.7318 23.6928 11.4863 27.3029C12.8778 28.6419 14.6631 29.3114 16.4485 29.3114C18.2338 29.3114 20.0192 28.6419 21.3976 27.3029C25.1521 23.6928 29.3004 17.9692 27.7644 11.1954ZM16.4485 17.7723C14.1643 17.7723 12.3133 15.9213 12.3133 13.6371C12.3133 11.3529 14.1643 9.5019 16.4485 9.5019C18.7327 9.5019 20.5837 11.3529 20.5837 13.6371C20.5837 15.9213 18.7327 17.7723 16.4485 17.7723Z" fill="#178A86"/>
</svg>
