<svg width="115" height="32" viewBox="0 0 115 32" fill="none" xmlns="http://www.w3.org/2000/svg">
<path d="M113.714 24.2274C113.462 24.0106 113.209 23.9177 112.925 23.9177C112.609 23.9177 112.294 24.0416 112.073 24.2274C110.176 25.7471 108.343 27.2977 106.068 27.2977C105.324 27.2977 104.588 27.2222 103.931 26.9976C102.871 26.6337 102.686 25.2437 103.6 24.6049C105.547 23.2421 106.986 21.6973 106.986 19.5485C106.986 19.1769 106.922 18.7432 106.828 18.3077C106.544 17.0358 105.468 16.2615 103.572 16.2615C100.379 16.2615 98.7672 19.7034 98.7672 23.1143C98.7672 23.728 98.8402 24.3068 98.9724 24.8469C97.3465 26.6182 95.101 28.7573 93.0469 28.7573C90.9927 28.7573 90.087 27.3035 89.5069 25.8826C89.1951 25.116 89.2642 24.2526 89.6727 23.5286C90.4718 22.1135 91.2118 20.3519 91.8136 18.3386C92.5397 15.8279 93.0784 12.9435 93.2363 9.93523C93.2679 9.43965 93.2679 8.97312 93.2679 8.50852C93.2679 6.865 93.11 5.40733 92.7627 4.26132C92.2891 2.80364 91.5295 1.87444 90.5192 1.87444C89.1912 1.87444 88.2125 2.67975 87.4844 3.85867C87.1055 4.47813 86.7898 5.16148 86.5688 5.93581C86.0637 7.45543 85.7795 9.09895 85.6197 10.7115C85.525 11.5168 85.4618 12.2311 85.4303 12.8816C85.3671 13.8746 85.3355 14.8038 85.3355 15.735C85.3355 16.5093 85.3671 17.2856 85.4303 18.0909C85.5763 19.6666 85.8071 21.3256 86.263 23.2305C85.5625 24.4617 84.6469 26.1207 82.9953 26.1207C81.3832 26.1207 80.9412 23.7648 80.9412 21.9664C80.9412 19.5485 81.2569 17.8121 81.5411 16.1376C81.8568 14.4941 82.1409 12.9125 82.1409 10.8664C82.1409 10.1849 82.1093 8.88214 82.0462 7.42446L81.8568 5.1305C81.6673 3.61088 81.4148 2.30807 81.0043 1.50277C80.7833 1.10011 80.5308 0.883301 80.2466 0.883301C79.4573 0.883301 78.8555 1.16206 78.8555 1.81443C79.1081 4.04644 79.5501 8.63629 79.5501 10.8683C79.5501 12.8525 79.3607 14.4341 79.1397 15.8608C78.9502 16.9468 78.6029 18.7761 78.4767 19.7363C77.9715 19.3027 77.1487 18.7123 76.0753 18.7123C73.7686 18.7123 72.2512 20.7584 72.2512 23.1143C72.2512 23.4415 72.2808 23.7996 72.34 24.1713C72.2985 24.2003 72.2591 24.2294 72.2196 24.2623C71.6829 24.8508 70.6391 25.7819 70.1655 25.7819C69.1848 25.7819 68.9007 23.2092 68.9007 21.3179C68.9007 20.3248 68.9322 19.4576 68.9638 18.7142C69.0269 17.9708 69.0585 17.5043 69.0585 17.2875C69.0585 16.699 68.4587 16.2634 67.8568 16.2634C67.255 16.2634 65.6449 17.0687 64.6326 17.0687C63.6203 17.0687 61.7872 16.5732 61.0927 16.5732C60.5559 16.5732 59.9541 16.728 59.9541 17.1926C59.9541 18.1547 60.5224 19.6105 60.5224 20.5726C60.5224 21.9064 60.2797 23.1802 59.5318 24.3649C58.7189 25.1489 58.1269 25.9677 57.3001 25.9677C56.0984 25.9677 55.4986 24.4171 55.1513 22.8665C54.9303 21.9683 54.6462 20.4487 54.4567 19.6415C54.3304 19.1769 54.2042 18.7742 54.0463 18.4935C53.8569 18.2148 53.2254 18.1528 52.8762 18.1528C52.1185 18.1528 51.6429 18.6484 51.5482 19.051C51.3904 19.7634 51.2325 21.1901 51.0746 22.1213C50.9188 23.0427 50.7412 24.0261 50.1295 24.7772C49.8848 25.0792 49.5296 25.3173 49.1369 25.3367C48.9534 25.3463 48.7581 25.3096 48.5923 25.3889C48.4799 25.4431 48.4009 25.5438 48.3141 25.6309C48.0043 25.9464 47.5682 26.14 47.1223 26.1594C46.6764 26.1787 46.2245 26.0219 45.8871 25.7335C45.6286 25.5109 45.4411 25.2166 45.3208 24.9011C45.228 24.6514 45.1747 24.3862 45.0445 24.1539C44.9656 24.0126 44.857 23.8867 44.7761 23.7454C44.496 23.2711 44.5315 22.7446 44.5354 22.2239C44.5374 21.8831 44.5413 21.5405 44.5433 21.1998C44.5512 20.288 44.5571 19.3763 44.565 18.4625C44.565 17.2527 44.2809 16.6022 43.5843 16.6022C43.3318 16.6022 43.0792 16.6022 42.795 16.6951C42.1952 16.881 42.1636 18.0909 42.1636 18.5555C42.1636 18.9271 42.132 19.3298 42.132 19.7344V20.9133C42.132 22.1542 42.1814 23.4299 42.4043 24.5914C41.2658 26.1187 40.0266 28.0139 38.4027 28.0139C37.1378 28.0139 36.7274 27.0228 36.317 25.9368C35.9066 24.7578 35.1153 23.8596 33.4716 23.8596C31.8279 23.8596 30.7229 24.8198 30.0264 25.9058C29.4897 26.7421 28.8563 28.0139 28.3195 28.0449C28.2564 27.5493 28.2248 27.0208 28.2248 26.4943V26.1846C28.2248 26.0916 28.2564 25.9677 28.2564 25.9058C28.951 25.1005 29.9632 23.7977 30.8157 22.0922C31.6997 20.4177 32.3646 18.3406 32.3646 16.0466C32.3646 14.9606 32.1121 13.1932 31.6385 11.8614C31.1649 10.4966 30.3105 9.25769 29.0477 9.25769C26.7094 9.25769 25.7287 13.2571 25.5393 15.9866C25.4762 16.7919 25.413 17.5992 25.413 18.4354V20.7913L25.5077 22.5897C25.5275 23.0717 25.5689 23.7454 25.632 24.6398C23.9114 26.0161 22.2065 27.3035 20.1347 27.3035C19.008 27.3035 17.897 27.1292 17.0545 26.5253C16.5197 26.142 16.5592 25.3463 17.1117 24.9843C19.3355 23.5286 21.0522 21.9006 21.0522 19.5524C21.0522 19.1807 20.9891 18.7471 20.8944 18.3115C20.6102 17.0397 19.5348 16.2654 17.6385 16.2654C14.4459 16.2654 12.8338 19.7073 12.8338 23.1182C12.8338 23.7086 12.9009 24.2642 13.0232 24.7869C12.3563 25.5148 11.6203 26.4052 10.9059 26.4052C9.92526 26.4052 9.57798 25.1953 9.57798 24.421C9.57798 23.6467 9.60955 22.8704 9.64112 22.158C9.67269 21.4457 9.67269 20.7933 9.67269 20.2358C9.67269 18.6542 9.60955 16.0815 9.51483 13.2281C9.38855 10.3747 9.26226 7.2754 9.07283 4.60783C9.04126 4.20518 8.75712 3.8335 7.808 3.8335C6.7326 3.8335 6.63789 4.32907 6.63789 5.01242C6.66946 7.61611 6.79574 9.69518 6.92203 11.8652C7.01675 14.0043 7.14303 16.2363 7.14303 19.1827C6.54317 18.8729 5.94134 18.7181 5.30992 18.7181C3.85566 18.7181 2.46454 19.6492 1.64369 20.7333C0.854401 21.7263 0.252571 22.9653 0.0947142 23.8345C0.0315714 24.1752 0 24.5159 0 24.8256C0 27.0266 1.35954 28.5772 3.57152 28.5772C5.27834 28.5772 6.60632 27.8029 7.52189 26.8098C7.96389 27.8648 9.41815 28.7631 10.904 28.7631C12.2142 28.7631 13.3172 28.0913 14.1894 27.2357C14.4617 27.5822 14.7695 27.8958 15.1069 28.1746C16.4349 29.2296 18.2364 29.7871 20.1643 29.6632C22.4177 29.489 24.2271 28.9392 25.8649 27.7719C25.9182 28.4127 25.9793 29.1154 26.0365 29.8859C26.08 30.484 26.5812 30.9602 27.1909 30.9641C27.1968 30.9641 27.2047 30.9641 27.2106 30.9641C28.5701 30.9641 29.5173 30.4685 30.2454 29.7542C30.6243 29.3825 30.94 29.0109 31.2261 28.6063C31.9207 27.5822 32.6172 26.2504 33.5012 26.2504C33.8169 26.2504 34.4503 27.6771 34.8292 28.2965C35.2396 29.0089 35.873 29.6303 36.8202 30.033C37.2937 30.2498 37.8324 30.3427 38.4954 30.3427C40.6679 30.3427 42.0334 29.1057 43.462 27.2396C44.3085 28.3662 45.6542 29.1018 47.8188 29.1018C50.4728 29.1018 52.1796 26.9008 53.0656 24.6069C53.918 26.4982 54.6462 28.4204 56.9213 28.4204C59.1964 28.4204 61.0611 26.715 61.5662 25.6929C61.5781 25.6696 61.5859 25.6464 61.5958 25.6232C62.3496 24.452 62.7423 23.095 62.8725 21.7225C62.9021 21.4127 62.9179 21.1011 62.9238 20.7894C62.9297 20.4758 62.8725 20.1157 63.1329 19.8738C63.3934 19.6318 63.8216 19.7073 64.1492 19.564C64.4076 19.4517 64.5991 19.204 64.8733 19.1343C64.9838 19.1072 65.0983 19.1091 65.2107 19.113C65.3469 19.1169 65.4949 19.1265 65.5975 19.2156C65.6764 19.2853 65.7119 19.3917 65.783 19.4692C65.8659 19.5582 65.9882 19.5969 66.0888 19.6647C66.6532 20.0441 66.4637 20.8843 66.4637 21.4437C66.4637 21.9393 66.4953 22.4678 66.5269 22.9633C66.59 23.6757 66.7163 24.3281 66.8426 24.9476C67.1583 26.1884 67.695 27.1796 68.5494 27.739C68.9914 28.0178 69.4985 28.1726 70.0984 28.1726C70.8877 28.1726 72.0894 27.708 73.0069 26.8079C73.074 26.7324 73.1391 26.6646 73.2042 26.6027C73.8258 27.6054 74.7789 28.3585 76.1344 28.3585C77.6834 28.3585 78.9147 27.6151 79.5165 26.2504C80.0533 27.739 81.4128 28.7611 82.8986 28.7611C84.6686 28.7611 86.1169 27.6016 87.0956 26.3781C87.5159 27.6229 88.0112 28.6101 88.6505 29.3496C89.6628 30.5595 91.0204 31.117 92.9166 31.117C95.764 31.117 97.899 29.127 99.9985 27.0692C100.3 27.4796 100.65 27.8494 101.038 28.1707C102.366 29.2257 104.168 29.7833 106.096 29.6594C109.288 29.4116 111.595 28.4185 113.775 25.9697C113.965 25.7838 114.091 25.4741 114.091 25.1644C114.091 24.8237 113.965 24.483 113.712 24.2332L113.714 24.2274ZM6.65367 24.119C6.59448 24.2119 6.53331 24.3049 6.45833 24.3862C6.36361 24.4907 6.24917 24.5759 6.14261 24.6669C5.81309 24.9495 5.54078 25.2921 5.21126 25.5767C4.87186 25.869 4.46735 26.0452 4.04509 26.0723C3.7866 26.0897 3.52219 26.049 3.26369 25.9464C2.70133 25.7238 2.3718 25.2205 2.3718 24.6281C2.3718 22.7988 4.3312 20.9075 5.78546 20.9075C6.40505 20.9075 6.83916 21.2927 7.03845 21.8483C7.15882 22.189 7.19236 22.5452 7.20617 22.9033C7.22196 23.3021 6.86481 23.7841 6.65367 24.1152V24.119ZM15.4562 22.7175C15.4562 22.7175 15.4562 22.7117 15.4562 22.7078C15.4562 21.0643 16.1507 19.0801 17.4787 18.6464C17.5734 18.6155 17.6997 18.5845 17.826 18.5845C18.2364 18.5845 18.6153 18.8633 18.6153 19.4537C18.6153 20.8262 17.4708 22.1096 16.1942 23.0717C15.8962 23.2963 15.4562 23.0872 15.4562 22.7175ZM27.7828 19.4517C27.7828 18.6155 27.846 17.7463 27.9091 16.8171C28.067 14.9877 28.2564 13.3752 28.5406 12.3531C28.6984 11.8575 28.8563 11.6097 29.0457 11.6097C29.4561 11.6097 29.9632 15.5162 29.9632 16.0428C29.9632 18.2748 29.0792 21.2521 27.846 22.8646C27.7828 22.6168 27.7513 21.9974 27.7513 21.283C27.7513 20.7255 27.7828 20.0731 27.7828 19.4537V19.4517ZM78.0978 23.8403C78.0761 24.0106 78.0485 24.1887 77.9478 24.3281C77.8531 24.4597 77.7032 24.543 77.5887 24.6591C77.3638 24.8914 77.3026 25.2283 77.1783 25.5244C77.0855 25.7451 76.9632 25.8884 76.8251 25.9677C76.4008 26.2117 75.8266 25.8748 75.4853 25.4276C75.0216 24.8198 74.8755 24.0087 74.8755 23.2653C74.8755 22.2103 75.3491 21.0023 76.2351 21.0023C76.8783 21.0023 77.4545 21.3256 77.8077 21.8483C77.9538 22.0632 78.1235 22.3671 78.1787 22.6188C78.2576 22.9846 78.1452 23.4725 78.0998 23.8403H78.0978ZM88.8025 20.3093C88.6348 20.7429 87.9915 20.6713 87.9244 20.2125C87.6975 18.6716 87.6107 16.85 87.6107 15.2355C87.6107 14.4302 87.6422 13.6849 87.6738 13.0345C87.7054 12.1672 87.8632 10.9264 88.1474 9.59258C88.2737 8.94215 88.3999 8.28977 88.5578 7.63934C88.8735 6.33652 89.1892 5.31441 89.5701 4.66203C89.7595 4.3523 89.9489 4.19744 90.1068 4.19744C90.4541 4.19744 90.6435 5.46927 90.7066 6.61528C90.7698 7.29669 90.7698 8.13491 90.7698 8.97118C90.7698 9.80746 90.7698 10.7076 90.7066 11.5749C90.5724 14.2482 89.8305 17.6514 88.8025 20.3074V20.3093ZM101.39 22.7175V22.7078C101.39 21.0643 102.084 19.0801 103.412 18.6464C103.507 18.6155 103.633 18.5845 103.759 18.5845C104.17 18.5845 104.549 18.8633 104.549 19.4537C104.549 20.8262 103.404 22.1096 102.128 23.0717C101.826 23.3002 101.39 23.0911 101.39 22.7175Z" fill="#D72B6A"/>
</svg>
