<svg width="113" height="112" viewBox="0 0 113 112" fill="none" xmlns="http://www.w3.org/2000/svg">
<g clip-path="url(#clip0_3056_1188)">
<path d="M48.3763 116.89C-39.3198 91.5961 -145.195 107.76 -230.35 159.502C-252.524 172.983 -273.951 189.37 -286.973 210.645C-299.971 231.908 -294.829 244.922 -280.59 262.045C-261.674 284.826 -184.4 311.306 -159.784 326.645C-146.436 334.948 -99.095 356.27 -105.729 371.66C-110.181 381.937 -120.853 383.105 -132.047 386.854C-160.63 396.41 -183.814 394.572 -205.965 414.905C-220.296 428.036 -225.947 447.417 -224.041 464.443C-222.158 481.483 -213.657 496.519 -203.57 509.934C-177.927 544.055 -141.665 569.792 -103.113 591.385C-55.3775 618.122 -1.36846 639.556 57.9458 637.683C73.7494 637.188 92.2269 633.629 101.694 620.756C112.105 606.604 106.099 589.286 99.7306 575.189C89.4017 552.308 79.0502 529.439 68.7095 506.537C62.4718 492.718 56.4568 476.165 65.7036 461.817C73.4578 449.824 89.1559 444.206 103.431 441.636C126.074 437.545 147.888 441.585 170.049 441.652C189.037 441.733 223.367 437.815 233.723 417.643C235.887 413.436 236.326 408.841 235.962 404.52C234.264 383.9 217.187 366.489 203.012 352.856C184.633 335.164 163.915 319.556 141.353 306.37C116.031 291.575 87.73 279.314 69.7157 257.315C63.7922 250.07 59 240.626 62.6705 231.126C69.4792 213.492 96.6889 211.54 111.363 197.858C129.079 181.334 121.202 154.432 104.52 141.188C87.8274 127.978 73.6375 125.289 48.3763 116.89Z" fill="#E2E8EB"/>
<path d="M47.9785 22.3339L38.7265 29.1304C37.5925 29.9636 35.9976 29.7195 35.1646 28.5855L22.1374 10.8534C21.3042 9.71921 21.5481 8.12452 22.6823 7.2913L31.9343 0.494737C33.0683 -0.338482 34.6632 -0.0943569 35.4962 1.03964L48.5234 18.7717C49.3567 19.9057 49.1128 21.5006 47.9785 22.3339Z" fill="#E84C8D"/>
<path d="M46.282 15.7203L39.0893 5.92969L25.7305 15.7435L32.9232 25.5341C34.9941 28.3529 38.9578 28.9593 41.7767 26.8883L44.9277 24.5735C47.7466 22.5026 48.3529 18.5389 46.282 15.7203Z" fill="#E84C8D"/>
<path d="M78.2113 64.754L70.5763 70.363C69.6858 71.0173 68.4336 70.8257 67.7794 69.9351L56.2401 54.2282C55.5858 53.3377 55.7774 52.0854 56.668 51.4311L64.303 45.8221C65.1935 45.1678 66.4456 45.3594 67.0999 46.25L78.6392 61.9569C79.2935 62.8476 79.1019 64.1 78.2113 64.754Z" fill="#F7AACE"/>
<path d="M91.1076 63.5819L93.1422 66.8299C93.5204 67.4337 93.3375 68.2297 92.7338 68.6079L61.2244 88.3438C60.6206 88.722 59.8246 88.5391 59.4464 87.9354L57.4118 84.6874C57.0336 84.0836 57.2165 83.2876 57.8202 82.9094L89.3296 63.1735C89.9334 62.7953 90.7296 62.9782 91.1076 63.5819Z" fill="#E84C8D"/>
<path d="M71.4322 109.308C60.7445 109.308 50.0568 109.308 39.3691 109.308C41.8355 102.823 44.302 96.3371 46.7684 89.8516C52.5235 89.8516 58.2781 89.8516 64.033 89.8516C66.4994 96.3373 68.9658 102.823 71.4322 109.308Z" fill="#E84C8D"/>
<path d="M95.5567 111.999H17.4443C16.5313 111.999 15.791 111.259 15.791 110.346V102.813C15.791 101.9 16.5313 101.16 17.4443 101.16H95.5567C96.4697 101.16 97.21 101.9 97.21 102.813V110.346C97.21 111.259 96.4697 111.999 95.5567 111.999Z" fill="#4E5E6C"/>
<path d="M76.8833 46.0176L53.094 63.4935C51.8651 64.3963 50.1367 64.132 49.2337 62.9031L22.3214 26.2705C21.4184 25.0416 21.6828 23.3133 22.912 22.4105L46.7013 4.93455C47.9302 4.03177 49.6585 4.29602 50.5615 5.52496L77.4741 42.1575C78.3767 43.3864 78.1124 45.1148 76.8833 46.0176Z" fill="#E84C8D"/>
<path d="M53.9839 83.0265C30.8605 87.0531 20.028 61.6652 38.4431 46.6038C35.7874 43.767 33.1316 40.9303 30.476 38.0938C1.77116 61.5709 18.6565 101.145 54.7006 94.8683C54.4617 90.921 54.2228 86.9737 53.9839 83.0265Z" fill="#E84C8D"/>
<path d="M64.5904 87.1315C64.6406 82.0598 60.5698 77.9077 55.498 77.8575C50.4262 77.8073 46.2739 81.878 46.2237 86.9497C46.1735 92.0214 50.2443 96.1735 55.3162 96.2237C60.388 96.2739 64.5402 92.2032 64.5904 87.1315Z" fill="#F7AACE"/>
<path d="M44.7281 41.485C44.758 36.5713 40.7988 32.5637 35.8849 32.5337C30.971 32.5037 26.9632 36.4628 26.9332 41.3764C26.9032 46.2901 30.8624 50.2977 35.7763 50.3277C40.6903 50.3577 44.6981 46.3987 44.7281 41.485Z" fill="#F7AACE"/>
<path d="M55.401 91.5982C52.8871 91.5982 50.8418 89.5529 50.8418 87.0397C50.8418 84.5258 52.8871 82.4805 55.401 82.4805C57.9144 82.4805 59.9597 84.5258 59.9597 87.0397C59.9597 89.5529 57.9144 91.5982 55.401 91.5982Z" fill="#4E5E6C"/>
<path d="M35.8426 45.7028C35.6816 45.7028 35.5176 45.6938 35.3555 45.6753C33.0142 45.4128 31.3226 43.2944 31.5855 40.9531C31.8283 38.7883 33.6488 37.1562 35.8201 37.1562C35.9811 37.1562 36.1452 37.1652 36.3073 37.1838C37.4423 37.3107 38.4589 37.8718 39.1709 38.7638C39.8829 39.6559 40.2052 40.772 40.0776 41.906C39.8348 44.0705 38.0144 45.7028 35.8426 45.7028Z" fill="#4E5E6C"/>
</g>
<defs>
<clipPath id="clip0_3056_1188">
<rect width="112" height="112" fill="white" transform="translate(0.5)"/>
</clipPath>
</defs>
</svg>
