<svg width="45" height="46" viewBox="0 0 45 46" fill="none" xmlns="http://www.w3.org/2000/svg">
<path fill-rule="evenodd" clip-rule="evenodd" d="M0.110291 22.9989C0.110291 35.3643 10.1347 45.3887 22.5 45.3887C34.8654 45.3887 44.8897 35.3643 44.8897 22.9989C44.8897 10.6336 34.8654 0.609222 22.5 0.609222C10.1347 0.609222 0.110291 10.6336 0.110291 22.9989ZM22.5 42.6092C11.6697 42.6092 2.88974 33.8293 2.88974 22.9989C2.88974 12.1686 11.6697 3.38867 22.5 3.38867C33.3303 3.38867 42.1103 12.1686 42.1103 22.9989C42.1103 33.8293 33.3303 42.6092 22.5 42.6092Z" fill="#F0D24D"/>
<path d="M17.1947 16.3693C17.1947 18.0175 15.8589 19.3532 14.2107 19.3532C12.5626 19.3532 11.2266 18.0175 11.2266 16.3693C11.2266 14.7211 12.5626 13.3848 14.2107 13.3848C15.8589 13.3848 17.1947 14.7211 17.1947 16.3693Z" fill="#F0D24D"/>
<path fill-rule="evenodd" clip-rule="evenodd" d="M14.2107 19.3069C15.8333 19.3069 17.1484 17.9919 17.1484 16.3693C17.1484 14.7467 15.8333 13.4311 14.2107 13.4311C12.5882 13.4311 11.2729 14.7467 11.2729 16.3693C11.2729 17.9919 12.5881 19.3069 14.2107 19.3069ZM14.2107 19.3532C15.8589 19.3532 17.1947 18.0175 17.1947 16.3693C17.1947 14.7211 15.8589 13.3848 14.2107 13.3848C12.5626 13.3848 11.2266 14.7211 11.2266 16.3693C11.2266 18.0175 12.5626 19.3532 14.2107 19.3532Z" fill="#F0D24D"/>
<path d="M33.7737 16.3693C33.7737 18.0175 32.4377 19.3532 30.7895 19.3532C29.1414 19.3532 27.8055 18.0175 27.8055 16.3693C27.8055 14.7211 29.1414 13.3848 30.7895 13.3848C32.4377 13.3848 33.7737 14.7211 33.7737 16.3693Z" fill="#F0D24D"/>
<path fill-rule="evenodd" clip-rule="evenodd" d="M30.7895 19.3069C32.4121 19.3069 33.7273 17.9919 33.7273 16.3693C33.7273 14.7467 32.4121 13.4311 30.7895 13.4311C29.167 13.4311 27.8519 14.7467 27.8519 16.3693C27.8519 17.9919 29.1669 19.3069 30.7895 19.3069ZM30.7895 19.3532C32.4377 19.3532 33.7737 18.0175 33.7737 16.3693C33.7737 14.7211 32.4377 13.3848 30.7895 13.3848C29.1414 13.3848 27.8055 14.7211 27.8055 16.3693C27.8055 18.0175 29.1414 19.3532 30.7895 19.3532Z" fill="#F0D24D"/>
<path d="M29.4029 33.7205H15.5976C14.8316 33.7205 14.2108 33.0997 14.2108 32.3342V32.1233C14.2108 31.3572 14.8316 30.7363 15.5976 30.7363H29.4029C30.1688 30.7363 30.7896 31.3572 30.7896 32.1233V32.3342C30.7896 33.0997 30.1688 33.7205 29.4029 33.7205Z" fill="#F0D24D"/>
<path fill-rule="evenodd" clip-rule="evenodd" d="M15.5976 33.6742H29.4029C30.1432 33.6742 30.7433 33.0741 30.7433 32.3342V32.1233C30.7433 31.3828 30.1432 30.7827 29.4029 30.7827H15.5976C14.8572 30.7827 14.2571 31.3828 14.2571 32.1233V32.3342C14.2571 33.0741 14.8572 33.6742 15.5976 33.6742ZM15.5976 33.7205H29.4029C30.1688 33.7205 30.7896 33.0997 30.7896 32.3342V32.1233C30.7896 31.3572 30.1688 30.7363 29.4029 30.7363H15.5976C14.8316 30.7363 14.2108 31.3572 14.2108 32.1233V32.3342C14.2108 33.0997 14.8316 33.7205 15.5976 33.7205Z" fill="#F0D24D"/>
</svg>
