<svg width="219" height="58" viewBox="0 0 219 58" fill="none" xmlns="http://www.w3.org/2000/svg">
<path d="M11.2484 15.9529C12.6952 15.9529 13.8327 14.8174 13.8327 13.3685C13.8327 11.9237 12.6952 10.7842 11.2484 10.7842C9.80361 10.7842 8.66406 11.9237 8.66406 13.3685C8.66406 14.8174 9.80361 15.9529 11.2484 15.9529ZM31.9231 15.9529C33.3699 15.9529 34.5074 14.8174 34.5074 13.3685C34.5074 11.9237 33.3699 10.7842 31.9231 10.7842C30.4783 10.7842 29.3387 11.9237 29.3387 13.3685C29.3387 14.8174 30.4783 15.9529 31.9231 15.9529ZM11.2484 23.7059C12.6952 23.7059 13.8327 22.5704 13.8327 21.1215C13.8327 19.6767 12.6952 18.5372 11.2484 18.5372C9.80361 18.5372 8.66406 19.6767 8.66406 21.1215C8.66406 22.5704 9.80361 23.7059 11.2484 23.7059ZM16.4171 23.7059C17.8639 23.7059 19.0014 22.5704 19.0014 21.1215C19.0014 19.6767 17.8639 18.5372 16.4171 18.5372C14.9723 18.5372 13.8327 19.6767 13.8327 21.1215C13.8327 22.5704 14.9723 23.7059 16.4171 23.7059ZM31.9231 23.7059C33.3699 23.7059 34.5074 22.5704 34.5074 21.1215C34.5074 19.6767 33.3699 18.5372 31.9231 18.5372C30.4783 18.5372 29.3387 19.6767 29.3387 21.1215C29.3387 22.5704 30.4783 23.7059 31.9231 23.7059ZM11.2484 31.4589C12.6952 31.4589 13.8327 30.3234 13.8327 28.8745C13.8327 27.4297 12.6952 26.2902 11.2484 26.2902C9.80361 26.2902 8.66406 27.4297 8.66406 28.8745C8.66406 30.3234 9.80361 31.4589 11.2484 31.4589ZM21.5857 31.4589C23.0325 31.4589 24.1701 30.3234 24.1701 28.8745C24.1701 27.4297 23.0325 26.2902 21.5857 26.2902C20.1409 26.2902 19.0014 27.4297 19.0014 28.8745C19.0014 30.3234 20.1409 31.4589 21.5857 31.4589ZM31.9231 31.4589C33.3699 31.4589 34.5074 30.3234 34.5074 28.8745C34.5074 27.4297 33.3699 26.2902 31.9231 26.2902C30.4783 26.2902 29.3387 27.4297 29.3387 28.8745C29.3387 30.3234 30.4783 31.4589 31.9231 31.4589ZM11.2484 39.2119C12.6952 39.2119 13.8327 38.0764 13.8327 36.6275C13.8327 35.1828 12.6952 34.0432 11.2484 34.0432C9.80361 34.0432 8.66406 35.1828 8.66406 36.6275C8.66406 38.0764 9.80361 39.2119 11.2484 39.2119ZM26.7544 39.2119C28.2012 39.2119 29.3387 38.0764 29.3387 36.6275C29.3387 35.1828 28.2012 34.0432 26.7544 34.0432C25.3096 34.0432 24.1701 35.1828 24.1701 36.6275C24.1701 38.0764 25.3096 39.2119 26.7544 39.2119ZM31.9231 39.2119C33.3699 39.2119 34.5074 38.0764 34.5074 36.6275C34.5074 35.1828 33.3699 34.0432 31.9231 34.0432C30.4783 34.0432 29.3387 35.1828 29.3387 36.6275C29.3387 38.0764 30.4783 39.2119 31.9231 39.2119ZM11.2484 46.9649C12.6952 46.9649 13.8327 45.8294 13.8327 44.3805C13.8327 42.9358 12.6952 41.7962 11.2484 41.7962C9.80361 41.7962 8.66406 42.9358 8.66406 44.3805C8.66406 45.8294 9.80361 46.9649 11.2484 46.9649ZM31.9231 46.9649C33.3699 46.9649 34.5074 45.8294 34.5074 44.3805C34.5074 42.9358 33.3699 41.7962 31.9231 41.7962C30.4783 41.7962 29.3387 42.9358 29.3387 44.3805C29.3387 45.8294 30.4783 46.9649 31.9231 46.9649ZM47.4087 15.9529C48.8576 15.9529 49.9931 14.8174 49.9931 13.3685C49.9931 11.9237 48.8576 10.7842 47.4087 10.7842C45.9639 10.7842 44.8244 11.9237 44.8244 13.3685C44.8244 14.8174 45.9639 15.9529 47.4087 15.9529ZM52.5774 15.9529C54.0262 15.9529 55.1617 14.8174 55.1617 13.3685C55.1617 11.9237 54.0262 10.7842 52.5774 10.7842C51.1326 10.7842 49.9931 11.9237 49.9931 13.3685C49.9931 14.8174 51.1326 15.9529 52.5774 15.9529ZM57.7461 15.9529C59.1949 15.9529 60.3304 14.8174 60.3304 13.3685C60.3304 11.9237 59.1949 10.7842 57.7461 10.7842C56.3013 10.7842 55.1617 11.9237 55.1617 13.3685C55.1617 14.8174 56.3013 15.9529 57.7461 15.9529ZM42.24 23.7059C43.6889 23.7059 44.8244 22.5704 44.8244 21.1215C44.8244 19.6767 43.6889 18.5372 42.24 18.5372C40.7953 18.5372 39.6557 19.6767 39.6557 21.1215C39.6557 22.5704 40.7953 23.7059 42.24 23.7059ZM62.9147 23.7059C64.3636 23.7059 65.4991 22.5704 65.4991 21.1215C65.4991 19.6767 64.3636 18.5372 62.9147 18.5372C61.4699 18.5372 60.3304 19.6767 60.3304 21.1215C60.3304 22.5704 61.4699 23.7059 62.9147 23.7059ZM42.24 31.4589C43.6889 31.4589 44.8244 30.3234 44.8244 28.8745C44.8244 27.4297 43.6889 26.2902 42.24 26.2902C40.7953 26.2902 39.6557 27.4297 39.6557 28.8745C39.6557 30.3234 40.7953 31.4589 42.24 31.4589ZM62.9147 31.4589C64.3636 31.4589 65.4991 30.3234 65.4991 28.8745C65.4991 27.4297 64.3636 26.2902 62.9147 26.2902C61.4699 26.2902 60.3304 27.4297 60.3304 28.8745C60.3304 30.3234 61.4699 31.4589 62.9147 31.4589ZM42.24 39.2119C43.6889 39.2119 44.8244 38.0764 44.8244 36.6275C44.8244 35.1828 43.6889 34.0432 42.24 34.0432C40.7953 34.0432 39.6557 35.1828 39.6557 36.6275C39.6557 38.0764 40.7953 39.2119 42.24 39.2119ZM62.9147 39.2119C64.3636 39.2119 65.4991 38.0764 65.4991 36.6275C65.4991 35.1828 64.3636 34.0432 62.9147 34.0432C61.4699 34.0432 60.3304 35.1828 60.3304 36.6275C60.3304 38.0764 61.4699 39.2119 62.9147 39.2119ZM47.4087 46.9649C48.8576 46.9649 49.9931 45.8294 49.9931 44.3805C49.9931 42.9358 48.8576 41.7962 47.4087 41.7962C45.9639 41.7962 44.8244 42.9358 44.8244 44.3805C44.8244 45.8294 45.9639 46.9649 47.4087 46.9649ZM52.5774 46.9649C54.0262 46.9649 55.1617 45.8294 55.1617 44.3805C55.1617 42.9358 54.0262 41.7962 52.5774 41.7962C51.1326 41.7962 49.9931 42.9358 49.9931 44.3805C49.9931 45.8294 51.1326 46.9649 52.5774 46.9649ZM57.7461 46.9649C59.1949 46.9649 60.3304 45.8294 60.3304 44.3805C60.3304 42.9358 59.1949 41.7962 57.7461 41.7962C56.3013 41.7962 55.1617 42.9358 55.1617 44.3805C55.1617 45.8294 56.3013 46.9649 57.7461 46.9649ZM73.2317 15.9529C74.6806 15.9529 75.816 14.8174 75.816 13.3685C75.816 11.9237 74.6806 10.7842 73.2317 10.7842C71.7869 10.7842 70.6474 11.9237 70.6474 13.3685C70.6474 14.8174 71.7869 15.9529 73.2317 15.9529ZM78.4004 15.9529C79.8492 15.9529 80.9847 14.8174 80.9847 13.3685C80.9847 11.9237 79.8492 10.7842 78.4004 10.7842C76.9556 10.7842 75.816 11.9237 75.816 13.3685C75.816 14.8174 76.9556 15.9529 78.4004 15.9529ZM83.569 15.9529C85.0179 15.9529 86.1534 14.8174 86.1534 13.3685C86.1534 11.9237 85.0179 10.7842 83.569 10.7842C82.1243 10.7842 80.9847 11.9237 80.9847 13.3685C80.9847 14.8174 82.1243 15.9529 83.569 15.9529ZM88.7377 15.9529C90.1866 15.9529 91.322 14.8174 91.322 13.3685C91.322 11.9237 90.1866 10.7842 88.7377 10.7842C87.2929 10.7842 86.1534 11.9237 86.1534 13.3685C86.1534 14.8174 87.2929 15.9529 88.7377 15.9529ZM93.9064 15.9529C95.3552 15.9529 96.4907 14.8174 96.4907 13.3685C96.4907 11.9237 95.3552 10.7842 93.9064 10.7842C92.4616 10.7842 91.322 11.9237 91.322 13.3685C91.322 14.8174 92.4616 15.9529 93.9064 15.9529ZM83.569 23.7059C85.0179 23.7059 86.1534 22.5704 86.1534 21.1215C86.1534 19.6767 85.0179 18.5372 83.569 18.5372C82.1243 18.5372 80.9847 19.6767 80.9847 21.1215C80.9847 22.5704 82.1243 23.7059 83.569 23.7059ZM83.569 31.4589C85.0179 31.4589 86.1534 30.3234 86.1534 28.8745C86.1534 27.4297 85.0179 26.2902 83.569 26.2902C82.1243 26.2902 80.9847 27.4297 80.9847 28.8745C80.9847 30.3234 82.1243 31.4589 83.569 31.4589ZM83.569 39.2119C85.0179 39.2119 86.1534 38.0764 86.1534 36.6275C86.1534 35.1828 85.0179 34.0432 83.569 34.0432C82.1243 34.0432 80.9847 35.1828 80.9847 36.6275C80.9847 38.0764 82.1243 39.2119 83.569 39.2119ZM83.569 46.9649C85.0179 46.9649 86.1534 45.8294 86.1534 44.3805C86.1534 42.9358 85.0179 41.7962 83.569 41.7962C82.1243 41.7962 80.9847 42.9358 80.9847 44.3805C80.9847 45.8294 82.1243 46.9649 83.569 46.9649ZM104.223 15.9529C105.672 15.9529 106.808 14.8174 106.808 13.3685C106.808 11.9237 105.672 10.7842 104.223 10.7842C102.779 10.7842 101.639 11.9237 101.639 13.3685C101.639 14.8174 102.779 15.9529 104.223 15.9529ZM124.898 15.9529C126.347 15.9529 127.482 14.8174 127.482 13.3685C127.482 11.9237 126.347 10.7842 124.898 10.7842C123.453 10.7842 122.314 11.9237 122.314 13.3685C122.314 14.8174 123.453 15.9529 124.898 15.9529ZM104.223 23.7059C105.672 23.7059 106.808 22.5704 106.808 21.1215C106.808 19.6767 105.672 18.5372 104.223 18.5372C102.779 18.5372 101.639 19.6767 101.639 21.1215C101.639 22.5704 102.779 23.7059 104.223 23.7059ZM124.898 23.7059C126.347 23.7059 127.482 22.5704 127.482 21.1215C127.482 19.6767 126.347 18.5372 124.898 18.5372C123.453 18.5372 122.314 19.6767 122.314 21.1215C122.314 22.5704 123.453 23.7059 124.898 23.7059ZM104.223 31.4589C105.672 31.4589 106.808 30.3234 106.808 28.8745C106.808 27.4297 105.672 26.2902 104.223 26.2902C102.779 26.2902 101.639 27.4297 101.639 28.8745C101.639 30.3234 102.779 31.4589 104.223 31.4589ZM109.392 31.4589C110.841 31.4589 111.976 30.3234 111.976 28.8745C111.976 27.4297 110.841 26.2902 109.392 26.2902C107.947 26.2902 106.808 27.4297 106.808 28.8745C106.808 30.3234 107.947 31.4589 109.392 31.4589ZM114.561 31.4589C116.01 31.4589 117.145 30.3234 117.145 28.8745C117.145 27.4297 116.01 26.2902 114.561 26.2902C113.116 26.2902 111.976 27.4297 111.976 28.8745C111.976 30.3234 113.116 31.4589 114.561 31.4589ZM119.729 31.4589C121.178 31.4589 122.314 30.3234 122.314 28.8745C122.314 27.4297 121.178 26.2902 119.729 26.2902C118.285 26.2902 117.145 27.4297 117.145 28.8745C117.145 30.3234 118.285 31.4589 119.729 31.4589ZM124.898 31.4589C126.347 31.4589 127.482 30.3234 127.482 28.8745C127.482 27.4297 126.347 26.2902 124.898 26.2902C123.453 26.2902 122.314 27.4297 122.314 28.8745C122.314 30.3234 123.453 31.4589 124.898 31.4589ZM104.223 39.2119C105.672 39.2119 106.808 38.0764 106.808 36.6275C106.808 35.1828 105.672 34.0432 104.223 34.0432C102.779 34.0432 101.639 35.1828 101.639 36.6275C101.639 38.0764 102.779 39.2119 104.223 39.2119ZM124.898 39.2119C126.347 39.2119 127.482 38.0764 127.482 36.6275C127.482 35.1828 126.347 34.0432 124.898 34.0432C123.453 34.0432 122.314 35.1828 122.314 36.6275C122.314 38.0764 123.453 39.2119 124.898 39.2119ZM104.223 46.9649C105.672 46.9649 106.808 45.8294 106.808 44.3805C106.808 42.9358 105.672 41.7962 104.223 41.7962C102.779 41.7962 101.639 42.9358 101.639 44.3805C101.639 45.8294 102.779 46.9649 104.223 46.9649ZM124.898 46.9649C126.347 46.9649 127.482 45.8294 127.482 44.3805C127.482 42.9358 126.347 41.7962 124.898 41.7962C123.453 41.7962 122.314 42.9358 122.314 44.3805C122.314 45.8294 123.453 46.9649 124.898 46.9649ZM135.217 15.9529C136.662 15.9529 137.801 14.8174 137.801 13.3685C137.801 11.9237 136.662 10.7842 135.217 10.7842C133.768 10.7842 132.633 11.9237 132.633 13.3685C132.633 14.8174 133.768 15.9529 135.217 15.9529ZM140.386 15.9529C141.831 15.9529 142.97 14.8174 142.97 13.3685C142.97 11.9237 141.831 10.7842 140.386 10.7842C138.937 10.7842 137.801 11.9237 137.801 13.3685C137.801 14.8174 138.937 15.9529 140.386 15.9529ZM145.554 15.9529C146.999 15.9529 148.139 14.8174 148.139 13.3685C148.139 11.9237 146.999 10.7842 145.554 10.7842C144.106 10.7842 142.97 11.9237 142.97 13.3685C142.97 14.8174 144.106 15.9529 145.554 15.9529ZM140.386 23.7059C141.831 23.7059 142.97 22.5704 142.97 21.1215C142.97 19.6767 141.831 18.5372 140.386 18.5372C138.937 18.5372 137.801 19.6767 137.801 21.1215C137.801 22.5704 138.937 23.7059 140.386 23.7059ZM140.386 31.4589C141.831 31.4589 142.97 30.3234 142.97 28.8745C142.97 27.4297 141.831 26.2902 140.386 26.2902C138.937 26.2902 137.801 27.4297 137.801 28.8745C137.801 30.3234 138.937 31.4589 140.386 31.4589ZM140.386 39.2119C141.831 39.2119 142.97 38.0764 142.97 36.6275C142.97 35.1828 141.831 34.0432 140.386 34.0432C138.937 34.0432 137.801 35.1828 137.801 36.6275C137.801 38.0764 138.937 39.2119 140.386 39.2119ZM135.217 46.9649C136.662 46.9649 137.801 45.8294 137.801 44.3805C137.801 42.9358 136.662 41.7962 135.217 41.7962C133.768 41.7962 132.633 42.9358 132.633 44.3805C132.633 45.8294 133.768 46.9649 135.217 46.9649ZM140.386 46.9649C141.831 46.9649 142.97 45.8294 142.97 44.3805C142.97 42.9358 141.831 41.7962 140.386 41.7962C138.937 41.7962 137.801 42.9358 137.801 44.3805C137.801 45.8294 138.937 46.9649 140.386 46.9649ZM145.554 46.9649C146.999 46.9649 148.139 45.8294 148.139 44.3805C148.139 42.9358 146.999 41.7962 145.554 41.7962C144.106 41.7962 142.97 42.9358 142.97 44.3805C142.97 45.8294 144.106 46.9649 145.554 46.9649ZM155.91 15.9529C157.359 15.9529 158.494 14.8174 158.494 13.3685C158.494 11.9237 157.359 10.7842 155.91 10.7842C154.465 10.7842 153.326 11.9237 153.326 13.3685C153.326 14.8174 154.465 15.9529 155.91 15.9529ZM176.585 15.9529C178.034 15.9529 179.169 14.8174 179.169 13.3685C179.169 11.9237 178.034 10.7842 176.585 10.7842C175.14 10.7842 174 11.9237 174 13.3685C174 14.8174 175.14 15.9529 176.585 15.9529ZM155.91 23.7059C157.359 23.7059 158.494 22.5704 158.494 21.1215C158.494 19.6767 157.359 18.5372 155.91 18.5372C154.465 18.5372 153.326 19.6767 153.326 21.1215C153.326 22.5704 154.465 23.7059 155.91 23.7059ZM161.079 23.7059C162.528 23.7059 163.663 22.5704 163.663 21.1215C163.663 19.6767 162.528 18.5372 161.079 18.5372C159.634 18.5372 158.494 19.6767 158.494 21.1215C158.494 22.5704 159.634 23.7059 161.079 23.7059ZM176.585 23.7059C178.034 23.7059 179.169 22.5704 179.169 21.1215C179.169 19.6767 178.034 18.5372 176.585 18.5372C175.14 18.5372 174 19.6767 174 21.1215C174 22.5704 175.14 23.7059 176.585 23.7059ZM155.91 31.4589C157.359 31.4589 158.494 30.3234 158.494 28.8745C158.494 27.4297 157.359 26.2902 155.91 26.2902C154.465 26.2902 153.326 27.4297 153.326 28.8745C153.326 30.3234 154.465 31.4589 155.91 31.4589ZM166.247 31.4589C167.696 31.4589 168.832 30.3234 168.832 28.8745C168.832 27.4297 167.696 26.2902 166.247 26.2902C164.803 26.2902 163.663 27.4297 163.663 28.8745C163.663 30.3234 164.803 31.4589 166.247 31.4589ZM176.585 31.4589C178.034 31.4589 179.169 30.3234 179.169 28.8745C179.169 27.4297 178.034 26.2902 176.585 26.2902C175.14 26.2902 174 27.4297 174 28.8745C174 30.3234 175.14 31.4589 176.585 31.4589ZM155.91 39.2119C157.359 39.2119 158.494 38.0764 158.494 36.6275C158.494 35.1828 157.359 34.0432 155.91 34.0432C154.465 34.0432 153.326 35.1828 153.326 36.6275C153.326 38.0764 154.465 39.2119 155.91 39.2119ZM171.416 39.2119C172.865 39.2119 174 38.0764 174 36.6275C174 35.1828 172.865 34.0432 171.416 34.0432C169.971 34.0432 168.832 35.1828 168.832 36.6275C168.832 38.0764 169.971 39.2119 171.416 39.2119ZM176.585 39.2119C178.034 39.2119 179.169 38.0764 179.169 36.6275C179.169 35.1828 178.034 34.0432 176.585 34.0432C175.14 34.0432 174 35.1828 174 36.6275C174 38.0764 175.14 39.2119 176.585 39.2119ZM155.91 46.9649C157.359 46.9649 158.494 45.8294 158.494 44.3805C158.494 42.9358 157.359 41.7962 155.91 41.7962C154.465 41.7962 153.326 42.9358 153.326 44.3805C153.326 45.8294 154.465 46.9649 155.91 46.9649ZM176.585 46.9649C178.034 46.9649 179.169 45.8294 179.169 44.3805C179.169 42.9358 178.034 41.7962 176.585 41.7962C175.14 41.7962 174 42.9358 174 44.3805C174 45.8294 175.14 46.9649 176.585 46.9649ZM192.072 15.9529C193.517 15.9529 194.657 14.8174 194.657 13.3685C194.657 11.9237 193.517 10.7842 192.072 10.7842C190.624 10.7842 189.488 11.9237 189.488 13.3685C189.488 14.8174 190.624 15.9529 192.072 15.9529ZM197.241 15.9529C198.686 15.9529 199.825 14.8174 199.825 13.3685C199.825 11.9237 198.686 10.7842 197.241 10.7842C195.792 10.7842 194.657 11.9237 194.657 13.3685C194.657 14.8174 195.792 15.9529 197.241 15.9529ZM202.41 15.9529C203.855 15.9529 204.994 14.8174 204.994 13.3685C204.994 11.9237 203.855 10.7842 202.41 10.7842C200.961 10.7842 199.825 11.9237 199.825 13.3685C199.825 14.8174 200.961 15.9529 202.41 15.9529ZM207.578 15.9529C209.023 15.9529 210.163 14.8174 210.163 13.3685C210.163 11.9237 209.023 10.7842 207.578 10.7842C206.13 10.7842 204.994 11.9237 204.994 13.3685C204.994 14.8174 206.13 15.9529 207.578 15.9529ZM186.904 23.7059C188.348 23.7059 189.488 22.5704 189.488 21.1215C189.488 19.6767 188.348 18.5372 186.904 18.5372C185.455 18.5372 184.319 19.6767 184.319 21.1215C184.319 22.5704 185.455 23.7059 186.904 23.7059ZM186.904 31.4589C188.348 31.4589 189.488 30.3234 189.488 28.8745C189.488 27.4297 188.348 26.2902 186.904 26.2902C185.455 26.2902 184.319 27.4297 184.319 28.8745C184.319 30.3234 185.455 31.4589 186.904 31.4589ZM197.241 31.4589C198.686 31.4589 199.825 30.3234 199.825 28.8745C199.825 27.4297 198.686 26.2902 197.241 26.2902C195.792 26.2902 194.657 27.4297 194.657 28.8745C194.657 30.3234 195.792 31.4589 197.241 31.4589ZM202.41 31.4589C203.855 31.4589 204.994 30.3234 204.994 28.8745C204.994 27.4297 203.855 26.2902 202.41 26.2902C200.961 26.2902 199.825 27.4297 199.825 28.8745C199.825 30.3234 200.961 31.4589 202.41 31.4589ZM207.578 31.4589C209.023 31.4589 210.163 30.3234 210.163 28.8745C210.163 27.4297 209.023 26.2902 207.578 26.2902C206.13 26.2902 204.994 27.4297 204.994 28.8745C204.994 30.3234 206.13 31.4589 207.578 31.4589ZM186.904 39.2119C188.348 39.2119 189.488 38.0764 189.488 36.6275C189.488 35.1828 188.348 34.0432 186.904 34.0432C185.455 34.0432 184.319 35.1828 184.319 36.6275C184.319 38.0764 185.455 39.2119 186.904 39.2119ZM207.578 39.2119C209.023 39.2119 210.163 38.0764 210.163 36.6275C210.163 35.1828 209.023 34.0432 207.578 34.0432C206.13 34.0432 204.994 35.1828 204.994 36.6275C204.994 38.0764 206.13 39.2119 207.578 39.2119ZM192.072 46.9649C193.517 46.9649 194.657 45.8294 194.657 44.3805C194.657 42.9358 193.517 41.7962 192.072 41.7962C190.624 41.7962 189.488 42.9358 189.488 44.3805C189.488 45.8294 190.624 46.9649 192.072 46.9649ZM197.241 46.9649C198.686 46.9649 199.825 45.8294 199.825 44.3805C199.825 42.9358 198.686 41.7962 197.241 41.7962C195.792 41.7962 194.657 42.9358 194.657 44.3805C194.657 45.8294 195.792 46.9649 197.241 46.9649ZM202.41 46.9649C203.855 46.9649 204.994 45.8294 204.994 44.3805C204.994 42.9358 203.855 41.7962 202.41 41.7962C200.961 41.7962 199.825 42.9358 199.825 44.3805C199.825 45.8294 200.961 46.9649 202.41 46.9649Z" fill="black"/>
</svg>
