<svg width="57" height="56" viewBox="0 0 57 56" fill="none" xmlns="http://www.w3.org/2000/svg">
<path d="M0.733248 28C0.733248 12.6648 13.1648 0.233248 28.5 0.233248C43.8352 0.233248 56.2668 12.6648 56.2668 28C56.2668 43.3352 43.8352 55.7668 28.5 55.7668C13.1648 55.7668 0.733248 43.3352 0.733248 28Z" fill="#178A86"/>
<path d="M0.733248 28C0.733248 12.6648 13.1648 0.233248 28.5 0.233248C43.8352 0.233248 56.2668 12.6648 56.2668 28C56.2668 43.3352 43.8352 55.7668 28.5 55.7668C13.1648 55.7668 0.733248 43.3352 0.733248 28Z" stroke="#C9D3D8" stroke-width="0.466495"/>
<path d="M22.4878 21.9955C22.9112 21.5968 23.4839 21.501 24.0258 21.501H26.4362C26.9781 21.501 27.5508 21.5968 27.9742 21.9955C28.409 22.405 28.5178 22.9721 28.5178 23.5029V32.945C28.5178 33.4758 28.409 34.0428 27.9742 34.4524C27.5508 34.8511 26.9781 34.9469 26.4362 34.9469H24.0258C23.4839 34.9469 22.9112 34.8511 22.4878 34.4524C22.053 34.0428 21.9442 33.4758 21.9442 32.945V23.5029C21.9442 22.9721 22.053 22.405 22.4878 21.9955Z" fill="white"/>
<path d="M30.3594 21.9945C30.7828 21.5973 31.3539 21.501 31.8939 21.501H34.3043C34.8462 21.501 35.4189 21.5968 35.8423 21.9955C36.2771 22.405 36.3859 22.9721 36.3859 23.5029V32.945C36.3859 33.4758 36.2771 34.0428 35.8423 34.4524C35.4189 34.8511 34.8462 34.9469 34.3043 34.9469H31.8939C31.352 34.9469 30.7793 34.8511 30.3559 34.4524C29.9211 34.0428 29.8123 33.4758 29.8123 32.945V23.5029C29.8123 22.969 29.9242 22.4029 30.3594 21.9945Z" fill="white"/>
</svg>
