<svg width="20" height="20" viewBox="0 0 20 20" fill="none" xmlns="http://www.w3.org/2000/svg">
<path fill-rule="evenodd" clip-rule="evenodd" d="M13.0167 1.19785C13.9948 1.07277 14.985 1.47263 15.992 2.42008L15.9931 2.42117C17.0035 3.37664 17.4627 4.34514 17.3938 5.33096C17.3272 6.28376 16.7748 7.09061 16.144 7.75697M16.144 7.75697L15.0747 8.88877C15.0316 8.9568 14.9758 9.01557 14.911 9.06211L9.25029 15.0538C9.05646 15.2648 8.79529 15.4438 8.54749 15.5763C8.29654 15.7104 8.00642 15.8252 7.73424 15.8736L7.73008 15.8743L5.02594 16.3362C4.37155 16.449 3.74442 16.2854 3.2978 15.8619C2.8518 15.4389 2.65452 14.822 2.7276 14.1643L2.72781 14.1624L3.03998 11.4288C3.07615 11.1575 3.17694 10.8638 3.29585 10.6088C3.41433 10.3547 3.57591 10.0855 3.76694 9.88216L3.76816 9.88086L9.49726 3.81681C9.50822 3.80424 9.51969 3.7921 9.53164 3.78042L10.6653 2.58047C11.2964 1.91384 12.0712 1.31875 13.0167 1.19785M9.65267 5.47249L4.678 10.738C4.67786 10.7382 4.67815 10.7378 4.678 10.738C4.60865 10.812 4.51377 10.9547 4.42872 11.1371C4.34518 11.3162 4.29489 11.4822 4.27979 11.5892L3.96996 14.3023C3.96992 14.3026 3.96989 14.3029 3.96986 14.3032C3.93399 14.6279 4.03489 14.8382 4.15794 14.9549C4.28048 15.0711 4.49344 15.1595 4.81356 15.1044L4.81452 15.1042L7.51721 14.6425C7.62312 14.6234 7.78579 14.5661 7.95813 14.4739C8.13282 14.3805 8.26454 14.2796 8.33072 14.2071L8.33819 14.1989L13.3117 8.93466C11.6281 8.40184 10.2757 7.12511 9.65267 5.47249ZM14.2983 7.89038C12.4881 7.58214 11.0422 6.21487 10.6415 4.42588L11.5735 3.43936C12.1354 2.84585 12.6589 2.50378 13.1752 2.43776C13.6587 2.37593 14.2939 2.53886 15.1349 3.33001C15.9806 4.13003 16.1808 4.75749 16.1468 5.2438C16.1105 5.76305 15.7979 6.30439 15.2358 6.89808L14.2983 7.89038ZM1.875 18.4674C1.875 18.1222 2.15482 17.8424 2.5 17.8424H17.6216C17.9668 17.8424 18.2466 18.1222 18.2466 18.4674C18.2466 18.8126 17.9668 19.0924 17.6216 19.0924H2.5C2.15482 19.0924 1.875 18.8126 1.875 18.4674Z" fill="#178A86"/>
</svg>
