<svg width="33" height="32" viewBox="0 0 33 32" fill="none" xmlns="http://www.w3.org/2000/svg">
<path d="M22.2042 2.3999H10.7937C7.07995 2.3999 5.73438 3.74548 5.73438 7.52654V24.1847C5.73438 27.9658 7.07995 29.3114 10.7937 29.3114H22.1907C25.918 29.3114 27.2635 27.9658 27.2635 24.1847V7.52654C27.2635 3.74548 25.918 2.3999 22.2042 2.3999ZM16.499 25.6783C15.2072 25.6783 14.1442 24.6153 14.1442 23.3236C14.1442 22.0318 15.2072 20.9688 16.499 20.9688C17.7907 20.9688 18.8537 22.0318 18.8537 23.3236C18.8537 24.6153 17.7907 25.6783 16.499 25.6783ZM19.1901 8.11859H13.8078C13.2561 8.11859 12.7986 7.66109 12.7986 7.10941C12.7986 6.55772 13.2561 6.10023 13.8078 6.10023H19.1901C19.7418 6.10023 20.1993 6.55772 20.1993 7.10941C20.1993 7.66109 19.7418 8.11859 19.1901 8.11859Z" fill="#178A86"/>
</svg>
