<svg width="57" height="56" viewBox="0 0 57 56" fill="none" xmlns="http://www.w3.org/2000/svg">
<path d="M0.733248 28C0.733248 12.6648 13.1648 0.233248 28.5 0.233248C43.8352 0.233248 56.2668 12.6648 56.2668 28C56.2668 43.3352 43.8352 55.7668 28.5 55.7668C13.1648 55.7668 0.733248 43.3352 0.733248 28Z" fill="#178A86"/>
<path d="M0.733248 28C0.733248 12.6648 13.1648 0.233248 28.5 0.233248C43.8352 0.233248 56.2668 12.6648 56.2668 28C56.2668 43.3352 43.8352 55.7668 28.5 55.7668C13.1648 55.7668 0.733248 43.3352 0.733248 28Z" stroke="#C9D3D8" stroke-width="0.466495"/>
<path d="M33.7479 31.712L29.0738 34.4234C27.4826 35.3271 25.8631 35.4958 24.594 34.7597C23.3238 34.0232 22.6663 32.5324 22.6663 30.6921V25.2955C22.6663 23.4602 23.3239 21.9686 24.5953 21.2347C25.8668 20.5006 27.4878 20.6772 29.079 21.5975L33.7479 24.3059C35.338 25.2258 36.3017 26.5411 36.3017 28.0089C36.3017 29.4767 35.3379 30.7921 33.7479 31.712Z" fill="white"/>
</svg>
