<svg width="40" height="40" viewBox="0 0 40 40" fill="none" xmlns="http://www.w3.org/2000/svg">
<path fill-rule="evenodd" clip-rule="evenodd" d="M20.75 38.25C11.0965 38.25 3.25 30.4035 3.25 20.75C3.25 11.0965 11.0965 3.25 20.75 3.25C30.4035 3.25 38.25 11.0965 38.25 20.75C38.25 30.4035 30.4035 38.25 20.75 38.25ZM20.75 5.69186C12.4477 5.69186 5.69186 12.4477 5.69186 20.75C5.69186 29.0523 12.4477 35.8081 20.75 35.8081C29.0523 35.8081 35.8081 29.0523 35.8081 20.75C35.8081 12.4477 29.0523 5.69186 20.75 5.69186ZM14.2384 21.9709C13.5709 21.9709 13.0174 21.4174 13.0174 20.75C13.0174 20.0826 13.5709 19.5291 14.2384 19.5291H19.5291V14.2384C19.5291 13.5709 20.0826 13.0174 20.75 13.0174C21.4174 13.0174 21.9709 13.5709 21.9709 14.2384V19.5291H27.2616C27.9291 19.5291 28.4826 20.0826 28.4826 20.75C28.4826 21.4174 27.9291 21.9709 27.2616 21.9709H21.9709V27.2616C21.9709 27.9291 21.4174 28.4826 20.75 28.4826C20.0826 28.4826 19.5291 27.9291 19.5291 27.2616V21.9709H14.2384Z" fill="#292F36"/>
</svg>
