<svg width="100" height="100" viewBox="0 0 100 100" fill="none" xmlns="http://www.w3.org/2000/svg">
<g opacity="0.2">
<path opacity="0.25" d="M3 78.7342V43.4054C3 34.7876 6.59415 23.0249 23.7481 15.9183C26.9015 14.6919 30.452 16.2541 31.6784 19.4075C32.8658 22.4606 31.4413 25.9076 28.445 27.2317C16.6414 32.1328 15.2528 38.7901 15.2528 43.4054V44.018H37.7162C41.0998 44.018 43.8426 46.7609 43.8426 50.1444V78.7342C43.8426 82.1178 41.0998 84.8606 37.7162 84.8606H9.1264C5.74288 84.8606 3 82.1178 3 78.7342ZM57.1574 78.7342V43.4054C57.1574 34.7876 60.7515 23.0249 77.9054 15.9183C81.0588 14.6919 84.6094 16.254 85.8358 19.4074C87.0232 22.4605 85.5987 25.9076 82.6023 27.2317C70.7988 32.1328 69.4101 38.7901 69.4101 43.4054V44.018H91.8736C95.2571 44.018 98 46.7609 98 50.1444V78.7342C98 82.1178 95.2571 84.8606 91.8736 84.8606H63.2837C59.9002 84.8606 57.1574 82.1178 57.1574 78.7342Z" fill="black"/>
</g>
</svg>
