<svg width="74" height="74" viewBox="0 0 74 74" fill="none" xmlns="http://www.w3.org/2000/svg">
<rect width="74" height="74" rx="37" fill="#178A86"/>
<path fill-rule="evenodd" clip-rule="evenodd" d="M31.2505 30.025C31.2505 26.975 33.7255 24.5 36.7755 24.5C39.8255 24.5 42.3005 26.975 42.3005 30.025V36.425C42.3005 39.475 39.8255 41.95 36.7755 41.95C33.7255 41.95 31.2505 39.475 31.2505 36.425V30.025ZM37.713 33.725C38.038 33.725 38.3255 33.5125 38.413 33.1875C38.513 32.8 38.288 32.4 37.913 32.3C37.1755 32.1 36.4005 32.1 35.663 32.3C35.2755 32.4 35.038 32.8 35.1505 33.1875C35.2505 33.575 35.638 33.8125 36.038 33.7C36.5255 33.5625 37.038 33.5625 37.5255 33.7L37.5255 33.7C37.588 33.7125 37.6505 33.725 37.713 33.725ZM38.388 31.2375C38.688 31.2375 38.963 31.0625 39.0755 30.7625C39.213 30.3875 39.013 29.975 38.638 29.8375C37.438 29.4 36.113 29.4 34.913 29.8375C34.538 29.9625 34.338 30.3875 34.4755 30.7625C34.613 31.1375 35.038 31.3375 35.413 31.2C36.288 30.875 37.263 30.875 38.138 31.2C38.2255 31.225 38.3005 31.2375 38.388 31.2375ZM44.8 34.275C44.8 33.7875 45.1875 33.4 45.675 33.4C46.15 33.4 46.5375 33.7875 46.55 34.2625V36.2375C46.55 41.325 42.625 45.525 37.65 45.9625V48.625C37.65 49.1125 37.2625 49.5 36.775 49.5C36.2875 49.5 35.9 49.1125 35.9 48.625V45.9625C30.9125 45.5125 27 41.325 27 36.2375V34.2625C27 33.775 27.3875 33.3875 27.875 33.3875C28.3625 33.3875 28.75 33.775 28.75 34.2625V36.25C28.75 40.675 32.35 44.275 36.775 44.275C41.2 44.275 44.8 40.675 44.8 36.25V34.275Z" fill="white"/>
</svg>
