<svg width="35" height="34" viewBox="0 0 35 34" fill="none" xmlns="http://www.w3.org/2000/svg">
<rect x="1" y="0.5" width="33" height="33" rx="16.5" fill="currentColor"/>
<rect x="1" y="0.5" width="33" height="33" rx="16.5" stroke="white"/>
<path fill-rule="evenodd" clip-rule="evenodd" d="M17.2626 15.6245L17.2626 13.1492C17.2626 11.499 15.4694 10.4649 14.0502 11.29L10.5518 13.3032L7.06438 15.3165C5.64521 16.1416 5.64521 18.2099 7.06438 19.035L10.5518 21.0482L14.0502 23.0615C15.4694 23.8866 17.2626 22.8525 17.2626 21.2022L17.2626 18.7269L17.8017 19.035L21.2891 21.0482L24.7765 23.0615C26.2067 23.8866 27.9999 22.8525 27.9999 21.2022V13.1492C27.9999 11.499 26.2067 10.4649 24.7765 11.29L21.2891 13.3032L17.8017 15.3165L17.2626 15.6245Z" fill="white"/>
</svg>
