<svg width="82" height="82" viewBox="0 0 82 82" fill="none" xmlns="http://www.w3.org/2000/svg">
<g clip-path="url(#clip0_4151_27256)">
<path d="M75.0172 29.5033C72.7129 29.5033 70.8276 27.618 70.8276 25.3137C70.8276 24.5456 70.1991 23.9171 69.431 23.9171H13.569C12.8009 23.9171 12.1724 24.5456 12.1724 25.3137C12.1724 27.618 10.2871 29.5033 7.98276 29.5033C7.21466 29.5033 6.58621 30.1318 6.58621 30.8999V50.4516C6.58621 51.2197 7.21466 51.8481 7.98276 51.8481C10.2871 51.8481 12.1724 53.7335 12.1724 56.0378C12.1724 56.8059 12.8009 57.4343 13.569 57.4343H69.431C70.1991 57.4343 70.8276 56.8059 70.8276 56.0378C70.8276 53.7335 72.7129 51.8481 75.0172 51.8481C75.7853 51.8481 76.4138 51.2197 76.4138 50.4516V30.8999C76.4138 30.1318 75.7853 29.5033 75.0172 29.5033ZM21.25 45.5637C18.5547 45.5637 16.3621 43.3711 16.3621 40.6757C16.3621 37.9804 18.5547 35.7878 21.25 35.7878C23.9453 35.7878 26.1379 37.9804 26.1379 40.6757C26.1379 43.3711 23.9453 45.5637 21.25 45.5637ZM41.5 49.055C36.8774 49.055 33.1207 45.2983 33.1207 40.6757C33.1207 36.0531 36.8774 32.2964 41.5 32.2964C46.1226 32.2964 49.8793 36.0531 49.8793 40.6757C49.8793 45.2983 46.1226 49.055 41.5 49.055ZM61.75 45.5637C59.0547 45.5637 56.8621 43.3711 56.8621 40.6757C56.8621 37.9804 59.0547 35.7878 61.75 35.7878C64.4453 35.7878 66.6379 37.9804 66.6379 40.6757C66.6379 43.3711 64.4453 45.5637 61.75 45.5637Z" fill="#2394C8"/>
<path d="M80.6035 18.3309H2.39655C1.62845 18.3309 1 18.9593 1 19.7275V61.624C1 62.3921 1.62845 63.0206 2.39655 63.0206H80.6035C81.3716 63.0206 82 62.3921 82 61.624V19.7275C82 18.9593 81.3716 18.3309 80.6035 18.3309ZM79.2069 60.2275H3.7931V21.124H79.2069V60.2275Z" fill="#2394C8"/>
<path d="M19.9233 15.3842C20.3981 15.6216 20.9707 15.5657 21.3897 15.2585C24.7553 12.7307 28.9171 11.3481 33.1207 11.3481H52.6724V14.1412C52.6724 14.6859 52.9797 15.1747 53.4824 15.4121C53.664 15.4959 53.8735 15.5378 54.069 15.5378C54.3902 15.5378 54.7114 15.4261 54.9628 15.2166L63.3421 8.23383C63.6633 7.96849 63.8448 7.57745 63.8448 7.15849C63.8448 6.73952 63.6633 6.34849 63.3421 6.08314L54.9628 -0.899617C54.5438 -1.24876 53.9712 -1.31858 53.4824 -1.09513C52.9936 -0.871687 52.6724 -0.368928 52.6724 0.175727V2.96883H30.3276C24.1688 2.96883 19.1552 7.98245 19.1552 14.1412C19.1552 14.6719 19.4484 15.1468 19.9233 15.3842Z" fill="#2394C8"/>
<path d="M63.0767 65.9673C62.6019 65.7299 62.0433 65.7857 61.6103 66.093C58.2447 68.6207 54.0829 70.0033 49.8793 70.0033H30.3276V67.2102C30.3276 66.6656 30.0203 66.1768 29.5176 65.9394C29.0288 65.7159 28.4422 65.7857 28.0372 66.1349L19.6579 73.1176C19.3367 73.383 19.1552 73.774 19.1552 74.193C19.1552 74.6119 19.3367 75.003 19.6579 75.2683L28.0372 82.2511C28.2886 82.4606 28.6098 82.5723 28.931 82.5723C29.1266 82.5723 29.336 82.5304 29.5176 82.4466C30.0064 82.2231 30.3276 81.7204 30.3276 81.1757V78.3826H52.6724C58.8312 78.3826 63.8448 73.369 63.8448 67.2102C63.8448 66.6795 63.5516 66.2047 63.0767 65.9673Z" fill="#2394C8"/>
</g>
<defs>
<clipPath id="clip0_4151_27256">
<rect width="80.7477" height="80.7477" fill="white" transform="translate(0.916016 0.760773)"/>
</clipPath>
</defs>
</svg>
