<svg width="24" height="24" viewBox="0 0 24 24" fill="none" xmlns="http://www.w3.org/2000/svg">
<rect width="24" height="24" rx="12" fill="none"/>
<path d="M18.9458 13.9048C19.4967 13.1804 19.8808 12.2934 20.1746 11.4242C20.3544 10.8919 20.4131 10.1663 20.3691 9.63337C20.331 9.17202 19.8516 8.87518 19.4273 9.06026C19.3195 9.10728 19.2098 9.16842 19.0998 9.23984C19.1982 8.55072 19.2071 7.84158 19.1825 7.14555C19.1729 6.87262 19.1317 6.55339 18.8944 6.41824C18.663 6.28644 18.3734 6.4043 18.1405 6.5334C17.3768 6.9568 16.6853 7.498 16.0116 8.05359C15.6467 8.35449 15.2832 8.66351 14.9521 9.00077C14.9289 8.81039 14.8872 8.62277 14.8247 8.44047C14.5604 7.67012 14.0081 6.36041 13.3294 5.45466C12.8712 4.84324 11.9965 4.84324 11.5384 5.45466C10.8597 6.36042 10.2671 7.63427 10.0431 8.44048C9.99003 8.63132 9.9469 8.81541 9.91294 8.99289C9.58389 8.65868 9.22316 8.35215 8.86112 8.0536C8.18741 7.49801 7.49596 6.95681 6.73222 6.53341C6.49935 6.40431 6.20974 6.28645 5.97838 6.41825C5.74108 6.55341 5.69981 6.87262 5.6902 7.14556C5.66617 7.82787 5.67422 8.52277 5.76722 9.19907C5.67893 9.145 5.59103 9.09807 5.50436 9.06026C5.08006 8.87517 4.60061 9.17202 4.56252 9.63337C4.51852 10.1663 4.5772 10.8919 4.7571 11.4242C5.04213 12.2677 5.41224 13.1278 5.93732 13.84C5.76734 13.8808 5.59789 13.924 5.42907 13.9696C4.7049 14.1654 2.39308 14.7065 2.38357 15.8869C2.37805 16.5735 3.25015 17.1606 3.78291 17.2449C4.08454 17.2926 4.39155 17.2521 4.69619 17.2625C5.35114 17.2848 5.97987 17.5414 6.57707 17.8359C6.95354 18.0216 7.32539 18.2246 7.72252 18.3486C8.31069 18.5324 8.93158 18.5365 9.54333 18.5392C10.1569 18.5419 10.7778 18.5437 11.3735 18.383C11.8104 18.2652 12.2292 18.0609 12.676 18.0012C13.7002 17.8642 14.6785 18.4982 15.7071 18.5889C15.8048 18.5975 15.9045 18.5823 15.9941 18.5386C16.259 18.4097 16.2369 18.1795 16.2119 17.9715L16.1213 17.2161C16.0895 16.9513 16.3402 16.7563 16.56 16.8734C16.9685 17.091 17.4857 17.3017 17.6175 17.3405C18.2731 17.5332 18.7503 17.6135 19.428 17.6605C20.1081 17.7076 20.8376 17.4756 21.4173 17.0983C21.7804 16.862 22.2458 16.4984 22.2458 15.9812C22.2458 15.1566 20.9715 14.4155 18.9458 13.9048Z" fill="#F16923" fill-opacity="0.945098"/>
<path d="M18.9458 13.9047C18.8798 13.9914 18.8114 14.0758 18.7405 14.1576C18.3995 14.5511 18.0001 14.8834 17.5276 15.1202C17.3106 15.229 17.0701 15.3125 16.8277 15.3508L16.8159 15.3629C16.8111 15.3678 16.8031 15.3678 16.7982 15.363L16.7982 15.3629C16.7533 15.4078 16.706 15.4509 16.6564 15.4922C16.1888 15.8814 15.5103 16.1073 14.6231 16.0368C14.4996 16.027 14.3711 16.0084 14.2404 15.9809C14.2014 15.9727 14.1623 15.9637 14.123 15.9539C13.4899 15.7963 12.8275 15.4314 12.4624 14.8397C12.1004 15.4775 11.3825 15.9636 10.2741 16.0412C9.58945 16.0892 8.71039 15.8949 8.12744 15.3544L8.12228 15.3536L8.11837 15.3632C8.11341 15.3678 8.10561 15.3677 8.10083 15.3629C8.09592 15.3579 8.09109 15.3529 8.08623 15.348C8.07753 15.3465 8.06882 15.345 8.06011 15.3434C7.83259 15.3023 7.60792 15.2224 7.40405 15.1202C6.90873 14.872 6.49371 14.5187 6.1421 14.1002C6.07132 14.0159 6.0031 13.9291 5.93732 13.8398C5.76734 13.8807 5.59789 13.9239 5.42907 13.9695C4.7049 14.1653 2.39308 14.7063 2.38357 15.8868C2.37805 16.5734 3.25015 17.1605 3.78291 17.2448C4.08454 17.2925 4.39155 17.252 4.69619 17.2624C5.35114 17.2847 5.97987 17.5413 6.57707 17.8358C6.95354 18.0215 7.32539 18.2244 7.72252 18.3485C8.31069 18.5323 8.93158 18.5363 9.54333 18.5391C10.1569 18.5418 10.7778 18.5436 11.3735 18.3829C11.8104 18.265 12.2292 18.0608 12.676 18.001C13.7002 17.8641 14.6785 18.4981 15.7071 18.5887C15.8048 18.5973 15.9045 18.5821 15.9941 18.5385C16.259 18.4095 16.2369 18.1794 16.2119 17.9713L16.1213 17.2159C16.0895 16.9511 16.3402 16.7562 16.56 16.8732C16.9686 17.0908 17.4857 17.3016 17.6175 17.3403C18.2731 17.5331 18.7503 17.6134 19.428 17.6603C20.1081 17.7075 20.8376 17.4755 21.4173 17.0981C21.7804 16.8618 22.2458 16.4982 22.2458 15.9811C22.2458 15.1564 20.9715 14.4154 18.9458 13.9047Z" fill="#FDCB35"/>
<path d="M16.9666 9.10437C16.959 8.92173 16.9264 8.70812 16.739 8.61767C16.5562 8.52948 16.3275 8.60835 16.1435 8.69474C15.7318 8.88812 15.3467 9.11823 14.9744 9.36305C14.8013 9.47692 14.6309 9.59397 14.462 9.71201C14.3216 9.81006 14.1815 9.90939 14.0445 10.0116C14.0402 9.99797 14.0358 9.98441 14.0312 9.9709C13.8544 9.45539 13.4851 8.57898 13.0312 7.97288C12.7248 7.56373 12.1398 7.56373 11.8334 7.97288C11.3795 8.57898 10.9832 9.43141 10.8334 9.9709C10.8246 10.0027 10.8162 10.0342 10.8082 10.0654C10.6486 9.94413 10.4841 9.82718 10.3192 9.71201C10.1645 9.60393 10.0086 9.49669 9.85051 9.39194C9.46468 9.13635 9.06551 8.89571 8.63761 8.69475C8.45366 8.60836 8.22491 8.52949 8.04216 8.61768C7.85472 8.70813 7.82213 8.92175 7.81454 9.10438C7.78174 9.89342 7.82456 10.7076 8.15875 11.4393C8.20233 11.4783 8.24605 11.5171 8.28993 11.5557L8.29368 11.5565C8.49955 11.2234 8.73888 10.8914 8.99556 10.6029C9.40636 10.1411 10.2331 10.068 10.7293 10.4358C10.7474 10.4492 10.765 10.4631 10.7822 10.4777C11.5056 11.0918 12.1236 12.0097 12.4266 12.5538C12.4388 12.5757 12.4506 12.5977 12.4621 12.6198L12.4621 12.6199C12.4755 12.5899 12.4893 12.5597 12.5037 12.5293C12.7691 11.9687 13.4152 11.1069 14.1292 10.501C14.1419 10.4902 14.1547 10.4794 14.1676 10.4687C14.6598 10.0588 15.5317 10.1281 15.953 10.6107C16.189 10.881 16.4036 11.1921 16.5911 11.506C16.9539 10.7573 17.0004 9.91746 16.9666 9.10437Z" fill="#FFB800"/>
<path d="M7.36329 10.6647C7.62115 10.9398 7.88686 11.1947 8.15846 11.4382C7.82427 10.7065 7.78145 9.89236 7.81425 9.10332C7.82184 8.92068 7.85442 8.70707 8.04187 8.61662C8.22463 8.52843 8.45338 8.6073 8.63732 8.69369C9.06523 8.89466 9.46439 9.1353 9.85022 9.39088C9.86582 9.26172 9.88653 9.1287 9.91274 8.99172C9.5837 8.65751 9.22297 8.35098 8.86092 8.05242C8.18721 7.49684 7.49576 6.95564 6.73202 6.53224C6.49915 6.40313 6.20955 6.28528 5.97818 6.41707C5.74088 6.55224 5.69962 6.87145 5.69 7.14438C5.66598 7.8267 5.67402 8.52159 5.76702 9.1979C6.36387 9.56335 6.97934 10.2552 7.36329 10.6647Z" fill="#F16923"/>
<path d="M16.1433 8.69369C16.3273 8.6073 16.556 8.52843 16.7387 8.61662C16.9262 8.70707 16.9588 8.92069 16.9664 9.10332C17.0002 9.91642 16.9537 10.7562 16.5908 11.5049C16.601 11.522 16.6112 11.5392 16.6213 11.5563L16.6214 11.5562C16.6266 11.5533 16.6331 11.5545 16.637 11.5588C16.9559 11.2789 17.2673 10.9855 17.568 10.6647C17.9381 10.2699 18.5233 9.61287 19.0996 9.23868C19.198 8.54955 19.2069 7.84042 19.1824 7.14438C19.1728 6.87145 19.1315 6.55223 18.8942 6.41707C18.6628 6.28528 18.3732 6.40313 18.1404 6.53224C17.3766 6.95564 16.6852 7.49684 16.0115 8.05242C15.6466 8.35333 15.283 8.66234 14.9519 8.9996C14.9665 9.11951 14.9737 9.24053 14.9741 9.362C15.3464 9.11717 15.7315 8.88707 16.1433 8.69369Z" fill="#F16923"/>
<path d="M10.319 9.71213C10.4839 9.8273 10.6484 9.94425 10.808 10.0655C10.816 10.0343 10.8244 10.0028 10.8332 9.97102C10.983 9.43153 11.3793 8.5791 11.8332 7.973C12.1396 7.56384 12.7246 7.56384 13.031 7.973C13.4849 8.5791 13.8543 9.4555 14.031 9.97102C14.0356 9.98452 14.0401 9.99808 14.0444 10.0117C14.1814 9.9095 14.3215 9.81017 14.4618 9.71213C14.6307 9.59409 14.8011 9.47704 14.9742 9.36316C14.9738 9.2417 14.9666 9.12069 14.952 9.00077C14.9289 8.81039 14.8872 8.62277 14.8246 8.44047C14.5604 7.67012 14.008 6.36041 13.3293 5.45466C12.8711 4.84324 11.9965 4.84324 11.5383 5.45466C10.8596 6.36041 10.267 7.63426 10.043 8.44047C9.98996 8.63131 9.94683 8.8154 9.91286 8.99288C9.88665 9.12986 9.86595 9.26288 9.85034 9.39205C10.0085 9.49679 10.1643 9.60405 10.319 9.71213Z" fill="#F16923"/>
<path d="M8.99556 10.6019C9.40636 10.1402 10.2331 10.0671 10.7293 10.4348C10.7491 10.316 10.7753 10.1925 10.8082 10.0644C10.6486 9.94318 10.4841 9.82623 10.3192 9.71106C10.1645 9.60298 10.0086 9.49574 9.85051 9.39099C9.46468 9.1354 9.06551 8.89476 8.63761 8.6938C8.45366 8.60741 8.22491 8.52854 8.04215 8.61673C7.85472 8.70718 7.82213 8.9208 7.81454 9.10343C7.78174 9.89247 7.82456 10.7066 8.15875 11.4383C8.20233 11.4774 8.24605 11.5162 8.28993 11.5547L8.29368 11.5556C8.49955 11.2225 8.73888 10.8904 8.99556 10.6019Z" fill="#FFB800"/>
<path d="M14.1291 10.5001C14.1418 10.4892 14.1546 10.4785 14.1675 10.4678C14.6597 10.0579 15.5316 10.1272 15.9529 10.6097C16.1888 10.8801 16.4035 11.1911 16.591 11.505C16.9538 10.7563 17.0003 9.91652 16.9665 9.10343C16.9589 8.92079 16.9264 8.70718 16.7389 8.61673C16.5562 8.52854 16.3274 8.60741 16.1435 8.6938C15.7317 8.88718 15.3466 9.11729 14.9743 9.36211C14.8012 9.47598 14.6308 9.59303 14.4619 9.71107C14.3215 9.80912 14.1814 9.90845 14.0444 10.0106C14.0946 10.1694 14.1217 10.3338 14.1291 10.5001Z" fill="#FFB800"/>
<path d="M17.5683 10.6653C17.2675 10.9861 16.9562 11.2795 16.6372 11.5594L16.6386 11.5613C16.9037 12.0037 17.1329 12.468 17.3105 12.9527C17.5476 13.6028 17.4947 14.3604 17.1367 14.9567C17.0484 15.099 16.9446 15.231 16.8278 15.3504C17.0702 15.3121 17.3107 15.2286 17.5277 15.1198C18.0002 14.883 18.3996 14.5506 18.7406 14.1572C18.8115 14.0755 18.8799 13.991 18.9458 13.9043C19.4968 13.1798 19.8809 12.2929 20.1746 11.4237C20.3545 10.8914 20.4132 10.1657 20.3692 9.63282C20.3311 9.17147 19.8517 8.87463 19.4274 9.05971C19.3196 9.10672 19.2099 9.16786 19.0999 9.23929C18.5236 9.61351 17.9384 10.2706 17.5683 10.6653Z" fill="#F16923"/>
<path d="M7.40431 15.1198C7.60818 15.222 7.83285 15.3019 8.06037 15.343C8.06908 15.3446 8.07779 15.3461 8.08649 15.3475C7.9709 15.2289 7.86801 15.0979 7.78043 14.9567C7.51305 14.5103 7.41369 13.9705 7.48345 13.4564C7.52664 13.1121 7.66138 12.7888 7.80164 12.4747C7.94173 12.1608 8.10094 11.8556 8.2785 11.5613L8.29009 11.5552C8.24622 11.5167 8.20249 11.4779 8.1589 11.4388C7.88731 11.1953 7.62158 10.9404 7.36374 10.6653C6.97979 10.2558 6.36432 9.56397 5.76749 9.19852C5.6792 9.14446 5.5913 9.09752 5.50463 9.05971C5.08033 8.87462 4.60088 9.17147 4.56279 9.63282C4.51879 10.1657 4.57747 10.8914 4.75737 11.4237C5.0424 12.2671 5.41252 13.1272 5.93759 13.8394C6.00337 13.9287 6.07159 14.0155 6.14237 14.0998C6.49397 14.5183 6.90898 14.8716 7.40431 15.1198Z" fill="#F16923"/>
<path d="M14.8096 5.0204L15.3067 5.17968C15.4071 5.21179 15.484 5.33822 15.4994 5.49637L15.6098 6.63183C15.6124 6.65896 15.6375 6.65896 15.6401 6.63183L15.7506 5.4964C15.766 5.33822 15.8428 5.21179 15.9432 5.17968L16.4403 5.0204C16.4566 5.01519 16.4566 4.9788 16.4403 4.97353L15.9432 4.81431C15.8428 4.78219 15.766 4.65576 15.7506 4.49759L15.6401 3.3621C15.6375 3.33503 15.6125 3.33503 15.6098 3.3621L15.4993 4.49762C15.484 4.65574 15.4071 4.78219 15.3067 4.81431L14.8096 4.97353C14.7933 4.9788 14.7933 5.01519 14.8096 5.0204Z" fill="#FFB800"/>
<path d="M4.04495 6.66352L4.2935 6.74316C4.34368 6.75922 4.38212 6.82243 4.38982 6.9015L4.44504 7.46924C4.44636 7.4828 4.45887 7.4828 4.4602 7.46924L4.51542 6.90152C4.52311 6.82243 4.56156 6.75922 4.61173 6.74316L4.86029 6.66352C4.86845 6.66091 4.86845 6.64272 4.86029 6.64008L4.61173 6.56047C4.56155 6.54442 4.52312 6.4812 4.51542 6.40212L4.4602 5.83437C4.45888 5.82084 4.44637 5.82084 4.44504 5.83437L4.38981 6.40213C4.38212 6.48119 4.34368 6.54442 4.2935 6.56047L4.04495 6.64008C4.03677 6.64272 4.03677 6.66091 4.04495 6.66352Z" fill="#FFB800"/>
<path d="M5.68793 19.0541L5.43935 18.9745C5.38919 18.9585 5.35077 18.8953 5.34307 18.8162L5.28784 18.2484C5.28652 18.2349 5.274 18.2349 5.27269 18.2484L5.21745 18.8162C5.20976 18.8953 5.17131 18.9585 5.12114 18.9745L4.87259 19.0541C4.86441 19.0568 4.86441 19.075 4.87259 19.0776L5.12114 19.1572C5.17131 19.1733 5.20976 19.2365 5.21746 19.3155L5.27269 19.8833C5.27399 19.8969 5.28652 19.8969 5.28784 19.8833L5.34307 19.3156C5.35074 19.2365 5.38919 19.1733 5.43935 19.1572L5.68793 19.0776C5.69609 19.075 5.69609 19.0568 5.68793 19.0541Z" fill="#FFB800"/>
<path d="M21.4123 12.433L21.1637 12.3534C21.1136 12.3374 21.0751 12.2742 21.0674 12.1951L21.0122 11.6273C21.0109 11.6138 20.9984 11.6138 20.9971 11.6273L20.9418 12.1951C20.9341 12.2742 20.8957 12.3374 20.8455 12.3534L20.597 12.433C20.5888 12.4357 20.5888 12.4539 20.597 12.4565L20.8455 12.5361C20.8957 12.5522 20.9341 12.6154 20.9418 12.6944L20.9971 13.2622C20.9984 13.2758 21.0109 13.2758 21.0122 13.2622L21.0674 12.6945C21.0751 12.6154 21.1136 12.5522 21.1637 12.5361L21.4123 12.4565C21.4205 12.4539 21.4205 12.4357 21.4123 12.433Z" fill="#FFB800"/>
</svg>
