<svg width="46" height="46" viewBox="0 0 46 46" fill="none" xmlns="http://www.w3.org/2000/svg">
<path fill-rule="evenodd" clip-rule="evenodd" d="M0.860291 22.999C0.860291 35.3644 10.8846 45.3887 23.2501 45.3887C35.6154 45.3887 45.6397 35.3644 45.6397 22.999C45.6397 10.6337 35.6154 0.609417 23.2501 0.609417C10.8846 0.609417 0.860291 10.6337 0.860291 22.999ZM23.2501 42.6092C12.4197 42.6092 3.63974 33.8293 3.63974 22.999C3.63974 12.1688 12.4197 3.38887 23.2501 3.38887C34.0804 3.38887 42.8603 12.1688 42.8603 22.999C42.8603 33.8293 34.0804 42.6092 23.2501 42.6092Z" fill="#1ED842"/>
<path d="M17.9447 16.3693C17.9447 18.0174 16.6087 19.3532 14.9606 19.3532C13.3126 19.3532 11.976 18.0174 11.976 16.3693C11.976 14.7211 13.3126 13.3848 14.9606 13.3848C16.6087 13.3848 17.9447 14.7211 17.9447 16.3693Z" fill="#1ED842"/>
<path fill-rule="evenodd" clip-rule="evenodd" d="M14.9606 19.3069C16.5831 19.3069 17.8984 17.9919 17.8984 16.3693C17.8984 14.7467 16.5831 13.4311 14.9606 13.4311C13.3382 13.4311 12.0223 14.7467 12.0223 16.3693C12.0223 17.9918 13.3382 19.3069 14.9606 19.3069ZM14.9606 19.3532C16.6087 19.3532 17.9447 18.0174 17.9447 16.3693C17.9447 14.7211 16.6087 13.3848 14.9606 13.3848C13.3126 13.3848 11.976 14.7211 11.976 16.3693C11.976 18.0174 13.3126 19.3532 14.9606 19.3532Z" fill="#1ED842"/>
<path d="M34.5235 16.3693C34.5235 18.0174 33.1875 19.3532 31.5396 19.3532C29.8914 19.3532 28.5554 18.0174 28.5554 16.3693C28.5554 14.7211 29.8914 13.3848 31.5396 13.3848C33.1875 13.3848 34.5235 14.7211 34.5235 16.3693Z" fill="#1ED842"/>
<path fill-rule="evenodd" clip-rule="evenodd" d="M31.5396 19.3069C33.1619 19.3069 34.4772 17.9919 34.4772 16.3693C34.4772 14.7467 33.1619 13.4311 31.5396 13.4311C29.917 13.4311 28.6017 14.7467 28.6017 16.3693C28.6017 17.9919 29.917 19.3069 31.5396 19.3069ZM31.5396 19.3532C33.1875 19.3532 34.5235 18.0174 34.5235 16.3693C34.5235 14.7211 33.1875 13.3848 31.5396 13.3848C29.8914 13.3848 28.5554 14.7211 28.5554 16.3693C28.5554 18.0174 29.8914 19.3532 31.5396 19.3532Z" fill="#1ED842"/>
<path d="M34.4231 28.7404C35.257 29.3068 35.3986 30.4798 34.7226 31.2276C31.9661 34.2764 28.1103 36.0958 23.9135 36.0958C19.7158 36.0958 15.8601 34.2764 13.1038 31.2276C12.4282 30.4798 12.5694 29.3068 13.403 28.7404C13.4124 28.7341 13.4213 28.7281 13.4308 28.7217C14.1166 28.2554 15.0382 28.3704 15.5979 28.9833C20.071 33.8822 27.7554 33.8822 32.2289 28.9833C32.788 28.3704 33.7095 28.2554 34.3956 28.7217C34.405 28.7281 34.4143 28.7341 34.4231 28.7404Z" fill="#1ED842"/>
<path fill-rule="evenodd" clip-rule="evenodd" d="M34.3962 28.7781L34.3962 28.7781C34.3903 28.7739 34.3844 28.7699 34.3776 28.7654C34.3751 28.7638 34.3725 28.7621 34.3698 28.7602L34.3695 28.7601C33.7028 28.3069 32.8069 28.4184 32.2631 29.0145L32.2631 29.0145C27.7712 33.9336 20.0552 33.9336 15.5637 29.0145C15.0193 28.4184 14.1233 28.3069 13.4569 28.7601L13.4565 28.7603L13.4565 28.7603L13.429 28.7787C12.6187 29.3294 12.4814 30.4696 13.1381 31.1965C15.8861 34.2361 19.7296 36.0495 23.9135 36.0495C28.0966 36.0495 31.94 34.2361 34.6882 31.1965C35.3453 30.4696 35.2077 29.3294 34.3971 28.7787L34.3962 28.7781ZM13.1038 31.2276C12.4282 30.4798 12.5694 29.3068 13.403 28.7404L13.4308 28.7217C14.1166 28.2554 15.0382 28.3704 15.5979 28.9833C20.071 33.8822 27.7554 33.8822 32.2289 28.9833C32.7879 28.3704 33.7095 28.2554 34.3956 28.7217C34.398 28.7233 34.4003 28.7249 34.4027 28.7265C34.4097 28.7311 34.4165 28.7357 34.4231 28.7404C35.257 29.3068 35.3986 30.4798 34.7226 31.2276C31.9661 34.2764 28.1103 36.0958 23.9135 36.0958C19.7158 36.0958 15.8601 34.2764 13.1038 31.2276Z" fill="#1ED842"/>
</svg>
