<svg xmlns="http://www.w3.org/2000/svg" width="36" height="35" viewBox="0 0 36 35" fill="none">
  <path d="M18.6732 15.9086C19.0512 15.0824 19.6684 14.3999 20.3079 13.7699C21.0655 13.0251 21.8788 12.3346 22.5614 11.5165C22.7416 11.2996 22.5119 11.0141 22.26 11.0843C21.4546 11.3123 20.6157 11.4367 19.7768 11.3937C19.0624 11.3586 18.3543 11.1959 17.6861 10.9423C16.9875 10.6776 16.2794 10.3379 15.659 9.91686C14.951 9.43523 14.3688 8.81166 13.892 8.10197C13.4343 7.41939 13.0707 6.68259 12.7262 5.93781C12.6672 5.7895 12.6002 5.64596 12.5268 5.50403C12.5237 5.49605 12.5205 5.48967 12.5173 5.4817C12.5157 5.47851 12.5125 5.47373 12.5093 5.47054C12.5013 5.45299 12.4934 5.43545 12.4838 5.41791C12.412 5.28873 12.2143 5.27278 12.1042 5.35092C12.0915 5.3589 12.0819 5.37006 12.0707 5.37963C11.9894 5.44023 11.9479 5.5423 12.0037 5.6667C12.0915 5.85807 12.1792 6.04945 12.2685 6.24083C12.4583 6.75276 12.5476 7.30457 12.5843 7.84361C12.6369 8.63623 12.5667 9.43363 12.3961 10.2087C12.2302 10.9535 11.9623 11.6727 11.5492 12.3186C11.0724 13.065 10.4664 13.7316 9.79972 14.3137C9.01667 14.9963 8.15069 15.5768 7.25441 16.0999C7.13958 16.1685 7.11247 16.3376 7.17148 16.4476C7.24165 16.5768 7.36764 16.6119 7.5032 16.58C8.38194 16.3838 9.29576 16.2945 10.1905 16.4205C11.0325 16.5385 11.8251 16.8367 12.5715 17.2354C14.4007 18.2131 16.0625 19.6117 17.2028 21.3564C17.5489 21.8859 17.8455 22.4489 18.0895 23.0342C18.2538 23.6769 18.4516 24.3116 18.6748 24.9368C18.7737 25.2159 19.2697 25.1329 19.2027 24.8235C19.1979 24.7996 19.1916 24.7773 19.1868 24.7534H19.1884C19.1868 24.7486 19.1852 24.7438 19.1836 24.7406C19.0496 24.1282 18.8646 23.5349 18.6334 22.964C18.2602 21.5366 18.0529 20.0678 18.1326 18.591C18.1804 17.6947 18.2985 16.7315 18.6732 15.9086ZM17.7132 21.1666C17.1693 20.3054 16.5075 19.5176 15.742 18.8159C14.943 18.0839 14.0467 17.4507 13.109 16.9117C12.3163 16.4572 11.4631 16.0936 10.562 15.9277C9.93528 15.8113 9.30374 15.7985 8.67698 15.8527C9.90977 15.025 11.0485 14.0378 11.8794 12.8019C12.8203 11.4032 13.2062 9.67923 13.1393 8.00469C13.1377 7.97119 13.1345 7.9393 13.1329 7.9074C13.6432 8.76381 14.254 9.55006 15.0658 10.1609C15.7244 10.6553 16.4868 11.046 17.2475 11.3554C17.9572 11.644 18.7051 11.8482 19.469 11.9152C20.174 11.9774 20.8741 11.9295 21.563 11.8019C20.4259 12.9661 19.0783 13.9613 18.308 15.4174C17.8567 16.269 17.694 17.2546 17.6159 18.2051C17.5345 19.1939 17.5744 20.1858 17.7132 21.1666ZM25.5724 2.36544C25.5692 2.36544 25.5644 2.36544 25.5596 2.36544C25.5564 2.36385 25.5532 2.36385 25.5501 2.36385C25.5804 2.36863 25.5819 2.36704 25.5724 2.36544ZM25.6521 2.38299H25.6505C25.6426 2.38139 25.633 2.3798 25.625 2.37661C25.6298 2.3782 25.6394 2.38139 25.6521 2.38299ZM25.4177 3.47224C25.7287 3.5169 26.0588 3.37815 26.247 3.12776C26.3554 2.98423 26.4128 2.82475 26.4192 2.64454C26.4256 2.47549 26.357 2.29208 26.2486 2.1629C25.9695 1.83278 25.4895 1.70838 25.1115 1.94601C25.1083 1.9476 25.1051 1.95079 25.1019 1.95239C25.0987 1.95558 25.0939 1.95717 25.0907 1.96036C24.834 2.14695 24.716 2.48346 24.775 2.79126C24.8069 2.95871 24.8723 3.11022 24.9871 3.23621C25.1003 3.35901 25.2518 3.44672 25.4177 3.47224ZM25.4783 2.92682C25.4735 2.92522 25.4703 2.92522 25.4655 2.92522C25.4273 2.91406 25.4591 2.92044 25.4783 2.92682ZM25.8658 2.70514C25.8658 2.70673 25.8642 2.70673 25.8642 2.70833C25.8706 2.69078 25.8786 2.67484 25.8658 2.70514ZM25.8579 2.73065C25.8579 2.72746 25.8594 2.72268 25.861 2.7163C25.8594 2.72109 25.8579 2.72746 25.8579 2.73065ZM25.6473 2.38139C25.6489 2.38139 25.6489 2.38299 25.6505 2.38299C25.6553 2.38458 25.6601 2.38618 25.6649 2.38618C25.6601 2.38618 25.6569 2.38458 25.6521 2.38299C25.6665 2.38937 25.6808 2.39574 25.6936 2.40212C25.7063 2.4085 25.7191 2.41488 25.7319 2.42126C25.7526 2.43721 25.7733 2.45316 25.7941 2.4707C25.7988 2.47389 25.8036 2.48186 25.81 2.48665C25.8052 2.48186 25.7988 2.47389 25.7893 2.46273C25.7972 2.4723 25.8068 2.48186 25.8148 2.49143C25.8164 2.49303 25.8164 2.49622 25.818 2.49781C25.8196 2.49941 25.8212 2.501 25.8196 2.49941C25.8323 2.51536 25.8419 2.5329 25.8531 2.55044C25.8594 2.56479 25.8642 2.58074 25.869 2.5951C25.8722 2.61583 25.8738 2.63497 25.8754 2.6557C25.8738 2.66686 25.8722 2.67803 25.869 2.68919C25.8674 2.69557 25.8642 2.70354 25.8626 2.71152C25.8531 2.73225 25.8435 2.75139 25.8323 2.77212C25.8244 2.78169 25.8164 2.79285 25.8084 2.80242C25.802 2.8104 25.7941 2.81677 25.7861 2.82475C25.7861 2.82475 25.7478 2.85983 25.7319 2.871C25.7175 2.88057 25.7032 2.88854 25.6888 2.89651C25.6601 2.90927 25.6314 2.92044 25.6011 2.92841C25.5867 2.9316 25.574 2.9332 25.5596 2.93479C25.5501 2.93638 25.5405 2.93638 25.5309 2.93638C25.5134 2.9332 25.4974 2.93001 25.4799 2.92682C25.4703 2.92203 25.4544 2.91884 25.4496 2.91565C25.4432 2.91246 25.4368 2.90927 25.4288 2.90449C25.4129 2.89333 25.3985 2.88057 25.3842 2.86621C25.3794 2.85983 25.3746 2.85345 25.3698 2.84708C25.3603 2.83432 25.3539 2.82156 25.3459 2.80721C25.3332 2.7785 25.3236 2.74979 25.314 2.71949C25.3092 2.68441 25.306 2.64772 25.306 2.61104C25.306 2.60307 25.3076 2.5951 25.3092 2.58712C25.3124 2.56479 25.3188 2.54247 25.3236 2.52014C25.3268 2.51217 25.33 2.5026 25.3348 2.49303C25.3395 2.48505 25.3443 2.47549 25.3491 2.46592C25.3603 2.45156 25.3714 2.43721 25.3842 2.42286C25.3794 2.42605 25.3746 2.42924 25.3698 2.43402C25.3746 2.42924 25.3794 2.42605 25.3842 2.42126C25.3858 2.42126 25.3858 2.41967 25.3858 2.41967C25.3954 2.4085 25.4097 2.40053 25.4097 2.40053C25.4113 2.39893 25.4113 2.39893 25.4129 2.39734C25.4145 2.39734 25.4161 2.39574 25.4177 2.39574C25.4416 2.38458 25.4671 2.37661 25.491 2.37023C25.5086 2.36704 25.5261 2.36385 25.5437 2.36385C25.5453 2.36385 25.5469 2.36385 25.5501 2.36385C25.5437 2.36385 25.5373 2.36225 25.5293 2.36066C25.5389 2.36225 25.5485 2.36385 25.5596 2.36385C25.5644 2.36544 25.5692 2.36544 25.5724 2.36544C25.5756 2.36704 25.5772 2.36704 25.5788 2.36704C25.5947 2.36863 25.6091 2.37342 25.625 2.37661C25.6075 2.37182 25.6314 2.37501 25.6473 2.38139ZM25.4033 2.40691C25.3969 2.41169 25.3906 2.41648 25.3842 2.42126V2.42286C25.4049 2.40691 25.4113 2.40053 25.4097 2.40053C25.4081 2.40212 25.4065 2.40531 25.4033 2.40691ZM25.818 2.49781C25.8164 2.49622 25.8132 2.49143 25.81 2.48665C25.8148 2.49462 25.818 2.49781 25.8196 2.49941C25.8196 2.49941 25.8196 2.49781 25.818 2.49781ZM28.9199 8.98071C28.2485 8.89778 27.6281 8.62507 27.1178 8.18011C26.8977 7.98714 26.617 8.2471 26.6856 8.47196C26.6856 8.48472 26.684 8.49589 26.6856 8.51024C26.7669 9.16092 26.5356 9.79406 26.0652 10.2486C25.9009 10.4097 26.0716 10.7318 26.2948 10.6967C26.9758 10.5883 27.6616 10.7844 28.1783 11.2437C28.325 11.3745 28.5977 11.2884 28.6217 11.0843C28.6918 10.4862 28.8561 9.91048 29.116 9.36506C29.1878 9.21515 29.0953 9.00144 28.9199 8.98071ZM30.9995 20.2991C29.8768 20.4426 28.7588 20.1555 27.7828 19.5989C27.3027 19.3246 26.8466 18.9849 26.4782 18.5703C26.0747 18.1174 25.751 17.5959 25.4687 17.06C25.1498 16.4604 24.8866 15.8336 24.6123 15.2148C24.4704 14.8943 23.9552 15.0761 24.0988 15.3982C24.2599 15.7602 24.4177 16.1302 24.5852 16.4954C24.5421 16.5736 24.5358 16.6725 24.5995 16.7698C24.8308 17.1158 24.9042 17.5783 24.9329 18.0025C24.9695 18.5448 24.9249 19.0886 24.8308 19.6229C24.7447 20.1125 24.6203 20.6037 24.413 21.0566C24.1658 21.5972 23.7623 22.0645 23.3396 22.476C22.7878 23.0134 22.1547 23.4616 21.5248 23.9001C21.2808 24.0708 21.4881 24.5157 21.7735 24.3802C22.8676 23.8651 24.1402 23.3276 25.2582 24.0883C25.7303 24.4105 26.0987 24.857 26.4144 25.3307C26.8004 25.9128 27.1225 26.5395 27.4048 27.1775C27.7493 27.9605 28.0252 28.7707 28.2309 29.6C28.2692 29.7435 28.4494 29.8121 28.5802 29.7658C28.7301 29.7116 28.7811 29.5601 28.7445 29.4166C28.1033 26.9717 27.9885 24.1314 29.6599 22.0549C30.0777 21.535 30.5865 21.1076 31.1765 20.795C31.4174 20.6675 31.2531 20.2672 30.9995 20.2991ZM28.3872 23.1123C27.896 24.2159 27.7222 25.4264 27.7605 26.6289C27.5085 26.093 27.223 25.5731 26.9025 25.0803C26.2119 24.0213 25.2104 23.1011 23.8691 23.1538C23.6921 23.1617 23.5167 23.1857 23.3428 23.2192C23.9521 22.7008 24.4975 22.1124 24.8515 21.4043C25.3379 20.4362 25.5198 19.2465 25.4847 18.1684C25.6314 18.3869 25.7877 18.599 25.9599 18.8015C26.7446 19.7249 27.8498 20.3788 29.014 20.6946C29.3601 20.7887 29.7157 20.8477 30.0729 20.8716C29.3393 21.4633 28.77 22.2527 28.3872 23.1123ZM18.8646 32.41C18.8008 32.3734 18.7227 32.3622 18.6477 32.3909C18.2299 32.5536 17.9444 32.973 17.962 33.4227C17.9795 33.8773 18.3128 34.2632 18.7386 34.3876C19.1198 34.4992 19.5376 34.3286 19.78 34.0272C20.0448 33.7018 20.0846 33.268 19.8693 32.906C19.6668 32.5647 19.2553 32.3702 18.8646 32.41ZM19.4276 33.225C19.4244 33.2202 19.4212 33.2138 19.418 33.2058C19.4196 33.2074 19.4244 33.217 19.4276 33.225ZM18.9475 33.8773C18.9507 33.8773 18.9619 33.8789 18.9794 33.8789C18.9778 33.882 18.9635 33.8805 18.9475 33.8773ZM7.20337 10.4049C7.20337 10.4049 7.20337 10.4049 7.20497 10.4049C7.20975 10.4001 7.21932 10.3953 7.2273 10.3921C7.22251 10.3921 7.21135 10.3953 7.20337 10.4049ZM7.57178 10.8195C7.88436 10.6058 8.07574 10.1944 7.93858 9.82436C7.86203 9.61863 7.69777 9.4448 7.49841 9.35389C7.39156 9.30605 7.28312 9.28372 7.16669 9.28213C7.10609 9.28053 7.04868 9.2901 6.99445 9.30764C6.64519 9.23428 6.28158 9.47031 6.14283 9.78609C5.98016 10.1529 6.12528 10.5835 6.45381 10.8052C6.7967 11.0348 7.2273 11.0556 7.57178 10.8195ZM6.64838 10.231C6.65317 10.2422 6.65476 10.2502 6.64838 10.231V10.231ZM6.63562 10.2087C6.63722 10.2087 6.63881 10.2103 6.64041 10.2135C6.63722 10.2103 6.63722 10.2087 6.63562 10.2087ZM7.00083 10.4495C7.00881 10.4495 7.01678 10.4495 7.01678 10.4495C7.01519 10.4511 7.00881 10.4495 7.00083 10.4495ZM7.38997 10.2406C7.38997 10.2406 7.38997 10.2422 7.38837 10.2422C7.39794 10.2294 7.4107 10.2151 7.38997 10.2406ZM7.3804 10.2566C7.3804 10.2566 7.3804 10.255 7.38199 10.2518C7.38199 10.2534 7.3804 10.2566 7.3804 10.2566ZM7.441 10.0524C7.441 10.0572 7.4426 10.0588 7.441 10.0524V10.0524ZM6.87963 9.83872C6.88122 9.83872 6.88282 9.83872 6.88282 9.83872C6.87325 9.84191 6.86368 9.84191 6.8589 9.84031C6.86687 9.84031 6.87325 9.83872 6.87963 9.83872ZM6.62127 10.1577C6.62127 10.1561 6.62127 10.1545 6.62127 10.1545C6.61808 10.1465 6.61649 10.1401 6.61649 10.1401C6.61808 10.1401 6.61968 10.1417 6.62127 10.1465C6.61968 10.1274 6.61968 10.105 6.61649 10.0875C6.61808 10.0859 6.61808 10.0843 6.61808 10.0827C6.61967 10.0716 6.62286 10.0604 6.62446 10.0492C6.63243 10.0365 6.64041 10.0094 6.64519 9.9982C6.64998 9.98863 6.65476 9.98065 6.65795 9.97268C6.67709 9.95035 6.69463 9.92803 6.71536 9.9057C6.72812 9.89772 6.74088 9.88656 6.75364 9.87699C6.76161 9.87061 6.76959 9.86583 6.77756 9.86104C6.79191 9.85626 6.80786 9.85147 6.82222 9.84669C6.81265 9.84828 6.82062 9.84031 6.83976 9.84031H6.84135C6.84295 9.83872 6.84454 9.83872 6.84614 9.83872C6.84614 9.83872 6.84454 9.83872 6.84295 9.84031C6.84614 9.84031 6.84773 9.84031 6.84933 9.84031C6.93704 9.88656 7.03751 9.87699 7.13639 9.82596C7.05984 9.86583 7.13001 9.84031 7.15713 9.82755H7.15872C7.16669 9.82755 7.17467 9.82596 7.18264 9.82596C7.19381 9.82915 7.20816 9.83074 7.21932 9.83234C7.21932 9.83234 7.23368 9.83553 7.24325 9.83872C7.25122 9.84191 7.2576 9.8451 7.26557 9.84828C7.27514 9.85307 7.2863 9.85785 7.29587 9.86264C7.30544 9.86742 7.3501 9.88178 7.31023 9.87061C7.27514 9.85945 7.31182 9.87221 7.32299 9.88178C7.33255 9.88815 7.34212 9.89613 7.3501 9.90251C7.35169 9.9041 7.35807 9.91208 7.36445 9.91846C7.36286 9.91367 7.36445 9.91208 7.37402 9.92484C7.37561 9.92803 7.37721 9.92962 7.3788 9.93281C7.38359 9.936 7.38678 9.93919 7.38678 9.93919C7.38518 9.93919 7.38359 9.93759 7.38359 9.93759C7.38997 9.94716 7.39794 9.95673 7.40432 9.9663C7.40592 9.9679 7.40592 9.96949 7.40751 9.97108C7.41229 9.99022 7.42505 10.0141 7.43143 10.0317C7.43303 10.046 7.43781 10.0652 7.43781 10.07C7.43781 10.0716 7.43781 10.0747 7.43781 10.0779C7.43941 10.0716 7.441 10.0716 7.43781 10.0971C7.43941 10.1003 7.43941 10.1035 7.43941 10.105C7.43781 10.1035 7.43781 10.1035 7.43781 10.1019C7.43622 10.1162 7.41867 10.1609 7.42027 10.1784C7.42027 10.1784 7.41867 10.18 7.41867 10.1816C7.41389 10.1912 7.40911 10.2023 7.40432 10.2119C7.40273 10.2151 7.38997 10.2374 7.38359 10.2486C7.36923 10.2693 7.35329 10.2885 7.33734 10.3076C7.32936 10.314 7.32299 10.3219 7.31661 10.3283C7.31182 10.3331 7.30544 10.3379 7.30066 10.3427C7.27993 10.3586 7.25919 10.373 7.23687 10.3873C7.23527 10.3889 7.23208 10.3905 7.2273 10.3921C7.23049 10.3921 7.23049 10.3937 7.21773 10.3985C7.21294 10.4017 7.20816 10.4033 7.20497 10.4049C7.20178 10.4065 7.20019 10.4081 7.20019 10.4097C7.20019 10.4081 7.20178 10.4065 7.20337 10.4049C7.18105 10.4144 7.16032 10.424 7.13799 10.4304C7.1332 10.432 7.12523 10.4336 7.11726 10.4352C7.12204 10.4368 7.11726 10.4384 7.09333 10.4416C7.09014 10.4431 7.08855 10.4447 7.08695 10.4447C7.08855 10.4447 7.09014 10.4431 7.09014 10.4431C7.06144 10.4463 7.03114 10.4463 7.00083 10.4479C6.99764 10.4479 6.99764 10.4479 6.99445 10.4479C6.9817 10.4463 6.96575 10.4416 6.96096 10.4416C6.9498 10.44 6.93704 10.4368 6.92588 10.4336C6.9195 10.432 6.91312 10.432 6.90674 10.4304C6.87963 10.4224 6.88282 10.424 6.9195 10.4352C6.89239 10.4336 6.8589 10.4113 6.83497 10.4001C6.81743 10.3921 6.80148 10.3825 6.78553 10.3746C6.77756 10.3698 6.77278 10.3682 6.77118 10.3682C6.75364 10.3538 6.7345 10.3331 6.72493 10.3251C6.71536 10.3172 6.70739 10.3076 6.69782 10.2996C6.69782 10.2996 6.69782 10.2996 6.69782 10.298C6.68985 10.29 6.65636 10.2374 6.6436 10.2167C6.63881 10.2055 6.63403 10.1944 6.62924 10.1832C6.62924 10.1816 6.62605 10.172 6.62286 10.1625C6.62446 10.1736 6.62286 10.18 6.62127 10.1577ZM7.09014 10.4431C7.09174 10.4416 7.09174 10.4416 7.09333 10.4416C7.09971 10.44 7.10769 10.4368 7.11726 10.4352C7.11247 10.4352 7.09812 10.4368 7.09014 10.4431ZM7.43781 10.1019C7.43781 10.1003 7.43781 10.0987 7.43781 10.0971C7.43781 10.0907 7.43781 10.0843 7.43781 10.0779C7.43622 10.0843 7.43462 10.0971 7.43781 10.1019ZM6.84295 9.84031C6.84295 9.84031 6.84295 9.84031 6.84135 9.84031C6.83497 9.84191 6.83019 9.84509 6.82222 9.84669C6.827 9.84669 6.83338 9.8435 6.84295 9.84031ZM7.38199 9.93759C7.38199 9.936 7.3804 9.9344 7.3788 9.93281C7.37561 9.92962 7.36924 9.92324 7.36445 9.91846C7.36764 9.92484 7.37402 9.9344 7.38199 9.93759ZM6.62127 10.1465C6.62127 10.1481 6.62127 10.1513 6.62127 10.1545C6.62127 10.1577 6.62286 10.1593 6.62286 10.1625C6.62286 10.1577 6.62127 10.1513 6.62127 10.1465ZM34.5719 26.4407C34.2418 26.5587 34.4252 27.0722 34.7553 26.9542C35.087 26.8362 34.9036 26.3211 34.5719 26.4407ZM11.6146 33.268C11.5684 33.2473 11.5237 33.225 11.4775 33.2043C11.4456 33.1867 11.4121 33.1787 11.377 33.1803C11.3403 33.1755 11.3036 33.1803 11.2701 33.1931C11.2335 33.2043 11.2032 33.225 11.1792 33.2505C11.1505 33.2728 11.1298 33.2999 11.1154 33.3334C11.1075 33.3558 11.1011 33.3781 11.0931 33.4004C11.0851 33.4483 11.0883 33.4961 11.1043 33.5424C11.1154 33.5647 11.1266 33.5854 11.1378 33.6077C11.1665 33.646 11.2016 33.6763 11.2446 33.697C11.2909 33.7194 11.3355 33.7401 11.3818 33.7624C11.4137 33.7784 11.4472 33.7864 11.4822 33.7848C11.5189 33.7911 11.5556 33.7864 11.5891 33.772C11.6258 33.7608 11.6561 33.7417 11.68 33.7146C11.7087 33.6923 11.7294 33.6652 11.7438 33.6317C11.7518 33.6093 11.7581 33.587 11.7661 33.5663C11.7741 33.5168 11.7709 33.469 11.755 33.4227C11.7438 33.402 11.7326 33.3797 11.7215 33.359C11.6928 33.3191 11.6577 33.2888 11.6146 33.268ZM3.73786 22.283C3.40773 22.401 3.59113 22.9146 3.92126 22.7965C4.25298 22.6785 4.06958 22.1634 3.73786 22.283ZM20.2696 6.74C20.5998 6.62199 20.4164 6.10686 20.0846 6.22647C19.7545 6.34449 19.9379 6.85802 20.2696 6.74ZM13.8553 0.531414C14.1854 0.413398 14.002 -0.101725 13.6703 0.0178856C13.3402 0.135901 13.5236 0.64943 13.8553 0.531414ZM34.8271 15.1239C34.4969 15.2419 34.6803 15.7555 35.0105 15.6374C35.3406 15.5194 35.1572 15.0043 34.8271 15.1239ZM0.683798 10.9025C0.353673 11.0205 0.537075 11.534 0.868795 11.416C1.19892 11.298 1.01552 10.7844 0.683798 10.9025ZM11.0229 23.3882C11.0022 23.3802 10.9799 23.3739 10.9576 23.3659C10.9097 23.3579 10.8619 23.3611 10.8156 23.377C10.7821 23.3898 10.7486 23.401 10.7151 23.4137C10.6785 23.4249 10.6482 23.444 10.6242 23.4711C10.5955 23.4935 10.5748 23.5206 10.5604 23.5541C10.5429 23.586 10.5349 23.6195 10.5365 23.6561C10.5317 23.6912 10.5365 23.7279 10.5493 23.763C10.5604 23.7837 10.5732 23.806 10.5844 23.8268C10.6115 23.8666 10.6466 23.897 10.6896 23.9177C10.712 23.9241 10.7343 23.932 10.7566 23.9384C10.8045 23.948 10.8523 23.9432 10.8985 23.9273C10.932 23.9161 10.9655 23.9033 10.999 23.8922C11.0341 23.881 11.0644 23.8603 11.0899 23.8348C11.1186 23.8124 11.1394 23.7853 11.1537 23.7518C11.1697 23.7183 11.1776 23.6848 11.1776 23.6498C11.1824 23.6131 11.1776 23.578 11.1633 23.5429C11.1521 23.5206 11.141 23.4998 11.1298 23.4775C11.1027 23.4392 11.0676 23.4089 11.0229 23.3882Z" fill="#FFD61E"/>
</svg>