<svg width="82" height="82" viewBox="0 0 82 82" fill="none" xmlns="http://www.w3.org/2000/svg">
<g clip-path="url(#clip0_4151_27242)">
<path d="M79.4434 44.3778H51.4583C50.2353 44.3778 49.2383 45.3748 49.2383 46.5976C49.2383 47.2204 49.503 47.7815 49.9157 48.1863L69.6215 67.892C70.0263 68.3282 70.611 68.6011 71.2498 68.6011C72.0207 68.6011 72.6981 68.2115 73.0954 67.6196C77.9403 61.9959 81.0558 54.8535 81.6169 46.9946C81.648 46.8623 81.6635 46.7299 81.6635 46.5973C81.6637 45.3748 80.6742 44.3778 79.4434 44.3778Z" fill="#178A86"/>
<path d="M43.0089 4.1514C41.7859 4.15888 40.7969 5.14837 40.7969 6.37117V37.4721C40.7969 38.7029 41.7859 39.6999 43.0089 39.6999H74.1178C75.3409 39.6999 76.3376 38.7029 76.3376 37.4721C75.2392 19.5736 60.9154 5.24982 43.0089 4.1514Z" fill="#178A86"/>
<path d="M60.1038 66.0816L37.1579 43.1357C36.7686 42.7384 36.535 42.1853 36.535 41.5856L36.5268 9.17588C36.5268 7.95309 35.5378 6.96384 34.3147 6.96384C15.676 8.10114 0.916016 23.5852 0.916016 42.5048C0.916016 62.1717 16.8602 78.1233 36.5268 78.1233C45.4996 78.1233 53.6935 74.8054 59.9558 69.3295C60.4388 68.9242 60.7426 68.3171 60.7426 67.6394C60.7426 67.0394 60.5008 66.4864 60.1038 66.0816Z" fill="#178A86"/>
</g>
<defs>
<clipPath id="clip0_4151_27242">
<rect width="80.7477" height="80.7477" fill="white" transform="translate(0.916016 0.760773)"/>
</clipPath>
</defs>
</svg>
