<svg width="32" height="32" viewBox="0 0 32 32" fill="none" xmlns="http://www.w3.org/2000/svg">
<path d="M16.0003 14.6667C15.6467 14.6667 15.3076 14.8072 15.0575 15.0572C14.8075 15.3073 14.667 15.6464 14.667 16V21.3334C14.667 21.687 14.8075 22.0261 15.0575 22.2762C15.3076 22.5262 15.6467 22.6667 16.0003 22.6667C16.354 22.6667 16.6931 22.5262 16.9431 22.2762C17.1932 22.0261 17.3337 21.687 17.3337 21.3334V16C17.3337 15.6464 17.1932 15.3073 16.9431 15.0572C16.6931 14.8072 16.354 14.6667 16.0003 14.6667ZM16.507 9.44002C16.1824 9.30666 15.8183 9.30666 15.4937 9.44002C15.33 9.50348 15.1805 9.59863 15.0537 9.72002C14.9359 9.84962 14.8412 9.99844 14.7737 10.16C14.699 10.3183 14.6625 10.4918 14.667 10.6667C14.666 10.8422 14.6996 11.0161 14.766 11.1786C14.8323 11.341 14.9301 11.4888 15.0537 11.6134C15.1833 11.7311 15.3321 11.8258 15.4937 11.8934C15.6957 11.9763 15.915 12.0084 16.1323 11.9868C16.3496 11.9652 16.5582 11.8906 16.7399 11.7694C16.9217 11.6483 17.0708 11.4844 17.1743 11.2921C17.2779 11.0998 17.3326 10.8851 17.3337 10.6667C17.3288 10.3137 17.1906 9.97553 16.947 9.72002C16.8202 9.59863 16.6707 9.50348 16.507 9.44002ZM16.0003 2.66669C13.3632 2.66669 10.7854 3.44867 8.59273 4.91376C6.40007 6.37884 4.69111 8.46123 3.68194 10.8976C2.67277 13.3339 2.40872 16.0148 2.92319 18.6012C3.43766 21.1876 4.70754 23.5634 6.57224 25.4281C8.43694 27.2928 10.8127 28.5627 13.3991 29.0772C15.9855 29.5916 18.6664 29.3276 21.1028 28.3184C23.5391 27.3092 25.6215 25.6003 27.0866 23.4076C28.5517 21.215 29.3337 18.6371 29.3337 16C29.3337 14.2491 28.9888 12.5152 28.3187 10.8976C27.6487 9.2799 26.6665 7.81004 25.4284 6.57193C24.1903 5.33382 22.7205 4.35169 21.1028 3.68163C19.4851 3.01156 17.7513 2.66669 16.0003 2.66669ZM16.0003 26.6667C13.8907 26.6667 11.8284 26.0411 10.0742 24.869C8.32012 23.697 6.95295 22.0311 6.14562 20.082C5.33828 18.1329 5.12705 15.9882 5.53862 13.9191C5.9502 11.8499 6.9661 9.94931 8.45786 8.45755C9.94962 6.96579 11.8502 5.94989 13.9194 5.53831C15.9885 5.12674 18.1332 5.33797 20.0823 6.14531C22.0314 6.95264 23.6973 8.31981 24.8693 10.0739C26.0414 11.8281 26.667 13.8904 26.667 16C26.667 18.829 25.5432 21.5421 23.5428 23.5425C21.5424 25.5429 18.8293 26.6667 16.0003 26.6667Z" fill="#F2C94C"/>
</svg>
