<svg width="110" height="110" viewBox="0 0 110 110" fill="none" xmlns="http://www.w3.org/2000/svg">
<g clip-path="url(#clip0_7544_936)">
<path d="M2.55553 110C1.93785 110 1.33696 109.756 0.891332 109.305C0.303869 108.711 0.0772769 107.848 0.297995 107.042L7.44909 80.9281C2.99697 72.8773 0.649633 63.77 0.65299 54.525C0.665579 24.4595 25.1326 0 55.1955 0C69.7772 0.00587464 83.4785 5.68581 93.7767 15.9916C104.073 26.2982 109.741 39.9987 109.737 54.5686C109.724 84.635 85.2568 109.096 55.1955 109.096C55.1955 109.096 55.1729 109.096 55.172 109.096C46.3911 109.093 37.6858 106.953 29.9346 102.899L3.14887 109.924C2.95249 109.975 2.75275 110 2.55553 110Z" fill="white"/>
<path d="M2.55554 107.659L9.96095 80.6168C5.39299 72.702 2.99027 63.7239 2.99362 54.5259C3.00537 25.7512 26.4217 2.34082 55.1957 2.34082C69.1589 2.34669 82.2652 7.78156 92.1212 17.6459C101.976 27.5102 107.402 40.6224 107.397 54.5679C107.384 83.3417 83.9646 106.755 55.1957 106.755C55.194 106.755 55.1965 106.755 55.1957 106.755H55.173C46.4366 106.752 37.8529 104.561 30.2285 100.402L2.55554 107.659ZM31.51 90.9553L33.0953 91.8944C39.7555 95.8471 47.3916 97.9377 55.1789 97.9419H55.1957C79.1088 97.9419 98.5724 78.4818 98.5824 54.5645C98.5866 42.9739 94.0783 32.0748 85.8865 23.8763C77.6939 15.6779 66.8015 11.1603 55.2116 11.1553C31.2792 11.1553 11.8165 30.6128 11.8073 54.5293C11.8039 62.7252 14.0967 70.7063 18.4406 77.6132L19.4728 79.2547L15.0887 95.2605L31.51 90.9553Z" fill="white"/>
<path d="M4.37073 105.837L11.5202 79.7295C7.10914 72.0891 4.79034 63.4207 4.79286 54.5424C4.80377 26.7638 27.4102 4.16406 55.1863 4.16406C68.6677 4.16994 81.3208 9.41682 90.8335 18.9396C100.349 28.4624 105.586 41.1205 105.581 54.5818C105.569 82.3613 82.9615 104.964 55.1888 104.964C55.1863 104.964 55.1896 104.964 55.1888 104.964H55.1661C46.7327 104.96 38.4453 102.844 31.0852 98.8321L4.37073 105.837Z" fill="#64B161"/>
<path d="M2.55554 107.659L9.96095 80.6168C5.39299 72.702 2.99027 63.7239 2.99362 54.5259C3.00537 25.7512 26.4217 2.34082 55.1957 2.34082C69.1589 2.34669 82.2652 7.78156 92.1212 17.6459C101.976 27.5102 107.402 40.6224 107.397 54.5679C107.384 83.3417 83.9646 106.755 55.1957 106.755C55.194 106.755 55.1965 106.755 55.1957 106.755H55.173C46.4366 106.752 37.8529 104.561 30.2285 100.402L2.55554 107.659ZM31.51 90.9553L33.0953 91.8944C39.7555 95.8471 47.3916 97.9377 55.1789 97.9419H55.1957C79.1088 97.9419 98.5724 78.4818 98.5824 54.5645C98.5866 42.9739 94.0783 32.0748 85.8865 23.8763C77.6939 15.6779 66.8015 11.1603 55.2116 11.1553C31.2792 11.1553 11.8165 30.6128 11.8073 54.5293C11.8039 62.7252 14.0967 70.7063 18.4406 77.6132L19.4728 79.2547L15.0887 95.2605L31.51 90.9553Z" fill="white"/>
<path fill-rule="evenodd" clip-rule="evenodd" d="M42.1488 32.7092C41.172 30.5373 40.1431 30.4936 39.2132 30.4559C38.4528 30.4231 37.5826 30.4248 36.714 30.4248C35.8445 30.4248 34.4312 30.7521 33.2362 32.0571C32.0403 33.3622 28.6699 36.5177 28.6699 42.9353C28.6699 49.3538 33.3444 55.555 33.9965 56.4261C34.6486 57.2964 43.0199 70.887 56.2773 76.1154C67.2956 80.461 69.5371 79.5966 71.9289 79.3792C74.3208 79.1619 79.6457 76.2237 80.7325 73.1781C81.8201 70.1325 81.8201 67.5225 81.4937 66.9761C81.1672 66.4332 80.2978 66.1067 78.9936 65.4546C77.6894 64.8025 71.2769 61.6461 70.081 61.2114C68.8851 60.7759 68.0156 60.5593 67.1462 61.8652C66.2759 63.1694 63.7783 66.1067 63.0171 66.9761C62.256 67.8481 61.4948 67.9572 60.1906 67.3043C58.8865 66.6505 54.6853 65.2742 49.7019 60.8304C45.8247 57.3736 43.2063 53.1035 42.4451 51.7977C41.6847 50.4935 42.4325 49.849 43.0183 49.1365C44.0732 47.8533 45.8431 45.5462 46.2778 44.6768C46.7126 43.8056 46.4952 43.0444 46.1696 42.3915C45.8431 41.7394 43.3078 35.289 42.1488 32.7092Z" fill="white"/>
</g>
<defs>
<clipPath id="clip0_7544_936">
<rect width="110" height="110" fill="white"/>
</clipPath>
</defs>
</svg>
