<svg width="46" height="32" viewBox="0 0 46 32" fill="none" xmlns="http://www.w3.org/2000/svg">
<path d="M45.0453 6.90475C45.0453 6.90475 44.6009 3.76784 43.2324 2.39045C41.4996 0.577618 39.5623 0.568731 38.6737 0.462094C32.311 -2.54243e-07 22.7581 0 22.7581 0H22.7403C22.7403 0 13.1874 -2.54243e-07 6.82477 0.462094C5.93613 0.568731 3.99889 0.577618 2.26604 2.39045C0.897529 3.76784 0.462094 6.90475 0.462094 6.90475C0.462094 6.90475 0 10.5926 0 14.2716V17.7195C0 21.3985 0.453207 25.0864 0.453207 25.0864C0.453207 25.0864 0.897528 28.2233 2.25715 29.6007C3.99 31.4135 6.26493 31.3513 7.27798 31.5468C10.9214 31.8934 22.7492 32 22.7492 32C22.7492 32 32.311 31.9822 38.6737 31.529C39.5623 31.4224 41.4996 31.4135 43.2324 29.6007C44.6009 28.2233 45.0453 25.0864 45.0453 25.0864C45.0453 25.0864 45.4985 21.4074 45.4985 17.7195V14.2716C45.4985 10.5926 45.0453 6.90475 45.0453 6.90475ZM18.0483 21.905V9.11747L30.3382 15.5335L18.0483 21.905Z" fill="#178A86"/>
</svg>
