<svg width="349" height="335" viewBox="0 0 349 335" fill="none" xmlns="http://www.w3.org/2000/svg">
<g opacity="0.25">
<path d="M135.962 50.566C120.394 51.6306 104.272 58.865 90.1112 67.3404C75.7447 75.9413 63.0673 88.3395 53.131 101.382C41.6037 116.524 36.2728 131.83 37.4956 148.306C38.6759 164.185 49.6313 185.621 64.7163 192.571C82.4601 200.744 98.749 192.744 108.345 178.027C117.95 163.293 118.511 139.89 99.7433 134.223C84.0214 129.476 65.5688 136.082 60.7251 155.497C54.8451 144.893 62.6592 128.226 71.4534 117.776C76.5212 111.759 83.0406 106.404 90.1717 102.928C97.7749 99.2232 105.191 99.2743 112.132 101.27C125.943 105.241 135.454 116.549 136.255 130.775C137.041 144.756 134.121 155.204 131.613 169.336C128.765 185.373 129.598 202.296 132.102 217.37C134.59 232.361 139.719 240.923 146.885 248.468C154.487 256.473 165.919 260.902 178.098 256.646C190.277 252.391 206.048 240.058 212.988 228.597C219.928 217.141 218.173 207.186 212.222 197.928C204.389 185.754 194.401 184.069 177.399 179.302C159.737 174.355 165.655 135.384 167.624 116.084C169.31 99.5363 176.105 85.5278 170.136 70.7739C164.663 57.2503 152.775 49.4132 135.969 50.5607L135.962 50.566Z" fill="#76CCC6"/>
<path d="M254.791 306.524C268.564 289.63 266.666 266.179 250.552 254.145C234.438 242.111 210.211 246.052 196.438 262.946C182.665 279.841 184.563 303.292 200.677 315.326C216.791 327.359 241.018 323.419 254.791 306.524Z" fill="#A1DCD8"/>
</g>
<path d="M322.81 74.0206C320.989 71.9154 318.361 71.508 315.773 70.792C313.342 70.1188 308.461 68.884 308.461 68.884L308.851 68.2794C308.851 68.2794 317.11 69.63 319.909 69.1798C321.91 68.8583 322.879 66.8988 321.653 65.2438C320.427 63.5888 316.574 63.0142 312.541 62.5426C309.194 62.1481 300.356 61.6551 296.04 61.2906C296.147 61.222 296.25 61.1448 296.357 61.0805C299.083 59.3655 302.704 58.6451 304.929 56.2869C305.722 55.4294 305.85 53.9416 304.929 53.127C301.663 50.2285 297.133 51.6649 293.357 52.7582C289.178 53.9673 284.712 55.6181 281.077 58.062C277.442 60.506 275.809 64.6907 274.451 68.7425C273.242 72.3313 272.634 76.1858 273.568 79.8517C275.561 90.8452 277.58 101.993 278.664 113.111C278.925 115.57 279.034 118.043 278.99 120.516C278.943 122.402 279.225 125.253 276.667 124.975C274.237 124.709 271.669 123.616 269.346 122.882C267.152 122.188 264.974 121.459 262.801 120.713C253.681 117.591 244.628 114.187 235.212 112.043C225.564 109.844 215.655 109.128 205.793 108.665C202.017 108.489 182.001 108.236 173.647 108.236C165.294 108.236 147.134 108.485 143.216 108.665C133.358 109.128 123.445 109.844 113.797 112.043C104.368 114.187 95.3283 117.591 86.2119 120.713C84.0346 121.459 81.8572 122.188 79.6628 122.882C77.3397 123.616 74.7724 124.709 72.3422 124.975C69.7706 125.253 70.0663 122.402 70.0192 120.516C69.9754 118.043 70.0842 115.57 70.3449 113.111C71.4421 101.963 73.4609 90.8581 75.4539 79.8475C76.3882 76.1858 75.7796 72.3313 74.571 68.7425C73.2123 64.695 71.5707 60.5274 67.9233 58.062C64.2759 55.5966 59.8227 53.9673 55.6438 52.7582C51.8806 51.6649 47.3503 50.2285 44.0714 53.127C43.1499 53.9416 43.2785 55.4509 44.0714 56.2869C46.3045 58.6451 49.9262 59.3698 52.6435 61.0805C52.7507 61.1448 52.8536 61.222 52.9607 61.2906C48.6447 61.6551 39.8068 62.1481 36.4594 62.5426C32.4262 63.0142 28.5731 63.5931 27.3473 65.2438C26.1215 66.8945 27.0901 68.8583 29.0917 69.1798C31.8905 69.6086 40.1497 68.2794 40.1497 68.2794L40.5397 68.884C40.5397 68.884 35.6579 70.1188 33.2277 70.792C30.6561 71.508 28.0116 71.9154 26.19 74.0206C24.9985 75.4012 26.3143 77.3049 27.8273 77.5321C30.8918 77.9952 33.8278 77.0476 36.7637 76.3016L43.8743 74.7452L44.3029 75.6799C44.3029 75.6799 38.1224 78.0467 36.6866 78.8141C35.2508 79.5816 35.3236 82.3043 36.9352 82.9474C38.5467 83.5906 43.93 82.3043 46.0516 82.0899C47.3374 81.9655 48.7089 81.7469 50.0548 81.5754C49.8919 82.3257 49.759 83.0803 49.6562 83.8478C47.0117 92.989 44.7443 102.422 44.7658 111.936C44.7658 122.149 44.3629 133.679 49.7633 142.773C61.1642 161.968 88.0334 154.011 104.145 148.205C110.895 145.774 117.761 143.223 124.786 141.774C124.752 141.932 124.499 160.956 124.358 169.429C124.165 182.841 124.461 196.338 124.182 209.733C124.032 216.82 123.582 223.882 123.453 230.982C123.325 237.842 123.32 244.702 123.239 251.563C123.076 265.617 122.035 335.922 121.983 335.947C119.034 337.495 111.56 341.993 111.56 344.39C111.56 346.787 112.747 347.94 116.703 347.94C120.659 347.94 149.967 348 154.399 348C158.83 348 160.356 344.214 160.356 339.918C160.356 335.622 161.899 175.474 161.899 175.474L187.577 174.797C187.577 174.797 187.834 214.08 188.653 233.906C189.626 257.407 189.081 280.933 189.056 304.446C189.056 310.972 188.991 339.605 188.991 342.743C188.991 345.882 189.964 348 193.44 348H231.325C235.293 348 235.915 343.751 233.969 342.07C232.023 340.389 227 337.015 227 337.015C227 337.015 226.7 312.597 226.82 306.573C227.106 292.93 227.206 279.285 227.12 265.639C227.026 238.292 226.447 210.946 226.044 183.599C225.851 170.556 224.934 142.631 224.844 141.889C231.65 143.364 238.302 145.834 244.856 148.192C260.963 153.998 287.832 161.956 299.233 142.76C304.633 133.666 304.209 122.136 304.23 111.923C304.23 102.405 302.044 92.9805 299.417 83.8307C299.318 83.076 299.194 82.33 299.031 81.5882C300.347 81.7555 301.659 81.9655 302.936 82.0899C305.057 82.2914 310.441 83.5777 312.052 82.9474C313.664 82.3171 313.737 79.5816 312.301 78.8141C310.865 78.0467 304.685 75.6799 304.685 75.6799L305.113 74.7452L312.224 76.3016C315.168 77.0476 318.096 77.9952 321.16 77.5321C322.686 77.3049 324.002 75.4098 322.81 74.0206Z" fill="#5B717F"/>
<path d="M164.164 87.4838C165.094 91.9129 167.1 95.1758 170.743 96.9166C172.208 97.6186 173.844 97.8833 175.456 97.6787C177.067 97.4741 178.586 96.8091 179.829 95.7632C181.972 93.8809 183.627 91.5699 184.227 88.6329C184.987 84.578 185.213 80.441 184.9 76.3274C184.471 72.267 182.272 67.9151 180.378 66.0714C178.483 64.2277 175.582 63.6703 172.376 64.5107C169.17 65.3511 167.661 66.603 166.242 69.2271C165.463 70.732 164.873 72.3277 164.485 73.9778C160.833 74.7667 156.642 76.1216 156.479 80.2934C156.316 84.4653 160.323 86.9092 164.164 87.4838Z" fill="#5B717F"/>
<path d="M177.515 72.7861C178.745 76.6139 179.361 80.6123 179.341 84.6328C177.61 84.9043 175.859 85.0263 174.108 84.9973" fill="#5B717F"/>
<path fill-rule="evenodd" clip-rule="evenodd" d="M177.41 72.4596C177.59 72.4017 177.784 72.5009 177.841 72.6813C179.082 76.5435 179.704 80.5778 179.684 84.6346C179.683 84.8028 179.56 84.9456 179.394 84.9716C177.644 85.2462 175.873 85.3695 174.102 85.3402C173.913 85.337 173.762 85.181 173.765 84.9916C173.768 84.8023 173.924 84.6513 174.113 84.6544C175.748 84.6814 177.381 84.5756 178.998 84.338C178.987 80.4525 178.377 76.5914 177.188 72.891C177.131 72.7107 177.23 72.5176 177.41 72.4596Z" fill="white"/>
<path d="M233.389 51.9776L222.544 49.0229C222.062 48.8917 221.596 48.9385 221.148 49.1608C220.698 49.3839 220.415 49.7093 220.299 50.138L217.672 59.7809C217.555 60.2095 217.634 60.6341 217.907 61.0536C218.182 61.4728 218.559 61.749 219.041 61.8803L229.887 64.835C230.368 64.9662 230.835 64.9205 231.283 64.6975C231.732 64.4751 232.016 64.1492 232.132 63.7206L234.759 54.0776C234.876 53.649 234.798 53.2252 234.523 52.8047C234.25 52.3849 233.871 52.1088 233.389 51.9776Z" fill="#FFB800"/>
<path d="M256.907 21.7845C256.292 19.1723 255.218 16.8179 253.687 14.7174C252.156 12.6178 250.296 10.7675 248.111 9.16933C245.925 7.5714 243.627 6.44356 241.217 5.78689C232.059 3.29216 223.978 5.39498 216.974 12.0955C216.627 12.4213 216.429 12.8203 216.381 13.2928C216.333 13.7649 216.464 14.2052 216.774 14.613L222.646 22.281C222.972 22.6282 223.316 22.8513 223.677 22.9498C224.22 23.0976 224.752 22.9833 225.276 22.6082C228.183 20.488 230.267 19.195 231.527 18.7287C233.06 18.2082 234.805 18.2147 236.764 18.7482C238.601 19.2488 240.089 20.1719 241.228 21.5169C242.366 22.8627 242.762 24.1681 242.417 25.4334C242.031 26.8487 241.343 27.8916 240.352 28.56C239.361 29.2283 237.866 29.7266 235.866 30.056C233.23 30.4703 230.63 31.5178 228.069 33.1989C225.507 34.8797 223.886 36.9705 223.205 39.4708L222.651 41.5042C222.495 42.0771 222.498 42.6846 222.663 43.3282C222.828 43.9722 223.136 44.3551 223.588 44.4783L234.433 47.4328C234.915 47.5641 235.4 47.4459 235.89 47.076C236.377 46.7086 236.692 46.2683 236.832 45.757C237.037 45.004 237.726 44.1066 238.899 43.0675C240.072 42.0279 241.37 41.3289 242.795 40.9725C244.15 40.6299 245.214 40.3459 245.988 40.1195C246.763 39.8942 247.807 39.4733 249.123 38.8616C250.439 38.2488 251.512 37.5782 252.34 36.8497C253.17 36.1212 254.012 35.1124 254.865 33.8233C255.718 32.535 256.366 31.0769 256.809 29.4503C257.49 26.9498 257.522 24.3941 256.907 21.7845Z" fill="#FFB800"/>
</svg>
