<svg width="317" height="336" viewBox="0 0 317 336" fill="none" xmlns="http://www.w3.org/2000/svg">
<path d="M232.637 131.667C230.939 131.336 229.97 132.852 229.309 134.337C228.678 135.748 228.064 137.17 227.45 138.591C227.146 138.52 226.612 138.277 226.312 138.216C226.835 135.953 227.729 133.203 228.436 131.107C229.14 129.01 230.265 126.65 227.816 126.125C225.863 125.707 224.393 129.227 223.508 130.964C222.76 132.435 221.632 134.708 220.884 136.179C220.744 136.453 220.598 136.723 220.458 136.997C220.219 136.96 219.764 136.815 219.525 136.788C219.643 136.174 221.187 131.283 221.436 130.141C221.686 128.999 222.2 128.057 221.677 126.96C221.108 125.771 219.48 125.666 218.797 126.713C216.273 130.592 214.846 134.601 213.137 138.99C212.51 137.441 211.849 135.908 211.15 134.39C210.365 132.684 207.918 133.523 208.224 135.441C208.806 139.085 209.391 142.73 209.973 146.374C210.224 147.935 210.449 149.493 210.833 150.987C209.273 161.611 208.359 172.337 208.094 183.094C205.005 178.799 201.817 174.592 198.526 170.48C194.701 165.707 190.788 159.824 185.391 157.124C180.145 154.499 170.083 155.564 162.875 157.277C139.835 162.741 121.176 178.564 104.009 195.477C103.223 188.604 103.94 175.55 104.537 168.578C104.891 164.435 106.734 150.208 106.365 146.606C105.996 143.003 105.301 139.439 103.911 135.595C102.522 131.751 100.52 126.796 98.3934 123.867C97.4154 122.524 94.6698 123.229 95.2558 125.709C95.8419 128.192 97.0485 130.234 98.0344 133.394L96.9402 134.011C95.6206 130.375 94.6442 127.994 93.3194 125.878C92.568 124.682 90.6624 122.513 89.0157 124.121C87.6669 125.438 88.9315 128.028 89.7224 129.415C91.0018 131.656 92.5745 136.132 92.5745 136.132C92.3251 136.291 91.2266 136.785 91.2266 136.785C90.3111 134.344 89.1411 131.815 88.2458 130.371C87.3119 128.863 86.0736 126.961 84.1344 127.935C83.4803 128.262 83.2164 129.075 83.3104 129.808C83.5752 131.883 84.6777 133.29 85.4253 135.063C86.1729 136.836 87.7129 141.226 88.0375 143.012L86.9423 142.32C86.5163 141.949 86.0776 141.593 85.6321 141.233C84.5304 140.345 83.5913 139.472 82.2304 140.231C81.4478 140.669 81.3877 141.84 81.7567 142.583C83.2218 145.528 85.3679 148.848 87.2366 151.498C87.2366 151.498 85.3811 162.671 83.8894 170.88C82.3978 179.089 81.2789 193.189 81.3102 198.666C81.3367 203.505 81.3073 208.549 82.2868 213.295C83.1319 217.386 84.8834 221.372 88.1208 223.792C91.3277 226.188 95.4249 226.72 99.1865 226.024C103.642 225.198 107.583 222.562 111.169 219.667C115.131 216.467 118.943 213.019 122.787 209.646C124.991 207.711 127.37 205.532 129.37 203.79C131.369 202.051 136.328 198.477 138.793 196.303C139.583 195.603 140.388 194.929 141.218 194.318C146.311 213.026 154.5 239.211 158.965 258.104C150.947 287.778 140.169 336.503 139.586 338.347C139.003 340.192 139.865 343.416 141.787 343.316C143.709 343.217 165.243 342.589 167.23 342.345C169.214 342.102 170.967 340.511 170.55 339.019C170.136 337.526 168.696 336.717 167.59 336.098C166.44 335.451 164.743 334.257 164.743 334.257C164.743 334.257 165.673 330.533 166.058 329.088C166.572 327.156 167.083 325.227 167.598 323.294C169.551 315.934 171.508 308.57 173.461 301.209C176.014 291.593 178.897 281.935 181.449 272.32C181.915 271.016 184.583 261.265 185.202 257.812C185.823 254.337 185.147 251.157 184.15 247.852C183.074 244.292 181.937 240.754 180.763 237.231C178.413 230.178 170.651 208.668 168.897 204.599C171.99 203.48 173.437 203.041 176.508 201.858C178.884 203.863 181.314 205.793 183.805 207.633C188.167 210.861 207.034 226.409 211.273 230.672C202.363 257.324 186.32 296.334 184.794 300.553C183.268 304.772 185.411 307.204 187.659 307.734C189.906 308.267 202.704 311.728 211.466 312.844C213.234 313.07 214.642 311.359 213.435 309.318C212.229 307.277 208.318 301.553 208.318 301.553C212.388 292.871 217.637 280.001 221.707 271.314C226.407 261.285 231.407 251.357 235.783 241.152C237.615 236.877 239.058 232.244 238.626 227.458C238.197 222.733 235.727 218.552 232.681 215.315C229.24 211.655 225.057 209.07 221.196 206.003C220.999 205.844 220.804 205.678 220.611 205.519C228.3 200.794 229.191 190.171 229.808 181.417C229.808 181.417 231.392 151.102 231.803 146.362C232.213 141.618 233.503 137.578 234.062 133.503C234.195 132.536 233.432 131.809 232.65 131.659L232.637 131.667Z" fill="#5B717F"/>
<path d="M143.154 153.522C144.191 155.091 145.709 156.015 147.851 157.25C149.994 158.484 152.877 158.549 156.205 155.934C160.412 152.63 159.04 147.463 156.929 143.34C157.805 142.687 158.681 142.034 159.556 141.382C159.966 141.077 160.052 140.555 159.696 140.234C156.406 137.293 152.518 135.074 148.182 133.669C148.075 133.633 147.97 133.626 147.872 133.633C147.312 133.4 146.736 133.218 146.144 133.095C140.707 131.959 137.53 136.833 138.047 141.733C138.198 143.175 138.568 144.736 139.115 146.298C138.154 146.812 137.086 147.258 136.367 148.126C134.973 149.803 135.135 152.423 136.658 153.993C138.578 155.972 141.04 154.949 143.161 153.518L143.154 153.522Z" fill="#5B717F"/>
<path fill-rule="evenodd" clip-rule="evenodd" d="M133.677 59.5971C134.295 60.1424 134.353 61.0849 133.808 61.7023C131.348 64.4882 129.291 67.641 127.278 70.9107C122.155 79.2359 117.572 87.8876 114.024 96.9421C113.724 97.7091 112.858 98.0871 112.091 97.7866C111.324 97.4861 110.946 96.6207 111.247 95.8538C114.877 86.5912 119.55 77.7782 124.738 69.3472C126.765 66.0539 128.933 62.7167 131.572 59.7279C132.117 59.1105 133.06 59.0519 133.677 59.5971ZM186.681 62.3012C187.234 61.6904 188.177 61.6431 188.788 62.1957C191.286 64.4554 193.399 67.0746 195.418 69.5767L195.486 69.6606L195.486 69.6611L199.968 75.2213C199.968 75.2214 199.968 75.2211 199.968 75.2213C202.034 77.783 204.143 80.4005 206.045 83.182L206.045 83.1825C208.263 86.4289 210.168 89.8631 211.867 93.3651L211.867 93.3655C213.495 96.7229 214.953 100.172 216.173 103.715C216.442 104.494 216.028 105.342 215.249 105.611C214.47 105.879 213.621 105.465 213.353 104.686C212.177 101.271 210.766 97.9325 209.183 94.6669C207.53 91.261 205.697 87.961 203.582 84.8652C201.758 82.1966 199.723 79.6693 197.646 77.0938L193.164 71.5336C191.098 68.9729 189.11 66.5089 186.787 64.4078C186.176 63.8552 186.129 62.9121 186.681 62.3012ZM167.988 116.573C168.016 117.396 167.371 118.086 166.548 118.113C150.148 118.662 135.147 122.574 125.717 126.014C124.943 126.296 124.087 125.898 123.805 125.124C123.523 124.35 123.921 123.494 124.695 123.212C134.354 119.688 149.669 115.694 166.448 115.132C167.271 115.105 167.961 115.75 167.988 116.573Z" fill="#B58300"/>
<path d="M116.25 123.762C113.76 123.633 110.14 124.847 108.519 127.529C106.809 130.361 109.392 133.625 112.4 133.917C114.97 134.168 118.763 132.218 119.575 129.637C120.143 127.832 118.74 123.892 116.25 123.759L116.25 123.762Z" fill="#FFB800"/>
<path d="M147.992 47.9368C147.168 46.3562 145.293 45.4782 143.549 45.7999C143.289 45.8457 143.071 45.9263 142.871 46.0171C140.452 46.4253 138.091 48.5474 137.396 50.7389C136.212 54.4649 139.468 57.977 143.245 56.6881C146.291 55.6474 149.663 51.1516 147.988 47.937L147.992 47.9368Z" fill="#FFB800"/>
<path d="M216.279 109.42C214.591 110.469 213.65 112.416 213.657 114.375C213.66 114.853 213.727 115.384 213.865 115.898C213.855 116.203 213.869 116.507 213.921 116.814C214.244 118.71 215.957 120.008 217.718 120.542C221.762 121.768 224.583 117.191 224.297 113.661C223.977 109.685 219.795 107.245 216.28 109.427L216.279 109.42Z" fill="#FFB800"/>
<path fill-rule="evenodd" clip-rule="evenodd" d="M185.671 175.072C185.943 174.763 186.414 174.733 186.723 175.005C197.16 184.18 210.084 195.067 220.837 203.796C221.157 204.056 221.206 204.525 220.946 204.845C220.687 205.165 220.217 205.214 219.898 204.954C209.13 196.214 196.191 185.315 185.738 176.125C185.429 175.853 185.399 175.382 185.671 175.072Z" fill="white"/>
<path d="M231.982 339.369C230.91 339.056 227.368 338.296 226.396 338.012C225.424 337.728 224.07 337.381 222.96 336.486C221.85 335.592 220.77 333.642 219.768 331.78C218.871 330.114 218.618 328.023 216.982 326.896C215.818 326.093 214.367 325.842 213.011 326.122C212.59 325.204 211.966 323.756 211.518 322.845C211.013 321.819 210.124 321.488 208.936 321.899C207.64 322.35 208.039 323.824 208.415 324.793C208.814 325.821 209.668 327.842 209.668 327.842C208.213 328.828 207.591 330.321 207.34 332.008C207.084 333.726 207.068 335.677 205.495 336.77C204.688 337.331 203.73 337.648 202.801 337.939C201.691 338.284 200.552 338.547 199.404 338.721C198.318 338.885 197.222 338.979 196.123 339.007C195.184 339.033 194.236 339.017 193.321 339.247C192.509 339.451 191.629 339.899 191.232 340.676C190.889 341.35 191.089 342.134 191.706 342.561C192.419 343.056 193.342 343.636 194.168 343.624C195.304 343.607 223.929 343.518 227.267 343.448C228.375 343.424 230.954 343.385 232.029 343.096C232.733 342.906 233.43 342.453 233.496 341.664C233.576 340.725 232.797 339.613 231.982 339.376V339.369Z" fill="#FFB800"/>
<path fill-rule="evenodd" clip-rule="evenodd" d="M231.05 309.989C231.441 310.594 231.268 311.401 230.662 311.792C230.491 311.903 230.344 312.055 230.241 312.228C229.871 312.846 229.069 313.047 228.451 312.677C227.833 312.307 227.632 311.506 228.002 310.888C228.312 310.37 228.742 309.927 229.247 309.6C229.852 309.21 230.659 309.383 231.05 309.989ZM237.188 314.501C237.538 315.131 237.311 315.925 236.681 316.275C236.151 316.57 235.651 316.923 235.196 317.326C234.656 317.803 233.832 317.752 233.355 317.212C232.877 316.672 232.928 315.848 233.468 315.371C234.064 314.844 234.719 314.381 235.414 313.994C236.044 313.644 236.838 313.871 237.188 314.501ZM190.772 317.203C191.402 316.853 192.196 317.08 192.546 317.71C192.595 317.797 192.642 317.883 192.689 317.968C192.793 318.155 192.895 318.339 192.999 318.525C193.351 319.153 193.127 319.948 192.499 320.3C191.87 320.653 191.075 320.429 190.723 319.8C190.616 319.609 190.509 319.417 190.404 319.227C190.357 319.143 190.311 319.059 190.265 318.977C189.915 318.347 190.142 317.553 190.772 317.203ZM242.32 323.266C242.429 323.979 241.941 324.645 241.229 324.754C240.838 324.814 240.448 324.873 240.059 324.933C239.67 324.992 239.282 325.051 238.893 325.111C238.181 325.22 237.515 324.732 237.406 324.019C237.296 323.307 237.785 322.641 238.497 322.532C238.888 322.472 239.277 322.412 239.666 322.353C240.055 322.294 240.444 322.235 240.832 322.175C241.545 322.066 242.211 322.554 242.32 323.266ZM184.473 324.998C184.726 324.323 185.478 323.981 186.153 324.233C187.076 324.579 187.952 325.04 188.758 325.593C189.352 326.001 189.502 326.814 189.094 327.407C188.686 328.001 187.874 328.152 187.28 327.744C186.644 327.307 185.957 326.946 185.238 326.677C184.563 326.424 184.221 325.673 184.473 324.998ZM212.507 328.687C213.225 328.628 213.855 329.162 213.914 329.88C214.051 331.537 214.042 333.275 213.738 334.985C213.76 335.076 213.773 335.17 213.775 335.266C213.784 335.662 213.975 336.33 214.325 337.15C214.658 337.929 215.071 338.701 215.391 339.248C215.615 339.633 216.14 340.191 216.754 340.722C217.045 340.973 217.327 341.193 217.554 341.354C217.718 341.47 217.816 341.529 217.855 341.552C217.881 341.568 217.882 341.568 217.86 341.56C218.536 341.811 218.881 342.562 218.63 343.237C218.379 343.913 217.629 344.257 216.953 344.007C216.649 343.894 216.306 343.668 216.045 343.483C215.743 343.268 215.396 342.997 215.049 342.697C214.386 342.124 213.589 341.336 213.138 340.564C212.891 340.143 212.592 339.596 212.303 339C211.822 339.801 211.222 340.584 210.568 341.285C209.506 342.424 208.2 343.453 206.864 343.993C206.196 344.263 205.436 343.94 205.166 343.272C204.896 342.604 205.219 341.844 205.887 341.574C206.752 341.224 207.754 340.476 208.66 339.505C209.562 338.538 210.27 337.457 210.619 336.544C211.37 334.578 211.5 332.359 211.314 330.094C211.255 329.376 211.789 328.746 212.507 328.687Z" fill="#B58300"/>
</svg>
