<svg width="349" height="335" viewBox="0 0 349 335" fill="none" xmlns="http://www.w3.org/2000/svg">
<path opacity="0.25" d="M31.2612 80.038C41.3451 80.1399 55.045 90.6177 62.8094 95.6783C76.0879 104.337 89.1165 113.374 101.886 122.759C103.15 114.083 112.752 31.3947 114.234 23.0329C115.248 17.3286 116.803 11.0364 121.109 6.85083C132.332 -4.05757 147.171 12.8375 153.278 21.6299C160.519 32.0522 185.858 97.6091 189.294 106.869C189.419 107.105 189.544 107.341 189.669 107.573C196.78 94.4375 203.623 81.1585 210.165 67.7314C214.596 58.6379 218.897 49.4751 223.064 40.2566C226.546 32.5476 229.365 22.9912 236.861 18.162C243.663 13.7774 253.034 14.4673 259.765 18.6204C266.664 22.8754 271.067 30.3715 272.975 38.1037C275.308 47.5443 274.322 57.5175 273.961 67.1248C273.567 77.5424 273.178 87.96 272.785 98.373C272.076 117.24 271.368 136.113 270.655 154.98C273.84 150.966 277.581 147.396 281.757 144.368C288.675 139.358 297.823 135.057 306.546 137.298C310.755 138.377 314.19 141.312 315.699 145.414C317.551 150.452 316.227 156.054 315.398 161.161C313.486 172.958 311.185 184.691 308.509 196.34C306.088 206.892 303.342 217.37 300.305 227.76C308.653 221.657 320.417 216.143 328.788 224.685C336.955 233.015 333.173 247.067 330.89 257.003C325.228 281.677 314.889 305.359 300.694 326.315C296.763 332.116 292.536 337.719 288.045 343.099C286.887 344.488 285.711 345.858 284.512 347.215C282.957 348.974 281.697 349.405 279.368 349.567C279.072 349.59 278.771 349.59 278.47 349.604C277.604 350.225 276.632 350.715 275.516 351.007C270.66 352.276 265.854 349.303 265.294 344.312C265.173 343.252 265.803 342.201 266.71 341.525C266.507 340.761 266.613 339.89 267.206 339.006C280.628 318.921 285.938 293.946 281.688 270.185C277.762 271.153 273.831 272.12 269.905 273.088C267.173 273.759 265.169 271.407 265.632 268.814C270.984 238.9 272.326 208.346 269.775 178.075C259.126 184.052 250.242 192.71 244.065 203.35C242.338 206.327 237.588 205.04 237.593 201.595C237.63 185.969 235.755 170.421 231.884 155.281C231.347 153.174 228.722 141.349 224.453 144.09C223.425 144.752 222.772 146.067 222.189 147.09C221.254 148.734 220.365 150.401 219.453 152.058C217.471 155.665 215.485 159.272 213.503 162.874C209.096 170.889 204.688 178.899 200.28 186.913C198.827 189.553 194.711 188.914 193.933 186.085C186.974 160.68 168.57 138.664 144.675 127.501C140.18 143.585 137.193 160.05 135.828 176.704C135.568 179.853 131.036 181.788 129.355 178.459C123.781 167.398 114.595 150.308 99.4411 155.841C97.0428 156.716 94.751 158.253 93.4547 160.499C91.6953 163.55 92.575 167.092 93.8389 170.171C95.5983 174.445 97.7975 178.533 99.58 182.802C101.437 187.242 103.103 191.756 104.562 196.345C107.831 206.642 109.983 217.222 111.215 227.95C111.539 230.779 108.085 231.987 105.988 230.95L92.9222 224.454C93.5519 239.52 96.7558 254.271 102.279 268.356C108.011 282.978 115.609 296.812 120.836 311.642C123.753 319.926 125.781 328.459 126.433 337.228C126.679 340.501 122.6 341.441 120.507 339.682C103.877 325.727 89.1859 309.684 75.2128 293.118C68.2263 284.834 61.2953 276.477 54.5681 267.981C48.364 260.147 42.3637 252.003 38.0347 242.951C33.127 232.7 30.6732 221.699 32.715 210.392C33.1224 208.151 36.0253 207.267 37.8171 208.318C46.85 213.596 55.4478 219.569 63.5825 226.135C62.7121 195.141 53.0865 173.889 30.7426 131.515C8.39871 89.1407 21.1587 79.9408 31.2427 80.0473L31.2612 80.038Z" fill="#76CCC6"/>
<path d="M194.935 63.1812C194.873 65.2064 194.655 67.0631 194.409 68.394C193.883 71.2325 192.145 74.3914 189.216 75.3075C186.423 76.1783 182.508 74.9665 180.631 72.9742C176.051 68.1065 174.724 59.172 177.55 52.8747C178.844 49.9952 181.794 46.8198 185.088 46.8198C189.627 46.8157 193.513 50.6113 194.474 56.8388C195.304 56.6498 196.142 56.4855 196.988 56.3951C199.071 56.1651 201.585 56.7073 201.811 59.209C202.103 62.4706 198.254 63.0128 194.93 63.1853L194.935 63.1812Z" fill="#5B717F"/>
<path d="M115.915 164.238C112.241 153.293 110.71 141.99 110.944 130.425C111.1 122.757 113.144 115.693 117.533 109.432C124.277 99.8117 132.877 93.0219 144.4 90.6834C146.765 90.2034 149.117 89.6291 151.494 89.2065C152.955 88.948 153.924 88.7798 154.581 88.4927C153.805 85.8383 153.288 83.0773 152.82 80.3573C152.52 78.6178 155.078 77.1409 155.94 79.0444C156.289 79.8116 156.662 80.5624 157.064 81.3009C157.278 81.1696 157.545 81.0957 157.881 81.067C158.394 75.2167 158.53 69.8629 157.68 63.9552C157.491 62.6383 159.211 60.6895 160.184 62.0311C163.649 66.8024 164.634 69.908 166.605 75.0403C166.613 71.0321 166.059 65.2434 166.317 61.3378C166.42 59.7706 168.674 58.8639 169.495 60.4762C171.592 64.5993 172.902 70.4085 174.146 74.8393C174.146 74.7532 174.868 69.346 174.852 66.7285C174.839 64.6978 177.545 64.5542 178.201 66.2772C180.246 71.627 181.35 77.2557 181.51 82.9624C181.514 83.0239 181.527 83.0814 181.527 83.1429C181.527 83.3727 181.527 83.6065 181.527 83.8362C181.531 84.2342 181.531 84.628 181.527 85.026C181.527 86.0188 181.527 87.0116 181.527 88.0045C181.81 88.0455 182.138 88.0865 182.52 88.1357C183.476 88.2547 184.437 88.3901 185.398 88.4845C185.907 88.5337 186.531 88.5665 186.806 88.1357C186.806 87.5245 186.806 86.9091 186.806 86.2978C186.802 85.9163 186.802 85.5347 186.806 85.1573C186.806 84.9357 186.806 84.7142 186.806 84.4927C186.806 84.4311 186.814 84.3778 186.822 84.3162C186.974 78.8434 188.037 73.4403 189.995 68.308C190.627 66.6547 193.222 66.7983 193.21 68.7429C193.193 71.2537 193.887 76.4434 193.887 76.5255C195.081 72.2752 196.338 66.7039 198.349 62.7449C199.137 61.1942 201.301 62.068 201.399 63.5696C201.65 67.3152 201.116 72.8701 201.124 76.7142C203.012 71.7911 203.957 68.8085 207.282 64.2301C208.218 62.9419 209.868 64.8126 209.687 66.0762C208.805 72.2055 209.026 77.7152 209.622 83.8773C210.266 82.8065 210.841 81.6988 211.358 80.5542C212.183 78.7285 214.634 80.1439 214.351 81.8137C213.694 85.6537 212.93 89.5757 211.424 93.145C212.031 93.6373 213.033 93.9409 214.683 94.4619C225.594 97.9163 235.865 102.61 245.102 109.744C249.482 113.124 251.838 117.399 253.176 122.569C253.55 124.009 253.78 125.49 254.014 126.967C255.886 138.856 254.445 150.573 252.097 162.208C248.981 177.646 242.713 191.705 234.347 204.854C232.327 208.029 230.2 211.024 227.011 212.944C225.397 213.916 225.081 215.106 225.081 216.887C225.028 248.39 224.946 279.894 224.806 311.398C225.237 317.732 225.993 337.014 226.264 341.145C228.193 342.007 232.848 344.403 234.31 346.06C236.005 347.984 235.098 350.503 232.421 350.741C219.125 351.927 194.063 350.856 190.804 350.856C187.545 350.856 187.565 347.664 187.545 345.486C187.524 343.303 187.635 333.892 187.499 330.167C187.372 326.704 187.212 323.246 187.15 319.783C187.118 317.802 186.99 313.896 186.871 310.077L187.056 310.068C187.056 310.007 187.056 309.945 187.056 309.884L186.867 310.077V165.703C181.896 165.457 176.921 165.207 171.958 164.866C170.373 164.755 169.86 165.367 169.7 166.893C168.694 176.538 166.884 186.08 166.58 195.816C166.19 208.329 165.784 220.842 165.377 233.354V310.077C165.258 313.896 165.131 317.802 165.098 319.783C165.036 323.246 164.876 326.708 164.749 330.167C164.614 333.888 164.724 343.303 164.704 345.486C164.683 347.668 164.704 350.856 161.445 350.856C158.185 350.856 133.124 351.927 119.827 350.741C117.155 350.503 116.248 347.984 117.939 346.06C119.4 344.399 124.056 342.007 125.985 341.145C126.256 336.977 127.024 317.363 127.455 311.217C127.52 310.257 127.578 309.297 127.639 308.333H127.693C128.358 290.216 129.019 272.099 129.708 253.982C130.353 237.051 130.677 220.103 131.958 203.201C132.036 202.158 131.913 201.248 131.367 200.362C124.421 189.141 120.106 176.714 115.919 164.238H115.915Z" fill="#5B717F"/>
<path fill-rule="evenodd" clip-rule="evenodd" d="M181.813 56.6538C182.056 56.7055 182.21 56.944 182.159 57.1866C181.396 60.7616 181.197 64.2304 181.54 68.1402C182.927 68.2147 184.795 68.1082 186.104 67.9557C186.35 67.927 186.573 68.1035 186.602 68.3498C186.631 68.5962 186.454 68.8191 186.208 68.8478C184.747 69.018 182.582 69.1363 181.09 69.0094C180.874 68.9911 180.702 68.8208 180.681 68.6049C180.282 64.4548 180.473 60.7855 181.28 56.9993C181.332 56.7568 181.57 56.602 181.813 56.6538ZM176.769 64.9931C176.932 64.8064 177.216 64.7873 177.402 64.9505C177.966 65.4429 178.34 66.0967 178.54 66.7856C178.9 68.0129 179.422 69.6992 179.747 70.7497C179.884 71.1944 179.987 71.5252 180.027 71.6589C180.097 71.8966 179.962 72.1467 179.724 72.2176C179.487 72.2884 179.237 72.1532 179.166 71.9155C179.131 71.7991 179.035 71.4894 178.904 71.066C178.58 70.0166 178.039 68.269 177.678 67.0375L177.678 67.0369C177.517 66.4851 177.226 65.9888 176.811 65.6268C176.625 65.4636 176.605 65.1799 176.769 64.9931ZM193.172 67.586C192.976 67.2209 192.655 66.7647 192.166 66.5626L193.172 67.586ZM192.713 69.2708C192.69 68.8205 192.584 68.3908 192.38 68.0106C192.211 67.6939 192.016 67.4723 191.823 67.3929C191.689 67.3376 191.443 67.3049 191.01 67.6842L191.009 67.6846C190.595 68.0466 190.304 68.543 190.143 69.0947L190.143 69.0954C189.887 69.9691 189.443 71.3935 189.048 72.6492C188.891 73.1471 188.743 73.6174 188.617 74.0173C188.423 74.631 188.282 75.0788 188.244 75.2056C188.173 75.4433 187.923 75.5786 187.686 75.5077C187.448 75.4369 187.313 75.1868 187.383 74.9491C187.423 74.8157 187.57 74.3514 187.768 73.7243C187.893 73.3272 188.039 72.8649 188.191 72.38C188.586 71.123 189.027 69.7074 189.281 68.8434C189.481 68.1546 189.855 67.5007 190.418 67.0083C191.017 66.4842 191.618 66.3366 192.166 66.5626M181.478 87.5478C181.725 87.5643 181.912 87.7783 181.896 88.0258L181.017 101.2C179.738 120.376 177.065 139.438 172.869 158.194C170.777 167.541 168.379 176.574 163.479 185.11C160.901 189.606 158.055 193.85 155.02 197.251C151.989 200.647 148.742 203.235 145.354 204.368C141.939 205.509 138.415 205.159 134.906 202.741C131.422 200.34 127.973 195.916 124.618 188.951C124.511 188.728 124.605 188.459 124.828 188.352C125.051 188.244 125.32 188.338 125.428 188.561C128.752 195.463 132.116 199.728 135.416 202.002C138.692 204.259 141.922 204.568 145.069 203.516C148.244 202.455 151.366 199.996 154.35 196.653C157.328 193.315 160.14 189.129 162.7 184.663C167.528 176.251 169.903 167.332 171.993 157.998C176.178 139.29 178.845 120.273 180.121 101.14L181 87.966C181.016 87.7185 181.23 87.5313 181.478 87.5478ZM154.961 88.8882C154.961 88.8882 154.961 88.8882 154.961 88.8882L154.964 88.8951L154.972 88.9174C154.979 88.9372 154.991 88.9668 155.005 89.0054C155.035 89.0827 155.078 89.1963 155.135 89.34C155.247 89.6275 155.411 90.0355 155.615 90.5159C157.136 94.1081 157.582 98.0634 156.859 101.898L147.854 149.746C147.54 151.419 147.031 153.056 146.276 154.593C145.831 155.503 145.266 156.463 144.579 157.245C143.895 158.024 143.058 158.665 142.066 158.865C141.053 159.069 139.965 158.799 138.829 157.925C137.704 157.059 136.515 155.589 135.253 153.346C135.131 153.13 135.208 152.856 135.424 152.734C135.64 152.613 135.914 152.689 136.035 152.906C137.269 155.098 138.388 156.451 139.377 157.213C140.355 157.966 141.185 158.126 141.888 157.985C142.611 157.839 143.287 157.356 143.904 156.652C144.518 155.952 145.043 155.07 145.469 154.198L145.47 154.197C146.184 152.743 146.67 151.185 146.972 149.58L155.976 101.732C156.666 98.0743 156.241 94.2985 154.788 90.8662C154.581 90.3772 154.414 89.9617 154.299 89.668C154.241 89.5211 154.196 89.4046 154.166 89.3245C154.157 89.3002 154.149 89.2792 154.142 89.2618C154.138 89.2506 154.134 89.2408 154.131 89.2325L154.122 89.2084L154.119 89.2004L154.119 89.1999C154.119 89.1999 154.119 89.1996 154.54 89.0439L154.119 89.1999C154.033 88.9672 154.152 88.7087 154.384 88.6227C154.617 88.5367 154.875 88.6556 154.961 88.8882ZM186.152 89.0057C186.4 88.9947 186.61 89.1867 186.621 89.4344L187.442 107.915C187.737 112.339 187.965 116.745 188.192 121.135C188.948 135.787 189.696 150.259 192.912 164.64C195.001 173.975 197.376 182.894 202.204 191.306C204.771 195.783 207.441 200.159 210.208 203.777C212.981 207.403 215.819 210.223 218.71 211.637C221.565 213.034 224.479 213.066 227.507 211.095C230.575 209.098 233.791 205.024 237.119 198.116C237.227 197.893 237.495 197.799 237.719 197.907C237.942 198.014 238.036 198.283 237.928 198.506C234.576 205.464 231.272 209.716 227.997 211.848C224.684 214.005 221.432 213.969 218.315 212.444C215.234 210.937 212.293 207.982 209.494 204.323C206.69 200.656 203.997 196.237 201.425 191.753C196.526 183.216 194.128 174.184 192.035 164.836C188.801 150.374 188.049 135.799 187.291 121.133C187.065 116.753 186.839 112.365 186.546 107.969C186.546 107.967 186.545 107.965 186.545 107.963L186.545 107.959L185.724 89.4743C185.713 89.2265 185.905 89.0167 186.152 89.0057ZM210.944 93.5424C211.182 93.6127 211.317 93.8625 211.247 94.1004L210.817 93.9731C211.247 94.1004 211.247 94.1004 211.247 94.1004L211.247 94.1023L211.245 94.1076L211.239 94.1281L211.216 94.2064C211.195 94.2742 211.166 94.372 211.129 94.4923C211.056 94.7328 210.955 95.0638 210.84 95.4254C210.613 96.1416 210.328 97.0014 210.113 97.5085C208.66 100.941 208.235 104.716 208.925 108.374L217.929 156.222C218.231 157.827 218.716 159.385 219.431 160.839L219.432 160.84C220.268 162.551 221.807 164.014 223.474 164.195C225.074 164.369 227.057 163.376 228.85 159.576C228.956 159.352 229.224 159.256 229.448 159.362C229.672 159.468 229.768 159.735 229.663 159.959C227.804 163.899 225.544 165.323 223.378 165.088C221.279 164.86 219.53 163.088 218.625 161.234C217.869 159.698 217.361 158.06 217.046 156.388L208.042 108.54C207.319 104.706 207.765 100.75 209.286 97.1582C209.482 96.6959 209.755 95.8754 209.984 95.1539C210.097 94.7967 210.198 94.4694 210.27 94.2313C210.306 94.1123 210.335 94.0158 210.355 93.949L210.378 93.8722L210.384 93.8524L210.385 93.8474L210.386 93.8462L210.386 93.8458C210.456 93.608 210.706 93.4721 210.944 93.5424Z" fill="white"/>
<path d="M204.821 53.2891C211.118 49.4777 224.309 43.3463 226.695 49.312C229.678 56.7691 213.769 48.3177 204.821 53.2891Z" fill="#FFB800"/>
<path d="M207.126 55.5796C210.426 55.3975 216.948 55.7502 216.635 58.6183C216.244 62.2034 211.722 55.4971 207.126 55.5796Z" fill="#FFB800"/>
<path d="M173.823 50.6047C169.242 44.8429 159.003 34.5105 154.693 39.2756C149.305 45.2319 167.159 42.834 173.823 50.6047Z" fill="#FFB800"/>
<path d="M170.866 51.9517C167.834 50.6344 161.596 48.6992 160.893 51.4973C160.014 54.9949 166.585 50.2776 170.866 51.9517Z" fill="#FFB800"/>
</svg>
