<svg width="354" height="335" viewBox="0 0 354 335" fill="none" xmlns="http://www.w3.org/2000/svg">
<path opacity="0.25" d="M352.989 222.259C335.29 198.561 315.359 177.262 293.656 158.745C288.387 154.252 283.008 149.942 277.54 145.792C293.682 121.497 318.387 107.688 336.69 85.9656C342.065 79.5859 346.869 72.4995 350.633 64.6667C351.618 62.6214 350.756 59.7699 348.738 59.1827C330.173 53.7983 311.05 57.4211 292.485 60.8399C273.353 64.3631 254.293 68.4288 235.272 72.6886C228.472 74.2114 221.68 75.7591 214.888 77.3167C232.413 54.9777 242.224 37.9037 256.057 17.4856C257.529 15.3109 253.063 11.9867 250.885 12.8924C220.775 25.4677 190.589 37.7743 160.318 49.8022C153.645 52.4546 146.963 55.0872 140.281 57.7097L153.869 7.5975C154.744 4.37281 151.543 1.89954 149.208 3.38251C130.77 15.1118 112.675 27.5677 94.9384 40.7104L96.7061 15.8434C96.9302 12.6933 93.0354 10.8172 91.2931 13.2059C78.0142 31.3797 65.2597 50.0759 53.0169 69.235C51.6087 71.4396 53.499 75.0773 55.7572 74.8534C60.9039 74.3358 65.9955 73.4202 71.011 72.0815C63.6019 82.2433 57.4277 93.6243 52.7547 105.856C51.4564 109.25 54.1164 112.704 57.0936 110.962C71.5312 102.532 85.7785 93.6641 99.8313 84.3881C97.4166 91.0266 95.0018 97.6701 92.5913 104.309C91.5299 107.225 93.2722 110.614 96.1733 109.793C112.56 105.155 129.074 101.183 145.69 97.8741C135.684 106.294 126.431 115.933 118.143 126.643C115.927 129.509 118.138 133.555 121.23 132.883C149.674 126.677 178.354 122.094 207.17 119.138C200.332 127.225 191.498 132.803 182.913 137.959C171.766 144.652 160.322 151.017 151.035 161.109C149.441 162.846 150.071 165.672 151.678 166.971C167.892 180.064 185.628 190.445 204.244 197.84C179.991 205.15 154.922 207.748 130.013 210.256C127.307 210.53 125.793 214.152 127.772 216.626C147.724 241.572 167.503 266.713 187.117 292.028C160.605 289.256 134.356 283.598 108.716 275.153C105.849 274.207 104.026 277.805 105.134 280.637C108.564 289.4 111.503 298.408 113.99 307.599C101.971 302.901 89.9525 298.203 77.9338 293.506C74.7114 292.247 72.9225 297.129 74.8467 299.746C79.6085 306.215 83.9347 313.088 87.7788 320.348C89.6395 323.862 91.3903 327.45 93.0227 331.117C94.524 334.486 95.7165 338.169 97.7253 341.18C98.4907 342.324 99.345 343.23 100.288 343.927H285.279C287.935 343.787 290.59 343.653 293.246 343.504C294.904 343.409 296.494 341.866 296.418 339.771C295.695 320.025 281.925 306.972 275.967 289.709C297.027 294.108 318.087 298.507 339.147 302.906C341.79 303.459 344.188 300.433 342.729 297.422C332.736 276.79 322.743 256.163 312.746 235.531C325.691 233.187 338.635 230.843 351.58 228.494C354.126 228.031 354.38 224.13 352.98 222.254L352.989 222.259Z" fill="#76CCC6"/>
<path d="M254.875 258.296C254.721 256.903 253.318 256.067 252.083 255.878C251.103 255.723 250.078 255.484 249.043 255.186C247.351 242.695 242.22 220.709 239.722 208.358C234.676 183.406 231.043 166.586 224.499 156.166C221.245 150.985 211.481 143.152 196.074 134.518C188.853 130.473 176.955 124.013 165.818 118.017C166.584 117.927 167.331 117.828 168.027 117.693C176.169 116.136 184.678 113.21 190.023 106.671C195.457 100.022 197.069 92.6023 197.199 84.2769C197.348 74.752 197.517 63.3412 197.154 53.8214C196.855 45.9139 195.761 35.6725 186.206 36.8021C184.006 34.304 177.044 33.1793 174.158 35.4137C171.028 34.2144 167.47 35.2196 164.434 37.6481C161.439 40.0418 159.508 45.7596 159.682 49.472C157.333 51.0893 156.442 54.2245 157.089 57.0859C157.841 60.4151 160.289 62.7938 163.19 64.3315C163.245 71.5124 164.031 78.8426 163.21 84.5207C163.041 85.6901 162.464 87.5662 160.886 87.9892C158.861 88.5317 155.153 88.5765 151.74 88.4272C148.326 88.2779 134.685 85.8643 127.932 83.6847C124.554 82.5948 109.958 79.0268 100.348 79.2308C99.8557 79.2407 99.3382 79.2855 98.8107 79.3552C83.3092 80.5993 66.927 83.3413 53.8341 87.4369C36.581 92.8362 23.289 106.9 10.6689 119.589C4.83161 125.456 0.820638 132.428 0.517078 140.873C0.208542 149.453 4.11998 156.479 9.05158 163.187C14.6898 170.861 20.1539 178.808 26.1952 186.168C31.2164 192.284 38.2132 196.121 46.1456 193.374C53.0727 190.976 60.0994 184.591 61.9356 177.325C62.8762 173.608 61.9207 169.383 59.5321 166.532C60.4228 163.819 59.2384 160.789 56.9941 158.903C54.3815 156.708 50.9926 156.295 47.7529 156.823C43.3687 151.14 38.3078 145.77 35.526 140.754C34.9537 139.719 35.8096 138.027 36.8397 136.758C41.3732 131.159 46.4889 125.735 51.0523 122.928C52.8338 121.834 54.685 120.888 56.586 120.092C63.1648 131.632 68.3552 143.909 72.61 156.524C77.671 171.513 81.5476 186.88 85.2251 202.257C89.1913 218.848 90.2911 223.113 92.7992 239.993C95.3521 257.186 96.6061 274.539 96.1682 291.927C95.7303 309.175 94.8743 323.347 94.0433 340.581C93.9836 341.805 94.1627 343.79 94.8495 344.398C95.2028 345.089 96.4867 345.746 97.5417 345.746H117.761C122.488 345.746 133.844 345.861 140.398 344.915C145.215 344.218 144.056 338.66 138.278 338.043C138.258 338.043 138.244 338.048 138.224 338.053C137.89 329.429 138.01 288.289 137.89 275.803C137.328 215.867 129.42 185.944 110.704 140.012C112.944 138.947 115.153 137.823 117.333 136.633C128.415 143.272 139.443 150.005 150.411 156.838C160.712 163.257 177.353 173.921 181.145 176.37C184.937 178.818 187.052 183.143 188.754 187.303C189.893 190.095 200.414 241.745 205.455 269.125C205.594 269.886 205.942 270.439 206.395 270.822C207.012 271.658 208.008 272.22 209.311 272.036C223.131 270.07 235.706 267.96 249.058 263.76C249.844 263.511 253.273 262.128 253.706 261.75C254.756 260.819 255.024 259.655 254.875 258.296Z" fill="#5B717F"/>
<path d="M64.5682 58.3151C64.812 61.0372 66.1109 63.2616 68.0019 66.3122C69.8879 69.3627 73.5257 71.4329 79.577 70.3878C87.2207 69.0691 89.0321 61.5249 89.1714 54.8018C90.4305 54.6226 91.6895 54.4385 92.9485 54.2544C93.7597 54.1349 94.2822 53.4631 94.0234 52.7416C91.993 47.0784 88.9525 41.8234 84.9962 37.1157C84.2647 36.0657 83.4287 35.1052 82.4533 34.2841C76.2925 29.0938 68.8777 33.1246 66.1606 39.7382C65.3594 41.684 64.7573 43.9284 64.3791 46.3021C62.7966 46.2971 61.1245 46.1329 59.6067 46.745C56.6707 47.9294 55.0732 51.383 55.9391 54.4385C57.029 58.2852 60.8807 58.6784 64.5732 58.3101L64.5682 58.3151Z" fill="#5B717F"/>
<path fill-rule="evenodd" clip-rule="evenodd" d="M174.699 36.2779C174.989 36.5714 174.986 37.044 174.692 37.3335C174.053 37.9645 173.113 39.4571 172.34 41.1039C171.96 41.9138 171.635 42.7316 171.415 43.4611C171.257 43.9876 171.164 44.4344 171.133 44.7838C171.27 44.8253 171.406 44.8726 171.541 44.9261L171.542 44.9265C173.033 45.518 174.378 47.0712 174.189 48.8685C174.055 50.1454 173.195 51.1423 172.459 51.8584L172.458 51.8592C171.992 52.3114 170.947 53.0324 169.969 53.6765C169.849 53.7554 169.729 53.834 169.61 53.9116C170.201 53.9653 170.803 54.0535 171.391 54.1811C172.882 54.5044 174.391 55.104 175.381 56.1432C175.665 56.4426 175.973 56.7549 176.289 57.0752C178.631 57.0394 180.584 55.617 180.999 53.0054C179.923 50.3811 180.007 47.3785 180.826 44.5922C181.667 41.7335 183.302 39.0351 185.373 37.1023C185.675 36.8211 186.147 36.8375 186.428 37.1389C186.71 37.4403 186.693 37.9127 186.392 38.1939C184.527 39.9336 183.029 42.3958 182.259 45.0136C181.488 47.633 181.465 50.3408 182.451 52.6065C182.646 53.0514 183.003 53.6302 183.43 54.1932C183.858 54.7565 184.318 55.2555 184.694 55.5597L184.696 55.5606C185.787 56.4463 187.817 56.5272 189.353 54.8158C190.067 54.0199 190.311 52.9003 190.334 51.7318C190.346 51.1571 190.303 50.5977 190.252 50.0982C190.235 49.9302 190.215 49.7589 190.196 49.5938C190.162 49.3001 190.131 49.0259 190.119 48.8241C190.094 48.4126 190.408 48.0593 190.82 48.0351C191.232 48.0109 191.585 48.3249 191.609 48.7364C191.619 48.9014 191.642 49.1003 191.671 49.3522C191.691 49.5234 191.714 49.719 191.737 49.9451C191.791 50.4715 191.84 51.0993 191.827 51.7618C191.8 53.0678 191.531 54.6231 190.464 55.8128C188.436 58.0725 185.51 58.1434 183.755 56.7201C183.251 56.3127 182.709 55.7123 182.241 55.0955C182.171 55.0038 182.103 54.9107 182.035 54.8166C181.221 56.7876 179.563 58.0299 177.607 58.4288C177.741 58.5709 177.872 58.7131 178.002 58.8553C178.87 59.8119 179.696 60.8565 180.285 62.0314C180.469 62.3999 180.32 62.8485 179.952 63.0332C179.583 63.2179 179.135 63.0688 178.95 62.7003C178.449 61.7005 177.725 60.7719 176.896 59.8586C176.387 59.2981 175.871 58.7764 175.351 58.2496C175.002 57.8973 174.652 57.5427 174.299 57.1726C173.611 56.4501 172.446 55.9375 171.075 55.6401C169.722 55.3465 168.273 55.285 167.129 55.3813C166.785 55.4103 166.466 55.1992 166.358 54.8711C166.25 54.5429 166.381 54.1834 166.675 54.0021C167.153 53.7076 168.161 53.0801 169.148 52.4297C170.163 51.7614 171.074 51.1214 171.419 50.7873C172.125 50.1004 172.629 49.4255 172.704 48.7123L172.704 48.712C172.803 47.7723 172.059 46.7378 170.991 46.3141C169.921 45.8913 168.661 45.9808 167.377 46.291C165.104 46.8426 162.981 47.9322 160.839 49.1152C160.478 49.3145 160.024 49.1835 159.825 48.8226C159.625 48.4617 159.756 48.0076 160.117 47.8083C162.264 46.6227 164.54 45.4431 167.025 44.8401L167.026 44.84C167.847 44.6416 168.748 44.5014 169.657 44.5408C169.71 44.0633 169.83 43.5467 169.986 43.0307C170.232 42.2144 170.586 41.3272 170.989 40.47C171.78 38.7826 172.81 37.0929 173.644 36.2707C173.937 35.9812 174.41 35.9844 174.699 36.2779ZM130.574 93.6158C130.965 93.4858 131.387 93.6976 131.517 94.0889C131.571 94.2497 131.812 94.6088 132.395 95.1838C132.948 95.728 133.721 96.3852 134.695 97.1413C136.64 98.6517 139.33 100.515 142.517 102.598C148.888 106.761 157.2 111.768 165.406 116.525C165.762 116.732 165.884 117.188 165.677 117.545C165.47 117.902 165.014 118.023 164.657 117.817C156.441 113.054 148.104 108.031 141.701 103.847C138.501 101.757 135.772 99.8676 133.779 98.3205C132.784 97.5478 131.959 96.85 131.348 96.2472C130.767 95.6752 130.278 95.0953 130.1 94.5595C129.97 94.1682 130.182 93.7457 130.574 93.6158ZM52.5703 165.981C51.6912 166.184 50.9361 166.477 50.4048 166.778C50.046 166.981 49.5905 166.855 49.3875 166.496C49.1844 166.137 49.3107 165.682 49.6694 165.479C50.6162 164.943 52.0079 164.481 53.5364 164.3C55.0684 164.118 56.7956 164.21 58.3933 164.842C58.7767 164.994 58.9645 165.427 58.8129 165.811C58.6612 166.194 58.2276 166.382 57.8442 166.23C56.7629 165.803 55.5745 165.666 54.4281 165.722C55.33 166.714 56.0591 167.862 56.5698 169.104L56.57 169.105C56.7162 169.461 56.8942 169.79 57.0926 170.156C57.1709 170.3 57.2523 170.45 57.3362 170.61C57.6161 171.145 57.9031 171.757 58.0232 172.45C58.0936 172.857 57.8213 173.243 57.4151 173.313C57.0089 173.384 56.6225 173.111 56.5522 172.705C56.4733 172.249 56.2775 171.807 56.0138 171.303C55.9519 171.185 55.8842 171.06 55.8138 170.93C55.6032 170.542 55.3681 170.108 55.189 169.672C54.6101 168.263 53.7074 166.993 52.5703 165.981ZM46.9652 180.536C47.2476 180.236 47.72 180.221 48.0204 180.504C50.1232 182.481 53.0208 183.602 55.9121 183.556C56.3243 183.549 56.6639 183.878 56.6705 184.29C56.6772 184.702 56.3484 185.042 55.9362 185.049C52.6568 185.101 49.3837 183.835 46.9978 181.592C46.6974 181.309 46.6829 180.837 46.9652 180.536ZM39.2607 187.876C39.6014 187.643 40.0658 187.731 40.298 188.072C40.687 188.642 41.3693 188.996 42.2417 189.404L42.2438 189.405C43.7319 190.106 45.1204 190.743 46.5829 190.869C46.9936 190.904 47.2979 191.266 47.2625 191.677C47.2271 192.087 46.8655 192.392 46.4547 192.356C44.6833 192.204 43.0567 191.438 41.6092 190.756L41.6095 190.756L41.9256 190.08L41.6074 190.755" fill="white"/>
<path d="M225.601 296.184V293.845C225.601 293.845 244.161 295.896 253.653 293.845V296.47C253.653 296.47 242.159 300.257 225.601 296.184Z" fill="#CF005D"/>
<path d="M254.913 297.931V336.368C254.913 337.244 254.438 338.025 253.731 338.3C250.136 339.702 238.764 343.244 225.517 338.27C224.801 338.003 224.317 337.217 224.317 336.332V297.922C224.317 296.652 225.292 295.693 226.35 295.92C230.664 296.848 241.286 298.539 252.869 295.931C253.878 295.704 254.816 296.564 254.907 297.744C254.911 297.807 254.913 297.868 254.913 297.931Z" fill="#FFB800"/>
<path d="M239.627 295.954C247.373 295.954 253.653 294.886 253.653 293.568C253.653 292.25 247.373 291.181 239.627 291.181C231.88 291.181 225.601 292.25 225.601 293.568C225.601 294.886 231.88 295.954 239.627 295.954Z" fill="#FFE9B0"/>
<path d="M231.412 293.867C230.684 293.565 230.963 292.948 231.866 292.845C232.965 292.719 234.807 292.595 236.061 292.973C237.949 293.543 232.803 294.425 231.468 293.89C231.448 293.883 231.43 293.874 231.412 293.867Z" fill="#B58300"/>
<path d="M254.913 303.717V332.016C246.41 333.671 237.78 332.381 237.78 332.381V304.593C241.259 305.349 250.095 303.964 254.913 303.717Z" fill="#FFE9B0"/>
<path fill-rule="evenodd" clip-rule="evenodd" d="M254.553 294.6C254.698 295.085 254.423 295.596 253.938 295.741C242.889 299.048 230.423 297.183 225.543 295.838C225.055 295.704 224.769 295.199 224.903 294.711C225.038 294.223 225.542 293.937 226.03 294.071C230.723 295.365 242.813 297.157 253.412 293.985C253.897 293.84 254.408 294.115 254.553 294.6ZM254.553 338.017C254.698 338.502 254.423 339.012 253.938 339.158C242.889 342.465 230.423 340.6 225.543 339.255C225.055 339.121 224.769 338.616 224.903 338.128C225.038 337.64 225.542 337.353 226.03 337.488C230.723 338.782 242.813 340.574 253.412 337.402C253.897 337.256 254.408 337.532 254.553 338.017Z" fill="#B58300"/>
<path fill-rule="evenodd" clip-rule="evenodd" d="M254.16 274.736C254.551 275.341 254.377 276.148 253.772 276.539C253.601 276.65 253.453 276.802 253.35 276.975C252.98 277.593 252.179 277.794 251.561 277.424C250.943 277.054 250.741 276.253 251.111 275.635C251.421 275.117 251.851 274.674 252.356 274.348C252.962 273.957 253.769 274.13 254.16 274.736ZM260.298 279.248C260.648 279.878 260.421 280.672 259.791 281.022C259.261 281.317 258.761 281.67 258.306 282.073C257.766 282.55 256.941 282.499 256.464 281.959C255.987 281.419 256.038 280.595 256.578 280.118C257.174 279.591 257.829 279.128 258.524 278.741C259.154 278.391 259.948 278.618 260.298 279.248ZM213.882 281.95C214.512 281.6 215.306 281.827 215.656 282.457C215.704 282.544 215.752 282.63 215.799 282.715C215.903 282.902 216.005 283.086 216.109 283.272C216.461 283.9 216.237 284.695 215.608 285.048C214.98 285.4 214.185 285.176 213.833 284.547C213.726 284.356 213.619 284.164 213.514 283.974C213.467 283.89 213.421 283.806 213.375 283.724C213.025 283.094 213.252 282.3 213.882 281.95ZM265.43 288.014C265.539 288.726 265.05 289.392 264.338 289.501C263.948 289.561 263.558 289.62 263.169 289.68C262.78 289.739 262.391 289.798 262.003 289.858C261.291 289.967 260.625 289.479 260.515 288.766C260.406 288.054 260.894 287.388 261.607 287.279C261.997 287.219 262.387 287.16 262.776 287.1C263.165 287.041 263.553 286.982 263.942 286.922C264.654 286.813 265.32 287.301 265.43 288.014ZM207.583 289.745C207.836 289.07 208.587 288.728 209.262 288.98C210.186 289.326 211.062 289.787 211.867 290.34C212.461 290.748 212.612 291.561 212.204 292.154C211.796 292.748 210.983 292.899 210.39 292.491C209.754 292.054 209.067 291.693 208.348 291.424C207.673 291.171 207.33 290.42 207.583 289.745Z" fill="#B58300"/>
</svg>
