<svg width="349" height="329" viewBox="0 0 349 329" fill="none" xmlns="http://www.w3.org/2000/svg">
<path opacity="0.25" d="M333.291 316.732C319.841 314.615 306.352 312.724 292.868 310.842C294.803 308.696 296.79 306.602 298.749 304.48C308.58 296.343 318.676 288.523 329.037 281.069C330.346 280.13 331.193 278.667 330.735 277.012C330.35 275.616 328.839 274.144 327.285 274.327C324.99 274.596 322.704 274.899 320.423 275.236C315.399 275.232 310.476 276.709 305.515 277.936C299.028 279.538 292.43 280.332 285.765 280.438C289.187 272.71 292.589 264.972 295.933 257.21C300.847 245.8 305.649 234.337 310.216 222.783C312.502 217.008 314.725 211.214 316.881 205.387C318.012 202.331 319.124 199.266 320.211 196.191C321.092 193.712 322.396 191.066 321.145 188.486C319.937 185.994 317.088 185.329 314.605 186.099C313.979 186.292 313.416 186.566 312.892 186.893C312.305 187.062 311.698 187.322 311.087 187.687C307.16 190.021 303.455 192.808 299.918 195.69C296.891 198.159 294.042 200.82 291.343 203.621C281.439 210.801 271.916 218.505 262.83 226.7C269.466 194.232 276.102 161.764 282.733 129.301C283.46 125.744 279.538 123.3 276.737 125.725C257.445 142.433 239.178 160.296 222.046 179.203C221.589 134.512 224.491 89.8019 230.766 45.5486C232.662 32.1706 234.9 18.8408 237.417 5.56383C238.124 1.83917 232.835 -1.20697 230.848 2.71499C208.303 47.2474 185.738 91.8086 165.686 137.534C162.019 145.893 158.443 154.295 154.959 162.731C152.062 126.668 150.08 90.5334 149.045 54.3646C148.708 42.618 148.472 30.8665 148.328 19.1151C148.28 15.1017 142.361 14.0767 141.249 18.0804C130.104 58.2337 115.629 97.4533 97.862 135.152C93.6513 144.084 89.253 152.919 84.691 161.677C66.828 134.705 55.0765 104.036 50.3557 71.9918C49.7446 67.8533 43.3876 68.9553 43.2577 72.8773C42.377 99.0125 42.5743 125.172 43.8351 151.288C40.3511 147.481 37.4012 143.141 34.4417 138.949C30.2935 133.078 24.7546 127.116 20.4525 122.809C16.1504 118.507 11.1408 121.659 12.0504 124.561C13.624 129.589 19.0137 152.861 22.3052 163.78C25.5968 174.699 39.9661 252.402 39.9661 252.402L44.8698 281.964C37.2905 278.051 29.7064 274.144 22.1272 270.232C18.4314 268.326 15.0339 272.695 17.6951 275.852C29.7112 290.121 42.1316 304.038 54.9321 317.594C40.7216 321.309 26.5111 325.028 12.3006 328.743C9.00903 329.605 8.63848 334.956 12.2284 335.702C23.8163 338.123 35.3993 340.538 46.9871 342.959C56.6068 344.965 66.212 347.136 75.8846 348.883H265.708C268.008 348.3 270.294 347.636 272.575 346.895C282.912 343.531 308.426 335.259 323.748 330.211C326.573 329.667 329.388 329.061 332.184 328.373C335.134 327.646 338.656 326.28 339.017 322.772C339.388 319.177 336.457 317.228 333.3 316.727L333.291 316.732Z" fill="#76CCC6"/>
<path fill-rule="evenodd" clip-rule="evenodd" d="M130.978 54.9065C127.921 54.9943 124.857 55.2518 121.932 55.5015C114.931 56.0991 107.727 57.0324 101.348 59.8376C99.7388 60.5454 96.9715 62.4419 95.2119 64.6937C94.3338 65.8173 93.7605 66.9613 93.6464 68.0343C93.5372 69.0618 93.839 70.0981 94.8753 71.0986C96.3142 72.4879 98.3653 73.9549 100.552 75.258C103.268 74.8062 106.254 74.8811 108.556 74.9388C109.104 74.9525 109.613 74.9653 110.071 74.9698C113.121 74.9995 116.223 75.2543 119.236 75.8643L119.408 75.8585C119.961 75.8397 120.518 75.8207 121.078 75.8031C121.414 75.6246 121.749 75.4441 122.086 75.2624C122.14 74.0113 122.179 72.803 122.179 71.6498C122.179 70.9499 122.147 70.1811 122.112 69.3493C122.095 68.9427 122.077 68.5211 122.062 68.0851C122.017 66.7775 122 65.3755 122.119 64.006C122.355 61.2952 123.139 58.5217 125.52 56.8873C127.058 55.831 128.984 55.2428 130.978 54.9065ZM142.802 54.2925C142.282 54.1803 141.761 54.0772 141.241 53.984C134.965 52.8599 127.946 53.4503 121.802 53.9747C114.786 54.5737 107.36 55.5197 100.731 58.435C98.914 59.2342 95.9353 61.2795 94.0045 63.7502C93.0374 64.9879 92.2793 66.4003 92.1228 67.8722C91.9614 69.3895 92.4496 70.8865 93.811 72.201C95.0526 73.3998 96.6808 74.6215 98.4306 75.7467C98.2533 75.801 98.0779 75.8586 97.9047 75.9199C96.1418 75.9331 94.3784 75.9631 92.6159 76.02C90.4598 76.0896 88.4739 76.9336 86.7298 78.1312C84.1414 78.7992 81.8026 79.8765 80.1008 81.5655C78.348 83.3051 77.3236 85.6425 77.3463 88.6807C77.3554 89.8999 77.5885 91.2674 78.0326 92.5752C77.8319 94.6272 78.0881 96.8071 79.6114 98.0626C80.4209 98.7297 81.5013 99.1427 82.6398 99.4058C83.788 99.671 85.0597 99.7979 86.3054 99.8508C88.12 99.9278 89.9607 99.8481 91.3269 99.789C91.8216 99.7675 92.2542 99.7488 92.6007 99.7412C93.1084 99.73 93.6181 99.7174 94.1297 99.7029C95.3607 103.48 97.1347 106.954 99.359 109.471C100.832 111.137 103.159 111.845 105.393 112.19C107.005 112.438 108.697 112.512 110.119 112.574C110.669 112.598 111.18 112.62 111.629 112.65C117.196 113.022 123.086 113.296 128.723 112.532C134.642 111.73 138.78 108.172 141.965 103.523C142.778 102.336 143.631 101.108 144.524 99.8534C144.835 99.8413 145.111 99.8312 145.349 99.8264C146.017 99.8128 146.687 99.7957 147.359 99.7737C148.039 99.9264 148.727 100.055 149.42 100.159C152.889 101.897 156.591 103.189 160.26 104.17C162.528 104.777 165.366 105.451 168.236 105.729C171.094 106.006 174.062 105.899 176.554 104.877C178.355 104.138 178.849 102.287 178.973 100.676C179.037 99.842 179.009 98.9836 178.968 98.2137C178.956 97.9829 178.943 97.7633 178.93 97.5547C178.9 97.0455 178.873 96.6021 178.873 96.2228C178.873 95.3149 178.902 94.4134 178.932 93.4848C178.951 92.9187 178.969 92.3426 178.982 91.7488C179.226 91.6834 179.469 91.6145 179.711 91.5425C179.872 92.4065 180.155 93.272 180.606 94.137C181.959 96.7304 185.014 97.1132 187.684 96.6379C189.057 96.3935 190.428 95.9124 191.614 95.2969C192.791 94.6859 193.835 93.9171 194.511 93.0682C195.779 91.4766 196.453 89.4443 196.76 87.3418C197.046 85.3761 197.018 83.304 196.826 81.379C197.56 80.769 198.278 80.1573 198.981 79.5506C200.768 78.0078 202.341 76.5843 203.349 74.9229C204.385 73.2144 204.804 71.2932 204.401 68.8033C204.381 68.6786 204.358 68.4615 204.326 68.1609C204.296 67.8818 204.258 67.5307 204.209 67.1149C204.11 66.2915 203.969 65.283 203.759 64.3248C203.553 63.3857 203.266 62.4164 202.843 61.7192C202.63 61.3692 202.345 61.0223 201.955 60.8088C201.533 60.5769 201.052 60.5393 200.572 60.7154C199.269 61.1933 197.984 61.6821 196.709 62.1673C192.169 63.8948 187.749 65.5768 183.018 66.5622C182.931 65.2949 182.797 64.0373 182.61 62.796C182.244 60.3637 181.522 58.3005 180.16 56.7926C178.778 55.2641 176.824 54.3997 174.192 54.2011C164.334 53.4571 154.181 53.8511 144.31 54.2341C143.807 54.2537 143.304 54.2732 142.802 54.2925ZM142.666 55.8311C142.051 55.8548 141.436 55.8782 140.822 55.901C140.092 55.9281 139.309 55.9382 138.49 55.9488C136.863 55.9699 135.093 55.9928 133.31 56.1544C130.64 56.3965 128.149 56.9403 126.387 58.1505C124.589 59.385 123.87 61.5599 123.646 64.1386C123.535 65.414 123.549 66.7421 123.594 68.0327C123.607 68.4379 123.624 68.8432 123.641 69.2423C123.677 70.0942 123.712 70.9176 123.712 71.6498C123.712 72.5477 123.688 73.4737 123.653 74.4179C126.293 73.009 129.047 71.6632 132.057 71.1629C134.056 68.3675 136.549 65.83 139.994 64.7339C141.175 64.358 142.424 64.1071 143.703 63.9507C145.98 61.6929 148.683 59.9213 151.604 58.5575C148.638 57.4488 145.645 56.4862 142.666 55.8311ZM153.626 57.69C151.715 56.9448 149.777 56.2439 147.826 55.633C152.689 55.4519 157.581 55.301 162.446 55.3136C159.454 55.8052 156.459 56.5767 153.626 57.69ZM153.634 59.3389C150.909 60.4638 148.375 61.9192 146.185 63.7584C149.551 63.6347 153.014 64.0109 155.966 64.4214C158.624 64.7909 161.746 65.3833 164.537 66.589C167.095 67.6943 169.435 69.3413 170.859 71.8592C173.363 70.5511 175.962 69.5208 178.647 68.8546C178.687 68.8041 178.726 68.7545 178.765 68.7057C176.238 68.7304 173.64 67.9717 171.188 66.9983C169.726 66.4177 168.292 65.7503 166.934 65.1057C166.709 64.9986 166.486 64.8922 166.265 64.7871C165.149 64.2553 164.095 63.7533 163.107 63.3309C162.399 63.0279 161.685 62.7203 160.967 62.4108C158.57 61.3777 156.121 60.3223 153.634 59.3389ZM179.943 67.0908C177.392 67.4293 174.588 66.6996 171.754 65.5742C170.342 65.0135 168.946 64.3646 167.592 63.7215C167.371 63.6167 167.151 63.5119 166.932 63.4077C165.817 62.876 164.729 62.3579 163.71 61.922C163.01 61.6227 162.302 61.3177 161.588 61.0097C159.685 60.1897 157.734 59.349 155.756 58.5409C160.092 57.0618 164.763 56.3461 169.169 56.1847C169.259 56.1814 169.349 56.178 169.44 56.1746C170.606 56.1311 171.861 56.0842 173.09 56.1789C174.416 56.2812 175.638 56.5447 176.62 57.1058C177.285 57.4858 177.751 58.2158 178.149 59.1989C178.345 59.6821 178.511 60.1907 178.681 60.7102L178.684 60.7183C178.849 61.2234 179.02 61.7478 179.217 62.2149C179.922 63.8865 180.281 64.7988 180.361 65.5054C180.42 66.0292 180.326 66.4573 179.943 67.0908ZM178.027 70.6054C178.06 70.6452 178.097 70.6822 178.139 70.7158C178.47 70.9801 178.952 70.9265 179.216 70.5961C179.281 70.5155 179.344 70.4362 179.406 70.3584C179.443 70.3126 179.479 70.2673 179.515 70.2226C180.208 70.0637 180.906 69.9307 181.608 69.8252C181.652 74.8465 181.036 79.9733 180.135 84.7885L180.131 84.8101L180.131 84.8104L180.121 84.8629C179.809 86.531 179.485 88.2591 179.545 89.9917C179.363 90.0482 179.179 90.1026 178.996 90.1551C178.984 88.41 178.864 86.6418 178.454 84.9735C177.558 81.3298 175.025 79.2084 172.058 77.8753C172.134 76.3354 172.036 74.7241 171.506 73.25C173.624 72.1385 175.8 71.2405 178.027 70.6054ZM169.514 72.5935C168.306 70.4729 166.296 69.0181 163.929 67.9956C161.331 66.8731 158.373 66.303 155.755 65.9391C152.253 65.4521 148.159 65.0352 144.413 65.4132C142.739 67.1528 141.338 69.1802 140.303 71.5327C140.284 71.5763 140.265 71.6199 140.247 71.6636C140.887 71.7908 141.521 71.925 142.14 72.0559C142.242 72.0776 142.344 72.0992 142.445 72.1206C143.451 72.333 144.411 72.5321 145.316 72.6815C147.567 73.0528 149.823 73.3808 152.089 73.71C152.69 73.7974 153.292 73.8848 153.894 73.9731C156.675 72.582 159.869 72.2161 163.481 73.42C164.375 73.718 165.184 74.2228 165.906 74.8714C167.085 74.054 168.288 73.2912 169.514 72.5935ZM166.968 76.0002C168.01 75.2846 169.068 74.6153 170.142 73.9991C170.462 74.9996 170.567 76.1121 170.546 77.2714C169.458 76.8854 168.332 76.5776 167.214 76.3171C167.134 76.2095 167.052 76.1038 166.968 76.0002ZM164.602 75.7728C164.092 75.3629 163.555 75.06 162.996 74.8736C160.833 74.1525 158.871 74.0654 157.082 74.4532C158.786 74.7188 160.49 75.0029 162.189 75.3235C162.532 75.3883 162.888 75.4539 163.251 75.5209C163.693 75.6024 164.146 75.686 164.602 75.7728ZM151.852 75.2239C149.592 74.8955 147.324 74.5658 145.067 74.1934C144.123 74.0377 143.132 73.8317 142.129 73.6198C142.027 73.5983 141.925 73.5768 141.824 73.5553C141.137 73.41 140.445 73.2636 139.75 73.1276C139.432 74.3253 139.291 75.5458 139.143 76.8308C139.121 77.0266 139.098 77.224 139.074 77.423C140.122 77.7714 141.144 78.1875 142.131 78.6834C143.603 79.4232 145.058 80.2106 146.503 81.0143C148.03 78.7584 149.8 76.7195 151.852 75.2239ZM147.845 81.7658C149.658 79.1088 151.753 76.8886 154.164 75.5616C156.759 75.9446 159.341 76.3453 161.905 76.8292C162.262 76.8968 162.623 76.9632 162.987 77.0304C162.991 77.0311 162.995 77.0317 162.998 77.0324C159.877 79.5065 156.936 82.3325 154.196 85.3038C152.529 84.414 150.882 83.4825 149.228 82.5469C148.768 82.2866 148.307 82.026 147.845 81.7658ZM145.67 82.3043C144.264 81.5233 142.859 80.7642 141.443 80.0524C140.614 79.6359 139.754 79.2778 138.867 78.9708C138.74 79.7775 138.573 80.5958 138.319 81.4118C137.781 83.1379 137.02 84.6799 136.069 86.0617C136.48 86.611 136.88 87.1682 137.274 87.7177C137.41 87.908 137.546 88.0974 137.681 88.2853C138.32 89.1722 138.957 90.0335 139.647 90.8466C140.05 91.3218 140.468 91.7812 140.901 92.2255C142.131 89.0578 143.697 85.5004 145.67 82.3043ZM142.096 93.3844C143.355 90.0843 144.965 86.35 147.009 83.0532C147.49 83.3241 147.972 83.5968 148.455 83.8701C150.004 84.7459 151.562 85.6275 153.134 86.4731C150.339 89.5984 147.758 92.8576 145.412 96.0222C144.248 95.2144 143.138 94.3374 142.096 93.3844ZM140.304 93.7973C139.669 93.175 139.059 92.5224 138.478 91.838C137.747 90.9762 137.081 90.0738 136.438 89.181C136.297 88.9859 136.158 88.7917 136.019 88.5984C135.714 88.172 135.412 87.7501 135.105 87.3334C134.627 87.9077 134.114 88.4502 133.57 88.9635C134.036 89.4395 134.489 89.9157 134.937 90.3872C136.262 91.781 137.549 93.1338 139.031 94.3193C139.305 94.5392 139.589 94.7513 139.88 94.9556C140.016 94.5792 140.157 94.1925 140.304 93.7973ZM141.204 95.801C141.306 95.5152 141.412 95.2234 141.521 94.9263C142.471 95.7615 143.469 96.537 144.505 97.2576C144.489 97.2797 144.473 97.3018 144.457 97.3239C143.312 96.8987 142.221 96.3912 141.204 95.801ZM139.347 96.4482C138.908 96.1542 138.483 95.8435 138.073 95.5158C136.509 94.2647 135.101 92.7841 133.737 91.3508C133.292 90.8836 132.853 90.4214 132.414 89.9739C132.117 90.2144 131.814 90.4478 131.503 90.6745C132.194 91.5337 132.803 92.5103 133.382 93.4365C133.575 93.7457 133.765 94.0493 133.953 94.341C134.893 95.8013 135.809 97.0007 136.992 97.6513C137.41 97.8816 137.979 98.0538 138.661 98.1732C138.727 98.053 138.797 97.9059 138.873 97.7235C139.015 97.3854 139.161 96.9742 139.347 96.4482ZM140.272 98.3509C140.276 98.3394 140.281 98.3278 140.286 98.3162C140.413 98.0129 140.542 97.6615 140.682 97.2677C141.411 97.6772 142.17 98.0463 142.952 98.376C142.093 98.3988 141.166 98.404 140.272 98.3509ZM136.211 98.9704C134.68 98.1121 133.598 96.6205 132.665 95.1709C132.448 94.8346 132.239 94.501 132.034 94.1732C131.438 93.2207 130.873 92.3174 130.233 91.5402C129.556 91.9719 128.852 92.377 128.125 92.7585C127.06 93.3176 125.973 93.8317 124.869 94.3045C125.452 95.8486 126.237 97.2851 127.286 98.5777C127.491 98.8303 127.894 99.0498 128.566 99.185C129.222 99.3173 130.024 99.347 130.886 99.319C131.742 99.291 132.619 99.2077 133.421 99.1289L133.558 99.1155C134.288 99.0436 134.982 98.9753 135.487 98.9753C135.752 98.9753 135.992 98.9739 136.211 98.9704ZM124.385 92.8447C125.413 92.4011 126.423 91.9211 127.413 91.4016C128.006 91.0908 128.579 90.7651 129.131 90.423C128.641 90.025 128.113 89.7271 127.522 89.5511C126.535 89.2572 125.196 89.4567 123.768 90.0579C123.922 91.0123 124.125 91.9435 124.385 92.8447ZM122.337 90.7803C122.498 91.6794 122.703 92.5656 122.96 93.432C121.402 94.045 119.808 94.5799 118.187 95.0466C118.46 94.2856 119.083 93.4119 119.97 92.5621C120.657 91.9041 121.473 91.2892 122.337 90.7803ZM123.557 88.4921C125.042 87.9271 126.611 87.681 127.96 88.0826C128.938 88.3741 129.753 88.8988 130.454 89.542C130.749 89.3304 131.037 89.1132 131.317 88.89C130.766 88.3669 130.205 87.8675 129.619 87.4019C128.224 86.2922 126.735 85.3498 125.175 84.5418C124.602 85.2393 124.011 85.912 123.399 86.5601C123.436 87.2104 123.487 87.8551 123.557 88.4921ZM121.968 87.9956C122.003 88.3856 122.044 88.7743 122.092 89.1611C120.929 89.7806 119.823 90.5808 118.91 91.4556C117.878 92.4444 117.036 93.5822 116.681 94.7174C116.599 94.9783 116.56 95.2367 116.56 95.49C112.105 96.6383 107.475 97.3063 102.848 97.7001C105.045 97.2534 107.216 96.6491 109.345 95.8314C114.34 93.9125 118.464 91.3217 121.968 87.9956ZM123.325 84.3581C123.47 84.1909 123.614 84.0221 123.757 83.8517C123.612 83.7856 123.467 83.7205 123.321 83.6564C123.321 83.8906 123.323 84.1245 123.325 84.3581ZM121.791 83.0264C121.783 84.0087 121.794 84.9942 121.836 85.9752C118.292 89.5962 114.061 92.3782 108.795 94.401C104.378 96.0977 99.7362 96.849 94.982 97.1796C93.5191 91.6683 93.2229 85.7238 94.4027 81.2665C94.6934 80.1685 95.2606 79.3296 96.0276 78.6771C99.2302 78.6865 102.409 78.9706 105.107 79.3084C105.558 79.4999 105.998 79.675 106.421 79.8312C108.171 80.4774 109.925 80.6612 111.724 80.5584C111.994 80.543 112.262 80.5204 112.528 80.4913C115.698 81.1043 118.83 81.8844 121.791 83.0264ZM123.339 81.9972C123.813 82.1951 124.282 82.4029 124.746 82.6214C125.399 81.7769 126.027 80.895 126.634 79.9748C125.61 79.4534 124.55 79.0018 123.462 78.6129C123.41 79.7338 123.364 80.8646 123.339 81.9972ZM121.951 78.1179C121.9 79.1964 121.852 80.2947 121.821 81.3999C119.961 80.7121 118.05 80.1596 116.122 79.6973C117.694 79.1852 119.193 78.4966 120.645 77.7567C121.084 77.8684 121.519 77.9887 121.951 78.1179ZM124.224 77.2591C125.33 77.665 126.412 78.135 127.461 78.6768C127.657 78.3568 127.852 78.0325 128.045 77.7038C128.126 77.5656 128.207 77.4263 128.288 77.2859C126.94 77.2419 125.581 77.2394 124.224 77.2591ZM130.012 77.3666C129.795 77.7418 129.58 78.1138 129.367 78.4782L128.706 78.091L129.367 78.4782C129.181 78.796 128.992 79.11 128.802 79.4203C130.749 80.5764 132.56 82.0051 134.178 83.7572C134.489 84.0946 134.787 84.4398 135.075 84.7898C135.815 83.6382 136.416 82.3669 136.856 80.9561C137.103 80.1607 137.263 79.3475 137.387 78.511C135.052 77.8639 132.567 77.525 130.012 77.3666ZM137.583 76.9761C135.418 76.3946 133.157 76.0651 130.867 75.8899C131.52 74.7749 132.198 73.6562 132.932 72.585C132.944 72.5836 132.955 72.5823 132.967 72.5809C134.598 72.3884 136.391 72.549 138.239 72.8531C137.906 74.1524 137.755 75.4718 137.611 76.7314C137.602 76.8132 137.593 76.8948 137.583 76.9761ZM138.709 71.3781C138.769 71.2238 138.833 71.0696 138.901 70.9156C139.74 69.0085 140.803 67.3007 142.045 65.7768C141.5 65.8929 140.97 66.0312 140.458 66.194C137.886 67.0126 135.859 68.7792 134.12 70.969C135.626 70.9365 137.185 71.1188 138.709 71.3781ZM130.828 72.9966C130.238 73.9287 129.684 74.8715 129.155 75.7862C127.593 75.7153 126.022 75.7041 124.463 75.7235C126.581 74.5962 128.656 73.5782 130.828 72.9966ZM134.149 86.0809C133.796 85.6386 133.433 85.2092 133.052 84.7965C131.531 83.1489 129.824 81.8046 127.981 80.7148C127.39 81.6159 126.778 82.4838 126.143 83.3187C127.687 84.137 129.171 85.088 130.573 86.2026C131.241 86.7339 131.873 87.3004 132.481 87.8836C133.083 87.3192 133.64 86.7195 134.149 86.0809ZM117.725 77.4472C116.342 77.4904 114.983 77.5235 113.667 77.5235C111.445 77.5235 109.205 77.5035 106.968 77.4835C106.22 77.4768 105.473 77.4701 104.727 77.4642C104.993 77.5866 105.255 77.7037 105.513 77.8151C107.316 78.0447 108.892 78.295 110.105 78.4989C110.929 78.6374 111.757 78.784 112.585 78.9419C114.364 78.7185 116.057 78.169 117.725 77.4472ZM93.9257 78.7127C91.6359 78.7999 89.3988 79.053 87.3774 79.5483C85.326 81.0137 83.5531 83.0765 82.2041 85.025C81.3093 86.3176 79.9534 89.5045 79.5944 92.3941C80.1762 93.9575 81.079 95.3237 82.2291 96.0981C83.6869 97.0796 85.7439 97.4459 87.9894 97.5101C89.7193 97.5595 91.466 97.4302 93.0323 97.3143C93.1648 97.3045 93.296 97.2948 93.4258 97.2853C91.9807 91.6763 91.6759 85.5798 92.9215 80.8744C93.1395 80.0508 93.4827 79.3339 93.9257 78.7127ZM81.3876 97.3787C81.3829 97.3755 81.3781 97.3723 81.3733 97.3691C80.8547 97.0199 80.389 96.5914 79.9749 96.1085C80.1359 96.4177 80.3392 96.6768 80.586 96.8801C80.8096 97.0645 81.0781 97.2305 81.3876 97.3787ZM78.8786 88.6791C79.4876 86.7798 80.2948 85.091 80.9443 84.1529C81.6651 83.1118 82.5134 82.0216 83.472 80.99C82.598 81.4596 81.8272 82.011 81.1802 82.653C79.7364 84.086 78.8588 86.0199 78.8785 88.6693C78.8786 88.6725 78.8786 88.6758 78.8786 88.6791ZM95.7275 99.6517C96.9062 103.126 98.5414 106.232 100.507 108.456C101.608 109.701 103.472 110.343 105.627 110.675C107.151 110.911 108.697 110.978 110.092 111.038C110.668 111.063 111.219 111.087 111.731 111.122C117.296 111.493 123.048 111.755 128.518 111.013C133.858 110.29 137.66 107.095 140.701 102.657C141.311 101.765 141.945 100.85 142.602 99.9168C141.545 99.937 140.376 99.9243 139.284 99.8064C138.912 100.107 138.472 100.277 137.954 100.373C137.323 100.49 136.514 100.508 135.487 100.508C135.061 100.508 134.435 100.569 133.652 100.646L133.571 100.654C132.772 100.732 131.849 100.821 130.935 100.85C130.027 100.88 129.089 100.854 128.263 100.687C127.534 100.54 126.795 100.265 126.265 99.7314C126.265 99.7347 126.265 99.738 126.265 99.7414C126.265 100.165 125.922 100.508 125.499 100.508C124.466 100.508 122.549 100.139 120.799 99.487C119.917 99.1581 119.039 98.7432 118.317 98.2393C117.812 97.8869 117.341 97.4617 117.013 96.9554C110.07 98.7536 102.748 99.3991 95.7275 99.6517ZM118.624 96.5151C120.259 96.0442 121.871 95.5045 123.45 94.8857C124.002 96.3371 124.726 97.7187 125.671 98.9945C125.616 98.9819 125.558 98.9753 125.499 98.9753C124.703 98.9753 122.972 98.6617 121.335 98.0512C120.523 97.7489 119.774 97.3875 119.193 96.9826C118.967 96.8245 118.778 96.668 118.624 96.5151ZM170.081 92.4715C169.433 94.9024 168.161 97.0004 166.063 97.9936C162.521 99.6702 158.251 100.521 153.961 100.505C156.153 101.37 158.405 102.088 160.656 102.69C162.899 103.29 165.641 103.938 168.384 104.204C171.139 104.471 173.817 104.343 175.972 103.459C176.901 103.078 177.329 102.079 177.445 100.559C177.501 99.8276 177.478 99.0502 177.438 98.2948C177.427 98.0955 177.415 97.8947 177.403 97.696C177.372 97.1657 177.341 96.6509 177.341 96.2228C177.341 95.3232 177.372 94.3528 177.402 93.3816C177.416 92.9573 177.429 92.5329 177.44 92.1142C175.153 92.5841 172.793 92.7457 170.369 92.5018C170.273 92.4921 170.177 92.482 170.081 92.4715ZM177.464 90.5425C177.467 88.722 177.364 86.9582 176.966 85.3394C176.267 82.4955 174.386 80.7151 171.921 79.5033C171.822 80.3635 171.691 81.1946 171.571 81.9557C171.548 82.1074 171.524 82.2601 171.499 82.4139C171.245 84.0338 170.973 85.7651 170.624 87.4896C170.649 88.6772 170.577 89.8506 170.399 90.9646C170.44 90.9689 170.481 90.9731 170.522 90.9773C172.894 91.2159 175.209 91.0387 177.464 90.5425ZM169.946 82.427C169.96 82.3417 169.973 82.2567 169.986 82.1719C170.01 82.0197 170.034 81.8682 170.058 81.7174C170.201 80.8065 170.352 79.8447 170.448 78.8676C169.781 78.6146 169.089 78.3933 168.382 78.1957C169.046 79.476 169.571 80.9191 169.946 82.427ZM166.303 77.6819C167.97 80.1678 168.983 83.8303 169.087 87.3539C168.856 88.4787 168.591 89.5912 168.275 90.6643C163.817 89.8729 159.67 88.1323 155.601 86.041C158.534 82.8882 161.679 79.9301 165.01 77.4127C165.44 77.4979 165.872 77.587 166.303 77.6819ZM154.53 87.2119C151.696 90.3572 149.076 93.6556 146.692 96.869C147.422 97.3299 148.17 97.766 148.934 98.1789C153.518 97.9699 158.098 97.487 162.476 96.3333C163.361 96.1 164.381 95.8239 165.28 95.3923C166.184 94.9578 166.853 94.418 167.165 93.7241C167.394 93.213 167.605 92.6821 167.8 92.1354C163.067 91.2636 158.712 89.3856 154.53 87.2119ZM181.183 91.0621C181.31 91.8572 181.555 92.6429 181.964 93.4282C182.827 95.0807 184.912 95.575 187.415 95.1294C188.628 94.9134 189.852 94.4846 190.908 93.9369C191.972 93.3848 192.816 92.7374 193.313 92.1134C194.354 90.807 194.96 89.0654 195.244 87.1207C195.459 85.6441 195.484 84.0798 195.385 82.5559C191.126 85.9749 186.36 89.2237 181.183 91.0621ZM195.209 80.7259C190.905 84.2503 186.167 87.5806 181.07 89.473C181.081 88.0793 181.347 86.6436 181.637 85.0922L181.641 85.0707L181.641 85.0704C182.564 80.1385 183.2 74.846 183.139 69.6398C184.438 69.5205 185.753 69.4965 187.084 69.577C189.772 69.7395 191.348 70.6181 192.409 71.9516C193.512 73.3382 194.133 75.3015 194.697 77.8054C194.897 78.694 195.077 79.6834 195.209 80.7259ZM196.593 79.5749C197.061 79.1799 197.524 78.7846 197.98 78.3907C199.79 76.8284 201.175 75.5519 202.038 74.1283C202.873 72.7518 203.238 71.203 202.889 69.0482C202.864 68.8946 202.832 68.6041 202.793 68.244C202.763 67.9606 202.728 67.6342 202.687 67.2975C202.591 66.4925 202.456 65.54 202.262 64.6524C202.064 63.7457 201.819 62.9846 201.533 62.5145C201.391 62.2808 201.278 62.1849 201.219 62.1523L201.217 62.1515C201.192 62.1377 201.173 62.1271 201.1 62.154C199.836 62.6173 198.578 63.0963 197.319 63.5756C192.706 65.3317 188.081 67.0922 183.14 68.1014C184.468 67.9861 185.814 67.9651 187.177 68.0475C190.207 68.2308 192.224 69.2583 193.608 70.9976C194.949 72.6837 195.627 74.96 196.192 77.4686C196.34 78.1248 196.477 78.8325 196.593 79.5749ZM181.018 62.5497C180.712 60.8118 180.213 59.4245 179.463 58.369C179.5 58.4541 179.535 58.539 179.569 58.6234C179.785 59.1564 179.965 59.708 180.13 60.2124L180.137 60.2341C180.308 60.7561 180.46 61.2197 180.629 61.6193C180.768 61.9476 180.898 62.257 181.018 62.5497Z" fill="#6B4D00"/>
<path d="M231.264 244.467C231.475 237.201 231.304 225.452 231.112 218.187C230.927 211.08 227.886 183.624 226.891 177.054C226.832 176.651 226.762 176.251 226.688 175.859C226.688 175.859 226.688 175.852 226.688 175.848C225.459 167.01 219.341 154.865 213.063 148.761C210.152 145.928 206.511 143.22 202.949 141.23C198.787 138.91 191.947 137.005 186.065 136.938C184.06 136.916 179.876 137.075 174.919 137.33C164.343 136.853 147.725 136.491 143.038 136.705C137.16 136.975 130.39 139.114 126.314 141.577C122.822 143.686 119.278 146.523 116.466 149.453C112.682 153.397 109.482 157.677 107.388 162.497C104.78 167.395 102.623 172.171 101.772 177.79C100.777 184.364 97.7364 211.82 97.5514 218.923C97.3628 226.185 97.1889 237.937 97.3998 245.203C97.5699 250.966 96.6303 258.199 97.5958 265.767C97.6513 267.051 97.7623 268.32 97.9658 269.567C98.5576 273.199 100.777 276.677 104.565 277.505C108.013 278.26 115.893 277.628 118.897 275.227C118.871 279.037 118.867 282.847 118.852 286.665C118.811 296.746 118.582 306.834 117.872 316.892C117.528 321.798 116.91 337.449 116.692 340.775C115.142 341.463 111.394 343.372 110.218 344.7C108.857 346.235 109.585 348.244 111.735 348.436C122.429 349.383 142.591 348.529 145.214 348.529C147.836 348.529 147.822 345.984 147.836 344.241C147.851 342.499 147.762 334.989 147.873 332.019C147.973 329.259 148.106 326.496 148.155 323.732C148.206 320.695 148.536 312.024 148.554 308.99C148.624 297.878 150.467 258.961 150.7 247.693C150.959 235.337 151.451 222.988 151.928 210.64C157.381 210.607 162.833 209.837 168.301 209.885C170.902 209.908 173.806 210.033 176.532 209.601C176.621 215.138 177.86 220.706 178.485 226.251C179.022 230.99 179.003 235.762 179.625 240.505C180.28 245.506 181.955 265.664 182.111 270.732C182.266 275.904 182.518 281.072 182.795 286.236C183.343 296.568 183.986 306.9 184.134 317.247C184.216 322.93 184.327 332.5 184.327 338.112C184.327 343.723 184.027 348.662 185.762 348.714C191.381 348.884 200.489 348.94 206.093 348.681C210.78 348.462 214.424 348.743 219.008 347.571C221.671 346.89 220.902 343.664 218.397 342.913C217.48 342.64 213.133 339.969 213.133 339.969C213.133 339.969 212.127 328.305 211.942 318.457C211.746 307.899 211.709 292.636 210.755 282.133C210.584 280.269 210.425 277.75 210.274 274.842C213.577 276.943 220.832 277.476 224.098 276.762C227.886 275.933 230.106 272.46 230.698 268.823C230.901 267.576 231.012 266.304 231.068 265.02C232.033 257.451 231.094 250.219 231.264 244.456V244.467Z" fill="#5B717F"/>
<path d="M207.333 270.473C207.055 270.473 206.815 270.262 206.782 269.981C206.526 267.721 207.27 265.349 208.768 263.64C208.971 263.411 209.319 263.389 209.552 263.588C209.782 263.792 209.804 264.14 209.604 264.373C208.306 265.852 207.666 267.902 207.884 269.855C207.917 270.158 207.699 270.436 207.396 270.469C207.373 270.469 207.355 270.469 207.333 270.469V270.473Z" fill="white"/>
<path d="M209.534 267.78C208.942 267.78 208.35 267.624 207.843 267.328C207.577 267.173 207.488 266.833 207.643 266.57C207.799 266.304 208.139 266.215 208.402 266.37C208.864 266.64 209.434 266.736 209.959 266.629C210.259 266.57 210.551 266.762 210.614 267.066C210.677 267.369 210.481 267.658 210.178 267.72C209.967 267.761 209.748 267.783 209.534 267.783V267.78Z" fill="white"/>
<path d="M217.461 275.844C217.206 275.844 216.981 275.67 216.921 275.411C216.855 275.112 217.04 274.816 217.339 274.749C217.983 274.605 218.579 274.216 218.975 273.691C219.159 273.447 219.507 273.395 219.751 273.58C219.996 273.765 220.047 274.113 219.862 274.357C219.311 275.093 218.483 275.63 217.587 275.833C217.547 275.844 217.506 275.848 217.465 275.848L217.461 275.844Z" fill="white"/>
<path d="M222.548 276.573C222.33 276.573 222.126 276.443 222.038 276.233C221.919 275.951 222.052 275.626 222.337 275.508C222.944 275.252 223.466 274.771 223.762 274.183C223.898 273.909 224.235 273.802 224.509 273.939C224.783 274.076 224.89 274.413 224.753 274.686C224.339 275.508 223.614 276.181 222.766 276.532C222.696 276.562 222.622 276.577 222.552 276.577L222.548 276.573Z" fill="white"/>
<path d="M209.845 275.844C209.845 275.844 209.833 275.844 209.826 275.844C208.883 275.815 207.899 275.219 207.055 274.172C205.99 272.848 205.402 271.139 205.468 269.655C205.165 269.585 204.884 269.433 204.64 269.204C203.589 268.227 203.419 266.049 203.482 264.913C203.556 263.644 204.192 262.579 204.81 261.554C205.269 260.788 205.701 260.067 205.905 259.282C206.097 258.535 206.071 257.71 206.049 256.915L205.261 229.636C204.85 215.39 204.425 200.656 202.598 186.28C202.561 185.977 202.775 185.699 203.079 185.658C203.382 185.621 203.659 185.836 203.7 186.139C205.535 200.567 205.96 215.327 206.371 229.603L207.159 256.882C207.185 257.755 207.211 258.657 206.978 259.556C206.737 260.496 206.241 261.325 205.761 262.124C205.187 263.078 204.647 263.981 204.588 264.976C204.518 266.204 204.773 267.817 205.391 268.387C205.572 268.553 205.761 268.616 206.008 268.583C206.186 268.56 206.36 268.62 206.486 268.749C206.608 268.879 206.663 269.056 206.63 269.234C206.393 270.517 206.911 272.219 207.921 273.473C208.55 274.254 209.256 274.712 209.863 274.731C210.17 274.742 210.411 274.997 210.399 275.304C210.388 275.604 210.144 275.841 209.845 275.841V275.844Z" fill="white"/>
<path d="M121.334 271.213C121.312 271.213 121.293 271.213 121.271 271.213C120.968 271.18 120.746 270.902 120.783 270.599C121.005 268.645 120.361 266.592 119.063 265.116C118.859 264.887 118.885 264.536 119.115 264.332C119.344 264.129 119.695 264.154 119.899 264.384C121.401 266.093 122.141 268.464 121.885 270.724C121.852 271.009 121.612 271.217 121.334 271.217V271.213Z" fill="white"/>
<path d="M119.133 268.52C118.919 268.52 118.7 268.497 118.489 268.457C118.19 268.398 117.994 268.105 118.053 267.802C118.112 267.502 118.404 267.306 118.708 267.365C119.233 267.473 119.803 267.377 120.265 267.106C120.532 266.951 120.868 267.04 121.024 267.306C121.179 267.573 121.09 267.909 120.824 268.065C120.313 268.361 119.721 268.516 119.133 268.516V268.52Z" fill="white"/>
<path d="M111.206 276.584C111.165 276.584 111.124 276.58 111.083 276.569C110.188 276.366 109.356 275.83 108.808 275.093C108.623 274.849 108.675 274.501 108.919 274.317C109.164 274.132 109.511 274.183 109.696 274.427C110.092 274.956 110.688 275.341 111.331 275.485C111.631 275.552 111.816 275.852 111.749 276.148C111.69 276.407 111.461 276.58 111.209 276.58L111.206 276.584Z" fill="white"/>
<path d="M106.119 277.313C106.049 277.313 105.975 277.298 105.904 277.269C105.057 276.913 104.332 276.24 103.918 275.423C103.781 275.149 103.888 274.816 104.162 274.675C104.436 274.535 104.769 274.646 104.909 274.919C105.209 275.508 105.727 275.992 106.334 276.244C106.615 276.362 106.748 276.688 106.633 276.969C106.544 277.183 106.337 277.309 106.123 277.309L106.119 277.313Z" fill="white"/>
<path d="M118.823 276.584C118.523 276.584 118.279 276.347 118.268 276.048C118.257 275.741 118.497 275.485 118.804 275.474C119.411 275.456 120.118 274.997 120.746 274.217C121.756 272.962 122.274 271.261 122.038 269.977C122.004 269.803 122.06 269.622 122.182 269.492C122.304 269.363 122.481 269.3 122.659 269.326C122.907 269.359 123.096 269.3 123.277 269.13C123.895 268.557 124.15 266.944 124.08 265.719C124.02 264.724 123.48 263.821 122.907 262.867C122.426 262.068 121.93 261.239 121.69 260.3C121.46 259.401 121.486 258.498 121.508 257.625L122.296 230.346C122.707 216.07 123.136 201.31 124.967 186.883C125.004 186.579 125.286 186.365 125.589 186.402C125.892 186.439 126.107 186.72 126.07 187.023C124.242 201.399 123.817 216.13 123.406 230.379L122.618 257.658C122.596 258.454 122.57 259.275 122.763 260.026C122.962 260.81 123.399 261.532 123.858 262.297C124.475 263.326 125.112 264.387 125.186 265.656C125.252 266.792 125.082 268.971 124.028 269.948C123.784 270.173 123.502 270.325 123.199 270.399C123.266 271.882 122.677 273.591 121.612 274.916C120.769 275.963 119.785 276.554 118.841 276.588C118.834 276.588 118.83 276.588 118.823 276.588V276.584Z" fill="white"/>
<path d="M254.174 214.917C253.119 211.284 245.643 186.099 243.09 178.349C240.538 170.599 235.118 153.067 233.602 147.789C232.085 142.51 228.97 128.8 226.044 128.8C225.6 128.596 225.008 128.478 224.231 128.478C220.602 128.478 209.046 128.23 200.903 128.53C191.181 128.885 181.449 128.833 171.727 129.018C165.083 129.148 157.976 129.436 150.763 129.736C150.737 127.86 150.703 125.988 150.652 124.113C150.622 123.029 150.252 121.945 148.254 121.83C144.862 121.634 137.541 121.83 136.272 121.864C132.595 121.967 132.373 122.552 132.196 126.865C132.155 127.886 132.133 129.096 132.122 130.424C126.591 130.576 121.168 130.657 116.022 130.59C112.9 130.55 110.444 130.779 108.746 132.133C107.048 133.487 106.26 135.936 105.294 138.607C103.84 142.635 100.415 152.572 98.8203 156.549C96.1531 163.2 87.3376 190.431 85.2993 197.752C82.9576 206.157 79.939 215.468 77.49 223.839C77.0979 225.178 77.4456 226.854 79.2953 226.902C81.1449 226.947 111.786 226.932 118.856 226.917C134.304 226.884 149.723 226.895 165.175 226.943C173.92 226.973 189.65 227.254 191.392 227.298C193.135 227.343 194.178 226.98 194.844 224.994C195.513 223.007 200.981 204.847 203.922 196.324C206.859 187.797 210.962 175.607 213.577 169.152C214.876 165.949 216.855 160.869 218.76 155.979C222.689 162.142 225.844 169.777 226.688 175.855C226.688 175.855 226.688 175.863 226.688 175.866C226.762 176.262 226.832 176.658 226.891 177.061C227.886 183.635 230.927 211.091 231.112 218.194C231.123 218.594 231.134 219.008 231.142 219.433C238.141 219.415 245.136 219.378 252.135 219.308C253.253 219.297 255.224 218.557 254.17 214.92L254.174 214.917Z" fill="#FFB800"/>
<path d="M218.556 157.917C218.416 157.917 218.271 157.891 218.135 157.832C217.569 157.599 217.295 156.952 217.528 156.386C220.458 149.242 223.687 142.121 227.128 135.211C227.401 134.663 228.067 134.437 228.615 134.711C229.162 134.985 229.388 135.651 229.114 136.198C225.7 143.061 222.492 150.137 219.581 157.229C219.403 157.658 218.989 157.917 218.553 157.917H218.556Z" fill="#B58300"/>
<path d="M138.037 159.423C137.012 159.423 136.187 159.419 135.747 159.408C134.027 159.371 133.013 159.23 131.907 158.524C130.561 157.666 130.283 155.968 130.35 148.972C130.376 146.349 130.327 142.598 130.283 138.973C130.25 136.383 130.217 133.709 130.209 131.482C130.209 130.868 130.701 130.372 131.315 130.368C131.926 130.368 132.425 130.864 132.425 131.474C132.432 133.69 132.466 136.361 132.499 138.943C132.543 142.583 132.591 146.346 132.566 148.994C132.547 150.985 132.495 156.267 133.095 156.652C133.675 157.022 134.145 157.151 135.788 157.188C137.475 157.225 145.04 157.181 147.03 157.126C148.98 157.07 149.379 156.77 149.671 156.415C150.041 155.968 150.274 154.699 150.367 152.646C150.463 150.533 150.459 146.923 150.456 144.022C150.456 142.583 150.456 141.296 150.463 140.393C150.5 137.153 150.496 133.868 150.456 130.631C150.448 130.017 150.936 129.514 151.551 129.506C152.161 129.48 152.668 129.987 152.675 130.601C152.72 133.857 152.72 137.16 152.683 140.419C152.671 141.315 152.675 142.591 152.675 144.019C152.675 146.945 152.683 150.581 152.586 152.746C152.464 155.468 152.117 156.937 151.388 157.825C150.404 159.023 149.068 159.29 147.093 159.345C145.598 159.386 140.996 159.419 138.029 159.419L138.037 159.423Z" fill="#B58300"/>
</svg>
