<svg width="349" height="336" viewBox="0 0 349 336" fill="none" xmlns="http://www.w3.org/2000/svg">
<g opacity="0.25">
<path opacity="0.87" fill-rule="evenodd" clip-rule="evenodd" d="M244.237 66.9375C246.3 66.9328 247.264 67.9431 247.129 69.968C246.713 70.1305 246.3 70.314 245.89 70.519C245.358 71.7937 244.854 73.0795 244.374 74.376C242.906 76.5799 241.435 78.7839 239.966 80.9879C239.776 80.8433 239.639 80.6595 239.553 80.4369C239.823 77.8654 240.145 75.2942 240.517 72.723C241.008 71.1893 241.652 69.7198 242.446 68.315C242.942 67.6742 243.54 67.2152 244.237 66.9375Z" fill="#A1DCD8"/>
<path opacity="0.855" fill-rule="evenodd" clip-rule="evenodd" d="M271.236 72.4475C272.853 72.1279 273.679 72.7709 273.715 74.376C272.817 79.2925 270.613 83.5167 267.103 87.0489C267.191 81.8263 268.569 76.9593 271.236 72.4475Z" fill="#A1DCD8"/>
<path opacity="0.885" fill-rule="evenodd" clip-rule="evenodd" d="M203.739 74.3767C204.949 74.2233 205.822 74.6825 206.356 75.7542C207.001 78.9222 206.819 82.0444 205.805 85.1212C204.122 88.2222 202.513 91.3444 200.984 94.4881C201.147 91.2835 201.147 88.0693 200.984 84.8457C201.147 81.7783 201.56 78.7478 202.224 75.7542C202.612 75.136 203.116 74.677 203.739 74.3767Z" fill="#A1DCD8"/>
<path opacity="0.885" fill-rule="evenodd" clip-rule="evenodd" d="M102.95 74.3767C104.159 74.2233 105.032 74.6825 105.567 75.7542C106.212 78.9222 106.03 82.0444 105.016 85.1212C103.333 88.2222 101.724 91.3444 100.195 94.4881C100.357 91.2835 100.357 88.0693 100.195 84.8457C100.357 81.7783 100.77 78.7478 101.434 75.7542C101.823 75.136 102.327 74.677 102.95 74.3767Z" fill="#A1DCD8"/>
<path opacity="0.858" fill-rule="evenodd" clip-rule="evenodd" d="M147.537 82.9166C149.005 82.6882 149.923 83.2849 150.292 84.7073C149.928 88.5538 148.688 92.0895 146.573 95.314C146.091 92.8934 145.769 90.4597 145.609 88.0133C145.579 86.0341 146.222 84.3351 147.537 82.9166Z" fill="#A1DCD8"/>
<path opacity="0.817" fill-rule="evenodd" clip-rule="evenodd" d="M256.634 88.9776C255.576 89.0005 254.568 88.817 253.603 88.4266C253.711 86.4331 254.722 85.6524 256.634 86.0849C256.94 87.0351 256.94 87.9993 256.634 88.9776Z" fill="#A1DCD8"/>
<path opacity="0.869" fill-rule="evenodd" clip-rule="evenodd" d="M180.322 88.4265C180.597 88.4265 180.873 88.4265 181.148 88.4265C181.063 89.6034 180.742 90.7054 180.184 91.7325C180.299 96.8788 178.921 101.562 176.051 105.783C174.781 100.508 175.241 95.3658 177.429 90.355C178.267 89.4585 179.231 88.8158 180.322 88.4265Z" fill="#A1DCD8"/>
<path opacity="0.882" fill-rule="evenodd" clip-rule="evenodd" d="M120.262 96.4155C123.134 96.8307 124.191 98.4837 123.431 101.374C123.034 102.902 122.483 104.371 121.778 105.782C119.941 107.991 118.242 110.287 116.681 112.67C116.725 109.644 116.679 106.613 116.543 103.578C116.966 101.575 117.609 99.6463 118.472 97.793C118.969 97.1522 119.566 96.6932 120.262 96.4155Z" fill="#A1DCD8"/>
<path opacity="0.886" fill-rule="evenodd" clip-rule="evenodd" d="M204.565 114.599C206.695 114.618 207.706 115.72 207.596 117.905C207.472 119.896 207.058 121.825 206.356 123.69C205.044 125.458 203.852 127.295 202.774 129.2C202.254 126.947 201.84 124.651 201.535 122.313C201.868 120.249 202.372 118.229 203.05 116.252C203.425 115.557 203.929 115.006 204.565 114.599Z" fill="#A1DCD8"/>
<path opacity="0.885" fill-rule="evenodd" clip-rule="evenodd" d="M137.619 126.996C139.781 126.804 140.791 127.814 140.65 130.027C140.255 132.984 139.475 135.831 138.308 138.567C136.974 140.685 135.504 142.705 133.9 144.628C133.389 139.264 134.124 134.03 136.104 128.925C136.371 128.065 136.876 127.422 137.619 126.996Z" fill="#A1DCD8"/>
<path opacity="0.832" fill-rule="evenodd" clip-rule="evenodd" d="M95.7435 131.404C97.2971 131.304 98.0318 132.039 97.9475 133.608C97.6698 137.096 96.6138 140.31 94.7793 143.25C93.9729 139.699 93.9729 136.117 94.7793 132.506C95.0829 132.107 95.4044 131.739 95.7435 131.404Z" fill="#A1DCD8"/>
<path opacity="0.85" fill-rule="evenodd" clip-rule="evenodd" d="M266.001 134.16C268.183 134.197 268.963 135.299 268.343 137.466C267.326 140.697 265.673 143.544 263.384 146.006C263.246 145.96 263.108 145.914 262.971 145.868C263.31 143.46 263.541 141.026 263.659 138.568C264.089 136.883 264.869 135.414 266.001 134.16Z" fill="#A1DCD8"/>
<path opacity="0.879" fill-rule="evenodd" clip-rule="evenodd" d="M105.661 139.394C107.176 139.253 108.14 139.896 108.554 141.322C108.79 144.337 108.423 147.276 107.452 150.138C105.964 152.681 104.541 155.251 103.182 157.852C103.317 154.535 103.18 151.229 102.769 147.934C103.11 145.703 103.569 143.499 104.146 141.322C104.412 140.462 104.917 139.82 105.661 139.394Z" fill="#A1DCD8"/>
<path opacity="0.839" fill-rule="evenodd" clip-rule="evenodd" d="M235.421 139.669C236.209 139.547 236.898 139.731 237.487 140.22C237.983 143.746 237.341 147.052 235.559 150.138C234.961 151.149 234.366 152.158 233.768 153.169C233.426 148.987 233.746 144.855 234.732 140.771C234.914 140.363 235.145 139.995 235.421 139.669Z" fill="#A1DCD8"/>
<path opacity="0.778" fill-rule="evenodd" clip-rule="evenodd" d="M221.096 167.494C220.368 167.318 219.908 166.858 219.718 166.117C220.04 163.723 220.454 161.334 220.958 158.954C221.253 157.643 222.032 157.138 223.3 157.439C223.716 158.392 223.578 159.263 222.886 160.056C222.605 162.629 222.007 165.109 221.096 167.494Z" fill="#A1DCD8"/>
<path opacity="0.892" fill-rule="evenodd" clip-rule="evenodd" d="M130.732 168.872C130.548 168.872 130.457 168.963 130.457 169.147C128.423 171.547 126.494 174.027 124.671 176.586C125.763 170.693 127.278 164.908 129.217 159.23C129.971 158.05 130.89 157.866 131.972 158.679C132.156 159.871 132.156 161.067 131.972 162.26C131.575 164.472 131.162 166.676 130.732 168.872Z" fill="#A1DCD8"/>
<path opacity="0.988" fill-rule="evenodd" clip-rule="evenodd" d="M167.098 0.542776C169.762 0.497043 172.425 0.542776 175.087 0.680525C178.364 1.19378 181.164 2.61728 183.49 4.95075C186.107 8.02889 188.405 11.3349 190.377 14.8687C191.107 17.9799 192.713 20.5054 195.198 22.4449C196.289 22.9096 197.391 22.9096 198.504 22.4449C203.036 20.2246 207.72 18.3882 212.555 16.9349C216.839 16.2856 220.789 17.1121 224.401 19.4144C226.186 21.3779 227.52 23.6276 228.396 26.1641C228.941 27.0584 229.724 27.6551 230.738 27.9548C234.005 29.1668 237.311 30.2688 240.656 31.2608C246.609 32.111 252.579 32.8455 258.563 33.4648C264.189 33.8648 268.643 36.2986 271.925 40.7655C274.622 45.4961 274.071 49.8123 270.272 53.7139C267.9 56.5262 265.098 58.7762 261.869 60.4636C259.089 61.5888 256.196 62.1858 253.191 62.2544C250.389 61.9442 247.587 61.6229 244.788 61.2901C236.338 61.2978 227.892 61.2978 219.442 61.2901C213.356 61.0221 207.295 60.4711 201.259 59.6371C195.116 59.1231 189.055 59.5823 183.076 61.0146C178.854 62.988 174.538 64.733 170.128 66.2491C165.808 67.2784 161.446 68.0591 157.042 68.5908C152.026 68.5655 148.537 66.2698 146.573 61.7034C146.156 60.3093 145.697 58.9319 145.195 57.5709C144.542 56.6014 143.624 56.1422 142.44 56.1934C134.138 57.461 126.195 59.8944 118.61 63.4941C111.372 65.662 104.209 68.0497 97.121 70.6571C92.5309 72.2459 88.1229 71.8783 83.8971 69.5551C81.8454 68.0666 81.1567 66.0921 81.8308 63.6319C84.0436 57.9717 87.6709 53.426 92.713 49.9947C94.5952 48.7318 96.5237 47.5381 98.4985 46.4132C95.5534 46.1066 92.9362 45.0503 90.6468 43.245C88.6761 40.3619 88.7682 37.5149 90.9223 34.7045C91.7948 33.832 92.667 32.9598 93.5395 32.0873C101.424 26.6752 109.873 22.2672 118.885 18.8634C121.518 16.9743 124.456 15.7806 127.701 15.2819C128.895 15.1902 130.089 15.0982 131.283 15.0064C133.685 14.4202 136.073 13.7772 138.446 13.0779C141.63 12.9556 144.569 12.0374 147.262 10.323C151.065 6.52715 155.565 3.86391 160.761 2.33351C162.914 1.75221 165.026 1.15521 167.098 0.542776Z" fill="#76CCC6"/>
</g>
<path d="M258.511 104.723C254.398 98.2412 245.385 95.7583 237.666 99.304C230.427 102.63 228.653 110.624 229.517 117.489C230.336 123.984 232.934 129.834 239.43 132.962C240.344 133.731 242.035 133.976 243.071 134.363C243.074 134.813 243.13 135.269 243.225 135.722C242.696 136.925 242.241 138.138 241.993 139.424C241.72 140.835 243.001 142.536 244.776 141.962C245.535 141.716 246.169 141.85 246.939 142.048C248.938 142.562 250.345 140.576 249.494 139.019C249.025 138.161 248.581 137.292 248.217 136.392C248.143 136.211 248.073 136.025 248.003 135.84C248.077 135.55 248.045 135.25 247.94 134.963C252.456 132.815 255.162 131.165 257.349 127.862C261.543 121.536 262.544 111.068 258.515 104.723H258.511Z" fill="#FFB800"/>
<path fill-rule="evenodd" clip-rule="evenodd" d="M243.647 132.963C244.883 132.629 246.644 132.802 247.983 133.247C248.765 133.507 249.188 134.351 248.928 135.133C248.668 135.914 247.823 136.337 247.042 136.077C246.064 135.752 244.926 135.707 244.426 135.843C243.631 136.058 242.812 135.587 242.597 134.792C242.382 133.997 242.852 133.178 243.647 132.963ZM245.848 140.948C246.672 140.938 247.348 141.597 247.359 142.421C247.489 152.504 247.151 158.658 246.82 164.697C246.811 164.856 246.802 165.015 246.793 165.175C246.455 171.345 246.136 177.508 246.34 187.825C246.356 188.649 245.702 189.329 244.878 189.346C244.055 189.362 243.374 188.707 243.357 187.884C243.152 177.461 243.475 171.214 243.815 165.012C243.824 164.853 243.832 164.694 243.841 164.535C244.171 158.515 244.505 152.442 244.376 142.459C244.365 141.635 245.024 140.959 245.848 140.948Z" fill="#B58300"/>
<path d="M259.496 189.968C259.851 189.523 260.149 189.029 260.39 188.486C261.255 186.552 261.481 184.048 259.923 182.506C262.307 178.281 258.993 174.389 255.834 172.718C252.24 170.819 248.175 170.833 244.42 172.017C236.961 174.368 231.32 191.576 228.691 199.995C227.994 187.523 224.897 174.115 217.441 164.758C209.824 155.194 197.567 153.761 187.038 152.696C175.592 151.539 166.872 152.142 155.753 155.733C146.27 158.799 138.599 163.081 134.49 174.17C129.963 186.386 128.908 200.533 127.96 213.667C126.89 228.465 126.908 243.365 127.233 258.202C127.484 269.578 125.264 287.955 135.64 290.365C136.993 292.138 138.388 292.331 139.568 292.657C140.319 292.863 142.48 293.147 143.806 292.229C144.268 292.765 143.895 301.545 143.904 303.584C143.94 311.33 143.961 319.076 144.038 326.825C144.074 330.203 144.22 335.437 143.925 338.162C142.298 339.665 138.266 341.925 138.266 344.801C138.266 347.678 139.809 348.525 144.11 348.525C148.41 348.525 155.44 348.096 160.506 348.096C165.572 348.096 165.262 348.191 166.383 346.796C167.503 345.402 166.666 341.983 166.681 338.949C166.699 335.187 166.628 325.626 166.511 321.867C166.276 314.18 166.085 306.508 166.005 298.818C165.853 284.527 165.656 272.938 165.698 258.648C165.719 251.298 165.775 241.478 165.871 234.12C165.957 227.499 166.192 211.268 166.192 211.268C166.192 211.268 173.458 211.209 174.34 211.111C177.302 210.789 180.291 210.733 183.262 210.607C184.812 210.54 190.219 210.712 190.219 210.712C190.219 210.712 190.431 280.129 190.413 309.273C190.407 316.799 190.592 330.942 190.592 335.976C190.592 341.011 190.226 344.795 190.798 346.539C191.371 348.284 192.485 348.431 194.792 348.431L209.294 348.525C216.067 348.525 218.311 348.235 218.499 345.46C218.687 342.685 214.089 340.324 213.466 338.916C212.843 337.507 213.168 328.927 212.983 325.039C212.637 317.765 212.888 306.968 212.894 299.684C212.906 284.672 212.929 269.667 213.022 254.655C213.066 247.617 212.675 236.351 212.937 229.32C218.158 238.958 227.351 238.563 236.16 232.428C242.457 226.453 246.697 215.723 249.01 201.845C252.39 201.165 257.884 198.566 259.309 194.572C259.732 193.384 259.562 192.631 259.628 191.468C259.014 190.893 258.969 190.392 259.493 189.965L259.496 189.968Z" fill="#5B717F"/>
<path d="M169.893 137.427C170.59 140.748 172.095 143.197 174.825 144.487C177.09 145.555 179.817 145.219 181.63 143.621C183.233 142.209 184.476 140.479 184.928 138.279C185.376 136.078 185.74 132.095 185.432 129.051C185.124 126.006 183.464 122.744 182.047 121.361C180.629 119.977 178.452 119.563 176.047 120.194C173.646 120.825 172.519 121.76 171.451 123.739C170.915 124.734 170.471 125.954 170.135 127.302C167.397 127.894 164.257 128.903 164.135 132.035C164.012 135.15 167.016 136.993 169.893 137.424V137.427Z" fill="#5B717F"/>
<path fill-rule="evenodd" clip-rule="evenodd" d="M178.777 125.811C179.169 125.685 179.589 125.901 179.715 126.293C180.738 129.474 181.225 132.605 181.242 136.198C181.244 136.557 180.989 136.867 180.636 136.934C179.348 137.178 177.475 137.262 176.214 137.248C175.802 137.244 175.472 136.906 175.477 136.494C175.482 136.082 175.819 135.752 176.231 135.757C177.247 135.768 178.642 135.712 179.743 135.566C179.674 132.384 179.208 129.588 178.296 126.749C178.169 126.357 178.385 125.937 178.777 125.811ZM245.192 177.193C244.643 176.878 244.161 176.788 243.737 176.89C243.337 176.986 242.934 176.739 242.838 176.339C242.742 175.938 242.989 175.536 243.39 175.44C244.296 175.222 245.171 175.462 245.933 175.899C246.409 176.171 246.861 176.531 247.282 176.939C247.976 176.442 248.616 176.14 249.32 175.965C250.137 175.76 251.009 175.736 252.042 175.707L252.074 175.707C252.486 175.695 252.829 176.02 252.841 176.431C252.852 176.843 252.528 177.186 252.116 177.197C251.024 177.228 250.318 177.252 249.682 177.411C249.228 177.525 248.791 177.713 248.281 178.061C249.361 179.441 250.212 181.098 250.614 182.319C250.849 183.036 251.016 183.81 251.114 184.583C251.395 184.656 251.819 184.701 252.39 184.679C253.188 184.648 254.144 184.494 255.108 184.233C256.071 183.973 257.016 183.614 257.798 183.191C258.595 182.758 259.153 182.296 259.429 181.863C259.65 181.516 260.111 181.414 260.459 181.636C260.806 181.857 260.908 182.318 260.686 182.665C260.212 183.409 259.398 184.02 258.508 184.502C257.604 184.992 256.546 185.389 255.497 185.673C254.447 185.957 253.379 186.134 252.447 186.169C252.032 186.185 251.611 186.175 251.218 186.12C251.219 186.251 251.218 186.381 251.215 186.51C251.198 187.185 251.123 187.835 250.981 188.407C250.842 188.969 250.626 189.508 250.293 189.917L249.714 189.446L250.293 189.917C250.293 189.917 250.293 189.917 250.293 189.917C249.738 190.598 249.038 190.926 248.274 190.774C247.972 190.714 247.695 190.584 247.445 190.416C247.49 190.206 247.601 189.958 247.82 189.668C248.068 189.339 248.003 188.871 247.674 188.623C247.345 188.375 246.878 188.441 246.63 188.77C246.544 188.884 246.465 188.998 246.395 189.113C246.536 188.194 246.56 187.241 246.46 186.289L245.718 186.367L244.999 186.566C245.178 187.213 245.658 188.339 246.312 189.256C245.998 189.823 245.878 190.393 245.944 190.948C245.293 192.837 244.105 194.453 242.468 195.441C242.115 195.654 241.657 195.541 241.444 195.188C241.231 194.836 241.344 194.377 241.697 194.164C243.983 192.785 245.32 189.711 244.976 186.445C244.936 186.059 245.198 185.706 245.579 185.634C245.96 185.562 246.333 185.794 246.437 186.168C246.601 186.761 247.128 187.952 247.781 188.716C248.114 189.107 248.388 189.276 248.565 189.311C248.652 189.329 248.834 189.347 249.136 188.976L249.136 188.975C249.276 188.804 249.421 188.501 249.533 188.048C249.643 187.605 249.709 187.068 249.724 186.473C249.734 186.072 249.72 185.654 249.683 185.231C249.675 185.188 249.671 185.145 249.671 185.102C249.593 184.31 249.435 183.508 249.197 182.785C248.819 181.637 247.945 179.965 246.857 178.672C246.314 178.027 245.745 177.51 245.192 177.193ZM247.07 192.901C246.589 192.476 246.156 191.919 245.993 191.225C245.972 191.134 245.956 191.041 245.944 190.948C246.125 190.425 246.265 189.881 246.361 189.323C246.453 189.449 246.548 189.57 246.646 189.685C246.87 189.946 247.137 190.21 247.445 190.416C247.405 190.599 247.415 190.754 247.446 190.886C247.52 191.205 247.757 191.541 248.158 191.869C248.553 192.192 249.047 192.457 249.511 192.645C249.99 192.839 250.36 192.92 250.497 192.927C250.496 192.927 250.496 192.927 250.495 192.927L250.458 193.672L250.497 192.927C253.307 193.066 256.262 192.271 258.422 190.4C258.733 190.13 259.204 190.164 259.474 190.475C259.743 190.786 259.71 191.257 259.398 191.527C256.892 193.698 253.535 194.571 250.421 194.416L250.42 194.416C250.043 194.397 249.495 194.248 248.951 194.028C248.748 193.945 248.535 193.849 248.321 193.739C248.37 193.616 248.423 193.536 248.464 193.492C248.744 193.19 248.726 192.718 248.424 192.438C248.122 192.158 247.65 192.176 247.37 192.478C247.253 192.604 247.153 192.747 247.07 192.901ZM248.294 198.4C249.45 199.432 250.972 199.789 252.426 199.732C253.88 199.675 255.343 199.205 256.472 198.483C256.819 198.261 256.92 197.8 256.699 197.453C256.477 197.106 256.016 197.004 255.669 197.226C254.765 197.804 253.56 198.195 252.368 198.242C251.175 198.288 250.073 197.99 249.286 197.288L249.286 197.287C248.623 196.696 248.28 195.868 248.19 195.083C248.145 194.692 248.166 194.331 248.23 194.04C248.256 193.92 248.288 193.82 248.321 193.739C247.943 193.544 247.559 193.306 247.214 193.023C247.166 192.984 247.117 192.943 247.07 192.901C246.931 193.155 246.835 193.438 246.773 193.722C246.671 194.188 246.647 194.714 246.708 195.252C246.831 196.323 247.303 197.517 248.294 198.4ZM248.294 198.4L248.79 197.844L248.293 198.4C248.293 198.4 248.294 198.4 248.294 198.4ZM151.332 190.227C151.71 190.392 151.882 190.832 151.717 191.209C151.47 191.773 151.216 192.993 150.981 194.855C150.751 196.682 150.549 199.039 150.374 201.807C150.025 207.341 149.786 214.482 149.64 222.246C149.349 237.772 149.429 255.756 149.735 268.286C149.759 269.266 149.787 270.15 150.019 270.958C150.284 271.875 150.802 272.654 151.416 273.515C151.468 273.588 151.521 273.662 151.574 273.736C152.131 274.513 152.75 275.376 153.151 276.389L152.458 276.664L153.151 276.389C153.692 277.753 153.752 279.302 153.432 280.712C153.119 282.096 152.425 283.407 151.379 284.301C151.452 284.692 151.497 285.093 151.502 285.503C151.502 285.503 151.502 285.503 151.502 285.503L150.757 285.513L151.502 285.502C151.502 285.503 151.502 285.503 151.502 285.503C151.533 287.623 150.473 289.59 149.044 290.822C149.045 290.821 149.045 290.821 149.045 290.821L148.557 290.257L149.044 290.822C147.62 292.052 145.884 292.617 144.232 292.881C144.023 292.915 143.809 292.858 143.645 292.724C142.565 291.849 141.49 290.559 140.626 289.137C139.764 287.715 139.081 286.11 138.833 284.589C138.767 284.183 139.043 283.799 139.449 283.733C139.856 283.667 140.239 283.943 140.305 284.349C140.513 285.627 141.105 287.051 141.901 288.363C142.624 289.554 143.49 290.61 144.33 291.351C144.219 291.372 144.108 291.391 143.996 291.409L144.114 292.145L144.584 291.566C144.499 291.497 144.415 291.426 144.33 291.351C145.708 291.093 147.016 290.603 148.07 289.692L148.071 289.692C149.211 288.709 150.034 287.145 150.011 285.524L150.011 285.523C149.995 284.299 149.525 283.126 148.996 281.855L149.684 281.568L148.996 281.857C148.729 281.22 148.594 280.328 148.504 279.527C148.457 279.114 148.421 278.698 148.387 278.321C148.354 277.939 148.324 277.603 148.291 277.327C148.242 276.919 148.533 276.547 148.942 276.498C149.351 276.448 149.722 276.74 149.772 277.149C149.808 277.449 149.839 277.806 149.872 278.174L149.873 278.191C149.907 278.57 149.942 278.968 149.986 279.361C150.077 280.172 150.198 280.865 150.372 281.28L150.372 281.281C150.552 281.713 150.742 282.169 150.915 282.648C151.411 282.038 151.781 281.251 151.978 280.383C152.24 279.226 152.181 277.987 151.765 276.938C151.434 276.104 150.921 275.387 150.347 274.585C150.299 274.517 150.25 274.449 150.201 274.38C149.589 273.521 148.929 272.558 148.586 271.37L148.585 271.369C148.294 270.353 148.267 269.281 148.244 268.338L148.244 268.323L148.244 268.323C147.938 255.771 147.857 237.765 148.149 222.218C148.295 214.445 148.534 207.279 148.886 201.713C149.061 198.931 149.265 196.54 149.501 194.668C149.733 192.831 150.005 191.402 150.35 190.612C150.515 190.235 150.955 190.062 151.332 190.227ZM211.177 190.322C211.502 190.069 211.971 190.128 212.223 190.453C212.573 190.903 212.823 191.597 213.019 192.361C213.222 193.153 213.394 194.126 213.54 195.215C213.832 197.395 214.028 200.104 214.158 202.897C214.418 208.487 214.413 214.474 214.353 217.37V217.37C214.249 222.372 214.139 229.463 214.139 233.397C214.139 233.808 213.805 234.142 213.393 234.142C212.981 234.142 212.647 233.808 212.647 233.397C212.647 229.447 212.758 222.343 212.862 217.339C212.921 214.468 212.926 208.516 212.668 202.966C212.539 200.19 212.345 197.53 212.062 195.412C211.92 194.353 211.757 193.444 211.574 192.732C211.384 191.992 211.194 191.559 211.046 191.368C210.793 191.043 210.852 190.575 211.177 190.322ZM241.687 199.801C242.037 199.582 242.497 199.689 242.715 200.038C243.283 200.948 244.264 201.414 245.449 201.572C246.637 201.73 247.931 201.561 248.934 201.296C249.332 201.19 249.74 201.428 249.845 201.826C249.951 202.224 249.713 202.632 249.315 202.738C248.187 203.036 246.689 203.242 245.252 203.051C243.814 202.859 242.339 202.251 241.45 200.828C241.232 200.479 241.338 200.019 241.687 199.801ZM228.3 200.054C228.703 200.14 228.959 200.536 228.873 200.939C228.141 204.37 226.14 214.69 225.715 221.542C225.689 221.953 225.335 222.265 224.924 222.24C224.513 222.214 224.2 221.86 224.226 221.449C224.659 214.477 226.681 204.063 227.415 200.628C227.501 200.225 227.897 199.968 228.3 200.054ZM132.852 283.278C133.262 283.239 133.627 283.539 133.666 283.949C133.838 285.744 134.5 287.462 135.512 288.78C135.763 289.106 135.701 289.575 135.374 289.825C135.048 290.076 134.58 290.015 134.329 289.688C133.135 288.133 132.379 286.145 132.181 284.092C132.142 283.682 132.442 283.318 132.852 283.278Z" fill="white"/>
</svg>
