<svg width="349" height="335" viewBox="0 0 349 335" fill="none" xmlns="http://www.w3.org/2000/svg">
<g clip-path="url(#clip0_93_361)">
<path opacity="0.25" d="M283.102 243.049C282.743 237.896 281.86 232.766 280.477 227.791C277.726 217.911 273.134 208.571 267.577 199.978C261.951 191.273 255.343 183.225 248.277 175.644C260.826 169.252 273.147 158.611 275.27 144.205C277.713 127.625 265.415 112.847 249.877 108.53C242.46 106.468 234.62 106.572 227.113 108.175C233.141 99.7815 240.419 92.2955 246.184 83.6901C252.445 74.3412 256.312 63.0603 254.785 51.7146C253.384 41.2939 244.497 27.3592 232.164 31.5301C226.148 33.5658 220.358 36.9501 215.039 40.3689C209.56 43.8872 204.37 47.8679 199.462 52.1382C191.527 59.0407 184.353 66.7385 177.602 74.795C178.895 65.0874 179.384 55.2761 179.007 45.4864C178.735 38.4802 178.017 31.4912 176.91 24.5671C176.05 19.1687 174.977 13.6061 172.162 8.83007C169.308 3.99356 164.668 0.669806 159.024 0.081991C153.216 -0.523113 147.443 2.07451 142.734 5.25131C137.631 8.69608 133.186 13.0658 128.943 17.496C124.714 21.9133 120.748 26.6072 117.259 31.6295C111.057 40.5462 106.478 50.9237 106.019 61.7723C99.8007 55.9461 94.62 48.9657 87.2122 44.475C78.226 39.0334 67.7262 38.7265 59.3627 45.4648C50.9559 52.2376 48.1277 63.0085 47.0466 73.2866C45.8531 84.6453 45.2909 96.9289 49.0315 107.894C51.5873 115.385 56.3485 122.27 62.939 126.544C48.3872 132.842 35.7295 143.094 26.5573 156.104C20.8361 164.212 16.1138 173.643 15.5602 183.688C15.0586 192.76 18.7128 202.221 26.3584 207.46C32.9402 211.972 41.1307 212.214 48.6856 210.269C40.7675 225.63 29.9131 242.262 38.9945 259.157C47.1763 274.371 66.9045 278.914 82.3861 273.68C89.5517 271.259 96.0168 267.222 101.721 262.304C101.409 267.715 101.496 273.135 102.067 278.555C102.512 282.774 103.139 287.014 104.129 291.141C105.025 294.871 107.092 297.888 110.975 298.869C117.189 300.438 124.571 298.303 130.193 295.658C136.031 292.913 141.082 288.604 144.974 283.491C148.637 278.676 151.063 273.114 152.083 267.205C161.939 275.854 167.366 289.322 179.686 295.126C196.586 303.083 214.036 291.699 226.935 281.304C228.782 279.817 230.456 278.127 231.342 275.888C232.315 273.442 232.099 270.879 231.558 268.355C230.706 264.387 229.634 260.445 228.57 256.512C231.861 257.839 234.914 260.009 238.041 261.513C243.027 263.916 248.311 265.507 253.795 266.254C263.006 267.512 276.982 267.624 281.463 257.623C283.491 253.098 283.439 247.907 283.102 243.049Z" fill="#76CCC6"/>
</g>
<path d="M267.245 160.534C264.326 156.788 258.831 155.802 254.093 155.971C253.817 155.962 253.549 155.95 253.266 155.95C248.018 155.95 240.344 156.546 233.77 157.815C231.003 156.065 227.897 154.923 224.812 154.332C222.668 149.153 221.079 145.054 218.333 138.622C216.451 134.215 213.989 130.108 211.091 126.519C208.356 123.126 204.482 120.42 200.494 119.134C198.796 118.588 197.186 118.165 195.526 117.877C195.519 117.877 195.516 117.877 195.509 117.873C189.964 116.896 181.714 116.218 177.634 116.033C173.342 115.84 165.838 115.627 161.535 115.783C161.401 115.787 161.274 115.795 161.15 115.803C158.164 115.836 155.174 115.967 152.195 116.21C148.076 116.547 143.275 116.789 140.328 120.65C137.25 124.679 136.683 130.634 137.25 135.776C137.462 137.686 137.84 139.55 138.346 141.37C136.839 146.639 134.617 154.582 132.356 162.871C129.218 173.262 117.319 216.637 116.261 220.3C115.203 223.968 112.497 226.637 109.829 228.933C108.042 230.469 73.0286 250.138 54.372 260.123C53.8554 260.398 53.5193 260.804 53.3282 261.264C52.8435 261.95 52.6772 262.874 52.9921 263.938C56.4736 275.721 58.0587 284.815 62.1913 295.805C62.4354 296.454 63.7198 299.247 64.0347 299.58C64.7989 300.393 65.6764 300.512 66.66 300.261C67.6683 300.003 68.1743 298.729 68.2167 297.666C68.2521 296.816 68.3477 295.924 68.4856 295.013C80.4906 287.484 95.6976 280.391 104.076 275.701C120.995 266.23 132.36 259.65 138.619 252.011C141.729 248.216 145.55 238.45 148.915 223.836C150.868 215.355 154.151 200.138 156.759 187.912C158.21 188.556 159.699 189.222 161.203 189.904C163.241 196.623 165.208 203.194 166.637 208.147C169.479 218.008 174.517 238.244 174.927 242.08C175.338 245.916 176.137 254.323 176.003 258.172C175.914 260.751 171.69 320.53 171.131 344.368C171.117 345.029 171.28 345.555 171.548 345.957C171.863 346.766 172.497 347.415 173.466 347.493C183.744 348.306 193.099 347.978 203.424 347.633C204.032 347.612 206.742 347.271 207.128 347.058C208.062 346.54 208.487 345.637 208.653 344.487C208.826 343.304 207.995 342.285 207.16 341.842C206.495 341.489 205.815 341.049 205.14 340.56C206.452 329.874 207.234 310.558 207.949 299.793C209.389 278.05 210.192 246.29 207.645 236.17C206.378 231.139 204.849 220.678 201.354 206.106C199.617 198.865 196.772 189.517 194.168 181.373C198.778 179.71 203.933 177.644 207.779 175.627C209.336 177.935 211.186 179.853 213.727 180.942C217.951 182.753 223.867 183.932 232.486 182.412C234.711 182.018 242.23 177.738 247.042 173.923C247.081 175.377 247.668 176.95 248.372 177.779C249.26 178.831 251.051 179.41 252.561 179.435C254.178 179.73 256.142 179.25 257.748 178.712C258.732 180.276 261.683 180.539 263.569 178.437C265.454 179.435 268.009 177.2 269.272 174.913C271.597 170.707 269.937 163.984 267.245 160.525V160.534ZM194.716 147.35C196.085 149.609 197.639 152.389 198.941 155.108C196.92 155.346 194.78 155.609 192.664 155.893C193.343 153.071 193.956 150.171 194.72 147.35H194.716ZM249.816 171.442C250.201 171.031 250.52 170.641 250.757 170.28C251.284 169.479 251.627 169.91 252.087 170.571C252.505 171.171 252.919 171.775 253.343 172.362C253.481 172.555 253.711 172.773 253.994 172.995C253.987 173.274 253.963 173.545 253.909 173.804C253.12 172.703 251.532 172.309 250.255 171.988C250.106 171.795 249.961 171.606 249.812 171.442H249.816Z" fill="#5B717F"/>
<path d="M166.463 95.4278C166.167 97.814 166.873 99.9702 167.929 102.948C168.984 105.926 171.728 108.386 177.133 108.612C183.823 108.891 186.801 102.981 188.21 97.3252C189.208 97.432 190.206 97.5388 191.204 97.6456C191.902 97.7195 192.477 97.2718 192.415 96.6147C191.939 91.6164 190.592 86.733 188.403 82.1002C187.926 80.6422 187.253 79.2827 186.325 78.0793C181.987 72.4649 174.858 74.5555 171.288 79.7427C170.237 81.2706 169.301 83.09 168.533 85.0614C167.169 84.7616 165.764 84.3098 164.343 84.5521C161.596 85.0245 159.579 87.7023 159.752 90.491C159.969 94.0067 163.214 95.0581 166.463 95.4278Z" fill="#5B717F"/>
<path fill-rule="evenodd" clip-rule="evenodd" d="M138.299 142.242C138.682 142.089 139.116 142.275 139.269 142.658L138.576 142.934L137.884 143.211C137.731 142.829 137.917 142.395 138.299 142.242ZM144.064 153.926C144.704 155.301 145.312 156.619 145.901 157.893C149.754 166.236 152.745 172.715 157.977 180.846C158.9 182.281 160.447 183.744 162.247 184.92C164.046 186.097 166.033 186.946 167.802 187.211C168.96 187.384 170.645 187.341 172.684 187.108C174.71 186.877 177.037 186.465 179.457 185.926C184.302 184.846 189.474 183.27 193.29 181.659C193.67 181.499 194.107 181.677 194.267 182.056C194.427 182.436 194.25 182.873 193.87 183.033C189.952 184.687 184.691 186.288 179.782 187.381C177.325 187.929 174.944 188.351 172.853 188.59C170.775 188.827 168.935 188.888 167.581 188.686C165.543 188.38 163.354 187.426 161.43 186.169C159.508 184.912 157.788 183.31 156.722 181.653C151.432 173.43 148.396 166.856 144.544 158.512C143.956 157.239 143.349 155.924 142.712 154.556C141.676 152.33 140.468 149.491 139.521 147.215C139.048 146.076 138.638 145.076 138.348 144.36C138.202 144.002 138.086 143.715 138.007 143.517C137.967 143.419 137.936 143.342 137.915 143.29L137.884 143.211C137.884 143.211 137.884 143.211 138.576 142.934C139.269 142.658 139.268 142.657 139.269 142.658L139.3 142.735C139.32 142.786 139.351 142.862 139.39 142.96C139.469 143.156 139.584 143.442 139.729 143.798C140.019 144.511 140.427 145.508 140.898 146.643C141.843 148.914 143.041 151.729 144.064 153.926Z" fill="white"/>
<path fill-rule="evenodd" clip-rule="evenodd" d="M165.748 139.471C166.13 139.316 166.565 139.5 166.72 139.882C170.256 148.594 172.633 153.358 176.716 160.021C176.932 160.372 176.821 160.831 176.47 161.046C176.119 161.261 175.66 161.151 175.445 160.8C171.312 154.057 168.899 149.218 165.338 140.443C165.183 140.061 165.367 139.626 165.748 139.471Z" fill="white"/>
<path fill-rule="evenodd" clip-rule="evenodd" d="M176.161 160.039C186.899 156.903 208.384 152.378 222.381 152.979C222.792 152.996 223.111 153.344 223.094 153.756C223.076 154.167 222.728 154.486 222.317 154.469C208.567 153.879 187.269 158.348 176.579 161.471C176.184 161.586 175.77 161.36 175.654 160.964C175.539 160.569 175.766 160.155 176.161 160.039Z" fill="white"/>
<path fill-rule="evenodd" clip-rule="evenodd" d="M226.31 169.538C226.722 169.551 227.045 169.895 227.032 170.307C226.959 172.606 226.556 175 225.491 177.054C224.43 179.1 222.606 180.841 220.388 181.213C218.72 181.493 216.736 180.975 215.572 180.393C214.332 179.773 213.386 178.618 213.027 177.615C212.889 177.227 213.091 176.801 213.479 176.662C213.866 176.523 214.293 176.725 214.432 177.113C214.661 177.753 215.342 178.61 216.239 179.059C217.212 179.545 218.872 179.955 220.141 179.742L220.141 179.742C221.744 179.473 223.239 178.158 224.167 176.368C225.091 174.586 225.472 172.438 225.541 170.26C225.554 169.848 225.898 169.525 226.31 169.538Z" fill="white"/>
<path fill-rule="evenodd" clip-rule="evenodd" d="M231.92 169.267C232.332 169.25 232.679 169.57 232.696 169.982C232.773 171.836 232.44 174.328 230.336 177.754C229.243 179.535 227.787 180.676 226.22 181.128C224.648 181.582 223.019 181.325 221.65 180.407C221.308 180.177 221.217 179.714 221.446 179.372C221.676 179.03 222.139 178.939 222.481 179.168C223.487 179.843 224.661 180.026 225.806 179.695C226.957 179.363 228.132 178.495 229.065 176.974C231.016 173.797 231.271 171.598 231.206 170.044C231.189 169.632 231.509 169.285 231.92 169.267Z" fill="white"/>
<path fill-rule="evenodd" clip-rule="evenodd" d="M236.397 175.702C236.745 175.922 236.849 176.382 236.63 176.731C236.103 177.567 235.676 178.109 235.177 178.589C234.765 178.987 234.308 179.334 233.748 179.76C233.655 179.832 233.558 179.905 233.459 179.981L233.006 179.389L233.46 179.981C232.618 180.626 231.528 181.007 230.459 181.029C229.385 181.052 228.268 180.71 227.471 179.827C227.195 179.521 227.219 179.05 227.524 178.774C227.83 178.498 228.302 178.522 228.578 178.828C229.019 179.316 229.678 179.554 230.428 179.538C231.182 179.522 231.964 179.248 232.552 178.797L232.553 178.797C232.658 178.716 232.758 178.639 232.853 178.567C233.419 178.136 233.797 177.848 234.143 177.515C234.53 177.143 234.883 176.705 235.368 175.936C235.588 175.587 236.048 175.483 236.397 175.702Z" fill="white"/>
<path fill-rule="evenodd" clip-rule="evenodd" d="M233.772 158.03C234.102 157.784 234.569 157.851 234.816 158.181C235.456 159.037 236.306 160.663 236.997 162.415C237.685 164.161 238.264 166.152 238.283 167.732C238.288 168.144 237.959 168.482 237.547 168.487C237.135 168.492 236.797 168.162 236.792 167.75C236.776 166.447 236.279 164.661 235.609 162.962C234.941 161.267 234.149 159.779 233.622 159.074C233.375 158.744 233.442 158.277 233.772 158.03Z" fill="white"/>
<path fill-rule="evenodd" clip-rule="evenodd" d="M260.723 169.772C261.135 169.764 261.475 170.092 261.483 170.504C261.505 171.625 261.223 173.25 260.781 174.746C260.558 175.501 260.288 176.245 259.982 176.896C259.681 177.536 259.324 178.133 258.91 178.556C258.622 178.85 258.15 178.855 257.856 178.567C257.561 178.278 257.557 177.806 257.845 177.512C258.089 177.263 258.361 176.839 258.632 176.262C258.898 175.695 259.143 175.025 259.351 174.323C259.769 172.905 260.009 171.443 259.992 170.532C259.984 170.12 260.311 169.78 260.723 169.772Z" fill="white"/>
<path fill-rule="evenodd" clip-rule="evenodd" d="M265.746 169.782C266.153 169.715 266.537 169.99 266.604 170.397C266.889 172.126 266.442 175.264 264.562 178.416C264.351 178.77 263.893 178.885 263.54 178.674C263.186 178.464 263.07 178.006 263.281 177.652C265.017 174.742 265.349 171.957 265.132 170.639C265.065 170.233 265.34 169.849 265.746 169.782Z" fill="white"/>
<path fill-rule="evenodd" clip-rule="evenodd" d="M255.579 161.657C253.538 160.861 250.191 160.609 245.438 161.196C245.029 161.246 244.657 160.956 244.607 160.547C244.556 160.138 244.847 159.766 245.255 159.715C250.087 159.119 253.732 159.336 256.121 160.267C257.326 160.737 258.261 161.408 258.84 162.298C259.427 163.2 259.598 164.251 259.406 165.37L259.406 165.37C259.177 166.711 258.73 167.708 258.064 168.406C257.389 169.112 256.558 169.439 255.703 169.565C254.865 169.688 253.975 169.621 253.14 169.521C252.812 169.482 252.5 169.439 252.197 169.397C251.688 169.326 251.204 169.259 250.715 169.22C250.304 169.187 249.998 168.828 250.031 168.417C250.064 168.007 250.423 167.7 250.834 167.733C251.359 167.775 251.926 167.854 252.469 167.928C252.762 167.969 253.048 168.008 253.317 168.04C254.128 168.138 254.854 168.183 255.486 168.09C256.102 167.999 256.596 167.783 256.985 167.375C257.383 166.959 257.739 166.273 257.936 165.119C258.074 164.312 257.942 163.653 257.59 163.111C257.23 162.557 256.59 162.05 255.579 161.657Z" fill="white"/>
<path d="M238.611 199.878L237.02 199.126C235.17 198.246 233.625 197.465 232.383 196.785C231.142 196.105 230.121 195.455 229.321 194.837C228.521 194.218 227.904 193.599 227.471 192.982C227.038 192.364 226.707 191.686 226.479 190.947C226.012 189.436 226.059 187.993 226.618 186.618C227.178 185.243 228.108 184.284 229.409 183.743C230.129 183.443 230.869 183.335 231.628 183.417C232.388 183.5 233.103 183.765 233.772 184.212C234.044 183.373 234.451 182.642 234.992 182.017C235.533 181.393 236.164 180.931 236.884 180.631C238.185 180.09 239.428 180.144 240.613 180.793C241.797 181.442 242.623 182.522 243.09 184.033C243.318 184.772 243.434 185.539 243.438 186.336C243.442 187.132 243.304 188.064 243.025 189.133C242.746 190.201 242.313 191.455 241.727 192.896C241.141 194.337 240.375 196.079 239.428 198.123L238.611 199.878Z" fill="#ED5498"/>
<path d="M302.633 202.923L304.8 201.899C307.319 200.701 309.423 199.638 311.114 198.712C312.804 197.786 314.194 196.901 315.284 196.059C316.373 195.216 317.213 194.374 317.803 193.533C318.392 192.692 318.842 191.768 319.153 190.762C319.789 188.705 319.725 186.74 318.964 184.868C318.202 182.995 316.935 181.69 315.164 180.953C314.184 180.545 313.176 180.397 312.142 180.509C311.107 180.622 310.134 180.983 309.223 181.591C308.853 180.449 308.299 179.453 307.561 178.603C306.824 177.753 305.966 177.124 304.986 176.716C303.214 175.979 301.521 176.052 299.908 176.936C298.295 177.82 297.17 179.291 296.535 181.347C296.224 182.354 296.066 183.399 296.061 184.483C296.056 185.568 296.243 186.837 296.624 188.292C297.004 189.746 297.593 191.455 298.391 193.416C299.189 195.378 300.232 197.751 301.521 200.534L302.633 202.923Z" fill="#ED5498"/>
<path d="M248.673 198.885L247.797 196.69C246.783 194.133 245.968 191.958 245.352 190.163C244.735 188.368 244.292 186.812 244.023 185.494C243.754 184.177 243.647 183.036 243.703 182.073C243.759 181.109 243.949 180.19 244.273 179.315C244.936 177.527 246.005 176.292 247.481 175.609C248.957 174.926 250.465 174.968 252.005 175.737C252.857 176.162 253.59 176.776 254.205 177.579C254.82 178.382 255.266 179.302 255.541 180.341C256.38 179.858 257.262 179.6 258.187 179.566C259.112 179.532 260 179.727 260.852 180.152C262.392 180.921 263.457 182.162 264.045 183.875C264.634 185.589 264.597 187.339 263.935 189.127C263.611 190.002 263.167 190.794 262.603 191.504C262.039 192.215 261.253 192.909 260.244 193.589C259.235 194.269 257.957 194.966 256.411 195.682C254.865 196.397 252.944 197.208 250.648 198.113L248.673 198.885Z" fill="#F38AB9"/>
<path d="M281.494 200.122L282.37 197.927C283.384 195.37 284.199 193.195 284.815 191.4C285.432 189.605 285.875 188.049 286.144 186.731C286.413 185.414 286.52 184.273 286.464 183.31C286.408 182.346 286.218 181.427 285.894 180.552C285.232 178.764 284.163 177.529 282.687 176.846C281.211 176.163 279.703 176.206 278.163 176.974C277.311 177.399 276.577 178.013 275.962 178.816C275.347 179.619 274.902 180.539 274.626 181.578C273.787 181.095 272.906 180.837 271.98 180.803C271.055 180.769 270.167 180.964 269.315 181.389C267.775 182.158 266.711 183.399 266.122 185.112C265.534 186.826 265.57 188.576 266.233 190.364C266.557 191.239 267.001 192.031 267.564 192.741C268.128 193.452 268.915 194.146 269.923 194.826C270.932 195.506 272.21 196.203 273.756 196.919C275.302 197.634 277.223 198.445 279.519 199.35L281.494 200.122Z" fill="#F38AB9"/>
<path d="M291.556 201.115L293.147 200.363C294.997 199.483 296.542 198.702 297.783 198.022C299.025 197.342 300.045 196.692 300.846 196.073C301.646 195.455 302.263 194.836 302.696 194.219C303.129 193.601 303.46 192.922 303.688 192.183C304.154 190.673 304.108 189.23 303.549 187.855C302.989 186.48 302.059 185.521 300.758 184.98C300.038 184.68 299.298 184.571 298.539 184.654C297.779 184.737 297.064 185.002 296.395 185.448C296.123 184.61 295.716 183.878 295.175 183.254C294.633 182.63 294.003 182.168 293.283 181.868C291.982 181.327 290.739 181.38 289.554 182.03C288.369 182.679 287.544 183.759 287.077 185.269C286.849 186.008 286.733 186.776 286.729 187.573C286.725 188.369 286.863 189.301 287.142 190.369C287.421 191.438 287.854 192.692 288.44 194.133C289.026 195.574 289.792 197.316 290.739 199.36L291.556 201.115Z" fill="#F38AB9"/>
<path d="M226.32 346.832C229.467 347.76 233.649 345.994 234.822 341.702C235.696 338.511 234.442 334.954 232.162 333.816C232.008 333.516 231.782 333.266 231.475 333.106C228.045 331.307 223.905 331.426 222.21 336.519C220.773 340.848 222.885 345.817 226.32 346.827V346.832Z" fill="#FFB800"/>
<path d="M262.41 336.523C260.72 331.426 256.576 331.311 253.145 333.11C252.838 333.27 252.616 333.52 252.459 333.82C250.178 334.954 248.925 338.515 249.799 341.706C250.972 345.998 255.154 347.764 258.301 346.836C261.732 345.825 263.844 340.856 262.41 336.527V336.523Z" fill="#FFB800"/>
<path d="M281.845 346.832C284.992 347.76 289.174 345.994 290.347 341.702C291.221 338.511 289.968 334.954 287.687 333.816C287.533 333.516 287.307 333.266 287.001 333.106C283.57 331.307 279.43 331.426 277.736 336.519C276.298 340.848 278.41 345.817 281.845 346.827V346.832Z" fill="#FFB800"/>
<path d="M316.762 342.478C318.917 337.722 316.506 334.346 313.328 332.818C313.044 332.683 312.753 332.67 312.477 332.748C310.403 331.689 307.436 333.073 305.976 335.903C304.009 339.71 305.42 344.219 307.885 346.105C310.572 348.162 314.934 346.519 316.762 342.478Z" fill="#FFB800"/>
<path d="M333.483 193.497C333.487 192.4 331.126 191.016 330.033 191.033C298.01 191.554 267.524 191.665 235.5 192.191C230.927 192.265 226.35 192.339 221.777 192.417C219.615 192.454 217.457 192.487 215.295 192.523C214.038 192.544 212.516 192.31 211.247 192.692C210.043 192.326 208.364 193.402 208.663 195.193C209.764 201.814 210.066 208.517 210.454 215.219C210.86 222.275 211.27 229.331 211.676 236.387C212.493 250.499 213.306 264.611 214.122 278.723C214.187 279.849 214.927 280.494 215.744 280.658C216.012 280.863 216.345 280.999 216.744 281.032C231.625 282.214 257.745 281.455 276.152 281.455C294.56 281.455 320.745 281.307 329.251 281.307C331.509 281.307 332.398 280.066 332.452 278.465C333.437 249.177 333.334 222.538 333.483 193.509V193.497Z" fill="#FFB800"/>
<path d="M217.806 176.013C219.93 175.064 219.796 170.316 217.476 169.47C217.124 169.343 216.683 169.244 216.211 169.158C214.218 169.216 212.24 169.273 210.289 169.331L205.398 169.474C203.6 169.528 202.182 171.134 202.231 173.06C202.281 174.953 203.726 176.457 205.486 176.457C205.517 176.457 205.547 176.457 205.578 176.457L210.473 176.313C212.815 176.243 215.199 176.173 217.603 176.103C217.672 176.075 217.741 176.046 217.814 176.013H217.806Z" fill="#FFB800"/>
<path d="M252.386 168.6C252.309 168.587 252.232 168.575 252.154 168.558C247.462 168.522 242.727 168.546 237.999 168.62C238.168 171.162 237.788 173.676 236.625 175.627C242.407 175.528 248.21 175.491 253.922 175.557C255.937 174.14 254.987 168.994 252.386 168.604V168.6Z" fill="#FFB800"/>
<path d="M275.518 169.31C273.722 169.253 272.116 169.223 270.297 169.174C270.597 171.252 270.034 174.792 268.044 176.443C270.936 176.513 271.91 176.194 274.755 176.28C278.379 176.395 281.471 174.925 281.687 172.998C281.903 171.072 279.143 169.421 275.526 169.306L275.518 169.31Z" fill="#FFB800"/>
<path fill-rule="evenodd" clip-rule="evenodd" d="M275.311 175C276.134 174.957 276.836 175.589 276.879 176.412L277.665 191.382C277.708 192.205 277.076 192.906 276.253 192.95C275.431 192.993 274.729 192.361 274.686 191.538L273.9 176.568C273.857 175.745 274.489 175.044 275.311 175ZM209.726 175.18C210.548 175.115 211.266 175.728 211.331 176.549L209.844 176.666C211.331 176.549 211.331 176.549 211.331 176.549L211.339 176.648C211.344 176.712 211.351 176.808 211.361 176.933C211.38 177.181 211.408 177.545 211.442 178.004C211.511 178.922 211.607 180.224 211.715 181.759C211.929 184.829 212.19 188.836 212.373 192.578C212.413 193.401 211.778 194.101 210.956 194.141C210.133 194.181 209.433 193.547 209.393 192.724C209.212 189.012 208.953 185.027 208.739 181.967C208.632 180.438 208.537 179.142 208.468 178.228C208.434 177.771 208.406 177.409 208.387 177.162C208.377 177.039 208.37 176.944 208.365 176.88L208.357 176.784C208.357 176.784 208.357 176.784 209.814 176.669L208.357 176.784C208.292 175.963 208.905 175.245 209.726 175.18ZM229.603 194.96C230.426 194.927 231.12 195.568 231.152 196.391C231.42 203.108 231.688 209.148 231.955 214.798C239.168 214.483 245.757 214.224 251.933 214.013C251.951 208.738 251.969 203.16 251.987 197.078C251.99 196.255 252.659 195.589 253.483 195.591C254.307 195.594 254.972 196.264 254.97 197.087C254.952 203.127 254.934 208.671 254.916 213.914C261.339 213.706 267.335 213.551 273.158 213.44C273.193 207.731 273.248 202.18 273.327 197.08C273.34 196.257 274.018 195.6 274.841 195.612C275.665 195.625 276.322 196.303 276.31 197.127C276.231 202.195 276.177 207.711 276.141 213.386C282.064 213.287 287.851 213.233 293.774 213.214C293.9 207.949 294.048 202.851 294.223 198.161C294.254 197.338 294.946 196.695 295.769 196.726C296.592 196.757 297.235 197.449 297.204 198.272C297.03 202.925 296.883 207.982 296.758 213.207C301.953 213.2 307.286 213.218 312.937 213.256C313.01 208.416 313.068 203.327 313.105 197.923C313.11 197.099 313.783 196.436 314.606 196.442C315.43 196.447 316.093 197.12 316.088 197.943C316.051 203.347 315.993 208.437 315.92 213.277C320.156 213.309 324.582 213.351 329.267 213.4C330.09 213.409 330.751 214.083 330.742 214.907C330.734 215.731 330.059 216.391 329.235 216.383C324.544 216.334 320.114 216.292 315.873 216.26C315.761 223.044 315.624 229.343 315.483 235.345C319.129 235.423 322.886 235.511 326.777 235.607C327.601 235.628 328.252 236.312 328.231 237.135C328.211 237.959 327.527 238.61 326.703 238.589C322.813 238.493 319.058 238.405 315.413 238.327C315.396 239.029 315.38 239.727 315.363 240.422L315.335 241.61C315.199 247.27 315.069 252.709 314.965 258.102C318.827 258.107 322.747 258.11 326.74 258.11C327.564 258.11 328.232 258.778 328.232 259.601C328.232 260.425 327.564 261.093 326.74 261.093C322.728 261.093 318.789 261.09 314.911 261.085C314.824 266.109 314.763 271.121 314.746 276.265C314.743 277.088 314.073 277.754 313.25 277.751C312.426 277.748 311.76 277.078 311.763 276.255C311.78 271.112 311.841 266.1 311.928 261.081C306.555 261.073 301.294 261.061 296.109 261.048C296.095 263.434 296.084 265.59 296.077 267.461C296.067 269.896 296.061 271.847 296.058 273.189C296.057 273.86 296.056 274.378 296.056 274.729L296.055 275.26V275.262C296.055 275.262 296.055 275.263 294.564 275.262C293.072 275.261 293.072 275.26 293.072 275.26V275.259L293.073 274.725C293.073 274.373 293.074 273.854 293.076 273.182C293.078 271.839 293.084 269.886 293.094 267.449C293.102 265.579 293.112 263.424 293.126 261.04C290.097 261.032 287.091 261.023 284.102 261.015C281.442 261.007 278.796 261 276.157 260.992C276.168 263.146 276.18 265.102 276.191 266.817C276.207 269.254 276.221 271.205 276.232 272.547C276.237 273.217 276.241 273.736 276.244 274.087L276.248 274.618L276.248 274.62C276.248 274.62 276.248 274.62 274.782 274.633L276.248 274.62C276.256 275.444 275.594 276.117 274.77 276.125C273.946 276.132 273.273 275.47 273.266 274.647L274.733 274.634C273.266 274.647 273.266 274.646 273.266 274.646L273.261 274.112C273.258 273.76 273.254 273.241 273.249 272.57C273.238 271.227 273.224 269.274 273.208 266.836C273.197 265.113 273.185 263.149 273.174 260.985C267.021 260.969 260.901 260.955 254.746 260.948C254.73 265.714 254.714 270.737 254.698 276.161C254.695 276.985 254.026 277.651 253.202 277.648C252.378 277.646 251.712 276.976 251.715 276.152C251.731 270.731 251.747 265.709 251.763 260.945C245.991 260.94 240.179 260.941 234.276 260.952C234.502 265.842 234.729 271.044 234.955 276.73C234.988 277.553 234.347 278.247 233.524 278.28C232.701 278.312 232.007 277.672 231.975 276.849C231.746 271.118 231.518 265.881 231.29 260.958C227.361 260.967 223.387 260.98 219.354 260.998C218.53 261.002 217.859 260.337 217.856 259.514C217.852 258.69 218.516 258.019 219.34 258.016C223.33 257.997 227.262 257.984 231.15 257.975C230.815 250.924 230.48 244.473 230.145 238.06C226.211 238.111 222.153 238.169 217.936 238.232C217.112 238.245 216.434 237.587 216.422 236.764C216.409 235.94 217.067 235.262 217.891 235.25C222.068 235.187 226.09 235.13 229.99 235.079C229.699 229.515 229.408 223.913 229.118 217.909C225.419 218.074 221.555 218.253 217.501 218.447C216.679 218.487 215.98 217.851 215.94 217.029C215.901 216.206 216.536 215.507 217.359 215.468C221.412 215.273 225.276 215.094 228.975 214.929C228.707 209.276 228.44 203.231 228.172 196.51C228.139 195.687 228.78 194.993 229.603 194.96ZM232.098 217.777C232.39 223.813 232.682 229.443 232.975 235.041C239.552 234.959 245.793 234.897 251.858 234.857C251.879 229.055 251.901 223.219 251.922 216.998C245.792 217.208 239.253 217.466 232.098 217.777ZM254.906 216.899C254.884 223.15 254.862 229.012 254.84 234.838C261.026 234.804 267.054 234.794 273.099 234.81C273.097 228.792 273.109 222.546 273.141 216.424C267.322 216.535 261.328 216.691 254.906 216.899ZM276.124 216.37C276.092 222.512 276.08 228.78 276.081 234.82C281.758 234.844 287.475 234.891 293.376 234.965C293.46 228.799 293.568 222.414 293.705 216.197C287.8 216.216 282.031 216.271 276.124 216.37ZM296.689 216.19C296.551 222.419 296.443 228.82 296.359 235.004C301.55 235.076 306.899 235.168 312.501 235.283C312.641 229.29 312.778 223.005 312.89 216.238C307.23 216.201 301.891 216.183 296.689 216.19ZM312.431 238.265C306.84 238.151 301.501 238.059 296.32 237.987C296.276 241.451 296.239 244.825 296.209 248.038C296.175 251.613 296.148 254.988 296.128 258.065C301.326 258.078 306.599 258.09 311.982 258.098C312.086 252.681 312.217 247.222 312.352 241.55L312.381 240.351C312.398 239.659 312.414 238.964 312.431 238.265ZM293.145 258.057C293.166 254.974 293.192 251.593 293.226 248.01C293.257 244.794 293.293 241.416 293.337 237.947C287.45 237.874 281.747 237.826 276.083 237.803C276.086 241.093 276.092 244.295 276.101 247.349C276.112 251.173 276.126 254.766 276.142 258.01C278.795 258.017 281.455 258.024 284.129 258.032C287.116 258.04 290.119 258.049 293.145 258.057ZM273.159 258.002C273.143 254.762 273.129 251.175 273.118 247.358C273.109 244.298 273.103 241.089 273.1 237.793C267.052 237.777 261.02 237.787 254.829 237.821C254.805 244.341 254.781 250.89 254.757 257.965C260.902 257.972 267.015 257.986 273.159 258.002ZM251.774 257.962C251.798 250.894 251.822 244.351 251.846 237.84C245.834 237.88 239.647 237.941 233.13 238.022C233.465 244.438 233.801 250.9 234.136 257.969C240.091 257.958 245.952 257.957 251.774 257.962ZM294.564 275.262L293.072 275.261C293.072 276.085 293.739 276.753 294.563 276.753C295.386 276.754 296.055 276.086 296.055 275.263L294.564 275.262ZM218.269 279.303C219.092 279.275 219.782 279.92 219.81 280.743C220.396 297.941 221.09 312.472 222.403 330.014C245.256 329.444 269.831 329.437 288.821 329.575C298.515 329.646 306.755 329.754 312.573 329.845C315.482 329.89 317.786 329.931 319.362 329.961C320.15 329.976 320.757 329.988 321.166 329.996C321.371 330 321.527 330.004 321.631 330.006L321.779 330.009L321.787 330.009L321.789 330.009C321.789 330.009 321.789 330.009 321.757 331.5C321.725 332.991 321.724 332.991 321.724 332.991L321.723 332.991L321.715 332.991L321.569 332.988C321.465 332.986 321.31 332.983 321.106 332.978C320.698 332.97 320.093 332.958 319.306 332.943C317.733 332.914 315.432 332.873 312.527 332.828C306.716 332.737 298.483 332.628 288.8 332.558C269.43 332.417 244.265 332.427 221.061 333.032C220.266 333.053 219.595 332.447 219.535 331.654C218.149 313.421 217.431 298.532 216.829 280.845C216.801 280.021 217.446 279.331 218.269 279.303ZM321.757 331.5L321.725 332.991C322.548 333.009 323.23 332.356 323.248 331.532C323.266 330.709 322.613 330.027 321.789 330.009L321.757 331.5Z" fill="#B58300"/>
<defs>
<clipPath id="clip0_93_361">
<rect width="267.762" height="299.401" fill="white" transform="translate(15.517 -0.000244141)"/>
</clipPath>
</defs>
</svg>
