<svg width="352" height="328" viewBox="0 0 352 328" fill="none" xmlns="http://www.w3.org/2000/svg">
<path d="M315.591 193.722C315.63 192.709 315.096 192.051 314.394 191.73C314.383 191.643 314.372 191.561 314.356 191.469C314.177 190.478 313.186 189.841 312.245 189.771C282.848 187.616 253.777 194.973 224.402 193.667C222.432 192.339 220.451 191.039 218.432 189.787C210.198 184.693 201.556 180.144 192.958 175.709C184.398 171.29 175.691 167.149 166.843 163.339C158.914 159.927 150.218 156.232 141.385 157.429C137.598 157.941 133.827 159.59 130.333 161.086C128.167 162.017 111.961 169.445 105.904 171.785C101.779 173.38 97.6597 174.985 93.5892 176.716C89.6111 178.408 39.8232 197.694 31.2957 200.927C25.2825 203.207 19.1549 205.345 13.2341 207.903C10.3063 206.037 6.88339 205.128 3.95021 203.136C2.41559 202.091 -0.0332612 203.713 0.603441 205.569C0.97349 206.651 2.51899 210.379 3.26997 212.616C4.02095 214.852 12.3797 235.564 16.7441 247.923C17.1305 249.011 18.2025 249.936 19.4487 249.555C33.9133 245.137 47.7412 239.058 61.5473 232.92C61.3024 233.622 61.1391 234.345 60.8289 234.993C56.8944 243.134 54.9898 253.18 52.5573 261.375C49.4989 271.66 42.0979 298.571 39.9212 309.335C37.5213 321.187 35.3663 328.849 32.5692 340.615C29.2768 342.579 26.2402 345.055 24.1233 346.59C22.6975 347.624 22.4091 351.411 24.5151 351.433C39.8667 351.591 56.9162 350.731 72.061 350.894C74.1398 350.916 75.1847 349.48 75.6472 346.666C76.1098 343.847 79.5382 336.022 82.1993 317.938C84.8604 299.855 91.9566 274.147 98.5739 253.392C103.401 253.316 128.619 252.342 139.105 252.075C149.51 251.814 160.176 252.097 170.293 254.763C170.783 254.894 171.229 254.861 171.615 254.725C174.412 256.848 179.909 256.173 182.989 256.135C188.708 256.064 194.264 256.053 199.984 256.467C217.512 257.729 235.013 260.298 252.591 260.798C261.259 261.043 269.934 260.711 278.554 259.77C284.883 259.079 291.342 258.818 297.6 257.604C303.451 256.472 308.729 254.214 312.495 249.447C315.967 245.055 317.545 239.597 318.138 234.1C319.602 220.534 315.085 207.245 315.602 193.722H315.591Z" fill="#5B717F"/>
<path d="M319.803 171.001C319.286 167.851 319.417 164.732 318.606 161.587C318.154 159.829 317.659 158.066 317.066 156.357C316.837 155.693 316.576 155.035 316.358 154.366C316.309 154.213 316.271 154.006 316.217 153.821C316.837 152.575 316.19 150.513 314.312 150.279C314.236 150.268 314.171 150.273 314.1 150.268C313.877 149.386 313.186 148.45 312.021 148.581C308.598 148.956 306.405 150.453 305.039 152.504C301.986 156.015 299.652 159.971 298.122 164.243C297.937 164.765 298.313 165.249 298.895 165.331C300.403 165.549 301.905 165.766 303.412 165.984C303.439 166.18 303.472 166.37 303.499 166.555C304.234 171.165 306.389 175.273 311.085 175.959C314.584 176.471 320.565 175.633 319.803 171.001Z" fill="#5B717F"/>
<path d="M172.818 201.754C173.635 198.239 172.019 195.801 171.382 192.486C171.148 191.267 169.466 190.854 168.775 190.799C155.889 189.755 141.936 189.575 129.011 188.976C127.999 188.927 127.101 189.526 126.726 190.424C125.681 192.927 125.784 195.719 125.741 198.407C125.724 199.664 126.127 200.432 127.395 200.611C141.691 202.597 156.144 202.494 170.527 203.202C171.404 203.245 172.59 202.712 172.813 201.754H172.818Z" fill="#FFB800"/>
<path d="M351.378 111.555C351.378 111.555 351.378 111.544 351.378 111.533C351.297 109.77 350.654 106.57 348.94 105.525C346.426 103.996 342.622 103.756 339.792 103.844C323.701 104.36 307.13 108.181 293.133 116.305C279.659 124.131 268.944 135.679 260.792 148.853C256.45 155.874 253.174 163.089 251.253 171.138C250.3 175.127 249.533 179.138 249.794 183.257C249.919 185.292 250.246 187.29 250.692 189.265C250.126 188.362 249.522 187.48 248.836 186.653C245 182.016 239.014 178.517 233.229 177.015C224.114 174.648 214.542 177.832 206.596 182.92C210.602 185.118 214.563 187.388 218.433 189.782C220.452 191.034 222.432 192.334 224.402 193.662C248.972 194.756 273.33 189.787 297.846 189.396C296.246 190.484 294.744 191.746 293.389 193.227C289.068 197.934 286.168 204.432 285.172 210.712C284.829 212.867 284.737 215.021 284.949 217.16C282.206 212.66 278.587 209.171 272.226 209.074C262.028 208.91 253.108 215.021 248.559 223.652C246.426 216.839 242.203 210.695 236.587 206.227C228.331 199.659 217.377 198.086 207.239 200.307C196.338 202.69 186.527 208.981 178.157 216.159C169.771 223.348 162.386 231.891 156.515 241.246C149.505 252.413 144.619 265.19 144.63 278.507C144.63 279.067 144.804 279.519 145.081 279.867C145.419 280.395 145.985 280.776 146.806 280.798C176.78 281.592 206.798 282.517 236.783 281.81C251.797 281.456 266.789 280.526 281.787 279.753C296.448 278.996 311.13 278.49 325.801 277.914C329.137 277.783 332.473 277.767 335.803 277.663C337.915 277.598 341.06 277.543 343.03 276.705C346.165 275.372 346.769 273.62 346.834 270.67C346.899 267.721 347.248 255.868 347.248 248.506C347.248 241.143 348.037 223.337 348.075 210.793C348.113 198.146 348.804 185.722 349.234 173.081C349.517 164.804 349.865 156.831 350.475 148.57C350.975 141.812 351.634 135.031 351.797 128.256C351.906 123.75 352.336 117.089 351.378 111.544V111.555ZM311.086 175.965C306.39 175.279 304.235 171.165 303.5 166.561C303.473 166.376 303.44 166.186 303.413 165.99C301.906 165.772 300.404 165.555 298.896 165.337C298.309 165.25 297.933 164.766 298.124 164.249C299.658 159.977 301.987 156.02 305.04 152.51C306.156 150.84 307.832 149.55 310.259 148.924C309.497 158.197 311.201 167.606 315.467 175.867C313.976 176.161 312.365 176.155 311.081 175.97L311.086 175.965Z" fill="#FFB800"/>
<path fill-rule="evenodd" clip-rule="evenodd" d="M303.243 277.541C304.009 277.238 304.876 277.613 305.179 278.378L303.793 278.928L302.407 279.477C302.103 278.712 302.478 277.845 303.243 277.541ZM333.07 349.961C331.704 350.558 331.704 350.558 331.703 350.557L331.703 350.556L331.572 350.255C331.485 350.057 331.358 349.766 331.195 349.391C330.868 348.641 330.397 347.558 329.818 346.224C328.66 343.558 327.072 339.892 325.351 335.893C321.912 327.901 317.931 318.554 315.795 313.199C314.401 309.709 311.054 301.277 308.055 293.721C306.556 289.942 305.144 286.381 304.106 283.765L302.407 279.477C302.406 279.477 302.407 279.477 303.793 278.928C305.179 278.378 305.179 278.378 305.179 278.378L306.879 282.665C307.917 285.281 309.329 288.842 310.828 292.621C313.827 300.179 317.173 308.606 318.565 312.093L318.565 312.093C320.684 317.405 324.649 326.715 328.091 334.714C329.811 338.71 331.397 342.372 332.554 345.036C333.132 346.368 333.603 347.45 333.93 348.2C334.093 348.574 334.22 348.865 334.306 349.063L334.437 349.364C334.437 349.364 334.437 349.364 333.07 349.961ZM333.07 349.961L331.703 350.557C332.033 351.312 332.912 351.657 333.667 351.328C334.422 350.998 334.767 350.119 334.437 349.364L333.07 349.961Z" fill="#B58300"/>
<path fill-rule="evenodd" clip-rule="evenodd" d="M226.623 279.858C225.88 279.58 225.04 279.924 224.746 280.626L226.09 281.129L227.434 281.633C227.728 280.931 227.365 280.137 226.623 279.858ZM197.706 346.254C199.031 346.801 199.031 346.801 199.031 346.801L199.032 346.8L199.159 346.524C199.243 346.342 199.366 346.075 199.524 345.731C199.841 345.044 200.298 344.051 200.859 342.828C201.982 340.384 203.521 337.023 205.19 333.356C208.524 326.029 212.383 317.459 214.454 312.55C215.806 309.35 219.051 301.62 221.958 294.692C223.411 291.227 224.78 287.963 225.786 285.564L227.434 281.633C227.434 281.633 227.434 281.633 226.09 281.129C224.746 280.626 224.746 280.625 224.746 280.626L223.098 284.556C222.092 286.955 220.723 290.219 219.27 293.683C216.362 300.613 213.118 308.339 211.769 311.536L211.768 311.536C209.714 316.406 205.87 324.942 202.533 332.275C200.866 335.939 199.328 339.297 198.207 341.739C197.646 342.96 197.189 343.952 196.873 344.639C196.715 344.982 196.592 345.25 196.508 345.431L196.381 345.707C196.381 345.707 196.381 345.707 197.706 346.254ZM197.706 346.254L199.031 346.801C198.712 347.493 197.859 347.809 197.128 347.507C196.396 347.205 196.062 346.399 196.381 345.707L197.706 346.254Z" fill="#B58300"/>
<path fill-rule="evenodd" clip-rule="evenodd" d="M337.835 108.366C338.208 109.101 337.914 109.998 337.179 110.371C329.899 114.061 323.359 119.708 319.085 126.598L319.085 126.599C308.519 143.625 308.951 166.495 321.264 182.15C321.607 182.585 321.68 183.174 321.454 183.68C321.229 184.185 320.742 184.524 320.189 184.56C312.746 185.045 305.244 186.412 299.281 190.227C298.587 190.671 297.665 190.469 297.221 189.775C296.777 189.081 296.979 188.159 297.673 187.715C303.504 183.984 310.509 182.449 317.296 181.799C305.754 165.199 305.861 142.251 316.55 125.026C321.147 117.615 328.124 111.616 335.831 107.71C336.565 107.338 337.463 107.631 337.835 108.366Z" fill="#B58300"/>
<path fill-rule="evenodd" clip-rule="evenodd" d="M131.157 202.124C131.316 202.504 131.137 202.941 130.757 203.1C129.607 203.581 128.329 204.115 126.942 204.695C118.315 208.3 105.482 213.663 93.3022 218.917C79.136 225.028 65.9297 230.959 61.2035 233.813C60.8509 234.026 60.3925 233.913 60.1796 233.56C59.9667 233.208 60.0799 232.75 60.4325 232.537C65.2676 229.617 78.5906 223.639 92.7114 217.547C104.9 212.29 117.741 206.923 126.368 203.318C127.754 202.739 129.032 202.205 130.181 201.724C130.561 201.565 130.998 201.744 131.157 202.124Z" fill="white"/>
<path fill-rule="evenodd" clip-rule="evenodd" d="M136.934 202.369C137.313 202.207 137.751 202.382 137.913 202.761C138.437 203.983 139.716 204.97 141.646 205.714C143.559 206.452 145.985 206.901 148.589 207.133C153.795 207.597 159.548 207.183 162.933 206.623C163.34 206.556 163.724 206.831 163.791 207.237C163.858 207.643 163.583 208.027 163.177 208.095C159.684 208.672 153.804 209.096 148.457 208.619C145.785 208.38 143.204 207.914 141.109 207.106C139.031 206.304 137.3 205.116 136.542 203.348C136.38 202.969 136.556 202.531 136.934 202.369Z" fill="white"/>
<path fill-rule="evenodd" clip-rule="evenodd" d="M142.669 205.949C143.042 205.774 143.486 205.935 143.661 206.308C144.501 208.102 146.233 209.471 148.606 210.502C150.974 211.53 153.895 212.185 156.968 212.602C161.586 213.23 166.424 213.311 170.112 213.373C171.345 213.394 172.449 213.413 173.374 213.449M142.669 205.949C142.296 206.123 142.135 206.567 142.31 206.94L142.669 205.949ZM142.31 206.94C143.366 209.197 145.471 210.766 148.012 211.869L142.31 206.94ZM148.012 211.869C150.559 212.976 153.631 213.654 156.767 214.08L148.012 211.869ZM156.767 214.08C161.484 214.722 166.47 214.805 170.166 214.867L156.767 214.08ZM170.166 214.867C171.372 214.887 172.44 214.905 173.317 214.939L170.166 214.867ZM178.079 214.125C178.099 214.537 177.782 214.886 177.37 214.906C175.987 214.972 174.632 214.989 173.317 214.939L173.317 214.939M178.079 214.125C178.06 213.714 177.71 213.397 177.299 213.416L178.079 214.125ZM177.299 213.416C175.95 213.481 174.638 213.497 173.374 213.449L177.299 213.416Z" fill="white"/>
<path fill-rule="evenodd" clip-rule="evenodd" d="M166.423 175.489C165.418 175.322 164.445 175.499 163.503 176.207C161.702 177.561 161.549 180.026 162.882 182.888C164.196 185.71 166.851 188.596 170.019 190.324C170.38 190.521 170.514 190.974 170.317 191.336C170.119 191.697 169.666 191.83 169.305 191.633C165.867 189.758 162.984 186.639 161.53 183.518C160.094 180.436 159.941 177.018 162.607 175.015C163.899 174.044 165.29 173.788 166.668 174.018C168.016 174.242 169.324 174.925 170.526 175.776C172.578 177.23 174.489 179.307 175.929 180.872C176.168 181.132 176.394 181.378 176.606 181.605C178.035 183.133 180.525 184.765 183.266 186.136C185.998 187.502 188.893 188.566 191.08 189.001C201.572 191.087 210.386 192.545 222.884 192.453C223.295 192.45 223.632 192.782 223.635 193.193C223.638 193.605 223.306 193.942 222.895 193.945C210.251 194.038 201.324 192.558 190.789 190.464L190.789 190.464C188.432 189.995 185.408 188.874 182.599 187.47C179.799 186.069 177.124 184.343 175.517 182.623C175.292 182.382 175.056 182.126 174.81 181.859C173.362 180.287 171.574 178.347 169.664 176.993C168.552 176.206 167.458 175.661 166.423 175.489Z" fill="white"/>
<g opacity="0.25">
<path opacity="0.904" fill-rule="evenodd" clip-rule="evenodd" d="M245.542 25.7395C251.413 27.6736 255.039 31.6466 256.419 37.6585C256.837 38.6314 256.821 39.5935 256.371 40.544C255.735 40.7217 255.125 40.6378 254.543 40.2918C253.914 38.249 253.244 36.2212 252.535 34.2085C250.612 30.6309 247.66 28.4453 243.679 27.6515C243.444 27.2463 243.478 26.8677 243.781 26.5153C244.371 26.2157 244.958 25.9571 245.542 25.7395Z" fill="#A1DCD8"/>
<path opacity="0.909" fill-rule="evenodd" clip-rule="evenodd" d="M242.128 30.7903C243.374 31.2853 244.594 31.8881 245.789 32.5992C248.324 35.4302 250.288 38.6079 251.682 42.1324C251.696 42.9949 251.654 43.8545 251.556 44.7114C251.229 46.2313 250.437 46.5421 249.182 45.6436C249.442 42.9645 248.761 40.5481 247.137 38.394C246.086 37.0075 245.036 35.6211 243.986 34.2346C243.042 33.7677 242.144 33.2347 241.293 32.636C241.223 31.8473 241.501 31.2322 242.128 30.7903Z" fill="#A1DCD8"/>
<path opacity="0.978" fill-rule="evenodd" clip-rule="evenodd" d="M206.13 25.8663C229.511 30.2462 245.101 43.5755 252.9 65.8544C257.553 81.9935 256.185 97.6238 248.795 112.745C238.396 132.041 222.339 143.081 200.623 145.864C176.03 146.973 157.489 137.009 145 115.971C137.112 100.138 135.847 83.7422 141.205 66.7847C147.534 49.3657 159.217 37.1344 176.253 30.0909C176.721 29.5366 177.292 29.1298 177.966 28.8702C187.147 25.7011 196.535 24.6998 206.13 25.8663Z" fill="#A1DCD8"/>
<path fill-rule="evenodd" clip-rule="evenodd" d="M202.825 34.4155C224.705 38.2376 238.94 50.6934 245.53 71.7831C249.784 91.7993 244.761 109.145 230.461 123.821C217.338 135.747 201.981 140.23 184.39 137.27C161.791 130.834 148.9 115.967 145.717 92.6701C144.407 70.9174 152.753 54.0517 170.754 42.073C174.661 39.9063 178.653 37.9741 182.728 36.276C189.335 34.3754 196.034 33.7551 202.825 34.4155Z" fill="white"/>
<path opacity="0.903" fill-rule="evenodd" clip-rule="evenodd" d="M147.409 25.5625C148.187 25.641 148.905 25.8933 149.561 26.3196C149.737 26.8207 149.683 27.2917 149.399 27.7324C147.483 28.0894 145.696 28.7631 144.037 29.7531C140.885 32.3935 138.629 35.6682 137.269 39.5771C136.123 39.8769 135.492 39.4502 135.375 38.297C137.276 31.956 141.287 27.7114 147.409 25.5625Z" fill="#A1DCD8"/>
<path opacity="0.895" fill-rule="evenodd" clip-rule="evenodd" d="M150.427 27.6664C151.731 27.668 152.23 28.2591 151.924 29.4396C148.205 31.7397 145.104 34.6859 142.619 38.2781C142.013 39.2201 141.552 40.23 141.237 41.3081C140.488 42.1553 139.823 42.1075 139.241 41.1642C139.81 37.5162 141.525 34.5103 144.386 32.146C146.467 30.6892 148.481 29.196 150.427 27.6664Z" fill="#A1DCD8"/>
<path fill-rule="evenodd" clip-rule="evenodd" d="M232.166 65.9841C234.948 65.812 235.807 66.9639 234.746 69.4404C232.506 72.6242 229.87 75.4301 226.836 77.8578C220.048 83.0161 212.851 87.4857 205.244 91.2668C202.977 92.1502 200.679 92.954 198.349 93.6785C198.277 93.5664 198.205 93.4539 198.133 93.3418C198.895 92.2999 199.294 91.1314 199.329 89.8369C199.041 88.7747 198.632 87.769 198.102 86.8193C199.535 85.2746 201.057 83.8195 202.67 82.4542C209.651 76.8541 217.185 72.1681 225.271 68.3958C227.558 67.5094 229.856 66.7055 232.166 65.9841Z" fill="#A1DCD8"/>
<path fill-rule="evenodd" clip-rule="evenodd" d="M174.684 67.9761C177.709 68.8175 180.376 70.3141 182.686 72.4656C187.143 76.4353 190.992 80.9395 194.23 85.9779C191.819 86.5499 190.721 88.049 190.936 90.475C190.62 90.5994 190.343 90.5393 190.107 90.2948C185.11 86.2211 180.709 81.5968 176.903 76.422C175.302 74.2478 174.278 71.8533 173.83 69.2387C173.934 68.6779 174.218 68.2569 174.684 67.9761Z" fill="#A1DCD8"/>
<path fill-rule="evenodd" clip-rule="evenodd" d="M194.237 87.2832C196.858 87.7212 197.842 89.19 197.189 91.6891C195.528 93.4147 194.013 93.2788 192.644 91.2811C192.252 89.5363 192.783 88.2036 194.237 87.2832Z" fill="#247F79"/>
</g>
</svg>
