<svg width="157" height="81" viewBox="0 0 157 81" fill="none" xmlns="http://www.w3.org/2000/svg">
<g clip-path="url(#clip0_4151_27446)">
<path d="M46.3159 56.6016C39.9547 56.6016 34.7793 61.777 34.7793 68.1381C34.7793 74.4993 39.9547 79.6747 46.3159 79.6747C52.677 79.6747 57.8524 74.4993 57.8524 68.1381C57.8524 61.777 52.677 56.6016 46.3159 56.6016Z" fill="#FCB615"/>
<path d="M14.0756 56.6016C7.71447 56.6016 2.53906 61.777 2.53906 68.1381C2.53906 74.4993 7.71447 79.6747 14.0756 79.6747C20.4368 79.6747 25.6122 74.4993 25.6122 68.1381C25.6122 61.777 20.4368 56.6016 14.0756 56.6016Z" fill="#ED353F"/>
<path d="M78.5561 56.6016C72.1949 56.6016 67.0195 61.777 67.0195 68.1381C67.0195 74.4993 72.1949 79.6747 78.5561 79.6747C84.9173 79.6747 90.0927 74.4993 90.0927 68.1381C90.0927 61.777 84.9173 56.6016 78.5561 56.6016Z" fill="#02AF56"/>
<path d="M143.039 56.6016C136.677 56.6016 131.502 61.777 131.502 68.1381C131.502 74.4993 136.677 79.6747 143.039 79.6747C149.4 79.6747 154.575 74.4993 154.575 68.1381C154.575 61.777 149.4 56.6016 143.039 56.6016Z" fill="#00A8DF"/>
<path d="M110.797 56.6016C104.436 56.6016 99.2578 61.777 99.2578 68.1381C99.2578 74.4993 104.433 79.6747 110.794 79.6747C117.156 79.6747 122.331 74.4993 122.331 68.1381C122.334 61.777 117.161 56.6016 110.797 56.6016Z" fill="#A14699"/>
<path d="M23.6926 23.9101C23.6926 18.5146 19.6227 14.4447 14.2273 14.4447C8.8318 14.4447 4.7619 18.5146 4.7619 23.9101C4.7619 29.3029 8.8318 33.3754 14.2273 33.3754C19.6202 33.3754 23.6926 29.3029 23.6926 23.9101ZM0.792969 23.9101C0.792969 16.4304 6.79685 10.7812 14.2273 10.7812C21.7069 10.7812 27.6616 16.3787 27.6616 23.8583V35.3586C27.6616 36.5288 26.846 37.3418 25.6266 37.3418C24.3554 37.3418 23.5917 36.5288 23.5917 35.3586V32.0007H23.3871C21.8104 34.6984 18.6545 37.0389 13.9736 37.0389C6.74766 37.0389 0.792969 31.4414 0.792969 23.9101Z" fill="#595A5A"/>
<path d="M55.8528 23.9126C55.8528 18.5172 51.7829 14.4473 46.3874 14.4473C40.992 14.4473 36.9221 18.5172 36.9221 23.9126C36.9221 29.3055 40.992 33.378 46.3874 33.378C51.7829 33.378 55.8528 29.3055 55.8528 23.9126ZM38.1441 45.5385C37.0748 45.0285 36.5674 44.112 36.9738 43.0453C37.3803 41.9243 38.3978 41.4686 39.467 41.9761C41.3 42.8408 43.5887 43.4518 46.0301 43.4518C52.0858 43.4518 55.7492 39.8376 55.7492 33.6809V32.0007H55.5447C53.968 34.6984 50.812 37.0389 46.1311 37.0389C38.9052 37.0389 32.9531 31.4414 32.9531 23.9101C32.9531 16.4304 38.957 10.7812 46.3874 10.7812C53.867 10.7812 59.8217 16.3787 59.8217 23.8583V33.4246C59.8217 41.668 54.5298 47.2136 45.88 47.2136C43.234 47.2162 40.5881 46.7088 38.1441 45.5385Z" fill="#595A5A"/>
<path d="M88.0143 23.9101C88.0143 18.5146 83.9444 14.4447 78.5489 14.4447C73.1534 14.4447 69.0835 18.5146 69.0835 23.9101C69.0835 29.3029 73.1534 33.3754 78.5489 33.3754C83.9444 33.3754 88.0143 29.3029 88.0143 23.9101ZM65.1172 23.9101C65.1172 16.4304 71.0719 10.7812 78.5515 10.7812C86.0311 10.7812 91.9858 16.4279 91.9858 23.9101C91.9858 31.3897 86.0311 37.0389 78.5515 37.0389C71.0693 37.0389 65.1172 31.3897 65.1172 23.9101Z" fill="#595A5A"/>
<path d="M120.174 23.912C120.174 18.5166 116.105 14.4467 110.709 14.4467C105.314 14.4467 101.244 18.5166 101.244 23.912C101.244 29.3049 105.314 33.3774 110.709 33.3774C116.105 33.3774 120.174 29.3049 120.174 23.912ZM97.2773 23.912C97.2773 16.4324 103.18 10.7832 110.458 10.7832C115.139 10.7832 118.295 13.1237 119.872 15.8214H120.076V2.43889C120.076 1.26866 120.892 0.453125 122.111 0.453125C123.382 0.453125 124.146 1.26866 124.146 2.43889V23.9612C124.146 31.4408 118.191 37.0382 110.712 37.0382C103.281 37.0408 97.2773 31.3916 97.2773 23.912Z" fill="#595A5A"/>
<path d="M152.337 23.9101C152.337 18.5146 148.267 14.4447 142.872 14.4447C137.476 14.4447 133.406 18.5146 133.406 23.9101C133.406 29.3029 137.476 33.3754 142.872 33.3754C148.265 33.3754 152.337 29.3029 152.337 23.9101ZM129.438 23.9101C129.438 16.4304 135.441 10.7812 142.872 10.7812C150.351 10.7812 156.306 16.3787 156.306 23.8583V35.3586C156.306 36.5288 155.491 37.3418 154.271 37.3418C153 37.3418 152.236 36.5288 152.236 35.3586V32.0007H152.032C150.455 34.6984 147.299 37.0389 142.618 37.0389C135.392 37.0389 129.438 31.4414 129.438 23.9101Z" fill="#595A5A"/>
</g>
<defs>
<clipPath id="clip0_4151_27446">
<rect width="155.34" height="80" fill="white" transform="translate(0.787109 0.453125)"/>
</clipPath>
</defs>
</svg>
