<svg width="285" height="56" viewBox="0 0 285 56" fill="none" xmlns="http://www.w3.org/2000/svg">
<path d="M228.581 13.5982L225.783 16.5682C230.3 23.6652 230.927 32.7292 226.735 40.3012L228.268 40.2752C233.478 31.8202 233.4 21.6612 228.581 13.5982ZM216.315 15.3042L217.835 13.7042C210.245 6.67923 197.658 6.83723 190.329 14.3702C185.962 18.8532 183.902 24.8552 184.895 30.5102L186.422 30.4632C186.509 22.5732 192.96 16.0742 201.097 15.8932C209.411 15.6642 216.315 22.0352 216.491 30.1452C216.714 38.2762 210.191 44.9952 201.885 45.2172C197.711 45.3192 193.93 43.7762 191.139 41.2162L188.98 43.4312C179.369 34.5572 179.001 19.7372 188.088 10.4022C195.422 2.85723 206.65 1.13823 215.739 5.34223L215.858 5.47623L217.026 4.17423C205.462 -2.54477 190.198 -0.632768 180.464 9.36823C168.962 21.1562 169.491 39.7792 181.594 50.9622L183.777 48.7382C188.557 53.1182 194.111 55.3112 200.594 55.1282C213.672 54.7822 224 44.1872 223.67 31.4572C223.501 25.0612 220.697 19.3442 216.315 15.3042Z" fill="#DC3223"/>
<path d="M66.907 5.29325H55.911V49.8782H87.058V41.2183H66.908L66.907 5.29325ZM17.942 5.29325L0.875 49.8782H11.521C13.459 43.2542 21.902 38.2483 29.763 37.5503L28.143 33.5153C24.837 33.0813 19.979 33.6112 17.033 34.8882L24.228 16.0252L38.172 49.8782H48.8L30.437 5.29325H17.942ZM128.703 13.9222H143.357V49.8782H154.624V13.9222H169.35V5.29225H128.704V13.9222H128.703ZM274.551 5.29325L261.676 22.2383L248.988 5.29325H239.103V49.8782H250.368V22.6362L260.919 37.0462H262.526L273.059 22.6362V49.8782H284.338V5.29325H274.551ZM101.685 16.7313C101.685 13.1483 109.815 10.0272 122.495 14.5822L123.232 5.77925C121.225 4.89325 115.538 3.40625 111.204 3.40625C101.967 3.40625 91.496 6.80725 91.496 17.8872C91.496 34.4992 116.287 28.8162 115.579 37.8833C115.303 41.4033 110.055 42.2583 105.622 42.2583C100.583 42.2583 96.053 41.2542 92.987 39.7972L91.935 49.3612C96.026 50.6812 101.341 51.3322 105.622 51.3322C115.84 51.3322 125.82 48.1122 125.862 36.1942C125.881 20.2692 101.685 24.9033 101.685 16.7313Z" fill="#1E3246"/>
</svg>
