<svg width="164" height="59" viewBox="0 0 164 59" fill="none" xmlns="http://www.w3.org/2000/svg">
<g opacity="0.9">
<path d="M31.8516 58.4553V33.3672H58.4152L61.2652 37.0825L64.2095 33.3672H163.192V56.7251C163.192 56.7251 158.108 58.4302 155.191 58.4553H101.802L98.5885 54.5006V58.4553H88.0589V51.7044C88.0589 51.7044 86.6205 52.6467 83.5109 52.6467H79.9269V58.4553H63.9841L61.1382 54.6603L58.2486 58.4553H31.8516Z" fill="white"/>
<path d="M0.832031 14.4575L6.82225 0.492188H17.1817L20.5812 8.31498V0.492188H33.459L35.4827 6.14626L37.4446 0.492188H95.2524V3.33468C95.2524 3.33468 98.2913 0.492188 103.286 0.492188L122.042 0.557736L125.383 8.27814V0.492188H136.16L139.126 4.92694V0.492188H150.001V25.5803H139.126L136.283 21.1312V25.5803H120.45L118.857 21.6255H114.601L113.035 25.5803H102.297C97.9995 25.5803 95.2524 22.7959 95.2524 22.7959V25.5803H79.0625L75.8493 21.6255V25.5803H15.647L14.0558 21.6255H9.81283L8.23289 25.5803H0.832031V14.4575Z" fill="white"/>
<path d="M8.94278 3.58594L0.863281 22.3711H6.12345L7.61422 18.6095H16.2807L17.7638 22.3711H23.1398L15.0681 3.58594H8.94278ZM11.932 7.95782L14.5737 14.5311H9.28264L11.932 7.95782Z" fill="#016FD0"/>
<path d="M23.6953 22.3633V3.57812L31.1703 3.60589L35.518 15.7174L39.7616 3.57812H47.1768V22.3633H42.4805V8.5216L37.5023 22.3633H33.3837L28.3916 8.5216V22.3633H23.6953Z" fill="#016FD0"/>
<path d="M50.3906 22.3633V3.57812H65.7154V7.78009H55.1364V10.9933H65.4682V14.9481H55.1364V18.285H65.7154V22.3633H50.3906Z" fill="#016FD0"/>
<path d="M68.4336 3.58594V22.3711H73.1299V15.6974H75.1073L80.7382 22.3711H86.4773L80.2979 15.4503C82.834 15.2363 85.45 13.0596 85.45 9.68033C85.45 5.72726 82.3472 3.58594 78.8844 3.58594H68.4336ZM73.1299 7.78788H78.4982C79.786 7.78788 80.7228 8.79523 80.7228 9.76528C80.7228 11.0133 79.509 11.7427 78.5677 11.7427H73.1299V7.78788Z" fill="#016FD0"/>
<path d="M92.1624 22.3633H87.3672V3.57812H92.1624V22.3633Z" fill="#016FD0"/>
<path d="M103.533 22.3633H102.498C97.4898 22.3633 94.4492 18.4178 94.4492 13.048C94.4492 7.54544 97.4558 3.57812 103.78 3.57812H108.971V8.02725H103.59C101.023 8.02725 99.2073 10.0308 99.2073 13.0943C99.2073 16.7323 101.283 18.2602 104.274 18.2602H105.51L103.533 22.3633Z" fill="#016FD0"/>
<path d="M113.751 3.58594L105.672 22.3711H110.932L112.423 18.6095H121.089L122.572 22.3711H127.948L119.877 3.58594H113.751ZM116.741 7.95782L119.382 14.5311H114.091L116.741 7.95782Z" fill="#016FD0"/>
<path d="M128.498 22.3633V3.57812H134.469L142.093 15.3807V3.57812H146.789V22.3633H141.011L133.194 10.2518V22.3633H128.498Z" fill="#016FD0"/>
<path d="M35.0664 55.2383V36.4531H50.3912V40.6551H39.8121V43.8683H50.144V47.8231H39.8121V51.16H50.3912V55.2383H35.0664Z" fill="#016FD0"/>
<path d="M110.156 55.2383V36.4531H125.481V40.6551H114.902V43.8683H125.184V47.8231H114.902V51.16H125.481V55.2383H110.156Z" fill="#016FD0"/>
<path d="M50.9862 55.2383L58.4478 45.9616L50.8086 36.4531H56.7253L61.2749 42.3312L65.8399 36.4531H71.5249L63.9861 45.8457L71.4614 55.2383H65.5456L61.1281 49.4529L56.818 55.2383H50.9862Z" fill="#016FD0"/>
<path d="M72.0195 36.4609V55.2461H76.8394V49.314H81.7829C85.9658 49.314 89.1363 47.0949 89.1363 42.7793C89.1363 39.2043 86.6496 36.4609 82.3931 36.4609H72.0195ZM76.8394 40.7092H82.0455C83.3968 40.7092 84.3628 41.5375 84.3628 42.872C84.3628 44.1257 83.4017 45.0348 82.0301 45.0348H76.8394V40.7092Z" fill="#016FD0"/>
<path d="M91.1758 36.4531V55.2383H95.8721V48.5646H97.8495L103.48 55.2383H109.219L103.04 48.3175C105.576 48.1034 108.192 45.9268 108.192 42.5475C108.192 38.5944 105.089 36.4531 101.627 36.4531H91.1758ZM95.8721 40.6551H101.24C102.528 40.6551 103.465 41.6624 103.465 42.6325C103.465 43.8805 102.251 44.6099 101.31 44.6099H95.8721V40.6551Z" fill="#016FD0"/>
<path d="M127.657 55.2383V51.16H137.056C138.446 51.16 139.048 50.4085 139.048 49.5842C139.048 48.7945 138.448 47.9961 137.056 47.9961H132.808C129.117 47.9961 127.061 45.7469 127.061 42.3699C127.061 39.3578 128.943 36.4531 134.429 36.4531H143.575L141.597 40.6798H133.688C132.176 40.6798 131.711 41.4732 131.711 42.2308C131.711 43.0096 132.286 43.8683 133.441 43.8683H137.89C142.005 43.8683 143.791 46.2028 143.791 49.2598C143.791 52.5464 141.801 55.2383 137.666 55.2383H127.657Z" fill="#016FD0"/>
<path d="M144.893 55.2383V51.16H154.292C155.683 51.16 156.285 50.4085 156.285 49.5842C156.285 48.7945 155.685 47.9961 154.292 47.9961H150.045C146.353 47.9961 144.297 45.7469 144.297 42.3699C144.297 39.3578 146.18 36.4531 151.666 36.4531H160.811L158.834 40.6798H150.924C149.412 40.6798 148.947 41.4732 148.947 42.2308C148.947 43.0096 149.522 43.8683 150.677 43.8683H155.126C159.242 43.8683 161.027 46.2028 161.027 49.2598C161.027 52.5464 159.037 55.2383 154.902 55.2383H144.893Z" fill="#016FD0"/>
</g>
</svg>
