<svg width="220" height="53" viewBox="0 0 220 53" fill="none" xmlns="http://www.w3.org/2000/svg">
<path d="M30.8148 0.164062C33.9046 5.47206 37.0212 10.7645 40.0776 16.0925C35.1375 24.8069 30.2686 33.5637 25.1613 42.1822C23.2017 45.4905 21.2956 48.83 19.3584 52.1495C13.0761 52.1874 6.79393 52.1851 0.511719 52.1762C0.70344 51.746 0.892932 51.3135 1.12478 50.9033C11.0163 33.9872 20.9456 17.0935 30.8148 0.164062Z" fill="#AE285D"/>
<path d="M167.515 13.2109C170.989 19.6849 174.46 26.1566 177.928 32.6327C176.705 32.6573 175.481 32.5948 174.259 32.6372C173.439 31.2104 172.727 29.7235 171.925 28.2878C168.84 28.1964 165.752 28.2588 162.664 28.2521C161.92 29.7302 161.108 31.1703 160.319 32.6216C159.113 32.6104 157.907 32.6461 156.703 32.635C160.257 26.1321 163.821 19.6336 167.515 13.2109ZM164.209 25.4833C166.314 25.5123 168.42 25.5078 170.527 25.5257C169.473 23.5639 168.523 21.5463 167.393 19.6269C166.309 21.5686 165.248 23.5193 164.209 25.4833Z" fill="#AE285D"/>
<path d="M179.951 13.1328C185.194 17.6895 190.437 22.2485 195.616 26.881C195.759 22.701 195.598 18.5211 195.725 14.3411C196.847 14.3634 197.968 14.3812 199.089 14.4013C199.054 20.8396 199.071 27.28 199.065 33.7183C195.62 30.8536 192.312 27.8285 188.91 24.9103C187.018 23.2918 185.143 21.6555 183.335 19.9456C183.29 24.1791 183.355 28.4148 183.263 32.6482C182.149 32.6527 181.034 32.6237 179.922 32.6326C179.931 26.1319 179.875 19.6335 179.951 13.1328Z" fill="#AE285D"/>
<path d="M69.1289 32.6071C72.7515 26.1398 76.2805 19.6213 79.9857 13.2031C83.4366 19.6837 86.9077 26.1554 90.3988 32.6138C89.1571 32.6428 87.9176 32.6405 86.6758 32.616C85.9223 31.1692 85.151 29.7313 84.4309 28.2666C81.3344 28.2265 78.2401 28.2599 75.1436 28.2599C74.3366 29.7201 73.6076 31.2271 72.7359 32.6517C71.5321 32.6182 70.3305 32.6428 69.1289 32.6071ZM76.6484 25.5C78.764 25.4911 80.8818 25.5201 82.9997 25.5134C81.9341 23.5628 80.9978 21.543 79.8541 19.6347C78.7774 21.5876 77.714 23.5427 76.6484 25.5Z" fill="#AE285D"/>
<path d="M120.682 14.8804C122.452 14.0087 124.525 13.895 126.44 14.2807C128.099 14.6307 129.432 15.81 130.444 17.1164C129.545 17.5712 128.654 18.0326 127.771 18.5164C126.58 16.6549 123.747 16.0619 122.019 17.5132C121.103 18.1686 121.177 19.7826 122.211 20.282C124.529 21.5594 127.35 21.8336 129.405 23.6015C131.501 25.3782 131.42 28.9295 129.479 30.7932C127.394 32.9066 124.092 33.3659 121.321 32.5744C119.001 31.9881 117.255 29.8547 116.945 27.5094C118.067 27.2642 119.199 27.0613 120.334 26.8852C120.47 27.9843 120.887 29.1948 121.923 29.7477C123.564 30.6283 125.943 30.4075 127.075 28.818C127.873 27.7368 127.637 26.076 126.547 25.2846C124.269 23.7575 121.243 23.6639 119.199 21.74C118.12 20.8215 117.672 19.2877 118.04 17.9256C118.332 16.5368 119.467 15.509 120.682 14.8804Z" fill="#AE285D"/>
<path d="M91.483 14.468C92.756 14.3008 94.0423 14.3588 95.3219 14.3721C96.6907 16.4097 98.0573 18.4473 99.4283 20.4827C100.871 18.4718 102.273 16.432 103.695 14.4078C105.008 14.3654 106.321 14.3432 107.634 14.3833C105.552 17.2792 103.457 20.1684 101.37 23.062C103.495 26.2834 105.813 29.3777 107.889 32.6325C106.638 32.6391 105.387 32.628 104.137 32.6168C102.545 30.3273 100.964 28.0289 99.3726 25.7394C97.7273 28.0378 96.0687 30.3251 94.4436 32.6369C93.1773 32.6614 91.9088 32.6436 90.6426 32.6458C92.8451 29.4178 95.1636 26.2722 97.4531 23.1044C95.4846 20.2107 93.4783 17.3438 91.483 14.468Z" fill="#AE285D"/>
<path d="M110.719 14.3923C111.847 14.3589 112.973 14.3611 114.101 14.3856C114.108 20.4694 114.103 26.5532 114.103 32.637C112.957 32.6392 111.814 32.637 110.668 32.637C110.71 26.5554 110.69 20.4739 110.719 14.3923Z" fill="#AE285D"/>
<path d="M143.635 14.375C146.528 14.4998 149.649 13.976 152.315 15.3938C154.915 16.7849 155.515 20.9114 153.118 22.7795C154.627 23.3747 156.087 24.4961 156.484 26.148C157.12 28.1745 155.998 30.4172 154.226 31.4672C150.996 33.2417 147.19 32.4146 143.684 32.6554C143.574 26.5627 143.643 20.4699 143.635 14.375ZM146.992 17.0011C146.999 18.74 146.994 20.4766 146.983 22.2133C148.24 22.162 149.634 22.2378 150.706 21.462C151.801 20.4878 151.76 18.4703 150.552 17.603C149.495 16.9343 148.191 17.0101 146.992 17.0011ZM147.012 24.6009C146.999 26.3732 147.005 28.1477 147.039 29.92C148.726 29.8308 150.543 30.1429 152.099 29.307C153.479 28.6292 153.733 26.4133 152.451 25.5082C150.907 24.3088 148.833 24.6388 147.012 24.6009Z" fill="#AE285D"/>
<path d="M202.987 14.375C204.11 14.3661 205.234 14.3705 206.36 14.3728C206.364 16.776 206.337 19.1814 206.389 21.5868C209.157 19.1502 211.98 16.776 214.764 14.3594C216.302 14.3683 217.84 14.375 219.379 14.3705C216.057 17.0947 212.762 19.848 209.498 22.6391C212.709 26.0276 216.035 29.3025 219.319 32.6197C217.794 32.6041 216.267 32.7245 214.748 32.5484C212.136 29.8821 209.541 27.2002 206.953 24.5117C206.763 24.7614 206.576 25.011 206.391 25.2607C206.324 27.7197 206.384 30.1764 206.342 32.6353C205.211 32.6286 204.081 32.6576 202.953 32.6509C202.962 26.5604 202.978 20.4677 202.987 14.375Z" fill="#AE285D"/>
<path d="M30.8164 32.5269C37.1209 32.5247 43.4254 32.4801 49.7299 32.5849C53.4841 39.1302 57.3586 45.6041 61.0794 52.1672C54.7749 52.1984 48.4726 52.1739 42.1681 52.1694C38.4161 45.6019 34.497 39.1346 30.8164 32.5269Z" fill="#AE285D"/>
</svg>
