<svg width="154" height="59" viewBox="0 0 154 59" fill="none" xmlns="http://www.w3.org/2000/svg">
<path d="M153.168 0.484131H95.9316V58.4463H153.168V0.484131Z" fill="#1361A2"/>
<path d="M94.4805 0.484375H0.0292969V58.4466H94.4805V0.484375Z" fill="#1361A2"/>
<path d="M149.959 0.484131L128.104 29.1022H131.389L153.168 0.484131H149.959Z" fill="#E1001E"/>
<path d="M139.681 41.8989C140.675 44.7263 142.738 52.0624 143.54 52.6737H138.153C138.153 52.0242 138.038 51.3746 137.885 50.7251C137.656 49.8845 135.707 43.5419 135.707 43.5419H127.149L125.811 45.4905C125.811 45.4905 127.416 50.6104 127.531 50.8779C127.722 51.3364 128.486 52.7119 128.486 52.7119H123.328C123.328 52.7119 123.213 51.9095 123.137 51.6039C123.099 51.3364 122.64 49.8845 122.64 49.8845C122.105 50.4958 121.609 51.1072 121.15 51.7949C120.806 52.4062 120.692 52.7119 120.692 52.7119H116.641C116.641 52.7119 116.489 51.9095 116.45 51.6039C116.412 51.3364 115.916 49.7699 115.916 49.7699C115.381 50.4194 114.884 51.0689 114.464 51.7567C114.311 52.0624 114.158 52.368 114.005 52.7119H109.993C109.993 52.7119 111.139 51.6039 111.522 51.1454C112.209 50.343 114.693 47.0571 114.693 47.0571L113.699 43.5801H105.179C105.179 43.5801 100.326 50.0373 100.135 50.2284C99.5241 50.9925 98.9892 51.8331 98.4925 52.7119H95.9707V51.0689C96.0471 51.0307 96.0471 50.9925 96.0853 50.9543C96.1617 50.9161 99.7533 46.3693 103.077 41.8989C106.058 38.0017 108.847 34.219 109.076 33.8751C109.611 32.9964 110.108 32.0793 110.528 31.1241H114.922C114.96 31.8501 115.075 32.5761 115.19 33.2638C115.304 33.6459 117.979 42.5485 118.055 42.6249L119.545 40.7145L117.024 32.8053C116.794 32.2322 116.527 31.6591 116.221 31.0859H121.303C121.265 31.5444 121.341 32.0412 121.456 32.4997C121.647 33.1492 122.755 37.1993 122.755 37.1993C122.755 37.1993 126.27 32.7289 126.461 32.4232C126.728 32.0411 126.843 31.5826 126.881 31.1241H131.161C130.358 31.8119 129.632 32.6143 129.021 33.4549L124.054 39.8739C124.054 39.8739 124.436 41.2494 124.665 41.8989C124.703 42.09 124.742 42.2428 124.742 42.2428C124.742 42.2428 124.856 42.1282 125.009 41.8989C126.194 40.4088 131.505 33.3402 131.81 32.7671C132.154 32.2322 132.422 31.6973 132.689 31.1241H136.854C136.892 31.6591 136.968 32.194 137.083 32.7289L139.681 41.8989ZM133.339 35.2507C132.039 37.2757 130.626 39.1861 129.097 41.0201H134.829C134.829 41.0201 133.721 37.5814 133.53 36.779C133.453 36.2823 133.415 35.7856 133.415 35.2507C133.415 35.2125 133.377 35.0978 133.339 35.2507ZM111.369 35.2507C110.07 37.2757 108.656 39.1861 107.128 41.0201H112.859C112.859 41.0201 111.751 37.5814 111.56 36.779C111.445 36.2823 111.407 35.7856 111.445 35.2507C111.445 35.2125 111.407 35.0978 111.369 35.2507ZM119.966 48.7382L121.532 46.5604C121.379 46.4075 120.501 43.6947 120.501 43.6947L118.972 45.6816L119.966 48.7382Z" fill="white"/>
<path d="M15.8473 31.203H12.5996V52.8672H15.8473V31.203Z" fill="white"/>
<path d="M31.6266 31.203H28.3789V52.8672H31.6266V31.203Z" fill="white"/>
<path d="M60.7809 39.3828H57.5332V52.8704H60.7809V39.3828Z" fill="white"/>
<path d="M79.6559 39.3828H76.4082V52.8704H79.6559V39.3828Z" fill="white"/>
<path d="M16.842 40.4532C16.842 40.4532 20.7011 37.7022 23.987 40.2621C24.6366 40.8353 25.1715 41.5612 25.4772 42.3636C26.0885 44.1594 26.2413 46.108 25.8592 48.0184C25.0569 52.6799 21.8473 53.2912 19.593 52.8709C17.3387 52.4124 16.7656 51.5718 16.7656 51.5718C17.9119 51.6864 19.0963 51.5718 20.2044 51.2662C21.8473 50.7312 22.1912 49.8907 22.4587 48.1713C22.7261 46.4519 22.6879 42.7075 21.5799 41.5994C20.4718 40.4532 16.8803 40.606 16.8803 40.606C16.8803 40.606 16.7274 40.4914 16.842 40.4532Z" fill="white"/>
<path d="M32.62 40.3725C32.62 40.3725 36.1734 37.889 39.5357 39.9522C40.6438 40.64 41.0259 42.474 41.0641 43.8495V52.7903L37.8164 52.8285L37.7782 43.4674C37.7782 43.4674 37.8164 41.1367 35.7913 40.7164C34.7597 40.4872 33.6899 40.4107 32.6582 40.5254C32.6582 40.5636 32.5436 40.4489 32.62 40.3725Z" fill="white"/>
<path d="M45.2667 40.4464C45.2667 40.4464 49.2404 38.0392 52.832 39.9879C54.0165 40.9049 54.6278 42.395 54.475 43.8851V52.8259L51.189 52.8641L51.1508 43.5031C51.1126 42.1276 50.081 40.9813 48.7437 40.752C47.5974 40.5228 46.413 40.4846 45.2285 40.6374C45.3049 40.5992 45.1903 40.4846 45.2667 40.4464Z" fill="white"/>
<path d="M61.3926 42.2442C62.0803 40.5248 63.6469 39.3403 65.5191 39.1875V42.2442H61.3926Z" fill="white"/>
<path d="M70.6386 35.5234V39.3825H74.3066V40.8344H70.6004V49.1639C70.6004 49.1639 70.524 51.4946 72.5108 51.3417C74.4976 51.1889 74.4212 51.3799 74.4212 51.3799C74.4594 51.4946 74.383 51.6092 74.3066 51.6856C73.0457 52.7937 71.3263 53.2139 69.7216 52.7937C69.0338 52.6026 68.4225 52.1823 67.964 51.6474C67.5819 50.9214 67.3527 50.0809 67.3145 49.2403C67.3145 49.1639 67.3145 37.2046 67.3145 37.2046L70.1801 35.5617L70.6386 35.5234Z" fill="white"/>
<path d="M47.2922 46.4478C47.4451 46.3332 47.5979 46.2186 47.7507 46.1422C48.4767 45.8747 49.2409 45.7983 50.005 45.9511C50.005 45.9511 50.4635 45.9511 50.1579 45.7218C49.3555 45.1105 48.4003 44.7284 47.4069 44.6902C45.3054 44.5374 43.4714 46.0657 43.2421 48.1672C43.2039 49.0078 43.3568 49.8484 43.6242 50.6507C44.0063 51.9116 45.1526 52.7904 46.4516 52.905C48.8588 53.0961 50.1961 52.0263 50.1961 51.8734C50.1961 51.7206 50.1197 51.7206 50.0432 51.7206C49.9668 51.7206 47.254 52.0644 46.7955 50.4979C46.5281 49.5045 46.4899 48.5111 46.6809 47.5176C46.7955 47.0974 47.0248 46.7535 47.2922 46.4478Z" fill="white"/>
<path d="M76.4082 31.0469H79.6941L76.4464 34.8295L76.4082 31.0469Z" fill="#008AD8"/>
<path d="M82.8649 33.3828V39.2669L77.7832 33.3828H82.8649Z" fill="#FFA600"/>
</svg>
