<svg width="191" height="59" viewBox="0 0 191 59" fill="none" xmlns="http://www.w3.org/2000/svg">
<path d="M8.60097 52.6802C8.48456 53.7084 8.08685 54.5232 7.39812 55.1247C6.7094 55.7261 5.82667 56.0268 4.75963 56.0268C3.50828 56.0268 2.51885 55.6097 1.78162 54.7754C1.04439 53.9412 0.675781 52.816 0.675781 51.39C0.675781 49.9447 1.04439 48.7903 1.78162 47.9367C2.51885 47.0831 3.50828 46.6562 4.75963 46.6562C5.81697 46.6562 6.69 46.9376 7.37872 47.5099C8.06745 48.0822 8.47486 48.8485 8.60097 49.8283H6.7385C6.6803 49.3529 6.47659 48.9649 6.11768 48.6836C5.76847 48.4023 5.31255 48.2568 4.77903 48.2568C4.0903 48.2568 3.54709 48.5284 3.15907 49.0813C2.77106 49.6343 2.57705 50.3909 2.57705 51.3706C2.57705 52.3213 2.77106 53.0682 3.15907 53.6017C3.54709 54.1352 4.0903 54.4068 4.77903 54.4068C5.32225 54.4068 5.76847 54.2516 6.11768 53.9315C6.46689 53.6211 6.6803 53.1943 6.7385 52.6608H8.60097V52.6802Z" fill="#002890"/>
<path d="M12.8485 55.9632C11.8203 55.9632 11.0054 55.6528 10.404 55.0417C9.8026 54.4209 9.49219 53.5963 9.49219 52.5487C9.49219 51.4817 9.7929 50.628 10.404 49.9975C11.0054 49.367 11.83 49.0469 12.8485 49.0469C13.8864 49.0469 14.7013 49.367 15.3027 49.9975C15.9041 50.628 16.2048 51.4817 16.2048 52.5487C16.2048 53.5963 15.9041 54.4306 15.3027 55.0417C14.7013 55.6625 13.8767 55.9632 12.8485 55.9632ZM12.8485 54.5179C13.3626 54.5179 13.7603 54.353 14.032 54.0135C14.3036 53.6739 14.4394 53.1792 14.4394 52.5293C14.4394 51.8697 14.3036 51.3653 14.032 51.016C13.7603 50.6765 13.3723 50.5019 12.8485 50.5019C12.3344 50.5019 11.9464 50.6765 11.6748 51.016C11.4032 51.3556 11.2771 51.86 11.2771 52.5293C11.2771 53.1792 11.4129 53.6739 11.6748 54.0135C11.9464 54.353 12.3344 54.5179 12.8485 54.5179Z" fill="#002890"/>
<path d="M17.4277 55.7964V49.2293H19.0768V50.1993C19.1447 50.0829 19.2223 49.9665 19.2999 49.8695C19.7267 49.3263 20.3475 49.0547 21.1624 49.0547C21.8511 49.0547 22.3943 49.2584 22.792 49.6755C23.1897 50.0829 23.3837 50.6552 23.3837 51.3828V55.8061H21.6474V51.7029C21.6474 51.2955 21.5601 50.9948 21.3855 50.8008C21.2109 50.6067 20.9393 50.5097 20.5803 50.5097C20.1244 50.5097 19.7752 50.6455 19.5327 50.9172C19.2902 51.1888 19.1641 51.5865 19.1641 52.1006V55.8061H17.4277V55.7964Z" fill="#002890"/>
<path d="M26.9936 50.4442V55.7988H25.2572V50.4442H24.2969V49.2317H25.2572V48.6787C25.2572 48.0482 25.4221 47.5729 25.7616 47.2625C26.1011 46.9521 26.6056 46.7969 27.2943 46.7969C27.6047 46.7969 27.8763 46.8066 28.1091 46.8357V48.2228H27.5562C27.3234 48.2228 27.1779 48.2713 27.1003 48.3586C27.0227 48.4556 26.9936 48.6399 26.9936 48.931V49.2317H28.1091V50.4442H26.9936Z" fill="#002890"/>
<path d="M31.6977 55.9613C30.6986 55.9613 29.9323 55.6509 29.389 55.0398C28.8458 54.419 28.5742 53.5459 28.5742 52.411C28.5742 51.3634 28.8458 50.5388 29.3987 49.9471C29.9517 49.3554 30.718 49.0547 31.6977 49.0547C32.6969 49.0547 33.4729 49.3554 34.0161 49.9665C34.5593 50.5679 34.8309 51.4313 34.8309 52.5565C34.8406 52.6826 34.8309 52.8184 34.8018 52.9445H30.33C30.3688 53.4683 30.4852 53.8564 30.6695 54.1086C30.912 54.4287 31.3097 54.5936 31.882 54.5936C32.1439 54.5936 32.3865 54.516 32.6096 54.3705C32.8327 54.2153 32.9685 54.0407 33.0073 53.837H34.7727C34.6272 54.5063 34.278 55.0301 33.7348 55.4084C33.1916 55.7867 32.5126 55.971 31.7074 55.971L31.6977 55.9613ZM33.017 51.829C32.9782 51.4313 32.8715 51.1306 32.7066 50.9075C32.4835 50.6164 32.1439 50.4709 31.6783 50.4709C31.2321 50.4709 30.8926 50.6455 30.6598 50.9851C30.5143 51.2082 30.4076 51.4895 30.3494 51.8387H33.0267L33.017 51.829Z" fill="#002890"/>
<path d="M38.3914 55.9645C37.5571 55.9645 36.8781 55.6347 36.364 54.9847C35.8499 54.3348 35.5977 53.4715 35.5977 52.4045C35.5977 51.3956 35.8499 50.5905 36.364 49.9697C36.8781 49.3488 37.5474 49.0481 38.3817 49.0481C39.1286 49.0481 39.7203 49.3585 40.1762 49.9891L40.2441 50.0861V46.9141H41.9805V55.7899H40.3023V54.9556L40.2732 54.9944C39.7979 55.6347 39.1674 55.9645 38.3914 55.9645ZM38.857 50.5517C38.3914 50.5517 38.0324 50.7263 37.7705 51.0852C37.5086 51.4441 37.3825 51.9388 37.3825 52.5694C37.3825 53.1902 37.5086 53.6752 37.7705 54.0244C38.0324 54.3736 38.3914 54.5482 38.857 54.5482C39.3226 54.5482 39.6912 54.3639 39.9531 53.9953C40.215 53.6267 40.3411 53.1223 40.3411 52.4724C40.3411 51.8709 40.215 51.4053 39.9531 51.0658C39.6912 50.7263 39.3323 50.5614 38.8667 50.5614L38.857 50.5517Z" fill="#002890"/>
<path d="M46.1313 55.9613C45.1322 55.9613 44.3659 55.6509 43.8226 55.0398C43.2794 54.419 43.0078 53.5459 43.0078 52.411C43.0078 51.3634 43.2891 50.5388 43.8323 49.9471C44.3853 49.3554 45.1516 49.0547 46.1313 49.0547C47.1305 49.0547 47.9065 49.3554 48.4497 49.9665C48.9929 50.5679 49.2645 51.4313 49.2645 52.5565C49.2742 52.6826 49.2645 52.8184 49.2354 52.9445H44.7636C44.8024 53.4683 44.9188 53.8564 45.1031 54.1086C45.3456 54.4287 45.7433 54.5936 46.3059 54.5936C46.5678 54.5936 46.8103 54.516 47.0335 54.3705C47.2566 54.2153 47.3924 54.0407 47.4312 53.837H49.1966C49.0511 54.5063 48.7019 55.0301 48.1587 55.4084C47.6155 55.7867 46.9365 55.971 46.1216 55.971L46.1313 55.9613ZM47.4506 51.829C47.4118 51.4313 47.3051 51.1306 47.1402 50.9075C46.9171 50.6164 46.5775 50.4709 46.1119 50.4709C45.6657 50.4709 45.3262 50.6455 45.0934 50.9851C44.9479 51.2082 44.8412 51.4895 44.783 51.8387H47.4603L47.4506 51.829Z" fill="#002890"/>
<path d="M50.3905 55.7964V49.2293H52.0396V50.403C52.0978 50.2769 52.1657 50.1508 52.2433 50.0344C52.6507 49.3845 53.1745 49.0547 53.8147 49.0547L54.2027 49.0644V50.8299C54.0475 50.8105 53.8729 50.8008 53.6789 50.8008C53.1551 50.8008 52.7574 50.9269 52.4955 51.1888C52.2336 51.4507 52.1075 51.8484 52.1075 52.3819V55.7964H50.3711H50.3905Z" fill="#002890"/>
<path d="M56.7911 55.9651C56.18 55.9651 55.695 55.7905 55.3264 55.4413C54.9577 55.0921 54.7734 54.6362 54.7734 54.0638C54.7734 53.4624 54.9383 52.9871 55.2779 52.6185C55.6077 52.2596 56.1024 52.0365 56.7426 51.9395L57.8873 51.7843C58.188 51.7455 58.4305 51.6776 58.6245 51.5806C58.7118 51.5418 58.7797 51.4641 58.8185 51.3574C58.867 51.2507 58.8864 51.144 58.867 51.0373C58.8379 50.853 58.7506 50.7075 58.5857 50.6008C58.3917 50.4747 58.1007 50.4165 57.732 50.4165C57.4022 50.4165 57.1403 50.4941 56.956 50.659C56.7717 50.8239 56.6747 51.047 56.6553 51.338H54.9965C55.0353 50.5717 55.2973 49.9897 55.7823 49.6114C56.2673 49.2331 56.9851 49.0391 57.9261 49.0391C58.7409 49.0391 59.3908 49.2137 59.8564 49.5532C60.3317 49.8927 60.5645 50.368 60.5645 50.9597V54.6265C60.5645 54.9175 60.5936 55.1309 60.6325 55.2473C60.681 55.3637 60.778 55.4607 60.9235 55.5286V55.7711H59.0513C58.9737 55.5092 58.9252 55.2473 58.8961 54.9951L58.8864 54.9854C58.3432 55.6256 57.635 55.9554 56.7717 55.9554L56.7911 55.9651ZM58.8767 53.3654V52.6088C58.673 52.7252 58.4111 52.8125 58.0813 52.8804L57.441 52.9968C57.1403 53.055 56.9075 53.1617 56.7523 53.3072C56.5971 53.4624 56.5195 53.6467 56.5195 53.8795C56.5195 54.1414 56.5874 54.3452 56.7329 54.5004C56.8687 54.6459 57.0724 54.7235 57.3246 54.7235C57.8776 54.7235 58.3238 54.5295 58.6536 54.1414C58.7215 54.0638 58.77 53.9474 58.8185 53.8019C58.8573 53.6564 58.8864 53.5109 58.8864 53.3654H58.8767Z" fill="#002890"/>
<path d="M65.1158 55.8305C64.8247 55.8596 64.4658 55.8693 64.0487 55.8693C63.4376 55.8693 63.0011 55.7625 62.7295 55.5394C62.4579 55.3163 62.3318 54.9671 62.3318 54.4627V50.4468H61.4199V49.2342H62.3318V47.4688H64.0681V49.2342H65.1255V50.4468H64.0681V54.1814C64.0681 54.3366 64.1166 54.4336 64.2039 54.4821C64.2912 54.5306 64.4852 54.55 64.7665 54.55H65.1255V55.8401L65.1158 55.8305Z" fill="#002890"/>
<path d="M66.2792 55.7953V49.2281H68.0155V55.7953H66.2792ZM66.2598 46.8516H68.0252V48.4521H66.2598V46.8516Z" fill="#002890"/>
<path d="M72.6239 55.9632C71.5957 55.9632 70.7808 55.6528 70.1794 55.0417C69.578 54.4209 69.2676 53.5963 69.2676 52.5487C69.2676 51.4817 69.5683 50.628 70.1794 49.9975C70.7808 49.367 71.6054 49.0469 72.6239 49.0469C73.6618 49.0469 74.4767 49.367 75.0781 49.9975C75.6795 50.628 75.9802 51.4817 75.9802 52.5487C75.9802 53.5963 75.6795 54.4306 75.0781 55.0417C74.4767 55.6625 73.6521 55.9632 72.6239 55.9632ZM72.6239 54.5179C73.138 54.5179 73.5357 54.353 73.8073 54.0135C74.079 53.6739 74.2148 53.1792 74.2148 52.5293C74.2148 51.8697 74.079 51.3653 73.8073 51.016C73.5357 50.6765 73.1477 50.5019 72.6239 50.5019C72.1098 50.5019 71.7218 50.6765 71.4502 51.016C71.1785 51.3556 71.0524 51.86 71.0524 52.5293C71.0524 53.1792 71.1882 53.6739 71.4502 54.0135C71.7218 54.353 72.1098 54.5179 72.6239 54.5179Z" fill="#002890"/>
<path d="M77.2012 55.7964V49.2293H78.8502V50.1993C78.9181 50.0829 78.9957 49.9665 79.0733 49.8695C79.5002 49.3263 80.121 49.0547 80.9358 49.0547C81.6245 49.0547 82.1678 49.2584 82.5655 49.6755C82.9632 50.0829 83.1572 50.6552 83.1572 51.3828V55.8061H81.4208V51.7029C81.4208 51.2955 81.3335 50.9948 81.1589 50.8008C80.9843 50.6067 80.7127 50.5097 80.3538 50.5097C79.8979 50.5097 79.5487 50.6455 79.3061 50.9172C79.0636 51.1888 78.9375 51.5865 78.9375 52.1006V55.8061H77.2012V55.7964Z" fill="#002890"/>
<path d="M91.161 55.9632C90.1328 55.9632 89.3179 55.6528 88.7165 55.0417C88.1151 54.4209 87.8047 53.5963 87.8047 52.5487C87.8047 51.4817 88.1054 50.628 88.7165 49.9975C89.3179 49.367 90.1425 49.0469 91.161 49.0469C92.1989 49.0469 93.0138 49.367 93.6152 49.9975C94.2166 50.628 94.5173 51.4817 94.5173 52.5487C94.5173 53.5963 94.2166 54.4306 93.6152 55.0417C93.0138 55.6625 92.1892 55.9632 91.161 55.9632ZM91.161 54.5179C91.6751 54.5179 92.0728 54.353 92.3445 54.0135C92.6161 53.6739 92.7519 53.1792 92.7519 52.5293C92.7519 51.8697 92.6161 51.3653 92.3445 51.016C92.0728 50.6765 91.6848 50.5019 91.161 50.5019C90.6469 50.5019 90.2589 50.6765 89.9873 51.016C89.7157 51.3556 89.5896 51.86 89.5896 52.5293C89.5896 53.1792 89.7254 53.6739 89.9873 54.0135C90.2589 54.353 90.6469 54.5179 91.161 54.5179Z" fill="#002890"/>
<path d="M97.7475 50.4442V55.7988H96.0111V50.4442H95.0508V49.2317H96.0111V48.6787C96.0111 48.0482 96.176 47.5729 96.5155 47.2625C96.855 46.9521 97.3595 46.7969 98.0482 46.7969C98.3586 46.7969 98.6302 46.8066 98.863 46.8357V48.2228H98.3101C98.0773 48.2228 97.9318 48.2713 97.8542 48.3586C97.7766 48.4556 97.7475 48.6399 97.7475 48.931V49.2317H98.863V50.4442H97.7475Z" fill="#002890"/>
<path d="M103.287 55.7977V46.9219H105.14V55.7977H103.287Z" fill="#002890"/>
<path d="M106.73 55.7964V49.2293H108.38V50.1993C108.447 50.0829 108.525 49.9665 108.603 49.8695C109.029 49.3263 109.65 49.0547 110.465 49.0547C111.154 49.0547 111.697 49.2584 112.095 49.6755C112.492 50.0829 112.686 50.6552 112.686 51.3828V55.8061H110.95V51.7029C110.95 51.2955 110.863 50.9948 110.688 50.8008C110.514 50.6067 110.242 50.5097 109.883 50.5097C109.427 50.5097 109.078 50.6455 108.835 50.9172C108.593 51.1888 108.467 51.5865 108.467 52.1006V55.8061H106.73V55.7964Z" fill="#002890"/>
<path d="M116.702 55.9645C115.868 55.9645 115.189 55.6347 114.675 54.9847C114.16 54.3348 113.908 53.4715 113.908 52.4045C113.908 51.3956 114.16 50.5905 114.675 49.9697C115.189 49.3488 115.858 49.0481 116.692 49.0481C117.439 49.0481 118.031 49.3585 118.487 49.9891L118.555 50.0861V46.9141H120.291V55.7899H118.613V54.9556L118.584 54.9944C118.108 55.6347 117.478 55.9645 116.702 55.9645ZM117.168 50.5517C116.702 50.5517 116.343 50.7263 116.081 51.0852C115.819 51.4441 115.693 51.9388 115.693 52.5694C115.693 53.1902 115.819 53.6752 116.081 54.0244C116.343 54.3736 116.702 54.5482 117.168 54.5482C117.633 54.5482 118.002 54.3639 118.264 53.9953C118.526 53.6267 118.652 53.1223 118.652 52.4724C118.652 51.8709 118.526 51.4053 118.264 51.0658C118.002 50.7263 117.643 50.5614 117.177 50.5614L117.168 50.5517Z" fill="#002890"/>
<path d="M121.902 55.7953V49.2281H123.639V55.7953H121.902ZM121.883 46.8516H123.648V48.4521H121.883V46.8516Z" fill="#002890"/>
<path d="M126.848 55.9651C126.237 55.9651 125.752 55.7905 125.383 55.4413C125.014 55.0921 124.83 54.6362 124.83 54.0638C124.83 53.4624 124.995 52.9871 125.334 52.6185C125.664 52.2596 126.159 52.0365 126.799 51.9395L127.944 51.7843C128.245 51.7455 128.487 51.6776 128.681 51.5806C128.768 51.5418 128.836 51.4641 128.875 51.3574C128.924 51.2507 128.943 51.144 128.924 51.0373C128.895 50.853 128.807 50.7075 128.642 50.6008C128.448 50.4747 128.167 50.4165 127.789 50.4165C127.459 50.4165 127.197 50.4941 127.013 50.659C126.828 50.8239 126.731 51.047 126.712 51.338H125.053C125.092 50.5717 125.354 49.9897 125.839 49.6114C126.324 49.2331 127.042 49.0391 127.983 49.0391C128.798 49.0391 129.447 49.2137 129.913 49.5532C130.388 49.8927 130.621 50.368 130.621 50.9597V54.6265C130.621 54.9175 130.65 55.1309 130.689 55.2473C130.738 55.3637 130.835 55.4607 130.98 55.5286V55.7711H129.108C129.03 55.5092 128.982 55.2473 128.953 54.9951L128.943 54.9854C128.4 55.6256 127.692 55.9554 126.828 55.9554L126.848 55.9651ZM128.933 53.3654V52.6088C128.73 52.7252 128.468 52.8125 128.138 52.8804L127.498 52.9968C127.197 53.055 126.964 53.1617 126.809 53.3072C126.654 53.4624 126.576 53.6467 126.576 53.8795C126.576 54.1414 126.644 54.3452 126.79 54.5004C126.925 54.6459 127.129 54.7235 127.381 54.7235C127.934 54.7235 128.38 54.5295 128.71 54.1414C128.778 54.0638 128.827 53.9474 128.875 53.8019C128.914 53.6564 128.943 53.5109 128.943 53.3654H128.933Z" fill="#002890"/>
<path d="M132.145 55.7964V49.2293H133.794V50.1993C133.861 50.0829 133.939 49.9665 134.017 49.8695C134.444 49.3263 135.064 49.0547 135.879 49.0547C136.568 49.0547 137.111 49.2584 137.509 49.6755C137.907 50.0829 138.101 50.6552 138.101 51.3828V55.8061H136.364V51.7029C136.364 51.2955 136.277 50.9948 136.102 50.8008C135.928 50.6067 135.656 50.5097 135.297 50.5097C134.841 50.5097 134.492 50.6455 134.25 50.9172C134.007 51.1888 133.881 51.5865 133.881 52.1006V55.8061H132.145V55.7964Z" fill="#002890"/>
<path d="M143.125 55.7977V46.9219H144.978V55.7977H143.125Z" fill="#002890"/>
<path d="M146.57 55.7964V49.2293H148.219V50.1993C148.287 50.0829 148.365 49.9665 148.442 49.8695C148.869 49.3263 149.49 49.0547 150.305 49.0547C150.994 49.0547 151.537 49.2584 151.935 49.6755C152.332 50.0829 152.526 50.6552 152.526 51.3828V55.8061H150.79V51.7029C150.79 51.2955 150.703 50.9948 150.528 50.8008C150.353 50.6067 150.082 50.5097 149.723 50.5097C149.267 50.5097 148.918 50.6455 148.675 50.9172C148.433 51.1888 148.307 51.5865 148.307 52.1006V55.8061H146.57V55.7964Z" fill="#002890"/>
<path d="M156.542 55.9645C155.708 55.9645 155.028 55.6347 154.514 54.9847C154 54.3348 153.748 53.4715 153.748 52.4045C153.748 51.3956 154 50.5905 154.514 49.9697C155.028 49.3488 155.698 49.0481 156.532 49.0481C157.279 49.0481 157.871 49.3585 158.327 49.9891L158.395 50.0861V46.9141H160.131V55.7899H158.453V54.9556L158.424 54.9944C157.948 55.6347 157.318 55.9645 156.542 55.9645ZM157.007 50.5517C156.542 50.5517 156.183 50.7263 155.921 51.0852C155.659 51.4441 155.533 51.9388 155.533 52.5694C155.533 53.1902 155.659 53.6752 155.921 54.0244C156.183 54.3736 156.542 54.5482 157.007 54.5482C157.473 54.5482 157.842 54.3639 158.104 53.9953C158.365 53.6267 158.492 53.1223 158.492 52.4724C158.492 51.8709 158.365 51.4053 158.104 51.0658C157.842 50.7263 157.483 50.5614 157.017 50.5614L157.007 50.5517Z" fill="#002890"/>
<path d="M163.428 49.2188V53.3317C163.428 53.7294 163.515 54.0301 163.69 54.2241C163.864 54.4181 164.126 54.5151 164.485 54.5151C164.931 54.5151 165.281 54.3793 165.523 54.1077C165.766 53.8361 165.882 53.4384 165.882 52.9243V49.2188H167.618V55.7859H165.969V54.7965C165.911 54.9226 165.834 55.0293 165.756 55.136C165.329 55.6792 164.708 55.9508 163.903 55.9508C163.214 55.9508 162.671 55.7471 162.283 55.3397C161.895 54.9323 161.701 54.3599 161.701 53.6421V49.2188H163.438H163.428Z" fill="#002890"/>
<path d="M172.945 51.1907C172.945 50.9384 172.838 50.7347 172.634 50.5795C172.421 50.4243 172.149 50.3467 171.8 50.3467C171.47 50.3467 171.208 50.4049 171.014 50.5213C170.83 50.6377 170.733 50.7929 170.733 50.9966C170.733 51.1422 170.84 51.2683 171.053 51.375C171.267 51.472 171.635 51.5884 172.169 51.7048C173.226 51.9376 173.944 52.1995 174.293 52.4808C174.652 52.7621 174.836 53.2083 174.836 53.8097C174.836 54.45 174.574 54.9738 174.06 55.3618C173.536 55.7595 172.848 55.9535 171.994 55.9535C170.985 55.9535 170.209 55.7595 169.666 55.3715C169.123 54.9835 168.832 54.4209 168.793 53.6836H170.558C170.568 53.9844 170.704 54.2172 170.956 54.3918C171.208 54.5664 171.558 54.6537 171.994 54.6537C172.343 54.6537 172.615 54.5955 172.809 54.4791C173.003 54.3627 173.1 54.1881 173.1 53.9844C173.1 53.8388 173.003 53.7127 172.819 53.606C172.625 53.509 172.295 53.4023 171.819 53.2956C170.704 53.0434 169.967 52.7815 169.588 52.5002C169.22 52.2286 169.026 51.8018 169.026 51.2295C169.026 50.5795 169.268 50.046 169.753 49.6483C170.238 49.2506 170.879 49.0469 171.674 49.0469C172.566 49.0469 173.284 49.2409 173.837 49.6386C174.38 50.0266 174.662 50.5504 174.662 51.1907H172.945Z" fill="#002890"/>
<path d="M179.124 55.8305C178.833 55.8596 178.474 55.8693 178.057 55.8693C177.445 55.8693 177.009 55.7625 176.737 55.5394C176.466 55.3163 176.34 54.9671 176.34 54.4627V50.4468H175.428V49.2342H176.34V47.4688H178.076V49.2342H179.133V50.4468H178.076V54.1814C178.076 54.3366 178.124 54.4336 178.212 54.4821C178.299 54.5306 178.493 54.55 178.774 54.55H179.133V55.8401L179.124 55.8305Z" fill="#002890"/>
<path d="M180.209 55.7964V49.2293H181.858V50.403C181.916 50.2769 181.984 50.1508 182.062 50.0344C182.469 49.3845 182.993 49.0547 183.643 49.0547L184.031 49.0644V50.8299C183.876 50.8105 183.701 50.8008 183.507 50.8008C182.983 50.8008 182.586 50.9269 182.324 51.1888C182.062 51.4507 181.936 51.8484 181.936 52.3819V55.7964H180.199H180.209Z" fill="#002890"/>
<path d="M190.899 49.2188L188.542 55.9217C188.164 57.0275 187.844 57.726 187.572 58.0073C187.3 58.2886 186.825 58.4341 186.127 58.4341L185.302 58.4147V57.0275C185.341 57.0469 185.457 57.0566 185.632 57.0566C186.098 57.0566 186.398 56.9596 186.544 56.7753C186.631 56.6589 186.718 56.4067 186.806 56.0284L184.352 49.2285H186.263L187.688 54.098L189.076 49.2285H190.89L190.899 49.2188Z" fill="#002890"/>
<path fill-rule="evenodd" clip-rule="evenodd" d="M68.7925 0.476562H122.736C125.336 0.476562 127.45 2.60094 127.45 5.19093V35.0777C127.45 37.6774 125.326 39.7921 122.736 39.7921H68.7925C66.1928 39.7921 64.0781 37.6677 64.0781 35.0777V5.19093C64.0781 2.59124 66.2025 0.476562 68.7925 0.476562ZM68.8313 1.86371L123.076 1.88311C123.415 1.93161 123.696 2.00922 124.026 2.12562C124.327 2.27113 124.579 2.42633 124.851 2.63004C125.103 2.85315 125.297 3.06655 125.501 3.33816C125.675 3.62917 125.801 3.89108 125.918 4.2112C126.005 4.56041 126.054 4.86112 126.073 5.22973L126.054 35.4172C126.005 35.7567 125.928 36.038 125.811 36.3678C125.666 36.6685 125.51 36.9208 125.307 37.1924C125.084 37.4446 124.86 37.6386 124.599 37.8423C124.308 38.0169 124.046 38.143 123.726 38.2594C123.367 38.3467 123.076 38.3952 122.707 38.4146L68.4627 38.3952C68.1232 38.3467 67.8419 38.2691 67.512 38.1527C67.2113 38.0072 66.9591 37.852 66.6875 37.6483C66.4353 37.4252 66.2413 37.2021 66.0376 36.9402C65.863 36.6491 65.7369 36.3872 65.6205 36.0671C65.5332 35.7082 65.4847 35.4075 65.4653 35.0486L65.4847 4.86112C65.5332 4.52161 65.6108 4.2306 65.7272 3.91048C65.8727 3.60007 66.0279 3.35756 66.2316 3.08596C66.4547 2.83375 66.6778 2.63974 66.9397 2.43603C67.2307 2.26143 67.4926 2.13532 67.8128 2.01892C68.1717 1.93161 68.4724 1.88311 68.8313 1.86371Z" fill="#002890"/>
<path fill-rule="evenodd" clip-rule="evenodd" d="M93.8276 9.06198L81.1299 8.98438L73.5345 12.331L70.2461 24.3206L75.3388 31.0527L87.6097 31.1206L89.6565 23.2148L76.0469 29.6655L81.2075 10.032L91.3444 17.4043L93.8276 9.06198Z" fill="#002890"/>
<path fill-rule="evenodd" clip-rule="evenodd" d="M90.248 31.1408V29.6663L92.2172 29.676L97.6106 10.2365L96.2235 10.188V9.10156L108.155 9.17917L108.145 10.2656L106.351 10.2462L100.715 29.7924L102.179 29.8021L102.17 31.2184L90.248 31.1408Z" fill="#002890"/>
<path fill-rule="evenodd" clip-rule="evenodd" d="M103.373 31.2189L103.383 29.7444L105.352 29.7541L110.745 10.3243L109.348 10.2661L109.358 9.17969L121.28 9.25729V10.3437L119.476 10.334L113.849 29.8705L115.314 29.8802L115.304 31.2965L103.373 31.2189Z" fill="#002890"/>
</svg>
