<svg width="162" height="59" viewBox="0 0 162 59" fill="none" xmlns="http://www.w3.org/2000/svg">
<path d="M81.1434 0.47644C36.6544 0.47644 0.621094 13.4304 0.621094 29.4581C0.621094 45.481 36.6568 58.4386 81.1434 58.4386C125.636 58.4386 161.666 45.4804 161.666 29.4581C161.666 13.4298 125.636 0.47644 81.1434 0.47644Z" fill="#00095B"/>
<path d="M81.5507 55.9002C38.7093 55.9002 3.98047 43.9329 3.98047 29.1694C3.98047 14.404 38.7099 2.43738 81.5507 2.43738C124.388 2.43738 159.115 14.4034 159.115 29.1694C159.115 43.9323 124.387 55.9002 81.5507 55.9002ZM81.5507 4.75341C40.2146 4.75341 6.70736 15.6829 6.70736 29.1694C6.70736 42.6565 40.2134 53.5872 81.5507 53.5872C122.886 53.5872 156.388 42.6559 156.388 29.1694C156.388 15.6829 122.884 4.75341 81.5507 4.75341Z" fill="white"/>
<path d="M61.3165 9.09385C60.2157 9.09732 59.1092 9.14016 57.9953 9.23131C50.5968 9.8479 43.5546 13.9725 43.5418 20.2346C43.5339 23.41 45.8139 25.9831 49.3467 25.8699C53.4979 25.7305 56.9057 22.4375 58.6898 18.2857C59.3666 16.7104 58.1131 16.0561 57.5165 16.963C56.4776 18.5474 55.0304 19.822 53.3275 20.6526C51.3742 21.5997 49.2865 21.3442 48.6534 19.7738C47.7635 17.5582 49.6133 14.2428 53.8345 12.6828C59.9317 10.4477 66.3111 11.9262 72.4497 13.0681C72.5373 13.0681 72.8643 13.2476 72.5752 13.3968C71.4759 13.9902 70.3936 14.4728 68.7076 15.9093C67.4987 16.9343 65.9162 18.299 64.6921 19.7854C63.4772 21.2505 62.6161 22.5572 61.4766 24.0059C61.3177 24.2153 61.1222 24.2056 61.1246 24.2056C58.3472 24.6701 55.6283 24.9812 53.1388 26.6952C52.6238 27.047 52.4003 27.6715 52.7126 28.1493C52.9932 28.573 53.635 28.6179 54.0805 28.2972C55.6272 27.1516 57.2195 26.6124 59.0455 26.5625C59.1253 26.5674 59.1636 26.5802 59.1861 26.6288C59.2001 26.6562 59.1916 26.7139 59.1588 26.7566C56.4234 30.5139 55.7384 31.3631 53.6804 33.6925C52.628 34.8898 51.5927 35.9003 50.4362 36.9521C45.764 41.25 40.7386 41.1757 38.9357 38.481C37.8583 36.8638 38.0003 35.1661 38.7064 33.7576C39.5756 32.0326 41.3321 30.7683 42.7929 30.03C43.3352 29.7561 43.4912 29.0695 42.9483 28.4437C42.6032 28.0359 41.7661 27.9635 41.1428 28.0767C39.2291 28.4267 36.9678 29.8591 35.6318 31.5829C34.1259 33.5172 33.3737 35.8656 33.6263 38.5012C34.0797 43.2568 38.0344 46.0038 42.524 45.9721C46.0965 45.9445 49.4615 44.8727 53.5106 40.803C57.285 37.0073 60.7236 31.3374 63.9435 26.0797C64.0446 25.9117 64.1163 25.8216 64.6057 25.7613C66.6253 25.5112 69.6074 25.2264 71.5186 25.1169C71.9435 25.0937 72.0298 25.0984 72.2002 25.3084C72.6981 25.9305 73.4461 26.4584 74.045 26.7798C74.3372 26.9369 74.4761 27.0152 74.7055 27.0189C74.9886 27.025 75.2089 26.8742 75.3513 26.7147C75.554 26.4944 75.61 26.2062 75.5004 26.0205C75.386 25.8258 74.0531 25.0944 74.0136 24.7985C73.9843 24.6141 74.1881 24.5696 74.1881 24.5696C75.1681 24.2652 76.1876 23.6389 76.8054 22.4672C77.4123 21.3137 77.5102 19.7743 76.4 18.9185C75.4255 18.1668 73.9531 18.2854 72.7784 19.3293C71.6292 20.3428 71.2489 21.8172 71.4041 23.1095C71.4321 23.3335 71.4205 23.4088 71.1119 23.4344C69.3455 23.5744 67.6436 23.623 65.7506 23.7222C65.624 23.7313 65.5838 23.6485 65.6575 23.5615C67.8372 19.812 71.0917 17.1419 74.6914 14.5124C74.93 14.3353 74.8571 13.9985 74.8474 13.7173C81.3469 15.1154 87.628 17.7176 94.3709 17.6622C97.1593 17.6397 99.8288 17.2198 102.38 15.8338C104.625 14.6219 105.535 13.5008 105.602 12.3358C105.655 11.5305 105.089 11.0215 104.284 11.195C97.4707 12.7447 90.9713 12.7276 84.193 11.9156C76.4512 10.9852 69.0224 9.06971 61.3165 9.09385ZM74.916 19.9603C75.0752 19.9687 75.2242 20.0216 75.3447 20.1238C75.7038 20.4276 75.5338 21.1854 75.1711 21.7101C74.7748 22.2889 74.1028 22.7886 73.4898 22.9104C73.3669 22.9329 73.2604 22.8806 73.2099 22.6109C73.1101 21.8969 73.3446 20.9408 74.1152 20.267C74.3564 20.0558 74.6506 19.9462 74.916 19.9603ZM129.608 20.0971C128.369 20.0971 126.745 20.0993 125.454 20.0993C125.146 20.0993 124.987 20.1365 124.842 20.4195C124.366 21.3234 118.56 29.9382 117.479 31.6115C117.298 31.8659 117.075 31.8304 117.05 31.5401C116.94 30.5467 116.074 29.4049 114.708 28.8583C113.668 28.4401 112.65 28.3647 111.593 28.5035C109.683 28.7573 107.982 29.7556 106.486 30.8799C104.232 32.5775 102.288 34.7752 99.7769 36.4003C98.4062 37.2848 96.5297 38.0562 95.274 36.9058C94.1376 35.8625 94.2653 33.5447 96.0043 31.7527C96.1875 31.5646 96.4073 31.7215 96.3727 31.8902C96.2083 32.7009 96.4105 33.507 97.0319 34.0724C97.7903 34.745 98.8761 34.8217 99.8049 34.3725C100.902 33.835 101.546 32.7958 101.735 31.6162C102.025 29.7871 100.602 28.1736 98.8239 28.0446C97.3783 27.9442 95.9924 28.4421 94.6424 29.5462C93.9649 30.1019 93.5794 30.5134 92.9945 31.3375C92.8515 31.5408 92.6324 31.5615 92.6397 31.2614C92.7073 28.9198 91.7283 27.6022 89.7727 27.5589C88.2558 27.5236 86.634 28.3379 85.3703 29.3361C83.985 30.4378 82.7737 31.8974 81.4754 33.2694C81.3141 33.4386 81.1729 33.4308 81.1278 33.1027C81.0883 31.5512 80.6943 30.0483 79.9688 28.9813C79.7125 28.61 79.1725 28.426 78.7185 28.6768C78.5091 28.7906 77.7794 29.1225 77.2492 29.5456C76.9857 29.7604 76.8838 30.0713 76.9995 30.47C77.6995 32.7872 77.5455 35.4228 76.5959 37.6494C75.7237 39.6872 74.0286 41.5268 72.037 42.1489C70.7247 42.561 69.3599 42.3594 68.5157 41.2072C67.3562 39.6173 67.825 36.8527 69.5524 34.5562C71.0784 32.5354 73.2837 31.251 75.4853 30.4238C75.7446 30.3252 75.7974 30.1611 75.7243 29.9431C75.6044 29.584 75.4141 29.0968 75.3356 28.8734C75.1341 28.342 74.5686 28.255 73.8789 28.3299C72.2799 28.5143 70.838 29.0566 69.4131 29.812C65.6819 31.7902 63.8119 35.6188 62.9914 37.6676C62.597 38.6507 62.2593 39.2655 61.8229 39.8097C61.2349 40.5419 60.4965 41.2078 59.1465 42.382C59.0248 42.4897 58.9335 42.7142 59.0358 42.9223C59.1739 43.2054 59.8756 44.1866 60.0741 44.2742C60.2938 44.3814 60.5487 44.2318 60.6509 44.1588C61.5956 43.5252 62.726 42.5202 63.2792 41.8384C63.4728 41.6053 63.6727 41.7034 63.7756 42.0577C64.2917 43.8813 65.6434 45.3699 67.5126 45.9926C70.9334 47.1351 74.482 45.4815 77.1602 42.6031C78.8621 40.774 79.4764 39.5973 80.1288 38.7975C81.2342 37.4407 83.4157 34.406 86.013 32.4576C86.9655 31.7393 88.0935 31.1915 88.6608 31.5549C89.1154 31.847 89.2622 32.5256 88.5318 33.8403C85.884 38.6288 81.9858 44.2549 81.2713 45.6202C81.141 45.8569 81.2548 46.0426 81.505 46.0426C82.8909 46.0365 84.2654 46.0394 85.5235 46.0394C85.7323 46.0297 85.8268 45.9354 85.9315 45.7887C87.9639 42.6388 89.8769 39.6394 91.9269 36.5394C92.0426 36.3568 92.1479 36.4983 92.1522 36.578C92.1948 37.2969 92.3729 38.2812 92.8039 38.9277C93.5793 40.1219 94.6776 40.6349 95.8961 40.6428C96.8651 40.6538 97.3551 40.5078 98.4002 40.1213C99.1314 39.8496 99.8232 39.4819 100.458 39.028C100.764 38.818 100.817 39.1701 100.809 39.2243C100.339 41.7253 100.92 44.6881 103.43 45.9171C106.435 47.384 109.735 45.3225 111.634 43.4618C111.82 43.2822 112.02 43.3011 112.039 43.687C112.079 44.3979 112.403 45.2411 112.997 45.8315C114.588 47.4129 117.8 46.7864 121.023 44.3157C123.092 42.735 125.257 40.5006 127.213 38.1347C127.285 38.0434 127.339 37.8954 127.199 37.7469C126.901 37.4383 126.47 37.0851 126.175 36.813C126.041 36.6998 125.843 36.7322 125.729 36.8181C123.724 38.7056 121.92 40.8586 119.311 42.6389C118.432 43.2464 117.031 43.737 116.401 42.8934C116.155 42.5659 116.184 42.1123 116.425 41.5176C117.187 39.6392 129.226 21.4896 129.85 20.4208L129.851 20.4195C129.958 20.2332 129.845 20.0971 129.608 20.0971ZM112.739 31.4438C113.054 31.4411 113.349 31.5012 113.618 31.6291C115.101 32.3297 114.627 34.0297 113.964 35.3646C113.942 35.4064 113.928 35.4522 113.923 35.4995C113.919 35.5468 113.923 35.5944 113.938 35.6398C113.962 35.7786 114.144 35.9131 114.324 35.977C114.386 36.0001 114.422 36.0451 114.351 36.1912C113.838 37.2777 113.368 37.904 112.726 38.8475C112.137 39.7197 111.472 40.3997 110.666 41.0546C109.452 42.0498 107.766 43.1326 106.372 42.4046C105.753 42.0857 105.485 41.2279 105.498 40.5334C105.53 38.5796 106.405 36.5746 108.025 34.6037C109.63 32.6473 111.373 31.4558 112.739 31.4438Z" fill="white"/>
</svg>
