<svg width="159" height="59" viewBox="0 0 159 59" fill="none" xmlns="http://www.w3.org/2000/svg">
<g opacity="0.9" clip-path="url(#clip0_4151_27434)">
<path d="M33.4856 0.476562H39.4135C44.2525 0.766374 49.1354 1.346 53.7197 3.0146C53.2718 7.13783 52.8458 11.2654 52.4506 15.393C46.7071 12.1041 39.7912 11.0415 33.2836 12.0822C29.1252 12.7321 24.9054 14.0669 21.7307 16.9387C18.793 19.5558 16.9444 23.3541 16.6678 27.2753C16.0179 32.5534 17.221 38.3145 21.0413 42.2006C23.8999 45.2524 27.9704 46.8946 32.0497 47.4962C34.8819 47.8211 37.8284 47.8168 40.5289 46.7892C38.0347 50.649 35.6065 54.5483 33.1211 58.4168C29.9727 58.1797 26.7453 58.7461 23.6627 57.8635C17.9763 56.454 12.3952 53.9423 8.28518 49.6698C3.66138 45.125 1.32972 38.6745 0.873047 32.2943V27.4158C1.29459 20.7019 3.64382 13.8254 8.66282 9.14894C15.267 2.89165 24.6815 0.946408 33.4856 0.476562Z" fill="#003974"/>
<path d="M111.931 1.91895C120.278 1.897 128.63 1.91017 136.982 1.91017C140.907 1.90578 144.987 2.15168 148.605 3.80711C156.5 7.59661 159.798 18.2801 155.872 26.0084C154.335 29.5915 151.143 32.112 147.652 33.662C148.662 35.6292 149.514 37.6711 150.304 39.7349C152.93 45.9614 155.574 52.1792 158.129 58.4365H143.362C140.481 51.0244 137.662 43.5903 134.712 36.2045C131.546 36.2045 128.38 36.222 125.218 36.1957C125.222 43.6078 125.209 51.0244 125.227 58.4365H124.999C120.787 50.9585 116.164 43.722 111.931 36.2616C111.904 24.814 111.913 13.3665 111.931 1.91895ZM125.218 13.1118C125.218 16.9716 125.218 20.8313 125.218 24.6955C130.501 24.7306 135.783 24.6516 141.061 24.735C143.243 22.9303 144.284 19.6677 143.423 16.9496C142.809 15.4347 141.996 13.8451 140.464 13.0811C135.383 13.1469 130.299 13.0942 125.218 13.1118Z" fill="#003974"/>
<path d="M36.2969 24.8876C42.3522 24.7427 48.4119 24.8569 54.4715 24.8305C52.298 28.3961 49.9751 31.8694 47.7883 35.4262C43.9593 35.3823 40.1215 35.514 36.2969 35.3559C36.354 31.8694 36.354 28.3785 36.2969 24.8876Z" fill="#003974"/>
<path d="M54.4705 24.8346C59.169 17.4488 63.9333 10.1069 68.5439 2.66406C72.2544 8.78083 75.9253 14.9196 79.526 21.0978C79.6709 21.3525 79.9651 21.8575 80.11 22.1121C77.4314 26.4944 74.6563 30.8152 71.9865 35.2063C70.8668 33.5465 69.949 31.7637 68.9479 30.0336C62.7082 39.5359 56.3411 48.9548 50.0794 58.4395H33.4987L33.1211 58.4175C35.6064 54.549 38.0347 50.6497 40.5288 46.79C42.9308 42.9917 45.3151 39.1802 47.7873 35.4303C49.974 31.8735 52.2969 28.4002 54.4705 24.8346Z" fill="#ED1C24"/>
<path d="M86.8729 39.0928C87.4349 38.2058 87.9487 37.2441 88.8313 36.625C93.1785 43.8922 97.552 51.1375 101.833 58.4399H85.1648L85.6214 58.3345C83.9001 55.59 82.2271 52.8017 80.699 49.9475C80.6375 49.7675 80.5146 49.4074 80.4531 49.2318C82.5125 45.8023 84.7827 42.5046 86.8729 39.0928Z" fill="#ED1C24"/>
<path d="M91.9436 3.04688C92.9096 4.16221 93.5595 5.49709 94.2972 6.76611C100.212 16.5758 106.008 26.4601 111.932 36.2654C116.165 43.7258 120.789 50.9623 125 58.4403H108.862C103.984 50.1631 99.145 41.8596 94.2533 33.5868C93.6781 32.5066 93.0721 31.4352 92.3256 30.4604C91.5177 31.8391 90.7009 33.2136 89.7788 34.5177C89.366 35.1676 88.7557 35.7955 88.8303 36.6254C87.9477 37.2446 87.434 38.2062 86.8719 39.0932C84.7818 42.5051 82.5116 45.8028 80.4521 49.2322C80.5136 49.4078 80.6366 49.7679 80.698 49.9479C80.54 49.8865 80.2238 49.7591 80.0657 49.6933C78.2171 52.6133 76.3333 55.5026 74.5198 58.4403H57.5C62.3258 50.6944 67.1516 42.9486 71.9862 35.2071C74.6559 30.816 77.4311 26.4952 80.1096 22.1129C79.9647 21.8582 79.6705 21.3533 79.5256 21.0986C79.7408 21.283 80.1755 21.6562 80.3907 21.8407C84.1187 15.5044 88.2551 9.40515 91.9436 3.04688Z" fill="#FAAB53"/>
</g>
<defs>
<clipPath id="clip0_4151_27434">
<rect width="157.201" height="57.9622" fill="white" transform="translate(0.873047 0.476562)"/>
</clipPath>
</defs>
</svg>
