<svg width="108" height="57" viewBox="0 0 108 57" fill="none" xmlns="http://www.w3.org/2000/svg">
<path d="M11.5092 26.1094V32.5919H3.89532V26.1094H0.8125V40.7035H3.89532V33.8995H11.5092L11.5061 39.1362C11.5061 39.4639 11.5726 39.7351 11.7024 39.9446C11.8323 40.147 11.9977 40.3078 12.194 40.4229C12.3841 40.5327 12.5935 40.6084 12.8199 40.6494C13.0417 40.6865 13.235 40.705 13.4127 40.705H14.5944V26.1094" fill="#006397"/>
<path d="M71.7698 40.705V26.1094H68.7535L62.72 36.9197L56.5668 26.1094H53.5156V40.705H55.0876V29.3869L61.5654 40.705H62.3692L68.6762 29.4743V39.1323C68.6762 39.4623 68.7473 39.7328 68.8787 39.943C69.0062 40.1432 69.1708 40.3024 69.3679 40.4191C69.5588 40.5327 69.7705 40.6084 69.9947 40.6455C70.2118 40.6826 70.4066 40.705 70.5882 40.705" fill="#006397"/>
<path d="M91.1076 40.7054L83.4002 25.7891H82.4968L74.6016 40.707H76.4038L78.856 36.0661H84.4551L83.6808 34.5769H79.6435L82.2387 29.6725L87.3293 39.5462C87.5302 39.9504 87.7806 40.251 88.0743 40.4326C88.3695 40.622 88.7567 40.7054 89.225 40.7054" fill="#006397"/>
<path d="M107.144 26.1094C107.06 26.1094 106.969 26.1156 106.859 26.1318C106.75 26.1542 106.644 26.1913 106.549 26.2469C106.444 26.308 106.359 26.3915 106.296 26.4935C106.226 26.6048 106.191 26.7439 106.191 26.9092V36.3169L95.9277 26.1094H93.9492V40.7035H95.7476V29.7007L106.161 40.3418C106.587 40.7344 107.173 40.7035 107.744 40.7035H107.959V26.1094" fill="#006397"/>
<path d="M30.3916 20.2586C30.3916 20.2586 33.9845 18.2407 36.6732 17.1108C43.3048 14.3271 49.1404 12.691 54.5178 11.684C58.8588 10.8718 72.0997 8.83691 82.5954 12.0882C82.7624 14.5048 82.0954 17.2801 80.7499 20.2586H85.0569C86.1172 18.0591 86.8375 15.9462 87.169 13.9708C88.7974 14.8426 90.2905 15.8998 91.5865 17.1835C92.7868 18.3721 93.9483 20.2586 93.9483 20.2586H95.851C95.851 20.2586 95.0395 18.4447 93.2435 16.6363C91.5765 14.9577 89.5069 13.6818 87.3298 12.7096C87.6552 8.86473 86.3769 5.61499 83.1179 3.36528C75.3223 -2.01593 59.8488 1.07461 45.597 8.63056C39.2134 12.0156 33.3948 16.1278 28.6172 20.2586H30.3916ZM74.592 9.69707C67.6945 9.11668 59.8364 9.9351 54.5812 10.9885C48.1729 12.2752 42.1966 14.0674 36.5541 16.5103C35.2666 17.0683 34.0324 17.6789 32.8021 18.328C36.6971 15.4268 41.1015 12.6338 45.7848 10.2759C58.9422 3.64891 72.7511 1.14108 79.2684 5.95039C81.0652 7.27502 82.0939 9.00152 82.4633 11.0232C79.3341 10.1979 76.4221 9.85164 74.592 9.69707Z" fill="#18A4DE"/>
<path d="M26.2915 25.7891H25.3888L17.4805 40.7054H19.2819L25.1299 29.6725L27.6594 34.5769H23.6005L22.8176 36.0661H28.4353L30.2121 39.5477C30.413 39.9519 30.6634 40.2526 30.9571 40.4365C31.2531 40.6235 31.6395 40.707 32.1078 40.707H34.0059" fill="#006397"/>
<path d="M72.0014 48.5156H70.8274C63.069 51.7229 54.0841 53.8373 45.0327 54.1897C48.9255 52.8187 53.0431 50.9214 57.1831 48.5156H53.3005C49.2068 50.8287 45.1556 52.6163 41.3741 53.8281C40.9591 53.961 40.5503 54.0854 40.1461 54.2044C33.5624 53.9594 28.3396 52.4926 24.7135 50.2444C23.8487 49.7066 23.0906 49.1262 22.4128 48.5156H21.6253C22.429 49.3395 23.3765 50.1107 24.4747 50.8117C27.6758 52.8543 32.1218 54.3041 37.6576 54.8513C32.5747 56.0144 28.4308 55.9255 25.3882 54.9131C22.344 53.8984 20.0719 51.9655 19.238 49.426C19.1422 49.1316 19.0618 48.8271 18.9938 48.5156H18.4961C18.5757 48.9105 18.6731 49.2985 18.7944 49.671C19.7125 52.498 22.2273 54.6658 25.4802 55.8274C29.3451 57.2107 34.9558 57.2053 42.0195 55.1596C42.0952 55.1372 42.1709 55.1148 42.2459 55.0909C51.676 55.1821 62.3688 52.9818 72.0014 48.5156Z" fill="#18A4DE"/>
<path d="M46.1126 39.5345L41.566 34.0335H39.9863V40.703H36.9043V26.1096H42.5629C42.5629 26.1096 44.8984 26.0741 46.4279 26.8315C47.9573 27.5881 48.6042 28.6507 48.6042 29.9993C48.6042 31.3479 47.7873 32.9391 44.8637 33.7382L50.7526 40.7053H48.3916C48.3916 40.7053 47.8955 40.7068 47.3166 40.5136C46.7378 40.3189 46.1126 39.5345 46.1126 39.5345ZM39.9786 27.391V32.9206H41.4053C41.4053 32.9206 42.8211 32.9407 43.7407 32.4198C44.6604 31.8981 45.3111 31.1732 45.3111 30.0897C45.3111 29.007 44.6094 28.0479 43.6163 27.6677C43.6163 27.6677 43.0483 27.391 42.0351 27.391" fill="#006397"/>
</svg>
