<svg width="490" height="73" viewBox="0 0 490 73" fill="none" xmlns="http://www.w3.org/2000/svg">
<g clip-path="url(#clip0_4151_27557)">
<path d="M42.4224 8.17825C45.9264 8.99425 49.1424 10.4462 52.0704 12.5342C54.9984 14.6223 57.4824 17.1782 59.5224 20.2022C61.5624 23.2263 62.9904 26.5142 63.8064 30.0662C64.2384 31.9383 65.0664 33.4982 66.2904 34.7463C67.5144 35.9943 69.0384 36.7142 70.8624 36.9062C69.0384 37.0503 67.5144 37.7342 66.2904 38.9583C65.0664 40.1823 64.2384 41.7542 63.8064 43.6742C62.9904 47.2743 61.5624 50.5862 59.5224 53.6102C57.4824 56.6343 54.9984 59.1902 52.0704 61.2783C49.1424 63.3663 45.9264 64.8182 42.4224 65.6343C40.5504 66.0663 39.0384 66.9062 37.8864 68.1543C36.6384 69.4503 35.9424 71.0342 35.7984 72.9062C35.6064 71.0342 34.9104 69.4503 33.7104 68.1543C32.5104 66.9062 30.9984 66.0663 29.1744 65.6343C23.8944 64.3382 19.3224 61.7103 15.4584 57.7503C11.5944 53.7902 9.06238 49.0983 7.86238 43.6742C7.43037 41.8022 6.59038 40.2543 5.34238 39.0303C4.09437 37.8062 2.55838 37.0983 0.734375 36.9062C2.55838 36.7142 4.09437 36.0063 5.34238 34.7822C6.59038 33.5582 7.43037 31.9863 7.86238 30.0662C8.67838 26.5142 10.0944 23.2263 12.1104 20.2022C14.1264 17.1782 16.5984 14.6223 19.5264 12.5342C22.4544 10.4462 25.6704 8.99425 29.1744 8.17825C30.9984 7.74625 32.5104 6.89426 33.7104 5.62225C34.9104 4.35024 35.6064 2.77826 35.7984 0.90625C35.9424 2.77826 36.6144 4.35024 37.8144 5.62225C39.0144 6.89426 40.5504 7.74625 42.4224 8.17825ZM35.7984 48.7142C37.8624 48.7142 39.7824 48.1863 41.5584 47.1302C43.3344 46.0742 44.7384 44.6463 45.7704 42.8462C46.8024 41.0462 47.3184 39.0663 47.3184 36.9062C47.3184 34.7462 46.8024 32.7663 45.7704 30.9662C44.7384 29.1662 43.3344 27.7383 41.5584 26.6823C39.7824 25.6262 37.8624 25.0982 35.7984 25.0982C33.7344 25.0982 31.8144 25.6262 30.0384 26.6823C28.2624 27.7383 26.8584 29.1662 25.8264 30.9662C24.7944 32.7663 24.2784 34.7462 24.2784 36.9062C24.2784 39.0663 24.7944 41.0462 25.8264 42.8462C26.8584 44.6463 28.2624 46.0742 30.0384 47.1302C31.8144 48.1863 33.7344 48.7142 35.7984 48.7142ZM20.6064 19.1943H32.9184V13.4343C28.2143 14.1063 24.1104 16.0262 20.6064 19.1943ZM38.6784 19.1943H50.9904C47.4864 16.0262 43.3824 14.1063 38.6784 13.4343V19.1943ZM35.7984 60.5223C39.1104 60.5223 42.0144 59.9943 44.5104 58.9383C46.6704 58.0262 48.8304 56.5863 50.9904 54.6183H20.6064C22.6704 56.4903 24.9984 57.9422 27.5904 58.9743C30.1824 60.0063 32.9184 60.5223 35.7984 60.5223ZM35.7984 42.8102C34.2144 42.8102 32.8584 42.2343 31.7304 41.0822C30.6024 39.9302 30.0384 38.5383 30.0384 36.9062C30.0384 35.2742 30.6024 33.8823 31.7304 32.7303C32.8584 31.5782 34.2144 31.0023 35.7984 31.0023C37.3824 31.0023 38.7384 31.5782 39.8664 32.7303C40.9944 33.8823 41.5584 35.2742 41.5584 36.9062C41.5584 38.5383 40.9944 39.9302 39.8664 41.0822C38.7384 42.2343 37.3824 42.8102 35.7984 42.8102ZM22.9824 48.7142C21.5424 47.1302 20.4504 45.3303 19.7064 43.3143C18.9624 41.2982 18.5904 39.1623 18.5904 36.9062C18.5904 34.6502 18.9744 32.5023 19.7424 30.4623C20.5104 28.4222 21.5904 26.6343 22.9824 25.0982H15.9264C13.8624 28.6503 12.8304 32.5742 12.8304 36.8703C12.8304 41.1663 13.8624 45.1142 15.9264 48.7142H22.9824ZM55.7424 48.7142C57.7584 45.0662 58.7664 41.1183 58.7664 36.8703C58.7664 32.6222 57.7584 28.6983 55.7424 25.0982H48.6144C50.0064 26.6823 51.0864 28.4582 51.8544 30.4262C52.6704 32.4903 53.0784 34.6382 53.0784 36.8703C53.0784 39.1023 52.6704 41.2502 51.8544 43.3143C51.0864 45.2823 50.0064 47.0822 48.6144 48.7142H55.7424ZM77.2704 16.9622H85.9104V32.4422H101.822V16.9622H110.462V57.2822H101.822V39.9302H85.9104V57.2822H77.2704V16.9622ZM117.374 28.1222H125.222V57.2822H117.374V28.1222ZM125.222 23.5862H117.374V16.9622H125.222V23.5862ZM141.278 28.1222H146.966V33.4502H141.278V47.9222C141.278 49.2663 141.494 50.1662 141.926 50.6222C142.358 51.0783 143.246 51.3063 144.59 51.3063C145.406 51.3063 146.198 51.2343 146.966 51.0903V57.3542C145.814 57.5462 144.302 57.6422 142.43 57.6422C139.646 57.6422 137.534 57.2103 136.094 56.3462C134.318 55.2422 133.43 53.3463 133.43 50.6582V33.4502H128.75V28.1222H133.43V19.3383H141.278V28.1222ZM168.422 43.0262C167.99 43.4102 167.318 43.7222 166.406 43.9622C165.878 44.1063 164.99 44.2503 163.742 44.3943L161.942 44.6823C160.502 44.9703 159.422 45.3782 158.702 45.9062C157.79 46.6263 157.334 47.6582 157.334 49.0023C157.334 51.4983 158.918 52.7463 162.086 52.7463C164.726 52.7463 166.55 51.8343 167.558 50.0103C168.134 49.0022 168.422 47.6583 168.422 45.9782V43.0262ZM150.422 37.0502C150.614 33.5942 152.102 31.0263 154.886 29.3463C157.142 28.0022 160.094 27.3302 163.742 27.3302C172.094 27.3302 176.27 30.0902 176.27 35.6102V50.8022C176.27 54.1143 176.582 56.2742 177.206 57.2822H169.286L169.214 56.9943C168.926 55.8422 168.782 55.0023 168.782 54.4743C167.582 55.7223 166.094 56.6582 164.318 57.2822C162.782 57.8103 161.078 58.0742 159.206 58.0742C156.326 58.0742 154.022 57.3783 152.294 55.9862C150.422 54.4502 149.486 52.2423 149.486 49.3622C149.486 46.3862 150.494 44.1543 152.51 42.6662C153.998 41.6102 156.23 40.8662 159.206 40.4342L161.726 40.0742C164.078 39.8342 165.662 39.5462 166.478 39.2103C167.774 38.6822 168.422 37.8183 168.422 36.6182C168.422 35.0342 167.918 33.9303 166.91 33.3063C166.19 32.8742 165.014 32.6582 163.382 32.6582C160.214 32.6582 158.486 34.1222 158.198 37.0502H150.422ZM201.614 38.3463C201.374 36.7142 200.762 35.4783 199.778 34.6382C198.794 33.7982 197.486 33.3783 195.854 33.3783C193.598 33.3783 191.87 34.4102 190.67 36.4743C189.71 38.2023 189.23 40.3022 189.23 42.7743C189.23 45.2463 189.71 47.3222 190.67 49.0023C191.774 51.0183 193.454 52.0262 195.71 52.0262C197.486 52.0262 198.902 51.4983 199.958 50.4422C201.014 49.3862 201.662 47.9463 201.902 46.1222H209.462C208.982 49.9143 207.53 52.8542 205.106 54.9422C202.682 57.0303 199.574 58.0742 195.782 58.0742C192.95 58.0742 190.442 57.4383 188.258 56.1662C186.074 54.8942 184.382 53.1303 183.182 50.8742C181.982 48.6182 181.382 46.0263 181.382 43.0983C181.382 40.0742 181.958 37.3623 183.11 34.9622C184.262 32.5622 185.918 30.7143 188.078 29.4183C190.286 28.0262 192.902 27.3302 195.926 27.3302C198.23 27.3302 200.342 27.7382 202.262 28.5542C204.278 29.3703 205.886 30.5942 207.086 32.2262C208.43 33.9063 209.174 35.9462 209.318 38.3463H201.614ZM213.854 16.9622H221.63V32.1543H221.846C222.758 30.6182 224.006 29.4183 225.59 28.5542C227.078 27.7382 228.59 27.3302 230.126 27.3302C234.014 27.3302 236.774 28.4342 238.406 30.6423C239.798 32.5143 240.494 35.4182 240.494 39.3542V57.2822H232.718V40.7943C232.718 38.3462 232.322 36.5343 231.53 35.3582C230.738 34.1822 229.454 33.5942 227.678 33.5942C225.566 33.5942 224.03 34.2542 223.07 35.5742C222.11 36.8943 221.63 39.0422 221.63 42.0182V57.2822H213.854V16.9622ZM246.686 28.1222H254.462V57.2822H246.686V28.1222ZM254.462 23.5862H246.686V16.9622H254.462V23.5862ZM284.27 35.1782H293.702C295.67 35.1782 297.158 34.7223 298.166 33.8102C299.174 32.8982 299.678 31.4583 299.678 29.4902C299.678 27.5222 299.174 26.0943 298.166 25.2062C297.158 24.3182 295.67 23.8743 293.702 23.8743H284.27V35.1782ZM275.63 16.9622H296.798C299.102 16.9622 301.142 17.4662 302.918 18.4742C304.598 19.4823 305.918 20.8262 306.878 22.5062C307.838 24.1863 308.318 26.0582 308.318 28.1222C308.318 33.1143 306.254 36.4742 302.126 38.2022V38.3463C305.534 39.2103 307.43 42.3542 307.814 47.7783L307.886 48.8582C307.982 50.8263 308.102 52.3142 308.246 53.3223C308.486 55.0983 308.894 56.4182 309.47 57.2822H300.83C300.494 56.5142 300.254 55.5303 300.11 54.3302C299.966 53.6102 299.846 52.4823 299.75 50.9462C299.654 49.4102 299.558 48.3063 299.462 47.6343C299.174 45.4742 298.538 43.9143 297.554 42.9542C296.57 41.9942 295.022 41.5142 292.91 41.5142H284.27V57.2822H275.63V16.9622ZM332.222 43.0262C331.79 43.4102 331.118 43.7222 330.206 43.9622C329.678 44.1063 328.79 44.2503 327.542 44.3943L325.742 44.6823C324.302 44.9703 323.222 45.3782 322.502 45.9062C321.59 46.6263 321.134 47.6582 321.134 49.0023C321.134 51.4983 322.718 52.7463 325.886 52.7463C328.526 52.7463 330.35 51.8343 331.358 50.0103C331.934 49.0022 332.222 47.6583 332.222 45.9782V43.0262ZM314.15 37.0502C314.342 33.5942 315.83 31.0263 318.614 29.3463C320.87 28.0022 323.846 27.3302 327.542 27.3302C335.894 27.3302 340.07 30.0902 340.07 35.6102V50.8022C340.07 54.1143 340.382 56.2742 341.006 57.2822H333.086C332.75 56.2742 332.582 55.3383 332.582 54.4743C331.382 55.7223 329.894 56.6582 328.118 57.2822C326.582 57.8103 324.878 58.0742 323.006 58.0742C320.126 58.0742 317.822 57.3783 316.094 55.9862C314.222 54.4502 313.286 52.2423 313.286 49.3622C313.286 46.3862 314.294 44.1543 316.31 42.6662C317.798 41.6102 320.03 40.8662 323.006 40.4342L325.526 40.0742C327.878 39.8342 329.462 39.5462 330.278 39.2103C331.574 38.6822 332.222 37.8183 332.222 36.6182C332.222 35.0342 331.718 33.9303 330.71 33.3063C329.99 32.8742 328.826 32.6582 327.218 32.6582C325.61 32.6582 324.374 33.0062 323.51 33.7022C322.646 34.3983 322.142 35.5142 321.998 37.0502H314.15ZM346.262 28.1222H354.11V57.2822H346.262V28.1222ZM354.11 23.5862H346.262V16.9622H354.11V23.5862ZM360.446 16.9622H368.294V57.2822H360.446V16.9622ZM395.294 43.8902C395.294 46.4343 396.182 48.3542 397.958 49.6502C399.446 50.8023 401.462 51.3783 404.006 51.3783C405.974 51.3783 407.63 51.0423 408.974 50.3703C410.75 49.5062 411.638 48.1623 411.638 46.3382C411.638 45.1862 411.206 44.2023 410.342 43.3862C409.574 42.7142 408.446 42.1143 406.958 41.5863C406.046 41.2502 404.51 40.8183 402.35 40.2902L399.974 39.6423C397.622 39.0182 395.75 38.3463 394.358 37.6262C392.438 36.7142 390.998 35.5623 390.038 34.1702C388.886 32.5382 388.31 30.5463 388.31 28.1943C388.31 25.6022 389.054 23.3463 390.542 21.4263C391.886 19.6502 393.71 18.2823 396.014 17.3222C398.174 16.4582 400.502 16.0262 402.998 16.0262C407.51 16.0262 411.158 17.0342 413.942 19.0503C417.11 21.3063 418.694 24.6182 418.694 28.9862H410.342C410.198 26.7302 409.382 25.0983 407.894 24.0903C406.646 23.2742 404.87 22.8662 402.566 22.8662C400.982 22.8662 399.662 23.2022 398.606 23.8743C397.31 24.7383 396.662 25.9382 396.662 27.4742C396.662 28.4823 396.938 29.2622 397.49 29.8142C398.042 30.3663 399.134 30.9302 400.766 31.5062C401.87 31.8423 404.222 32.4902 407.822 33.4502L408.758 33.6662C410.486 34.0983 411.926 34.5782 413.078 35.1063C415.094 36.0183 416.678 37.1702 417.83 38.5622C419.318 40.3863 420.062 42.6422 420.062 45.3302C420.062 47.8263 419.426 50.0582 418.154 52.0262C416.882 53.9943 415.07 55.5062 412.718 56.5622C410.174 57.7143 407.174 58.2902 403.718 58.2902C400.694 58.2902 397.958 57.7863 395.51 56.7783C392.87 55.6742 390.806 54.0903 389.318 52.0262C387.734 49.7702 386.942 47.0583 386.942 43.8902H395.294ZM433.814 24.4503H422.078V16.9622H454.19V24.4503H442.454V57.2822H433.814V24.4503ZM464.63 43.8902C464.63 46.4343 465.494 48.3542 467.222 49.6502C468.758 50.8023 470.774 51.3783 473.27 51.3783C475.238 51.3783 476.894 51.0423 478.238 50.3703C480.062 49.5062 480.974 48.1623 480.974 46.3382C480.974 45.1862 480.542 44.2023 479.678 43.3862C478.91 42.7142 477.782 42.1143 476.294 41.5863C475.382 41.2502 473.87 40.8183 471.758 40.2902L469.31 39.6423C466.958 39.0182 465.086 38.3463 463.694 37.6262C461.774 36.7142 460.31 35.5623 459.302 34.1702C458.15 32.5382 457.574 30.5463 457.574 28.1943C457.574 25.6022 458.318 23.3463 459.806 21.4263C461.15 19.6502 462.974 18.2823 465.278 17.3222C467.438 16.4582 469.766 16.0262 472.262 16.0262C476.774 16.0262 480.422 17.0342 483.206 19.0503C486.374 21.3063 487.958 24.6182 487.958 28.9862H479.606C479.462 26.7302 478.646 25.0983 477.158 24.0903C475.958 23.2742 474.206 22.8662 471.902 22.8662C470.27 22.8662 468.926 23.2022 467.87 23.8743C466.574 24.7383 465.926 25.9382 465.926 27.4742C465.926 28.4823 466.202 29.2622 466.754 29.8142C467.306 30.3663 468.398 30.9302 470.03 31.5062C471.134 31.8423 473.486 32.4902 477.086 33.4502L477.95 33.6662C479.726 34.0983 481.166 34.5542 482.27 35.0343C484.334 35.9463 485.942 37.1222 487.094 38.5622C488.582 40.3863 489.326 42.6422 489.326 45.3302C489.326 47.8263 488.69 50.0582 487.418 52.0262C486.146 53.9943 484.334 55.5062 481.982 56.5622C479.438 57.7143 476.438 58.2902 472.982 58.2902C469.958 58.2902 467.222 57.7863 464.774 56.7783C462.134 55.6742 460.07 54.0903 458.582 52.0262C456.998 49.7702 456.23 47.0583 456.278 43.8902H464.63Z" fill="black"/>
</g>
<defs>
<clipPath id="clip0_4151_27557">
<rect width="488.571" height="72" fill="white" transform="translate(0.734375 0.90625)"/>
</clipPath>
</defs>
</svg>
