<svg width="146" height="59" viewBox="0 0 146 59" fill="none" xmlns="http://www.w3.org/2000/svg">
<g opacity="0.9" clip-path="url(#clip0_4151_27561)">
<path fill-rule="evenodd" clip-rule="evenodd" d="M1.66324 7.36568L1.66211 7.29715V1.81134H7.13633V42.0472L7.13859 42.1727V47.6016H1.66211V42.1158L1.66324 42.0472V7.36568Z" fill="#3781C2"/>
<path fill-rule="evenodd" clip-rule="evenodd" d="M57.3269 30.9247C57.4674 39.247 62.6163 45.9024 68.8281 45.7909C75.0387 45.6794 79.9588 38.8428 79.8183 30.5205C79.6766 22.1971 74.5277 15.5417 68.3159 15.6543C62.1053 15.7659 57.1851 22.6025 57.3269 30.9247ZM102.652 20.8626C102.795 21.1797 102.456 20.3887 102.456 20.3887L102.652 20.8626ZM106.383 55.3165C106.634 54.8867 106.984 54.2293 107.4 53.4081L106.383 55.3165ZM106.705 17.9913C106.771 18.176 106.848 18.3688 106.934 18.5721L108.777 23.1124L106.705 17.9913ZM83.7675 40.8475C87.1509 43.9371 90.1976 45.5342 94.0933 45.5342C98.0808 45.5644 101.626 43.6026 101.626 39.8266C101.626 36.6754 98.8485 34.8321 93.8865 32.7216C89.6819 30.8911 86.5528 29.6076 84.9173 26.9582C85.1171 28.1092 85.2217 29.2986 85.2217 30.5159C85.2217 40.736 77.853 49.0222 68.763 49.0222C59.673 49.0222 52.3044 40.736 52.3044 30.5159C52.3044 24.3541 54.9829 18.8961 59.1005 15.5324H47.9627V42.0462L47.9639 42.1519V47.6005H43.017V42.3296C43.0205 42.2367 43.0216 42.1426 43.0216 42.0462V15.5324H38.6602V12.1954H43.0855C43.657 5.46325 47.8024 1.65581 53.5414 1.65581C57.2629 1.65581 59.306 2.04609 60.4861 2.59548V7.15906C60.4675 7.49938 60.4676 7.70729 60.4676 7.70729C60.4164 7.70148 60.2945 7.69916 60.2945 7.69916C58.5035 6.03704 56.7368 4.80002 52.6099 4.80467C49.3228 4.80467 47.1485 7.49125 47.9081 12.1954H66.4226C67.1881 12.0734 67.9686 12.0095 68.763 12.0095C75.3569 12.0095 81.0461 16.3698 83.6723 22.6675C83.6479 22.3179 83.6362 21.9532 83.6362 21.5722C83.6362 15.0016 89.9583 12.207 96.5255 12.2209C96.7764 12.2198 97.0226 12.2209 97.2642 12.2267C99.5756 12.1896 102.869 12.948 104.879 13.48L108.777 23.1124L114.348 36.7811L115.002 38.9763L115.73 36.7811L122.774 19.2364C124.074 14.4057 129.219 12.315 134.901 12.3266C137.725 12.3138 139.812 12.6565 142.313 13.5416V18.8474C139.233 16.5952 137.027 15.2861 133.532 15.2861C130.46 15.2861 126.768 16.6544 126.768 21.2029C126.709 24.6212 128.747 25.2461 134.729 28.2323C139.645 30.38 144.181 32.7506 144.208 38.2411C144.208 47.395 135.243 48.9804 130.879 48.9944C126.984 48.9944 123.413 48.0268 121.427 46.3647V40.3214L121.747 40.5874C125.29 43.9162 128.422 45.6411 132.468 45.6411C136.457 45.6713 140.001 43.7083 140.001 39.9323C140.001 36.7811 137.224 34.9378 132.262 32.8273C127.519 30.7621 124.408 29.3939 123.136 25.9732C121.202 30.718 112.206 52.7577 110.088 57.4688H105.238L107.433 53.3454C108.649 50.9364 110.418 47.1569 111.99 43.5411L102.652 20.8626C102.59 20.7244 102.436 20.3759 102.124 19.6616C101.407 18.0192 100.741 16.5023 98.7243 15.738C97.6441 15.3721 96.4942 15.1804 95.1573 15.1804C92.0851 15.1804 88.1557 16.5487 88.1557 21.0972C88.0964 24.5155 90.3707 25.1404 96.3536 28.1255C101.27 30.2743 105.806 32.6449 105.833 38.1354C105.833 47.2893 96.867 48.8736 92.5032 48.8887C89.0396 48.8887 85.8315 48.1232 83.7675 46.7852V40.8475Z" fill="#3781C2"/>
<path fill-rule="evenodd" clip-rule="evenodd" d="M17.352 12.5332L17.4124 16.5381L17.409 16.8076L17.4623 16.8064C17.5262 16.6392 17.6122 16.4975 17.6935 16.3918C19.7041 14.2232 22.2385 12.0686 28.2621 12.0686C34.0279 12.0686 37.7598 16.9969 37.9096 20.0993L37.9154 42.0426V42.1518V47.5969H32.9744V41.0541L32.9732 22.3735C32.9732 18.5057 29.599 15.7088 25.4686 15.7088C22.0352 15.7088 17.6285 18.817 17.4821 21.9635V42.0484L17.4845 42.1959V47.6016H12.541V17.1444L12.5422 12.5332H17.352Z" fill="#3781C2"/>
</g>
<defs>
<clipPath id="clip0_4151_27561">
<rect width="144.905" height="57.9622" fill="white" transform="translate(0.402344 0.570312)"/>
</clipPath>
</defs>
</svg>
