<svg width="78" height="79" viewBox="0 0 78 79" fill="none" xmlns="http://www.w3.org/2000/svg">
<g opacity="0.9" clip-path="url(#clip0_4151_27572)">
<path d="M38.9501 78.1892C60.2911 78.1892 77.5915 60.8888 77.5915 39.5477C77.5915 18.2066 60.2911 0.90625 38.9501 0.90625C17.609 0.90625 0.308594 18.2066 0.308594 39.5477C0.308594 60.8888 17.609 78.1892 38.9501 78.1892Z" fill="#0A2885"/>
<path d="M56.9407 47.7867C54.0973 47.7867 52.1427 45.7001 52.1427 42.7182C52.1427 39.7815 54.1392 37.6949 56.9407 37.6949C59.7422 37.6949 61.7419 39.7815 61.7419 42.7601C61.7419 45.6486 59.7003 47.7835 56.9439 47.7835L56.9407 47.7867ZM57.0373 31.1966C49.7437 31.1966 44.891 35.824 44.891 42.7118C44.891 49.78 49.5634 54.3171 56.8988 54.3171C64.1892 54.3171 68.9904 49.78 68.9904 42.7569C68.9904 35.824 64.2407 31.1966 57.034 31.1966H57.0373ZM38.2414 21.1016C35.485 21.1016 33.7494 22.6569 33.7494 25.1042C33.7494 27.5965 35.5269 29.1519 38.3702 29.1519C41.1299 29.1519 42.8623 27.5965 42.8623 25.1042C42.8623 22.615 41.0848 21.1016 38.2414 21.1016ZM38.7309 31.4188H37.8389C35.6653 31.4188 34.0166 32.4396 34.0166 35.5567V49.7896C34.0166 52.9453 35.6138 53.9243 37.9323 53.9243H38.8178C40.9978 53.9243 42.5532 52.8616 42.5532 49.7864V35.5567C42.5532 32.3527 41.0397 31.4188 38.7309 31.4188ZM27.0869 24.7081H25.7989C23.3516 24.7081 22.0184 26.0928 22.0184 28.846V42.1451C22.0184 45.568 20.8592 46.7692 18.1543 46.7692C16.0226 46.7692 14.2869 45.8353 12.9055 44.1415C12.7703 43.9676 9.96875 45.2976 9.96875 48.595C9.96875 52.15 13.3016 54.33 19.4842 54.33C27 54.33 30.9575 50.5528 30.9575 42.2803V28.8395C30.9575 26.0831 29.6276 24.7081 27.0869 24.7081Z" fill="white"/>
</g>
<defs>
<clipPath id="clip0_4151_27572">
<rect width="77.2829" height="77.2829" fill="white" transform="translate(0.308594 0.90625)"/>
</clipPath>
</defs>
</svg>
