<svg width="305" height="59" viewBox="0 0 305 59" fill="none" xmlns="http://www.w3.org/2000/svg">
<g opacity="0.9" clip-path="url(#clip0_4151_27575)">
<mask id="mask0_4151_27575" style="mask-type:luminance" maskUnits="userSpaceOnUse" x="-252" y="-990" width="810" height="1227">
<path d="M-251.828 -989.531H557.214V236.651H-251.828V-989.531Z" fill="white"/>
</mask>
<g mask="url(#mask0_4151_27575)">
<path fill-rule="evenodd" clip-rule="evenodd" d="M149.242 29.9239C149.242 21.9984 153.718 15.315 161.86 15.315C171.027 15.315 173.985 22.7673 173.985 28.2678C173.985 29.2338 173.925 30.3379 173.847 30.7519H153.165C153.441 37.0213 156.754 40.8066 162.333 40.8066C165.724 40.8066 168.05 39.9194 170.534 37.2973L173.157 39.5645C169.982 42.7978 166.828 44.1778 162.333 44.1778C153.934 44.1778 149.242 37.9085 149.242 29.9239ZM170.337 27.9918C170.337 27.4398 170.337 26.8286 170.258 26.2766C169.923 22.4913 167.38 18.4892 161.86 18.4892C156.754 18.4892 153.658 22.4125 153.165 27.9918H170.337ZM181.713 15.8079H185.301V20.6972C186.819 17.05 189.993 15.315 193.7 15.315C197.84 15.315 201.073 17.2471 202.315 21.5253C203.971 17.464 207.421 15.315 211.561 15.315C218.304 15.315 221.202 20.2044 221.202 27.3806V43.7638H217.555V27.8538C217.555 22.0773 215.682 18.8243 210.931 18.8243C206.258 18.8243 203.281 22.3533 203.281 27.1638V43.7638H199.634V26.8286C199.634 21.8604 197.643 18.8243 193.01 18.8243C188.337 18.8243 185.439 22.3533 185.439 27.1638V43.7638H181.713V15.8079ZM228.299 29.9436C228.299 22.0182 232.716 15.3348 240.917 15.3348C250.006 15.3348 253.042 22.7673 253.042 28.2875C253.042 29.2536 252.904 30.3576 252.845 30.7716H232.223C232.499 37.0213 235.752 40.8263 241.331 40.8263C244.702 40.8263 247.049 39.9194 249.592 37.2973L252.155 39.5842C248.981 42.8175 245.885 44.1976 241.331 44.1976C232.913 44.1976 228.299 37.9282 228.299 29.9436ZM249.316 28.0115C249.316 27.4595 249.316 26.8286 249.257 26.2766C248.902 22.4913 246.418 18.5089 240.838 18.5089C235.752 18.5089 232.637 22.4322 232.223 28.0115H249.316ZM260.632 15.8079H264.279V20.5592C266.074 17.1288 269.386 15.3348 273.092 15.3348C279.578 15.3348 282.674 20.0072 282.812 26.0794V43.7835H279.085V26.9075C279.085 21.8013 276.68 18.7849 272.067 18.7849C267.375 18.7849 264.279 21.8013 264.279 27.2426V43.7835H260.632V15.8079ZM293.024 35.9172V18.9032H288.332V15.8079H293.083V7.68533L296.671 4.98438V15.8079H304.518V18.9032H296.671V35.3652C296.671 39.2885 298.248 40.9446 301.206 40.9446C302.448 40.9446 303.69 40.5306 304.518 40.2545L304.597 43.6455C303.69 43.9215 302.172 44.1778 300.595 44.1778C295.626 44.1778 293.024 41.2994 293.024 35.9172Z" fill="#929E9C"/>
<path d="M118.722 15.1763H111.072L97.7648 29.45V15.1763H92.1065V43.9799H97.7648V36.4685L103.147 30.8103L111.684 43.8419L111.762 43.9799H118.781L107.07 27.025L118.722 15.1763ZM140.093 33.7084L140.014 33.9844C138.634 37.4345 136.288 39.0118 132.582 39.0118C127.258 39.0118 124.242 35.5025 124.242 29.3711C124.242 23.5946 127.337 20.1445 132.503 20.1445C136.498 20.1445 138.982 21.794 139.955 25.0929L140.014 25.369L145.317 23.3186L145.179 23.0426C142.833 17.6604 138.358 14.7031 132.582 14.7031C122.31 14.7031 118.643 22.7666 118.643 29.5683C118.643 36.3897 122.31 44.394 132.582 44.394C138.358 44.394 142.971 41.3578 145.258 36.0545L145.317 35.8376L140.093 33.7084ZM80.2184 20.2233V33.3733C80.2184 36.8825 79.5284 38.9526 75.9994 38.9526C72.6281 38.9526 71.8789 35.9165 71.7409 34.1224V33.8464L66.2207 34.4773V34.7533C66.5756 39.4258 69.73 44.1968 75.9994 44.1968C82.3476 44.1968 85.7977 40.3327 85.7977 33.2944V15.058H80.2184V20.2233Z" fill="#78C346"/>
<path d="M4.80859 14.4891C9.17219 17.0126 13.8118 19.2404 18.7274 21.1725C22.7624 22.6971 26.1403 23.3872 28.8609 23.2426C31.4765 23.1112 34.6703 22.0794 38.4424 20.1473C42.6615 18.0313 45.2113 16.7432 46.0919 16.2832C48.7468 14.9031 51.0864 13.7334 53.1104 12.7739C47.8662 5.4005 39.2508 0.570312 29.551 0.570312C19.0626 0.570312 9.89507 6.16938 4.80859 14.4891Z" fill="#78C246"/>
<path d="M29.5497 58.4562C45.5386 58.4562 58.4914 45.5034 58.4914 29.5145C58.4914 24.6843 57.3085 20.209 55.2384 16.2266C54.2264 16.91 53.3589 17.4818 52.636 17.9418C48.8639 20.7413 46.3601 22.7391 45.1246 23.9351C42.5879 26.4192 39.4401 29.6131 35.6811 33.5166C33.841 35.4881 32.093 37.7817 30.4369 40.3972C29.9769 41.1332 28.5771 43.5187 26.2376 47.5537C25.449 48.9338 25.0547 50.6161 25.0547 52.6008C25.0547 55.4398 26.0667 57.3915 28.0908 58.4562C28.5508 58.4562 29.0371 58.4562 29.5497 58.4562Z" fill="#0646A5"/>
<path d="M9.34332 50.2487C9.80334 47.4886 11.3674 44.4788 14.0355 41.2193C15.5076 39.4318 17.0716 37.618 18.7277 35.7779C19.5557 34.9104 19.9697 34.1284 19.9697 33.4318C19.9697 32.0518 18.34 30.3563 15.0804 28.3453C9.65219 24.9412 6.66208 23.0354 6.11006 22.628C4.73 21.4714 3.51424 20.387 2.46277 19.375C1.22073 22.5491 0.589844 25.9993 0.589844 29.5085C0.589844 37.6311 3.98083 44.9454 9.34332 50.2487Z" fill="#929E9C"/>
</g>
</g>
<defs>
<clipPath id="clip0_4151_27575">
<rect width="304.006" height="57.9622" fill="white" transform="translate(0.591797 0.570312)"/>
</clipPath>
</defs>
</svg>
