<svg width="195" height="59" viewBox="0 0 195 59" fill="none" xmlns="http://www.w3.org/2000/svg">
<g opacity="0.9" clip-path="url(#clip0_4151_27489)">
<path fill-rule="evenodd" clip-rule="evenodd" d="M1.40234 29.9108C1.40234 13.9061 16.488 0.929688 35.0992 0.929688C53.7105 0.929688 68.7948 13.9061 68.7948 29.9108C68.7948 45.9154 53.7092 58.8919 35.0992 58.8919C16.4893 58.8919 1.40234 45.9173 1.40234 29.9108Z" fill="#003874"/>
<path fill-rule="evenodd" clip-rule="evenodd" d="M31.0081 10.2351L38.8369 7.64844L38.8755 49.9691L30.9805 52.6142L31.0081 10.2351ZM112.443 46.662C119.967 46.662 125.697 42.2868 125.697 34.7575C125.697 27.187 119.967 22.8041 112.443 22.8041C104.924 22.8041 99.1936 27.1742 99.1936 34.7575C99.1936 42.2874 104.924 46.662 112.443 46.662ZM112.443 41.1493C108.815 41.1493 107.33 38.1288 107.33 34.7575C107.33 31.3418 108.808 28.3309 112.443 28.3309C116.079 28.3309 117.561 31.3476 117.561 34.7575C117.561 38.1288 116.083 41.1493 112.443 41.1493ZM124.974 28.8489H129.472V38.1288C129.472 43.5528 131.178 46.662 138.216 46.662C140.185 46.662 141.674 46.4049 143.165 46.225L142.908 41.1056C142.121 41.2361 141.29 41.4109 140.504 41.4109C138.011 41.4109 137.353 40.0099 137.353 37.2529V28.8489H142.864V23.335H137.353L137.351 15.4496L129.615 18.213V23.335H124.979V28.8489M170.414 46.1382H178.287V34.8468H178.373L184.672 46.1382H194.199L185.626 33.7961L193.541 23.3362H184.927L178.367 32.9208H178.281V15.4792L170.408 18.2149V46.1446" fill="#ED1C24"/>
<path fill-rule="evenodd" clip-rule="evenodd" d="M78.2324 46.135H86.1075V34.8436H86.1936L92.4929 46.135H102.025L93.4524 33.7928L101.368 23.3336H92.7545L86.1949 32.9182H86.1088V15.4766L78.2337 18.0729V46.135M167.614 46.241C167.259 44.4268 167.164 42.61 167.164 40.7926V32.2003C167.164 25.1568 162.072 22.6248 156.186 22.6248C152.779 22.6248 149.812 23.1106 146.981 24.2636L147.109 29.6663C149.319 28.428 151.888 27.9312 154.455 27.9312C157.333 27.9312 159.677 28.7743 159.721 31.9188C158.492 31.7169 157.249 31.6136 156.004 31.6097C151.763 31.6097 144.1 32.4529 144.1 39.4951C144.1 44.5001 148.172 46.7571 152.729 46.7571C156.004 46.7571 158.216 45.4718 160.033 42.5946H160.139C160.139 43.7899 160.271 44.9866 160.315 46.2256H167.62L167.614 46.241ZM151.545 38.934C151.545 36.7182 153.67 35.8776 156.369 35.8776C157.565 35.8776 158.718 35.9656 159.733 36.01C159.733 38.713 157.831 41.4565 154.823 41.4565C152.963 41.4565 151.545 40.5272 151.545 38.934Z" fill="#ED1C24"/>
<path fill-rule="evenodd" clip-rule="evenodd" d="M60.4396 32.8274C59.7051 38.8812 56.3093 44.9974 48.8944 45.0089C44.5655 45.0166 41.1838 42.0527 38.842 38.4262V34.2258C41.7725 35.6808 44.5115 37.2425 47.8346 37.29C51.9283 37.3504 55.63 35.7766 57.1608 32.8268H60.4403L60.4396 32.8274ZM35.6525 36.6287C32.251 40.7289 28.9638 44.917 22.8046 44.917C14.105 44.917 9.97852 36.506 9.97852 29.4741C9.97852 22.7172 13.2034 14.7188 21.6787 14.7188C25.3546 14.7188 28.8931 16.9668 31.0023 19.3446L30.9958 25.0802C29.2337 23.8939 25.2865 22.7301 22.7095 22.6883C17.335 22.5983 12.5967 24.9279 12.6789 30.233C12.7349 33.8852 16.3536 36.3678 19.9538 36.3678C25.4677 36.3678 28.8083 31.3307 31.5999 27.5075C32.7192 26.0482 33.8257 24.579 34.9192 23.1002C38.02 18.7675 41.608 14.8119 47.7672 14.8119C55.0227 14.8119 59.0959 20.6601 60.2475 26.6805H56.97C55.6525 24.7281 53.1185 23.5334 50.6225 23.5334C44.9221 23.5334 41.5161 28.7774 38.6653 32.6385L35.6448 36.6281" fill="white"/>
</g>
<defs>
<clipPath id="clip0_4151_27489">
<rect width="193.654" height="57.9622" fill="white" transform="translate(0.972656 0.929688)"/>
</clipPath>
</defs>
</svg>
