<svg width="97" height="81" viewBox="0 0 97 81" fill="none" xmlns="http://www.w3.org/2000/svg">
<path d="M56.3469 44.106C56.271 44.125 55.9675 44.125 55.8347 44.125H46.0457V46.4015H56.0054C56.0813 46.4015 56.6694 46.4015 56.7832 46.3825C58.8131 46.1928 59.7427 44.5044 59.7427 43.0247C59.7427 41.507 58.7751 39.8756 56.935 39.7048C56.5745 39.6669 56.271 39.6669 56.1382 39.6669H49.6312C49.3466 39.6669 49.0241 39.6479 48.9103 39.61C48.3981 39.4772 48.2084 39.0219 48.2084 38.6424C48.2084 38.301 48.3981 37.8457 48.9293 37.6939C49.0811 37.656 49.2518 37.637 49.6122 37.637H59.0028V35.3984H49.4605C49.0621 35.3984 48.7585 35.4174 48.5119 35.4554C46.8804 35.683 45.7422 36.992 45.7422 38.6614C45.7422 40.0273 46.5959 41.6209 48.474 41.8865C48.8155 41.9244 49.2897 41.9244 49.4984 41.9244H55.8347C55.9485 41.9244 56.233 41.9244 56.29 41.9434C57.0109 42.0382 57.2575 42.5694 57.2575 43.0437C57.2575 43.499 56.9729 43.9922 56.3469 44.106Z" fill="black"/>
<path d="M37.7922 44.106C37.7163 44.125 37.4128 44.125 37.2989 44.125H27.491V46.4015H37.4507C37.5266 46.4015 38.1147 46.4015 38.2285 46.3825C40.2584 46.1928 41.188 44.5044 41.188 43.0247C41.188 41.507 40.2205 39.8756 38.3803 39.7048C38.0198 39.6669 37.7163 39.6669 37.5835 39.6669H31.0765C30.792 39.6669 30.4695 39.6479 30.3556 39.61C29.8434 39.4772 29.6537 39.0219 29.6537 38.6424C29.6537 38.301 29.8434 37.8457 30.3746 37.6939C30.5264 37.656 30.6971 37.637 31.0575 37.637H40.4481V35.3984H30.9058C30.5074 35.3984 30.2039 35.4174 29.9572 35.4554C28.3258 35.683 27.1875 36.992 27.1875 38.6614C27.1875 40.0273 28.0412 41.6209 29.9193 41.8865C30.2608 41.9244 30.735 41.9244 30.9437 41.9244H37.28C37.3938 41.9244 37.6784 41.9244 37.7353 41.9434C38.4562 42.0382 38.7028 42.5694 38.7028 43.0437C38.7028 43.499 38.4372 43.9922 37.7922 44.106Z" fill="black"/>
<path d="M22.3881 35.3203H19.9219V46.4562H22.3881V35.3203Z" fill="black"/>
<path d="M14.4776 46.4562V35.3203H12.0114V43.6295L3.79703 35.3203H0.628906V46.4562H3.09511V38.109L11.3664 46.4562H14.4776Z" fill="black"/>
<path d="M93.7946 35.3203V43.6295L85.5802 35.3203H82.4121V46.4562H84.8783V38.109L93.1306 46.4562H96.2418V35.3203H93.7946Z" fill="black"/>
<path d="M69.5683 35.3203L62.625 46.4562H65.6224L66.8555 44.4643H74.956L76.1891 46.4562H79.1676L72.2242 35.3203H69.5683ZM73.685 42.3585H68.1265L70.9152 37.8814L73.685 42.3585Z" fill="black"/>
<path d="M14.3457 29.002C19.3161 14.4894 33.013 4.73836 48.4553 4.73836C63.8975 4.73836 77.6134 14.4894 82.5648 29.002L82.6027 29.1159H93.473V27.8069L88.958 27.2757C86.1692 26.9532 85.5811 25.7201 84.8223 24.1645L84.6326 23.7851C78.1066 9.89842 63.8975 0.90625 48.4553 0.90625C32.994 0.90625 18.8039 9.89842 12.2779 23.823L12.0882 24.2024C11.3294 25.758 10.7413 26.9911 7.95255 27.3136L3.4375 27.8448V29.1538H14.2888L14.3457 29.002Z" fill="black"/>
<path d="M82.6013 52.6752L82.5634 52.789C77.593 67.3017 63.8961 77.0338 48.4539 77.0338C33.0116 77.0338 19.2957 67.2828 14.3443 52.7701L14.3064 52.6562H3.45508V53.9652L7.97013 54.4964C10.7588 54.8189 11.3469 56.052 12.1058 57.6076L12.2955 57.9871C18.8214 71.9116 33.0306 80.9038 48.4728 80.9038C63.9151 80.9038 78.1242 71.9116 84.6502 58.006L84.8399 57.6266C85.5987 56.071 86.1868 54.8379 88.9755 54.5154L93.4906 53.9842V52.6752H82.6013Z" fill="black"/>
</svg>
