<svg width="303" height="47" viewBox="0 0 303 47" fill="none" xmlns="http://www.w3.org/2000/svg">
<mask id="mask0_4151_27512" style="mask-type:luminance" maskUnits="userSpaceOnUse" x="0" y="0" width="305" height="47">
<path d="M0.898438 0.751274H304.465V46.8672H0.898438V0.751274Z" fill="white"/>
</mask>
<g mask="url(#mask0_4151_27512)">
<path d="M297.979 41.6388C295.56 44.1819 292.818 45.6983 289.378 46.3907C287.056 46.8603 285.023 46.9589 282.662 46.7141C279.534 46.3925 276.953 45.3877 274.435 43.5041C272.376 41.9695 270.902 40.3088 269.614 38.0835C268.62 36.3607 268.041 34.7493 267.719 32.7872C267.268 30.065 267.387 27.6698 268.103 25.008C269.74 18.9534 274.295 14.6619 280.433 13.3848C283.939 12.6559 287.056 12.7308 290.522 13.626C292.99 14.2636 294.95 15.3379 296.817 17.0753C297.996 18.1678 298.833 19.2658 299.574 20.6872C300.453 22.368 300.807 24.0013 300.707 25.894H289.758C289.521 24.427 288.817 23.2577 287.635 22.3589C286.104 21.1914 284.129 21.0983 282.492 22.1104C281.374 22.8065 280.64 23.7528 280.243 25.008C279.3 27.9987 279.258 30.7812 280.099 33.8011C280.457 35.0709 281.058 36.0666 282.019 36.9727C283.113 38.0178 284.478 38.4471 285.976 38.226C286.904 38.0908 287.659 37.6853 288.284 36.9819C288.94 36.2566 289.314 35.4783 289.486 34.5155C289.606 33.8377 289.674 33.264 289.711 32.5771H301.253C301.483 36.0574 300.38 39.1139 297.979 41.6388Z" fill="#0056A8"/>
</g>
<path d="M253.85 9.42188H265.824V0.962961H253.85V9.42188Z" fill="#0056A8"/>
<path d="M253.85 45.7969H265.824V13.7755H253.85V45.7969Z" fill="#0056A8"/>
<path d="M229.045 17.1512C230.62 15.7737 232.122 14.8017 234.022 13.923C237.115 12.4943 240.208 12.2622 243.48 13.2178C246.989 14.2463 249.518 16.7146 250.625 20.2022C251.157 21.8775 251.387 23.3647 251.387 25.1222V45.7888H238.669V27.2031C238.669 26.582 238.594 26.0558 238.408 25.4602C238.083 24.3933 237.378 23.6077 236.347 23.1729C234.093 22.2155 231.53 23.0632 230.293 25.1752C229.776 26.0558 229.54 26.9236 229.54 27.9467V45.7888H217.223V13.7658H228.778L229.045 17.1512Z" fill="#0056A8"/>
<path d="M87.4199 17.1512C88.9948 15.7737 90.4965 14.8017 92.3929 13.923C95.4878 12.4943 98.5826 12.2622 101.853 13.2178C105.364 14.2463 107.893 16.7146 109 20.2022C109.532 21.8775 109.762 23.3647 109.762 25.1222V45.7888H97.0443V27.2031C97.0443 26.582 96.9658 26.0558 96.7849 25.4602C96.4561 24.3933 95.7509 23.6077 94.7186 23.1729C92.466 22.2155 89.9028 23.0632 88.6677 25.1752C88.1489 26.0558 87.9132 26.9236 87.9132 27.9467V45.7888H75.5977V13.7658H87.1514L87.4199 17.1512Z" fill="#0056A8"/>
<mask id="mask1_4151_27512" style="mask-type:luminance" maskUnits="userSpaceOnUse" x="0" y="0" width="305" height="47">
<path d="M0.898438 0.751274H304.465V46.8672H0.898438V0.751274Z" fill="white"/>
</mask>
<g mask="url(#mask1_4151_27512)">
<path d="M162.894 34.0185C163.812 34.1737 164.579 34.3656 165.459 34.6597C166.196 34.9009 166.702 35.4709 166.863 36.2254C167.038 37.0494 166.806 37.8313 166.214 38.4251C165.613 39.0335 164.928 39.3842 164.084 39.5158C162.955 39.6967 161.953 39.6035 160.877 39.2125C160.357 39.0262 159.944 38.7905 159.516 38.4379C158.966 37.9738 158.612 37.4422 158.398 36.7552C158.219 36.1724 158.148 35.6572 158.159 35.047H146.432V35.7303C146.432 36.8338 146.603 37.7692 146.991 38.8014C147.579 40.3544 148.385 41.5547 149.601 42.6874C151.189 44.1727 152.846 45.099 154.934 45.6964C159.27 46.9314 163.174 47.1762 167.63 46.4929C169.72 46.1732 171.445 45.6105 173.325 44.6368C174.152 44.2074 174.815 43.7635 175.53 43.1642C178.698 40.5042 179.872 36.4447 178.606 32.5076C178.128 31.0241 177.371 29.8804 176.193 28.8573C174.578 27.4578 172.943 26.5663 170.889 25.967C170.44 25.8373 170.056 25.7277 169.603 25.6035C167.091 24.9056 164.933 24.4452 162.354 24.0615C161.663 23.9592 161.082 23.8478 160.401 23.6888C160.086 23.6139 159.825 23.5262 159.533 23.3929C158.811 23.0677 158.491 22.2181 158.817 21.4983C158.835 21.4599 158.851 21.4252 158.871 21.3887C159.259 20.6963 159.832 20.245 160.589 20.0239C161.928 19.6366 163.161 19.6695 164.475 20.1171C165.735 20.5464 166.526 21.7029 166.472 23.0348H177.771C177.76 21.6463 177.548 20.4734 177.081 19.1689C176.602 17.8462 175.875 16.8395 174.77 15.9681C173.809 15.2044 172.897 14.6856 171.751 14.2416C170.637 13.8086 169.654 13.5382 168.476 13.3318C165.675 12.8495 163.265 12.7088 160.43 12.8769C158.809 12.97 157.443 13.171 155.857 13.5419C153.723 14.0443 152.004 14.8683 150.279 16.2202C148.814 17.3694 147.855 18.7122 147.241 20.4697C146.961 21.2663 146.828 21.9733 146.792 22.8119C146.728 24.2168 146.93 25.4135 147.451 26.7198C148.383 29.0583 150.038 30.7153 152.38 31.6489C153.566 32.1221 154.605 32.4327 155.857 32.6884C158.323 33.1982 160.412 33.5946 162.894 34.0185Z" fill="#0056A8"/>
</g>
<path d="M22.7158 31.9809H14.4981V21.474H19.8383C20.8523 21.474 21.7109 21.4503 22.7249 21.3936C24.1298 21.3169 25.2973 20.6884 26.134 19.5576C26.578 18.9565 26.8282 18.3499 26.9342 17.6082C27.0219 16.9834 27.0347 16.4499 26.9726 15.8251C26.7442 13.4866 24.8076 11.7327 22.46 11.7327H14.4981V45.7891H0.894531V0.959087H23.1305C24.0147 0.959087 24.7619 0.975529 25.6444 1.02486C31.5436 1.34092 36.4033 4.61666 38.9026 9.96966C40.2034 12.7558 40.6455 15.4341 40.3112 18.4924C39.606 24.9306 35.1026 29.9383 28.7758 31.325C26.6784 31.7854 24.8624 31.9809 22.7158 31.9809Z" fill="#0056A8"/>
<path d="M201.305 13.1549C200.039 12.9539 198.957 12.8717 197.676 12.8717C196.394 12.8717 195.314 12.9539 194.046 13.1549C190.37 13.7304 187.392 15.2084 184.709 17.7844C181.837 20.545 180.264 23.8116 179.904 27.7779C179.685 30.2132 179.873 32.3124 180.529 34.6674C181.533 38.2811 183.421 41.0727 186.399 43.3527C188.359 44.86 190.308 45.7625 192.724 46.2887C194.439 46.665 195.921 46.8203 197.676 46.8203C199.43 46.8203 200.914 46.665 202.631 46.2887C205.045 45.7625 206.994 44.86 208.954 43.3527L202.074 35.8549C200.98 38.2847 198.13 39.3681 195.698 38.2738C194.578 37.7695 193.783 36.9766 193.277 35.8549C192.811 34.819 192.539 33.8909 192.371 32.7655C192.031 30.5165 192.069 28.5635 192.51 26.3291C192.734 25.169 193.122 24.2226 193.769 23.2342C195.183 21.0766 198.077 20.4737 200.238 21.8859C200.802 22.2568 201.215 22.6697 201.582 23.2342C202.231 24.2226 202.618 25.169 202.843 26.3291C203.278 28.5635 203.322 30.5165 202.982 32.7655C202.812 33.8909 202.54 34.819 202.074 35.8549L208.954 43.3527C211.934 41.0727 213.821 38.2811 214.824 34.6674C215.48 32.3124 215.667 30.2132 215.449 27.7779C215.089 23.8116 213.52 20.545 210.646 17.7844C207.96 15.2047 204.984 13.7304 201.305 13.1549Z" fill="#0056A8"/>
<mask id="mask2_4151_27512" style="mask-type:luminance" maskUnits="userSpaceOnUse" x="0" y="0" width="305" height="47">
<path d="M0.898438 0.751274H304.465V46.8672H0.898438V0.751274Z" fill="white"/>
</mask>
<g mask="url(#mask2_4151_27512)">
<path d="M145.118 43.2807C144.939 40.6426 144.839 38.4082 144.786 35.7609C144.716 32.2824 144.674 29.3483 144.65 25.8716C144.636 23.9953 144.429 22.4113 143.96 20.5953C143.344 18.2148 141.95 16.4061 139.804 15.204C138.506 14.4786 137.317 14.0329 135.866 13.7186C131.248 12.7302 127.172 12.648 122.519 13.4555C121.211 13.6821 120.129 13.9963 118.901 14.5042C116.066 15.6771 114.113 17.8147 113.203 20.7433C112.854 21.8632 112.761 22.879 112.894 24.0464C112.92 24.2602 112.973 24.4411 113.07 24.6366L123.845 24.8996C123.818 24.2127 123.907 23.6317 124.139 22.9868C124.492 22.0039 125.186 21.306 126.169 20.9479C127.614 20.4163 129.006 20.3962 130.471 20.8748C131.434 21.1909 132.118 21.8851 132.417 22.8516C132.605 23.4563 132.512 24.0519 132.147 24.569C131.829 25.0257 131.436 25.3326 130.915 25.5318C130.594 25.6542 130.32 25.7437 129.991 25.8314C128.493 26.2351 127.214 26.5128 125.685 26.7668C124.474 26.9659 123.454 27.1541 122.254 27.3989C120.622 27.7223 119.259 28.0804 117.679 28.5919C116.232 29.0596 115.092 29.7246 113.974 30.7532C112.52 32.0832 111.688 33.6599 111.411 35.6166C111.228 36.921 111.27 38.0574 111.559 39.3418C112.313 42.6814 114.632 45.1515 117.922 46.1088C121.569 47.1666 124.991 46.9931 128.511 45.5717C130.225 44.8829 131.529 43.9274 132.708 42.5061L131.948 37.0014C131.405 37.8418 130.731 38.4155 129.819 38.8174C128.964 39.1956 128.191 39.3947 127.261 39.4897C126.487 39.5665 125.815 39.5098 125.064 39.2997C124.453 39.1317 123.977 38.8467 123.544 38.3863C123.178 37.9916 122.961 37.5678 122.849 37.0416C122.679 36.2341 122.944 35.4576 123.575 34.9223C123.997 34.5624 124.41 34.3213 124.927 34.1313C126.178 33.6709 127.247 33.3256 128.528 32.962C130.077 32.5254 131.359 32.0522 132.821 31.3799C132.965 32.5509 132.958 33.5539 132.795 34.7196C132.677 35.5746 132.417 36.2779 131.948 37.0014L132.708 42.5061C132.943 43.288 133.161 43.942 133.427 44.7075C133.579 45.1369 133.776 45.4694 134.076 45.8037H145.946C145.44 45.009 145.182 44.2234 145.118 43.2807Z" fill="#0056A8"/>
<path d="M73.2282 43.2807C73.0492 40.6426 72.9487 38.4082 72.8957 35.7609C72.8245 32.2824 72.7843 29.3483 72.7605 25.8716C72.7477 23.9953 72.5413 22.4113 72.0699 20.5953C71.4542 18.2148 70.0621 16.4061 67.9136 15.204C66.6164 14.4786 65.4271 14.0329 63.9765 13.7186C59.3579 12.7302 55.282 12.648 50.6269 13.4555C49.3224 13.6821 48.2372 13.9963 47.0113 14.5042C44.1759 15.6771 42.2229 17.8147 41.3131 20.7433C40.9659 21.8632 40.8709 22.879 41.0061 24.0464C41.0299 24.2602 41.0829 24.4411 41.1797 24.6366L51.9551 24.8996C51.9295 24.2127 52.0172 23.6317 52.2492 22.9868C52.6018 22.0039 53.2961 21.306 54.279 20.9479C55.7259 20.4163 57.1163 20.3962 58.5797 20.8748C59.5443 21.1909 60.2294 21.8851 60.5308 22.8516C60.7154 23.4563 60.6222 24.0519 60.2568 24.569C59.9371 25.0257 59.5443 25.3326 59.0254 25.5318C58.7039 25.6542 58.4298 25.7437 58.0992 25.8314C56.6029 26.2351 55.3222 26.5128 53.7948 26.7668C52.5854 26.9659 51.5641 27.1541 50.362 27.3989C48.7323 27.7223 47.3712 28.0804 45.7873 28.5919C44.344 29.0596 43.204 29.7246 42.084 30.7532C40.6298 32.0832 39.8003 33.6599 39.5208 35.6166C39.3363 36.921 39.3801 38.0574 39.6706 39.3418C40.4215 42.6814 42.7436 45.1515 46.0303 46.1088C49.6805 47.1666 53.0988 46.9931 56.6212 45.5717C58.333 44.8829 59.6411 43.9274 60.8195 42.5061L60.0595 37.0014C59.5169 37.8418 58.8409 38.4155 57.9274 38.8174C57.0742 39.1956 56.2996 39.3947 55.3733 39.4897C54.5951 39.5665 53.9264 39.5098 53.1737 39.2997C52.5635 39.1317 52.0866 38.8467 51.6555 38.3863C51.2883 37.9916 51.0708 37.5678 50.9594 37.0416C50.7913 36.2341 51.0544 35.4576 51.6847 34.9223C52.1049 34.5624 52.5178 34.3213 53.0367 34.1313C54.2881 33.6709 55.3587 33.3256 56.6394 32.962C58.1887 32.5254 59.4694 32.0522 60.9328 31.3799C61.0753 32.5509 61.068 33.5539 60.9054 34.7196C60.7866 35.5746 60.5254 36.2779 60.0595 37.0014L60.8195 42.5061C61.0534 43.288 61.2708 43.942 61.5393 44.7075C61.6891 45.1369 61.8864 45.4694 62.1861 45.8037H74.0558C73.5498 45.009 73.294 44.2234 73.2282 43.2807Z" fill="#0056A8"/>
</g>
</svg>
