<svg width="106" height="73" viewBox="0 0 106 73" fill="none" xmlns="http://www.w3.org/2000/svg">
<g opacity="0.9">
<path fill-rule="evenodd" clip-rule="evenodd" d="M59.0918 31.2516C57.8662 32.1178 56.2552 32.2481 55.0072 31.685C55.0072 31.685 54.667 31.5551 54.3495 31.2086C54.0764 30.8827 47.1778 23.4529 47.1778 23.4529L47.1555 23.4309C49.2889 23.7994 51.6264 22.8249 52.829 21.0484C54.0309 19.3585 53.9866 16.954 52.8517 15.2641C51.4905 13.423 48.8349 12.8166 46.6109 13.0978C42.7533 13.6179 39.9848 16.889 39.1231 20.3124C38.2373 24.2109 38.8734 27.8938 40.2583 31.3598C40.5751 32.0969 41.0065 32.8548 41.5287 33.5038C37.4661 31.815 33.8806 28.6954 31.9976 24.5141C29.9098 20.0082 29.9553 14.3112 32.4289 9.74038C34.3801 6.20938 37.829 2.93826 42.0956 1.55157C46.5655 -0.202928 52.5793 0.165226 56.9367 2.50479C62.2236 5.0176 66.2174 11.279 66.2401 16.8677C66.4217 22.6516 63.743 27.8938 59.0918 31.2516Z" fill="#BFA161"/>
<path fill-rule="evenodd" clip-rule="evenodd" d="M44.2512 33.4393C42.2774 31.4023 40.6885 28.7599 41.8918 26.0088C42.9575 23.9075 43.9107 21.7625 44.3648 19.3359C44.5464 21.8711 46.158 24.124 46.9286 26.5506C47.2237 27.72 47.2468 28.9334 46.7703 30.1462C46.2485 31.4676 45.4085 32.5937 44.4098 33.6119L44.2512 33.4393Z" fill="#BFA161"/>
<path fill-rule="evenodd" clip-rule="evenodd" d="M19.3534 56.331H14.0983C12.9341 54.5873 11.8824 53.0808 10.9375 51.8119C9.94897 50.4794 8.92958 49.1702 7.88016 47.8851H5.88466V53.7986C5.88466 54.1036 5.93635 54.3722 6.0352 54.6055C6.1337 54.8336 6.34956 55.0138 6.68314 55.1343C6.84731 55.1972 7.13442 55.2552 7.54729 55.3048C7.9605 55.3586 8.3084 55.39 8.59482 55.3987V56.3314H0.337891V55.3987C0.558644 55.3802 0.878595 55.3498 1.29635 55.3048C1.7141 55.2646 2.00541 55.2059 2.16958 55.1343C2.44273 55.0219 2.64392 54.8563 2.76617 54.6369C2.89227 54.4169 2.95409 54.1392 2.95409 53.7986V40.3208C2.95409 40.0114 2.90729 39.7428 2.81263 39.5052C2.72426 39.2674 2.5077 39.0878 2.16993 38.9666C1.93975 38.8863 1.6397 38.815 1.27295 38.7515C0.96377 38.6926 0.651624 38.6507 0.337891 38.6257L0.337891 37.6935H9.35069C10.1771 37.6935 10.9515 37.7748 11.6752 37.9359C12.3976 38.0972 13.056 38.3571 13.6435 38.7155C14.2021 39.0557 14.6694 39.5269 15.005 40.0882C15.3438 40.653 15.5167 41.3341 15.5167 42.1326C15.5167 42.8501 15.3997 43.4868 15.1692 44.0373C14.942 44.5838 14.5954 45.0725 14.1549 45.4677C13.7416 45.8438 13.2432 46.1722 12.6662 46.4453C12.0888 46.7234 11.4496 46.9567 10.7552 47.1488C11.5621 48.1687 12.362 49.1941 13.1548 50.225C13.7933 51.0539 14.5723 52.0672 15.5021 53.2551C15.9062 53.7843 16.2677 54.1696 16.5975 54.4207C16.9213 54.6673 17.2447 54.8745 17.5646 55.0306C17.8039 55.1431 18.0994 55.2328 18.4609 55.295C18.8179 55.3537 19.1141 55.3897 19.3534 55.3984V56.331ZM12.1167 42.4327C12.1167 41.303 11.7779 40.4109 11.0978 39.7476C10.4213 39.0882 9.45827 38.757 8.22317 38.757H5.88466V46.7548H7.6884C8.95144 46.7548 10.0088 46.3695 10.8481 45.5934C11.6944 44.8183 12.1171 43.7642 12.1171 42.4323L12.1167 42.4327ZM31.8036 53.2827C31.2356 54.3187 30.4742 55.1392 29.522 55.7533C28.5677 56.367 27.4692 56.6719 26.2337 56.6719C25.1391 56.6719 24.1862 56.4878 23.3647 56.1204C22.5424 55.7533 21.8658 55.2552 21.336 54.6233C20.805 53.9949 20.4054 53.2555 20.1431 52.4172C19.884 51.5743 19.7537 50.6868 19.7537 49.7496C19.7537 48.9113 19.8941 48.0867 20.1707 47.2745C20.4449 46.4757 20.8638 45.7341 21.4065 45.0869C21.9277 44.468 22.5753 43.9657 23.3503 43.585C24.1251 43.2035 24.9945 43.0121 25.9575 43.0121C26.9477 43.0121 27.7975 43.1592 28.5024 43.4599C29.2115 43.7551 29.785 44.1634 30.222 44.679C30.6436 45.1725 30.9579 45.7506 31.1651 46.4142C31.3718 47.0821 31.4752 47.8044 31.4752 48.5799V49.4496H22.4914C22.4914 50.2966 22.5753 51.0682 22.744 51.7577C22.9127 52.4528 23.1813 53.0581 23.5519 53.588C23.9092 54.0941 24.3741 54.493 24.9522 54.7892C25.5296 55.0802 26.2201 55.2286 27.0186 55.2286C27.8349 55.2286 28.5401 55.0442 29.1308 54.6816C29.719 54.3184 30.2911 53.6638 30.8409 52.7172L31.8036 53.2827ZM28.7654 48.3462C28.7654 47.8537 28.7235 47.329 28.6337 46.7681C28.5443 46.2082 28.4077 45.7419 28.216 45.3653C28.0106 44.9706 27.7121 44.6319 27.3462 44.3786C26.9812 44.1236 26.5062 43.9978 25.9288 43.9978C24.9658 43.9978 24.1677 44.3786 23.5285 45.1453C22.8903 45.912 22.547 46.979 22.4911 48.3462H28.7654ZM39.473 56.331H33.0844V55.4962C33.2884 55.4784 33.506 55.4571 33.7376 55.4354C33.9308 55.4229 34.1222 55.3911 34.309 55.3404C34.5581 55.2667 34.7436 55.1319 34.8662 54.9422C34.9884 54.7515 35.0565 54.5042 35.0523 54.2017L34.8438 40.3708C34.8421 40.2143 34.7705 39.763 34.6842 39.4521C34.6451 39.311 34.6028 39.1979 34.5626 39.1542C34.5204 39.1077 34.506 39.0606 34.4467 39.0099C34.2172 38.814 34.5022 39.0861 34.2877 38.9041C34.1463 38.7836 34.3461 38.8587 33.9217 38.7749C33.5008 38.6921 32.7959 38.8779 32.5374 38.8608L32.5144 37.9491L37.2787 37.7011L37.5051 37.8863L37.5236 54.0501C37.5236 54.3446 37.5802 54.5859 37.6958 54.777C37.8107 54.9663 37.9955 55.1151 38.2536 55.2143C38.4386 55.2967 38.6313 55.3605 38.8289 55.4047C39.0199 55.4483 39.2369 55.478 39.473 55.4962V56.331ZM47.6827 56.331H41.1779V55.4728L41.8244 55.4197C42.0487 55.4022 42.239 55.3673 42.4021 55.3128C42.6589 55.2377 42.8499 55.0998 42.9704 54.9042C43.0913 54.7085 43.1573 54.455 43.1573 54.1437V46.2127C43.1573 45.9333 43.0871 45.6793 42.9565 45.4477C42.8258 45.2172 42.6397 45.0258 42.4021 44.8704C42.2303 44.7638 41.983 44.6748 41.6529 44.6039C41.3574 44.5336 41.0568 44.4873 40.7538 44.4655V43.6213L45.5042 43.3321L45.6946 43.5148V53.9883C45.6946 54.2911 45.755 54.5437 45.8762 54.7442C45.9974 54.9398 46.1934 55.09 46.4585 55.1843C46.6583 55.2646 46.8546 55.3264 47.0453 55.375C47.2548 55.4247 47.468 55.4574 47.6827 55.4728V56.331ZM45.9646 38.2691C45.9646 38.7623 45.7969 39.1933 45.4525 39.5625C45.1123 39.931 44.6935 40.1179 44.1902 40.1179C43.7291 40.1179 43.3239 39.9405 42.9841 39.5891C42.6446 39.238 42.4717 38.8328 42.4717 38.384C42.4717 37.9041 42.6446 37.4905 42.9841 37.1349C43.3243 36.7794 43.7295 36.6016 44.1902 36.6016C44.7124 36.6016 45.1357 36.7657 45.4661 37.1C45.7969 37.4371 45.9646 37.8241 45.9646 38.2691ZM62.1938 56.0935C61.7617 56.2412 61.3858 56.3624 61.062 56.4568C60.7337 56.5465 60.367 56.5954 59.9541 56.5954C59.2353 56.5954 58.6673 56.434 58.2394 56.1162C57.8122 55.7934 57.5401 55.3268 57.4221 54.7173H57.3382C56.7417 55.3446 56.1028 55.8287 55.4171 56.1609C54.7357 56.4924 53.9138 56.6586 52.9515 56.6586C51.9326 56.6586 51.0964 56.3621 50.439 55.7666C49.7813 55.17 49.4526 54.3903 49.4526 53.4305C49.4526 52.9285 49.5281 52.4846 49.6734 52.0902C49.8224 51.6947 50.0473 51.3322 50.3356 51.0232C50.5658 50.7629 50.8659 50.53 51.242 50.3232C51.5834 50.1331 51.9382 49.9683 52.3035 49.83C52.7164 49.6829 53.5526 49.4045 54.8115 49.0008C56.0752 48.597 56.9247 48.284 57.3662 48.0552V46.7548C57.3662 46.6427 57.3428 46.423 57.2907 46.1006C57.2395 45.777 57.1298 45.4655 56.9669 45.1812C56.7836 44.8543 56.5247 44.5717 56.187 44.3342C55.8541 44.0911 55.3794 43.9709 54.7643 43.9709C54.3417 43.9709 53.9519 44.0377 53.59 44.177C53.2285 44.3118 52.9703 44.4544 52.825 44.6032C52.825 44.7778 52.867 45.0328 52.9571 45.3782C53.0447 45.7188 53.0877 46.0328 53.0877 46.3248C53.0877 46.6291 52.942 46.9074 52.6556 47.1628C52.3647 47.4188 51.9654 47.5442 51.4485 47.5442C50.993 47.5442 50.6552 47.387 50.439 47.0779C50.2225 46.7681 50.1152 46.4184 50.1152 46.0328C50.1152 45.629 50.2654 45.2441 50.5613 44.8763C50.862 44.5092 51.2466 44.1812 51.7265 43.8944C52.139 43.6478 52.6364 43.4418 53.2236 43.2668C53.8104 43.0963 54.3839 43.0118 54.9431 43.0118C55.713 43.0118 56.3847 43.0656 56.9628 43.1634C57.5247 43.2598 58.0576 43.4823 58.5213 43.8141C58.9911 44.1365 59.3432 44.5756 59.5877 45.1313C59.8315 45.6884 59.9544 46.4055 59.9544 47.2794C59.9544 48.5344 59.9398 49.6428 59.9111 50.6103C59.8835 51.5792 59.8696 52.6369 59.8696 53.7847C59.8696 54.1256 59.93 54.3945 60.0571 54.5957C60.1794 54.7983 60.3715 54.9684 60.6254 55.1116C60.7662 55.1878 60.9828 55.2332 61.2779 55.2419C61.5783 55.2503 61.8839 55.2552 62.1938 55.2552V56.0935ZM57.3945 49.1579C56.6145 49.3773 55.9288 49.5925 55.3417 49.8031C54.7549 50.0144 54.21 50.2739 53.7077 50.5925C53.247 50.889 52.8855 51.2429 52.6176 51.6501C52.3545 52.0543 52.2183 52.5384 52.2183 53.0987C52.2183 53.8252 52.4209 54.3627 52.8198 54.7033C53.2197 55.0442 53.7266 55.215 54.3364 55.215C54.9896 55.215 55.5624 55.0624 56.0602 54.7623C56.5541 54.4619 56.9715 54.1036 57.3092 53.6907L57.3945 49.1579ZM78.5232 56.331H71.8782V55.4662C72.0892 55.4487 72.3236 55.4305 72.5726 55.4127C72.8269 55.3946 73.0327 55.3589 73.2024 55.3051C73.4557 55.229 73.6481 55.0896 73.7707 54.893C73.8968 54.6953 73.9586 54.4399 73.9586 54.1259V47.4639C73.9586 46.5445 73.7284 45.8365 73.2768 45.3384C72.8217 44.8407 72.2674 44.5899 71.6194 44.5899C71.1315 44.5899 70.6854 44.6615 70.2806 44.8047C69.882 44.9483 69.5202 45.1274 69.2104 45.3384C68.9096 45.54 68.6655 45.7555 68.4866 45.9888C68.3085 46.2218 68.1775 46.4059 68.0975 46.5442V53.9953C68.0975 54.2915 68.1579 54.5384 68.2903 54.7312C68.4174 54.9234 68.6089 55.0718 68.8677 55.1748C69.0671 55.2655 69.2766 55.3319 69.4919 55.3725C69.7175 55.4166 69.9477 55.4487 70.1873 55.4662V56.3314H63.5417V55.4662C63.7527 55.4487 63.9692 55.4305 64.1942 55.4127C64.3932 55.3993 64.5901 55.3632 64.781 55.3051C65.0353 55.229 65.2274 55.0896 65.3503 54.893C65.4775 54.6953 65.5382 54.4399 65.5382 54.1259V46.1271C65.5382 45.8267 65.4719 45.5532 65.3356 45.307C65.2057 45.0588 65.015 44.8475 64.7813 44.6929C64.6077 44.5899 64.4006 44.5137 64.1613 44.4641C63.9071 44.4139 63.6498 44.381 63.3911 44.3656V43.5141L67.904 43.2228L68.0975 43.4061V45.2308H68.1628C68.3836 45.0248 68.6609 44.7691 68.9889 44.4778C69.3183 44.1861 69.6333 43.944 69.9243 43.761C70.2673 43.55 70.6711 43.3747 71.1356 43.2353C71.6058 43.0967 72.1315 43.0251 72.719 43.0251C74.0194 43.0251 74.9866 43.4149 75.616 44.1861C76.2455 44.9622 76.5546 45.9933 76.5546 47.2794V54.0183C76.5546 54.3271 76.6122 54.5744 76.725 54.7627C76.8326 54.9513 77.0202 55.0987 77.2881 55.2021C77.5081 55.2915 77.6964 55.3502 77.8564 55.3851C78.0164 55.4208 78.2417 55.4487 78.5235 55.4662L78.5232 56.331ZM86.4647 56.6719C84.5017 56.6719 82.9658 56.0488 81.8533 54.8067C80.7443 53.5653 80.1907 51.8971 80.1907 49.8031C80.1907 48.8935 80.3409 48.0419 80.6368 47.248C80.9371 46.4553 81.3778 45.7232 81.9379 45.0869C82.4775 44.468 83.1583 43.9657 83.9756 43.585C84.7884 43.2035 85.6802 43.0121 86.6428 43.0121C87.9723 43.0121 89.0575 43.3164 89.8885 43.9259C90.725 44.5354 91.1424 45.365 91.1424 46.4142C91.1424 46.8533 91.0341 47.2386 90.8134 47.5756C90.593 47.9155 90.2304 48.0821 89.7236 48.0821C89.1836 48.0821 88.7658 47.9515 88.4654 47.6871C88.1692 47.4275 88.0194 47.1317 88.0194 46.8082C88.0194 46.4142 88.0756 46.0105 88.1836 45.5934C88.2964 45.177 88.3572 44.8725 88.3757 44.679C88.2119 44.41 87.9677 44.2266 87.6394 44.1365C87.3152 44.0422 86.9628 43.9975 86.5863 43.9975C86.1526 43.9967 85.7238 44.0884 85.3285 44.2664C84.9292 44.446 84.5439 44.7782 84.1681 45.2574C83.8258 45.6971 83.5533 46.2888 83.3413 47.0325C83.1311 47.7772 83.0221 48.6644 83.0221 49.6962C83.0221 51.3274 83.4025 52.6547 84.159 53.6858C84.9145 54.7131 85.9111 55.2286 87.1364 55.2286C88.0285 55.2286 88.7749 55.0219 89.3771 54.61C89.9733 54.1972 90.5312 53.5824 91.0443 52.7577L91.9266 53.3096C91.3209 54.3449 90.5224 55.1616 89.5318 55.7666C88.5402 56.3719 87.5168 56.6719 86.465 56.6719H86.4647ZM105.038 53.2827C104.471 54.3187 103.71 55.1392 102.757 55.7533C101.803 56.367 100.704 56.6719 99.4696 56.6719C98.3749 56.6719 97.4217 56.4878 96.5998 56.1204C95.7775 55.7533 95.1013 55.2552 94.5704 54.6233C94.0405 53.9949 93.6413 53.2555 93.3779 52.4172C93.1198 51.5743 92.9874 50.6868 92.9874 49.7496C92.9874 48.9113 93.1285 48.0867 93.4062 47.2745C93.6803 46.4759 94.0988 45.7344 94.6409 45.0869C95.1628 44.468 95.81 43.9657 96.5854 43.585C97.3605 43.2035 98.2296 43.0121 99.1919 43.0121C100.183 43.0121 101.033 43.1592 101.737 43.4599C102.447 43.7551 103.02 44.1634 103.456 44.679C103.879 45.1725 104.193 45.7506 104.4 46.4142C104.607 47.0821 104.71 47.8044 104.71 48.5799V49.4496H95.7255C95.7255 50.2966 95.81 51.0682 95.9794 51.7577C96.1481 52.4528 96.4167 53.0581 96.7877 53.588C97.145 54.0941 97.6096 54.493 98.1863 54.7892C98.764 55.0802 99.4549 55.2286 100.253 55.2286C101.071 55.2286 101.775 55.0442 102.367 54.6816C102.953 54.3184 103.527 53.6638 104.076 52.7172L105.038 53.2827ZM102 48.3462C102 47.8537 101.958 47.329 101.869 46.7681C101.779 46.2082 101.643 45.7419 101.451 45.3653C101.246 44.9709 100.948 44.6323 100.583 44.3786C100.216 44.1236 99.742 43.9978 99.1639 43.9978C98.2006 43.9978 97.4028 44.3786 96.7639 45.1453C96.1247 45.912 95.7824 46.979 95.7255 48.3462H102Z" fill="#1F1917"/>
<path d="M4.16606 72.7531H0.34375V72.3689C0.452031 72.3602 0.606767 72.3501 0.811103 72.3354C1.01509 72.3221 1.15795 72.3004 1.24143 72.2708C1.37172 72.2247 1.46742 72.16 1.52925 72.0787C1.58828 71.9976 1.61727 71.8844 1.61727 71.7405V66.1753C1.61727 66.0502 1.59666 65.9437 1.5516 65.8595C1.50864 65.7743 1.40455 65.7037 1.24143 65.645C1.12093 65.6024 0.972477 65.5619 0.790844 65.5231C0.643416 65.4912 0.494069 65.4689 0.34375 65.4564V65.0722H4.16606V65.4564C4.04136 65.4599 3.89466 65.4735 3.72246 65.4973C3.5513 65.5193 3.40216 65.5511 3.27362 65.5863C3.12307 65.6304 3.02073 65.7002 2.97008 65.7966C2.91699 65.8944 2.89254 66.0038 2.89254 66.1215V71.6815C2.89254 71.7992 2.92048 71.905 2.97811 71.9976C3.03505 72.0898 3.1353 72.1635 3.27362 72.217C3.35745 72.247 3.49437 72.2777 3.68438 72.3116C3.8723 72.3466 4.03263 72.3647 4.16641 72.3686L4.16606 72.7531ZM11.8774 72.7531H8.99084V72.3962C9.0827 72.3895 9.18434 72.3811 9.29262 72.3738C9.403 72.3668 9.49277 72.3518 9.56577 72.3298C9.67685 72.2984 9.75998 72.2414 9.81307 72.16C9.86826 72.079 9.89515 71.9732 9.89515 71.8443V69.0978C9.89515 68.7192 9.79491 68.4278 9.5993 68.2228C9.40091 68.0174 9.16059 67.914 8.87906 67.914C8.66599 67.914 8.47214 67.9434 8.29714 68.0028C8.12354 68.0614 7.96636 68.1355 7.83153 68.2228C7.7016 68.3059 7.59506 68.3943 7.51822 68.4907C7.45688 68.5631 7.40029 68.6394 7.34881 68.7192V71.7901C7.34881 71.9124 7.37466 72.0144 7.43194 72.094C7.48678 72.1733 7.57061 72.2337 7.68273 72.2763C7.76657 72.313 7.85598 72.3392 7.95414 72.3577C8.05264 72.3755 8.15218 72.3892 8.25662 72.3962V72.7535H5.36937V72.3962C5.46089 72.3895 5.5545 72.3811 5.65265 72.3738C5.75045 72.3668 5.83428 72.3518 5.90763 72.3298C6.01801 72.2984 6.10219 72.2414 6.15423 72.16C6.21012 72.079 6.23632 71.9732 6.23632 71.8443V68.5476C6.23632 68.4236 6.20767 68.3108 6.14829 68.2092C6.09094 68.1061 6.00823 68.0193 5.90798 67.957C5.83253 67.914 5.74276 67.8822 5.63833 67.8623C5.53389 67.8424 5.42176 67.8288 5.30405 67.8215V67.4701L7.26463 67.3506L7.34846 67.4261V68.1781H7.37641C7.47246 68.0932 7.59297 67.9877 7.73618 67.8679C7.87904 67.7474 8.01526 67.6479 8.14206 67.5721C8.30782 67.4781 8.4848 67.4054 8.66879 67.3559C8.89293 67.296 9.1242 67.2669 9.3562 67.2696C9.921 67.2696 10.3419 67.4303 10.6147 67.7474C10.8885 68.0674 11.0234 68.4928 11.0234 69.0223V71.7992C11.0234 71.9274 11.0478 72.0287 11.0967 72.1062C11.1439 72.1841 11.2253 72.2453 11.3412 72.2872C11.4373 72.3246 11.5187 72.348 11.5885 72.363C11.6577 72.378 11.7558 72.3892 11.8774 72.3962V72.7531ZM19.354 72.6553L17.2977 72.7748L17.2076 72.699V72.2002L17.1604 72.1901C16.9523 72.401 16.6976 72.5708 16.3913 72.7056C16.0874 72.8394 15.773 72.9058 15.4503 72.9058C15.116 72.9055 14.7854 72.836 14.4793 72.7018C14.1706 72.5699 13.8927 72.3754 13.663 72.1307C13.4206 71.8702 13.2309 71.5654 13.1041 71.233C12.9672 70.8823 12.898 70.496 12.898 70.0744C12.8964 69.697 12.9713 69.3232 13.1181 68.9755C13.2621 68.6364 13.4693 68.3277 13.7286 68.066C13.9714 67.8239 14.269 67.6318 14.6225 67.4861C14.9646 67.3441 15.3313 67.2707 15.7018 67.2703C15.977 67.2703 16.2463 67.3017 16.5122 67.3646C16.7769 67.4289 17.0054 67.5082 17.1954 67.6063V65.7498C17.1954 65.5975 17.1685 65.4589 17.1115 65.3356C17.0643 65.2195 16.9832 65.1203 16.8789 65.0509C16.7671 64.9824 16.6176 64.9332 16.428 64.901C16.2249 64.8703 16.0206 64.8481 15.8157 64.8347V64.4987L18.224 64.375L18.3131 64.456V71.6543C18.3131 71.7817 18.3396 71.889 18.3952 71.9777C18.4476 72.065 18.5276 72.1405 18.6317 72.2013C18.7071 72.2463 18.8154 72.2715 18.96 72.2823C19.1032 72.2928 19.2335 72.3011 19.354 72.305V72.6564V72.6553ZM17.1954 71.7178V68.5959C17.1572 68.4885 17.1051 68.3867 17.0403 68.293C16.9654 68.1811 16.8746 68.0807 16.7706 67.9951C16.6476 67.8997 16.5106 67.8238 16.3644 67.7701C16.2097 67.7111 16.028 67.6814 15.8219 67.6814C15.5813 67.6814 15.3609 67.7366 15.1611 67.8491C14.9592 67.9598 14.7818 68.1215 14.6267 68.3304C14.4772 68.533 14.3612 68.7897 14.2753 69.1016C14.1901 69.4142 14.1467 69.7593 14.1467 70.1387C14.1467 70.4415 14.1799 70.7171 14.2428 70.9648C14.3057 71.2124 14.414 71.4419 14.5652 71.6536C14.704 71.8556 14.8877 72.0226 15.1021 72.1415C15.3179 72.2634 15.575 72.3266 15.8754 72.3266C16.1932 72.3266 16.4587 72.262 16.6669 72.1356C16.8618 72.0218 17.0397 71.8812 17.1954 71.7178ZM26.5424 72.6553L24.6217 72.7748L24.5326 72.699V72.0214H24.4977C24.402 72.1122 24.294 72.2093 24.1728 72.3116C24.0467 72.42 23.9086 72.5138 23.7614 72.5911C23.5961 72.6825 23.4218 72.7566 23.2413 72.8122C23.0729 72.8635 22.8364 72.8876 22.5308 72.8876C22.0079 72.8876 21.6108 72.7346 21.3373 72.4265C21.0659 72.1171 20.9286 71.6686 20.9286 71.0807V68.5253C20.9286 68.3957 20.9007 68.2871 20.8472 68.1987C20.788 68.1039 20.7069 68.0246 20.6108 67.9675C20.5276 67.9213 20.4373 67.8897 20.3435 67.8739C20.2309 67.8532 20.117 67.8394 20.0026 67.8326V67.4799L21.9678 67.3506L22.0579 67.4261V71.1342C22.0579 71.5212 22.1532 71.8107 22.345 72.0067C22.5371 72.2002 22.7655 72.2984 23.0331 72.2984C23.2507 72.2984 23.447 72.2669 23.6178 72.2054C23.789 72.1454 23.9325 72.0731 24.0485 71.9899C24.1568 71.9145 24.2504 71.8331 24.3325 71.75C24.4145 71.6647 24.4774 71.5851 24.52 71.5135V68.4872C24.52 68.3685 24.4942 68.2633 24.4362 68.1711C24.3785 68.0757 24.299 67.9952 24.2043 67.9364C24.1327 67.8917 24.0268 67.8658 23.8836 67.8567C23.7252 67.8472 23.5668 67.839 23.4082 67.8323V67.4795L25.5487 67.3506L25.6385 67.4261V71.6647C25.6385 71.7884 25.6675 71.8918 25.7219 71.9791C25.7785 72.0657 25.8571 72.1398 25.9563 72.2002C26.0283 72.2414 26.1135 72.2666 26.2117 72.2802C26.3119 72.2903 26.4216 72.3004 26.5421 72.3039L26.5424 72.6553ZM31.4514 70.1387C31.6142 70.2679 31.7413 70.4174 31.829 70.5875C31.9163 70.7576 31.9593 70.9648 31.9593 71.2103C31.9593 71.7049 31.7556 72.108 31.3473 72.4224C30.9397 72.7367 30.4088 72.8935 29.7601 72.8935C29.4168 72.8935 29.1007 72.8384 28.8125 72.7252C28.5233 72.6145 28.3172 72.5111 28.1921 72.4168L28.0748 72.7696H27.6259L27.5662 70.9127H27.9784C28.0112 71.0531 28.0783 71.2176 28.1824 71.4038C28.2844 71.5924 28.4111 71.7629 28.5579 71.9145C28.7133 72.0731 28.9009 72.2054 29.1171 72.3151C29.3357 72.4227 29.5785 72.4775 29.8495 72.4775C30.2338 72.4775 30.5265 72.3982 30.735 72.2414C30.9411 72.0842 31.0445 71.8607 31.0445 71.5662C31.0445 71.4153 31.013 71.2865 30.9477 71.175C30.8737 71.0579 30.7746 70.9587 30.6575 70.8848C30.5043 70.7927 30.3415 70.7177 30.1719 70.6612C29.9798 70.5949 29.7685 70.5285 29.5331 70.4642C29.3215 70.4045 29.113 70.3346 28.9082 70.2546C28.6784 70.1663 28.4824 70.0629 28.3193 69.9427C28.1458 69.819 27.9993 69.6613 27.8886 69.4792C27.7765 69.2941 27.722 69.0782 27.722 68.8288C27.722 68.3922 27.9012 68.0216 28.2599 67.7181C28.619 67.4145 29.0986 67.264 29.7007 67.264C29.9313 67.264 30.1674 67.2912 30.4088 67.345C30.6498 67.4002 30.8454 67.4655 30.9984 67.541L31.1346 67.2581H31.5663L31.6554 68.9745H31.2432C31.1594 68.592 30.9778 68.2818 30.7004 68.0419C30.4252 67.8009 30.0864 67.6814 29.6885 67.6814C29.3616 67.6814 29.1048 67.7551 28.9166 67.9029C28.7283 68.0506 28.635 68.2298 28.635 68.4387C28.635 68.6011 28.6658 68.7366 28.729 68.8456C28.7908 68.9521 28.8827 69.0447 29.0067 69.1201C29.1272 69.1924 29.2756 69.2606 29.4573 69.3241C29.6393 69.3867 29.8639 69.4583 30.1314 69.5375C30.3944 69.6137 30.6414 69.7028 30.8737 69.8027C31.1087 69.904 31.3005 70.0168 31.4514 70.1387ZM36.7872 72.5202C36.5273 72.618 36.2825 72.699 36.0523 72.7657C35.8193 72.8328 35.5381 72.867 35.2035 72.867C34.7096 72.867 34.3613 72.7535 34.1609 72.5271C33.9586 72.3022 33.8587 71.9843 33.8587 71.5722V67.957H32.7934V67.4372H33.8811V65.776H34.9709V67.4372H36.6625V67.957H34.9813V70.9407C34.9813 71.1642 34.9911 71.3507 35.0093 71.5006C35.0257 71.6497 35.069 71.7811 35.1382 71.8918C35.201 71.9976 35.2971 72.0769 35.4239 72.13C35.5521 72.1841 35.7236 72.2114 35.9384 72.2114C36.038 72.2114 36.1847 72.2044 36.3764 72.1876C36.5706 72.1705 36.7068 72.1506 36.7872 72.1244V72.5202ZM42.1813 68.1026C42.1813 68.2871 42.1307 68.4495 42.0325 68.5941C41.9323 68.7366 41.7796 68.8061 41.5714 68.8061C41.3486 68.8061 41.1774 68.7548 41.0615 68.6493C40.9427 68.5459 40.884 68.4292 40.884 68.3038C40.884 68.2246 40.8921 68.1519 40.9046 68.088C40.9186 68.0216 40.9326 67.957 40.9431 67.8917C40.7569 67.8917 40.5368 67.9598 40.286 68.0967C40.0301 68.2393 39.8111 68.4399 39.6468 68.6825V71.7901C39.6468 71.9162 39.6737 72.0193 39.7272 72.0975C39.782 72.1768 39.8658 72.2376 39.9822 72.2763C40.0817 72.313 40.2099 72.3392 40.3678 72.3577C40.525 72.3755 40.6612 72.3892 40.7754 72.3962V72.7535H37.6678V72.3962C37.7596 72.3895 37.8529 72.3811 37.9517 72.3738C38.0495 72.3668 38.1334 72.3518 38.2067 72.3298C38.3171 72.2984 38.4002 72.2414 38.4537 72.16C38.5085 72.079 38.5354 71.9732 38.5354 71.8443V68.5476C38.5354 68.4348 38.5061 68.3262 38.4481 68.2169C38.3901 68.1079 38.3084 68.0213 38.2064 67.957C38.1222 67.9109 38.0312 67.879 37.9367 67.8623C37.8264 67.8414 37.7149 67.8278 37.6028 67.8215V67.4701L39.5637 67.3506L39.6468 67.4261V68.1781H39.6755C39.9224 67.8861 40.198 67.6643 40.5019 67.513C40.8041 67.3618 41.0817 67.286 41.3329 67.286C41.584 67.286 41.7877 67.3597 41.9452 67.5075C42.1013 67.6552 42.1813 67.855 42.1813 68.1026ZM45.8415 72.7531H42.9913V72.3962C43.0828 72.3895 43.1764 72.3811 43.2742 72.3738C43.3731 72.3668 43.4559 72.3518 43.5275 72.3298C43.6403 72.2984 43.7238 72.2414 43.7765 72.16C43.83 72.079 43.8583 71.9732 43.8583 71.8443V68.5476C43.8583 68.4317 43.8275 68.3262 43.7709 68.2298C43.7105 68.1311 43.6269 68.0487 43.5275 67.9895C43.4524 67.9455 43.3438 67.9081 43.1995 67.8784C43.0696 67.8495 42.9376 67.8305 42.8048 67.8215V67.4701L44.8866 67.3506L44.9704 67.4261V71.7793C44.9704 71.905 44.9973 72.0105 45.0494 72.0937C45.1031 72.1751 45.1887 72.2376 45.3047 72.2763C45.3927 72.3099 45.4783 72.3357 45.5618 72.3556C45.6456 72.3738 45.7375 72.3892 45.8415 72.3962V72.7531ZM45.0892 65.2461C45.0892 65.4505 45.0158 65.6304 44.8646 65.7833C44.7936 65.8583 44.7077 65.9177 44.6124 65.9575C44.5171 65.9973 44.4145 66.0167 44.3113 66.0146C44.2129 66.0151 44.1154 65.9959 44.0246 65.9581C43.9338 65.9203 43.8514 65.8647 43.7825 65.7945C43.634 65.6489 43.5586 65.4805 43.5586 65.2936C43.5586 65.0949 43.634 64.9227 43.7825 64.7753C43.9323 64.6268 44.1098 64.5528 44.3113 64.5528C44.5397 64.5528 44.7259 64.6216 44.8702 64.7603C45.0155 64.9 45.0892 65.061 45.0892 65.2458M52.0967 71.4967C51.8585 71.9147 51.5175 72.2649 51.1061 72.5142C50.6911 72.7678 50.2136 72.8935 49.6775 72.8935C49.2024 72.8935 48.7875 72.8178 48.4305 72.6665C48.0735 72.5142 47.7801 72.3099 47.5485 72.049C47.3154 71.7845 47.1392 71.4749 47.0309 71.1394C46.917 70.7845 46.8598 70.4139 46.8615 70.0412C46.8615 69.6951 46.9223 69.3549 47.0431 69.0206C47.1631 68.6888 47.3452 68.383 47.5796 68.1194C47.8063 67.8644 48.0878 67.6573 48.4242 67.4998C48.7613 67.3429 49.1389 67.2637 49.5573 67.2637C49.9876 67.2637 50.3572 67.3244 50.6635 67.4481C50.9709 67.5703 51.22 67.7383 51.4096 67.9511C51.5933 68.1536 51.7303 68.3922 51.8204 68.6664C51.9102 68.941 51.9545 69.2389 51.9545 69.5589V69.9169H48.0512C48.0512 70.2662 48.0878 70.5837 48.1615 70.8687C48.2346 71.1551 48.3509 71.4038 48.5122 71.6225C48.6713 71.8347 48.8802 72.0046 49.1204 72.1171C49.3711 72.2376 49.6715 72.2984 50.0184 72.2984C50.3733 72.2984 50.6792 72.2226 50.936 72.0731C51.1917 71.9236 51.4407 71.6536 51.6793 71.2637L52.0967 71.4967ZM50.7767 69.4621C50.7767 69.2595 50.7585 69.0429 50.7201 68.8121C50.681 68.5812 50.6223 68.3887 50.5385 68.2329C50.4477 68.0688 50.3182 67.9294 50.1612 67.8267C50.0023 67.7219 49.7959 67.6699 49.5447 67.6699C49.1266 67.6699 48.7791 67.8271 48.5025 68.1432C48.2251 68.4586 48.0753 68.899 48.0512 69.4621H50.7767ZM56.9651 70.1387C57.1289 70.2679 57.2554 70.4174 57.343 70.5875C57.4307 70.7576 57.4737 70.9648 57.4737 71.2103C57.4737 71.7049 57.2697 72.108 56.8614 72.4224C56.4538 72.7367 55.9232 72.8935 55.2738 72.8935C54.9315 72.8935 54.6147 72.8384 54.3273 72.7252C54.0377 72.6145 53.8313 72.5111 53.7069 72.4168L53.5889 72.7696H53.14L53.0806 70.9127H53.4928C53.5249 71.0531 53.5934 71.2176 53.6971 71.4038C53.7991 71.5924 53.9249 71.7629 54.0723 71.9145C54.2277 72.0731 54.4146 72.2054 54.6311 72.3151C54.8495 72.4227 55.0922 72.4775 55.364 72.4775C55.7475 72.4775 56.0412 72.3982 56.2491 72.2414C56.4558 72.0842 56.5596 71.8607 56.5596 71.5662C56.5596 71.4153 56.5268 71.2865 56.4618 71.175C56.3881 71.0578 56.289 70.9586 56.1719 70.8848C56.0187 70.7927 55.8559 70.7178 55.6864 70.6612C55.4942 70.5949 55.2819 70.5285 55.0478 70.4642C54.8364 70.4046 54.6279 70.3347 54.4233 70.2546C54.1921 70.1663 53.9968 70.0629 53.833 69.9427C53.6599 69.8188 53.5137 69.6611 53.403 69.4792C53.2906 69.2941 53.2354 69.0782 53.2354 68.8288C53.2354 68.3922 53.4149 68.0216 53.7743 67.7181C54.1334 67.4145 54.6126 67.264 55.2148 67.264C55.4453 67.264 55.6822 67.2912 55.9232 67.345C56.1638 67.4002 56.3598 67.4655 56.5124 67.541L56.6494 67.2581H57.08L57.1698 68.9745H56.7573C56.6735 68.592 56.4918 68.2818 56.2141 68.0419C55.9392 67.8009 55.6001 67.6814 55.2029 67.6814C54.8756 67.6814 54.6186 67.7551 54.431 67.9029C54.2434 68.0506 54.1495 68.2298 54.1495 68.4387C54.1495 68.6011 54.1802 68.7366 54.2434 68.8456C54.3049 68.9521 54.3971 69.0447 54.5211 69.1201C54.6416 69.1924 54.7901 69.2606 54.9717 69.3241C55.1533 69.3867 55.3783 69.4583 55.6455 69.5375C55.9089 69.6137 56.1555 69.7028 56.3884 69.8027C56.6232 69.904 56.8146 70.0168 56.9651 70.1387ZM68.2839 70.4695L68.1048 72.7535H61.4752V72.3686C61.5709 72.3602 61.7096 72.348 61.8912 72.3301C62.0728 72.3127 62.1996 72.2886 62.2709 72.2603C62.3896 72.2131 62.477 72.145 62.53 72.0545C62.5849 71.9637 62.6111 71.8499 62.6111 71.7087V66.2088C62.6111 66.0865 62.5894 65.9779 62.5419 65.8839C62.4976 65.7889 62.4057 65.7135 62.2709 65.6569C62.1787 65.6136 62.0508 65.5713 61.8849 65.5284C61.7506 65.4934 61.6137 65.4694 61.4755 65.4564V65.0722H65.0558V65.4564C64.944 65.4599 64.8011 65.477 64.6237 65.5102C64.4459 65.5434 64.3174 65.5713 64.2381 65.5968C64.1012 65.6398 64.0096 65.7135 63.9583 65.819C63.9094 65.9238 63.8849 66.0348 63.8849 66.155V71.3137C63.8849 71.5512 63.8972 71.7363 63.9237 71.868C63.9496 71.9997 64.0096 72.1007 64.1054 72.1751C64.1976 72.2397 64.3338 72.2816 64.5154 72.3004C64.6971 72.3207 64.9496 72.3298 65.2769 72.3298C65.4253 72.3298 65.5783 72.3284 65.7379 72.3214C65.8903 72.314 66.0422 72.2992 66.1931 72.277C66.3235 72.2569 66.4523 72.2273 66.5783 72.1883C66.695 72.1492 66.7823 72.1014 66.8368 72.0437C67.0006 71.8778 67.1903 71.6263 67.4086 71.2903C67.6252 70.9525 67.7764 70.679 67.8599 70.4702H68.2839V70.4695ZM71.8666 72.7531H69.0168V72.3962C69.1083 72.3895 69.2022 72.3811 69.3004 72.3738C69.3982 72.3668 69.482 72.3518 69.5533 72.3298C69.6654 72.2984 69.7489 72.2414 69.8016 72.16C69.8551 72.079 69.883 71.9732 69.883 71.8443V68.5476C69.883 68.4317 69.8533 68.3262 69.7957 68.2298C69.7356 68.1312 69.6524 68.0487 69.5533 67.9895C69.4775 67.9455 69.3695 67.9081 69.2242 67.8784C69.0945 67.8495 68.9628 67.8305 68.8302 67.8215V67.4701L70.912 67.3506L70.9958 67.4261V71.7793C70.9958 71.905 71.022 72.0105 71.0751 72.0937C71.1282 72.1751 71.2138 72.2376 71.3301 72.2763C71.4181 72.3099 71.5034 72.3357 71.5869 72.3556C71.6707 72.3738 71.7625 72.3892 71.867 72.3962L71.8666 72.7531ZM71.1139 65.2461C71.1139 65.4505 71.0406 65.6304 70.8893 65.7833C70.7405 65.937 70.5571 66.0146 70.3367 66.0146C70.1341 66.0146 69.9567 65.9405 69.8079 65.7945C69.6591 65.6489 69.5837 65.4805 69.5837 65.2936C69.5837 65.0949 69.6591 64.9227 69.8079 64.7753C69.8763 64.7042 69.9584 64.6478 70.0494 64.6095C70.1403 64.5713 70.2381 64.552 70.3367 64.5528C70.5652 64.5528 70.7506 64.6216 70.8956 64.7603C71.0406 64.9 71.1139 65.061 71.1139 65.2458M82.9829 72.7531H80.1082V72.3962C80.1997 72.3895 80.2916 72.3811 80.3852 72.3738C80.4795 72.3668 80.5626 72.3518 80.6342 72.3298C80.7467 72.2984 80.8281 72.2414 80.8815 72.16C80.936 72.079 80.9633 71.9732 80.9633 71.8443V69.0891C80.9633 68.7118 80.8689 68.4233 80.6796 68.2183C80.4896 68.0157 80.2528 67.9137 79.9713 67.9137C79.7753 67.9137 79.5919 67.9413 79.4208 67.9947C79.2496 68.0482 79.0918 68.1247 78.9489 68.2225C78.8413 68.2943 78.744 68.3804 78.6597 68.4785C78.5793 68.5718 78.5224 68.6472 78.4815 68.7097V71.7898C78.4815 71.9159 78.506 72.0189 78.5531 72.1007C78.602 72.1817 78.6834 72.2449 78.7983 72.2868C78.8899 72.3204 78.9737 72.3448 79.0467 72.3605C79.12 72.3759 79.2161 72.3888 79.337 72.3958V72.7531H76.521V72.3958C76.6128 72.3892 76.7026 72.3808 76.7882 72.3735C76.8737 72.3665 76.9513 72.3514 77.0229 72.3294C77.135 72.298 77.2164 72.2411 77.2719 72.1597C77.3243 72.0786 77.3516 71.9728 77.3516 71.8439V69.0891C77.3516 68.7118 77.2573 68.4233 77.0673 68.2183C76.8779 68.0157 76.6432 67.9137 76.3599 67.9137C76.1633 67.9137 75.9816 67.9413 75.8105 67.9968C75.6393 68.0541 75.4804 68.1295 75.3369 68.2274C75.2212 68.307 75.1255 68.395 75.0455 68.4956C74.9666 68.5955 74.9048 68.6692 74.866 68.7192V71.779C74.866 71.9012 74.8922 72.0046 74.9498 72.0877C75.0047 72.1709 75.0878 72.2334 75.2013 72.276C75.2845 72.3127 75.3697 72.3389 75.4574 72.3574C75.5454 72.3752 75.6435 72.3888 75.7501 72.3958V72.7531H72.8866V72.3958C72.9784 72.3892 73.072 72.3808 73.1702 72.3735C73.2676 72.3665 73.3518 72.3514 73.4252 72.3294C73.5352 72.298 73.6187 72.2411 73.6725 72.1597C73.727 72.0786 73.7539 71.9728 73.7539 71.8439V68.5249C73.7554 68.4145 73.7248 68.306 73.6658 68.2127C73.6037 68.1179 73.5215 68.0377 73.4252 67.978C73.3365 67.9306 73.2418 67.8953 73.1436 67.8732C73.0299 67.8452 72.9138 67.8278 72.7968 67.8211V67.4697L74.7696 67.3503L74.8534 67.4257V68.1893H74.8936C74.9942 68.0985 75.1164 67.9926 75.2597 67.8693C75.4025 67.7471 75.5367 67.6479 75.6596 67.5717C75.7997 67.4851 75.974 67.4124 76.1839 67.3555C76.4049 67.2966 76.6328 67.2676 76.8615 67.2692C77.2447 67.2692 77.5734 67.3635 77.8486 67.5483C78.1221 67.7341 78.3198 67.9584 78.441 68.2225C78.5832 68.0946 78.71 67.9839 78.8204 67.8896C78.9279 67.7939 79.0732 67.6922 79.2524 67.5826C79.4191 67.4818 79.5993 67.4054 79.7875 67.3555C80.011 67.296 80.2416 67.267 80.4729 67.2692C80.9709 67.2692 81.3642 67.4163 81.6566 67.7128C81.9462 68.0097 82.0932 68.4638 82.0932 69.0779V71.7898C82.0932 71.9159 82.1152 72.0189 82.1641 72.1007C82.2113 72.1817 82.2927 72.2449 82.4093 72.2868C82.5015 72.3204 82.591 72.3448 82.6811 72.3605C82.7708 72.3759 82.8721 72.3888 82.9825 72.3958L82.9829 72.7531ZM86.8286 72.7531H83.9783V72.3962C84.0702 72.3895 84.1642 72.3811 84.262 72.3738C84.3598 72.3668 84.4436 72.3518 84.5152 72.3298C84.6273 72.2984 84.7108 72.2414 84.7636 72.16C84.817 72.079 84.8456 71.9732 84.8456 71.8443V68.5476C84.8456 68.4317 84.8153 68.3262 84.7573 68.2298C84.6973 68.1312 84.6142 68.0488 84.5152 67.9895C84.4394 67.9455 84.3315 67.9081 84.1869 67.8784C84.0571 67.8495 83.9252 67.8304 83.7925 67.8215V67.4701L85.874 67.3506L85.9578 67.4261V71.7793C85.9578 71.905 85.9843 72.0105 86.0371 72.0937C86.0905 72.1751 86.1761 72.2376 86.2921 72.2763C86.3797 72.3099 86.4653 72.3357 86.5498 72.3556C86.633 72.3738 86.7248 72.3892 86.8286 72.3962V72.7531ZM86.0762 65.2461C86.0762 65.4505 86.0028 65.6304 85.8509 65.7833C85.7802 65.8584 85.6945 65.9177 85.5993 65.9576C85.5042 65.9974 85.4018 66.0168 85.2987 66.0146C85.2003 66.0151 85.1029 65.996 85.0121 65.9582C84.9213 65.9204 84.8391 65.8647 84.7702 65.7945C84.621 65.6489 84.546 65.4805 84.546 65.2936C84.546 65.0949 84.621 64.9227 84.7702 64.7753C84.8386 64.7043 84.9207 64.648 85.0116 64.6097C85.1024 64.5715 85.2001 64.5521 85.2987 64.5528C85.5275 64.5528 85.7129 64.6216 85.8575 64.7603C86.0032 64.9 86.0762 65.061 86.0762 65.2458M91.4888 72.5202C91.23 72.618 90.9855 72.699 90.7546 72.7657C90.522 72.8328 90.2398 72.867 89.9058 72.867C89.4119 72.867 89.063 72.7535 88.8632 72.5271C88.6613 72.3022 88.5611 71.9843 88.5611 71.5722V67.957H87.4957V67.4372H88.5834V65.776H89.6729V67.4372H91.3645V67.957H89.6833V70.9407C89.6833 71.1642 89.6938 71.3507 89.7116 71.5006C89.7284 71.6497 89.771 71.7811 89.8409 71.8918C89.9037 71.9976 89.9998 72.0769 90.1255 72.13C90.2548 72.1841 90.4259 72.2114 90.6404 72.2114C90.7403 72.2114 90.887 72.2044 91.0788 72.1876C91.273 72.1705 91.4095 72.1506 91.4888 72.1244V72.5202ZM97.606 71.4967C97.3673 71.9148 97.0259 72.265 96.614 72.5142C96.2004 72.7678 95.723 72.8935 95.1861 72.8935C94.7104 72.8935 94.2968 72.8178 93.9398 72.6665C93.5821 72.5142 93.2884 72.3099 93.0579 72.049C92.824 71.7848 92.6474 71.4752 92.5392 71.1394C92.4257 70.7844 92.3688 70.4139 92.3704 70.0412C92.3704 69.6951 92.4316 69.3549 92.5517 69.0206C92.6723 68.6891 92.8545 68.3833 93.0886 68.1194C93.3149 67.8644 93.5972 67.6573 93.9339 67.4998C94.2696 67.3429 94.6475 67.2637 95.0656 67.2637C95.4963 67.2637 95.8655 67.3244 96.1718 67.4481C96.4802 67.5703 96.7293 67.7383 96.9182 67.9511C97.1023 68.1536 97.2382 68.3922 97.3287 68.6664C97.4184 68.941 97.4635 69.2389 97.4635 69.5589V69.9169H93.5591C93.5591 70.2662 93.5972 70.5837 93.6702 70.8687C93.7435 71.1551 93.8598 71.4038 94.0209 71.6225C94.1799 71.8346 94.3886 72.0044 94.6286 72.1171C94.8794 72.2376 95.1798 72.2984 95.5267 72.2984C95.8815 72.2984 96.1886 72.2226 96.4453 72.0731C96.7003 71.9236 96.949 71.6536 97.1879 71.2637L97.606 71.4967ZM96.2857 69.4621C96.2857 69.2595 96.2679 69.0429 96.2287 68.8121C96.1903 68.5812 96.1309 68.3887 96.0471 68.2329C95.9563 68.0688 95.8268 67.9294 95.6699 67.8267C95.5106 67.7219 95.3045 67.6699 95.0537 67.6699C94.6346 67.6699 94.2884 67.8271 94.0104 68.1432C93.7334 68.4586 93.5842 68.899 93.5591 69.4621H96.2857ZM105.039 72.6553L102.982 72.7748L102.892 72.699V72.2002L102.846 72.1901C102.638 72.401 102.383 72.5708 102.076 72.7056C101.772 72.8394 101.458 72.9058 101.136 72.9058C100.801 72.9058 100.477 72.837 100.164 72.7018C99.8557 72.57 99.5779 72.3755 99.3486 72.1307C99.1059 71.8705 98.916 71.5656 98.7894 71.233C98.6521 70.8823 98.5833 70.496 98.5833 70.0744C98.5833 69.6884 98.6567 69.3231 98.8037 68.9755C98.9475 68.6364 99.1545 68.3278 99.4136 68.066C99.656 67.8239 99.9543 67.6318 100.307 67.4861C100.649 67.3441 101.016 67.2708 101.387 67.2703C101.662 67.2703 101.931 67.3017 102.197 67.3646C102.462 67.4289 102.691 67.5082 102.88 67.6063V65.7498C102.88 65.5975 102.853 65.4589 102.797 65.3356C102.742 65.2098 102.664 65.1155 102.564 65.0509C102.452 64.9824 102.303 64.9332 102.113 64.901C101.91 64.8703 101.706 64.8482 101.501 64.8347V64.4987L103.909 64.375L103.998 64.456V71.6543C103.998 71.7817 104.025 71.889 104.081 71.9777C104.133 72.065 104.213 72.1405 104.316 72.2013C104.392 72.2463 104.5 72.2715 104.646 72.2823C104.788 72.2928 104.919 72.3011 105.039 72.305V72.6564V72.6553ZM102.88 71.7178V68.5959C102.85 68.5015 102.797 68.4013 102.725 68.293C102.651 68.181 102.56 68.0806 102.456 67.9951C102.333 67.8997 102.196 67.8238 102.049 67.7701C101.895 67.7111 101.713 67.6814 101.507 67.6814C101.266 67.6814 101.046 67.7366 100.846 67.8491C100.644 67.9598 100.466 68.1215 100.311 68.3304C100.162 68.533 100.046 68.7897 99.9606 69.1016C99.875 69.4142 99.8313 69.7593 99.8313 70.1387C99.8313 70.4415 99.8645 70.7171 99.9281 70.9648C99.9906 71.2124 100.099 71.4419 100.25 71.6536C100.389 71.8554 100.572 72.0224 100.787 72.1415C101.003 72.2634 101.26 72.3266 101.56 72.3266C101.878 72.3266 102.144 72.262 102.352 72.1356C102.547 72.0219 102.724 71.8813 102.88 71.7178Z" fill="#1F1917"/>
</g>
</svg>
