<svg width="431" height="59" viewBox="0 0 431 59" fill="none" xmlns="http://www.w3.org/2000/svg">
<g opacity="0.9" clip-path="url(#clip0_4151_27468)">
<path d="M231.35 12.5162H237.988V46.8657H229.528L219.688 31.0641C218.004 28.304 216.569 25.3645 216.569 25.3645H216.473V46.8657H209.807V12.5162H217.618L229.279 31.2298C230.058 32.4616 230.728 33.7591 231.281 35.1077V12.5162H231.35ZM269.522 26.579H257.957V12.5024H249.525V46.8519H257.957V32.1958H269.522V46.8519H277.995V12.5024H269.522V26.579ZM146.076 31.9198H157.034V26.7584H146.076V17.8156H160.746V12.5162H137.616V46.8657H160.995V41.1385H146.076V31.9336V31.9198ZM115.632 20.3273C115.437 20.0989 115.313 19.8179 115.276 19.5194C115.238 19.2209 115.29 18.9182 115.424 18.6488C115.558 18.3795 115.768 18.1556 116.029 18.005C116.289 17.8544 116.588 17.7837 116.888 17.8018H129.46V12.5162H114.583C112.674 12.4555 110.816 13.1428 109.406 14.4317C107.996 15.7207 107.145 17.5093 107.034 19.4165C107.034 21.4314 107.186 22.8942 110.209 26.0684L121.401 37.7988C121.696 38.0562 121.905 38.3983 121.999 38.7787C122.093 39.159 122.067 39.559 121.925 39.9242C121.783 40.2893 121.532 40.6019 121.206 40.8192C120.88 41.0365 120.495 41.148 120.104 41.1385H106.303V46.8657H122.091C123.177 46.9026 124.259 46.7215 125.273 46.333C126.288 45.9446 127.215 45.3566 127.998 44.604C128.782 43.8514 129.406 42.9493 129.835 41.9511C130.264 40.9529 130.489 39.8789 130.495 38.7924C130.495 36.5154 129.957 34.9973 126.962 31.8922L115.632 20.3273ZM191.645 35.0663C191.093 33.7178 190.423 32.4201 189.644 31.1883L177.983 12.4748H170.172V46.8657H176.81V25.4059H176.907C176.907 25.4059 178.287 28.3868 180.025 31.1055L189.879 46.9071H198.339V12.5162H191.701V35.0801L191.645 35.0663ZM378.091 31.9198H389.048V26.7584H378.091V17.8156H392.76V12.5162H369.631V46.8657H393.009V41.1385H378.091V31.9336V31.9198ZM430.132 46.8657H420.955L414.358 32.7616H410.66V46.8657H402.214V12.5162H417.615C425.04 12.5162 428.49 17.1394 428.49 22.4802C428.488 24.5265 427.85 26.5216 426.663 28.1884C425.476 29.8552 423.799 31.1111 421.866 31.7818L430.132 46.8657ZM421.259 22.701C421.259 21.114 420.334 17.8156 415.876 17.8156H410.646V27.5864H415.78C420.417 27.5864 421.259 24.1639 421.259 22.701ZM347.536 20.3411C347.34 20.1127 347.216 19.8317 347.179 19.5332C347.142 19.2347 347.194 18.932 347.328 18.6627C347.462 18.3933 347.672 18.1694 347.933 18.0188C348.193 17.8682 348.492 17.7975 348.792 17.8156H361.364V12.5162H346.432C344.523 12.4555 342.665 13.1428 341.255 14.4317C339.845 15.7207 338.994 17.5093 338.883 19.4165C338.883 21.4314 339.035 22.8942 342.057 26.0684L353.25 37.7988C353.57 38.0466 353.803 38.3901 353.915 38.7794C354.027 39.1687 354.011 39.5835 353.871 39.9636C353.731 40.3437 353.474 40.6692 353.136 40.8929C352.798 41.1166 352.398 41.2268 351.994 41.2075H338.152V46.9347H353.94C355.025 46.9717 356.108 46.7905 357.122 46.402C358.137 46.0136 359.063 45.4256 359.847 44.673C360.63 43.9204 361.255 43.0183 361.684 42.0201C362.113 41.0219 362.337 39.9479 362.344 38.8614C362.344 36.5844 361.806 35.0663 358.811 31.9612L347.536 20.3411ZM297.979 31.9336H308.936V26.7584H297.992V17.8156H312.662V12.5162H289.533V46.8657H312.911V41.1385H297.992V31.9336H297.979ZM322.102 46.8795H330.562V12.5162H322.102V46.8657V46.8795ZM0.0390625 0.703003V58.6652H77.322V0.703003H0.0390625ZM42.5723 6.0438C37.9767 7.81027 33.5605 11.702 30 19.5131C28.965 21.7764 27.0191 26.1512 26.1359 28.1108C18.9734 43.8296 15.3024 47.2108 4.49663 47.2108V5.05017H42.3791C42.5026 5.04284 42.6245 5.0806 42.7223 5.15643C42.82 5.23225 42.8869 5.34099 42.9105 5.46243C42.9341 5.58387 42.9129 5.70975 42.8507 5.81668C42.7884 5.92361 42.6895 6.00432 42.5723 6.0438ZM72.9334 12.1436V54.318H34.982C34.8599 54.3215 34.7406 54.281 34.6457 54.204C34.5509 54.127 34.4868 54.0186 34.4651 53.8983C34.4434 53.7781 34.4655 53.6541 34.5274 53.5488C34.5893 53.4435 34.687 53.3639 34.8026 53.3244C39.3981 51.5579 43.8143 47.6662 47.3748 39.8551C48.4099 37.5918 50.3558 33.217 51.239 31.2574C58.3877 15.5386 62.0586 12.1574 72.8644 12.1574L72.9334 12.1436Z" fill="black"/>
</g>
<defs>
<clipPath id="clip0_4151_27468">
<rect width="430.093" height="57.9622" fill="white" transform="translate(0.0390625 0.703125)"/>
</clipPath>
</defs>
</svg>
