<svg width="66" height="57" viewBox="0 0 66 57" fill="none" xmlns="http://www.w3.org/2000/svg">
<path d="M53.5683 7.28378L49.8491 5.25162L51.7069 4.23276L53.5683 7.28378ZM54.6688 2.61652V6.6736L52.8165 3.6335L54.6688 2.61652ZM53.394 8.05733L55.4697 6.92418V0.382812L47.4102 4.7885" fill="#8D7249"/>
<path d="M48.4112 12.8766V10.8445H52.1287L48.4112 12.8766ZM48.4112 7.60652L52.1232 9.63687H48.4112V7.60652ZM52.7533 9.10658L46.7695 5.83594V14.6455L52.7533 11.3767" fill="#8D7249"/>
<path d="M60.5051 16.2488L58.6509 13.2069L62.3593 15.2391L60.5051 16.2488ZM57.5377 17.876V13.8081L59.3974 16.8572L57.5377 17.876ZM56.7441 13.5629V20.1024L64.8055 15.6949L58.8198 12.4297" fill="#8D7249"/>
<path d="M63.7993 9.63875H60.0873L63.7993 7.60841V9.63875ZM63.7993 12.8785L60.0783 10.8465H63.7993V12.8785ZM59.459 9.11027V11.3785L65.4428 14.6474V5.83594" fill="#8D7249"/>
<path d="M60.5051 4.23469L62.3647 5.25536L58.6455 7.28571L60.5051 4.23469ZM57.5395 2.61484L59.3974 3.63543L57.5395 6.68268V2.61484ZM64.8073 4.79042L56.7441 0.382935V6.92611L58.8199 8.05926" fill="#8D7249"/>
<path d="M51.7051 16.2506L49.8509 15.2391L53.5665 13.2087L51.7051 16.2506ZM54.6688 17.8723L52.8147 16.8572L54.6688 13.8153V17.8723ZM47.4102 15.6986L55.4679 20.1042V13.5629L53.394 12.4297" fill="#8D7249"/>
<path d="M11.1672 38.0541C11.1672 41.2032 11.1673 43.9053 10.9856 45.3491C10.8749 46.3388 10.657 47.0925 9.92145 47.2305C9.59456 47.2995 9.15691 47.367 8.60665 47.367C8.16718 47.367 8.02189 47.4705 8.02189 47.6429C8.02189 47.8771 8.27793 47.9878 8.75193 47.9878C10.2156 47.9878 12.522 47.8843 13.3628 47.8843C14.3871 47.8843 16.6935 47.9878 19.1088 47.9878C19.5101 47.9878 19.8007 47.8771 19.8007 47.6429C19.8007 47.4705 19.6191 47.367 19.2177 47.367C18.6675 47.367 17.863 47.3 17.3509 47.2305C16.2522 47.0926 16.036 46.3389 15.9253 45.3782C15.74 43.9054 15.74 41.2032 15.74 38.0541V24.0162L20.3528 24.1181C23.6089 24.1892 24.5969 25.146 24.6677 26.0358L24.7042 26.4116C24.7423 26.9254 24.8168 27.0945 25.1074 27.0945C25.329 27.0945 25.4016 26.8927 25.438 26.5515C25.438 25.6598 25.5487 23.2954 25.5487 22.5798C25.5487 22.0661 25.5122 21.8571 25.2545 21.8571C24.964 21.8571 24.085 22.202 21.7441 22.202H7.25218C6.04634 22.202 4.65526 22.1309 3.59288 22.0311C2.68304 21.96 2.31254 21.6172 2.02016 21.6172C1.80225 21.6172 1.68964 21.8205 1.58071 22.2691C1.50808 22.5435 0.8125 25.6596 0.8125 26.2063C0.8125 26.5821 0.88694 26.7529 1.14119 26.7529C1.36095 26.7529 1.4717 26.6165 1.54438 26.3426C1.61702 26.0703 1.80223 25.6598 2.16909 25.1459C2.71753 24.3904 3.59288 24.2196 5.71764 24.1525L11.1676 24.0161" fill="#8D7249"/>
<path d="M31.6199 37.3418C31.4746 37.3418 31.4419 37.2398 31.4746 37.1003L34.7598 28.6794C34.7943 28.5429 34.8706 28.3705 34.9742 28.3705C35.0813 28.3705 35.1194 28.5429 35.154 28.6794L38.3647 37.133C38.4008 37.2401 38.3647 37.342 38.1887 37.342L31.6199 37.3418ZM38.8659 39.0543C39.044 39.0543 39.151 39.1197 39.22 39.2906L42.0767 46.5529C42.2563 46.9616 42.0061 47.2721 41.757 47.3411C41.3992 47.372 41.2556 47.443 41.2556 47.6479C41.2556 47.8878 41.6859 47.8877 42.3271 47.9294C45.1837 47.9948 47.7897 47.9948 49.0754 47.9948C50.3975 47.9948 50.7189 47.9295 50.7189 47.6479C50.7189 47.4065 50.5408 47.3719 50.2541 47.3719C49.8237 47.3719 49.2898 47.341 48.7559 47.2355C48.004 47.0646 46.9707 46.5854 45.6123 43.5017C43.3296 38.3006 37.6163 24.3299 36.7573 22.4448C36.4032 21.6585 36.1889 21.3516 35.8657 21.3516C35.5079 21.3516 35.2972 21.7274 34.8705 22.7209L25.9083 44.2209C25.1892 45.9371 24.5136 47.0957 22.8647 47.3027C22.5795 47.3388 22.0801 47.3717 21.7587 47.3717C21.4735 47.3717 21.3301 47.4428 21.3301 47.6476C21.3301 47.9292 21.5462 47.9946 22.0074 47.9946C23.8725 47.9946 25.8357 47.8948 26.2298 47.8948C27.3357 47.8948 28.8703 47.9946 30.0125 47.9946C30.4066 47.9946 30.6191 47.9292 30.6191 47.6476C30.6191 47.4422 30.5083 47.3717 30.0815 47.3717H29.5476C28.4417 47.3717 28.1202 46.9249 28.1202 46.3112C28.1202 45.9009 28.2982 45.0799 28.656 44.2209L30.581 39.3267C30.6536 39.1198 30.7262 39.0544 30.9042 39.0544" fill="#8D7249"/>
<path d="M54.3513 42.0129C54.3513 48.7323 54.3874 52.1518 51.729 54.7905C51.0262 55.477 50.5031 55.8493 50.0455 56.089C49.4535 56.3994 49.2773 56.5374 49.2773 56.7083C49.2773 56.8807 49.4189 56.9806 49.5589 56.9806C49.7335 56.9806 50.0094 56.9137 50.2599 56.7772C50.9918 56.4359 51.5529 56.1581 52.0088 55.8856C55.3666 53.868 57.219 51.5035 57.9509 49.415C58.6573 47.4937 58.7953 45.298 58.7953 43.3476C58.7953 41.637 58.6882 39.9953 58.6882 38.517V32.1863C58.6882 26.9834 58.6882 26.0245 58.7572 24.9294C58.8298 23.7272 59.1057 23.1461 60.0538 22.9791C60.4754 22.908 60.684 22.8735 61.0708 22.8735C61.4904 22.8735 61.6992 22.8045 61.6992 22.5667C61.6992 22.3288 61.4541 22.2578 60.9618 22.2578C59.598 22.2578 57.3934 22.3598 56.5544 22.3598C55.6463 22.3598 53.4417 22.2578 51.5875 22.2578C51.0645 22.2578 50.8157 22.3288 50.8157 22.5667C50.8157 22.8045 51.0262 22.8735 51.4132 22.8735C51.9038 22.8735 52.4937 22.9096 52.7752 22.9791C53.932 23.2153 54.2098 23.7636 54.2807 24.9294C54.3517 26.0245 54.3517 26.9834 54.3517 32.1863" fill="#8D7249"/>
</svg>
