<svg width="138" height="41" viewBox="0 0 138 41" fill="none" xmlns="http://www.w3.org/2000/svg">
<path d="M11.9672 11.2474H0.759766V0.96875H35.4346V11.1855H24.2272V40.9068H11.9672V11.2474Z" fill="#EE2922"/>
<path d="M37.3555 0.96875H71.0396V11.1855H49.6774V16.139H71.0396V25.6746H49.6774V30.6281H71.0396V40.8449H37.3555V0.96875Z" fill="#EE2922"/>
<path d="M85.404 30.6901H90.2337C97.9117 30.6901 99.0263 24.4981 99.0263 20.721C99.0263 18.1823 98.2213 11.2474 89.3668 11.2474H85.4659V30.6901H85.404ZM73.082 0.96875H93.2678C106.58 0.96875 111.286 10.8139 111.286 20.9068C111.286 33.1668 104.785 40.9068 90.8529 40.9068H73.082V0.96875Z" fill="#EE2922"/>
<path d="M128.994 25.5502L125.217 19.2963L121.564 25.5502H112.523L121.068 12.9186L112.833 0.90625H121.873L125.217 6.85051L128.622 0.90625H137.663L129.427 12.9186L137.972 25.4883H128.994V25.5502Z" fill="#EE2922"/>
</svg>
