<svg width="183" height="55" viewBox="0 0 183 55" fill="none" xmlns="http://www.w3.org/2000/svg">
<path d="M5.61209 0.140625C4.64806 0.140625 3.89867 0.890008 3.89867 1.85404C3.89867 2.81807 4.64806 3.56745 5.61209 3.56745C6.57612 3.56745 7.3276 2.81807 7.3276 1.85404C7.3276 0.890008 6.57612 0.140625 5.61209 0.140625ZM14.5034 0.140625C13.5394 0.140625 12.79 0.890008 12.79 1.85404C12.79 2.81807 13.5394 3.56745 14.5034 3.56745C15.4675 3.56745 16.2168 2.81807 16.2168 1.85404C16.2168 0.890008 15.4675 0.140625 14.5034 0.140625ZM68.3829 0.140625C67.4188 0.140625 66.6673 0.890008 66.6673 1.85404C66.6673 2.81807 67.4188 3.56745 68.3829 3.56745C69.3469 3.56745 70.0963 2.81807 70.0963 1.85404C70.0963 0.890008 69.3469 0.140625 68.3829 0.140625ZM77.3788 0.140625C76.4148 0.140625 75.6654 0.890008 75.6654 1.85404C75.6654 2.81807 76.4148 3.56745 77.3788 3.56745C78.3428 3.56745 79.0943 2.81807 79.0943 1.85404C79.0943 0.890008 78.3428 0.140625 77.3788 0.140625ZM93.3393 0.140625C92.3752 0.140625 91.6259 0.890008 91.6259 1.85404C91.6259 2.81807 92.3752 3.56745 93.3393 3.56745C94.3033 3.56745 95.0527 2.81807 95.0527 1.85404C95.0527 0.890008 94.3033 0.140625 93.3393 0.140625ZM102.231 0.140625C101.267 0.140625 100.517 0.890008 100.517 1.85404C100.517 2.81807 101.267 3.56745 102.231 3.56745C103.195 3.56745 103.944 2.81807 103.944 1.85404C103.944 0.890008 103.195 0.140625 102.231 0.140625ZM111.229 0.140625C110.265 0.140625 109.513 0.890008 109.513 1.85404C109.513 2.81807 110.265 3.56745 111.229 3.56745C112.193 3.56745 112.942 2.81807 112.942 1.85404C112.942 0.890008 112.193 0.140625 111.229 0.140625ZM149.145 0.140625C148.181 0.140625 147.432 0.890008 147.432 1.85404C147.432 2.81807 148.181 3.56745 149.145 3.56745C150.11 3.56745 150.861 2.81807 150.861 1.85404C150.861 0.890008 150.11 0.140625 149.145 0.140625ZM158.037 0.140625C157.073 0.140625 156.323 0.890008 156.323 1.85404C156.323 2.81807 157.073 3.56745 158.037 3.56745C159.001 3.56745 159.75 2.81807 159.75 1.85404C159.75 0.890008 159.001 0.140625 158.037 0.140625ZM41.3887 0.782894C40.7461 0.782894 40.3176 1.31847 40.3176 1.85404C40.3176 2.49673 40.8532 2.92518 41.3887 2.92518C42.0314 2.92518 42.4599 2.38961 42.4599 1.85404C42.567 1.21135 42.0314 0.782894 41.3887 0.782894ZM120.225 0.782894C119.582 0.782894 119.153 1.31847 119.153 1.85404C119.153 2.49673 119.689 2.92518 120.225 2.92518C120.867 2.92518 121.296 2.38961 121.296 1.85404C121.296 1.21135 120.76 0.782894 120.225 0.782894ZM167.035 0.782894C166.392 0.782894 165.964 1.31847 165.964 1.85404C165.964 2.49673 166.499 2.92518 167.035 2.92518C167.678 2.92518 168.106 2.38961 168.106 1.85404C168.106 1.21135 167.678 0.782894 167.035 0.782894ZM10.1122 2.71179C9.14813 2.71179 8.39874 3.46117 8.39874 4.4252C8.39874 5.38923 9.14813 6.13862 10.1122 6.13862C11.0762 6.13862 11.8256 5.38923 11.8256 4.4252C11.8256 3.46117 11.0762 2.71179 10.1122 2.71179ZM72.8808 2.71179C71.9168 2.71179 71.1674 3.46117 71.1674 4.4252C71.1674 5.38923 71.9168 6.13862 72.8808 6.13862C73.8448 6.13862 74.5942 5.38923 74.5942 4.4252C74.5942 3.46117 73.8448 2.71179 72.8808 2.71179ZM97.7305 2.71179C96.7665 2.71179 96.0171 3.46117 96.0171 4.4252C96.0171 5.38923 96.7665 6.13862 97.7305 6.13862C98.6946 6.13862 99.4461 5.38923 99.4461 4.4252C99.5532 3.46117 98.6946 2.71179 97.7305 2.71179ZM106.729 2.71179C105.765 2.71179 105.015 3.46117 105.015 4.4252C105.015 5.38923 105.765 6.13862 106.729 6.13862C107.693 6.13862 108.442 5.38923 108.442 4.4252C108.549 3.46117 107.693 2.71179 106.729 2.71179ZM115.727 2.71179C114.763 2.71179 114.013 3.46117 114.013 4.4252C114.013 5.38923 114.763 6.13862 115.727 6.13862C116.691 6.13862 117.44 5.38923 117.44 4.4252C117.44 3.46117 116.691 2.71179 115.727 2.71179ZM144.648 2.71179C143.683 2.71179 142.934 3.46117 142.934 4.4252C142.934 5.38923 143.683 6.13862 144.648 6.13862C145.612 6.13862 146.361 5.38923 146.361 4.4252C146.361 3.46117 145.612 2.71179 144.648 2.71179ZM153.539 2.71179C152.575 2.71179 151.823 3.46117 151.823 4.4252C151.823 5.38923 152.575 6.13862 153.539 6.13862C154.503 6.13862 155.252 5.38923 155.252 4.4252C155.359 3.46117 154.503 2.71179 153.539 2.71179ZM162.535 2.71179C161.571 2.71179 160.821 3.46117 160.821 4.4252C160.821 5.38923 161.571 6.13862 162.535 6.13862C163.499 6.13862 164.25 5.38923 164.25 4.4252C164.25 3.46117 163.499 2.71179 162.535 2.71179ZM171.533 2.71179C170.569 2.71179 169.819 3.46117 169.819 4.4252C169.819 5.38923 170.569 6.13862 171.533 6.13862C172.497 6.13862 173.246 5.38923 173.246 4.4252C173.246 3.46117 172.497 2.71179 171.533 2.71179ZM1.11411 3.35406C0.471427 3.35406 0.0429688 3.88963 0.0429688 4.4252C0.0429688 5.06789 0.578541 5.49635 1.11411 5.49635C1.7568 5.49635 2.18526 4.96077 2.18526 4.4252C2.29237 3.88963 1.7568 3.35406 1.11411 3.35406ZM36.9975 3.35406C36.3548 3.35406 35.9263 3.88963 35.9263 4.4252C35.9263 5.06789 36.4619 5.49635 36.9975 5.49635C37.6402 5.49635 38.0686 4.96077 38.0686 4.4252C38.0686 3.88963 37.533 3.35406 36.9975 3.35406ZM45.8888 3.35406C45.2461 3.35406 44.8177 3.88963 44.8177 4.4252C44.8177 5.06789 45.3532 5.49635 45.8888 5.49635C46.5315 5.49635 46.96 4.96077 46.96 4.4252C46.96 3.88963 46.5315 3.35406 45.8888 3.35406ZM81.7722 3.35406C81.1295 3.35406 80.701 3.88963 80.701 4.4252C80.701 5.06789 81.2366 5.49635 81.7722 5.49635C82.4148 5.49635 82.8433 4.96077 82.8433 4.4252C82.8433 3.88963 82.4148 3.35406 81.7722 3.35406ZM124.725 3.35406C124.082 3.35406 123.653 3.88963 123.653 4.4252C123.653 5.06789 124.189 5.49635 124.725 5.49635C125.367 5.49635 125.796 4.96077 125.796 4.4252C125.796 3.88963 125.26 3.35406 124.725 3.35406ZM5.61209 5.28295C4.64806 5.28295 3.89867 6.03234 3.89867 6.99637C3.89867 7.9604 4.64806 8.70978 5.61209 8.70978C6.57612 8.70978 7.3276 7.9604 7.3276 6.99637C7.43471 6.03234 6.57612 5.28295 5.61209 5.28295ZM14.5034 5.28295C13.5394 5.28295 12.79 6.03234 12.79 6.99637C12.79 7.9604 13.5394 8.70978 14.5034 8.70978C15.4675 8.70978 16.2168 7.9604 16.2168 6.99637C16.2168 6.03234 15.4675 5.28295 14.5034 5.28295ZM41.3887 5.28295C40.4247 5.28295 39.6753 6.03234 39.6753 6.99637C39.6753 7.9604 40.4247 8.70978 41.3887 8.70978C42.3528 8.70978 43.1022 7.9604 43.1022 6.99637C43.2093 6.03234 42.3528 5.28295 41.3887 5.28295ZM68.3829 5.28295C67.4188 5.28295 66.6673 6.03234 66.6673 6.99637C66.6673 7.9604 67.4188 8.70978 68.3829 8.70978C69.3469 8.70978 70.0963 7.9604 70.0963 6.99637C70.0963 6.03234 69.3469 5.28295 68.3829 5.28295ZM77.3788 5.28295C76.4148 5.28295 75.6654 6.03234 75.6654 6.99637C75.6654 7.9604 76.4148 8.70978 77.3788 8.70978C78.3428 8.70978 79.0943 7.9604 79.0943 6.99637C79.0943 6.03234 78.3428 5.28295 77.3788 5.28295ZM93.3393 5.28295C92.3752 5.28295 91.6259 6.03234 91.6259 6.99637C91.6259 7.9604 92.3752 8.70978 93.3393 8.70978C94.3033 8.70978 95.0527 7.9604 95.0527 6.99637C95.0527 6.03234 94.3033 5.28295 93.3393 5.28295ZM102.231 5.28295C101.267 5.28295 100.517 6.03234 100.517 6.99637C100.517 7.9604 101.267 8.70978 102.231 8.70978C103.195 8.70978 103.944 7.9604 103.944 6.99637C104.051 6.03234 103.195 5.28295 102.231 5.28295ZM111.229 5.28295C110.265 5.28295 109.513 6.03234 109.513 6.99637C109.513 7.9604 110.265 8.70978 111.229 8.70978C112.193 8.70978 112.942 7.9604 112.942 6.99637C112.942 6.03234 112.193 5.28295 111.229 5.28295ZM120.225 5.28295C119.261 5.28295 118.511 6.03234 118.511 6.99637C118.511 7.9604 119.261 8.70978 120.225 8.70978C121.189 8.70978 121.94 7.9604 121.94 6.99637C121.94 6.03234 121.189 5.28295 120.225 5.28295ZM149.145 5.28295C148.181 5.28295 147.432 6.03234 147.432 6.99637C147.432 7.9604 148.181 8.70978 149.145 8.70978C150.11 8.70978 150.861 7.9604 150.861 6.99637C150.861 6.03234 150.11 5.28295 149.145 5.28295ZM158.037 5.28295C157.073 5.28295 156.323 6.03234 156.323 6.99637C156.323 7.9604 157.073 8.70978 158.037 8.70978C159.001 8.70978 159.75 7.9604 159.75 6.99637C159.857 6.03234 159.001 5.28295 158.037 5.28295ZM167.035 5.28295C166.071 5.28295 165.321 6.03234 165.321 6.99637C165.321 7.9604 166.071 8.70978 167.035 8.70978C167.999 8.70978 168.748 7.9604 168.748 6.99637C168.748 6.03234 167.999 5.28295 167.035 5.28295ZM176.033 5.28295C175.069 5.28295 174.317 6.03234 174.317 6.99637C174.317 7.9604 175.069 8.70978 176.033 8.70978C176.997 8.70978 177.746 7.9604 177.746 6.99637C177.746 6.03234 176.997 5.28295 176.033 5.28295ZM36.9975 7.85203C36.0334 7.85203 35.2841 8.6035 35.2841 9.56753C35.2841 10.5316 36.0334 11.2809 36.9975 11.2809C37.9615 11.2809 38.7109 10.5316 38.7109 9.56753C38.7109 8.6035 37.9615 7.85203 36.9975 7.85203ZM45.8888 7.85203C44.9248 7.85203 44.1733 8.6035 44.1733 9.56753C44.1733 10.5316 44.9248 11.2809 45.8888 11.2809C46.8528 11.2809 47.6022 10.5316 47.6022 9.56753C47.6022 8.6035 46.8528 7.85203 45.8888 7.85203ZM72.8808 7.85203C71.9168 7.85203 71.1674 8.6035 71.1674 9.56753C71.1674 10.5316 71.9168 11.2809 72.8808 11.2809C73.8448 11.2809 74.5942 10.5316 74.5942 9.56753C74.5942 8.6035 73.8448 7.85203 72.8808 7.85203ZM97.7305 7.85203C96.7665 7.85203 96.0171 8.6035 96.0171 9.56753C96.0171 10.5316 96.7665 11.2809 97.7305 11.2809C98.6946 11.2809 99.4461 10.5316 99.4461 9.56753C99.4461 8.6035 98.6946 7.85203 97.7305 7.85203ZM106.729 7.85203C105.765 7.85203 105.015 8.6035 105.015 9.56753C105.015 10.5316 105.765 11.2809 106.729 11.2809C107.693 11.2809 108.442 10.5316 108.442 9.56753C108.442 8.6035 107.693 7.85203 106.729 7.85203ZM115.727 7.85203C114.763 7.85203 114.013 8.6035 114.013 9.56753C114.013 10.5316 114.763 11.2809 115.727 11.2809C116.691 11.2809 117.44 10.5316 117.44 9.56753C117.44 8.6035 116.691 7.85203 115.727 7.85203ZM124.725 7.85203C123.761 7.85203 123.011 8.6035 123.011 9.56753C123.011 10.5316 123.761 11.2809 124.725 11.2809C125.689 11.2809 126.438 10.5316 126.438 9.56753C126.438 8.6035 125.689 7.85203 124.725 7.85203ZM144.648 7.85203C143.683 7.85203 142.934 8.6035 142.934 9.56753C142.934 10.5316 143.683 11.2809 144.648 11.2809C145.612 11.2809 146.361 10.5316 146.361 9.56753C146.361 8.6035 145.612 7.85203 144.648 7.85203ZM153.539 7.85203C152.575 7.85203 151.823 8.6035 151.823 9.56753C151.823 10.5316 152.575 11.2809 153.539 11.2809C154.503 11.2809 155.252 10.5316 155.252 9.56753C155.252 8.6035 154.503 7.85203 153.539 7.85203ZM162.535 7.85203C161.571 7.85203 160.821 8.6035 160.821 9.56753C160.821 10.5316 161.571 11.2809 162.535 11.2809C163.499 11.2809 164.25 10.5316 164.25 9.56753C164.25 8.6035 163.499 7.85203 162.535 7.85203ZM171.533 7.85203C170.569 7.85203 169.819 8.6035 169.819 9.56753C169.819 10.5316 170.569 11.2809 171.533 11.2809C172.497 11.2809 173.246 10.5316 173.246 9.56753C173.246 8.6035 172.497 7.85203 171.533 7.85203ZM10.1122 7.96081C9.14813 7.96081 8.39874 8.7102 8.39874 9.67423C8.39874 10.5311 9.14813 11.3876 10.1122 11.3876C11.0762 11.3876 11.8256 10.6383 11.8256 9.67423C11.8256 8.7102 11.0762 7.96081 10.1122 7.96081ZM19.0014 8.49639C18.3587 8.49639 17.9303 9.03196 17.9303 9.56753C17.9303 10.2102 18.4658 10.6387 19.0014 10.6387C19.6441 10.6387 20.0725 10.1031 20.0725 9.56753C20.0725 9.03196 19.6441 8.49639 19.0014 8.49639ZM63.8828 8.49639C63.2401 8.49639 62.8116 9.03196 62.8116 9.56753C62.8116 10.2102 63.3472 10.6387 63.8828 10.6387C64.4184 10.6387 64.9539 10.1031 64.9539 9.56753C64.9539 9.03196 64.4184 8.49639 63.8828 8.49639ZM180.531 8.49639C179.888 8.49639 179.46 9.03196 179.46 9.56753C179.46 10.2102 179.995 10.6387 180.531 10.6387C181.174 10.6387 181.602 10.1031 181.602 9.56753C181.602 9.03196 181.066 8.49639 180.531 8.49639ZM5.61209 10.4232C4.64806 10.4232 3.89867 11.1726 3.89867 12.1366C3.89867 13.1006 4.64806 13.8521 5.61209 13.8521C6.57612 13.8521 7.3276 13.1006 7.3276 12.1366C7.3276 11.1726 6.57612 10.4232 5.61209 10.4232ZM14.5034 10.4232C13.5394 10.4232 12.79 11.1726 12.79 12.1366C12.79 13.1006 13.5394 13.8521 14.5034 13.8521C15.4675 13.8521 16.2168 13.1006 16.2168 12.1366C16.2168 11.1726 15.4675 10.4232 14.5034 10.4232ZM41.3887 10.4232C40.4247 10.4232 39.6753 11.1726 39.6753 12.1366C39.6753 13.1006 40.4247 13.8521 41.3887 13.8521C42.3528 13.8521 43.1022 13.1006 43.1022 12.1366C43.1022 11.1726 42.3528 10.4232 41.3887 10.4232ZM68.3829 10.4232C67.4188 10.4232 66.6673 11.1726 66.6673 12.1366C66.6673 13.1006 67.4188 13.8521 68.3829 13.8521C69.3469 13.8521 70.0963 13.1006 70.0963 12.1366C70.0963 11.1726 69.3469 10.4232 68.3829 10.4232ZM93.3393 10.4232C92.3752 10.4232 91.6259 11.1726 91.6259 12.1366C91.6259 13.1006 92.3752 13.8521 93.3393 13.8521C94.3033 13.8521 95.0527 13.1006 95.0527 12.1366C95.0527 11.1726 94.3033 10.4232 93.3393 10.4232ZM102.231 10.4232C101.267 10.4232 100.517 11.1726 100.517 12.1366C100.517 13.1006 101.267 13.8521 102.231 13.8521C103.195 13.8521 103.944 13.1006 103.944 12.1366C103.944 11.1726 103.195 10.4232 102.231 10.4232ZM111.229 10.4232C110.265 10.4232 109.513 11.1726 109.513 12.1366C109.513 13.1006 110.265 13.8521 111.229 13.8521C112.193 13.8521 112.942 13.1006 112.942 12.1366C112.942 11.1726 112.193 10.4232 111.229 10.4232ZM120.225 10.4232C119.261 10.4232 118.511 11.1726 118.511 12.1366C118.511 13.1006 119.261 13.8521 120.225 13.8521C121.189 13.8521 121.94 13.1006 121.94 12.1366C121.94 11.1726 121.189 10.4232 120.225 10.4232ZM129.223 10.4232C128.259 10.4232 127.509 11.1726 127.509 12.1366C127.509 13.1006 128.259 13.8521 129.223 13.8521C130.187 13.8521 130.936 13.1006 130.936 12.1366C130.936 11.1726 130.187 10.4232 129.223 10.4232ZM149.145 10.4232C148.181 10.4232 147.432 11.1726 147.432 12.1366C147.432 13.1006 148.181 13.8521 149.145 13.8521C150.11 13.8521 150.861 13.1006 150.861 12.1366C150.861 11.1726 150.11 10.4232 149.145 10.4232ZM158.037 10.4232C157.073 10.4232 156.323 11.1726 156.323 12.1366C156.323 13.1006 157.073 13.8521 158.037 13.8521C159.001 13.8521 159.75 13.1006 159.75 12.1366C159.75 11.1726 159.001 10.4232 158.037 10.4232ZM167.035 10.4232C166.071 10.4232 165.321 11.1726 165.321 12.1366C165.321 13.1006 166.071 13.8521 167.035 13.8521C167.999 13.8521 168.748 13.1006 168.748 12.1366C168.748 11.1726 167.999 10.4232 167.035 10.4232ZM176.033 10.4232C175.069 10.4232 174.317 11.1726 174.317 12.1366C174.317 13.1006 175.069 13.8521 176.033 13.8521C176.997 13.8521 177.746 13.1006 177.746 12.1366C177.746 11.1726 176.997 10.4232 176.033 10.4232ZM77.3788 10.5299C76.4148 10.5299 75.6654 11.2814 75.6654 12.2454C75.6654 13.2094 76.4148 13.9588 77.3788 13.9588C78.3428 13.9588 79.0943 13.2094 79.0943 12.2454C79.0943 11.2814 78.3428 10.5299 77.3788 10.5299ZM10.1122 13.101C9.14813 13.101 8.39874 13.8504 8.39874 14.8145C8.39874 15.7785 9.14813 16.53 10.1122 16.53C11.0762 16.53 11.8256 15.7785 11.8256 14.8145C11.8256 13.8504 11.0762 13.101 10.1122 13.101ZM19.0014 13.101C18.0374 13.101 17.288 13.8504 17.288 14.8145C17.288 15.7785 18.0374 16.53 19.0014 16.53C19.9654 16.53 20.7169 15.7785 20.7169 14.8145C20.7169 13.8504 19.9654 13.101 19.0014 13.101ZM36.9975 13.101C36.0334 13.101 35.2841 13.8504 35.2841 14.8145C35.2841 15.7785 36.0334 16.53 36.9975 16.53C37.9615 16.53 38.7109 15.7785 38.7109 14.8145C38.7109 13.8504 37.9615 13.101 36.9975 13.101ZM45.8888 13.101C44.9248 13.101 44.1733 13.8504 44.1733 14.8145C44.1733 15.7785 44.9248 16.53 45.8888 16.53C46.8528 16.53 47.6022 15.7785 47.6022 14.8145C47.7093 13.8504 46.8528 13.101 45.8888 13.101ZM63.8828 13.101C62.9188 13.101 62.1694 13.8504 62.1694 14.8145C62.1694 15.7785 62.9188 16.53 63.8828 16.53C64.8468 16.53 65.5962 15.7785 65.5962 14.8145C65.5962 13.8504 64.8468 13.101 63.8828 13.101ZM72.8808 13.101C71.9168 13.101 71.1674 13.8504 71.1674 14.8145C71.1674 15.7785 71.9168 16.53 72.8808 16.53C73.8448 16.53 74.5942 15.7785 74.5942 14.8145C74.5942 13.8504 73.8448 13.101 72.8808 13.101ZM97.7305 13.101C96.7665 13.101 96.0171 13.8504 96.0171 14.8145C96.0171 15.7785 96.7665 16.53 97.7305 16.53C98.6946 16.53 99.4461 15.7785 99.4461 14.8145C99.5532 13.8504 98.6946 13.101 97.7305 13.101ZM124.725 13.101C123.761 13.101 123.011 13.8504 123.011 14.8145C123.011 15.7785 123.761 16.53 124.725 16.53C125.689 16.53 126.438 15.7785 126.438 14.8145C126.438 13.8504 125.689 13.101 124.725 13.101ZM144.648 13.101C143.683 13.101 142.934 13.8504 142.934 14.8145C142.934 15.7785 143.683 16.53 144.648 16.53C145.612 16.53 146.361 15.7785 146.361 14.8145C146.361 13.8504 145.612 13.101 144.648 13.101ZM153.539 13.101C152.575 13.101 151.823 13.8504 151.823 14.8145C151.823 15.7785 152.575 16.53 153.539 16.53C154.503 16.53 155.252 15.7785 155.252 14.8145C155.359 13.8504 154.503 13.101 153.539 13.101ZM171.533 13.101C170.569 13.101 169.819 13.8504 169.819 14.8145C169.819 15.7785 170.569 16.53 171.533 16.53C172.497 16.53 173.246 15.7785 173.246 14.8145C173.246 13.8504 172.497 13.101 171.533 13.101ZM180.531 13.101C179.567 13.101 178.817 13.8504 178.817 14.8145C178.71 15.7785 179.567 16.53 180.531 16.53C181.495 16.53 182.244 15.7785 182.244 14.8145C182.244 13.8504 181.495 13.101 180.531 13.101ZM106.729 13.7433C106.086 13.7433 105.657 14.2789 105.657 14.8145C105.657 15.4571 106.193 15.8856 106.729 15.8856C107.371 15.8856 107.8 15.35 107.8 14.8145C107.8 14.1718 107.371 13.7433 106.729 13.7433ZM115.727 13.7433C115.084 13.7433 114.655 14.2789 114.655 14.8145C114.655 15.4571 115.191 15.8856 115.727 15.8856C116.369 15.8856 116.798 15.35 116.798 14.8145C116.798 14.1718 116.369 13.7433 115.727 13.7433ZM162.535 13.7433C161.892 13.7433 161.464 14.2789 161.464 14.8145C161.464 15.4571 161.999 15.8856 162.535 15.8856C163.177 15.8856 163.606 15.35 163.606 14.8145C163.606 14.1718 163.177 13.7433 162.535 13.7433ZM14.5034 15.6722C13.5394 15.6722 12.79 16.4216 12.79 17.3856C12.79 18.3497 13.5394 19.099 14.5034 19.099C15.4675 19.099 16.2168 18.3497 16.2168 17.3856C16.2168 16.4216 15.4675 15.6722 14.5034 15.6722ZM41.3887 15.6722C40.4247 15.6722 39.6753 16.4216 39.6753 17.3856C39.6753 18.3497 40.4247 19.099 41.3887 19.099C42.3528 19.099 43.1022 18.3497 43.1022 17.3856C43.2093 16.4216 42.3528 15.6722 41.3887 15.6722ZM68.3829 15.6722C67.4188 15.6722 66.6673 16.4216 66.6673 17.3856C66.6673 18.3497 67.4188 19.099 68.3829 19.099C69.3469 19.099 70.0963 18.3497 70.0963 17.3856C70.0963 16.4216 69.3469 15.6722 68.3829 15.6722ZM93.3393 15.6722C92.3752 15.6722 91.6259 16.4216 91.6259 17.3856C91.6259 18.3497 92.3752 19.099 93.3393 19.099C94.3033 19.099 95.0527 18.3497 95.0527 17.3856C95.0527 16.4216 94.3033 15.6722 93.3393 15.6722ZM102.231 15.6722C101.267 15.6722 100.517 16.4216 100.517 17.3856C100.517 18.3497 101.267 19.099 102.231 19.099C103.195 19.099 103.944 18.3497 103.944 17.3856C104.051 16.4216 103.195 15.6722 102.231 15.6722ZM120.225 15.6722C119.261 15.6722 118.511 16.4216 118.511 17.3856C118.511 18.3497 119.261 19.099 120.225 19.099C121.189 19.099 121.94 18.3497 121.94 17.3856C121.94 16.4216 121.189 15.6722 120.225 15.6722ZM129.223 15.6722C128.259 15.6722 127.509 16.4216 127.509 17.3856C127.509 18.3497 128.259 19.099 129.223 19.099C130.187 19.099 130.936 18.3497 130.936 17.3856C130.936 16.4216 130.187 15.6722 129.223 15.6722ZM149.145 15.6722C148.181 15.6722 147.432 16.4216 147.432 17.3856C147.432 18.3497 148.181 19.099 149.145 19.099C150.11 19.099 150.861 18.3497 150.861 17.3856C150.861 16.4216 150.11 15.6722 149.145 15.6722ZM176.033 15.6722C175.069 15.6722 174.317 16.4216 174.317 17.3856C174.317 18.3497 175.069 19.099 176.033 19.099C176.997 19.099 177.746 18.3497 177.746 17.3856C177.746 16.4216 176.997 15.6722 176.033 15.6722ZM23.5015 16.3145C22.8588 16.3145 22.4303 16.8501 22.4303 17.3856C22.4303 18.0283 22.9659 18.4568 23.5015 18.4568C24.1442 18.4568 24.5726 17.9212 24.5726 17.3856C24.5726 16.7429 24.037 16.3145 23.5015 16.3145ZM32.4995 16.3145C31.8568 16.3145 31.4284 16.8501 31.4284 17.3856C31.4284 18.0283 31.9639 18.4568 32.4995 18.4568C33.1422 18.4568 33.5706 17.9212 33.5706 17.3856C33.5706 16.7429 33.0351 16.3145 32.4995 16.3145ZM50.3868 16.3145C49.7441 16.3145 49.3156 16.8501 49.3156 17.3856C49.3156 18.0283 49.8512 18.4568 50.3868 18.4568C51.0295 18.4568 51.4579 17.9212 51.4579 17.3856C51.4579 16.7429 51.0295 16.3145 50.3868 16.3145ZM59.3848 16.3145C58.7421 16.3145 58.3137 16.8501 58.3137 17.3856C58.3137 18.0283 58.8492 18.4568 59.3848 18.4568C60.0275 18.4568 60.456 17.9212 60.456 17.3856C60.456 16.7429 60.0275 16.3145 59.3848 16.3145ZM19.0014 18.2434C18.0374 18.2434 17.288 18.9928 17.288 19.9568C17.288 20.9208 18.0374 21.6702 19.0014 21.6702C19.9654 21.6702 20.7169 20.9208 20.7169 19.9568C20.7169 18.9928 19.9654 18.2434 19.0014 18.2434ZM36.9975 18.2434C36.0334 18.2434 35.2841 18.9928 35.2841 19.9568C35.2841 20.9208 36.0334 21.6702 36.9975 21.6702C37.9615 21.6702 38.7109 20.9208 38.7109 19.9568C38.7109 18.9928 37.9615 18.2434 36.9975 18.2434ZM45.8888 18.2434C44.9248 18.2434 44.1733 18.9928 44.1733 19.9568C44.1733 20.9208 44.9248 21.6702 45.8888 21.6702C46.8528 21.6702 47.6022 20.9208 47.6022 19.9568C47.7093 18.9928 46.8528 18.2434 45.8888 18.2434ZM63.8828 18.2434C62.9188 18.2434 62.1694 18.9928 62.1694 19.9568C62.1694 20.9208 62.9188 21.6702 63.8828 21.6702C64.8468 21.6702 65.5962 20.9208 65.5962 19.9568C65.5962 18.9928 64.8468 18.2434 63.8828 18.2434ZM97.7305 18.2434C96.7665 18.2434 96.0171 18.9928 96.0171 19.9568C96.0171 20.9208 96.7665 21.6702 97.7305 21.6702C98.6946 21.6702 99.4461 20.9208 99.4461 19.9568C99.5532 18.9928 98.6946 18.2434 97.7305 18.2434ZM124.725 18.2434C123.761 18.2434 123.011 18.9928 123.011 19.9568C123.011 20.9208 123.761 21.6702 124.725 21.6702C125.689 21.6702 126.438 20.9208 126.438 19.9568C126.438 18.9928 125.689 18.2434 124.725 18.2434ZM144.648 18.2434C143.683 18.2434 142.934 18.9928 142.934 19.9568C142.934 20.9208 143.683 21.6702 144.648 21.6702C145.612 21.6702 146.361 20.9208 146.361 19.9568C146.361 18.9928 145.612 18.2434 144.648 18.2434ZM153.539 18.2434C152.575 18.2434 151.823 18.9928 151.823 19.9568C151.823 20.9208 152.575 21.6702 153.539 21.6702C154.503 21.6702 155.252 20.9208 155.252 19.9568C155.359 18.9928 154.503 18.2434 153.539 18.2434ZM171.533 18.2434C170.569 18.2434 169.819 18.9928 169.819 19.9568C169.819 20.9208 170.569 21.6702 171.533 21.6702C172.497 21.6702 173.246 20.9208 173.246 19.9568C173.246 18.9928 172.497 18.2434 171.533 18.2434ZM180.531 18.2434C179.567 18.2434 178.817 18.9928 178.817 19.9568C178.817 20.9208 179.567 21.6702 180.531 21.6702C181.495 21.6702 182.244 20.9208 182.244 19.9568C182.244 18.9928 181.495 18.2434 180.531 18.2434ZM10.1122 18.3501C9.14813 18.3501 8.39874 19.0995 8.39874 20.0635C8.39874 20.9204 9.14813 21.7769 10.1122 21.7769C11.0762 21.7769 11.8256 21.0275 11.8256 20.0635C11.8256 19.0995 11.0762 18.3501 10.1122 18.3501ZM72.8808 18.3501C71.9168 18.3501 71.1674 19.0995 71.1674 20.0635C71.0603 20.9204 71.9168 21.7769 72.8808 21.7769C73.8448 21.7769 74.5942 21.0275 74.5942 20.0635C74.5942 19.0995 73.8448 18.3501 72.8808 18.3501ZM14.5034 20.8145C13.5394 20.8145 12.79 21.5639 12.79 22.528C12.79 23.492 13.5394 24.2414 14.5034 24.2414C15.4675 24.2414 16.2168 23.492 16.2168 22.528C16.2168 21.5639 15.4675 20.8145 14.5034 20.8145ZM32.4995 20.8145C31.5355 20.8145 30.784 21.5639 30.784 22.528C30.784 23.492 31.5355 24.2414 32.4995 24.2414C33.4635 24.2414 34.2129 23.492 34.2129 22.528C34.2129 21.5639 33.4635 20.8145 32.4995 20.8145ZM41.3887 20.8145C40.4247 20.8145 39.6753 21.5639 39.6753 22.528C39.6753 23.492 40.4247 24.2414 41.3887 24.2414C42.3528 24.2414 43.1022 23.492 43.1022 22.528C43.2093 21.5639 42.3528 20.8145 41.3887 20.8145ZM50.3868 20.8145C49.4227 20.8145 48.6734 21.5639 48.6734 22.528C48.6734 23.492 49.4227 24.2414 50.3868 24.2414C51.3508 24.2414 52.1002 23.492 52.1002 22.528C52.2073 21.5639 51.3508 20.8145 50.3868 20.8145ZM68.3829 20.8145C67.4188 20.8145 66.6673 21.5639 66.6673 22.528C66.6673 23.492 67.4188 24.2414 68.3829 24.2414C69.3469 24.2414 70.0963 23.492 70.0963 22.528C70.0963 21.5639 69.3469 20.8145 68.3829 20.8145ZM93.3393 20.8145C92.3752 20.8145 91.6259 21.5639 91.6259 22.528C91.6259 23.492 92.3752 24.2414 93.3393 24.2414C94.3033 24.2414 95.0527 23.492 95.0527 22.528C95.0527 21.5639 94.3033 20.8145 93.3393 20.8145ZM102.231 20.8145C101.267 20.8145 100.517 21.5639 100.517 22.528C100.517 23.492 101.267 24.2414 102.231 24.2414C103.195 24.2414 103.944 23.492 103.944 22.528C104.051 21.5639 103.195 20.8145 102.231 20.8145ZM120.225 20.8145C119.261 20.8145 118.511 21.5639 118.511 22.528C118.511 23.492 119.261 24.2414 120.225 24.2414C121.189 24.2414 121.94 23.492 121.94 22.528C121.94 21.5639 121.189 20.8145 120.225 20.8145ZM129.223 20.8145C128.259 20.8145 127.509 21.5639 127.509 22.528C127.509 23.492 128.259 24.2414 129.223 24.2414C130.187 24.2414 130.936 23.492 130.936 22.528C130.936 21.5639 130.187 20.8145 129.223 20.8145ZM149.145 20.8145C148.181 20.8145 147.432 21.5639 147.432 22.528C147.432 23.492 148.181 24.2414 149.145 24.2414C150.11 24.2414 150.861 23.492 150.861 22.528C150.861 21.5639 150.11 20.8145 149.145 20.8145ZM176.033 20.8145C175.069 20.8145 174.317 21.5639 174.317 22.528C174.317 23.492 175.069 24.2414 176.033 24.2414C176.997 24.2414 177.746 23.492 177.746 22.528C177.746 21.5639 176.997 20.8145 176.033 20.8145ZM23.5015 21.4568C22.8588 21.4568 22.4303 21.9924 22.4303 22.528C22.4303 23.1706 22.9659 23.5991 23.5015 23.5991C24.1442 23.5991 24.5726 23.0635 24.5726 22.528C24.5726 21.9924 24.037 21.4568 23.5015 21.4568ZM59.3848 21.4568C58.7421 21.4568 58.3137 21.9924 58.3137 22.528C58.3137 23.1706 58.8492 23.5991 59.3848 23.5991C60.0275 23.5991 60.456 23.0635 60.456 22.528C60.456 21.9924 60.0275 21.4568 59.3848 21.4568ZM19.0014 23.3836C18.0374 23.3836 17.288 24.1351 17.288 25.0991C17.288 26.0631 18.0374 26.8125 19.0014 26.8125C19.9654 26.8125 20.7169 26.0631 20.7169 25.0991C20.7169 24.2422 19.9654 23.3836 19.0014 23.3836ZM36.9975 23.3836C36.0334 23.3836 35.2841 24.1351 35.2841 25.0991C35.2841 26.0631 36.0334 26.8125 36.9975 26.8125C37.9615 26.8125 38.7109 26.0631 38.7109 25.0991C38.7109 24.2422 37.9615 23.3836 36.9975 23.3836ZM45.8888 23.3836C44.9248 23.3836 44.1733 24.1351 44.1733 25.0991C44.1733 26.0631 44.9248 26.8125 45.8888 26.8125C46.8528 26.8125 47.6022 26.0631 47.6022 25.0991C47.7093 24.2422 46.8528 23.3836 45.8888 23.3836ZM63.8828 23.3836C62.9188 23.3836 62.1694 24.1351 62.1694 25.0991C62.1694 26.0631 62.9188 26.8125 63.8828 26.8125C64.8468 26.8125 65.5962 26.0631 65.5962 25.0991C65.5962 24.2422 64.8468 23.3836 63.8828 23.3836ZM97.7305 23.3836C96.7665 23.3836 96.0171 24.1351 96.0171 25.0991C96.0171 26.0631 96.7665 26.8125 97.7305 26.8125C98.6946 26.8125 99.4461 26.0631 99.4461 25.0991C99.5532 24.2422 98.6946 23.3836 97.7305 23.3836ZM124.725 23.3836C123.761 23.3836 123.011 24.1351 123.011 25.0991C123.011 26.0631 123.761 26.8125 124.725 26.8125C125.689 26.8125 126.438 26.0631 126.438 25.0991C126.438 24.2422 125.689 23.3836 124.725 23.3836ZM144.648 23.3836C143.683 23.3836 142.934 24.1351 142.934 25.0991C142.934 26.0631 143.683 26.8125 144.648 26.8125C145.612 26.8125 146.361 26.0631 146.361 25.0991C146.361 24.2422 145.612 23.3836 144.648 23.3836ZM153.539 23.3836C152.575 23.3836 151.823 24.1351 151.823 25.0991C151.823 26.0631 152.575 26.8125 153.539 26.8125C154.503 26.8125 155.252 26.0631 155.252 25.0991C155.359 24.2422 154.503 23.3836 153.539 23.3836ZM171.533 23.3836C170.569 23.3836 169.819 24.1351 169.819 25.0991C169.819 26.0631 170.569 26.8125 171.533 26.8125C172.497 26.8125 173.246 26.0631 173.246 25.0991C173.246 24.2422 172.497 23.3836 171.533 23.3836ZM180.531 23.3836C179.567 23.3836 178.817 24.1351 178.817 25.0991C178.817 26.0631 179.567 26.8125 180.531 26.8125C181.495 26.8125 182.244 26.0631 182.244 25.0991C182.244 24.2422 181.495 23.3836 180.531 23.3836ZM27.9994 24.028C27.3567 24.028 26.9283 24.5635 26.9283 25.0991C26.9283 25.7418 27.4639 26.1703 27.9994 26.1703C28.6421 26.1703 29.0706 25.6347 29.0706 25.0991C29.0706 24.5635 28.535 24.028 27.9994 24.028ZM54.8847 24.028C54.2421 24.028 53.8136 24.5635 53.8136 25.0991C53.8136 25.7418 54.3492 26.1703 54.8847 26.1703C55.5274 26.1703 55.9559 25.6347 55.9559 25.0991C55.9559 24.5635 55.5274 24.028 54.8847 24.028ZM162.535 24.028C161.892 24.028 161.464 24.5635 161.464 25.0991C161.464 25.7418 161.999 26.1703 162.535 26.1703C163.177 26.1703 163.606 25.6347 163.606 25.0991C163.606 24.5635 163.177 24.028 162.535 24.028ZM106.729 24.1347C106.086 24.1347 105.657 24.6702 105.657 25.2058C105.657 25.7414 106.193 26.2769 106.729 26.2769C107.371 26.2769 107.8 25.7414 107.8 25.2058C107.8 24.5631 107.264 24.1347 106.729 24.1347ZM115.727 24.1347C115.084 24.1347 114.655 24.6702 114.655 25.2058C114.655 25.7414 115.084 26.2769 115.727 26.2769C116.369 26.2769 116.798 25.7414 116.798 25.2058C116.798 24.5631 116.262 24.1347 115.727 24.1347ZM14.5034 25.9548C13.5394 25.9548 12.79 26.7042 12.79 27.6682C12.79 28.6322 13.5394 29.3837 14.5034 29.3837C15.4675 29.3837 16.2168 28.6322 16.2168 27.6682C16.2168 26.7042 15.4675 25.9548 14.5034 25.9548ZM23.5015 25.9548C22.5374 25.9548 21.7881 26.7042 21.7881 27.6682C21.7881 28.6322 22.5374 29.3837 23.5015 29.3837C24.4655 29.3837 25.2149 28.6322 25.2149 27.6682C25.2149 26.7042 24.4655 25.9548 23.5015 25.9548ZM32.4995 25.9548C31.5355 25.9548 30.784 26.7042 30.784 27.6682C30.784 28.6322 31.5355 29.3837 32.4995 29.3837C33.4635 29.3837 34.2129 28.6322 34.2129 27.6682C34.2129 26.7042 33.4635 25.9548 32.4995 25.9548ZM50.3868 25.9548C49.4227 25.9548 48.6734 26.7042 48.6734 27.6682C48.6734 28.6322 49.4227 29.3837 50.3868 29.3837C51.3508 29.3837 52.1002 28.6322 52.1002 27.6682C52.1002 26.7042 51.3508 25.9548 50.3868 25.9548ZM59.3848 25.9548C58.4208 25.9548 57.6714 26.7042 57.6714 27.6682C57.6714 28.6322 58.4208 29.3837 59.3848 29.3837C60.3489 29.3837 61.0982 28.6322 61.0982 27.6682C61.0982 26.7042 60.3489 25.9548 59.3848 25.9548ZM68.3829 25.9548C67.4188 25.9548 66.6673 26.7042 66.6673 27.6682C66.6673 28.6322 67.4188 29.3837 68.3829 29.3837C69.3469 29.3837 70.0963 28.6322 70.0963 27.6682C70.0963 26.7042 69.3469 25.9548 68.3829 25.9548ZM93.3393 25.9548C92.3752 25.9548 91.6259 26.7042 91.6259 27.6682C91.6259 28.6322 92.3752 29.3837 93.3393 29.3837C94.3033 29.3837 95.0527 28.6322 95.0527 27.6682C95.0527 26.8113 94.3033 25.9548 93.3393 25.9548ZM102.231 25.9548C101.267 25.9548 100.517 26.7042 100.517 27.6682C100.517 28.6322 101.267 29.3837 102.231 29.3837C103.195 29.3837 103.944 28.6322 103.944 27.6682C104.051 26.8113 103.195 25.9548 102.231 25.9548ZM111.229 25.9548C110.265 25.9548 109.513 26.7042 109.513 27.6682C109.513 28.6322 110.265 29.3837 111.229 29.3837C112.193 29.3837 112.942 28.6322 112.942 27.6682C112.942 26.8113 112.193 25.9548 111.229 25.9548ZM120.225 25.9548C119.261 25.9548 118.511 26.7042 118.511 27.6682C118.511 28.6322 119.261 29.3837 120.225 29.3837C121.189 29.3837 121.94 28.6322 121.94 27.6682C121.94 26.8113 121.189 25.9548 120.225 25.9548ZM149.145 25.9548C148.181 25.9548 147.432 26.7042 147.432 27.6682C147.432 28.6322 148.181 29.3837 149.145 29.3837C150.11 29.3837 150.861 28.6322 150.861 27.6682C150.861 26.8113 150.11 25.9548 149.145 25.9548ZM158.037 25.9548C157.073 25.9548 156.323 26.7042 156.323 27.6682C156.323 28.6322 157.073 29.3837 158.037 29.3837C159.001 29.3837 159.75 28.6322 159.75 27.6682C159.857 26.8113 159.001 25.9548 158.037 25.9548ZM167.035 25.9548C166.071 25.9548 165.321 26.7042 165.321 27.6682C165.321 28.6322 166.071 29.3837 167.035 29.3837C167.999 29.3837 168.748 28.6322 168.748 27.6682C168.748 26.8113 167.999 25.9548 167.035 25.9548ZM176.033 25.9548C175.069 25.9548 174.317 26.7042 174.317 27.6682C174.317 28.6322 175.069 29.3837 176.033 29.3837C176.997 29.3837 177.746 28.6322 177.746 27.6682C177.746 26.8113 176.997 25.9548 176.033 25.9548ZM41.3887 26.0615C40.4247 26.0615 39.6753 26.8129 39.6753 27.777C39.6753 28.741 40.4247 29.4904 41.3887 29.4904C42.3528 29.4904 43.1022 28.741 43.1022 27.777C43.1022 26.8129 42.3528 26.0615 41.3887 26.0615ZM129.223 26.7058C128.687 26.7058 128.151 27.2414 128.151 27.777C128.151 28.3125 128.58 28.8481 129.223 28.8481C129.865 28.8481 130.294 28.3125 130.294 27.777C130.294 27.1343 129.758 26.7058 129.223 26.7058ZM19.0014 28.6326C18.0374 28.6326 17.288 29.382 17.288 30.346C17.288 31.3101 18.0374 32.0615 19.0014 32.0615C19.9654 32.0615 20.7169 31.3101 20.7169 30.346C20.7169 29.382 19.9654 28.6326 19.0014 28.6326ZM27.9994 28.6326C27.0354 28.6326 26.286 29.382 26.286 30.346C26.286 31.3101 27.0354 32.0615 27.9994 32.0615C28.9635 32.0615 29.7128 31.3101 29.7128 30.346C29.7128 29.382 28.9635 28.6326 27.9994 28.6326ZM36.9975 28.6326C36.0334 28.6326 35.2841 29.382 35.2841 30.346C35.2841 31.3101 36.0334 32.0615 36.9975 32.0615C37.9615 32.0615 38.7109 31.3101 38.7109 30.346C38.7109 29.382 37.9615 28.6326 36.9975 28.6326ZM45.8888 28.6326C44.9248 28.6326 44.1733 29.382 44.1733 30.346C44.1733 31.3101 44.9248 32.0615 45.8888 32.0615C46.8528 32.0615 47.6022 31.3101 47.6022 30.346C47.7093 29.382 46.8528 28.6326 45.8888 28.6326ZM54.8847 28.6326C53.9207 28.6326 53.1713 29.382 53.1713 30.346C53.1713 31.3101 53.9207 32.0615 54.8847 32.0615C55.8488 32.0615 56.6003 31.3101 56.6003 30.346C56.6003 29.382 55.8488 28.6326 54.8847 28.6326ZM63.8828 28.6326C62.9188 28.6326 62.1694 29.382 62.1694 30.346C62.1694 31.3101 62.9188 32.0615 63.8828 32.0615C64.8468 32.0615 65.5962 31.3101 65.5962 30.346C65.5962 29.382 64.8468 28.6326 63.8828 28.6326ZM97.7305 28.6326C96.7665 28.6326 96.0171 29.382 96.0171 30.346C96.0171 31.3101 96.7665 32.0615 97.7305 32.0615C98.6946 32.0615 99.4461 31.3101 99.4461 30.346C99.5532 29.382 98.6946 28.6326 97.7305 28.6326ZM106.729 28.6326C105.765 28.6326 105.015 29.382 105.015 30.346C105.015 31.3101 105.765 32.0615 106.729 32.0615C107.693 32.0615 108.442 31.3101 108.442 30.346C108.549 29.382 107.693 28.6326 106.729 28.6326ZM115.727 28.6326C114.763 28.6326 114.013 29.382 114.013 30.346C114.013 31.3101 114.763 32.0615 115.727 32.0615C116.691 32.0615 117.44 31.3101 117.44 30.346C117.44 29.382 116.691 28.6326 115.727 28.6326ZM124.725 28.6326C123.761 28.6326 123.011 29.382 123.011 30.346C122.904 31.3101 123.761 32.0615 124.725 32.0615C125.689 32.0615 126.438 31.3101 126.438 30.346C126.438 29.382 125.689 28.6326 124.725 28.6326ZM144.648 28.6326C143.683 28.6326 142.934 29.382 142.934 30.346C142.934 31.3101 143.683 32.0615 144.648 32.0615C145.612 32.0615 146.361 31.3101 146.361 30.346C146.361 29.382 145.612 28.6326 144.648 28.6326ZM153.539 28.6326C152.575 28.6326 151.823 29.382 151.823 30.346C151.823 31.3101 152.575 32.0615 153.539 32.0615C154.503 32.0615 155.252 31.3101 155.252 30.346C155.359 29.382 154.503 28.6326 153.539 28.6326ZM162.535 28.6326C161.571 28.6326 160.821 29.382 160.821 30.346C160.821 31.3101 161.571 32.0615 162.535 32.0615C163.499 32.0615 164.25 31.3101 164.25 30.346C164.25 29.382 163.499 28.6326 162.535 28.6326ZM171.533 28.6326C170.569 28.6326 169.819 29.382 169.819 30.346C169.819 31.3101 170.569 32.0615 171.533 32.0615C172.497 32.0615 173.246 31.3101 173.246 30.346C173.246 29.382 172.497 28.6326 171.533 28.6326ZM23.5015 31.2038C22.5374 31.2038 21.7881 31.9532 21.7881 32.9172C21.7881 33.8813 22.5374 34.6306 23.5015 34.6306C24.4655 34.6306 25.2149 33.8813 25.2149 32.9172C25.2149 31.9532 24.4655 31.2038 23.5015 31.2038ZM32.4995 31.2038C31.5355 31.2038 30.784 31.9532 30.784 32.9172C30.784 33.8813 31.5355 34.6306 32.4995 34.6306C33.4635 34.6306 34.2129 33.8813 34.2129 32.9172C34.2129 31.9532 33.4635 31.2038 32.4995 31.2038ZM50.3868 31.2038C49.4227 31.2038 48.6734 31.9532 48.6734 32.9172C48.6734 33.8813 49.4227 34.6306 50.3868 34.6306C51.3508 34.6306 52.1002 33.8813 52.1002 32.9172C52.2073 31.9532 51.3508 31.2038 50.3868 31.2038ZM59.3848 31.2038C58.4208 31.2038 57.6714 31.9532 57.6714 32.9172C57.6714 33.8813 58.4208 34.6306 59.3848 34.6306C60.3489 34.6306 61.0982 33.8813 61.0982 32.9172C61.0982 31.9532 60.3489 31.2038 59.3848 31.2038ZM93.3393 31.2038C92.3752 31.2038 91.6259 31.9532 91.6259 32.9172C91.6259 33.8813 92.3752 34.6306 93.3393 34.6306C94.3033 34.6306 95.0527 33.8813 95.0527 32.9172C95.0527 31.9532 94.3033 31.2038 93.3393 31.2038ZM102.231 31.2038C101.267 31.2038 100.517 31.9532 100.517 32.9172C100.517 33.8813 101.267 34.6306 102.231 34.6306C103.195 34.6306 103.944 33.8813 103.944 32.9172C104.051 31.9532 103.195 31.2038 102.231 31.2038ZM111.229 31.2038C110.265 31.2038 109.513 31.9532 109.513 32.9172C109.513 33.8813 110.265 34.6306 111.229 34.6306C112.193 34.6306 112.942 33.8813 112.942 32.9172C112.942 31.9532 112.193 31.2038 111.229 31.2038ZM120.225 31.2038C119.261 31.2038 118.511 31.9532 118.511 32.9172C118.511 33.8813 119.261 34.6306 120.225 34.6306C121.189 34.6306 121.94 33.8813 121.94 32.9172C121.94 31.9532 121.189 31.2038 120.225 31.2038ZM149.145 31.2038C148.181 31.2038 147.432 31.9532 147.432 32.9172C147.432 33.8813 148.181 34.6306 149.145 34.6306C150.11 34.6306 150.861 33.8813 150.861 32.9172C150.861 31.9532 150.11 31.2038 149.145 31.2038ZM158.037 31.2038C157.073 31.2038 156.323 31.9532 156.323 32.9172C156.323 33.8813 157.073 34.6306 158.037 34.6306C159.001 34.6306 159.75 33.8813 159.75 32.9172C159.857 31.9532 159.001 31.2038 158.037 31.2038ZM167.035 31.2038C166.071 31.2038 165.321 31.9532 165.321 32.9172C165.321 33.8813 166.071 34.6306 167.035 34.6306C167.999 34.6306 168.748 33.8813 168.748 32.9172C168.748 31.9532 167.999 31.2038 167.035 31.2038ZM14.5034 31.8461C13.8607 31.8461 13.4323 32.3817 13.4323 32.9172C13.4323 33.5599 13.9679 33.9884 14.5034 33.9884C15.1461 33.9884 15.5746 33.4528 15.5746 32.9172C15.5746 32.2745 15.039 31.8461 14.5034 31.8461ZM68.3829 31.8461C67.7402 31.8461 67.3117 32.3817 67.3117 32.9172C67.3117 33.5599 67.7402 33.9884 68.3829 33.9884C69.0255 33.9884 69.454 33.4528 69.454 32.9172C69.454 32.2745 68.9184 31.8461 68.3829 31.8461ZM176.033 31.8461C175.39 31.8461 174.962 32.3817 174.962 32.9172C174.962 33.5599 175.39 33.9884 176.033 33.9884C176.676 33.9884 177.104 33.4528 177.104 32.9172C177.104 32.2745 176.568 31.8461 176.033 31.8461ZM19.0014 33.775C18.0374 33.775 17.288 34.5244 17.288 35.4884C17.288 36.4524 18.0374 37.2018 19.0014 37.2018C19.9654 37.2018 20.7169 36.4524 20.7169 35.4884C20.7169 34.5244 19.9654 33.775 19.0014 33.775ZM27.9994 33.775C27.0354 33.775 26.286 34.5244 26.286 35.4884C26.286 36.4524 27.0354 37.2018 27.9994 37.2018C28.9635 37.2018 29.7128 36.4524 29.7128 35.4884C29.7128 34.5244 28.9635 33.775 27.9994 33.775ZM54.8847 33.775C53.9207 33.775 53.1713 34.5244 53.1713 35.4884C53.1713 36.4524 53.9207 37.2018 54.8847 37.2018C55.8488 37.2018 56.6003 36.4524 56.6003 35.4884C56.6003 34.5244 55.8488 33.775 54.8847 33.775ZM63.8828 33.775C62.9188 33.775 62.1694 34.5244 62.1694 35.4884C62.1694 36.4524 62.9188 37.2018 63.8828 37.2018C64.8468 37.2018 65.5962 36.4524 65.5962 35.4884C65.5962 34.5244 64.8468 33.775 63.8828 33.775ZM97.7305 33.775C96.7665 33.775 96.0171 34.5244 96.0171 35.4884C96.0171 36.4524 96.7665 37.2018 97.7305 37.2018C98.6946 37.2018 99.4461 36.4524 99.4461 35.4884C99.4461 34.5244 98.6946 33.775 97.7305 33.775ZM144.648 33.775C143.683 33.775 142.934 34.5244 142.934 35.4884C142.934 36.4524 143.683 37.2018 144.648 37.2018C145.612 37.2018 146.361 36.4524 146.361 35.4884C146.361 34.5244 145.612 33.775 144.648 33.775ZM153.539 33.775C152.575 33.775 151.823 34.5244 151.823 35.4884C151.823 36.4524 152.575 37.2018 153.539 37.2018C154.503 37.2018 155.252 36.4524 155.252 35.4884C155.252 34.5244 154.503 33.775 153.539 33.775ZM106.729 33.8817C105.765 33.8817 105.015 34.6311 105.015 35.5951C105.015 36.5591 105.765 37.3085 106.729 37.3085C107.693 37.3085 108.442 36.5591 108.442 35.5951C108.442 34.6311 107.693 33.8817 106.729 33.8817ZM115.727 33.8817C114.763 33.8817 114.013 34.6311 114.013 35.5951C114.013 36.5591 114.763 37.3085 115.727 37.3085C116.691 37.3085 117.44 36.5591 117.44 35.5951C117.44 34.6311 116.691 33.8817 115.727 33.8817ZM162.535 33.8817C161.571 33.8817 160.821 34.6311 160.821 35.5951C160.821 36.5591 161.571 37.3085 162.535 37.3085C163.499 37.3085 164.25 36.5591 164.25 35.5951C164.25 34.6311 163.499 33.8817 162.535 33.8817ZM36.9975 34.4172C36.3548 34.4172 35.9263 34.9528 35.9263 35.4884C35.8192 36.1311 36.3548 36.5595 36.9975 36.5595C37.6402 36.5595 38.0686 36.024 38.0686 35.4884C38.0686 34.8457 37.533 34.4172 36.9975 34.4172ZM45.8888 34.4172C45.2461 34.4172 44.8177 34.9528 44.8177 35.4884C44.8177 36.1311 45.3532 36.5595 45.8888 36.5595C46.5315 36.5595 46.96 36.024 46.96 35.4884C46.96 34.8457 46.4244 34.4172 45.8888 34.4172ZM171.533 34.4172C170.89 34.4172 170.462 34.9528 170.462 35.4884C170.462 36.1311 170.89 36.5595 171.533 36.5595C172.176 36.5595 172.604 36.024 172.604 35.4884C172.604 34.8457 172.068 34.4172 171.533 34.4172ZM23.5015 36.3461C22.5374 36.3461 21.7881 37.0955 21.7881 38.0596C21.7881 39.0236 22.5374 39.773 23.5015 39.773C24.4655 39.773 25.2149 39.0236 25.2149 38.0596C25.2149 37.0955 24.4655 36.3461 23.5015 36.3461ZM32.4995 36.3461C31.5355 36.3461 30.784 37.0955 30.784 38.0596C30.784 39.0236 31.5355 39.773 32.4995 39.773C33.4635 39.773 34.2129 39.0236 34.2129 38.0596C34.2129 37.0955 33.4635 36.3461 32.4995 36.3461ZM50.3868 36.3461C49.4227 36.3461 48.6734 37.0955 48.6734 38.0596C48.6734 39.0236 49.4227 39.773 50.3868 39.773C51.3508 39.773 52.1002 39.0236 52.1002 38.0596C52.2073 37.0955 51.3508 36.3461 50.3868 36.3461ZM59.3848 36.3461C58.4208 36.3461 57.6714 37.0955 57.6714 38.0596C57.6714 39.0236 58.4208 39.773 59.3848 39.773C60.3489 39.773 61.0982 39.0236 61.0982 38.0596C61.0982 37.0955 60.3489 36.3461 59.3848 36.3461ZM93.3393 36.3461C92.3752 36.3461 91.6259 37.0955 91.6259 38.0596C91.6259 39.0236 92.3752 39.773 93.3393 39.773C94.3033 39.773 95.0527 39.0236 95.0527 38.0596C95.0527 37.0955 94.3033 36.3461 93.3393 36.3461ZM102.231 36.3461C101.267 36.3461 100.517 37.0955 100.517 38.0596C100.517 39.0236 101.267 39.773 102.231 39.773C103.195 39.773 103.944 39.0236 103.944 38.0596C104.051 37.0955 103.195 36.3461 102.231 36.3461ZM149.145 36.3461C148.181 36.3461 147.432 37.0955 147.432 38.0596C147.432 39.0236 148.181 39.773 149.145 39.773C150.11 39.773 150.861 39.0236 150.861 38.0596C150.861 37.0955 150.11 36.3461 149.145 36.3461ZM167.035 36.9884C166.392 36.9884 165.964 37.524 165.964 38.0596C165.964 38.7022 166.499 39.1307 167.035 39.1307C167.678 39.1307 168.106 38.5951 168.106 38.0596C168.106 37.524 167.678 36.9884 167.035 36.9884ZM111.229 37.0951C110.586 37.0951 110.157 37.6307 110.157 38.1663C110.157 38.7018 110.693 39.2374 111.229 39.2374C111.871 39.2374 112.3 38.7018 112.3 38.1663C112.3 37.6307 111.764 37.0951 111.229 37.0951ZM158.037 37.0951C157.394 37.0951 156.966 37.6307 156.966 38.1663C156.966 38.7018 157.501 39.2374 158.037 39.2374C158.68 39.2374 159.108 38.7018 159.108 38.1663C159.108 37.6307 158.572 37.0951 158.037 37.0951ZM19.0014 38.9152C18.0374 38.9152 17.288 39.6667 17.288 40.6307C17.288 41.5948 18.0374 42.3441 19.0014 42.3441C19.9654 42.3441 20.7169 41.5948 20.7169 40.6307C20.7169 39.7738 19.9654 38.9152 19.0014 38.9152ZM27.9994 38.9152C27.0354 38.9152 26.286 39.6667 26.286 40.6307C26.286 41.5948 27.0354 42.3441 27.9994 42.3441C28.9635 42.3441 29.7128 41.5948 29.7128 40.6307C29.7128 39.7738 28.9635 38.9152 27.9994 38.9152ZM54.8847 38.9152C53.9207 38.9152 53.1713 39.6667 53.1713 40.6307C53.1713 41.5948 53.9207 42.3441 54.8847 42.3441C55.8488 42.3441 56.6003 41.5948 56.6003 40.6307C56.6003 39.7738 55.8488 38.9152 54.8847 38.9152ZM63.8828 38.9152C62.9188 38.9152 62.1694 39.6667 62.1694 40.6307C62.1694 41.5948 62.9188 42.3441 63.8828 42.3441C64.8468 42.3441 65.5962 41.5948 65.5962 40.6307C65.5962 39.7738 64.8468 38.9152 63.8828 38.9152ZM97.7305 38.9152C96.7665 38.9152 96.0171 39.6667 96.0171 40.6307C96.0171 41.5948 96.7665 42.3441 97.7305 42.3441C98.6946 42.3441 99.4461 41.5948 99.4461 40.6307C99.5532 39.7738 98.6946 38.9152 97.7305 38.9152ZM144.648 38.9152C143.683 38.9152 142.934 39.6667 142.934 40.6307C142.934 41.5948 143.683 42.3441 144.648 42.3441C145.612 42.3441 146.361 41.5948 146.361 40.6307C146.361 39.7738 145.612 38.9152 144.648 38.9152ZM153.539 38.9152C152.575 38.9152 151.823 39.6667 151.823 40.6307C151.823 41.5948 152.575 42.3441 153.539 42.3441C154.503 42.3441 155.252 41.5948 155.252 40.6307C155.359 39.7738 154.503 38.9152 153.539 38.9152ZM23.5015 41.5931C22.5374 41.5931 21.7881 42.3446 21.7881 43.3086C21.7881 44.2726 22.5374 45.022 23.5015 45.022C24.4655 45.022 25.2149 44.2726 25.2149 43.3086C25.2149 42.3446 24.4655 41.5931 23.5015 41.5931ZM32.4995 41.5931C31.5355 41.5931 30.784 42.3446 30.784 43.3086C30.6769 44.2726 31.5355 45.022 32.4995 45.022C33.4635 45.022 34.2129 44.2726 34.2129 43.3086C34.2129 42.3446 33.4635 41.5931 32.4995 41.5931ZM50.3868 41.5931C49.4227 41.5931 48.6734 42.3446 48.6734 43.3086C48.6734 44.2726 49.4227 45.022 50.3868 45.022C51.3508 45.022 52.1002 44.2726 52.1002 43.3086C52.1002 42.3446 51.3508 41.5931 50.3868 41.5931ZM59.3848 41.5931C58.4208 41.5931 57.6714 42.3446 57.6714 43.3086C57.6714 44.2726 58.4208 45.022 59.3848 45.022C60.3489 45.022 61.0982 44.2726 61.0982 43.3086C61.0982 42.3446 60.3489 41.5931 59.3848 41.5931ZM93.3393 41.5931C92.3752 41.5931 91.6259 42.3446 91.6259 43.3086C91.6259 44.2726 92.3752 45.022 93.3393 45.022C94.3033 45.022 95.0527 44.2726 95.0527 43.3086C95.0527 42.3446 94.3033 41.5931 93.3393 41.5931ZM102.231 41.5931C101.267 41.5931 100.517 42.3446 100.517 43.3086C100.517 44.2726 101.267 45.022 102.231 45.022C103.195 45.022 103.944 44.2726 103.944 43.3086C104.051 42.3446 103.195 41.5931 102.231 41.5931ZM149.145 41.5931C148.181 41.5931 147.432 42.3446 147.432 43.3086C147.432 44.2726 148.181 45.022 149.145 45.022C150.11 45.022 150.861 44.2726 150.861 43.3086C150.861 42.3446 150.11 41.5931 149.145 41.5931ZM27.9994 44.1642C27.0354 44.1642 26.286 44.9136 26.286 45.8777C26.286 46.8417 27.0354 47.5932 27.9994 47.5932C28.9635 47.5932 29.7128 46.8417 29.7128 45.8777C29.7128 44.9136 28.9635 44.1642 27.9994 44.1642ZM54.8847 44.1642C53.9207 44.1642 53.1713 44.9136 53.1713 45.8777C53.1713 46.8417 53.9207 47.5932 54.8847 47.5932C55.8488 47.5932 56.6003 46.8417 56.6003 45.8777C56.6003 44.9136 55.8488 44.1642 54.8847 44.1642ZM97.7305 44.1642C96.7665 44.1642 96.0171 44.9136 96.0171 45.8777C96.0171 46.8417 96.7665 47.5932 97.7305 47.5932C98.6946 47.5932 99.4461 46.8417 99.4461 45.8777C99.5532 44.9136 98.6946 44.1642 97.7305 44.1642ZM144.648 44.1642C143.683 44.1642 142.934 44.9136 142.934 45.8777C142.934 46.8417 143.683 47.5932 144.648 47.5932C145.612 47.5932 146.361 46.8417 146.361 45.8777C146.361 44.9136 145.612 44.1642 144.648 44.1642ZM153.539 44.1642C152.575 44.1642 151.823 44.9136 151.823 45.8777C151.823 46.8417 152.575 47.5932 153.539 47.5932C154.503 47.5932 155.252 46.8417 155.252 45.8777C155.359 44.9136 154.503 44.1642 153.539 44.1642ZM19.0014 44.8065C18.3587 44.8065 17.9303 45.3421 17.9303 45.8777C17.9303 46.5203 18.3587 46.9488 19.0014 46.9488C19.6441 46.9488 20.0725 46.4132 20.0725 45.8777C20.0725 45.235 19.537 44.8065 19.0014 44.8065ZM63.8828 44.8065C63.3472 44.8065 62.8116 45.3421 62.8116 45.8777C62.8116 46.5203 63.2401 46.9488 63.8828 46.9488C64.5255 46.9488 64.9539 46.4132 64.9539 45.8777C64.9539 45.235 64.4184 44.8065 63.8828 44.8065ZM23.5015 46.7354C22.5374 46.7354 21.7881 47.4848 21.7881 48.4488C21.7881 49.4129 22.5374 50.1622 23.5015 50.1622C24.4655 50.1622 25.2149 49.4129 25.2149 48.4488C25.2149 47.4848 24.4655 46.7354 23.5015 46.7354ZM59.3848 46.7354C58.4208 46.7354 57.6714 47.4848 57.6714 48.4488C57.6714 49.4129 58.4208 50.1622 59.3848 50.1622C60.3489 50.1622 61.0982 49.4129 61.0982 48.4488C61.0982 47.4848 60.3489 46.7354 59.3848 46.7354ZM93.3393 46.7354C92.3752 46.7354 91.6259 47.4848 91.6259 48.4488C91.6259 49.4129 92.3752 50.1622 93.3393 50.1622C94.3033 50.1622 95.0527 49.4129 95.0527 48.4488C95.0527 47.4848 94.3033 46.7354 93.3393 46.7354ZM102.231 46.7354C101.267 46.7354 100.517 47.4848 100.517 48.4488C100.517 49.4129 101.267 50.1622 102.231 50.1622C103.195 50.1622 103.944 49.4129 103.944 48.4488C104.051 47.4848 103.195 46.7354 102.231 46.7354ZM149.145 46.7354C148.181 46.7354 147.432 47.4848 147.432 48.4488C147.432 49.4129 148.181 50.1622 149.145 50.1622C150.11 50.1622 150.861 49.4129 150.861 48.4488C150.861 47.4848 150.11 46.7354 149.145 46.7354ZM27.9994 49.4133C27.0354 49.4133 26.286 50.1627 26.286 51.1267C26.1789 51.9836 27.0354 52.8401 27.9994 52.8401C28.9635 52.8401 29.7128 52.0907 29.7128 51.1267C29.7128 50.1627 28.9635 49.4133 27.9994 49.4133ZM54.8847 49.4133C53.9207 49.4133 53.1713 50.1627 53.1713 51.1267C53.1713 51.9836 53.9207 52.8401 54.8847 52.8401C55.8488 52.8401 56.6003 52.0907 56.6003 51.1267C56.6003 50.1627 55.8488 49.4133 54.8847 49.4133ZM97.7305 49.4133C96.7665 49.4133 96.0171 50.1627 96.0171 51.1267C96.0171 51.9836 96.7665 52.8401 97.7305 52.8401C98.6946 52.8401 99.4461 52.0907 99.4461 51.1267C99.4461 50.1627 98.6946 49.4133 97.7305 49.4133ZM144.648 49.4133C143.683 49.4133 142.934 50.1627 142.934 51.1267C142.827 51.9836 143.683 52.8401 144.648 52.8401C145.612 52.8401 146.361 52.0907 146.361 51.1267C146.361 50.1627 145.612 49.4133 144.648 49.4133ZM153.539 49.4133C152.575 49.4133 151.823 50.1627 151.823 51.1267C151.823 51.9836 152.575 52.8401 153.539 52.8401C154.503 52.8401 155.252 52.0907 155.252 51.1267C155.252 50.1627 154.503 49.4133 153.539 49.4133ZM23.5015 52.6267C22.8588 52.6267 22.4303 53.1623 22.4303 53.6978C22.4303 54.2334 22.8588 54.769 23.5015 54.769C24.1442 54.769 24.5726 54.2334 24.5726 53.6978C24.5726 53.0552 24.037 52.6267 23.5015 52.6267ZM59.3848 52.6267C58.7421 52.6267 58.3137 53.1623 58.3137 53.6978C58.3137 54.2334 58.7421 54.769 59.3848 54.769C60.0275 54.769 60.456 54.2334 60.456 53.6978C60.456 53.0552 59.9204 52.6267 59.3848 52.6267ZM93.3393 52.6267C92.6966 52.6267 92.2681 53.1623 92.2681 53.6978C92.161 54.2334 92.6966 54.769 93.3393 54.769C93.9819 54.769 94.4104 54.2334 94.4104 53.6978C94.4104 53.0552 93.8748 52.6267 93.3393 52.6267ZM102.231 52.6267C101.588 52.6267 101.159 53.1623 101.159 53.6978C101.159 54.2334 101.695 54.769 102.231 54.769C102.873 54.769 103.302 54.2334 103.302 53.6978C103.302 53.0552 102.766 52.6267 102.231 52.6267ZM149.145 52.6267C148.503 52.6267 148.074 53.1623 148.074 53.6978C147.967 54.2334 148.503 54.769 149.145 54.769C149.788 54.769 150.217 54.2334 150.217 53.6978C150.217 53.0552 149.681 52.6267 149.145 52.6267Z" fill="#191D63"/>
</svg>
