<svg width="418" height="407" viewBox="0 0 418 407" fill="none" xmlns="http://www.w3.org/2000/svg">
<g opacity="0.25">
<path d="M13.2693 291.577C13.2848 287.49 14.1147 283.387 15.8366 279.456C17.4267 275.819 19.5441 270.67 25.5786 269.128C31.9078 267.51 39.0902 270.5 44.3645 272.559C47.1801 273.661 49.887 274.883 52.4699 276.2C53.9436 270.991 56.0998 265.857 60.3891 261.304C65.7643 255.604 74.5832 250.856 85.0233 249.864C95.5952 248.857 105.973 251.953 113.063 256.956C120.695 262.341 124.426 269.403 127.14 276.35C130.033 283.758 131.973 291.321 133.074 298.929C153.683 295.503 176.765 302.731 184.592 315.914C185.476 317.402 184.018 319.425 181.916 320.156C170.134 324.243 156.475 323.637 143.522 323.572C129.118 323.502 114.715 323.337 100.319 323.076C71.0075 322.546 41.7196 321.619 12.4626 320.317C11.2836 320.267 10.2986 320.031 9.49192 319.676C7.73898 319.66 5.97055 319.175 4.71403 318.003C-4.26783 309.643 0.137776 296.961 13.246 291.567L13.2693 291.577Z" fill="#F3EA91"/>
<path d="M160.299 43.4496C155.797 39.905 149.149 37.9147 142.246 37.6145C142.96 35.2089 142.768 32.7128 141.438 30.3401C139.922 27.6343 137.209 25.3603 133.439 24.3899C132.23 23.477 130.542 22.8848 128.109 22.9054C123.684 22.9424 118.895 24.9368 115.157 26.3144C114.348 26.6104 113.552 26.9229 112.763 27.2396C113.839 22.2516 113.998 17.1731 111.324 12.44C108.121 6.77349 100.982 1.48528 91.4747 0.263978C80.923 -1.08891 70.8935 2.99855 62.9718 7.05311C55.3812 10.935 48.9814 15.8366 44.2373 21.2852C41.3017 24.6572 39.0283 28.2142 37.4173 31.8986C32.272 28.65 24.8851 26.8366 17.5302 27.5315C4.45042 28.7693 -2.19135 37.8653 0.648756 45.6784C4.5332 56.3741 24.2675 57.5049 38.1432 59.1909C56.1645 61.3826 74.4405 62.7643 92.761 63.3071C107.758 63.7512 122.78 63.6114 137.751 62.9165C145.806 63.9692 154.161 66.017 161.598 62.9617C163.006 62.3819 163.668 61.5677 163.795 60.7288C167.54 55.0212 166.515 48.3431 160.306 43.4537L160.299 43.4496Z" fill="#F3EA91"/>
<path d="M400.075 144.892C400.059 140.675 399.203 136.443 397.427 132.387C395.786 128.635 393.602 123.323 387.376 121.731C380.846 120.062 373.436 123.147 367.995 125.271C365.09 126.408 362.298 127.669 359.633 129.028C358.112 123.654 355.888 118.357 351.463 113.66C345.917 107.78 336.819 102.881 326.048 101.858C315.141 100.819 304.435 104.012 297.121 109.175C289.247 114.73 285.398 122.016 282.597 129.183C279.612 136.825 277.612 144.628 276.475 152.477C255.214 148.943 231.4 156.399 223.326 170C222.414 171.535 223.918 173.622 226.086 174.377C238.242 178.593 252.333 177.968 265.697 177.901C280.557 177.828 295.416 177.658 310.268 177.389C340.508 176.841 370.724 175.885 400.907 174.542C402.124 174.49 403.14 174.247 403.972 173.881C405.781 173.865 407.605 173.364 408.901 172.155C418.168 163.53 413.623 150.447 400.099 144.881L400.075 144.892Z" fill="#F3EA91"/>
<path d="M406.04 380.327C406.028 376.931 405.338 373.522 403.907 370.255C402.586 367.233 400.826 362.955 395.812 361.673C390.552 360.328 384.584 362.813 380.201 364.524C377.862 365.439 375.612 366.455 373.466 367.55C372.241 363.221 370.45 358.955 366.885 355.172C362.419 350.435 355.09 346.489 346.415 345.665C337.63 344.829 329.006 347.401 323.115 351.559C316.773 356.033 313.673 361.902 311.417 367.674C309.013 373.83 307.402 380.115 306.487 386.437C289.361 383.59 270.18 389.596 263.677 400.551C262.942 401.787 264.154 403.468 265.901 404.076C275.691 407.472 287.041 406.969 297.805 406.914C309.774 406.856 321.743 406.719 333.705 406.502C358.062 406.061 382.399 405.291 406.711 404.209C407.69 404.168 408.509 403.972 409.179 403.676C410.636 403.664 412.105 403.26 413.15 402.286C420.613 395.34 416.952 384.801 406.06 380.319L406.04 380.327Z" fill="#F3EA91"/>
</g>
</svg>
