<svg width="1440" height="395" viewBox="0 0 1440 395" fill="none" xmlns="http://www.w3.org/2000/svg">
<path d="M1266.63 181.702C1278 171.866 1294.18 166.953 1310.66 167.086C1309.41 159.853 1310.32 152.486 1313.92 145.653C1318.03 137.86 1324.9 131.524 1334.05 129.207C1337.1 126.681 1341.22 125.177 1347 125.598C1357.53 126.363 1368.55 132.981 1377.19 137.616C1379.06 138.613 1380.9 139.657 1382.72 140.712C1381.08 125.773 1381.63 110.703 1388.87 97.0751C1397.54 80.76 1415.49 66.1486 1438.34 63.9376C1463.69 61.4914 1486.8 75.0871 1504.9 88.2733C1522.24 100.899 1536.57 116.369 1546.85 133.215C1553.21 143.641 1557.96 154.516 1561.12 165.672C1573.96 156.808 1591.87 152.529 1609.24 155.677C1640.13 161.281 1654.25 189.215 1646.05 211.943C1634.84 243.058 1587.68 243.487 1554.36 246.428C1511.08 250.254 1467.34 251.642 1423.65 250.537C1387.89 249.633 1352.18 246.994 1316.69 242.719C1297.33 244.645 1277.08 249.476 1259.94 239.322C1256.7 237.396 1255.28 234.885 1255.13 232.381C1247.27 214.915 1250.94 195.28 1266.62 181.713L1266.63 181.702Z" fill="#E2E8EB"/>
<path d="M1169.13 297.918C1181.27 287.415 1198.55 282.169 1216.15 282.31C1214.81 274.587 1215.78 266.72 1219.63 259.423C1224.02 251.102 1231.36 244.336 1241.12 241.862C1244.38 239.165 1248.78 237.558 1254.96 238.008C1266.19 238.825 1277.97 245.892 1287.19 250.841C1289.19 251.906 1291.15 253.021 1293.09 254.147C1291.34 238.196 1291.94 222.103 1299.66 207.551C1308.92 190.129 1328.09 174.527 1352.49 172.166C1379.56 169.554 1404.23 184.072 1423.56 198.152C1442.08 211.634 1457.38 228.154 1468.36 246.142C1475.15 257.275 1480.22 268.888 1483.59 280.8C1497.3 271.335 1516.43 266.766 1534.98 270.127C1567.96 276.111 1583.04 305.94 1574.29 330.21C1562.32 363.436 1511.96 363.894 1476.37 367.034C1430.16 371.119 1383.46 372.601 1336.81 371.422C1298.62 370.456 1260.48 367.639 1222.59 363.073C1201.91 365.13 1180.28 370.288 1161.99 359.446C1158.53 357.389 1157.01 354.708 1156.85 352.034C1148.46 333.384 1152.38 312.417 1169.12 297.93L1169.13 297.918Z" fill="#C9D3D8"/>
<path d="M191.966 148.361C179.005 137.839 160.866 132.95 142.577 133.674C143.715 125.6 142.442 117.453 138.202 109.993C133.373 101.485 125.521 94.6912 115.284 92.4385C111.813 89.741 107.182 88.2148 100.775 88.8845C89.12 90.1016 77.1112 97.8345 67.6821 103.282C65.6414 104.455 63.6395 105.678 61.6555 106.913C62.9547 90.2708 61.8087 73.5591 53.2991 58.6828C43.1083 40.873 22.66 25.2793 -2.77917 23.6235C-31.0119 21.7942 -56.1909 37.6959 -75.8236 52.9679C-94.6367 67.5909 -109.996 85.267 -120.823 104.329C-127.522 116.125 -132.418 128.366 -135.529 140.86C-150.094 131.469 -170.126 127.344 -189.3 131.447C-223.399 138.748 -238.103 170.254 -228.208 195.201C-214.67 229.352 -162.299 228.179 -125.201 230.279C-77.019 233.013 -28.415 233.025 20.0478 230.271C59.7176 228.017 99.2744 223.839 138.526 217.851C160.086 219.313 182.741 223.968 201.406 212.096C204.937 209.844 206.432 207.007 206.509 204.222C214.62 184.557 209.859 162.887 191.984 148.373L191.966 148.361Z" fill="#E2E8EB"/>
<path d="M249.285 237.13C238.594 228.451 223.633 224.419 208.547 225.016C209.486 218.356 208.436 211.636 204.938 205.482C200.955 198.465 194.478 192.861 186.034 191.003C183.171 188.778 179.351 187.519 174.067 188.071C164.453 189.075 154.548 195.454 146.77 199.947C145.087 200.914 143.435 201.923 141.799 202.942C142.871 189.215 141.925 175.43 134.906 163.159C126.5 148.469 109.634 135.607 88.6501 134.241C65.3624 132.732 44.5936 145.848 28.3996 158.445C12.8817 170.507 0.212408 185.087 -8.71768 200.81C-14.2434 210.541 -18.2821 220.637 -20.8483 230.943C-32.8624 223.197 -49.3855 219.795 -65.2015 223.178C-93.3275 229.201 -105.456 255.189 -97.2939 275.766C-86.1277 303.936 -42.9297 302.968 -12.3294 304.7C27.4136 306.955 67.5045 306.965 107.479 304.694C140.2 302.834 172.829 299.388 205.205 294.449C222.989 295.655 241.676 299.494 257.072 289.702C259.985 287.845 261.218 285.505 261.281 283.207C267.971 266.987 264.044 249.112 249.3 237.14L249.285 237.13Z" fill="#C9D3D8"/>
<path d="M1313.27 41.8942C1314.83 41.9024 1316.3 40.9203 1317.19 39.6081C1318.07 38.2959 1318.44 36.6783 1318.55 35.0938C1318.65 36.571 1318.74 38.0813 1319.33 39.4266C1319.92 40.78 1321.1 41.9602 1322.55 42.0923C1321.21 42.3068 1320.12 43.4045 1319.53 44.6589C1318.94 45.9134 1318.76 47.3164 1318.59 48.6946C1318.22 47.1844 1317.85 45.641 1317.01 44.3288C1316.19 43.0249 1314.81 41.9685 1313.28 41.9685L1313.27 41.8942Z" fill="#C9D3D8"/>
<path d="M90.668 47.8942C92.2296 47.9024 93.6995 46.9203 94.5837 45.6081C95.4678 44.2959 95.8353 42.6783 95.9501 41.0938C96.042 42.571 96.1339 44.0813 96.731 45.4266C97.3166 46.78 98.4993 47.9602 99.9462 48.0923C98.6027 48.3068 97.5118 49.4045 96.9262 50.6589C96.3405 51.9134 96.1568 53.3164 95.9846 54.6946C95.6171 53.1844 95.2497 51.641 94.4114 50.3288C93.5846 49.0249 92.2067 47.9685 90.6795 47.9685L90.668 47.8942Z" fill="#A3B3BD"/>
<path d="M1279.27 69.9411C1280.83 69.9493 1282.3 68.9672 1283.19 67.655C1284.07 66.3428 1284.44 64.7252 1284.55 63.1406C1284.65 64.6179 1284.74 66.1282 1285.33 67.4734C1285.92 68.8269 1287.1 70.0071 1288.55 70.1391C1287.21 70.3537 1286.12 71.4514 1285.53 72.7058C1284.94 73.9603 1284.76 75.3633 1284.59 76.7415C1284.22 75.2312 1283.85 73.6879 1283.01 72.3757C1282.19 71.0717 1280.81 70.0153 1279.28 70.0153L1279.27 69.9411Z" fill="#C9D3D8"/>
<path d="M179.033 115.297C180.595 115.305 182.065 114.323 182.949 113.01C183.833 111.698 184.201 110.081 184.315 108.496C184.407 109.973 184.499 111.484 185.096 112.829C185.682 114.182 186.865 115.363 188.311 115.495C186.968 115.709 185.877 116.807 185.291 118.061C184.706 119.316 184.522 120.719 184.35 122.097C183.982 120.587 183.615 119.043 182.777 117.731C181.95 116.427 180.572 115.371 179.045 115.371L179.033 115.297Z" fill="#A3B3BD"/>
</svg>
