<svg width="120" height="118" viewBox="0 0 120 118" fill="none" xmlns="http://www.w3.org/2000/svg">
<g opacity="0.4">
<mask id="mask0_3639_6062" style="mask-type:luminance" maskUnits="userSpaceOnUse" x="0" y="0" width="120" height="118">
<path d="M0.734375 0.191406H119.44V117.516H0.734375V0.191406Z" fill="white"/>
</mask>
<g mask="url(#mask0_3639_6062)">
<mask id="mask1_3639_6062" style="mask-type:luminance" maskUnits="userSpaceOnUse" x="-10" y="-17" width="144" height="147">
<path d="M-9.11719 19.99L94.2 -16.9922L133.274 92.1697L29.957 129.152L-9.11719 19.99Z" fill="white"/>
</mask>
<g mask="url(#mask1_3639_6062)">
<mask id="mask2_3639_6062" style="mask-type:luminance" maskUnits="userSpaceOnUse" x="-10" y="-17" width="144" height="147">
<path d="M-9.11719 19.99L94.2 -16.9922L133.274 92.1697L29.957 129.152L-9.11719 19.99Z" fill="white"/>
</mask>
<g mask="url(#mask2_3639_6062)">
<path d="M62.6595 54.0771C63.9374 51.2841 66.024 48.9765 68.1861 46.8467C70.7472 44.3287 73.497 41.9941 75.8047 39.2281C76.4139 38.4948 75.6375 37.5297 74.7856 37.767C72.0628 38.538 69.2267 38.9585 66.3906 38.813C63.9751 38.6943 61.5812 38.1444 59.322 37.2871C56.9604 36.3921 54.5665 35.2436 52.4691 33.8202C50.0751 32.1919 48.1071 30.0837 46.495 27.6843C44.9476 25.3767 43.7182 22.8857 42.5536 20.3677C42.3541 19.8663 42.1277 19.381 41.8796 18.9011C41.8689 18.8742 41.8581 18.8526 41.8473 18.8257C41.8419 18.8149 41.8311 18.7987 41.8203 18.7879C41.7934 18.7286 41.7664 18.6693 41.7341 18.61C41.4914 18.1733 40.8228 18.1193 40.4508 18.3835C40.4077 18.4105 40.3753 18.4482 40.3376 18.4806C40.0626 18.6855 39.9224 19.0305 40.1111 19.4511C40.4077 20.0981 40.7042 20.7451 41.0062 21.3921C41.6478 23.1229 41.9497 24.9885 42.0737 26.8109C42.2517 29.4906 42.0144 32.1865 41.4375 34.8069C40.8768 37.3248 39.971 39.7565 38.5745 41.9402C36.9623 44.4635 34.9135 46.7173 32.6597 48.6853C30.0123 50.993 27.0846 52.9556 24.0544 54.7241C23.6662 54.9559 23.5746 55.5275 23.7741 55.8995C24.0113 56.3362 24.4373 56.4548 24.8955 56.347C27.8664 55.6838 30.9559 55.3819 33.9807 55.8078C36.8275 56.2068 39.5073 57.2151 42.0306 58.563C48.215 61.8682 53.8332 66.5968 57.6883 72.4954C58.8583 74.2854 59.8612 76.1887 60.6861 78.1675C61.2415 80.3404 61.9101 82.4863 62.6649 84.5999C62.9992 85.5435 64.6761 85.2631 64.4496 84.2171C64.4334 84.1362 64.4119 84.0607 64.3957 83.9799H64.4011C64.3957 83.9637 64.3903 83.9475 64.3849 83.9367C63.932 81.8663 63.3065 79.8605 62.5247 77.9303C61.2631 73.1046 60.5621 68.1388 60.8317 63.146C60.9935 60.1159 61.3925 56.8592 62.6595 54.0771ZM59.4137 71.8538C57.5751 68.9422 55.3375 66.2787 52.7495 63.9063C50.0482 61.4314 47.018 59.2909 43.8476 57.4685C41.1679 55.9318 38.2833 54.7025 35.237 54.1418C33.118 53.7482 30.9829 53.705 28.8639 53.8884C33.0317 51.09 36.8815 47.7525 39.6906 43.5739C42.8717 38.8453 44.1765 33.0168 43.9501 27.3554C43.9447 27.2422 43.9339 27.1344 43.9285 27.0265C45.6539 29.9219 47.7189 32.5801 50.4633 34.6451C52.6901 36.3166 55.2674 37.6376 57.8393 38.6836C60.2386 39.6595 62.7674 40.3496 65.35 40.5761C67.7332 40.7864 70.1002 40.6246 72.4294 40.1933C68.5851 44.1292 64.029 47.4937 61.4248 52.4164C59.8989 55.2956 59.349 58.6277 59.0848 61.8412C58.8098 65.1841 58.9446 68.5378 59.4137 71.8538ZM85.9843 8.29013C85.9736 8.29013 85.9574 8.29013 85.9412 8.29013C85.9304 8.28473 85.9196 8.28474 85.9089 8.28474C86.0113 8.30091 86.0167 8.29552 85.9843 8.29013ZM86.2539 8.34944H86.2485C86.2216 8.34405 86.1892 8.33865 86.1623 8.32787C86.1785 8.33326 86.2108 8.34405 86.2539 8.34944ZM85.4613 12.032C86.5127 12.183 87.6288 11.7139 88.2651 10.8674C88.6317 10.3821 88.8258 9.84296 88.8474 9.23369C88.8689 8.66216 88.6371 8.04211 88.2705 7.60537C87.3269 6.48927 85.704 6.06872 84.4261 6.87209C84.4153 6.87748 84.4046 6.88827 84.3938 6.89366C84.383 6.90444 84.3668 6.90983 84.356 6.92062C83.488 7.55145 83.089 8.68912 83.2885 9.72973C83.3963 10.2959 83.6174 10.8081 84.0056 11.234C84.3884 11.6492 84.9006 11.9458 85.4613 12.032ZM85.6662 10.188C85.6501 10.1826 85.6393 10.1826 85.6231 10.1826C85.4937 10.1449 85.6015 10.1665 85.6662 10.188ZM86.9764 9.43858C86.9764 9.44397 86.971 9.44397 86.971 9.44936C86.9926 9.39005 87.0196 9.33613 86.9764 9.43858ZM86.9495 9.52484C86.9495 9.51406 86.9549 9.49789 86.9603 9.47632C86.9549 9.49249 86.9495 9.51406 86.9495 9.52484ZM86.2378 8.34405C86.2432 8.34405 86.2431 8.34944 86.2485 8.34944C86.2647 8.35483 86.2809 8.36022 86.2971 8.36022C86.2809 8.36022 86.2701 8.35483 86.2539 8.34944C86.3025 8.371 86.351 8.39257 86.3941 8.41414C86.4373 8.43571 86.4804 8.45727 86.5235 8.47884C86.5936 8.53276 86.6637 8.58667 86.7338 8.64598C86.75 8.65677 86.7662 8.68373 86.7877 8.6999C86.7715 8.68373 86.75 8.65677 86.7176 8.61903C86.7446 8.65138 86.7769 8.68373 86.8039 8.71608C86.8093 8.72147 86.8093 8.73225 86.8147 8.73765C86.8201 8.74304 86.8255 8.74843 86.8201 8.74304C86.8632 8.79696 86.8956 8.85627 86.9333 8.91557C86.9549 8.9641 86.971 9.01802 86.9872 9.06654C86.998 9.13664 87.0034 9.20134 87.0088 9.27143C87.0034 9.30917 86.998 9.34692 86.9872 9.38466C86.9818 9.40623 86.971 9.43318 86.9657 9.46014C86.9333 9.53024 86.9009 9.59494 86.8632 9.66503C86.8362 9.69738 86.8093 9.73512 86.7823 9.76747C86.7608 9.79443 86.7338 9.816 86.7068 9.84296C86.7068 9.84296 86.5774 9.96158 86.5235 9.99932C86.475 10.0317 86.4265 10.0586 86.3779 10.0856C86.2809 10.1287 86.1838 10.1665 86.0814 10.1934C86.0329 10.2042 85.9897 10.2096 85.9412 10.215C85.9089 10.2204 85.8765 10.2204 85.8442 10.2204C85.7849 10.2096 85.7309 10.1988 85.6716 10.188C85.6393 10.1719 85.5854 10.1611 85.5692 10.1503C85.5476 10.1395 85.526 10.1287 85.4991 10.1125C85.4452 10.0748 85.3966 10.0317 85.3481 9.98314C85.3319 9.96158 85.3158 9.94001 85.2996 9.91844C85.2672 9.87531 85.2457 9.83217 85.2187 9.78365C85.1756 9.6866 85.1432 9.58955 85.1109 9.4871C85.0947 9.36848 85.0839 9.24447 85.0839 9.12046C85.0839 9.0935 85.0893 9.06654 85.0947 9.03958C85.1055 8.9641 85.1271 8.88861 85.1432 8.81313C85.154 8.78617 85.1648 8.75382 85.181 8.72147C85.1971 8.69451 85.2133 8.66216 85.2295 8.62981C85.2672 8.58128 85.305 8.53276 85.3481 8.48423C85.3319 8.49502 85.3158 8.5058 85.2996 8.52197C85.3158 8.5058 85.3319 8.49502 85.3481 8.47884C85.3535 8.47884 85.3535 8.47345 85.3535 8.47345C85.3859 8.43571 85.4344 8.40875 85.4344 8.40875C85.4398 8.40336 85.4398 8.40336 85.4452 8.39796C85.4506 8.39796 85.456 8.39257 85.4613 8.39257C85.5422 8.35483 85.6285 8.32787 85.7094 8.3063C85.7687 8.29552 85.828 8.28474 85.8873 8.28474C85.8927 8.28474 85.8981 8.28474 85.9089 8.28474C85.8873 8.28474 85.8657 8.27934 85.8388 8.27395C85.8711 8.27934 85.9035 8.28474 85.9412 8.28474C85.9574 8.29013 85.9736 8.29013 85.9843 8.29013C85.9951 8.29552 86.0005 8.29552 86.0059 8.29552C86.0598 8.30091 86.1084 8.31709 86.1623 8.32787C86.103 8.31169 86.1838 8.32248 86.2378 8.34405ZM85.4128 8.43031C85.3913 8.44649 85.3697 8.46267 85.3481 8.47884V8.48423C85.4182 8.43031 85.4398 8.40875 85.4344 8.40875C85.429 8.41414 85.4236 8.42492 85.4128 8.43031ZM86.8147 8.73765C86.8093 8.73225 86.7985 8.71608 86.7877 8.6999C86.8039 8.72686 86.8147 8.73765 86.8201 8.74304C86.8201 8.74304 86.8201 8.73765 86.8147 8.73765ZM97.3017 30.6552C95.0317 30.3748 92.9343 29.4528 91.209 27.9485C90.4649 27.2961 89.516 28.175 89.7478 28.9352C89.7478 28.9784 89.7424 29.0161 89.7478 29.0646C90.0228 31.2645 89.241 33.405 87.6504 34.9417C87.0951 35.4862 87.672 36.5754 88.4268 36.4568C90.7291 36.0901 93.0476 36.7533 94.7945 38.3061C95.2906 38.7483 96.2125 38.4571 96.2934 37.767C96.5307 35.745 97.086 33.7986 97.9649 31.9546C98.2075 31.4478 97.8948 30.7253 97.3017 30.6552ZM104.333 68.9206C100.537 69.4059 96.7571 68.4354 93.4574 66.5536C91.8344 65.6263 90.2924 64.4778 89.0469 63.0759C87.6828 61.5447 86.5882 59.7816 85.6339 57.9699C84.5555 55.9426 83.6659 53.8237 82.7385 51.7316C82.2586 50.6479 80.5171 51.2626 81.0023 52.3517C81.5469 53.5756 82.0807 54.8265 82.6468 56.0612C82.5013 56.3254 82.4797 56.6597 82.6954 56.9886C83.4772 58.1586 83.7252 59.7223 83.8222 61.1565C83.9463 62.9897 83.7953 64.8283 83.4772 66.6345C83.186 68.2898 82.7655 69.9505 82.0645 71.4817C81.2288 73.3095 79.8647 74.8893 78.4359 76.2804C76.5703 78.0974 74.4298 79.6125 72.3 81.0952C71.4751 81.6722 72.176 83.1765 73.1411 82.7182C76.8399 80.9766 81.1425 79.1596 84.9222 81.7315C86.5181 82.8206 87.7636 84.3303 88.8312 85.9317C90.136 87.8997 91.2252 90.0186 92.1795 92.1753C93.3441 94.8227 94.2769 97.5617 94.9724 100.365C95.1018 100.851 95.7111 101.083 96.1532 100.926C96.6601 100.743 96.8326 100.231 96.7086 99.7454C94.5411 91.4798 94.1529 81.8771 99.8035 74.857C101.216 73.0993 102.936 71.6543 104.931 70.5975C105.745 70.1661 105.19 68.8128 104.333 68.9206ZM95.5008 78.4317C93.8402 82.1628 93.2525 86.2552 93.3819 90.3206C92.53 88.5089 91.5648 86.7512 90.4811 85.0852C88.1465 81.505 84.7604 78.394 80.2259 78.5719C79.6274 78.5989 79.0343 78.6797 78.4466 78.793C80.5063 77.0406 82.3503 75.0511 83.5473 72.6571C85.1918 69.3843 85.8064 65.3621 85.6878 61.7172C86.1838 62.4559 86.7122 63.173 87.2945 63.8577C89.9473 66.9796 93.6838 69.1902 97.6198 70.2578C98.7898 70.5759 99.9922 70.7754 101.2 70.8563C98.7197 72.8566 96.7949 75.5255 95.5008 78.4317ZM63.3065 109.866C63.0909 109.742 62.8267 109.704 62.5733 109.801C61.1606 110.351 60.1955 111.769 60.2548 113.29C60.3141 114.826 61.441 116.131 62.8806 116.552C64.1692 116.929 65.5819 116.352 66.4014 115.333C67.2965 114.233 67.4313 112.767 66.7034 111.543C66.0186 110.389 64.6275 109.731 63.3065 109.866ZM65.2098 112.621C65.1991 112.605 65.1883 112.583 65.1775 112.556C65.1829 112.562 65.1991 112.594 65.2098 112.621ZM63.5869 114.826C63.5977 114.826 63.6354 114.832 63.6948 114.832C63.6894 114.842 63.6408 114.837 63.5869 114.826ZM23.8819 35.4701C23.8819 35.4701 23.8819 35.4701 23.8873 35.4701C23.9035 35.4539 23.9358 35.4377 23.9628 35.4269C23.9466 35.4269 23.9089 35.4377 23.8819 35.4701ZM25.1274 36.8719C26.1842 36.1494 26.8312 34.7583 26.3675 33.5075C26.1087 32.8119 25.5533 32.2242 24.8794 31.9169C24.5181 31.7551 24.1515 31.6796 23.7579 31.6742C23.553 31.6689 23.3589 31.7012 23.1756 31.7605C21.9948 31.5125 20.7655 32.3105 20.2964 33.3781C19.7464 34.6182 20.2371 36.0739 21.3478 36.8234C22.507 37.5998 23.9628 37.6699 25.1274 36.8719ZM22.0056 34.8824C22.0217 34.9201 22.0271 34.9471 22.0056 34.8824V34.8824ZM21.9624 34.8069C21.9678 34.8069 21.9732 34.8123 21.9786 34.823C21.9678 34.8123 21.9678 34.8069 21.9624 34.8069ZM23.1971 35.621C23.2241 35.621 23.2511 35.621 23.2511 35.621C23.2457 35.6264 23.2241 35.621 23.1971 35.621ZM24.5127 34.9147C24.5127 34.9147 24.5127 34.9201 24.5073 34.9201C24.5397 34.877 24.5828 34.8284 24.5127 34.9147ZM24.4804 34.9686C24.4804 34.9686 24.4804 34.9632 24.4858 34.9524C24.4858 34.9578 24.4804 34.9686 24.4804 34.9686ZM24.6853 34.2785C24.6853 34.2947 24.6907 34.3 24.6853 34.2785V34.2785ZM22.7874 33.556C22.7928 33.556 22.7981 33.556 22.7981 33.556C22.7658 33.5668 22.7334 33.5668 22.7173 33.5614C22.7442 33.5614 22.7658 33.556 22.7874 33.556ZM21.9139 34.6343C21.9139 34.6289 21.9139 34.6236 21.9139 34.6236C21.9031 34.5966 21.8977 34.575 21.8977 34.575C21.9031 34.575 21.9085 34.5804 21.9139 34.5966C21.9085 34.5319 21.9085 34.4564 21.8977 34.3971C21.9031 34.3917 21.9031 34.3863 21.9031 34.3809C21.9085 34.3432 21.9193 34.3054 21.9247 34.2677C21.9516 34.2246 21.9786 34.1329 21.9948 34.0952C22.011 34.0628 22.0271 34.0358 22.0379 34.0089C22.1026 33.9334 22.1619 33.8579 22.232 33.7824C22.2751 33.7555 22.3183 33.7177 22.3614 33.6854C22.3884 33.6638 22.4153 33.6476 22.4423 33.6315C22.4908 33.6153 22.5447 33.5991 22.5933 33.5829C22.5609 33.5883 22.5879 33.5614 22.6526 33.5614H22.658C22.6634 33.556 22.6687 33.556 22.6741 33.556C22.6741 33.556 22.6687 33.556 22.6634 33.5614C22.6741 33.5614 22.6795 33.5614 22.6849 33.5614C22.9815 33.7177 23.3212 33.6854 23.6554 33.5128C23.3966 33.6476 23.6339 33.5614 23.7255 33.5182H23.7309C23.7579 33.5182 23.7848 33.5128 23.8118 33.5128C23.8495 33.5236 23.8981 33.529 23.9358 33.5344C23.9358 33.5344 23.9843 33.5452 24.0167 33.556C24.0436 33.5668 24.0652 33.5775 24.0922 33.5883C24.1245 33.6045 24.1623 33.6207 24.1946 33.6369C24.227 33.653 24.3779 33.7016 24.2431 33.6638C24.1245 33.6261 24.2485 33.6692 24.2863 33.7016C24.3186 33.7231 24.351 33.7501 24.3779 33.7717C24.3833 33.777 24.4049 33.804 24.4265 33.8256C24.4211 33.8094 24.4265 33.804 24.4588 33.8471C24.4642 33.8579 24.4696 33.8633 24.475 33.8741C24.4912 33.8849 24.502 33.8957 24.502 33.8957C24.4966 33.8957 24.4912 33.8903 24.4912 33.8903C24.5127 33.9226 24.5397 33.955 24.5613 33.9873C24.5667 33.9927 24.5667 33.9981 24.572 34.0035C24.5882 34.0682 24.6314 34.1491 24.6529 34.2084C24.6583 34.2569 24.6745 34.3216 24.6745 34.3378C24.6745 34.3432 24.6745 34.354 24.6745 34.3647C24.6799 34.3432 24.6853 34.3432 24.6745 34.4294C24.6799 34.4402 24.6799 34.451 24.6799 34.4564C24.6745 34.451 24.6745 34.451 24.6745 34.4456C24.6691 34.4941 24.6098 34.6451 24.6152 34.7044C24.6152 34.7044 24.6098 34.7098 24.6098 34.7152C24.5936 34.7476 24.5774 34.7853 24.5613 34.8177C24.5559 34.8284 24.5127 34.9039 24.4912 34.9417C24.4426 35.0118 24.3887 35.0765 24.3348 35.1412C24.3078 35.1627 24.2863 35.1897 24.2647 35.2113C24.2485 35.2274 24.227 35.2436 24.2108 35.2598C24.1407 35.3137 24.0706 35.3622 23.9951 35.4108C23.9897 35.4161 23.9789 35.4215 23.9628 35.4269C23.9736 35.4269 23.9736 35.4323 23.9304 35.4485C23.9142 35.4593 23.8981 35.4647 23.8873 35.4701C23.8765 35.4755 23.8711 35.4808 23.8711 35.4862C23.8711 35.4808 23.8765 35.4755 23.8819 35.4701C23.8064 35.5024 23.7363 35.5348 23.6608 35.5563C23.6447 35.5617 23.6177 35.5671 23.5907 35.5725C23.6069 35.5779 23.5907 35.5833 23.5099 35.5941C23.4991 35.5995 23.4937 35.6049 23.4883 35.6049C23.4937 35.6049 23.4991 35.5995 23.4991 35.5995C23.402 35.6102 23.2996 35.6102 23.1971 35.6156C23.1864 35.6156 23.1864 35.6156 23.1756 35.6156C23.1324 35.6102 23.0785 35.5941 23.0623 35.5941C23.0246 35.5887 22.9815 35.5779 22.9437 35.5671C22.9222 35.5617 22.9006 35.5617 22.879 35.5563C22.7874 35.5294 22.7981 35.5348 22.9222 35.5725C22.8305 35.5671 22.7173 35.4916 22.6364 35.4539C22.5771 35.4269 22.5232 35.3946 22.4693 35.3676C22.4423 35.3514 22.4261 35.3461 22.4207 35.3461C22.3614 35.2975 22.2967 35.2274 22.2644 35.2005C22.232 35.1735 22.2051 35.1412 22.1727 35.1142C22.1727 35.1142 22.1727 35.1142 22.1727 35.1088C22.1457 35.0819 22.0325 34.9039 21.9894 34.8338C21.9732 34.7961 21.957 34.7583 21.9409 34.7206C21.9409 34.7152 21.9301 34.6829 21.9193 34.6505C21.9247 34.6883 21.9193 34.7098 21.9139 34.6343ZM23.4991 35.5995C23.5045 35.5941 23.5045 35.5941 23.5099 35.5941C23.5314 35.5887 23.5584 35.5779 23.5907 35.5725C23.5746 35.5725 23.526 35.5779 23.4991 35.5995ZM24.6745 34.4456C24.6745 34.4402 24.6745 34.4348 24.6745 34.4294C24.6745 34.4079 24.6745 34.3863 24.6745 34.3647C24.6691 34.3863 24.6637 34.4294 24.6745 34.4456ZM22.6634 33.5614C22.6634 33.5614 22.6634 33.5614 22.658 33.5614C22.6364 33.5668 22.6202 33.5775 22.5933 33.5829C22.6094 33.5829 22.631 33.5722 22.6634 33.5614ZM24.4858 33.8903C24.4858 33.8849 24.4804 33.8795 24.475 33.8741C24.4642 33.8633 24.4426 33.8417 24.4265 33.8256C24.4373 33.8471 24.4588 33.8795 24.4858 33.8903ZM21.9139 34.5966C21.9139 34.602 21.9139 34.6128 21.9139 34.6236C21.9139 34.6343 21.9193 34.6397 21.9193 34.6505C21.9193 34.6343 21.9139 34.6128 21.9139 34.5966ZM116.41 89.6843C115.294 90.0833 115.914 91.8195 117.03 91.4205C118.152 91.0215 117.532 89.28 116.41 89.6843ZM38.7955 112.767C38.6392 112.696 38.4882 112.621 38.3318 112.551C38.224 112.492 38.1108 112.465 37.9922 112.47C37.8682 112.454 37.7441 112.47 37.6309 112.513C37.5069 112.551 37.4045 112.621 37.3236 112.707C37.2265 112.783 37.1564 112.874 37.1079 112.988C37.081 113.063 37.0594 113.139 37.0324 113.214C37.0055 113.376 37.0163 113.538 37.0702 113.694C37.1079 113.769 37.1457 113.839 37.1834 113.915C37.2805 114.044 37.3991 114.147 37.5447 114.217C37.701 114.292 37.852 114.362 38.0083 114.438C38.1162 114.492 38.2294 114.519 38.348 114.513C38.472 114.535 38.596 114.519 38.7093 114.47C38.8333 114.433 38.9357 114.368 39.0166 114.276C39.1137 114.201 39.1838 114.109 39.2323 113.996C39.2592 113.92 39.2808 113.845 39.3078 113.775C39.3347 113.608 39.3239 113.446 39.27 113.29C39.2323 113.219 39.1945 113.144 39.1568 113.074C39.0597 112.939 38.9411 112.837 38.7955 112.767ZM12.1656 75.628C11.0495 76.027 11.6695 77.7631 12.7856 77.3641C13.9071 76.9651 13.2871 75.2236 12.1656 75.628ZM68.0567 23.0798C69.1728 22.6808 68.5527 20.9392 67.4313 21.3436C66.3152 21.7426 66.9352 23.4788 68.0567 23.0798ZM46.371 2.08959C47.4871 1.6906 46.867 -0.0509464 45.7455 0.353437C44.6294 0.752427 45.2495 2.48858 46.371 2.08959ZM117.273 51.4243C116.157 51.8233 116.777 53.5595 117.893 53.1605C119.009 52.7615 118.389 51.0199 117.273 51.4243ZM1.84033 37.1523C0.724229 37.5513 1.34428 39.2874 2.46577 38.8884C3.58187 38.4895 2.96181 36.7533 1.84033 37.1523ZM36.7952 79.3645C36.7251 79.3375 36.6496 79.316 36.5741 79.289C36.4124 79.262 36.2506 79.2728 36.0943 79.3267C35.981 79.3699 35.8678 79.4076 35.7546 79.4508C35.6306 79.4885 35.5281 79.5532 35.4473 79.6449C35.3502 79.7203 35.2801 79.812 35.2316 79.9252C35.1723 80.0331 35.1453 80.1463 35.1507 80.2703C35.1345 80.3889 35.1507 80.5129 35.1938 80.6316C35.2316 80.7017 35.2747 80.7771 35.3125 80.8472C35.4041 80.982 35.5227 81.0845 35.6683 81.1546C35.7438 81.1761 35.8193 81.2031 35.8948 81.2247C36.0565 81.257 36.2183 81.2408 36.3746 81.1869C36.4879 81.1492 36.6011 81.106 36.7143 81.0683C36.8329 81.0305 36.9354 80.9605 37.0216 80.8742C37.1187 80.7987 37.1888 80.707 37.2373 80.5938C37.2912 80.4806 37.3182 80.3674 37.3182 80.2487C37.3344 80.1247 37.3182 80.0061 37.2697 79.8875C37.2319 79.812 37.1942 79.7419 37.1564 79.6664C37.0648 79.537 36.9462 79.4346 36.7952 79.3645Z" fill="#76E1D9"/>
</g>
</g>
</g>
</g>
</svg>
