<svg width="358" height="359" viewBox="0 0 358 359" fill="none" xmlns="http://www.w3.org/2000/svg">
<ellipse cx="174.728" cy="308.856" rx="157.428" ry="19.9519" fill="#D0F7F1"/>
<path d="M298.676 253.301C310.584 234.755 298.772 210.166 276.852 207.871C265.111 206.642 253.763 212.507 247.974 222.795L211.811 287.066C206.357 296.758 213.361 308.735 224.482 308.735L263.084 308.735L298.676 253.301Z" fill="#055131"/>
<path d="M297.227 279.954C295.881 276.699 292.15 275.152 288.895 276.498L258.481 289.077L263.357 300.866L293.771 288.286C297.026 286.94 298.573 283.21 297.227 279.954Z" fill="#055131"/>
<path d="M300.368 290.887C299.7 287.428 296.354 285.166 292.896 285.834L260.58 292.074L262.999 304.6L295.314 298.359C298.773 297.691 301.036 294.346 300.368 290.887Z" fill="#055131"/>
<path d="M300.53 302.331C300.531 298.809 297.676 295.952 294.153 295.951L261.24 295.943L261.237 308.7L294.15 308.708C297.672 308.709 300.529 305.854 300.53 302.331Z" fill="#055131"/>
<path d="M58.3245 253.301C46.4168 234.755 58.2295 210.166 80.1491 207.871C91.8896 206.642 103.238 212.507 109.027 222.795L145.19 287.066C150.644 296.758 143.64 308.735 132.519 308.735L93.9169 308.735L58.3245 253.301Z" fill="#055131"/>
<path d="M59.7731 279.955C61.1195 276.699 64.8498 275.152 68.1051 276.498L98.519 289.077L93.6434 300.866L63.2295 288.287C59.9742 286.94 58.4268 283.21 59.7731 279.955Z" fill="#055131"/>
<path d="M56.6333 290.887C57.3013 287.428 60.6467 285.166 64.1055 285.834L96.421 292.074L94.0021 304.6L61.6866 298.359C58.2278 297.691 55.9654 294.346 56.6333 290.887Z" fill="#055131"/>
<path d="M56.4714 302.332C56.4705 298.809 59.3254 295.952 62.8481 295.952L95.7607 295.943L95.764 308.7L62.8514 308.708C59.3287 308.709 56.4723 305.854 56.4714 302.332Z" fill="#055131"/>
<path d="M89.417 174.44C89.417 170.736 89.417 168.885 89.5241 167.321C91.0878 144.494 109.259 126.324 132.086 124.76C133.649 124.653 135.5 124.653 139.204 124.653H221.128C224.831 124.653 226.683 124.653 228.246 124.76C251.073 126.324 269.244 144.494 270.808 167.321C270.915 168.885 270.915 170.736 270.915 174.44V215.402C270.915 265.521 230.285 306.151 180.166 306.151C130.047 306.151 89.417 265.521 89.417 215.402V174.44Z" fill="#00753F"/>
<mask id="mask0_7373_7906" style="mask-type:alpha" maskUnits="userSpaceOnUse" x="89" y="124" width="183" height="183">
<path d="M89.6152 174.44C89.6152 170.736 89.6152 168.885 89.7223 167.321C91.286 144.494 109.457 126.324 132.284 124.76C133.847 124.653 135.699 124.653 139.402 124.653H221.326C225.03 124.653 226.881 124.653 228.444 124.76C251.271 126.324 269.442 144.494 271.006 167.321C271.113 168.885 271.113 170.736 271.113 174.44V215.402C271.113 265.521 230.483 306.151 180.364 306.151C130.245 306.151 89.6152 265.521 89.6152 215.402V174.44Z" fill="#139157"/>
</mask>
<g mask="url(#mask0_7373_7906)">
<path d="M112.517 214.49C112.517 190.144 132.252 170.409 156.598 170.409H202.859C227.204 170.409 246.94 190.144 246.94 214.49V239.114C246.94 276.234 216.848 306.325 179.728 306.325C142.608 306.325 112.517 276.234 112.517 239.114V214.49Z" fill="#3DA94E"/>
</g>
<rect x="115.83" y="100.179" width="53.3104" height="53.3104" rx="26.6552" fill="#00753F"/>
<rect x="121.644" y="105.994" width="41.6791" height="41.6791" rx="20.8395" fill="white"/>
<rect x="193.857" y="100.179" width="53.3104" height="53.3104" rx="26.6552" fill="#00753F"/>
<rect x="199.671" y="105.994" width="41.6791" height="41.6791" rx="20.8395" fill="white"/>
<circle cx="142.607" cy="124.532" r="9.32933" fill="black"/>
<circle cx="220.392" cy="124.532" r="9.32933" fill="black"/>
<rect x="168.685" y="145.445" width="9.45049" height="5.81568" rx="2.90784" transform="rotate(-10.6318 168.685 145.445)" fill="#213027"/>
<rect width="9.45049" height="5.81568" rx="2.90784" transform="matrix(-0.982833 -0.184498 -0.184498 0.982833 195.008 145.445)" fill="#213027"/>
<path d="M144.705 94.0812C145.758 93.028 145.768 91.3014 144.571 90.4155C142.606 88.962 140.361 87.914 137.966 87.3443C134.692 86.5658 131.267 86.7114 128.071 87.7649C124.875 88.8184 122.035 90.7384 119.866 93.3111C118.279 95.1935 117.097 97.3713 116.382 99.708C115.946 101.132 116.981 102.515 118.454 102.735C119.927 102.955 121.274 101.923 121.798 100.529C122.308 99.1719 123.047 97.9056 123.99 96.7875C125.515 94.9784 127.512 93.6282 129.76 92.8873C132.007 92.1465 134.416 92.0441 136.718 92.5916C138.141 92.9299 139.488 93.5083 140.705 94.2957C141.955 95.1049 143.652 95.1343 144.705 94.0812Z" fill="#213027"/>
<path d="M242.763 98.141C244.136 97.5632 244.797 95.968 244.023 94.6958C243.163 93.284 242.113 91.9925 240.899 90.8591C239.025 89.1105 236.803 87.7778 234.378 86.9487C231.954 86.1195 229.381 85.8125 226.829 86.0479C225.175 86.2005 223.554 86.5786 222.01 87.1687C220.619 87.7004 220.165 89.3662 220.896 90.6635C221.628 91.9609 223.27 92.3883 224.692 91.9447C225.546 91.6782 226.428 91.5013 227.324 91.4187C229.119 91.2532 230.928 91.469 232.633 92.0521C234.339 92.6352 235.901 93.5724 237.219 94.802C237.877 95.4161 238.466 96.0961 238.978 96.8299C239.831 98.0512 241.391 98.7188 242.763 98.141Z" fill="#213027"/>
<path d="M134.753 172.291C131.278 166.64 135.799 159.459 142.397 160.149L182.009 164.292C188.73 164.995 191.603 173.202 186.787 177.944L183.658 181.024C169.782 194.684 146.807 191.891 136.607 175.305L134.753 172.291Z" fill="#00753F"/>
<path d="M136.688 171.589C134.059 167.314 137.478 161.881 142.47 162.403L180.627 166.394C185.72 166.927 187.896 173.144 184.247 176.736L183.675 177.3C169.817 190.942 146.873 188.153 136.688 171.589Z" fill="#2B3F33"/>
<mask id="mask1_7373_7906" style="mask-type:alpha" maskUnits="userSpaceOnUse" x="135" y="162" width="52" height="24">
<path d="M136.687 171.589C134.058 167.314 137.478 161.881 142.469 162.403L180.626 166.394C185.719 166.927 187.895 173.144 184.246 176.736L183.674 177.3C169.816 190.942 146.872 188.153 136.687 171.589Z" fill="black"/>
</mask>
<g mask="url(#mask1_7373_7906)">
<path d="M172.501 189.737C174.427 194.371 170.196 199.2 165.349 197.901L128.29 187.971C123.345 186.646 122.171 180.164 126.339 177.189L126.993 176.722C142.819 165.425 165.041 171.779 172.501 189.737Z" fill="#C58F7C"/>
</g>
<path fill-rule="evenodd" clip-rule="evenodd" d="M55.0457 161.86C60.6574 162.391 64.7762 167.37 64.2454 172.982C63.1641 184.413 73.3542 193.684 84.6326 191.531L85.6498 191.336C91.1865 190.279 96.5319 193.911 97.589 199.447C98.6462 204.984 95.0148 210.329 89.4781 211.387L88.4609 211.581C63.8226 216.285 41.5615 196.031 43.9237 171.059C44.4545 165.448 49.434 161.329 55.0457 161.86Z" fill="#00753F"/>
<path d="M24.917 119.22C25.0612 115.007 25.6638 110.717 27.4922 106.859C31.6588 97.975 42.4797 94.7406 51.359 94.8179C55.7213 94.8591 62.4528 96.5999 66.4804 98.4592C71.0076 100.519 75.236 105.788 77.1932 110.212C81.4731 119.962 79.825 133.018 78.6662 139.569C77.5073 146.121 71.4557 154.531 70.4256 155.752C71.5703 157.464 72.3989 159.367 72.872 161.371C73.2016 162.864 74.2884 166.696 73.6858 167.809C73.0832 168.921 71.3423 168.962 68.8805 169.184C59.665 169.913 50.4079 169.949 41.187 169.292C39.7294 169.189 38.4882 167.665 38.9517 166.356L42.4437 156.519C42.5116 156.325 42.6033 156.14 42.7166 155.968C42.5382 155.839 42.3663 155.702 42.2016 155.556C39.755 153.214 38.0076 150.238 37.1543 146.96C36.5023 143.741 36.3529 140.44 36.7113 137.174C32.931 136.392 29.5935 135.392 27.3428 132.297C24.6698 128.584 24.7676 123.593 24.917 119.22Z" fill="#FFB800"/>
<path fill-rule="evenodd" clip-rule="evenodd" d="M46.4217 119.377C48.3981 118.737 50.4864 118.516 52.5531 118.728C52.5704 118.73 52.5877 118.732 52.6051 118.733C58.9167 119.168 64.9673 121.421 70.0259 125.22C70.7082 125.733 71.6768 125.595 72.1893 124.913C72.7017 124.23 72.5641 123.262 71.8817 122.749C66.3528 118.597 59.7409 116.132 52.8432 115.652C50.3448 115.398 47.821 115.67 45.4336 116.449C45.4141 116.455 45.3948 116.462 45.3756 116.469C42.936 117.374 40.5444 119.224 39.5558 121.913C38.7576 124.047 38.9481 126.218 39.5615 128.186C40.1715 130.144 41.2266 131.993 42.2932 133.581C44.7891 137.37 47.6587 140.899 50.8588 144.115C51.4607 144.72 52.439 144.723 53.0439 144.121C53.6489 143.519 53.6513 142.541 53.0495 141.936C49.9934 138.864 47.2532 135.494 44.8701 131.875L44.862 131.863L44.8619 131.863C43.8698 130.387 42.9955 128.819 42.5118 127.267C42.0313 125.725 41.9641 124.292 42.4513 122.992L42.4551 122.982L42.455 122.982C43.0406 121.386 44.5698 120.071 46.4217 119.377Z" fill="#B96204"/>
<path fill-rule="evenodd" clip-rule="evenodd" d="M49.096 137.989C49.0709 137.136 48.3591 136.465 47.5061 136.49L38.2354 136.763C37.3825 136.788 36.7114 137.5 36.7365 138.353C36.7616 139.206 37.4734 139.877 38.3264 139.852L47.597 139.579C48.45 139.554 49.1211 138.842 49.096 137.989Z" fill="#B96204"/>
<path fill-rule="evenodd" clip-rule="evenodd" d="M71.1085 156.233C70.9214 155.4 70.0948 154.877 69.2622 155.064C60.0322 157.139 52.6583 157.229 43.3769 155.391C42.5398 155.225 41.7268 155.769 41.561 156.606C41.3952 157.443 41.9394 158.256 42.7765 158.422C52.4793 160.344 60.2886 160.248 69.9399 158.079C70.7724 157.892 71.2957 157.065 71.1085 156.233Z" fill="#B96204"/>
<path fill-rule="evenodd" clip-rule="evenodd" d="M65.9515 114.222C65.1337 114.465 64.6682 115.326 64.9118 116.144C65.1993 117.109 65.1856 118.138 64.8725 119.095C64.6073 119.906 65.0497 120.779 65.8608 121.044C66.6718 121.31 67.5444 120.867 67.8097 120.056C68.3181 118.502 68.3403 116.829 67.8734 115.262C67.6298 114.444 66.7693 113.978 65.9515 114.222Z" fill="#B96204"/>
<path fill-rule="evenodd" clip-rule="evenodd" d="M281.077 225.589C275.227 232.062 266.911 235.756 258.186 235.756H218.28C212.533 235.756 207.873 231.097 207.873 225.349C207.873 219.602 212.533 214.943 218.28 214.943H258.186C261.025 214.943 263.732 213.741 265.635 211.635L269.75 207.081C271.695 204.929 270.168 201.49 267.267 201.49V180.677C288.208 180.677 299.232 205.5 285.192 221.036L281.077 225.589Z" fill="#00753F"/>
<path fill-rule="evenodd" clip-rule="evenodd" d="M285.041 221.523C276.598 230.6 264.759 235.756 252.362 235.756H231.734C225.987 235.756 221.327 231.097 221.327 225.349C221.327 219.602 225.987 214.943 231.734 214.943H252.362C258.978 214.943 265.296 212.191 269.802 207.347C273.716 203.139 280.301 202.901 284.509 206.816C288.718 210.73 288.956 217.315 285.041 221.523Z" fill="#00753F"/>
<path d="M169.509 257.973C165.262 258.038 160.914 257.63 156.962 256.02C147.823 252.269 144.225 242.226 143.853 233.294C143.675 228.911 143.768 222.44 145.437 218.308C147.307 213.657 152.846 208.074 157.202 205.894C166.801 201.121 178.739 201.369 185.382 202.209C192.024 203.049 202.169 208.948 203.442 209.945C205.108 208.71 206.982 207.782 208.975 207.206C210.463 206.804 214.252 205.517 215.405 206.067C216.557 206.617 216.685 208.365 217.027 210.829C218.222 220.06 218.719 229.367 218.516 238.672C218.489 240.143 217.017 241.468 215.678 241.066C212.325 240.062 208.971 239.055 205.614 238.045C205.418 237.988 205.228 237.908 205.05 237.806C204.933 237.997 204.803 238.18 204.661 238.354C202.804 240.679 200.185 243.496 197.415 244.207C194.204 245.024 190.886 245.338 187.578 245.138C186.975 248.978 185.529 252.476 182.531 254.893C178.927 257.756 173.912 257.906 169.509 257.973Z" fill="#FFB800"/>
<path fill-rule="evenodd" clip-rule="evenodd" d="M203.881 209.178C203.053 209.407 202.568 210.264 202.797 211.092C205.339 220.269 205.801 227.678 204.402 237.078C204.276 237.928 204.862 238.719 205.711 238.846C206.561 238.972 207.352 238.386 207.479 237.536C208.942 227.703 208.452 219.856 205.795 210.262C205.566 209.434 204.709 208.949 203.881 209.178Z" fill="#B96204"/>
<path fill-rule="evenodd" clip-rule="evenodd" d="M172.683 247.764C172.731 248.622 173.466 249.277 174.324 249.229C178.125 249.014 181.885 248.336 185.522 247.209C186.342 246.955 186.802 246.084 186.547 245.264C186.293 244.443 185.422 243.984 184.602 244.238C181.207 245.29 177.696 245.923 174.148 246.123C173.29 246.172 172.635 246.906 172.683 247.764Z" fill="#B96204"/>
</svg>
