<svg width="372" height="372" viewBox="0 0 372 372" fill="none" xmlns="http://www.w3.org/2000/svg">
<ellipse cx="186.859" cy="318.964" rx="143" ry="22" fill="#FBE8F2"/>
<path d="M309.794 262.963C322.065 243.851 309.892 218.512 287.303 216.147C275.204 214.88 263.509 220.924 257.544 231.526L220.276 297.759C214.657 307.746 221.874 320.089 233.334 320.089L273.115 320.089L309.794 262.963Z" fill="#055131"/>
<path d="M308.297 290.43C306.91 287.075 303.066 285.481 299.711 286.868L268.369 299.831L273.393 311.979L304.736 299.016C308.09 297.629 309.685 293.785 308.297 290.43Z" fill="#055131"/>
<path d="M311.533 301.696C310.845 298.132 307.398 295.8 303.833 296.489L270.531 302.92L273.024 315.827L306.326 309.396C309.89 308.708 312.222 305.26 311.533 301.696Z" fill="#055131"/>
<path d="M311.701 313.49C311.702 309.86 308.76 306.916 305.13 306.915L271.213 306.907L271.209 320.053L305.127 320.061C308.757 320.062 311.701 317.12 311.701 313.49Z" fill="#055131"/>
<path d="M62.1028 262.963C49.8317 243.851 62.0049 218.512 84.5937 216.147C96.6925 214.88 108.387 220.924 114.353 231.526L151.62 297.759C157.24 307.746 150.022 320.089 138.562 320.089L98.7817 320.089L62.1028 262.963Z" fill="#055131"/>
<path d="M63.5991 290.43C64.9866 287.075 68.8308 285.481 72.1854 286.868L103.528 299.831L98.5032 311.979L67.161 299.016C63.8063 297.629 62.2116 293.785 63.5991 290.43Z" fill="#055131"/>
<path d="M60.3611 301.696C61.0494 298.132 64.4969 295.8 68.0613 296.489L101.363 302.92L98.8705 315.827L65.5686 309.396C62.0042 308.708 59.6727 305.26 60.3611 301.696Z" fill="#055131"/>
<path d="M60.195 313.49C60.1941 309.86 63.1362 306.916 66.7665 306.915L100.684 306.907L100.687 320.053L66.7698 320.061C63.1396 320.062 60.196 317.12 60.195 313.49Z" fill="#055131"/>
<path d="M94.1445 179.262C94.1445 175.446 94.1445 173.537 94.2549 171.927C95.8663 148.403 114.592 129.677 138.116 128.066C139.726 127.956 141.635 127.956 145.451 127.956H229.876C233.692 127.956 235.601 127.956 237.211 128.066C260.735 129.677 279.461 148.403 281.072 171.927C281.182 173.537 281.182 175.446 281.182 179.262V221.475C281.182 273.124 239.313 314.994 187.664 314.994C136.014 314.994 94.1445 273.124 94.1445 221.475V179.262Z" fill="#00753F"/>
<path d="M117.951 220.535C117.951 195.446 138.289 175.108 163.378 175.108H211.051C236.139 175.108 256.477 195.446 256.477 220.535V245.91C256.477 284.163 225.467 315.174 187.214 315.174C148.961 315.174 117.951 284.163 117.951 245.91V220.535Z" fill="#3DA94E"/>
<rect x="121.365" y="102.734" width="54.9377" height="54.9377" rx="27.4689" fill="#00753F"/>
<rect x="127.357" y="108.728" width="42.9513" height="42.9513" rx="21.4757" fill="white"/>
<rect x="201.773" y="102.734" width="54.9377" height="54.9377" rx="27.4689" fill="#00753F"/>
<rect x="207.768" y="108.728" width="42.9513" height="42.9513" rx="21.4757" fill="white"/>
<circle cx="148.958" cy="127.831" r="9.6141" fill="black"/>
<circle cx="229.118" cy="127.831" r="9.6141" fill="black"/>
<rect x="175.834" y="149.382" width="9.73896" height="5.99321" rx="2.9966" transform="rotate(-10.6318 175.834 149.382)" fill="#213027"/>
<rect width="9.73896" height="5.99321" rx="2.9966" transform="matrix(-0.982833 -0.184498 -0.184498 0.982833 202.961 149.382)" fill="#213027"/>
<path d="M151.122 96.4507C152.207 95.3653 152.218 93.586 150.984 92.6731C148.959 91.1752 146.646 90.0952 144.177 89.5082C140.804 88.7059 137.274 88.8559 133.98 89.9416C130.687 91.0272 127.76 93.0059 125.525 95.6571C123.889 97.597 122.672 99.8412 121.935 102.249C121.486 103.717 122.552 105.141 124.07 105.369C125.588 105.596 126.976 104.532 127.516 103.095C128.041 101.697 128.803 100.392 129.774 99.2396C131.346 97.3753 133.405 95.9838 135.721 95.2204C138.036 94.4569 140.519 94.3514 142.891 94.9156C144.357 95.2643 145.746 95.8603 147 96.6718C148.288 97.5057 150.037 97.536 151.122 96.4507Z" fill="#213027"/>
<path d="M225.917 96.4507C224.832 95.3653 224.821 93.586 226.055 92.6731C228.08 91.1752 230.393 90.0952 232.862 89.5082C236.235 88.7059 239.765 88.8559 243.059 89.9416C246.352 91.0272 249.279 93.0059 251.514 95.6571C253.15 97.597 254.368 99.8412 255.104 102.249C255.553 103.717 254.487 105.141 252.969 105.369C251.451 105.596 250.064 104.532 249.523 103.095C248.998 101.697 248.236 100.392 247.265 99.2396C245.693 97.3753 243.634 95.9838 241.319 95.2204C239.003 94.4569 236.52 94.3514 234.148 94.9156C232.682 95.2643 231.293 95.8603 230.039 96.6718C228.751 97.5057 227.002 97.536 225.917 96.4507Z" fill="#213027"/>
<path fill-rule="evenodd" clip-rule="evenodd" d="M73.7478 248.39C79.3256 246.769 82.5324 240.932 80.9105 235.354C77.6067 223.992 86.1296 212.638 97.9622 212.638H99.0294C104.838 212.638 109.547 207.929 109.547 202.12C109.547 196.312 104.838 191.603 99.0294 191.603H97.9622C72.1131 191.603 53.4942 216.407 60.7117 241.228C62.3336 246.806 68.17 250.012 73.7478 248.39Z" fill="#00753F"/>
<path d="M140.865 177.048C137.283 171.224 141.942 163.824 148.741 164.535L189.562 168.805C196.489 169.529 199.449 177.987 194.486 182.873L191.262 186.047C176.962 200.124 153.286 197.246 142.774 180.154L140.865 177.048Z" fill="#00753F"/>
<path d="M142.858 176.325C140.148 171.919 143.673 166.32 148.817 166.858L188.139 170.971C193.386 171.52 195.629 177.927 191.869 181.629L191.279 182.21C176.999 196.268 153.354 193.394 142.858 176.325Z" fill="#2B3F33"/>
<mask id="mask0_7356_11716" style="mask-type:alpha" maskUnits="userSpaceOnUse" x="141" y="166" width="53" height="26">
<path d="M142.858 176.325C140.148 171.919 143.673 166.32 148.817 166.858L188.139 170.971C193.386 171.52 195.629 177.927 191.869 181.629L191.279 182.21C176.999 196.268 153.354 193.394 142.858 176.325Z" fill="black"/>
</mask>
<g mask="url(#mask0_7356_11716)">
<path d="M179.766 195.026C181.751 199.802 177.391 204.779 172.396 203.44L134.206 193.207C129.11 191.842 127.9 185.161 132.195 182.096L132.869 181.615C149.178 169.972 172.079 176.521 179.766 195.026Z" fill="#C58F7C"/>
</g>
<path fill-rule="evenodd" clip-rule="evenodd" d="M274.881 252.68C272.532 247.367 274.936 241.157 280.249 238.809L295.35 232.135C302.849 228.821 301.728 217.848 293.715 216.117L273.559 211.765C267.881 210.538 264.272 204.942 265.498 199.264C266.724 193.586 272.321 189.977 277.999 191.203L298.155 195.556C326.082 201.586 329.985 239.826 303.853 251.375L288.752 258.049C283.439 260.397 277.229 257.993 274.881 252.68Z" fill="#00753F"/>
<path d="M254.487 242.532C251.318 241.599 247.743 242.899 244.478 242.398C244.2 242.355 243.923 242.294 243.646 242.212C240.309 241.229 238.401 237.727 239.383 234.39C240.366 231.053 243.868 229.144 247.205 230.127C247.481 230.208 247.746 230.306 248.001 230.42C251.109 231.807 253.45 234.993 256.714 235.954L263.811 238.044C265.658 238.589 267.597 237.532 268.142 235.684C268.531 234.36 268.104 232.931 267.051 232.039L264.643 229.997C262.941 228.554 260.533 228.307 258.393 227.676C255.056 226.693 253.147 223.191 254.13 219.854C255.113 216.517 258.615 214.608 261.952 215.591C262.993 215.898 263.895 216.45 264.614 217.165C266.96 219.502 268.044 223.159 270.682 225.16L286.875 237.441C292.144 241.438 294.393 248.276 292.525 254.62C291.392 258.466 288.849 261.743 285.405 263.796L265.068 275.916C262.906 277.204 261.455 279.423 259.745 281.269C258.104 283.039 255.788 284.161 253.64 283.529C250.303 282.546 248.395 279.044 249.377 275.707C249.942 273.79 251.626 272.454 253.59 271.849C256.352 270.999 259.474 270.881 261.909 269.326L268.418 265.171C270.773 263.668 270.007 260.049 267.246 259.628L254.481 258.845C250.79 258.618 247.222 261.224 243.533 261.473C242.809 261.522 242.065 261.446 241.329 261.229C237.992 260.247 236.083 256.745 237.066 253.407C238.049 250.07 241.551 248.162 244.888 249.144C247.245 249.839 249.496 251.289 251.952 251.283L261.074 251.262C262.546 251.259 263.841 250.288 264.256 248.876C264.775 247.114 263.768 245.265 262.006 244.746L254.487 242.532Z" fill="#00753F"/>
<path fill-rule="evenodd" clip-rule="evenodd" d="M68.1904 176.764C68.2017 177.632 68.9226 178.325 69.8006 178.311C90.1558 177.993 104.609 180.043 114.447 182.724C124.348 185.422 129.416 188.715 131.209 190.733C131.788 191.384 132.792 191.447 133.452 190.873C134.113 190.299 134.179 189.306 133.601 188.655C131.205 185.958 125.429 182.454 115.3 179.694C105.108 176.916 90.343 174.846 69.7596 175.168C68.8816 175.182 68.1791 175.897 68.1904 176.764Z" fill="#B96204"/>
<path fill-rule="evenodd" clip-rule="evenodd" d="M70.7 193.044C70.0701 193.651 70.0555 194.646 70.6672 195.266C71.8129 196.429 73.67 197.222 75.7287 197.756C77.8441 198.304 80.4008 198.636 83.1694 198.727C88.7002 198.909 95.256 198.136 101.102 196.04C109.61 192.99 114.134 195.907 115.143 197.15C115.691 197.826 116.692 197.933 117.377 197.389C118.063 196.845 118.174 195.856 117.626 195.18C115.587 192.666 109.518 189.683 100.026 193.086C94.6214 195.023 88.4791 195.757 83.2845 195.586C80.6903 195.501 78.3774 195.191 76.5438 194.715C74.6536 194.225 73.4824 193.612 72.9481 193.07C72.3363 192.449 71.3298 192.438 70.7 193.044Z" fill="#B96204"/>
<path fill-rule="evenodd" clip-rule="evenodd" d="M75.449 160.64C74.8784 160.75 74.1138 161.166 73.2794 162.389C72.4352 163.627 71.6725 165.49 71.1413 167.969C70.0816 172.913 70.0748 179.682 71.5161 187.046C72.9573 194.409 75.5167 200.681 78.3634 204.867C79.7905 206.965 81.2002 208.408 82.4495 209.239C83.6842 210.061 84.5495 210.16 85.1201 210.049C85.6907 209.939 86.4553 209.523 87.2897 208.3C88.1339 207.062 88.8966 205.199 89.4278 202.72C90.4875 197.776 90.4943 191.007 89.053 183.643C87.6118 176.28 85.0524 170.008 82.2057 165.822C80.7786 163.724 79.3689 162.282 78.1196 161.45C76.8849 160.628 76.0196 160.529 75.449 160.64ZM74.8453 157.556C68.2785 158.83 65.3903 172.304 68.3943 187.652C70.9463 200.69 76.9298 210.885 82.6988 212.877L83.8288 224.192C83.915 225.056 84.6932 225.684 85.567 225.597C86.4408 225.509 87.0793 224.738 86.993 223.874L85.9163 213.092C92.3468 211.594 95.1493 198.234 92.1748 183.038C89.1708 167.69 81.4122 156.281 74.8453 157.556Z" fill="#FFB800"/>
<path fill-rule="evenodd" clip-rule="evenodd" d="M89.9588 159.45C89.3682 160.094 89.416 161.087 90.0656 161.669C93.9861 165.182 102.303 178.509 101.141 202.272C101.098 203.139 101.775 203.873 102.652 203.913C103.529 203.952 104.274 203.281 104.317 202.414C105.512 177.964 96.9955 163.63 92.2046 159.338C91.555 158.756 90.5495 158.806 89.9588 159.45Z" fill="#FFB800"/>
<path fill-rule="evenodd" clip-rule="evenodd" d="M106.612 163.455C106.021 164.099 106.069 165.093 106.719 165.675C107.035 165.958 107.345 166.227 107.65 166.492C109.534 168.127 111.2 169.573 112.479 172.773C114.003 176.586 114.975 182.968 114.388 194.957C114.346 195.824 115.023 196.558 115.9 196.598C116.777 196.637 117.522 195.966 117.564 195.099C118.157 182.982 117.213 176.056 115.437 171.611C113.862 167.671 111.639 165.752 109.713 164.09C109.42 163.837 109.134 163.591 108.858 163.343C108.208 162.761 107.203 162.812 106.612 163.455Z" fill="#FFB800"/>
<path fill-rule="evenodd" clip-rule="evenodd" d="M75.5572 159.12C75.5455 159.988 76.2477 160.699 77.1257 160.708C82.6407 160.765 91.0266 161.216 99.2284 163.127C107.477 165.048 115.267 168.384 119.891 174.009C125.765 181.154 128.677 184.759 130.204 186.916C130.961 187.983 131.329 188.63 131.546 189.128C131.758 189.613 131.851 190.009 132.002 190.685C132.269 191.882 132.267 193.086 131.848 193.964C131.495 194.702 130.713 195.5 128.653 195.701C127.622 195.801 126.099 195.637 124.094 195.366C123.82 195.329 123.54 195.291 123.253 195.251C121.523 195.013 119.571 194.745 117.611 194.623C113.13 194.343 107.906 194.765 104.644 198.719C102.09 201.815 98.5354 204.354 95.0546 206.233C91.5683 208.114 88.281 209.265 86.3549 209.654C85.4941 209.828 84.9368 210.658 85.11 211.508C85.2832 212.359 86.1215 212.907 86.9822 212.734C89.2897 212.268 92.8775 210.984 96.5718 208.99C100.272 206.994 104.204 204.219 107.106 200.701C109.299 198.042 113.033 197.486 117.401 197.759C119.232 197.874 121.052 198.124 122.788 198.362C123.079 198.402 123.368 198.442 123.654 198.48C125.566 198.738 127.481 198.973 128.956 198.829C131.909 198.54 133.803 197.225 134.722 195.299C135.575 193.513 135.442 191.5 135.107 190L135.103 189.983C134.955 189.318 134.808 188.659 134.466 187.876C134.127 187.099 133.622 186.254 132.811 185.108C131.202 182.837 128.201 179.127 122.361 172.023C117.073 165.589 108.444 162.042 99.9662 160.067C91.4416 158.082 82.794 157.623 77.1681 157.565C76.2901 157.556 75.5689 158.252 75.5572 159.12Z" fill="#FFB800"/>
<path fill-rule="evenodd" clip-rule="evenodd" d="M84.3989 168.59C84.4297 169.457 85.1661 170.133 86.0435 170.1C91.8553 169.882 99.6412 171.711 107.143 174.181C114.601 176.636 121.587 179.658 125.722 181.683C126.508 182.068 127.463 181.749 127.854 180.971C128.246 180.193 127.926 179.251 127.14 178.866C122.889 176.784 115.767 173.705 108.156 171.199C100.59 168.708 92.3473 166.718 85.932 166.96C85.0545 166.993 84.3681 167.722 84.3989 168.59Z" fill="#FFB800"/>
<path fill-rule="evenodd" clip-rule="evenodd" d="M92.8742 189.662C109.702 183.144 125.385 191.85 131.75 196.943C132.432 197.488 133.433 197.382 133.986 196.707C134.54 196.032 134.436 195.042 133.755 194.497C127.077 189.155 110.16 179.594 91.7217 186.736C90.9034 187.053 90.498 187.965 90.8162 188.773C91.1345 189.581 92.0559 189.979 92.8742 189.662Z" fill="#FFB800"/>
<path fill-rule="evenodd" clip-rule="evenodd" d="M84.6891 216.709C85.5145 216.638 86.2413 217.25 86.3124 218.075L91.0548 273.086C91.1259 273.911 90.5145 274.638 89.6891 274.709C88.8638 274.781 88.137 274.169 88.0658 273.344L83.3235 218.333C83.2524 217.507 83.8638 216.781 84.6891 216.709Z" fill="#FFB800"/>
<path d="M81.2162 269.512C82.3958 272.598 85.598 274.652 87.1794 277.553C87.3137 277.799 87.433 278.057 87.5359 278.326C88.7782 281.576 87.1509 285.217 83.9014 286.459C80.6518 287.701 77.0105 286.074 75.7683 282.825C75.6658 282.557 75.5829 282.286 75.5188 282.014C74.7374 278.702 75.8507 274.909 74.6356 271.73L71.9938 264.82C71.3061 263.021 69.29 262.12 67.4909 262.808C66.2017 263.3 65.3245 264.507 65.2533 265.885L65.0906 269.038C64.9756 271.267 66.2384 273.331 67.0352 275.415C68.2774 278.665 66.6502 282.306 63.4006 283.548C60.1511 284.791 56.5098 283.163 55.2675 279.914C54.88 278.9 54.7717 277.848 54.9049 276.843C55.3398 273.56 57.5907 270.48 57.5818 267.169L57.5277 246.846C57.51 240.233 61.5836 234.298 67.7609 231.936C71.5063 230.505 75.6541 230.539 79.3751 232.033L101.345 240.854C103.68 241.792 106.324 241.6 108.829 241.841C111.231 242.072 113.529 243.233 114.328 245.324C115.57 248.574 113.943 252.215 110.694 253.457C108.827 254.171 106.743 253.642 105.071 252.447C102.721 250.766 100.734 248.356 98.0205 247.362L90.7695 244.706C88.1464 243.746 85.7332 246.548 87.0728 249L94.1907 259.624C96.249 262.697 100.485 263.954 102.92 266.736C103.398 267.282 103.789 267.92 104.063 268.636C105.305 271.886 103.678 275.527 100.428 276.769C97.1787 278.012 93.5374 276.384 92.2951 273.135C91.4179 270.84 91.2061 268.171 89.7118 266.221L84.1634 258.981C83.2681 257.812 81.7112 257.371 80.3363 257.897C78.6207 258.553 77.7616 260.475 78.4174 262.191L81.2162 269.512Z" fill="#00753F"/>
</svg>
