<svg width="300" height="300" viewBox="0 0 300 300" fill="none" xmlns="http://www.w3.org/2000/svg">
<g clip-path="url(#clip0_7377_20356)">
<ellipse cx="150.185" cy="252.348" rx="132.785" ry="20.7476" fill="currentColor"/>
<path d="M187.661 35.4374L208.735 109.372L170.572 102.767L133.699 96.3854L177.239 33.705C180.053 29.6543 186.309 30.6943 187.661 35.4374Z" fill="#E84C8D"/>
<mask id="mask0_7377_20356" style="mask-type:alpha" maskUnits="userSpaceOnUse" x="133" y="31" width="76" height="79">
<path d="M187.661 35.4374L208.735 109.372L170.572 102.767L133.699 96.3854L177.239 33.705C180.053 29.6543 186.309 30.6943 187.661 35.4374Z" fill="#E84C8D"/>
</mask>
<g mask="url(#mask0_7377_20356)">
<path d="M217.479 57.3515L157.668 29.8906L153.756 38.4112L213.566 65.8721L217.479 57.3515Z" fill="#FFD61E"/>
<path d="M213.604 73.4906L153.793 46.0298L149.881 54.5504L209.691 82.0112L213.604 73.4906Z" fill="#FFD61E"/>
<path d="M211.538 90.7618L140.439 58.1182L136.527 66.6387L207.626 99.2824L211.538 90.7618Z" fill="#FFD61E"/>
<path d="M221.897 114.059L136.461 74.833L132.549 83.3536L217.984 122.58L221.897 114.059Z" fill="#FFD61E"/>
</g>
<circle cx="184.659" cy="24.5786" r="11.066" transform="rotate(9.81916 184.659 24.5786)" fill="#39C8BE"/>
<path d="M250.389 205.715C260.396 190.131 250.469 169.468 232.049 167.539C222.183 166.506 212.647 171.435 207.782 180.08L177.372 234.127C172.799 242.255 178.672 252.299 187.998 252.299L220.48 252.299L250.389 205.715Z" fill="#055131"/>
<path d="M249.17 228.114C248.038 225.378 244.904 224.078 242.168 225.209L216.61 235.78L220.707 245.686L246.265 235.115C249.001 233.984 250.301 230.849 249.17 228.114Z" fill="#055131"/>
<path d="M251.809 237.301C251.248 234.394 248.437 232.493 245.53 233.054L218.374 238.299L220.407 248.824L247.563 243.58C250.469 243.019 252.371 240.207 251.809 237.301Z" fill="#055131"/>
<path d="M251.944 246.918C251.945 243.957 249.546 241.557 246.585 241.556L218.928 241.549L218.925 252.269L246.583 252.276C249.543 252.277 251.943 249.878 251.944 246.918Z" fill="#055131"/>
<path d="M48.4114 205.715C38.4049 190.131 48.3315 169.468 66.7515 167.539C76.6174 166.506 86.1539 171.435 91.0183 180.08L121.429 234.127C126.002 242.255 120.129 252.299 110.803 252.299L78.3211 252.299L48.4114 205.715Z" fill="#055131"/>
<path d="M49.6311 228.114C50.7625 225.378 53.8973 224.078 56.6328 225.209L82.1907 235.78L78.0936 245.686L52.5356 235.115C49.8001 233.984 48.4997 230.849 49.6311 228.114Z" fill="#055131"/>
<path d="M46.9915 237.301C47.5528 234.394 50.364 232.493 53.2706 233.054L80.4265 238.299L78.3939 248.824L51.2379 243.58C48.3314 243.019 46.4302 240.207 46.9915 237.301Z" fill="#055131"/>
<path d="M46.8568 246.918C46.8561 243.957 49.2552 241.557 52.2155 241.556L79.8732 241.549L79.8759 252.269L52.2182 252.276C49.258 252.277 46.8576 249.878 46.8568 246.918Z" fill="#055131"/>
<path d="M74.5391 139.447C74.5391 136.261 74.5391 134.669 74.6335 133.325C75.9747 114.235 91.1648 99.0446 110.255 97.7033C111.599 97.6089 113.192 97.6089 116.377 97.6089H185.221C188.406 97.6089 189.998 97.6089 191.343 97.7033C210.433 99.0446 225.623 114.235 226.964 133.325C227.058 134.669 227.058 136.261 227.058 139.447V173.869C227.058 215.986 192.916 250.128 150.799 250.128C108.682 250.128 74.5391 215.986 74.5391 173.869V139.447Z" fill="#00753F"/>
<mask id="mask1_7377_20356" style="mask-type:alpha" maskUnits="userSpaceOnUse" x="74" y="97" width="154" height="154">
<path d="M74.707 139.447C74.707 136.261 74.707 134.669 74.8015 133.325C76.1427 114.235 91.3328 99.0446 110.423 97.7033C111.767 97.6089 113.36 97.6089 116.545 97.6089H185.389C188.574 97.6089 190.166 97.6089 191.511 97.7033C210.601 99.0446 225.791 114.235 227.132 133.325C227.226 134.669 227.226 136.261 227.226 139.447V173.869C227.226 215.986 193.084 250.128 150.967 250.128C108.85 250.128 74.707 215.986 74.707 173.869V139.447Z" fill="#139157"/>
</mask>
<g mask="url(#mask1_7377_20356)">
<path d="M93.9512 173.102C93.9512 152.644 110.536 136.059 130.994 136.059H169.869C190.327 136.059 206.912 152.644 206.912 173.102V193.795C206.912 224.988 181.625 250.275 150.432 250.275C119.238 250.275 93.9512 224.988 93.9512 193.795V173.102Z" fill="#3DA94E"/>
<circle cx="184.703" cy="208.181" r="5.2944" fill="#00753F"/>
<circle cx="179.41" cy="196.777" r="3.66535" fill="#00753F"/>
<circle cx="173.503" cy="219.38" r="5.90529" fill="#00753F"/>
<path d="M95.625 133.549H141.437V144.427H95.625V133.549Z" fill="#FFD61E"/>
</g>
<rect x="96.7363" y="77.0415" width="44.7988" height="44.7988" rx="22.3994" fill="#00753F"/>
<rect x="101.623" y="81.9292" width="35.0245" height="35.0245" rx="17.5122" fill="white"/>
<rect x="162.305" y="77.0415" width="44.7988" height="44.7988" rx="22.3994" fill="#00753F"/>
<rect x="167.191" y="81.9292" width="35.0245" height="35.0245" rx="17.5122" fill="white"/>
<path d="M125.688 99.6377C125.425 98.6424 124.968 97.7087 124.344 96.8898C123.72 96.071 122.941 95.3831 122.051 94.8655C121.161 94.3478 120.178 94.0105 119.158 93.8728C118.137 93.7351 117.1 93.7997 116.105 94.0629C115.109 94.3262 114.176 94.7829 113.357 95.4069C112.538 96.031 111.85 96.8103 111.332 97.7002C110.815 98.5901 110.477 99.5733 110.34 100.594C110.202 101.614 110.267 102.651 110.53 103.647L118.109 101.642L125.688 99.6377Z" fill="black"/>
<path d="M176.702 99.6377C176.966 98.6424 177.422 97.7087 178.046 96.8898C178.67 96.071 179.45 95.3831 180.34 94.8655C181.23 94.3478 182.213 94.0105 183.233 93.8728C184.253 93.7351 185.291 93.7997 186.286 94.0629C187.281 94.3262 188.215 94.7829 189.034 95.4069C189.853 96.031 190.541 96.8103 191.058 97.7002C191.576 98.5901 191.913 99.5733 192.051 100.594C192.189 101.614 192.124 102.651 191.861 103.647L184.282 101.642L176.702 99.6377Z" fill="black"/>
<rect x="141.152" y="115.08" width="7.9416" height="4.88714" rx="2.44357" transform="rotate(-10.6318 141.152 115.08)" fill="#213027"/>
<rect width="7.9416" height="4.88714" rx="2.44357" transform="matrix(-0.982833 -0.184498 -0.184498 0.982833 163.273 115.08)" fill="#213027"/>
<path d="M121 71.9174C121.885 71.0324 121.894 69.5814 120.887 68.837C119.237 67.6156 117.35 66.7349 115.337 66.2562C112.586 65.602 109.708 65.7243 107.022 66.6096C104.337 67.4949 101.95 69.1084 100.127 71.2703C98.7934 72.8521 97.8003 74.6822 97.1995 76.6459C96.8333 77.8427 97.7028 79.0043 98.9407 79.1895C100.178 79.3747 101.31 78.507 101.75 77.3354C102.179 76.1953 102.8 75.1313 103.592 74.1917C104.874 72.6714 106.553 71.5367 108.441 70.9142C110.33 70.2916 112.354 70.2056 114.288 70.6656C115.484 70.95 116.616 71.436 117.639 72.0977C118.689 72.7777 120.115 72.8024 121 71.9174Z" fill="#213027"/>
<path d="M192.374 75.4416C192.152 74.2098 192.972 73.0133 194.223 72.9757C195.612 72.9339 197.003 73.0816 198.357 73.4174C200.448 73.9356 202.405 74.89 204.1 76.2179C205.796 77.5458 207.191 79.2173 208.195 81.1226C208.845 82.3576 209.322 83.6727 209.614 85.0305C209.877 86.2541 208.912 87.3375 207.663 87.4168C206.414 87.4962 205.36 86.5354 205.021 85.3306C204.817 84.6067 204.537 83.9042 204.185 83.2352C203.479 81.8953 202.498 80.7199 201.305 79.7861C200.113 78.8522 198.737 78.1811 197.267 77.8167C196.533 77.6348 195.784 77.5313 195.032 77.5069C193.781 77.4662 192.596 76.6733 192.374 75.4416Z" fill="#213027"/>
<path d="M260.082 114.551C261.459 112.242 261.159 109.163 262.211 106.689C262.302 106.476 262.408 106.266 262.53 106.062C263.983 103.625 267.136 102.829 269.572 104.282C272.009 105.735 272.805 108.889 271.352 111.325C271.231 111.529 271.097 111.721 270.953 111.901C269.227 114.066 266.244 115.266 264.825 117.644L261.73 122.833C260.925 124.182 261.366 125.928 262.715 126.733C263.682 127.309 264.897 127.262 265.816 126.611L267.917 125.123C269.401 124.072 270.086 122.221 271.018 120.658C272.471 118.222 275.624 117.425 278.061 118.878C280.497 120.332 281.294 123.485 279.84 125.921C279.385 126.684 278.764 127.286 278.049 127.709C275.73 129.081 272.63 129.195 270.518 130.869L257.526 141.172C253.301 144.522 247.443 144.911 242.812 142.148C240.004 140.473 237.932 137.8 237.009 134.663L231.562 116.135C230.985 114.171 229.53 112.578 228.42 110.857C227.352 109.201 226.933 107.141 227.87 105.571C229.323 103.135 232.476 102.338 234.913 103.792C236.314 104.628 237.028 106.233 237.105 107.909C237.213 110.258 236.675 112.742 237.407 114.977L239.37 120.968C240.08 123.132 243.093 123.262 243.986 121.167L247.198 111.235C248.124 108.371 246.794 105.033 247.338 102.073C247.446 101.489 247.658 100.913 247.98 100.373C249.433 97.9363 252.587 97.1395 255.023 98.5929C257.459 100.046 258.256 103.199 256.803 105.636C255.776 107.356 254.174 108.84 253.68 110.781L251.846 117.99C251.55 119.153 252.054 120.372 253.085 120.987C254.371 121.755 256.035 121.334 256.803 120.048L260.082 114.551Z" fill="#00753F"/>
<path d="M247.246 138.151V138.151C251.535 152.904 240.469 167.646 225.105 167.646H224.235" stroke="#00753F" stroke-width="17.1183" stroke-linecap="round"/>
<path d="M41.4649 114.551C40.0875 112.242 40.3881 109.163 39.3359 106.689C39.2453 106.476 39.1392 106.266 39.0173 106.062C37.5639 103.625 34.4107 102.829 31.9744 104.282C29.5382 105.735 28.7414 108.889 30.1948 111.325C30.3162 111.529 30.4496 111.721 30.5934 111.901C32.3198 114.066 35.303 115.266 36.7217 117.644L39.8172 122.833C40.6219 124.182 40.1807 125.928 38.8319 126.733C37.8654 127.309 36.6497 127.262 35.7313 126.611L33.6303 125.123C32.1454 124.072 31.4613 122.221 30.529 120.658C29.0757 118.222 25.9225 117.425 23.4862 118.878C21.0499 120.332 20.2532 123.485 21.7066 125.921C22.1616 126.684 22.7833 127.286 23.4975 127.709C25.8165 129.081 28.9173 129.195 31.0286 130.869L44.0208 141.172C48.2463 144.522 54.1035 144.911 58.7348 142.148C61.5428 140.473 63.6151 137.8 64.5374 134.663L69.9846 116.135C70.5622 114.171 72.0173 112.578 73.1271 110.857C74.1948 109.201 74.6134 107.141 73.6771 105.571C72.2237 103.135 69.0705 102.338 66.6342 103.792C65.2329 104.628 64.519 106.233 64.4419 107.909C64.3338 110.258 64.8723 112.742 64.14 114.977L62.1766 120.968C61.4671 123.132 58.4541 123.262 57.5609 121.167L54.3491 111.235C53.4231 108.371 54.7533 105.033 54.2085 102.073C54.1009 101.489 53.8892 100.913 53.5668 100.373C52.1134 97.9363 48.9602 97.1395 46.5239 98.5929C44.0877 100.046 43.2909 103.199 44.7443 105.636C45.7707 107.356 47.3729 108.84 47.8669 110.781L49.7011 117.99C49.9971 119.153 49.4932 120.372 48.4623 120.987C47.1761 121.755 45.5114 121.334 44.7441 120.048L41.4649 114.551Z" fill="#00753F"/>
<path d="M54.2993 138.151V138.151C50.0095 152.904 61.0759 167.646 76.4396 167.646H77.3098" stroke="#00753F" stroke-width="17.1183" stroke-linecap="round"/>
<ellipse cx="94.3716" cy="129.783" rx="14.6431" ry="14.6431" fill="#FFD61E"/>
<path d="M97.9267 129.993V128.528C97.9267 127.027 96.7092 125.809 95.2073 125.809V125.809C93.7054 125.809 92.4879 127.027 92.4879 128.528V130.097C92.4879 132.466 94.4078 134.386 96.7762 134.386H97.8221C100.768 134.386 103.156 131.997 103.156 129.051V127.587C103.156 123.832 100.113 120.789 96.3578 120.789H94.9981C90.4924 120.789 86.8398 124.441 86.8398 128.947V130.202C86.8398 135.401 91.0544 139.615 96.2532 139.615H141.647" stroke="#FFB800" stroke-width="1.67007"/>
<path d="M149.177 131.3L144.203 130.084C141.837 129.505 139.555 131.296 139.555 133.732V133.732C139.555 135.513 140.806 137.05 142.551 137.41L149.177 138.779L142.623 140.524C140.814 141.006 139.555 142.644 139.555 144.517V144.517C139.555 146.868 141.681 148.647 143.996 148.232L149.177 147.303" stroke="#213027" stroke-width="4.17518" stroke-linecap="round" stroke-linejoin="bevel"/>
<rect x="103.576" y="173.712" width="12.1328" height="6.2756" fill="#E84C8D"/>
<rect x="115.707" y="30.2578" width="12.1328" height="6.2756" transform="rotate(-60 115.707 30.2578)" fill="#E84C8D"/>
<rect x="234.104" y="26.8633" width="12.1328" height="6.2756" transform="rotate(60 234.104 26.8633)" fill="#E84C8D"/>
<rect x="255.863" y="30.2109" width="12.1328" height="6.2756" fill="#FFD61E"/>
<rect x="193.318" y="169.484" width="12.1328" height="6.2756" transform="rotate(-105 193.318 169.484)" fill="#FFD61E"/>
<rect x="37.7617" y="68.5977" width="12.1328" height="6.2756" transform="rotate(30 37.7617 68.5977)" fill="#FFD61E"/>
<rect x="263.395" y="168.321" width="12.1328" height="6.2756" transform="rotate(-60 263.395 168.321)" fill="#FFD61E"/>
<rect x="53.998" y="35.0703" width="12.1328" height="6.2756" transform="rotate(-120 53.998 35.0703)" fill="#FFD61E"/>
<rect x="224.066" y="81.8799" width="12.1328" height="6.2756" transform="rotate(-30 224.066 81.8799)" fill="#39C8BE"/>
<rect x="77.2168" y="32.5112" width="12.1328" height="6.2756" transform="rotate(-30 77.2168 32.5112)" fill="#39C8BE"/>
<rect x="137.254" y="51.5474" width="12.1328" height="6.2756" transform="rotate(30 137.254 51.5474)" fill="#39C8BE"/>
<rect x="286.613" y="96.3135" width="12.1328" height="6.2756" transform="rotate(30 286.613 96.3135)" fill="#39C8BE"/>
<rect x="142.926" y="204.903" width="12.1328" height="6.2756" transform="rotate(135 142.926 204.903)" fill="#39C8BE"/>
<rect x="29.625" y="157.708" width="12.1328" height="6.2756" transform="rotate(15 29.625 157.708)" fill="#E84C8D"/>
<rect x="77.1973" y="69.5635" width="12.1328" height="6.2756" transform="rotate(-75 77.1973 69.5635)" fill="#E84C8D"/>
<rect x="255.863" y="72.8896" width="12.1328" height="6.2756" transform="rotate(-75 255.863 72.8896)" fill="#E84C8D"/>
</g>
<defs>
<clipPath id="clip0_7377_20356">
<rect width="300" height="300" fill="white"/>
</clipPath>
</defs>
</svg>
