<svg width="38" height="41" viewBox="0 0 38 41" fill="none" xmlns="http://www.w3.org/2000/svg">
<g id="vector">
<g id="question-mark" opacity="0.25">
<path id="Vector" d="M15.3491 6.04043C13.4702 6.16892 11.5245 7.04203 9.81538 8.06492C8.08149 9.10296 6.55146 10.5993 5.35225 12.1734C3.96102 14.0008 3.31765 15.8481 3.46522 17.8366C3.60767 19.7531 4.92987 22.3402 6.75048 23.179C8.89197 24.1654 10.8579 23.1998 12.0161 21.4236C13.1753 19.6454 13.2429 16.821 10.9779 16.137C9.0804 15.564 6.85337 16.3613 6.26878 18.7045C5.55912 17.4247 6.50221 15.4131 7.56357 14.152C8.1752 13.4258 8.96204 12.7794 9.82268 12.36C10.7403 11.9129 11.6353 11.919 12.473 12.1599C14.1399 12.6392 15.2878 14.0038 15.3845 15.7208C15.4793 17.4081 15.1268 18.6692 14.8242 20.3748C14.4805 22.3103 14.581 24.3527 14.8832 26.172C15.1835 27.9812 15.8025 29.0145 16.6674 29.9252C17.5849 30.8912 18.9646 31.4258 20.4345 30.9122C21.9043 30.3986 23.8077 28.9102 24.6454 27.5269C25.4829 26.1443 25.2711 24.9428 24.5528 23.8254C23.6075 22.3562 22.402 22.1529 20.3501 21.5775C18.2186 20.9805 18.9327 16.2771 19.1704 13.9478C19.3738 11.9506 20.1939 10.26 19.4736 8.47931C18.813 6.84715 17.3783 5.90129 15.35 6.03979L15.3491 6.04043Z" fill="#76CCC6"/>
<path id="Vector_2" d="M29.6905 36.9317C31.3527 34.8928 31.1237 32.0625 29.1789 30.6101C27.2341 29.1578 24.3101 29.6333 22.6479 31.6723C20.9857 33.7113 21.2147 36.5416 23.1595 37.994C25.1042 39.4463 28.0283 38.9707 29.6905 36.9317Z" fill="#A1DCD8"/>
</g>
<g id="vector_2">
<g id="jake">
<g id="who-knows">
<g id="body">
<path id="Vector_3" d="M37.8997 8.87217C37.6799 8.61809 37.3628 8.56893 37.0503 8.48251C36.757 8.40127 36.1679 8.25223 36.1679 8.25223L36.2149 8.17927C36.2149 8.17927 37.2117 8.34227 37.5495 8.28794C37.7911 8.24913 37.908 8.01265 37.76 7.8129C37.6121 7.61316 37.1471 7.54382 36.6603 7.48689C36.2563 7.43929 35.1897 7.37978 34.6688 7.33579C34.6817 7.32751 34.6941 7.3182 34.707 7.31044C35.036 7.10345 35.4731 7.01651 35.7416 6.7319C35.8373 6.62841 35.8528 6.44884 35.7416 6.35052C35.3474 6.00071 34.8007 6.17407 34.345 6.30602C33.8406 6.45195 33.3016 6.65118 32.8629 6.94613C32.4243 7.24109 32.2272 7.74615 32.0632 8.23516C31.9173 8.66828 31.8439 9.13349 31.9567 9.57593C32.1972 10.9027 32.4408 12.2482 32.5717 13.59C32.6032 13.8868 32.6163 14.1852 32.611 14.4836C32.6053 14.7113 32.6395 15.0554 32.3307 15.0218C32.0374 14.9897 31.7275 14.8578 31.4471 14.7693C31.1823 14.6854 30.9195 14.5975 30.6572 14.5074C29.5565 14.1307 28.464 13.7198 27.3275 13.4611C26.1631 13.1956 24.9671 13.1092 23.7769 13.0533C23.3212 13.0321 20.9055 13.0016 19.8973 13.0016C18.8891 13.0016 16.6974 13.0316 16.2246 13.0533C15.0348 13.1092 13.8384 13.1956 12.6739 13.4611C11.5359 13.7198 10.445 14.1307 9.34472 14.5074C9.08195 14.5975 8.81917 14.6854 8.55432 14.7693C8.27395 14.8578 7.9641 14.9897 7.6708 15.0218C7.36043 15.0554 7.39612 14.7113 7.39043 14.4836C7.38515 14.1852 7.39828 13.8868 7.42975 13.59C7.56217 12.2445 7.80581 10.9043 8.04635 9.57541C8.15912 9.13349 8.08566 8.66828 7.93979 8.23516C7.77581 7.74667 7.57769 7.24368 7.13748 6.94613C6.69728 6.64859 6.15982 6.45195 5.65547 6.30602C5.2013 6.17407 4.65453 6.00071 4.25881 6.35052C4.1476 6.44884 4.16311 6.63099 4.25881 6.7319C4.52832 7.01651 4.96542 7.10396 5.29338 7.31044C5.30631 7.3182 5.31872 7.32751 5.33165 7.33579C4.81075 7.37978 3.74412 7.43929 3.34012 7.48689C2.85336 7.54382 2.38832 7.61367 2.24038 7.8129C2.09244 8.01213 2.20934 8.24913 2.45091 8.28794C2.7887 8.33969 3.7855 8.17927 3.7855 8.17927L3.83257 8.25223C3.83257 8.25223 3.24339 8.40127 2.95009 8.48251C2.63972 8.56893 2.32056 8.61809 2.10071 8.87217C1.95691 9.03879 2.11571 9.26855 2.29831 9.29598C2.66817 9.35186 3.02251 9.2375 3.37685 9.14746L4.23502 8.95962L4.28674 9.07243C4.28674 9.07243 3.54082 9.35807 3.36754 9.4507C3.19425 9.54333 3.20304 9.87192 3.39754 9.94954C3.59204 10.0272 4.24174 9.87192 4.4978 9.84605C4.65298 9.83104 4.81851 9.80465 4.98094 9.78395C4.96128 9.87451 4.94524 9.96558 4.93283 10.0582C4.61367 11.1615 4.34002 12.2999 4.34261 13.4482C4.34261 14.6808 4.29399 16.0723 4.94576 17.1698C6.32173 19.4866 9.56457 18.5261 11.509 17.8255C12.3238 17.5321 13.1524 17.2242 14.0003 17.0493C13.9961 17.0684 13.9656 19.3644 13.9485 20.387C13.9253 22.0056 13.9609 23.6346 13.9273 25.2512C13.9092 26.1066 13.8549 26.9589 13.8394 27.8158C13.8239 28.6437 13.8233 29.4717 13.8135 30.2997C13.7939 31.9959 13.6682 40.4809 13.662 40.484C13.3061 40.6708 12.4039 41.2137 12.4039 41.5029C12.4039 41.7922 12.5472 41.9314 13.0247 41.9314C13.5021 41.9314 17.0393 41.9386 17.5742 41.9386C18.109 41.9386 18.2932 41.4817 18.2932 40.9632C18.2932 40.4447 18.4794 21.1166 18.4794 21.1166L21.5784 21.0348C21.5784 21.0348 21.6095 25.7759 21.7083 28.1687C21.8257 31.005 21.76 33.8443 21.7569 36.6822C21.7569 37.4697 21.7491 40.9254 21.7491 41.3042C21.7491 41.683 21.8666 41.9386 22.2861 41.9386H26.8583C27.3373 41.9386 27.4123 41.4258 27.1775 41.223C26.9426 41.0201 26.3364 40.6129 26.3364 40.6129C26.3364 40.6129 26.3002 37.6659 26.3147 36.9388C26.3492 35.2922 26.3612 33.6455 26.3509 31.9985C26.3395 28.6981 26.2697 25.3976 26.221 22.0972C26.1978 20.5231 26.0871 17.1528 26.0762 17.0632C26.8976 17.2412 27.7005 17.5393 28.4914 17.8239C30.4353 18.5246 33.6782 19.485 35.0541 17.1683C35.7059 16.0707 35.6547 14.6792 35.6573 13.4466C35.6573 12.2978 35.3935 11.1604 35.0764 10.0561C35.0645 9.96507 35.0495 9.87503 35.0298 9.78551C35.1886 9.80569 35.3469 9.83104 35.5011 9.84605C35.7571 9.87037 36.4068 10.0256 36.6013 9.94954C36.7958 9.87347 36.8046 9.54333 36.6313 9.4507C36.458 9.35807 35.7121 9.07243 35.7121 9.07243L35.7639 8.95962L36.622 9.14746C36.9774 9.2375 37.3307 9.35186 37.7006 9.29598C37.8847 9.26855 38.0435 9.03983 37.8997 8.87217Z" fill="#707478"/>
<path id="Vector_4" d="M18.7528 10.4974C18.865 11.032 19.1071 11.4258 19.5468 11.6359C19.7236 11.7206 19.9211 11.7525 20.1156 11.7279C20.3101 11.7032 20.4934 11.6229 20.6434 11.4967C20.9021 11.2695 21.1017 10.9906 21.1742 10.6361C21.2659 10.1467 21.2933 9.64744 21.2554 9.15097C21.2037 8.66093 20.9383 8.13569 20.7096 7.91318C20.481 7.69066 20.1308 7.62339 19.7439 7.72482C19.357 7.82624 19.1749 7.97734 19.0037 8.29404C18.9096 8.47567 18.8383 8.66825 18.7916 8.8674C18.3508 8.96261 17.8449 9.12613 17.8253 9.62963C17.8056 10.1331 18.2893 10.4281 18.7528 10.4974Z" fill="#707478"/>
</g>
<g id="body-lines">
<path id="Vector_5" d="M20.3639 8.72266C20.5123 9.18463 20.5866 9.66719 20.5842 10.1524C20.3754 10.1852 20.164 10.1999 19.9526 10.1964" fill="#707478"/>
<path id="Vector (Stroke)" fill-rule="evenodd" clip-rule="evenodd" d="M20.3511 8.68363C20.3729 8.67664 20.3962 8.68862 20.4032 8.71038C20.5529 9.17652 20.6279 9.66342 20.6255 10.153C20.6254 10.1733 20.6106 10.1906 20.5905 10.1937C20.3793 10.2268 20.1656 10.2417 19.9518 10.2382C19.929 10.2378 19.9108 10.219 19.9111 10.1961C19.9115 10.1733 19.9304 10.155 19.9532 10.1554C20.1505 10.1587 20.3476 10.1459 20.5428 10.1172C20.5415 9.64829 20.4678 9.18229 20.3244 8.7357C20.3174 8.71393 20.3293 8.69063 20.3511 8.68363Z" fill="white"/>
</g>
</g>
</g>
<g id="Group">
<g id="Group_2">
<path id="Vector_6" d="M27.1076 6.209L25.7987 5.8524C25.7406 5.83656 25.6843 5.8422 25.6302 5.86904C25.5759 5.89597 25.5418 5.93524 25.5277 5.98697L25.2106 7.15077C25.1966 7.20251 25.2061 7.25374 25.2391 7.30438C25.2722 7.35497 25.3178 7.38831 25.3759 7.40415L26.6849 7.76076C26.743 7.77659 26.7993 7.77107 26.8534 7.74415C26.9077 7.71731 26.9418 7.67798 26.9559 7.62625L27.273 6.46245C27.2871 6.41072 27.2776 6.35957 27.2444 6.30882C27.2115 6.25815 27.1657 6.22483 27.1076 6.209Z" fill="#FFB800"/>
<path id="Vector_7" d="M29.9458 2.56472C29.8715 2.24944 29.742 1.96529 29.5571 1.71178C29.3723 1.45839 29.1479 1.23507 28.8841 1.04219C28.6203 0.849336 28.343 0.713218 28.0521 0.633964C26.9468 0.332876 25.9716 0.586665 25.1263 1.39535C25.0843 1.43467 25.0604 1.48283 25.0546 1.53986C25.0489 1.59682 25.0647 1.64996 25.1021 1.69919L25.8108 2.62463C25.8501 2.66654 25.8916 2.69346 25.9353 2.70535C26.0007 2.72319 26.065 2.7094 26.1282 2.66412C26.479 2.40824 26.7306 2.25218 26.8826 2.1959C27.0677 2.13309 27.2783 2.13388 27.5146 2.19826C27.7364 2.25868 27.916 2.37009 28.0534 2.53242C28.1908 2.69484 28.2386 2.85239 28.197 3.00509C28.1504 3.1759 28.0674 3.30177 27.9477 3.38244C27.8281 3.46309 27.6477 3.52324 27.4063 3.56299C27.0881 3.613 26.7743 3.73942 26.4653 3.94231C26.1561 4.14517 25.9604 4.39751 25.8782 4.69926L25.8114 4.94467C25.7925 5.01382 25.793 5.08713 25.8129 5.16481C25.8327 5.24253 25.8699 5.28875 25.9245 5.30362L27.2334 5.66019C27.2916 5.67604 27.3501 5.66178 27.4092 5.61713C27.468 5.57279 27.506 5.51966 27.5228 5.45794C27.5476 5.36707 27.6308 5.25876 27.7723 5.13335C27.9139 5.00788 28.0706 4.92352 28.2426 4.88051C28.4061 4.83915 28.5345 4.80488 28.6279 4.77755C28.7215 4.75037 28.8475 4.69957 29.0063 4.62574C29.1651 4.55179 29.2946 4.47085 29.3946 4.38292C29.4947 4.295 29.5963 4.17324 29.6992 4.01767C29.8023 3.86218 29.8804 3.68621 29.9339 3.4899C30.0161 3.18811 30.02 2.87967 29.9458 2.56472Z" fill="#FFB800"/>
</g>
</g>
</g>
</g>
</svg>
