<svg width="238" height="238" viewBox="0 0 238 238" fill="none" xmlns="http://www.w3.org/2000/svg">
<path d="M159.984 226C159.217 225.813 158.463 225.594 157.719 225.355C157.723 225.322 157.727 225.292 157.732 225.259C157.798 217.106 160.399 190.96 161.63 182.332C162.861 173.705 164.229 157.33 164.967 148.695C165.334 144.474 166.047 135.975 166.163 131.738C166.25 128.512 166.438 125.292 166.606 122.072C166.803 120.827 167.008 119.586 167.204 118.344C169.531 116.746 171.818 115.087 174.04 113.343C180.149 108.547 187.078 100.043 184.905 91.5595C182.974 84.0194 180.515 79.3682 176.956 72.4565C173.915 66.5638 167.7 59.8223 162.285 55.9058C157.208 52.2322 153.586 50.7955 144.616 49.3789C135.645 47.9624 123.752 46.7759 117.551 47.256C111.35 47.7362 106.337 48.8868 102.908 51.2001C97.2889 54.9875 93.6173 59.6589 90.525 66.853C87.4326 74.0471 83.8619 82.1047 81.6133 81.6025C79.3648 81.1003 80.3168 68.5093 80.7605 64.7665C81.2633 60.5162 81.7263 52.034 84.6359 48.5065C84.6803 48.1631 84.8413 47.8453 85.092 47.6064L85.2911 47.4055C85.3635 47.2923 85.4469 47.1865 85.54 47.0896C85.5292 47.0362 85.5154 46.9824 85.505 46.926C85.5949 46.8074 85.6822 46.6854 85.7755 46.5642C87.94 44.4517 90.1995 42.4227 91.9165 39.9116C92.8033 38.6173 91.4764 36.8989 90.0293 37.8154L84.564 41.2461L84.2534 40.525C84.9033 39.7009 85.607 38.8843 86.3172 38.1297C87.3975 36.9572 88.5351 35.8324 89.6535 34.6928C90.8256 33.4965 92.2286 32.3511 91.6937 30.5121C91.5651 30.1563 91.3013 29.8656 90.9595 29.7032C90.6177 29.5409 90.2257 29.5201 89.8687 29.6453C87.2745 30.7332 85.2943 32.6641 83.3646 34.6693C83.0073 35.0402 82.6496 35.4141 82.2923 35.7849C82.2136 35.5633 82.1259 35.3405 82.0443 35.1184C82.083 34.8718 82.0749 34.6202 82.0204 34.3766C82.1593 34.213 82.2919 34.0516 82.4206 33.8958C84.2761 31.5933 86.1323 29.293 87.9892 26.9948C89.0533 25.6766 87.4759 24.1336 86.099 24.8982C83.8852 26.11 81.8204 27.5761 79.9465 29.2667C79.8134 28.4333 79.6338 27.6055 79.4542 26.7991C79.3958 26.5061 79.2392 26.2419 79.0102 26.0501C78.9816 25.8418 78.9011 25.6441 78.776 25.4751C78.651 25.3061 78.4855 25.1712 78.2948 25.0829C77.8336 24.8237 77.2895 24.7541 76.7779 24.889C76.2663 25.0238 75.8273 25.3524 75.5537 25.8053C74.9649 26.8027 75.2109 28.2441 75.1437 29.3515C75.0076 31.6774 74.6405 33.984 74.0477 36.2372C73.9463 36.3939 73.8479 36.5509 73.7496 36.708C69.2464 42.6937 66.674 50.0097 65.2017 57.4011C64.1454 62.7453 63.5256 68.1967 62.9228 73.6138C62.32 79.0309 61.8909 84.5152 61.9489 89.9856C62.0409 98.7533 63.9214 109.298 72.9489 113.197C81.6569 116.96 89.6336 109.839 94.241 103.069C95.5525 101.142 96.7283 99.1159 97.8595 97.0595C97.1271 102.574 96.3493 108.107 95.9082 110.16C95.1829 113.518 91.9192 137.063 90.8242 143.464C89.409 151.73 88.0763 159.973 86.7568 168.253C85.445 176.478 84.1392 184.705 82.6661 192.905C81.9422 196.904 79.5324 210.401 78.9911 213.102C77.6445 213.498 75.842 214.099 74.7339 215.057C73.4518 216.168 73.7893 218.196 75.5316 218.587C84.1911 220.525 91.348 220.777 100.082 222.246C100.376 222.298 100.677 222.284 100.964 222.205C101.048 222.265 101.135 222.321 101.224 222.373C102.869 223.281 103.665 220.207 103.759 219.754C103.759 219.761 103.758 219.768 103.756 219.775L103.761 219.736C103.764 219.723 103.766 219.71 103.767 219.697C103.805 219.574 103.942 217.167 104.068 216.227C104.392 213.792 104.806 211.369 105.217 208.946C105.6 206.696 106.069 204.015 106.41 201.759C106.784 199.276 110.661 176.032 112.183 167.009C113.732 157.815 115.35 148.952 116.769 139.747C118.325 129.652 120.679 115.274 122.412 105.219C126.328 105.712 130.306 105.746 134.237 106.173C134.104 106.426 134.041 106.709 134.055 106.993C134.069 107.278 134.158 107.554 134.315 107.792C135.369 109.646 136.213 111.047 137.409 112.805C132.038 114.723 127.116 116.24 122.053 118.391C119.956 119.283 120.747 122.666 123.083 122.31L130.438 120.631L130.681 121.358C127.907 123.049 125.398 123.618 122.685 125.422C121.066 126.497 122.128 129.643 124.179 129.23C126.145 128.832 133.048 126.509 133.048 126.509L133.279 127.338C133.279 127.338 130.085 129.196 128.953 130.331C127.439 131.851 128.474 134.063 130.892 133.405C134.15 132.52 137.276 131.4 140.491 130.393L141.922 129.957C141.877 130.866 141.846 131.777 141.843 132.692C141.834 136.859 140.411 157.861 139.983 162.03C139.547 166.284 139.192 170.546 138.856 174.807C138.179 183.33 137.584 191.863 136.576 200.357C136.024 205.022 134.202 221.027 133.861 224.406C133.856 224.439 133.841 226.893 135.254 227.156C139.823 227.997 143.592 227.989 148.168 228.632C152.004 229.172 155.821 230.129 159.725 229.882C162.047 229.732 162.084 226.518 159.984 226ZM142.698 107.03C142.598 107.892 142.531 108.758 142.488 109.631C141.164 108.67 139.993 107.623 138.899 106.789C140.157 106.963 141.427 107.044 142.698 107.03Z" fill="#E84C8D"/>
<path d="M125.527 31.0202C125.434 34.7605 126.424 38.6194 129.724 40.7158C129.951 40.8613 130.204 40.9611 130.47 41.0099C137.196 42.523 141.067 36.1493 141.321 24.9189C141.429 20.2041 137.402 13.3825 132.088 16.2974C129.773 17.574 128.265 19.9649 127.27 22.5471C124.324 22.6242 119.249 22.863 119.853 26.8783C120.237 29.4466 123.039 30.5271 125.527 31.0202Z" fill="#E84C8D"/>
<path d="M136.701 24.2694C137.086 27.0766 137.025 29.9268 136.521 32.7151C135.287 32.6935 134.056 32.5645 132.844 32.3293" fill="#E84C8D"/>
<path fill-rule="evenodd" clip-rule="evenodd" d="M136.641 23.8203C136.889 23.7864 137.118 23.9599 137.152 24.2079C137.542 27.0623 137.481 29.9605 136.968 32.7956C136.929 33.0143 136.737 33.1721 136.514 33.1683C135.253 33.1462 133.997 33.0144 132.758 32.7743C132.513 32.7266 132.352 32.4888 132.4 32.243C132.447 31.9973 132.685 31.8367 132.931 31.8843C133.99 32.0898 135.064 32.2125 136.143 32.2515C136.576 29.6325 136.614 26.9624 136.253 24.3309C136.219 24.0829 136.393 23.8543 136.641 23.8203Z" fill="white"/>
<path d="M109.786 106.088C109.465 106.043 109.157 105.915 108.893 105.709C108.607 105.485 101.808 100.147 95.2096 92.6147C91.2986 88.1507 88.2811 83.8443 86.2411 79.8152C83.6013 74.6015 82.5802 69.7999 83.2058 65.5437C83.934 60.5911 86.3647 56.1789 90.0506 53.1198C93.7987 50.0092 98.4077 48.654 103.029 49.3035C108.951 50.136 113.899 54.2145 116.277 59.9078C120.132 55.0907 126.013 52.5343 131.935 53.3667C136.301 53.9804 140.217 56.3382 142.963 60.006C145.976 64.0311 147.269 69.3016 146.509 74.4658C145.885 78.7146 143.549 83.0373 139.568 87.3136C136.489 90.6213 132.406 93.928 127.434 97.1421C119.042 102.566 111.088 105.831 110.753 105.968C110.442 106.094 110.108 106.133 109.786 106.088Z" fill="#FFC633"/>
<path fill-rule="evenodd" clip-rule="evenodd" d="M153.295 74.8301C153.519 74.7171 153.791 74.8066 153.904 75.03C154.935 77.0672 155.929 79.1365 156.897 81.1521C157.302 81.9946 157.702 82.8278 158.099 83.6453L158.099 83.6455C158.705 84.8963 159.37 86.3381 159.843 87.821C160.315 89.3009 160.607 90.8537 160.441 92.3221L160.441 92.3222C160.195 94.4997 158.634 96.3416 157.336 97.8624L157.336 97.8629C156.257 99.1231 153.367 101.67 150.464 104.1C147.552 106.538 144.573 108.902 143.286 109.804C143.081 109.948 142.798 109.898 142.655 109.693C142.511 109.488 142.561 109.205 142.766 109.062C144.018 108.184 146.971 105.842 149.883 103.405C152.803 100.96 155.626 98.465 156.647 97.2737C157.986 95.7049 159.331 94.0737 159.541 92.2204C159.686 90.9312 159.433 89.5175 158.979 88.0966C158.527 86.6786 157.886 85.2852 157.283 84.0409C156.883 83.2169 156.481 82.38 156.076 81.5355C155.109 79.5234 154.121 77.4677 153.095 75.4392C152.982 75.2158 153.072 74.9431 153.295 74.8301ZM135.862 105.231C135.244 105.277 134.86 105.646 134.695 105.957C134.578 106.178 134.304 106.263 134.083 106.146C133.861 106.029 133.777 105.755 133.894 105.534C134.179 104.993 134.816 104.399 135.795 104.327C136.767 104.254 137.972 104.704 139.399 106.009C139.584 106.178 139.596 106.465 139.427 106.65C139.258 106.834 138.972 106.847 138.787 106.678C137.456 105.46 136.486 105.184 135.862 105.231ZM167.527 118.341C167.661 118.552 167.597 118.832 167.386 118.966C160.535 123.291 149.812 128.254 142.136 130.77C141.898 130.848 141.642 130.718 141.564 130.481C141.486 130.243 141.615 129.987 141.853 129.909C149.463 127.414 160.118 122.483 166.902 118.199C167.113 118.066 167.393 118.129 167.527 118.341Z" fill="white"/>
<path d="M108.964 69.1832C109.127 70.4309 108.91 71.6891 108.758 72.3548C108.716 72.5393 108.486 72.5648 108.402 72.3944C108.09 71.7553 107.552 70.5137 107.387 69.2504C107.22 67.9667 107.484 67.004 107.653 66.5493C107.706 66.4068 107.881 66.388 107.966 66.5141C108.256 66.9395 108.795 67.8782 108.964 69.1832Z" fill="white"/>
<path d="M100.967 74.4456C101.762 75.4227 102.286 76.6431 102.538 77.3138C102.605 77.4949 102.42 77.644 102.257 77.54C101.648 77.153 100.554 76.3826 99.7583 75.4043C98.9338 74.3906 98.6517 73.4267 98.5575 72.9543C98.5283 72.8077 98.6619 72.7003 98.7997 72.7594C99.2462 72.9511 100.141 73.4302 100.967 74.4456Z" fill="white"/>
<path d="M115.834 67.9433C115.552 69.1491 114.954 70.2913 114.597 70.9045C114.498 71.0739 114.263 71.0215 114.245 70.826C114.179 70.1071 114.12 68.79 114.404 67.5777C114.698 66.323 115.28 65.5147 115.599 65.1457C115.7 65.0293 115.871 65.0744 115.902 65.2252C116.003 65.7024 116.127 66.6905 115.834 67.9433Z" fill="white"/>
<path d="M121.1 70.8316C120.618 71.9793 119.821 73.014 119.36 73.5592C119.234 73.7086 119.012 73.6178 119.027 73.4227C119.081 72.7041 119.243 71.3924 119.726 70.2413C120.228 69.0475 120.941 68.3456 121.316 68.0365C121.434 67.9397 121.593 68.01 121.601 68.1621C121.628 68.6453 121.6 69.6403 121.1 70.8316Z" fill="white"/>
<path d="M127.018 76.6496C126.275 77.6134 125.347 78.3465 124.806 78.7306C124.646 78.8437 124.457 78.7011 124.521 78.5167C124.757 77.8365 125.25 76.6074 126.014 75.6158C126.783 74.6183 127.626 74.1203 128.079 73.9061C128.227 73.8363 128.368 73.9602 128.322 74.1165C128.172 74.6274 127.803 75.6322 127.018 76.6496Z" fill="white"/>
<path d="M101.922 88.7942C105.905 91.6511 111.535 90.6539 111.535 90.6539C111.535 90.6539 110.708 85.0256 106.725 82.1687C103.589 79.9196 99.4332 80.0591 97.8066 80.2203C97.4175 80.2589 97.1609 80.613 97.247 80.9923C97.6072 82.5784 98.7873 86.5456 101.922 88.7942Z" fill="#5CC2BB"/>
<path d="M121.008 91.477C116.392 93.1251 111.255 90.6146 111.255 90.6146C111.255 90.6146 113.602 85.4324 118.218 83.7842C121.852 82.4867 125.809 83.7667 127.328 84.37C127.692 84.5143 127.841 84.9254 127.653 85.2664C126.87 86.6917 124.642 90.1798 121.008 91.477Z" fill="#5CC2BB"/>
<path d="M105.504 83.6968C107.299 88.2141 111.499 90.7493 111.499 90.7493C111.499 90.7493 112.79 85.9583 110.996 81.4409C109.684 78.1402 107.089 75.8985 105.786 74.9298C105.401 74.6438 104.887 74.8503 104.806 75.3229C104.529 76.9364 104.19 80.3901 105.504 83.698L105.504 83.6968Z" fill="#E84C8D"/>
<path d="M119.129 85.6119C116.158 89.4595 111.422 90.7385 111.422 90.7385C111.422 90.7385 111.502 85.7772 114.472 81.9296C116.643 79.1184 119.755 77.6788 121.275 77.1071C121.724 76.9383 122.161 77.2785 122.109 77.7551C121.93 79.3822 121.304 82.7958 119.129 85.6131L119.129 85.6119Z" fill="#E84C8D"/>
<path d="M116.757 82.5691C116.078 87.4 111.456 90.7432 111.456 90.7432C111.456 90.7432 107.935 86.2554 108.614 81.4246C109.15 77.6163 112.135 74.7325 113.375 73.6823C113.671 73.432 114.1 73.4923 114.315 73.8145C115.217 75.166 117.292 78.7617 116.757 82.5691Z" fill="#E40066"/>
</svg>
