<svg width="380" height="297" viewBox="0 0 380 297" fill="none" xmlns="http://www.w3.org/2000/svg">
<path d="M106.921 69.9397C105.116 67.739 102.451 66.5034 99.6834 66.317C99.9693 64.8236 99.8927 63.2739 99.3591 61.8009C98.7515 60.1211 97.664 58.7093 96.1526 58.1068C95.6676 57.54 94.9911 57.1724 94.0158 57.1852C92.2416 57.2082 90.3217 58.4463 88.8232 59.3016C88.4989 59.4854 88.1798 59.6794 87.8633 59.876C88.2947 56.7793 88.3585 53.6264 87.2863 50.688C86.0022 47.17 83.1403 43.887 79.3288 43.1287C75.0986 42.2888 71.0777 44.8264 67.9019 47.3436C64.8588 49.7536 62.2931 52.7967 60.3911 56.1793C59.2142 58.2727 58.3028 60.481 57.6569 62.7685C55.5942 60.7516 52.6328 59.6258 49.6841 60.0572C44.4404 60.8257 41.7777 66.4728 42.9163 71.3233C44.4736 77.9635 52.3851 78.6656 57.948 79.7123C65.1728 81.073 72.4997 81.9308 79.8445 82.2678C85.8567 82.5435 91.879 82.4567 97.881 82.0252C101.11 82.6788 104.46 83.9502 107.442 82.0533C108.006 81.6934 108.271 81.1879 108.322 80.6671C109.824 77.1236 109.413 72.9776 106.923 69.9422L106.921 69.9397Z" fill="#FBE8F2"/>
<path d="M299.691 27.5122C299.684 24.8283 299.332 22.1345 298.602 19.5526C297.928 17.1647 297.03 13.7835 294.471 12.7705C291.787 11.7081 288.741 13.6717 286.505 15.0235C285.311 15.7471 284.163 16.5496 283.068 17.4147C282.443 13.994 281.528 10.6227 279.71 7.63289C277.43 3.8899 273.691 0.771825 269.263 0.120584C264.78 -0.540525 260.38 1.49214 257.373 4.77795C254.137 8.31373 252.555 12.9514 251.404 17.5133C250.177 22.3779 249.355 27.3445 248.887 32.3406C240.148 30.0909 230.36 34.837 227.041 43.4939C226.666 44.4708 227.285 45.7996 228.176 46.2798C233.172 48.9637 238.964 48.5657 244.457 48.523C250.565 48.4769 256.673 48.3684 262.777 48.1974C275.207 47.8487 287.626 47.2402 300.033 46.3851C300.533 46.3522 300.951 46.1976 301.293 45.9641C302.036 45.9542 302.786 45.6352 303.319 44.8655C307.128 39.376 305.259 31.048 299.701 27.5056L299.691 27.5122Z" fill="#FBE8F2"/>
<ellipse cx="196.998" cy="248.999" rx="152" ry="19.9999" fill="#FBE8F2"/>
<path d="M310.651 197.208C322.506 178.895 310.787 154.642 288.988 152.378C277.294 151.164 265.982 156.967 260.209 167.141L233.714 213.841C224.059 230.859 236.421 251.867 256.092 251.867L275.264 251.867L310.651 197.208Z" fill="#055131"/>
<path d="M309.22 223.478C307.88 220.267 304.168 218.741 300.927 220.07L270.683 232.476L275.532 244.104L305.776 231.698C309.017 230.369 310.559 226.689 309.22 223.478Z" fill="#055131"/>
<path d="M312.342 234.262C311.677 230.85 308.349 228.619 304.908 229.278L272.768 235.433L275.174 247.788L307.314 241.633C310.755 240.974 313.006 237.674 312.342 234.262Z" fill="#055131"/>
<path d="M312.504 245.551C312.505 242.076 309.667 239.259 306.164 239.258L273.427 239.249L273.423 251.833L306.161 251.841C309.663 251.842 312.503 249.026 312.504 245.551Z" fill="#055131"/>
<path d="M71.617 197.209C59.7612 178.896 71.481 154.643 93.2797 152.379C104.973 151.165 116.286 156.968 122.058 167.142L148.553 213.842C158.209 230.86 145.846 251.868 126.175 251.868L107.004 251.868L71.617 197.209Z" fill="#055131"/>
<path d="M73.048 223.478C74.3871 220.267 78.0998 218.742 81.3405 220.071L111.585 232.477L106.736 244.105L76.4912 231.699C73.2504 230.37 71.7089 226.689 73.048 223.478Z" fill="#055131"/>
<path d="M69.926 234.262C70.5903 230.851 73.9185 228.619 77.3597 229.278L109.499 235.434L107.093 247.789L74.9539 241.633C71.5127 240.974 69.2617 237.674 69.926 234.262Z" fill="#055131"/>
<path d="M69.7633 245.552C69.7624 242.077 72.601 239.26 76.1035 239.259L108.841 239.25L108.844 251.834L76.1068 251.842C72.6043 251.843 69.7642 249.027 69.7633 245.552Z" fill="#055131"/>
<path d="M102.525 119.399C102.525 92.2762 124.512 70.2891 151.635 70.2891H233.935C261.058 70.2891 283.045 92.2761 283.045 119.399V159.058C283.045 208.907 242.634 249.318 192.785 249.318C142.936 249.318 102.525 208.907 102.525 159.058V119.399Z" fill="#00753F"/>
<mask id="mask0_7360_38461" style="mask-type:alpha" maskUnits="userSpaceOnUse" x="102" y="70" width="182" height="180">
<path d="M102.525 119.399C102.525 92.2762 124.512 70.2891 151.635 70.2891H233.935C261.058 70.2891 283.045 92.2761 283.045 119.399V159.058C283.045 208.907 242.634 249.318 192.785 249.318C142.936 249.318 102.525 208.907 102.525 159.058V119.399Z" fill="#139157"/>
</mask>
<g mask="url(#mask0_7360_38461)">
<path d="M125.42 158.876C125.42 134.901 144.856 115.464 168.832 115.464H216.976C240.952 115.464 260.388 134.901 260.388 158.876V181.834C260.388 219.104 230.174 249.318 192.904 249.318C155.634 249.318 125.42 219.104 125.42 181.834V158.876Z" fill="#3DA94E"/>
<ellipse cx="232.909" cy="200.079" rx="6.26636" ry="6.21462" fill="#00753F"/>
<ellipse cx="226.647" cy="186.693" rx="4.33825" ry="4.30243" fill="#00753F"/>
<ellipse cx="219.653" cy="213.225" rx="6.98941" ry="6.9317" fill="#00753F"/>
</g>
<rect x="128.797" y="46.1479" width="53.0231" height="52.5853" rx="26.2926" fill="#00753F"/>
<rect x="134.582" y="51.8848" width="41.4544" height="41.1121" rx="20.5561" fill="white"/>
<rect x="206.404" y="46.1479" width="53.0231" height="52.5853" rx="26.2926" fill="#00753F"/>
<rect x="212.189" y="51.8848" width="41.4544" height="41.1121" rx="20.5561" fill="white"/>
<ellipse cx="155.429" cy="70.1697" rx="9.27904" ry="9.20243" fill="black"/>
<ellipse cx="232.795" cy="70.1697" rx="9.27904" ry="9.20243" fill="black"/>
<rect width="9.39691" height="5.73821" rx="2.8691" transform="matrix(0.983108 -0.183026 0.185981 0.982553 181.365 90.7983)" fill="#213027"/>
<rect width="9.39691" height="5.73821" rx="2.8691" transform="matrix(-0.983108 -0.183026 -0.185981 0.982553 207.551 90.7983)" fill="#213027"/>
<path d="M141.445 121.568C137.224 115.938 141.32 107.914 148.357 108.027L185.415 108.626C192.683 108.743 196.407 117.41 191.671 122.926C178.314 138.485 153.741 137.972 141.445 121.568Z" fill="#00753F"/>
<path d="M142.648 119.844C139.648 115.842 142.56 110.138 147.561 110.219L185.399 110.83C190.577 110.914 193.311 116.995 189.937 120.925L189.539 121.388C177.007 135.986 154.185 135.234 142.648 119.844Z" fill="#213027"/>
<mask id="mask1_7360_38461" style="mask-type:alpha" maskUnits="userSpaceOnUse" x="141" y="110" width="51" height="22">
<path d="M142.643 119.839C139.644 115.839 142.556 110.138 147.557 110.219L185.399 110.83C190.577 110.913 193.311 116.992 189.938 120.921L189.541 121.384C177.008 135.982 154.18 135.23 142.643 119.839Z" fill="black"/>
</mask>
<g mask="url(#mask1_7360_38461)">
<path d="M179.596 134.382C181.923 138.796 178.146 143.965 173.221 143.107L135.93 136.612C130.831 135.723 129.091 129.303 133.041 125.95L133.506 125.555C148.194 113.088 170.637 117.386 179.596 134.382Z" fill="#C58F7C"/>
</g>
<path d="M221.871 41.9257C220.805 40.9036 220.765 39.201 221.939 38.3091C223.244 37.3166 224.684 36.5031 226.219 35.8939C228.586 34.955 231.126 34.523 233.673 34.6263C236.219 34.7297 238.715 35.366 240.997 36.4936C242.473 37.2233 243.838 38.148 245.055 39.2395C246.157 40.2274 245.981 41.9246 244.835 42.8565C243.69 43.7881 242.012 43.5922 240.851 42.6752C240.156 42.1266 239.403 41.6503 238.604 41.2552C237 40.4623 235.244 40.0148 233.453 39.9421C231.662 39.8694 229.876 40.1732 228.212 40.8335C227.378 41.1644 226.584 41.581 225.843 42.0751C224.617 42.892 222.935 42.9465 221.871 41.9257Z" fill="#213027"/>
<path d="M162.787 41.9257C163.853 40.9036 163.893 39.201 162.72 38.3091C161.414 37.3166 159.974 36.5031 158.439 35.8939C156.072 34.955 153.532 34.523 150.986 34.6263C148.439 34.7297 145.943 35.366 143.662 36.4936C142.185 37.2233 140.82 38.148 139.603 39.2395C138.501 40.2274 138.678 41.9246 139.823 42.8565C140.968 43.7881 142.646 43.5922 143.808 42.6752C144.502 42.1266 145.255 41.6503 146.054 41.2552C147.659 40.4623 149.414 40.0148 151.205 39.9421C152.996 39.8694 154.782 40.1732 156.446 40.8335C157.28 41.1644 158.074 41.581 158.815 42.0751C160.041 42.892 161.723 42.9465 162.787 41.9257Z" fill="#213027"/>
<path fill-rule="evenodd" clip-rule="evenodd" d="M127.235 58.9468C124.637 58.9468 122.531 61.0355 122.531 63.6121V68.4821C122.531 70.2677 123.991 71.7151 125.791 71.7151C126.726 71.7151 127.483 72.4664 127.483 73.393V93.0776C127.483 99.4513 132.693 104.618 139.12 104.618H171.183C177.609 104.618 182.819 99.4513 182.819 93.0776V74.9072C182.819 73.1443 184.26 71.7151 186.038 71.7151H199.16C200.938 71.7151 202.379 73.1443 202.379 74.9072V93.0776C202.379 99.4513 207.589 104.618 214.016 104.618H246.078C252.505 104.618 257.715 99.4513 257.715 93.0776V73.393C257.715 72.4664 258.473 71.7151 259.407 71.7151C261.207 71.7151 262.667 70.2677 262.667 68.4821V63.6121C262.667 61.0355 260.561 58.9468 257.963 58.9468H127.235ZM133.671 69.5052C133.671 66.793 135.888 64.5943 138.623 64.5943H172.295C175.03 64.5943 177.247 66.793 177.247 69.5052V94.5508C177.247 97.2631 175.03 99.4617 172.295 99.4617H138.623C135.888 99.4617 133.671 97.2631 133.671 94.5508V69.5052ZM207.948 69.5052C207.948 66.793 210.165 64.5943 212.9 64.5943H246.572C249.307 64.5943 251.524 66.793 251.524 69.5052V94.5508C251.524 97.2631 249.307 99.4617 246.572 99.4617H212.9C210.165 99.4617 207.948 97.2631 207.948 94.5508V69.5052Z" fill="black"/>
<path opacity="0.2" fill-rule="evenodd" clip-rule="evenodd" d="M127.235 63.8574C124.637 63.8574 122.531 65.9462 122.531 68.5228V73.3928C122.531 75.1783 123.991 76.6258 125.791 76.6258C126.726 76.6258 127.483 77.377 127.483 78.3037V97.9882C127.483 104.362 132.693 109.529 139.12 109.529H171.183C177.609 109.529 182.819 104.362 182.819 97.9882V79.8179C182.819 78.0549 184.26 76.6258 186.038 76.6258H199.16C200.938 76.6258 202.379 78.0549 202.379 79.8179V97.9882C202.379 104.362 207.589 109.529 214.016 109.529H246.078C252.505 109.529 257.715 104.362 257.715 97.9882V78.3037C257.715 77.377 258.473 76.6258 259.407 76.6258C261.207 76.6258 262.667 75.1783 262.667 73.3928V68.5228C262.667 65.9462 260.561 63.8574 257.963 63.8574H127.235ZM133.671 74.4158C133.671 71.7036 135.888 69.5049 138.623 69.5049H172.295C175.03 69.5049 177.247 71.7036 177.247 74.4158V99.4615C177.247 102.174 175.03 104.372 172.295 104.372H138.623C135.888 104.372 133.671 102.174 133.671 99.4615V74.4158ZM207.948 74.4158C207.948 71.7036 210.165 69.5049 212.9 69.5049H246.572C249.307 69.5049 251.524 71.7036 251.524 74.4158V99.4615C251.524 102.174 249.307 104.372 246.572 104.372H212.9C210.165 104.372 207.948 102.174 207.948 99.4615V74.4158Z" fill="black"/>
<rect x="133.676" y="64.5938" width="43.5758" height="34.8675" rx="9.75" fill="#72D6D6" fill-opacity="0.6"/>
<rect x="207.951" y="64.5938" width="43.5758" height="34.8675" rx="9.75" fill="#72D6D6" fill-opacity="0.6"/>
<mask id="mask2_7360_38461" style="mask-type:alpha" maskUnits="userSpaceOnUse" x="133" y="64" width="45" height="36">
<rect x="133.676" y="64.5942" width="43.5758" height="34.8675" rx="9.75" fill="#72D6D6"/>
</mask>
<g mask="url(#mask2_7360_38461)">
<path opacity="0.52" d="M150.18 63.3667H159.672L142.92 100.199H133.428L150.18 63.3667Z" fill="url(#paint0_linear_7360_38461)"/>
<path opacity="0.52" d="M162.764 63.3667H166.605L150.144 100.199H146.303L162.764 63.3667Z" fill="url(#paint1_linear_7360_38461)"/>
<path opacity="0.52" d="M165.241 63.3667H169.082L152.62 100.199H148.779L165.241 63.3667Z" fill="url(#paint2_linear_7360_38461)"/>
</g>
<path d="M330.326 45.202C332.378 42.7746 332.646 39.2368 334.055 36.3949C334.297 35.9055 334.603 35.437 334.972 35.0005C337.444 32.0761 341.838 31.6929 344.787 34.1446C347.736 36.5963 348.122 40.9546 345.65 43.879C345.276 44.3213 344.858 44.7055 344.408 45.0306C341.749 46.9502 338.14 47.8062 336.026 50.3062L330.281 57.103C328.912 58.7221 329.126 61.1351 330.758 62.4925C331.928 63.4651 333.566 63.6621 334.937 62.9949L338.072 61.4683C340.286 60.3902 341.602 58.078 343.188 56.2024C345.66 53.278 350.055 52.8948 353.003 55.3465C355.952 57.7982 356.339 62.1564 353.866 65.0809C352.921 66.1993 351.694 66.9461 350.375 67.3047C347.296 68.1413 343.745 67.7514 340.958 69.2994L320.693 80.5579C314.311 84.1032 306.384 83.3657 300.778 78.705C297.38 75.8792 295.182 71.8852 294.624 67.5217L291.258 41.2017C290.954 38.821 289.587 36.7118 288.499 34.5711C287.212 32.04 286.959 28.9457 288.664 26.9296C291.136 24.0052 295.53 23.6221 298.479 26.0738C300.33 27.6123 300.887 30.1915 300.434 32.6221C299.927 35.3453 298.871 38.1139 299.307 40.8464L300.741 49.8391C301.224 52.8657 305.231 53.6833 306.879 51.0915L313.703 37.853C315.328 34.701 314.477 30.7071 315.256 27.2543C315.492 26.2108 315.976 25.2063 316.716 24.3303C319.188 21.4059 323.583 21.0227 326.532 23.4745C329.48 25.9262 329.867 30.2844 327.395 33.2088C325.649 35.2741 323.183 36.902 322.102 39.3743L318.09 48.5547C317.443 50.0362 317.854 51.7635 319.102 52.8009C320.659 54.0953 322.979 53.893 324.284 52.349L330.326 45.202Z" fill="#00753F"/>
<path d="M272.084 153.962L306.538 75.6595" stroke="#00753F" stroke-width="20.1902" stroke-linecap="round"/>
<g opacity="0.75">
<path d="M329.567 100.658L292.669 94.9787C290.112 94.5852 288.345 92.1886 288.741 89.653L298.857 25.0155C299.253 22.4798 301.67 20.7272 304.227 21.1208L341.126 26.8002C343.683 27.1938 345.45 29.5903 345.053 32.126L334.938 96.7634C334.541 99.2991 332.124 101.052 329.567 100.658Z" fill="#FFB800"/>
<path d="M341.829 36.1941L300.686 29.8613L292.022 85.2208L333.166 91.5535L341.829 36.1941Z" fill="#FFB800"/>
<path d="M316.902 95.7397L306.24 94.0986C305.223 93.942 304.52 92.9884 304.678 91.9797C304.836 90.9708 305.797 90.2736 306.814 90.4302L317.476 92.0713C318.494 92.2278 319.197 93.1814 319.039 94.1901C318.881 95.1989 317.92 95.8963 316.902 95.7397Z" fill="#FFB800" stroke="#FFB800" stroke-width="0.173114" stroke-miterlimit="10"/>
<path d="M326.08 29.9708L317.594 28.6647C317.295 28.6186 317.088 28.3381 317.134 28.0414C317.181 27.7448 317.464 27.5396 317.763 27.5857L326.249 28.8918C326.548 28.9379 326.755 29.2184 326.708 29.5151C326.662 29.8117 326.379 30.0169 326.08 29.9708Z" fill="#FFB800" stroke="#FFB800" stroke-width="0.173114" stroke-miterlimit="10"/>
<path d="M337.805 32.6599C338.406 32.7524 338.968 32.3443 339.062 31.7484C339.155 31.1525 338.744 30.5944 338.143 30.5019C337.542 30.4094 336.979 30.8175 336.886 31.4134C336.793 32.0093 337.204 32.5674 337.805 32.6599Z" fill="#FFB800" stroke="#FFB800" stroke-width="0.173114" stroke-miterlimit="10"/>
</g>
<path d="M330.022 100.514L293.124 94.8347C290.567 94.4411 288.8 92.0446 289.197 89.5089L299.312 24.8715C299.709 22.3358 302.125 20.5832 304.682 20.9767L341.581 26.6562C344.138 27.0497 345.905 29.4463 345.508 31.9819L335.393 96.6194C334.996 99.155 332.579 100.908 330.022 100.514Z" fill="#FFB800"/>
<path d="M342.284 36.05L301.141 29.7173L292.477 85.0767L333.621 91.4095L342.284 36.05Z" fill="#FBF0D4"/>
<path d="M317.357 95.5956L306.695 93.9546C305.678 93.798 304.975 92.8444 305.133 91.8357C305.291 90.8267 306.252 90.1296 307.269 90.2861L317.931 91.9272C318.949 92.0838 319.652 93.0374 319.494 94.0461C319.336 95.0548 318.375 95.7522 317.357 95.5956Z" fill="#D19A0D" stroke="#D19A0D" stroke-width="0.173114" stroke-miterlimit="10"/>
<path d="M326.535 29.8268L318.049 28.5206C317.75 28.4746 317.543 28.194 317.589 27.8974C317.636 27.6008 317.919 27.3956 318.218 27.4416L326.704 28.7478C327.003 28.7938 327.21 29.0744 327.163 29.371C327.117 29.6677 326.834 29.8728 326.535 29.8268Z" fill="#D19A0D" stroke="#D19A0D" stroke-width="0.173114" stroke-miterlimit="10"/>
<path d="M338.26 32.5158C338.861 32.6083 339.424 32.2002 339.517 31.6043C339.61 31.0084 339.199 30.4504 338.598 30.3579C337.997 30.2654 337.434 30.6735 337.341 31.2694C337.248 31.8653 337.659 32.4233 338.26 32.5158Z" fill="#D19A0D" stroke="#D19A0D" stroke-width="0.173114" stroke-miterlimit="10"/>
<path fill-rule="evenodd" clip-rule="evenodd" d="M311.941 51.2404C312.597 47.2549 316.371 44.5483 320.356 45.2045C324.342 45.8607 327.049 49.6344 326.392 53.6199C325.733 57.5268 322.155 60.1874 318.238 59.6831L318.208 59.6781L318.132 59.6656C318.043 59.6354 317.921 59.6153 317.797 59.6105C313.834 58.8174 311.297 55.1499 311.941 51.2404ZM309.602 62.4176C314.342 60.2921 321.264 61.4317 325.042 64.9599C326.748 66.5533 327.512 68.4602 327.219 70.3338C326.909 72.2201 325.559 73.7789 323.429 74.7563C321.064 75.8356 318.147 76.0897 315.348 75.6288C312.549 75.1679 309.868 73.9921 307.974 72.2116C306.267 70.6182 305.488 68.7087 305.796 66.8376C306.104 64.9666 307.457 63.3926 309.602 62.4176Z" fill="#D72B6A"/>
<path d="M38.2504 96.1717C35.8725 94.8102 34.5997 92.0648 32.7132 90.0849C32.2947 89.6457 31.8058 89.2585 31.2511 88.9409C28.1743 87.1792 24.24 88.2247 22.4637 91.2761C20.6873 94.3275 21.7415 98.2293 24.8182 99.991C25.3819 100.314 25.9744 100.542 26.5771 100.682C29.3329 101.318 32.4742 100.979 34.9238 102.382L42.3668 106.643C44.0702 107.619 44.6539 109.779 43.6704 111.468C42.9657 112.679 41.6074 113.364 40.206 113.214L37.0012 112.873C34.7337 112.632 32.8563 111.039 30.8827 109.909C27.8059 108.148 23.8716 109.193 22.0952 112.244C20.3189 115.296 21.373 119.198 24.4498 120.959C25.7144 121.683 27.1239 121.933 28.4688 121.765C31.2101 121.421 33.9706 120.084 36.6952 120.524L58.1609 123.984C64.8271 125.058 71.4688 121.933 74.8457 116.132C76.8931 112.615 77.5267 108.461 76.6196 104.501L71.1048 80.423C70.6382 78.3859 71.1161 76.2537 71.4046 74.1816C71.7738 71.5297 71.0207 68.6632 68.8493 67.4199C65.7725 65.6582 61.8382 66.7037 60.0618 69.7551C58.9016 71.748 59.3161 74.2797 60.6004 76.2871C61.8877 78.2991 63.5414 80.2262 64.002 82.5685L65.6758 91.0801C66.2218 93.857 63.0067 95.8226 60.7505 94.0911L50.3538 84.5101C48.0974 82.4307 47.5825 78.9749 46.0552 76.3192C45.5091 75.3697 44.7094 74.5468 43.6859 73.9608C40.6091 72.1991 36.6748 73.2446 34.8985 76.296C33.1221 79.3474 34.1763 83.2491 37.253 85.0109C39.4257 86.2549 42.0827 86.8925 43.8088 88.6991L50.2165 95.4057C51.2504 96.4878 51.444 98.1153 50.6924 99.4064C49.7546 101.017 47.6775 101.569 46.0531 100.639L38.2504 96.1717Z" fill="#00753F"/>
<path d="M64.7852 115.123V115.123C64.3781 134.185 82.4357 148.359 100.884 143.456L113.316 140.153" stroke="#00753F" stroke-width="17.4833" stroke-linecap="round"/>
<defs>
<linearGradient id="paint0_linear_7360_38461" x1="146.55" y1="63.3667" x2="146.55" y2="100.199" gradientUnits="userSpaceOnUse">
<stop stop-color="white"/>
<stop offset="1" stop-color="white" stop-opacity="0"/>
</linearGradient>
<linearGradient id="paint1_linear_7360_38461" x1="156.454" y1="63.3667" x2="156.454" y2="100.199" gradientUnits="userSpaceOnUse">
<stop stop-color="white"/>
<stop offset="1" stop-color="white" stop-opacity="0"/>
</linearGradient>
<linearGradient id="paint2_linear_7360_38461" x1="158.93" y1="63.3667" x2="158.93" y2="100.199" gradientUnits="userSpaceOnUse">
<stop stop-color="white"/>
<stop offset="1" stop-color="white" stop-opacity="0"/>
</linearGradient>
</defs>
</svg>
