<svg width="250" height="251" viewBox="0 0 250 251" fill="none" xmlns="http://www.w3.org/2000/svg">
<path d="M197.522 79.1402C197.46 77.5738 196.811 76.0882 195.703 74.979C196.278 73.98 196.573 72.8444 196.556 71.6919C196.539 70.5395 196.212 69.4128 195.609 68.4309C194.398 66.4524 191.538 66.0854 189.439 65.7146C187.006 65.263 184.498 65.4281 182.145 66.1949C177.402 67.7495 173.119 71.2675 169.62 74.672C166.65 77.5772 165.043 80.4446 163.643 83.8718C163.158 84.9521 162.736 86.0599 162.379 87.1894C160.057 94.5583 154.598 110.688 154.598 110.688C154.598 110.688 154.878 96.5518 154.579 91.8799C154.636 85.9106 154.22 79.9412 153.982 73.9794C153.653 65.7554 152.953 62.7897 150.502 54.751C149.341 50.9416 146.341 46.8901 143.216 44.3707C139.872 41.6848 134.701 39.4527 130.525 38.7528C126.239 38.0226 121.896 37.213 117.554 37.1146C115.465 36.9329 113.373 36.8232 111.327 36.7361C102.218 36.4371 84.6237 36.6183 77.372 37.0342C70.1202 37.4502 62.8571 38.7324 56.2748 41.4862C32.9797 51.3211 30.4407 80.4492 28.2462 102.163C26.1273 123.146 25.2981 160.018 25.1011 173.175C24.5966 176.935 24.1224 180.699 23.6785 184.466C23.3644 187.137 23.0617 189.952 23.2281 192.664C23.0578 195.69 23.1561 198.83 24.8205 201.44C25.9818 203.256 30.6574 206.142 35.3557 206.04C36.029 206.04 36.6759 206.04 37.3076 206.078C38.2684 206.81 39.3297 207.398 40.4587 207.826C43.7498 209.01 46.413 207.588 48.5655 205.091C48.9438 204.91 49.3221 204.713 49.7004 204.528C50.0903 204.527 50.4797 204.498 50.8655 204.441C50.8251 205.954 50.7847 207.467 50.7443 208.98C50.5626 215.789 50.3834 222.598 50.2067 229.408C50.1234 232.517 49.6465 243.601 49.6465 243.601C49.6465 243.601 48.4322 244.603 47.1498 245.795C45.8674 246.986 44.9443 249.109 47.1497 249.271C47.1497 249.271 74.8365 249.363 77.2159 249.363C79.5954 249.363 80.1969 248.039 80.2196 246.56C80.3964 235.284 80.5996 224.008 80.8294 212.73C81.6095 174.103 84.0549 97.9953 84.0549 97.9953C84.0549 97.9953 93.0279 96.9363 96.9394 97.8518C97.2721 106.744 97.5241 115.64 97.6954 124.54C98.4132 165.115 95.647 205.168 94.3562 246.193C94.3032 247.88 95.5931 249.076 96.6258 249.076L128.879 249.076C130.365 249.076 131.201 247.162 130.108 246.111C129.037 245.064 127.825 244.173 126.507 243.463C126.442 243.427 126.375 243.396 126.306 243.368C126.829 231.205 127.285 219.04 127.677 206.875C128.736 173.765 129.296 140.644 129.355 107.514C129.355 107.332 129.313 105.819 129.249 103.565C129.434 106.05 129.627 108.532 129.827 111.002C130.224 116.018 130.814 123.909 134.336 130.907C137.858 137.906 145.495 139.608 153.25 139.608C161.005 139.609 169.577 133.73 173.678 126.032C178.596 116.802 182.001 104.871 184.036 94.4719C184.362 93.6321 184.649 92.7658 184.914 91.926C185.187 91.9948 185.466 92.0441 185.746 92.0736C187.547 92.5692 189.771 92.0283 191.42 91.4457C194.802 90.1823 196.599 86.7778 195.676 83.4299C196.281 82.8951 196.76 82.2333 197.079 81.4917C197.399 80.7501 197.55 79.9471 197.522 79.1402Z" fill="#E84C8D"/>
<path d="M86.4399 18.2442C87.3553 18.7587 88.4523 18.9251 89.5342 19.0878C90.1924 21.9779 90.1015 26.2564 92.6246 27.6409C95.1478 29.0255 98.5259 28.9764 99.7629 27.7621C103.947 23.654 104.965 18.3278 104.95 13.0923C104.95 9.21864 105.4 1.06279 99.0788 0.986991C94.3578 0.933926 91.4373 5.5641 90.0792 9.58525L89.9959 9.58525C87.7262 9.67221 85.4187 10.8411 84.4237 12.7022C83.2926 14.8319 84.348 17.0676 86.4399 18.2442Z" fill="#E84C8D"/>
<path d="M227.221 25.6852C227.18 23.302 227.074 20.9188 226.968 18.5356C226.88 16.5181 226.779 14.5119 226.665 12.517C226.578 10.9736 226.938 8.41264 225.939 7.09618C224.99 5.84024 223.163 6.1731 221.778 6.25251C219.815 6.37094 217.861 6.60712 215.926 6.95978C214.105 7.28927 212.306 7.73141 210.539 8.28366C208.421 8.94183 204.906 10.5306 204.831 7.08815C204.801 5.66579 204.611 4.63685 203.151 4.00886C201.502 3.29765 199.368 3.63049 197.643 3.76663C193.174 4.11083 188.777 5.09683 184.589 6.69428C184.357 6.78834 184.154 6.93989 183.997 7.13458C183.841 7.32927 183.737 7.56067 183.695 7.80687C183.653 8.05307 183.674 8.30593 183.757 8.54151C183.84 8.7771 183.982 8.98761 184.169 9.15313C183.495 15.4213 183.881 21.7122 184.308 27.988C184.322 28.2161 184.392 28.4371 184.513 28.6311C184.387 28.8609 184.328 29.121 184.342 29.3824C184.356 29.6438 184.442 29.8962 184.592 30.1113C184.741 30.3264 184.947 30.4958 185.187 30.6005C185.427 30.7052 185.691 30.7411 185.95 30.7042L198.906 28.5217C200.068 28.3288 202.398 27.6631 203.476 28.484C204.554 29.3049 203.854 31.2153 204.921 32.2404C205.905 33.1862 207.263 33.0198 208.503 32.8912C210.667 32.6642 212.823 32.3655 214.965 31.9796C216.814 31.6468 218.657 31.2534 220.48 30.7957C222.186 30.3683 224.342 30.0884 225.848 29.139C227.1 28.3597 227.248 27.0433 227.221 25.6852Z" fill="#FFC633"/>
<path fill-rule="evenodd" clip-rule="evenodd" d="M184.044 5.00751C184.671 4.99094 185.192 5.48543 185.209 6.11197C185.644 22.5603 185.916 44.9943 186.07 69.9595C186.074 70.5862 185.569 71.0975 184.942 71.1014C184.316 71.1052 183.804 70.6003 183.801 69.9735C183.646 45.0125 183.374 22.5968 182.94 6.17197C182.923 5.54543 183.418 5.02408 184.044 5.00751ZM185.037 91.9488C185.664 91.9467 186.174 92.453 186.176 93.0798C186.367 149.987 186.071 213.998 185.775 249.738C185.77 250.365 185.257 250.868 184.631 250.863C184.004 250.858 183.5 250.346 183.505 249.719C183.801 213.986 184.098 149.984 183.906 93.0875C183.904 92.4607 184.41 91.9509 185.037 91.9488Z" fill="#B58300"/>
<path fill-rule="evenodd" clip-rule="evenodd" d="M98.7048 8.98285C99.0129 8.92578 99.309 9.12931 99.3661 9.43746C100.023 12.9828 100.117 16.6094 99.6466 20.1842C99.6103 20.4602 99.3791 20.669 99.1009 20.6773C97.5211 20.7243 95.9402 20.6338 94.3761 20.4068C94.0659 20.3618 93.851 20.0739 93.896 19.7637C93.9411 19.4536 94.229 19.2387 94.5391 19.2837C95.8778 19.478 97.2293 19.568 98.5815 19.5529C98.967 16.2529 98.8556 12.9128 98.2502 9.64412C98.1931 9.33598 98.3966 9.03992 98.7048 8.98285ZM189.42 69.7959C189.464 70.1062 189.248 70.3935 188.938 70.4375C187.129 70.6944 185.765 71.1252 184.445 72.1738C184.665 72.2961 184.877 72.4212 185.078 72.5434C186.126 73.1576 187.086 73.9097 187.933 74.7796C187.937 74.7838 187.941 74.7879 187.945 74.7922C188.587 75.493 189.102 76.2948 189.472 77.1615C191.613 76.9079 193.36 75.9449 194.978 74.4153C195.206 74.2 195.565 74.2101 195.781 74.4379C195.996 74.6656 195.986 75.0247 195.758 75.24C194.063 76.8419 192.173 77.9246 189.852 78.2563C189.897 78.4212 189.937 78.5877 189.972 78.7556C190.065 79.1479 190.093 79.553 190.054 79.9545C190.054 79.9609 190.053 79.9674 190.052 79.9738C189.927 80.9322 189.276 81.6246 188.508 82.0148C187.744 82.4035 186.802 82.5296 185.952 82.3244C184.907 82.0722 184.037 81.4679 183.283 80.7957C183.288 81.4906 183.204 82.1767 183.037 82.8342C183.096 82.9079 183.137 82.9973 183.153 83.0969C183.309 84.0623 183.684 84.6369 184.229 85.0175C184.354 85.1049 184.491 85.1842 184.641 85.2562C184.694 85.2712 184.744 85.2937 184.791 85.3236C185.309 85.5439 185.967 85.6878 186.79 85.7785C189.028 86.0252 192.408 85.3689 195.107 83.8403C195.38 83.6858 195.726 83.7817 195.881 84.0544C196.035 84.327 195.939 84.6733 195.666 84.8277C192.782 86.4614 189.164 87.182 186.666 86.9065C185.901 86.8223 185.197 86.6887 184.577 86.4593C183.735 87.201 183.366 88.0703 183.371 88.8187C183.376 89.6201 183.808 90.3609 184.719 90.7736C185.004 90.9029 185.131 91.2391 185.001 91.5246C184.872 91.8101 184.536 91.9366 184.25 91.8073C182.948 91.2175 182.245 90.0839 182.236 88.8265C182.229 87.8124 182.672 86.7721 183.517 85.9032C183.027 85.5458 182.654 85.0876 182.394 84.5176C181.708 85.8229 180.641 86.8999 179.254 87.532C178.968 87.662 178.632 87.5362 178.502 87.251C178.372 86.9659 178.498 86.6293 178.783 86.4994C181.283 85.3599 182.617 82.3768 182 79.4066C181.949 79.1597 182.066 78.9085 182.289 78.7901C182.512 78.6717 182.786 78.7145 182.962 78.8951C184.001 79.9617 184.977 80.9217 186.218 81.2212C186.794 81.3603 187.46 81.2746 187.994 81.0032C188.521 80.735 188.858 80.3227 188.926 79.8363C188.951 79.56 188.931 79.2814 188.866 79.0117C188.864 79.0055 188.863 78.9993 188.862 78.9932C188.599 77.7137 187.995 76.5292 187.114 75.5651C186.338 74.7697 185.459 74.0819 184.501 73.5201L184.493 73.5158C183.137 72.6935 181.806 72.0737 180.589 72.4391C180.289 72.5292 179.973 72.3589 179.882 72.0588C179.792 71.7586 179.963 71.4422 180.263 71.3521C181.319 71.035 182.372 71.2427 183.33 71.6319C183.342 71.6187 183.355 71.606 183.369 71.5938C185.016 70.15 186.689 69.6107 188.778 69.3139C189.088 69.2699 189.376 69.4857 189.42 69.7959ZM129.91 74.0093C130.224 74.0182 130.47 74.2792 130.461 74.5925C130.218 83.255 130.254 89.1722 130.298 96.3778C130.314 99.0056 130.331 101.805 130.336 104.971C130.337 105.284 130.083 105.539 129.77 105.539C129.456 105.54 129.202 105.286 129.201 104.973C129.196 101.817 129.179 99.0232 129.163 96.3978C129.119 89.1854 129.083 83.2438 129.327 74.5606C129.336 74.2473 129.597 74.0005 129.91 74.0093ZM60.8199 75.8951C61.1167 75.9958 61.2756 76.318 61.1748 76.6148C55.8661 92.2539 55.7806 109.007 55.6954 125.712C55.6821 128.331 55.6687 130.949 55.6352 133.561C55.5404 140.919 55.2043 152.556 54.892 162.35C54.7358 167.248 54.5856 171.686 54.4744 174.9C54.4188 176.507 54.3729 177.808 54.341 178.707C54.325 179.156 54.3125 179.505 54.304 179.742L54.2946 180.004L54.2947 180.004C54.3148 180.067 54.3441 180.159 54.3814 180.276C54.4559 180.512 54.5624 180.85 54.69 181.265C54.9452 182.094 55.2857 183.227 55.6263 184.442C55.9667 185.656 56.3088 186.957 56.5663 188.122C56.8205 189.271 57.0034 190.336 57.0034 191.053C57.0034 192.404 56.6138 194.167 55.6045 195.64C55.5699 196.426 55.4239 197.458 55.1733 198.445C54.9061 199.497 54.4949 200.6 53.8972 201.27C53.8922 201.276 53.8872 201.281 53.882 201.286C52.8056 202.402 51.6016 203.386 50.2948 204.219C50.0306 204.388 49.6798 204.31 49.5113 204.046C49.3428 203.782 49.4204 203.431 49.6846 203.262C50.9129 202.479 52.0449 201.554 53.0573 200.507C53.4592 200.051 53.8153 199.182 54.0734 198.166C54.1681 197.793 54.2463 197.414 54.3078 197.049C53.3163 197.845 52.0175 198.385 50.3627 198.453C50.1361 198.995 49.8981 199.533 49.6489 200.066C49.5161 200.35 49.1784 200.472 48.8945 200.339C48.6106 200.207 48.4881 199.869 48.6209 199.585C49.918 196.811 50.9018 193.901 51.554 190.91C51.6207 190.603 51.923 190.409 52.2292 190.476C52.5354 190.543 52.7295 190.845 52.6628 191.151C52.2079 193.238 51.5959 195.286 50.8328 197.278C52.5619 197.077 53.7387 196.247 54.5219 195.203C54.5547 195.126 54.6039 195.058 54.6651 195.004C55.5243 193.752 55.8685 192.221 55.8686 191.053C55.8686 190.473 55.7126 189.517 55.4582 188.367C55.2072 187.231 54.8712 185.952 54.5336 184.748C54.1963 183.545 53.8587 182.422 53.6054 181.599C53.4788 181.188 53.3733 180.852 53.2995 180.619C53.2626 180.503 53.2337 180.412 53.214 180.351L53.1916 180.281L53.1845 180.259L53.1842 180.258C53.1842 180.258 53.1841 180.258 53.7239 180.083C53.1569 180.062 53.1569 180.062 53.1569 180.062L53.1569 180.061L53.1699 179.701C53.1784 179.465 53.1909 179.116 53.2068 178.666C53.2388 177.768 53.2846 176.467 53.3402 174.861C53.4514 171.648 53.6016 167.211 53.7577 162.314C54.07 152.519 54.4058 140.892 54.5005 133.546C54.5337 130.95 54.5467 128.343 54.5597 125.728C54.6428 109.037 54.7272 92.0782 60.1002 76.25C60.2009 75.9532 60.5232 75.7943 60.8199 75.8951ZM53.7239 180.083L53.1569 180.062C53.1545 180.128 53.1638 180.195 53.1842 180.258L53.7239 180.083ZM27.7416 199.674C28.0276 199.546 28.3633 199.674 28.4914 199.96L29.6262 202.495C29.7543 202.781 29.6262 203.116 29.3402 203.244C29.0542 203.372 28.7185 203.244 28.5904 202.958L27.4556 200.424C27.3275 200.138 27.4556 199.802 27.7416 199.674ZM34.3957 201.009C34.6549 200.833 35.0078 200.9 35.1839 201.159L37.5406 204.628C37.7167 204.888 37.6493 205.24 37.39 205.417C37.1308 205.593 36.7779 205.525 36.6018 205.266L34.2452 201.797C34.0691 201.538 34.1365 201.185 34.3957 201.009Z" fill="white"/>
</svg>
