<svg width="238" height="238" viewBox="0 0 238 238" fill="none" xmlns="http://www.w3.org/2000/svg">
<path fill-rule="evenodd" clip-rule="evenodd" d="M162.172 31.7272C162.294 32.208 162.004 32.6968 161.523 32.8188C150.374 35.6483 142.794 38.9142 137.825 41.8469C132.823 44.7987 130.546 47.3647 129.866 48.7439C129.647 49.1889 129.108 49.3718 128.663 49.1524C128.218 48.9331 128.035 48.3945 128.254 47.9495C129.163 46.107 131.795 43.3191 136.912 40.2997C142.06 37.2612 149.807 33.9386 161.081 31.0774C161.562 30.9554 162.05 31.2463 162.172 31.7272Z" fill="#B58300"/>
<path fill-rule="evenodd" clip-rule="evenodd" d="M163.21 41.0868C163.643 41.3287 163.798 41.8759 163.556 42.3091C163.103 43.1202 162.207 43.8322 161.163 44.4309C160.091 45.046 158.745 45.6067 157.249 46.0658C154.259 46.9829 150.57 47.5236 147.072 47.2296C141.981 46.8016 139.944 49.08 139.578 49.9154C139.378 50.3697 138.849 50.5765 138.394 50.3773C137.94 50.1781 137.733 49.6483 137.932 49.1939C138.673 47.5052 141.542 44.9618 147.222 45.4393C150.456 45.7112 153.914 45.2096 156.722 44.3482C158.124 43.9181 159.34 43.4055 160.27 42.8724C161.228 42.3227 161.776 41.8113 161.988 41.433C162.23 40.9998 162.777 40.8448 163.21 41.0868Z" fill="#B58300"/>
<path d="M85.1324 34.247C86.1885 37.1735 87.8675 39.2048 90.5109 40.027C92.7034 40.7081 95.1361 40.0549 96.5786 38.3732C97.854 36.8868 98.7614 35.157 98.8907 33.1019C99.0168 31.0473 98.8391 27.3844 98.171 24.6596C97.503 21.9349 95.5805 19.1853 94.1168 18.1098C92.6532 17.0343 90.6237 16.9367 88.5209 17.816C86.4212 18.6949 85.5172 19.688 84.8004 21.6213C84.4411 22.5929 84.193 23.7565 84.06 25.024C81.6503 25.9107 78.9284 27.2273 79.2167 30.0865C79.5028 32.9298 82.4647 34.2197 85.132 34.2439L85.1324 34.247Z" fill="#E84C8D"/>
<path d="M91.716 22.5677C92.0559 22.4033 92.4648 22.5455 92.6292 22.8854C93.9632 25.643 94.8046 28.4236 95.2791 31.6827C95.3266 32.009 95.1345 32.3227 94.8222 32.4286C93.6839 32.815 91.9943 33.1302 90.848 33.2781C90.4736 33.3264 90.1308 33.062 90.0825 32.6875C90.0342 32.313 90.2986 31.9703 90.6731 31.922C91.5972 31.8028 92.8559 31.5734 93.8368 31.3007C93.3686 28.4208 92.5887 25.9416 91.3983 23.4809C91.2339 23.141 91.3761 22.7321 91.716 22.5677Z" fill="white"/>
<path d="M75.0167 84.5519C75.3804 84.6535 75.5928 85.0307 75.4912 85.3943C75.3394 85.9374 75.2639 87.0777 75.2883 88.7979C75.3123 90.4864 75.4297 92.6518 75.6242 95.1871C76.0131 100.256 76.7075 106.77 77.5656 113.837C79.2817 127.97 81.6491 144.288 83.5247 155.624C83.6717 156.511 83.8103 157.31 84.1236 158.014C84.4813 158.813 85.0511 159.454 85.718 160.157C85.7745 160.217 85.8319 160.277 85.89 160.338L85.8903 160.338L85.8904 160.338C86.4946 160.972 87.1665 161.677 87.6603 162.545C88.3254 163.715 88.5773 165.113 88.467 166.434C88.3588 167.731 87.8963 169.01 87.0604 169.954C87.1767 170.3 87.269 170.659 87.3261 171.03C87.6239 172.951 86.9129 174.872 85.7734 176.172L85.7729 176.172C85.7731 176.172 85.7733 176.172 85.7734 176.172L85.2588 175.722L85.7729 176.172L85.7734 176.172C85.7733 176.172 85.7731 176.172 85.7729 176.172C84.6366 177.471 83.1331 178.206 81.6666 178.656C81.4809 178.713 81.2797 178.689 81.1133 178.589C80.0218 177.932 78.8808 176.898 77.9155 175.717C76.9507 174.536 76.1262 173.166 75.7073 171.817C75.5953 171.456 75.7969 171.073 76.1575 170.961C76.5181 170.849 76.9012 171.05 77.0131 171.411C77.3652 172.545 78.0839 173.762 78.9743 174.851C79.7824 175.84 80.703 176.689 81.5602 177.254C82.7789 176.844 83.9038 176.232 84.7443 175.271L84.7448 175.271C85.6547 174.233 86.2028 172.708 85.9748 171.239L85.9747 171.238C85.8043 170.129 85.2282 169.124 84.5854 168.039C84.2619 167.495 84.025 166.703 83.8412 165.987C83.7463 165.618 83.6601 165.245 83.5819 164.907C83.5026 164.565 83.4328 164.263 83.3674 164.017C83.2704 163.652 83.4876 163.278 83.8526 163.181C84.2175 163.084 84.5919 163.301 84.6889 163.666C84.7601 163.934 84.8342 164.254 84.9106 164.584L84.9141 164.599C84.9928 164.939 85.0754 165.296 85.1656 165.647C85.3518 166.372 85.5497 166.986 85.7606 167.34L85.7614 167.341C85.9799 167.71 86.2109 168.101 86.4281 168.513C86.8015 167.896 87.0365 167.134 87.1044 166.321C87.1949 165.237 86.983 164.12 86.4717 163.221C86.065 162.506 85.5079 161.92 84.8845 161.265C84.8321 161.21 84.7792 161.154 84.7259 161.098C84.0602 160.396 83.3378 159.606 82.8749 158.571L82.8744 158.57C82.4803 157.685 82.3196 156.715 82.178 155.862L82.1757 155.848C80.297 144.492 77.9267 128.155 76.2082 114.002C75.3491 106.926 74.652 100.39 74.2609 95.2917C74.0654 92.7435 73.9456 90.5464 73.9211 88.8173C73.897 87.1197 73.9616 85.7872 74.1743 85.0263C74.2759 84.6627 74.6531 84.4502 75.0167 84.5519Z" fill="white"/>
<path d="M129.361 77.003C129.624 76.732 130.057 76.7255 130.328 76.9885C130.703 77.3527 131.018 77.9509 131.294 78.6193C131.58 79.3123 131.859 80.1734 132.131 81.1435C132.674 83.0854 133.198 85.5201 133.672 88.0395C134.621 93.0812 135.38 98.5173 135.696 101.154C136.239 105.709 137.044 112.161 137.545 115.732C137.598 116.106 137.337 116.452 136.964 116.504C136.59 116.557 136.244 116.296 136.191 115.922C135.688 112.337 134.881 105.873 134.338 101.316C134.025 98.7028 133.271 93.2978 132.329 88.2925C131.857 85.7885 131.342 83.3981 130.814 81.5118C130.55 80.5677 130.287 79.7638 130.03 79.1406C129.763 78.493 129.535 78.124 129.376 77.9698C129.105 77.7068 129.098 77.274 129.361 77.003Z" fill="white"/>
<path d="M146.149 83.6543C146.525 83.681 146.809 84.008 146.782 84.3846C146.555 87.5933 146.055 97.2173 146.543 103.493C146.572 103.869 146.291 104.198 145.914 104.227C145.538 104.256 145.209 103.975 145.18 103.599C144.683 97.2132 145.191 87.5005 145.418 84.2879C145.445 83.9113 145.772 83.6276 146.149 83.6543Z" fill="white"/>
<path d="M70.1101 171.39C70.4773 171.302 70.8464 171.528 70.9344 171.895C71.3198 173.502 72.14 174.978 73.2265 176.045C73.4959 176.31 73.4997 176.742 73.2351 177.012C72.9705 177.281 72.5377 177.285 72.2683 177.02C70.9862 175.761 70.0456 174.052 69.6048 172.214C69.5167 171.847 69.743 171.478 70.1101 171.39Z" fill="white"/>
<path d="M173.182 70.5173C173.448 70.0681 173.655 69.5816 173.805 69.0578C174.343 67.1918 174.229 64.8887 172.617 63.688C174.243 59.5479 170.738 56.4369 167.656 55.3227C164.151 54.0573 160.463 54.5886 157.205 56.1427C150.732 59.2285 147.806 75.5719 146.494 83.5505C144.269 72.3161 139.748 60.5385 131.785 52.9941C123.649 45.2825 112.338 45.5453 102.643 45.9216C92.1033 46.3322 84.2635 47.9918 74.627 52.6705C66.4088 56.6633 59.9908 61.5303 57.6743 72.1215C55.123 83.7902 55.97 96.7685 56.7852 108.814C57.7018 122.386 59.6189 135.911 61.8066 149.34C63.4851 159.636 63.8142 176.603 73.5426 177.468C74.9971 178.905 76.2879 178.902 77.4009 179.047C78.1091 179.139 80.1069 179.121 81.1938 178.118C81.6815 178.546 82.4634 186.564 82.7316 188.415C83.7523 195.443 84.7594 202.472 85.8184 209.498C86.2817 212.56 87.0821 217.293 87.1619 219.805C85.8764 221.378 82.504 223.944 82.8709 226.555C83.2379 229.166 84.7475 229.739 88.6517 229.19C92.5559 228.642 98.8835 227.355 103.483 226.709C108.083 226.063 107.813 226.188 108.653 224.779C109.492 223.37 108.296 220.373 107.922 217.617C107.459 214.198 106.174 205.527 105.589 202.129C104.395 195.181 103.243 188.239 102.189 181.268C100.227 168.313 98.5704 157.817 96.7851 144.837C95.8664 138.161 94.665 129.239 93.813 122.547C93.0467 116.524 91.1897 101.758 91.1897 101.758C91.1897 101.758 97.7785 100.778 98.5668 100.577C101.215 99.9062 103.922 99.474 106.603 98.9804C108.002 98.7223 112.933 98.1885 112.933 98.1885C112.933 98.1885 121.98 161.184 125.682 187.647C126.637 194.48 128.609 207.297 129.251 211.867C129.894 216.438 130.045 219.92 130.787 221.431C131.529 222.942 132.559 222.933 134.654 222.639L147.832 220.875C153.982 220.01 155.982 219.46 155.798 216.917C155.615 214.374 151.139 212.817 150.394 211.618C149.648 210.418 148.849 202.587 148.185 199.08C146.943 192.521 145.793 182.687 144.869 176.073C142.965 162.442 141.072 148.816 139.241 135.175C138.384 128.779 136.591 118.601 135.932 112.184C141.901 120.268 150.197 118.737 157.412 112.044C162.367 105.815 164.848 95.5326 165.177 82.6375C168.159 81.5893 172.815 78.5284 173.599 74.7207C173.832 73.5884 173.582 72.9262 173.493 71.8619C172.862 71.4186 172.758 70.9694 173.179 70.5145L173.182 70.5173Z" fill="#E84C8D"/>
<path fill-rule="evenodd" clip-rule="evenodd" d="M155.83 23.8949C156.157 23.8718 156.636 23.9883 157.271 24.5406C157.915 25.0995 158.606 26.0159 159.262 27.306C160.57 29.8795 161.574 33.6165 161.876 37.8952C162.178 42.1739 161.709 46.0149 160.775 48.7465C160.306 50.116 159.75 51.1204 159.192 51.764C158.64 52.4001 158.183 52.5826 157.855 52.6057C157.528 52.6288 157.049 52.5124 156.413 51.96C155.77 51.4012 155.079 50.4847 154.423 49.1946C153.114 46.6212 152.111 42.8841 151.809 38.6054C151.507 34.3267 151.976 30.4858 152.91 27.7541C153.379 26.3847 153.934 25.3803 154.493 24.7366C155.045 24.1005 155.502 23.918 155.83 23.8949ZM155.703 22.1028C159.473 21.8369 163.039 28.8508 163.668 37.7688C164.203 45.3449 162.446 51.8581 159.593 53.8096L160.649 60.2243C160.729 60.7139 160.398 61.176 159.908 61.2565C159.419 61.3371 158.957 61.0055 158.876 60.516L157.87 54.4036C154.142 54.5257 150.64 47.5622 150.017 38.7318C149.387 29.8138 151.933 22.3687 155.703 22.1028Z" fill="#FFC633"/>
<path fill-rule="evenodd" clip-rule="evenodd" d="M160.712 70.9504C161.203 70.8814 161.659 71.2363 161.731 71.7432L162.734 78.8844C162.805 79.3912 162.465 79.8581 161.973 79.9271C161.482 79.9961 161.026 79.6412 160.955 79.1344L159.951 71.9931C159.88 71.4863 160.221 71.0195 160.712 70.9504Z" fill="#FFC633"/>
<path fill-rule="evenodd" clip-rule="evenodd" d="M159.895 62.2413C158.604 61.258 157.268 60.743 156.192 61.1243C155.973 61.2018 155.733 61.0874 155.656 60.8687C155.578 60.6501 155.693 60.4101 155.911 60.3326C157.416 59.7993 159.071 60.5578 160.404 61.5731C161.76 62.606 162.927 64.0113 163.51 65.0566C164.092 66.1017 164.467 67.3468 164.593 68.4806C164.716 69.589 164.613 70.6968 164.116 71.3865C163.682 71.9891 163.137 72.2658 162.542 72.2489C161.981 72.233 161.448 71.9575 160.997 71.6193C160.674 71.3761 160.367 71.0814 160.095 70.7761C160.181 73.254 159.096 75.6532 157.039 77.1026C156.849 77.2362 156.587 77.1908 156.454 77.0012C156.32 76.8116 156.365 76.5495 156.555 76.4159C158.797 74.8361 159.753 71.9457 159.014 69.1964C158.957 68.9874 159.069 68.77 159.272 68.694C159.474 68.6181 159.702 68.7086 159.797 68.903C160.039 69.3987 160.723 70.3632 161.502 70.9476C161.891 71.2402 162.256 71.4005 162.566 71.4093C162.841 71.4171 163.138 71.3073 163.434 70.896L163.434 70.8958C163.742 70.4686 163.876 69.6293 163.758 68.5734C163.644 67.5428 163.3 66.4063 162.776 65.4656C162.252 64.5252 161.163 63.2069 159.895 62.2413Z" fill="white"/>
<path fill-rule="evenodd" clip-rule="evenodd" d="M165.016 59.7074C165.054 59.9362 164.899 60.1523 164.67 60.19C163.595 60.3671 162.848 60.493 162.185 60.7345C161.538 60.9699 160.958 61.3208 160.253 61.9701C160.083 62.1272 159.817 62.1163 159.66 61.9456C159.503 61.775 159.514 61.5093 159.684 61.3522C160.456 60.6413 161.129 60.2248 161.897 59.9452C162.649 59.6718 163.479 59.535 164.532 59.3616L164.534 59.3612C164.763 59.3235 164.979 59.4785 165.016 59.7074Z" fill="white"/>
<path fill-rule="evenodd" clip-rule="evenodd" d="M173.446 63.2254C173.649 63.3374 173.722 63.5929 173.611 63.796C173.255 64.4405 172.564 65.0381 171.758 65.5565C170.941 66.0819 169.96 66.5554 168.967 66.9351C167.975 67.315 166.958 67.6061 166.068 67.761C165.2 67.912 164.376 67.9478 163.817 67.7467C163.599 67.6682 163.485 67.4276 163.564 67.2093C163.642 66.9911 163.883 66.8777 164.101 66.9562C164.439 67.0778 165.073 67.0814 165.924 66.9334C166.752 66.7894 167.715 66.5149 168.667 66.1506C169.619 65.7864 170.546 65.3373 171.303 64.85C172.072 64.3558 172.621 63.8506 172.875 63.3904C172.987 63.1873 173.242 63.1134 173.446 63.2254Z" fill="white"/>
<path fill-rule="evenodd" clip-rule="evenodd" d="M157.175 81.2383C157.341 81.0763 157.607 81.0796 157.769 81.2457C158.517 82.0126 159.665 82.2896 160.943 82.2553C162.214 82.2213 163.537 81.8804 164.537 81.5028C164.754 81.4209 164.997 81.5303 165.079 81.7473C165.161 81.9643 165.051 82.2067 164.834 82.2886C163.775 82.6887 162.356 83.0577 160.966 83.095C159.584 83.132 158.153 82.8418 157.168 81.8322C157.006 81.6662 157.009 81.4003 157.175 81.2383Z" fill="white"/>
<path fill-rule="evenodd" clip-rule="evenodd" d="M161.498 70.9469C161.692 71.0752 161.744 71.3358 161.616 71.5291C161.24 72.0954 161.246 72.4838 161.366 72.7605C161.5 73.0699 161.824 73.3559 162.301 73.5975C162.769 73.8344 163.328 73.9997 163.839 74.0991C164.357 74.1999 164.783 74.225 164.984 74.2057C167.889 73.9218 170.84 72.799 172.843 70.8392C173.008 70.6769 173.274 70.6798 173.436 70.8456C173.599 71.0113 173.596 71.2772 173.43 71.4395C171.257 73.5664 168.108 74.7445 165.065 75.0417L165.065 75.0418C164.749 75.0722 164.232 75.0313 163.679 74.9237C163.119 74.8147 162.48 74.6294 161.922 74.347C161.373 74.0693 160.843 73.6674 160.595 73.0938C160.333 72.4875 160.43 71.7978 160.916 71.0647C161.044 70.8714 161.305 70.8187 161.498 70.9469ZM165.024 74.6238L165.024 74.6237L165.024 74.6238Z" fill="white"/>
<path fill-rule="evenodd" clip-rule="evenodd" d="M162.67 74.0731C162.849 74.2205 162.875 74.4852 162.727 74.6643C162.52 74.9155 162.404 75.498 162.601 76.2025C162.791 76.8796 163.253 77.5834 164.059 78.0335L164.059 78.0336C165.02 78.5707 166.261 78.6703 167.518 78.451C168.771 78.2322 169.99 77.7038 170.871 77.0506C171.058 76.9125 171.321 76.9516 171.459 77.138C171.597 77.3243 171.558 77.5873 171.372 77.7255C170.379 78.4607 169.038 79.0384 167.662 79.2784C166.29 79.5179 164.834 79.4294 163.649 78.7667C162.628 78.1966 162.036 77.2986 161.792 76.4292C161.556 75.587 161.628 74.6782 162.079 74.1303C162.226 73.9513 162.491 73.9256 162.67 74.0731Z" fill="white"/>
<path fill-rule="evenodd" clip-rule="evenodd" d="M147.741 25.3802C148.158 25.6485 148.279 26.2043 148.011 26.6216C146.391 29.1398 143.824 37.7267 147.969 50.6762C148.12 51.1487 147.86 51.6544 147.387 51.8056C146.915 51.9568 146.409 51.6964 146.258 51.2239C141.993 37.8997 144.521 28.7272 146.499 25.6499C146.768 25.2326 147.324 25.1118 147.741 25.3802Z" fill="#FFC633"/>
<path fill-rule="evenodd" clip-rule="evenodd" d="M139.25 30.0505C139.668 30.3189 139.788 30.8747 139.52 31.2919C139.39 31.4947 139.26 31.6893 139.133 31.8804C138.347 33.0616 137.652 34.1058 137.427 36.0618C137.16 38.3919 137.572 42.0596 139.663 48.5929C139.815 49.0654 139.554 49.571 139.082 49.7222C138.609 49.8735 138.103 49.613 137.952 49.1405C135.839 42.5369 135.33 38.5732 135.642 35.8567C135.919 33.4487 136.848 32.0609 137.653 30.8587C137.776 30.6759 137.895 30.4974 138.009 30.3202C138.277 29.903 138.833 29.7822 139.25 30.0505Z" fill="#FFC633"/>
<path fill-rule="evenodd" clip-rule="evenodd" d="M74.991 85.1569C75.3523 85.2578 75.5634 85.6326 75.4624 85.994C75.3116 86.5337 75.2366 87.6667 75.2609 89.376C75.2847 91.0538 75.4013 93.2055 75.5946 95.7248C75.981 100.762 76.6711 107.234 77.5238 114.257C79.229 128.3 81.5814 144.515 83.4451 155.78C83.5912 156.661 83.729 157.455 84.0402 158.154C84.3956 158.948 84.9618 159.585 85.6245 160.284C85.6808 160.343 85.738 160.403 85.7958 160.464C86.3962 161.093 87.0639 161.794 87.5545 162.656C88.2154 163.819 88.4657 165.209 88.3561 166.521C88.2486 167.81 87.7891 169.08 86.9584 170.019C87.074 170.363 87.1657 170.719 87.2225 171.088L86.5511 171.192L87.2224 171.087L87.2225 171.088C87.5185 172.997 86.8116 174.906 85.6791 176.198L85.6796 176.197L85.1683 175.75L85.6791 176.198C84.55 177.488 83.056 178.218 81.5988 178.666C81.4143 178.723 81.2143 178.698 81.0489 178.599C79.9643 177.946 78.8306 176.919 77.8714 175.745C76.9127 174.572 76.0935 173.21 75.6772 171.869C75.5659 171.511 75.7662 171.13 76.1245 171.019C76.4828 170.908 76.8635 171.108 76.9747 171.466C77.3246 172.593 78.0388 173.802 78.9235 174.885C79.7265 175.868 80.6413 176.711 81.4931 177.273C81.3958 177.306 81.2979 177.337 81.1995 177.367L81.3991 178.017L81.7493 177.434C81.6647 177.384 81.5792 177.33 81.4931 177.273C82.704 176.865 83.8219 176.257 84.657 175.302L84.6575 175.302C85.5617 174.271 86.1063 172.755 85.8798 171.296L85.8796 171.295C85.7102 170.192 85.1376 169.194 84.4986 168.115L85.0831 167.769L84.4994 168.116C84.1778 167.576 83.9423 166.788 83.7596 166.077C83.6653 165.71 83.5797 165.34 83.502 165.004C83.4231 164.663 83.3538 164.364 83.2889 164.119C83.1925 163.757 83.4083 163.385 83.7709 163.288C84.1335 163.192 84.5056 163.408 84.602 163.77C84.6727 164.036 84.7463 164.355 84.8222 164.683L84.8257 164.698C84.9039 165.036 84.986 165.39 85.0756 165.739C85.2607 166.459 85.4573 167.069 85.6669 167.421L85.6677 167.423C85.8848 167.789 86.1143 168.177 86.3302 168.586C86.7012 167.973 86.9347 167.216 87.0022 166.408C87.0921 165.331 86.8815 164.222 86.3734 163.328C85.9694 162.618 85.4158 162.036 84.7963 161.385C84.7442 161.33 84.6917 161.275 84.6387 161.219C83.9772 160.521 83.2594 159.736 82.7995 158.708L82.799 158.707C82.4073 157.827 82.2476 156.864 82.107 156.016L82.1047 156.002C80.2378 144.718 77.8826 128.484 76.175 114.421C75.3212 107.39 74.6285 100.894 74.2399 95.8287C74.0456 93.2966 73.9267 91.1134 73.9023 89.3953C73.8783 87.7085 73.9426 86.3844 74.1539 85.6283C74.2548 85.2669 74.6296 85.0559 74.991 85.1569ZM128.992 77.6557C129.253 77.3865 129.683 77.38 129.952 77.6413C130.325 78.0032 130.638 78.5976 130.912 79.2618C131.196 79.9504 131.474 80.806 131.744 81.77C132.283 83.6997 132.804 86.1189 133.276 88.6224C134.219 93.6322 134.973 99.0339 135.286 101.654C135.826 106.18 136.626 112.592 137.124 116.14C137.176 116.511 136.917 116.855 136.546 116.907C136.174 116.959 135.831 116.7 135.779 116.329C135.278 112.766 134.477 106.343 133.937 101.815C133.626 99.2182 132.876 93.8474 131.94 88.8738C131.472 86.3856 130.959 84.0104 130.435 82.136C130.173 81.1979 129.911 80.399 129.656 79.7799C129.391 79.1363 129.164 78.7697 129.006 78.6164C128.737 78.3551 128.73 77.925 128.992 77.6557ZM145.673 84.265C146.047 84.2915 146.329 84.6164 146.302 84.9907C146.076 88.179 145.58 97.7422 146.065 103.978C146.094 104.352 145.814 104.679 145.44 104.708C145.066 104.737 144.739 104.457 144.71 104.083C144.217 97.7381 144.721 88.0869 144.947 84.8946C144.974 84.5203 145.299 84.2384 145.673 84.265ZM70.1154 171.445C70.4803 171.358 70.847 171.583 70.9345 171.947C71.3174 173.544 72.1324 175.011 73.2121 176.071C73.4797 176.334 73.4836 176.764 73.2206 177.032C72.9577 177.299 72.5276 177.303 72.2599 177.04C70.9859 175.789 70.0513 174.091 69.6132 172.264C69.5257 171.899 69.7506 171.533 70.1154 171.445Z" fill="white"/>
<path fill-rule="evenodd" clip-rule="evenodd" d="M155.549 23.0717C155.683 23.5492 155.405 24.0454 154.928 24.18C151.928 25.0256 147.421 26.513 143.23 28.7788C139.016 31.0574 135.259 34.0494 133.568 37.8383C131.421 42.6507 130.365 45.0714 129.851 46.4876C129.596 47.1888 129.491 47.6004 129.446 47.9073C129.402 48.2063 129.409 48.4385 129.427 48.8346C129.458 49.5347 129.637 50.199 129.996 50.6222C130.297 50.9778 130.842 51.3026 131.995 51.1095C132.572 51.0128 133.378 50.6972 134.432 50.2516C134.576 50.1908 134.723 50.1282 134.873 50.0641C135.782 49.6773 136.807 49.241 137.858 48.8839C140.26 48.0678 143.172 47.5297 145.535 49.2316C147.386 50.564 149.699 51.4414 151.875 51.9647C154.055 52.4889 156.018 52.6393 157.126 52.5696C157.621 52.5384 158.047 52.9146 158.079 53.4097C158.11 53.9048 157.734 54.3315 157.238 54.3626C155.911 54.4461 153.765 54.2669 151.455 53.7115C149.142 53.1553 146.588 52.2033 144.485 50.6895C142.896 49.5451 140.777 49.7895 138.436 50.585C137.454 50.9185 136.498 51.3252 135.587 51.7131C135.434 51.7782 135.282 51.8427 135.132 51.9063C134.127 52.331 133.117 52.7431 132.292 52.8814C130.638 53.1582 129.411 52.7114 128.625 51.7836C127.896 50.9233 127.672 49.7923 127.632 48.9148L127.632 48.9048C127.614 48.5155 127.597 48.1302 127.668 47.647C127.738 47.1677 127.889 46.6267 128.162 45.8742C128.704 44.3828 129.792 41.891 131.928 37.1061C133.862 32.7728 138.044 29.5406 142.376 27.1984C146.732 24.8434 151.38 23.3135 154.44 22.4509C154.918 22.3163 155.414 22.5942 155.549 23.0717Z" fill="#FFC633"/>
<path fill-rule="evenodd" clip-rule="evenodd" d="M152.126 29.6061C152.237 30.0896 151.935 30.5717 151.452 30.6831C148.25 31.4204 144.274 33.5801 140.547 36.0515C136.842 38.508 133.478 41.2082 131.522 42.9368C131.15 43.2653 130.583 43.2303 130.254 42.8585C129.926 42.4867 129.961 41.919 130.333 41.5905C132.344 39.8135 135.773 37.0615 139.554 34.5542C143.312 32.0618 147.514 29.7463 151.049 28.9323C151.532 28.821 152.014 29.1226 152.126 29.6061Z" fill="#FFC633"/>
<path fill-rule="evenodd" clip-rule="evenodd" d="M150.618 42.4927C140.477 41.3783 133.21 48.5009 130.491 52.2525C130.199 52.6542 129.638 52.7438 129.236 52.4526C128.834 52.1615 128.745 51.5998 129.036 51.1981C131.889 47.2626 139.703 39.4859 150.814 40.7069C151.307 40.7611 151.663 41.2048 151.609 41.6979C151.555 42.1911 151.111 42.5469 150.618 42.4927Z" fill="#FFC633"/>
</svg>
