<svg width="40" height="41" viewBox="0 0 40 41" fill="none" xmlns="http://www.w3.org/2000/svg">
<path opacity="0.25" d="M4.85726 24.6353C3.54326 25.6901 3.48266 27.6479 3.62726 29.1803C3.93026 32.3897 5.19206 35.4509 7.17206 37.9883C8.08166 39.1535 9.14546 40.1903 10.3299 41.0711H32.3481C32.6547 40.9229 32.8899 40.6823 33.0981 40.4171C33.5757 39.8075 34.0101 39.1583 34.4379 38.5127C35.3055 37.2035 36.1035 35.8487 36.8277 34.4555C38.0571 32.0903 39.3141 29.0279 37.5219 26.5925C36.5739 25.3037 35.0349 24.8573 33.4977 25.1993C32.6061 25.3973 31.8201 25.8335 31.0953 26.3669C31.7337 25.0823 32.3715 23.7971 32.9997 22.5077C33.9021 20.6531 34.7721 18.7235 35.0871 16.6691C35.3745 14.7911 35.1573 12.7463 33.7827 11.3189C32.4747 9.96052 30.5463 9.83332 28.8837 10.5761C27.6261 11.1377 26.6901 12.1229 25.8999 13.2239C25.9203 12.7889 25.8993 12.3527 25.8177 11.9183C25.6329 10.9355 25.0683 10.0361 24.2367 9.47512C23.4087 8.91712 22.3893 8.86252 21.4917 9.28192C20.5425 9.72532 19.8633 10.5881 19.2405 11.3981C18.6195 12.2057 18.0393 13.0439 17.5017 13.9085C16.8477 12.0689 15.8067 10.3379 14.2977 9.08452C12.5355 7.62172 10.1763 6.81952 7.89445 7.27312C6.79166 7.49272 5.84786 8.10592 5.30786 9.10552C4.80626 10.0349 4.64966 11.1077 4.58786 12.1487C4.44386 14.5649 4.69166 17.0111 5.27846 19.3577C5.73986 21.2021 6.42146 22.9931 7.30226 24.6797C6.51326 24.2927 5.61086 24.0299 4.85666 24.6347L4.85726 24.6353Z" fill="#76CCC6"/>
<path d="M28.9475 14.8318C28.7425 14.7919 28.6257 14.9748 28.5458 15.1541C28.4697 15.3244 28.3955 15.496 28.3214 15.6676C28.2848 15.659 28.2203 15.6296 28.1842 15.6223C28.2473 15.3491 28.3551 15.0173 28.4405 14.7642C28.5255 14.5112 28.6613 14.2264 28.3657 14.163C28.13 14.1125 27.9525 14.5374 27.8458 14.747C27.7555 14.9245 27.6193 15.1989 27.529 15.3763C27.5122 15.4094 27.4945 15.4421 27.4776 15.4752C27.4487 15.4706 27.3939 15.4532 27.365 15.4499C27.3793 15.3758 27.5655 14.7855 27.5957 14.6476C27.6258 14.5098 27.6879 14.3961 27.6247 14.2638C27.556 14.1203 27.3595 14.1076 27.2771 14.234C26.9726 14.7021 26.8003 15.1859 26.5941 15.7157C26.5183 15.5287 26.4386 15.3436 26.3542 15.1605C26.2595 14.9546 25.9642 15.0558 26.0011 15.2873C26.0714 15.7271 26.142 16.167 26.2122 16.6068C26.2425 16.7952 26.2696 16.9833 26.3159 17.1636C26.1277 18.4458 26.0174 19.7402 25.9854 21.0385C25.6126 20.5202 25.2279 20.0125 24.8307 19.5161C24.369 18.9401 23.8968 18.2301 23.2454 17.9043C22.6122 17.5874 21.3978 17.716 20.5279 17.9227C17.7473 18.5821 15.4953 20.4918 13.4234 22.533C13.3286 21.7036 13.4151 20.1281 13.4871 19.2867C13.5299 18.7866 13.7523 17.0695 13.7077 16.6348C13.6632 16.2 13.5793 15.7699 13.4116 15.3059C13.244 14.842 13.0023 14.2439 12.7457 13.8904C12.6277 13.7283 12.2963 13.8135 12.367 14.1128C12.4377 14.4125 12.5834 14.6588 12.7024 15.0403L12.5703 15.1148C12.411 14.6759 12.2932 14.3885 12.1333 14.1331C12.0426 13.9888 11.8126 13.727 11.6139 13.9211C11.4511 14.0801 11.6037 14.3927 11.6992 14.56C11.8536 14.8306 12.0434 15.3707 12.0434 15.3707C12.0133 15.3899 11.8807 15.4495 11.8807 15.4495C11.7702 15.1549 11.629 14.8497 11.521 14.6754C11.4083 14.4934 11.2588 14.2638 11.0248 14.3814C10.9458 14.4209 10.914 14.519 10.9253 14.6074C10.9573 14.8579 11.0903 15.0277 11.1806 15.2417C11.2708 15.4557 11.4567 15.9855 11.4958 16.2011L11.3637 16.1175C11.3122 16.0727 11.2593 16.0298 11.2055 15.9864C11.0726 15.8792 10.9592 15.7739 10.795 15.8654C10.7005 15.9183 10.6933 16.0596 10.7378 16.1493C10.9146 16.5047 11.1736 16.9055 11.3992 17.2252C11.3992 17.2252 11.1752 18.5737 10.9952 19.5644C10.8152 20.5551 10.6801 22.2569 10.6839 22.918C10.6871 23.502 10.6836 24.1107 10.8018 24.6835C10.9038 25.1773 11.1152 25.6583 11.5059 25.9504C11.8929 26.2396 12.3874 26.3037 12.8414 26.2197C13.3791 26.1201 13.8548 25.8019 14.2875 25.4525C14.7657 25.0663 15.2258 24.6502 15.6897 24.2431C15.9558 24.0095 16.2429 23.7466 16.4842 23.5363C16.7255 23.3265 17.324 22.8952 17.6215 22.6327C17.7169 22.5483 17.814 22.4669 17.9141 22.3932C18.5288 24.6511 19.5172 27.8112 20.056 30.0914C19.0883 33.6728 17.7876 39.5534 17.7172 39.776C17.6468 39.9987 17.7509 40.3877 17.9829 40.3757C18.2149 40.3637 20.8138 40.2879 21.0536 40.2585C21.293 40.2292 21.5046 40.0372 21.4542 39.8571C21.4042 39.6769 21.2305 39.5793 21.097 39.5045C20.9582 39.4265 20.7533 39.2824 20.7533 39.2824C20.7533 39.2824 20.8657 38.833 20.9121 38.6586C20.9742 38.4253 21.0359 38.1925 21.0979 37.9592C21.3337 37.0709 21.5698 36.1821 21.8056 35.2938C22.1137 34.1333 22.4616 32.9677 22.7697 31.8072C22.8259 31.6499 23.1478 30.473 23.2225 30.0562C23.2975 29.6368 23.216 29.253 23.0956 28.8541C22.9658 28.4245 22.8285 27.9975 22.6869 27.5723C22.4032 26.7211 21.4665 24.125 21.2548 23.634C21.628 23.4989 21.8027 23.4459 22.1733 23.3031C22.4601 23.5451 22.7534 23.7781 23.0539 24.0002C23.5805 24.3897 25.8575 26.2662 26.3691 26.7807C25.2937 29.9973 23.3576 34.7054 23.1734 35.2146C22.9892 35.7239 23.2478 36.0173 23.5191 36.0813C23.7904 36.1457 25.3349 36.5633 26.3924 36.698C26.6057 36.7254 26.7757 36.5188 26.6301 36.2725C26.4845 36.0261 26.0125 35.3354 26.0125 35.3354C26.5037 34.2874 27.1372 32.7342 27.6284 31.6858C28.1955 30.4754 28.7991 29.2772 29.3272 28.0456C29.5483 27.5296 29.7224 26.9704 29.6703 26.3928C29.6185 25.8226 29.3204 25.3179 28.9528 24.9272C28.5375 24.4855 28.0327 24.1735 27.5667 23.8035C27.5429 23.7843 27.5194 23.7642 27.496 23.745C28.4241 23.1747 28.5316 21.8927 28.606 20.8361C28.606 20.8361 28.7973 17.1774 28.8468 16.6053C28.8963 16.0328 29.0521 15.5453 29.1194 15.0535C29.1355 14.9368 29.0435 14.849 28.9491 14.8309L28.9475 14.8318Z" fill="#707478"/>
<path d="M18.1479 17.4697C18.273 17.6591 18.4562 17.7706 18.7148 17.9196C18.9734 18.0686 19.3213 18.0764 19.7231 17.7608C20.2308 17.3621 20.0651 16.7385 19.8104 16.2408C19.9161 16.1621 20.0218 16.0833 20.1275 16.0046C20.1769 15.9677 20.1873 15.9047 20.1443 15.866C19.7472 15.511 19.2781 15.2432 18.7547 15.0737C18.7419 15.0694 18.7291 15.0685 18.7173 15.0694C18.6497 15.0412 18.5802 15.0193 18.5087 15.0044C17.8525 14.8674 17.4691 15.4555 17.5316 16.047C17.5498 16.221 17.5944 16.4094 17.6604 16.5979C17.5445 16.66 17.4155 16.7137 17.3287 16.8185C17.1606 17.0209 17.1801 17.3372 17.364 17.5266C17.5956 17.7655 17.8928 17.642 18.1487 17.4693L18.1479 17.4697Z" fill="#707478"/>
<path fill-rule="evenodd" clip-rule="evenodd" d="M17.0043 6.13395C17.0788 6.19975 17.0858 6.3135 17.02 6.38801C16.7231 6.72424 16.4749 7.10476 16.232 7.49937C15.6136 8.50414 15.0605 9.54831 14.6323 10.6411C14.596 10.7337 14.4916 10.7793 14.399 10.743C14.3065 10.7067 14.2609 10.6023 14.2971 10.5098C14.7352 9.39184 15.2992 8.32821 15.9254 7.31067C16.1701 6.91321 16.4317 6.51044 16.7502 6.14972C16.816 6.07521 16.9297 6.06814 17.0043 6.13395ZM23.4013 6.4603C23.468 6.38658 23.5818 6.38087 23.6555 6.44756C23.957 6.72028 24.2121 7.0364 24.4557 7.33838L24.4639 7.3485L24.4639 7.34857L25.0048 8.01961C25.0048 8.0196 25.0048 8.01963 25.0048 8.01961C25.2542 8.32879 25.5087 8.6447 25.7383 8.9804L25.7383 8.98046C26.006 9.37226 26.2358 9.78673 26.4409 10.2094L26.441 10.2094C26.6374 10.6146 26.8134 11.0309 26.9607 11.4585C26.9931 11.5525 26.9431 11.6549 26.8491 11.6873C26.7551 11.7197 26.6527 11.6697 26.6203 11.5757C26.4784 11.1636 26.3081 10.7606 26.117 10.3665C25.9175 9.95544 25.6963 9.55717 25.4411 9.18353C25.2208 8.86147 24.9753 8.55645 24.7246 8.24561L24.1837 7.57455C23.9343 7.2655 23.6944 6.96812 23.414 6.71454C23.3403 6.64785 23.3346 6.53403 23.4013 6.4603ZM21.1453 13.0103C21.1486 13.1097 21.0707 13.1929 20.9714 13.1962C18.9921 13.2625 17.1817 13.7346 16.0436 14.1497C15.9502 14.1838 15.8468 14.1357 15.8128 14.0423C15.7787 13.9489 15.8268 13.8456 15.9202 13.8115C17.0859 13.3863 18.9343 12.9042 20.9593 12.8364C21.0587 12.8331 21.1419 12.911 21.1453 13.0103Z" fill="#B58300"/>
<path d="M14.9006 13.8789C14.6001 13.8632 14.1632 14.0097 13.9676 14.3335C13.7612 14.6752 14.073 15.0692 14.436 15.1045C14.7462 15.1347 15.2039 14.8994 15.3019 14.5879C15.3706 14.37 15.2011 13.8945 14.9006 13.8784L14.9006 13.8789Z" fill="#FFB800"/>
<path d="M18.7315 4.72769C18.6321 4.53693 18.4058 4.43096 18.1953 4.46978C18.164 4.47531 18.1376 4.48504 18.1135 4.496C17.8215 4.54526 17.5367 4.80138 17.4527 5.06587C17.3098 5.51557 17.7028 5.93944 18.1586 5.78388C18.5262 5.65828 18.9332 5.11568 18.7311 4.72771L18.7315 4.72769Z" fill="#FFB800"/>
<path d="M26.9733 12.1477C26.7695 12.2743 26.656 12.5093 26.6568 12.7457C26.6572 12.8035 26.6652 12.8675 26.682 12.9295C26.6807 12.9664 26.6825 13.0031 26.6887 13.0401C26.7277 13.269 26.9345 13.4256 27.147 13.49C27.635 13.638 27.9755 13.0856 27.941 12.6595C27.9024 12.1797 27.3976 11.8852 26.9734 12.1486L26.9733 12.1477Z" fill="#FFB800"/>
<path fill-rule="evenodd" clip-rule="evenodd" d="M23.2797 20.0716C23.3126 20.0343 23.3694 20.0306 23.4067 20.0634C24.6664 21.1708 26.2261 22.4847 27.524 23.5382C27.5626 23.5696 27.5685 23.6262 27.5372 23.6648C27.5058 23.7034 27.4491 23.7093 27.4106 23.678C26.111 22.6231 24.5495 21.3077 23.2879 20.1986C23.2506 20.1658 23.2469 20.1089 23.2797 20.0716Z" fill="white"/>
<path d="M28.8684 39.8986C28.739 39.861 28.3115 39.7692 28.1942 39.7349C28.077 39.7006 27.9135 39.6587 27.7795 39.5508C27.6456 39.4428 27.5152 39.2074 27.3943 38.9828C27.2861 38.7817 27.2555 38.5293 27.058 38.3933C26.9175 38.2964 26.7425 38.2661 26.5788 38.2998C26.528 38.1891 26.4527 38.0143 26.3986 37.9044C26.3377 37.7806 26.2303 37.7407 26.087 37.7902C25.9306 37.8446 25.9788 38.0225 26.0241 38.1395C26.0723 38.2636 26.1754 38.5075 26.1754 38.5075C25.9997 38.6265 25.9247 38.8066 25.8944 39.0103C25.8635 39.2176 25.8615 39.453 25.6717 39.585C25.5743 39.6528 25.4587 39.691 25.3465 39.7261C25.2125 39.7678 25.0752 39.7995 24.9366 39.8204C24.8055 39.8403 24.6732 39.8516 24.5406 39.855C24.4273 39.8581 24.3129 39.8561 24.2024 39.8839C24.1044 39.9085 23.9982 39.9627 23.9503 40.0564C23.9089 40.1377 23.933 40.2323 24.0075 40.2839C24.0936 40.3437 24.2049 40.4136 24.3047 40.4122C24.4418 40.4102 27.8965 40.3995 28.2993 40.391C28.433 40.3881 28.7444 40.3833 28.8741 40.3485C28.9591 40.3255 29.0432 40.2709 29.0511 40.1757C29.0608 40.0624 28.9667 39.9281 28.8684 39.8995V39.8986Z" fill="#FFB800"/>
<path fill-rule="evenodd" clip-rule="evenodd" d="M28.7559 36.3533C28.8031 36.4263 28.7821 36.5238 28.7091 36.571C28.6884 36.5843 28.6706 36.6027 28.6582 36.6236C28.6135 36.6982 28.5168 36.7224 28.4422 36.6778C28.3676 36.6331 28.3433 36.5364 28.388 36.4618C28.4254 36.3994 28.4773 36.3458 28.5382 36.3065C28.6113 36.2593 28.7087 36.2803 28.7559 36.3533ZM29.4967 36.8979C29.5389 36.9739 29.5115 37.0698 29.4355 37.112C29.3715 37.1476 29.3112 37.1902 29.2562 37.2388C29.1911 37.2964 29.0916 37.2903 29.034 37.2251C28.9764 37.16 28.9825 37.0605 29.0477 37.0029C29.1197 36.9392 29.1987 36.8834 29.2826 36.8367C29.3586 36.7945 29.4544 36.8219 29.4967 36.8979ZM23.8947 37.224C23.9708 37.1818 24.0666 37.2091 24.1089 37.2852C24.1147 37.2957 24.1204 37.306 24.1261 37.3163C24.1387 37.3389 24.151 37.3611 24.1635 37.3835C24.206 37.4594 24.179 37.5553 24.1031 37.5978C24.0273 37.6403 23.9313 37.6133 23.8888 37.5374C23.8759 37.5144 23.863 37.4912 23.8503 37.4682C23.8447 37.4581 23.8391 37.448 23.8336 37.4381C23.7913 37.3621 23.8187 37.2662 23.8947 37.224ZM30.116 37.9558C30.1292 38.0418 30.0703 38.1221 29.9843 38.1353C29.9372 38.1426 29.8901 38.1497 29.8432 38.1569C29.7962 38.1641 29.7494 38.1712 29.7024 38.1784C29.6165 38.1916 29.5361 38.1326 29.5229 38.0467C29.5097 37.9607 29.5687 37.8803 29.6546 37.8671C29.7018 37.8599 29.7488 37.8527 29.7958 37.8456C29.8427 37.8384 29.8896 37.8313 29.9365 37.8241C30.0224 37.8109 30.1028 37.8699 30.116 37.9558ZM23.1345 38.1647C23.165 38.0833 23.2558 38.042 23.3372 38.0725C23.4487 38.1142 23.5544 38.1698 23.6516 38.2366C23.7233 38.2859 23.7415 38.3839 23.6922 38.4556C23.6429 38.5272 23.5449 38.5454 23.4733 38.4961C23.3966 38.4434 23.3136 38.3999 23.2268 38.3674C23.1454 38.3369 23.1041 38.2462 23.1345 38.1647ZM26.5179 38.61C26.6046 38.6029 26.6806 38.6673 26.6878 38.754C26.7042 38.954 26.7032 39.1638 26.6665 39.3701C26.6692 39.381 26.6707 39.3924 26.671 39.4041C26.6721 39.4518 26.695 39.5324 26.7373 39.6314C26.7775 39.7254 26.8274 39.8186 26.8659 39.8846C26.8931 39.9311 26.9563 39.9984 27.0305 40.0625C27.0657 40.0929 27.0996 40.1193 27.1271 40.1388C27.1468 40.1528 27.1586 40.1599 27.1634 40.1627C27.1665 40.1646 27.1666 40.1647 27.164 40.1637C27.2456 40.1939 27.2871 40.2845 27.2569 40.3661C27.2267 40.4476 27.136 40.4892 27.0545 40.4589C27.0178 40.4453 26.9765 40.418 26.945 40.3957C26.9084 40.3698 26.8666 40.337 26.8247 40.3008C26.7447 40.2317 26.6484 40.1366 26.594 40.0435C26.5643 39.9926 26.5282 39.9267 26.4932 39.8547C26.4352 39.9514 26.3628 40.0458 26.2839 40.1304C26.1557 40.2679 25.9981 40.3921 25.8369 40.4573C25.7563 40.4899 25.6645 40.4509 25.6319 40.3703C25.5993 40.2897 25.6383 40.1979 25.7189 40.1653C25.8234 40.1231 25.9443 40.0328 26.0537 39.9156C26.1625 39.7989 26.2479 39.6684 26.29 39.5583C26.3806 39.321 26.3964 39.0531 26.3739 38.7798C26.3668 38.6932 26.4313 38.6171 26.5179 38.61Z" fill="#B58300"/>
</svg>
