<svg width="40" height="41" viewBox="0 0 40 41" fill="none" xmlns="http://www.w3.org/2000/svg">
<path opacity="0.25" d="M2.71248 9.09748C3.9295 9.10977 5.58294 10.3743 6.52002 10.9851C8.1226 12.0301 9.69501 13.1208 11.2361 14.2535C11.3887 13.2063 12.5476 3.22673 12.7264 2.21754C12.8488 1.5291 13.0365 0.769693 13.5562 0.264539C14.9107 -1.05199 16.7016 0.987066 17.4386 2.04823C18.3125 3.30608 21.3707 11.2181 21.7854 12.3357C21.8005 12.3642 21.8155 12.3927 21.8306 12.4207C22.6889 10.8353 23.5148 9.23271 24.3044 7.61219C24.8391 6.51471 25.3582 5.40884 25.8611 4.29627C26.2813 3.36587 26.6216 2.21251 27.5263 1.62968C28.3471 1.1005 29.4781 1.18376 30.2906 1.68501C31.1232 2.19854 31.6546 3.10324 31.8848 4.03643C32.1664 5.17582 32.0474 6.37948 32.0038 7.53899C31.9563 8.79628 31.9094 10.0536 31.8619 11.3103C31.7764 13.5874 31.6909 15.8651 31.6048 18.1422C31.9893 17.6577 32.4408 17.2269 32.9448 16.8614C33.7796 16.2568 34.8838 15.7377 35.9365 16.0081C36.4444 16.1383 36.8591 16.4926 37.0412 16.9877C37.2647 17.5957 37.1049 18.2718 37.0049 18.8882C36.7741 20.312 36.4964 21.728 36.1734 23.1339C35.8812 24.4075 35.5498 25.672 35.1833 26.926C36.1907 26.1895 37.6106 25.5239 38.6209 26.5549C39.6066 27.5602 39.1501 29.2562 38.8746 30.4553C38.1912 33.4332 36.9434 36.2914 35.2302 38.8206C34.7558 39.5207 34.2456 40.1969 33.7036 40.8462C33.5639 41.0138 33.422 41.1792 33.2773 41.343C33.0895 41.5553 32.9375 41.6073 32.6565 41.6269C32.6207 41.6296 32.5844 41.6296 32.5481 41.6313C32.4436 41.7062 32.3262 41.7654 32.1916 41.8006C31.6054 41.9537 31.0254 41.595 30.9578 40.9926C30.9432 40.8646 31.0192 40.7378 31.1287 40.6562C31.1042 40.564 31.117 40.459 31.1885 40.3522C32.8084 37.9282 33.4494 34.914 32.9364 32.0462C32.4626 32.163 31.9882 32.2798 31.5143 32.3966C31.1846 32.4776 30.9427 32.1938 30.9986 31.8808C31.6445 28.2704 31.8066 24.5829 31.4987 20.9295C30.2135 21.6509 29.1412 22.6959 28.3957 23.98C28.1873 24.3393 27.614 24.1839 27.6146 23.7682C27.619 21.8822 27.3927 20.0058 26.9256 18.1785C26.8608 17.9243 26.5439 16.4971 26.0288 16.8279C25.9047 16.9078 25.8259 17.0665 25.7555 17.19C25.6426 17.3884 25.5353 17.5895 25.4253 17.7896C25.1861 18.2249 24.9464 18.6602 24.7072 19.0949C24.1753 20.0622 23.6433 21.029 23.1114 21.9962C22.9359 22.3148 22.4391 22.2376 22.3453 21.8962C21.5054 18.8301 19.2843 16.173 16.4004 14.8257C15.8578 16.767 15.4974 18.7541 15.3326 20.7641C15.3013 21.1441 14.7542 21.3776 14.5514 20.9759C13.8786 19.6409 12.77 17.5784 10.9411 18.2461C10.6516 18.3517 10.375 18.5373 10.2186 18.8083C10.0063 19.1765 10.1124 19.604 10.265 19.9756C10.4773 20.4914 10.7427 20.9848 10.9579 21.5C11.1819 22.0359 11.3831 22.5807 11.5591 23.1345C11.9536 24.3773 12.2134 25.6541 12.3621 26.9489C12.4012 27.2903 11.9843 27.4361 11.7312 27.311L10.1543 26.527C10.2303 28.3453 10.617 30.1256 11.2836 31.8255C11.9754 33.5902 12.8924 35.2599 13.5232 37.0497C13.8753 38.0494 14.12 39.0793 14.1988 40.1376C14.2284 40.5327 13.7361 40.6462 13.4835 40.4338C11.4764 38.7496 9.70339 36.8134 8.01699 34.814C7.17379 33.8143 6.33729 32.8056 5.52538 31.7802C4.77662 30.8348 4.05244 29.8518 3.52998 28.7594C2.93767 27.5222 2.64151 26.1945 2.88794 24.8299C2.93711 24.5594 3.28746 24.4527 3.50371 24.5796C4.59389 25.2166 5.63155 25.9374 6.61333 26.7298C6.50828 22.9892 5.34657 20.4243 2.64989 15.3102C-0.0467834 10.1961 1.49322 9.08574 2.71024 9.09859L2.71248 9.09748Z" fill="#76CCC6"/>
<path d="M22.466 7.06352C22.4586 7.30793 22.4323 7.53202 22.4026 7.69265C22.3391 8.03523 22.1294 8.41647 21.7759 8.52703C21.4388 8.63213 20.9663 8.48588 20.7398 8.24543C20.187 7.65795 20.0269 6.57965 20.368 5.81963C20.5241 5.4721 20.8801 5.08887 21.2777 5.08887C21.8255 5.08837 22.2945 5.54646 22.4105 6.29805C22.5107 6.27524 22.6118 6.25541 22.7139 6.24451C22.9653 6.21674 23.2687 6.28219 23.296 6.58411C23.3312 6.97775 22.8666 7.04319 22.4656 7.06401L22.466 7.06352Z" fill="#707478"/>
<path d="M12.9295 19.2603C12.4861 17.9393 12.3013 16.5752 12.3296 15.1794C12.3484 14.2539 12.5951 13.4013 13.1247 12.6457C13.9388 11.4846 14.9767 10.6652 16.3674 10.383C16.6528 10.325 16.9367 10.2557 17.2235 10.2047C17.3999 10.1735 17.5168 10.1532 17.5961 10.1186C17.5024 9.7982 17.44 9.46498 17.3835 9.1367C17.3474 8.92676 17.656 8.74851 17.7601 8.97826C17.8022 9.07085 17.8473 9.16146 17.8958 9.25058C17.9216 9.23474 17.9538 9.22583 17.9944 9.22236C18.0563 8.51629 18.0727 7.87014 17.9701 7.15714C17.9474 6.9982 18.1549 6.76301 18.2724 6.92492C18.6905 7.50076 18.8094 7.87558 19.0472 8.495C19.0482 8.01125 18.9813 7.31261 19.0125 6.84124C19.0249 6.6521 19.2969 6.54267 19.396 6.73726C19.6492 7.23488 19.8072 7.93599 19.9573 8.47074C19.9573 8.46034 20.0445 7.80775 20.0426 7.49185C20.0411 7.24676 20.3676 7.22943 20.4468 7.43739C20.6936 8.08305 20.8268 8.76238 20.8462 9.45111C20.8467 9.45854 20.8482 9.46547 20.8482 9.4729C20.8482 9.50063 20.8482 9.52885 20.8482 9.55658C20.8486 9.60461 20.8486 9.65214 20.8482 9.70017C20.8482 9.81999 20.8482 9.93981 20.8482 10.0596C20.8823 10.0646 20.922 10.0695 20.968 10.0755C21.0835 10.0898 21.1994 10.1062 21.3153 10.1176C21.3768 10.1235 21.4521 10.1275 21.4853 10.0755C21.4853 10.0017 21.4853 9.92744 21.4853 9.85366C21.4848 9.80761 21.4848 9.76156 21.4853 9.71601C21.4853 9.68927 21.4853 9.66254 21.4853 9.6358C21.4853 9.62837 21.4863 9.62194 21.4873 9.61451C21.5056 8.95399 21.6339 8.3019 21.8702 7.68248C21.9465 7.48294 22.2597 7.50027 22.2582 7.73497C22.2562 8.03799 22.3399 8.66434 22.3399 8.67424C22.4841 8.16128 22.6357 7.48888 22.8785 7.01107C22.9736 6.82391 23.2347 6.92938 23.2466 7.1106C23.2768 7.56266 23.2124 8.23307 23.2134 8.69702C23.4413 8.10285 23.5552 7.74289 23.9565 7.19031C24.0695 7.03484 24.2687 7.26062 24.2469 7.41313C24.1403 8.15286 24.1671 8.81783 24.2389 9.56153C24.3167 9.4323 24.3861 9.29861 24.4485 9.16047C24.5481 8.94013 24.8439 9.11095 24.8097 9.31247C24.7304 9.77592 24.6383 10.2493 24.4564 10.68C24.5298 10.7395 24.6506 10.7761 24.8498 10.839C26.1667 11.2559 27.4063 11.8223 28.521 12.6834C29.0497 13.0914 29.334 13.6073 29.4956 14.2312C29.5406 14.405 29.5684 14.5837 29.5966 14.762C29.8225 16.1969 29.6486 17.611 29.3653 19.0152C28.9892 20.8784 28.2327 22.5752 27.223 24.1621C26.9792 24.5454 26.7226 24.9068 26.3376 25.1386C26.1429 25.2559 26.1048 25.3995 26.1048 25.6144C26.0983 29.4166 26.0884 33.2187 26.0716 37.0209C26.1236 37.7854 26.2148 40.1125 26.2475 40.6111C26.4803 40.7151 27.0421 41.0043 27.2185 41.2043C27.4231 41.4365 27.3136 41.7405 26.9906 41.7692C25.3859 41.9123 22.3612 41.7831 21.9678 41.7831C21.5745 41.7831 21.5769 41.3979 21.5745 41.135C21.572 40.8716 21.5854 39.7357 21.569 39.2861C21.5537 38.8682 21.5343 38.4508 21.5269 38.0329C21.5229 37.7938 21.5076 37.3224 21.4932 36.8614L21.5155 36.8605C21.5155 36.853 21.5155 36.8456 21.5155 36.8382L21.4927 36.8614V19.4371C20.8927 19.4073 20.2923 19.3771 19.6933 19.336C19.502 19.3227 19.4401 19.3964 19.4208 19.5806C19.2994 20.7447 19.0809 21.8964 19.0443 23.0714C18.9972 24.5815 18.9481 26.0917 18.8991 27.6019V36.8614C18.8847 37.3224 18.8694 37.7938 18.8654 38.0329C18.858 38.4508 18.8386 38.8687 18.8233 39.2861C18.8069 39.7352 18.8203 40.8716 18.8178 41.135C18.8154 41.3984 18.8178 41.7831 18.4245 41.7831C18.0311 41.7831 15.0064 41.9123 13.4017 41.7692C13.0792 41.7405 12.9697 41.4365 13.1738 41.2043C13.3502 41.0038 13.912 40.7151 14.1449 40.6111C14.1776 40.1081 14.2702 37.7408 14.3222 36.9991C14.3301 36.8832 14.3371 36.7674 14.3445 36.651H14.351C14.4312 34.4645 14.511 32.278 14.5942 30.0914C14.672 28.048 14.7111 26.0026 14.8657 23.9626C14.8751 23.8368 14.8603 23.7269 14.7944 23.62C13.9561 22.2658 13.4354 20.766 12.93 19.2603H12.9295Z" fill="#707478"/>
<path fill-rule="evenodd" clip-rule="evenodd" d="M20.8828 6.27562C20.9121 6.28186 20.9307 6.31065 20.9245 6.33993C20.8325 6.77139 20.8084 7.19003 20.8499 7.66191C21.0172 7.6709 21.2426 7.65805 21.4007 7.63964C21.4304 7.63618 21.4573 7.65748 21.4608 7.68721C21.4642 7.71694 21.4429 7.74385 21.4132 7.74732C21.2369 7.76785 20.9756 7.78212 20.7955 7.76682C20.7694 7.7646 20.7487 7.74405 20.7462 7.71799C20.6981 7.21712 20.7211 6.77427 20.8185 6.31732C20.8247 6.28805 20.8535 6.26938 20.8828 6.27562ZM20.274 7.28209C20.2937 7.25955 20.3279 7.25725 20.3505 7.27695C20.4185 7.33637 20.4636 7.41529 20.4878 7.49842C20.5312 7.64655 20.5942 7.85007 20.6334 7.97685C20.65 8.03052 20.6624 8.07044 20.6672 8.08658C20.6757 8.11527 20.6594 8.14545 20.6307 8.15401C20.602 8.16256 20.5719 8.14623 20.5633 8.11755C20.5591 8.1035 20.5476 8.06612 20.5318 8.01502C20.4926 7.88837 20.4273 7.67746 20.3838 7.52883L20.3837 7.52875C20.3643 7.46216 20.3291 7.40226 20.2791 7.35857C20.2566 7.33887 20.2543 7.30463 20.274 7.28209ZM22.2537 7.59503C22.2301 7.55096 22.1914 7.4959 22.1323 7.47152L22.2537 7.59503ZM22.1983 7.79836C22.1955 7.74402 22.1828 7.69215 22.1582 7.64627C22.1377 7.60804 22.1141 7.5813 22.0909 7.57172C22.0748 7.56505 22.045 7.5611 21.9928 7.60687L21.9927 7.60692C21.9427 7.65062 21.9075 7.71052 21.8881 7.77711L21.8881 7.77719C21.8572 7.88263 21.8036 8.05455 21.756 8.2061C21.7371 8.26619 21.7192 8.32295 21.704 8.37122C21.6806 8.44529 21.6635 8.49933 21.659 8.51464C21.6504 8.54332 21.6202 8.55964 21.5916 8.55109C21.5629 8.54254 21.5465 8.51236 21.5551 8.48367C21.5599 8.46757 21.5776 8.41154 21.6015 8.33585C21.6166 8.28793 21.6342 8.23214 21.6526 8.1736C21.7002 8.02191 21.7535 7.85105 21.784 7.74678C21.8083 7.66364 21.8534 7.58473 21.9214 7.5253C21.9936 7.46205 22.0662 7.44423 22.1323 7.47152M20.8423 10.0042C20.8722 10.0062 20.8948 10.032 20.8928 10.0619L20.7867 11.6518C20.6323 13.9662 20.3097 16.2669 19.8034 18.5304C19.5509 19.6586 19.2614 20.7487 18.6701 21.779C18.359 22.3216 18.0154 22.8338 17.6491 23.2443C17.2834 23.6541 16.8914 23.9665 16.4826 24.1032C16.0704 24.2409 15.6451 24.1986 15.2217 23.9069C14.8012 23.6171 14.3849 23.0831 13.98 22.2425C13.967 22.2156 13.9783 22.1832 14.0053 22.1702C14.0323 22.1572 14.0647 22.1685 14.0777 22.1955C14.4789 23.0284 14.8849 23.5432 15.2832 23.8176C15.6785 24.09 16.0684 24.1273 16.4482 24.0004C16.8314 23.8723 17.2082 23.5756 17.5682 23.1721C17.9277 22.7692 18.2671 22.264 18.5761 21.725C19.1588 20.7098 19.4454 19.6333 19.6976 18.5068C20.2027 16.2489 20.5245 13.9538 20.6785 11.6446L20.7846 10.0547C20.7866 10.0248 20.8125 10.0022 20.8423 10.0042ZM17.6421 10.166C17.6421 10.166 17.6421 10.166 17.6421 10.166L17.6424 10.1668L17.6434 10.1695C17.6443 10.1719 17.6456 10.1755 17.6474 10.1801C17.6509 10.1895 17.6562 10.2032 17.663 10.2205C17.6766 10.2552 17.6964 10.3045 17.7209 10.3624C17.9045 10.796 17.9583 11.2733 17.8711 11.7362L16.7843 17.5109C16.7464 17.7127 16.685 17.9104 16.5938 18.0959C16.5401 18.2057 16.4719 18.3215 16.389 18.4159C16.3065 18.51 16.2055 18.5873 16.0857 18.6115C15.9635 18.6361 15.8321 18.6035 15.6951 18.498C15.5594 18.3935 15.4158 18.2161 15.2634 17.9454C15.2488 17.9193 15.258 17.8862 15.2841 17.8715C15.3102 17.8569 15.3432 17.8661 15.3579 17.8922C15.5068 18.1569 15.6418 18.3202 15.7612 18.4121C15.8792 18.5029 15.9794 18.5223 16.0643 18.5052C16.1515 18.4876 16.2331 18.4293 16.3076 18.3444C16.3817 18.2599 16.445 18.1535 16.4964 18.0482L16.4965 18.0481C16.5828 17.8726 16.6414 17.6846 16.6778 17.4908L17.7645 11.7161C17.8478 11.2746 17.7965 10.8189 17.6211 10.4047C17.5961 10.3457 17.576 10.2955 17.5621 10.2601C17.5551 10.2424 17.5497 10.2283 17.5461 10.2186C17.5449 10.2157 17.544 10.2132 17.5432 10.2111C17.5427 10.2097 17.5422 10.2085 17.5419 10.2075L17.5408 10.2046L17.5404 10.2037L17.5404 10.2036C17.5404 10.2036 17.5404 10.2036 17.5912 10.1848L17.5404 10.2036C17.53 10.1755 17.5444 10.1443 17.5724 10.1339C17.6005 10.1236 17.6317 10.1379 17.6421 10.166ZM21.4065 10.1802C21.4364 10.1788 21.4617 10.202 21.4631 10.2319L21.5622 12.4623C21.5978 12.9963 21.6253 13.528 21.6526 14.0578C21.744 15.8262 21.8342 17.5728 22.2223 19.3084C22.4745 20.435 22.7611 21.5115 23.3438 22.5267C23.6537 23.067 23.9758 23.5952 24.3098 24.0319C24.6444 24.4694 24.9869 24.8098 25.3359 24.9805C25.6805 25.1491 26.0321 25.153 26.3976 24.9151C26.7679 24.674 27.156 24.1824 27.5577 23.3487C27.5707 23.3217 27.6031 23.3104 27.6301 23.3234C27.657 23.3364 27.6683 23.3688 27.6554 23.3957C27.2507 24.2355 26.8519 24.7487 26.4568 25.0059C26.0568 25.2662 25.6644 25.2619 25.2882 25.0779C24.9164 24.896 24.5614 24.5393 24.2237 24.0977C23.8852 23.6551 23.5602 23.1219 23.2498 22.5807C22.6585 21.5504 22.3691 20.4603 22.1165 19.3321C21.7262 17.5867 21.6354 15.8277 21.544 14.0575C21.5167 13.529 21.4894 12.9994 21.454 12.4689C21.454 12.4686 21.454 12.4684 21.4539 12.4681L21.4539 12.4677L21.3548 10.2367C21.3534 10.2068 21.3766 10.1815 21.4065 10.1802ZM24.3986 10.7277C24.4273 10.7362 24.4437 10.7663 24.4352 10.795L24.3832 10.7797C24.4352 10.795 24.4352 10.795 24.4352 10.795L24.4351 10.7953L24.4349 10.7959L24.4342 10.7984L24.4314 10.8078C24.4289 10.816 24.4254 10.8278 24.421 10.8423C24.4122 10.8714 24.3999 10.9113 24.3861 10.955C24.3586 11.0414 24.3242 11.1452 24.2983 11.2064C24.1229 11.6206 24.0716 12.0763 24.1549 12.5177L25.2416 18.2925C25.278 18.4862 25.3366 18.6743 25.4229 18.8497L25.423 18.8498C25.5239 19.0564 25.7096 19.2329 25.9109 19.2548C26.1039 19.2757 26.3433 19.1559 26.5597 18.6973C26.5725 18.6702 26.6048 18.6586 26.6319 18.6714C26.6589 18.6842 26.6705 18.7165 26.6578 18.7435C26.4334 19.219 26.1607 19.3909 25.8992 19.3625C25.646 19.335 25.4349 19.1212 25.3256 18.8974C25.2344 18.7119 25.173 18.5143 25.1351 18.3125L24.0484 12.5378C23.9611 12.075 24.0149 11.5976 24.1985 11.1641C24.2221 11.1083 24.2551 11.0093 24.2827 10.9222C24.2964 10.8791 24.3085 10.8396 24.3173 10.8108C24.3216 10.7965 24.3251 10.7848 24.3275 10.7768L24.3303 10.7675L24.331 10.7651L24.3312 10.7645L24.3312 10.7644L24.3312 10.7643C24.3397 10.7356 24.3699 10.7192 24.3986 10.7277Z" fill="white"/>
<path d="M23.6597 5.86867C24.4197 5.40867 26.0117 4.66867 26.2997 5.38867C26.6597 6.28867 24.7397 5.26867 23.6597 5.86867Z" fill="#FFB800"/>
<path d="M23.9378 6.14541C24.3361 6.12343 25.1232 6.16601 25.0855 6.51215C25.0383 6.94484 24.4925 6.13546 23.9378 6.14541Z" fill="#FFB800"/>
<path d="M19.9187 5.54464C19.3658 4.84925 18.1301 3.60225 17.6099 4.17734C16.9596 4.8962 19.1144 4.6068 19.9187 5.54464Z" fill="#FFB800"/>
<path d="M19.5616 5.7068C19.1958 5.54782 18.4429 5.31426 18.358 5.65197C18.2519 6.07409 19.0449 5.50476 19.5616 5.7068Z" fill="#FFB800"/>
</svg>
