<svg width="47" height="37" viewBox="0 0 47 37" fill="none" xmlns="http://www.w3.org/2000/svg">
<path d="M45.6288 6.49964C46.4401 7.29352 46.8576 7.9594 46.9218 9.11086C46.8131 11.0859 45.3078 12.4653 43.9427 13.7587C43.6047 14.0575 43.2605 14.3472 42.9135 14.6355C40.5325 16.6227 38.3558 18.5315 36.8056 21.2524C36.7448 21.3577 36.684 21.463 36.6214 21.5716C36.0172 22.9722 36.6442 24.7337 37.0177 26.1196C37.0719 26.328 37.126 26.5365 37.1818 26.7512C37.289 27.1636 37.397 27.5757 37.506 27.9876C37.695 28.7032 37.8771 29.4205 38.0569 30.1385C38.1324 30.4344 38.1324 30.4344 38.2093 30.7363C38.5675 32.2654 38.894 34.3244 38.2266 35.8116C37.7757 36.4167 37.5245 36.6402 36.8056 36.8614C34.1738 37.1903 31.1818 35.5357 29.1602 33.9665C27.3527 32.5089 25.721 30.8271 24.2831 29.0072C23.8478 28.4695 23.3914 27.9558 22.9251 27.4451C22.8476 27.3594 22.7701 27.2737 22.6903 27.1855C21.8829 26.2909 21.8829 26.2909 20.7831 25.9181C20.1882 26.0016 19.9299 26.0831 19.5397 26.5377C18.4539 28.1638 17.8285 30.0809 17.1493 31.8994C16.573 33.4068 15.9763 34.9151 14.7495 36.013C14.025 36.2545 13.5421 36.1887 12.8551 35.8548C11.7109 35.1891 10.764 34.2884 9.83984 33.3514C9.72116 33.232 9.60248 33.1125 9.48021 32.9895C8.70092 32.1965 7.98189 31.384 7.29489 30.5096C6.92079 30.0448 6.52419 29.6103 6.11786 29.1735C5.1408 28.1086 4.24989 26.9878 3.38204 25.8333C3.31309 25.7418 3.24415 25.6504 3.17311 25.5562C2.37573 24.4869 1.70204 23.3954 1.10219 22.2067C1.04616 22.0958 0.990135 21.9848 0.932408 21.8705C0.124977 20.2116 -0.253821 18.3907 0.184955 16.5721C0.672202 15.178 1.56553 14.2693 2.87305 13.6175C5.63148 12.3669 8.81682 12.7464 11.5843 13.7638C12.169 13.9859 12.7518 14.2128 13.3341 14.4415C19.6097 16.9243 19.6097 16.9243 26.151 16.6944C26.4976 16.5162 26.4976 16.5162 26.6365 16.0776C26.6041 14.2635 25.1025 12.9653 23.9113 11.7512C23.7809 11.6143 23.6506 11.4774 23.5163 11.3364C22.853 10.6517 22.1637 10.0353 21.4193 9.43958C20.2181 8.47191 19.1335 7.49488 18.9373 5.87997C18.8819 4.58386 19.1195 3.72328 19.9772 2.74916C21.5321 1.23716 23.5091 0.579288 25.6079 0.214161C25.7426 0.189885 25.8773 0.165608 26.0161 0.140596C32.2288 -0.721097 40.9584 2.4987 45.6288 6.49964Z" fill="currentColor"/>
</svg>
