<svg width="46" height="48" viewBox="0 0 46 48" fill="none" xmlns="http://www.w3.org/2000/svg">
<path d="M15.9929 0.418945C17.0597 0.751225 17.4634 1.48207 17.9873 2.43966C18.7171 3.84502 19.3299 5.30646 19.9462 6.76407C21.3823 10.1844 21.3823 10.1844 22.9915 13.5254C23.0674 13.6743 23.1432 13.8232 23.2214 13.9766C24.9699 17.2674 27.6271 18.8539 31.0773 19.9827C32.8977 20.5316 34.7442 20.6212 36.6348 20.6791C36.8371 20.6854 37.0394 20.6916 37.2479 20.6981C37.6449 20.709 38.042 20.7173 38.4391 20.7227C39.6242 20.7496 40.6376 20.907 41.7499 21.3193C41.9034 21.3753 42.0569 21.4313 42.2151 21.489C43.5178 22.0998 45.3004 23.3093 45.8218 24.7126C45.9211 25.3654 45.861 25.6608 45.5355 26.2395C43.8096 28.055 40.4168 28.4753 38.1097 29.1172C33.2711 30.2633 33.2711 30.2633 29.6554 33.3912C28.7564 35.2246 28.7977 37.2247 28.7707 39.2187C28.7329 42.0073 28.6901 44.6824 26.6532 46.8138C26.3105 47.1081 26.3105 47.1081 25.7697 47.3307C25.135 47.2602 24.9083 47.0329 24.4443 46.5991C24.1672 46.1431 24.1672 46.1431 23.9141 45.5811C23.8659 45.4751 23.8178 45.3692 23.7682 45.26C23.3362 44.2862 22.9586 43.2915 22.5762 42.2974C20.9527 37.8052 20.9527 37.8052 17.4881 34.7227C16.6187 34.3617 15.8386 34.3183 14.9113 34.3197C14.7585 34.3195 14.6057 34.3193 14.4483 34.3191C12.9292 34.3417 11.4567 34.5777 9.95948 34.8179C7.3236 35.2338 4.94406 35.3222 2.6187 33.8299C1.66422 33.1267 0.735221 32.3091 0.352112 31.1597C0.230532 30.3222 0.258428 29.8398 0.733854 29.1344C2.00985 27.6173 3.85308 26.6233 5.50206 25.5631C10.4511 22.4438 10.4511 22.4438 13.5858 17.7564C13.8224 16.3987 13.7027 15.1342 13.5116 13.7799C12.9851 9.61036 12.9035 4.54579 15.1128 0.790083C15.4521 0.450757 15.4521 0.450757 15.9929 0.418945Z" fill="currentColor"/>
</svg>
