<svg width="46" height="45" viewBox="0 0 46 45" fill="none" xmlns="http://www.w3.org/2000/svg">
<path d="M25.8903 0.309568C27.452 1.09043 28.3255 2.63655 28.9442 4.21181C29.3863 5.63164 29.5186 6.92788 29.485 8.40898C29.4821 8.70547 29.4821 8.70547 29.4792 9.00795C29.473 9.63259 29.4635 10.2571 29.4532 10.8817C29.4396 11.7081 29.4295 12.5345 29.4214 13.361C29.4172 13.5489 29.4129 13.7368 29.4086 13.9304C29.3989 14.9512 29.4386 15.7077 29.9622 16.5972C30.7499 17.0239 31.2046 16.9523 32.0512 16.7032C32.2119 16.6545 32.3727 16.6057 32.5383 16.5555C34.5602 16.0142 36.5912 16.828 38.3386 17.8352C39.1002 18.3286 39.7902 18.8951 40.4813 19.4815C40.5856 19.5631 40.6899 19.6446 40.7974 19.7287C43.1832 21.6318 45.1301 24.7518 45.5712 27.795C45.6727 29.4544 45.7542 31.1702 45.0622 32.7152C44.9922 32.8762 44.9222 33.0371 44.8501 33.203C44.3008 33.87 43.7586 34.1792 42.9189 34.3137C40.7498 34.4178 38.9118 33.4349 37.1145 32.3368C35.9607 31.6899 35.0167 31.539 33.7266 31.8563C31.3259 32.8654 29.6621 35.7191 28.219 37.7808C27.4528 38.864 26.592 39.86 25.7206 40.859C25.5523 41.0558 25.5523 41.0558 25.3806 41.2567C25.1022 41.5806 24.8196 41.8997 24.533 42.2163C24.4378 42.3226 24.3427 42.4289 24.2447 42.5384C23.3383 43.5038 22.2621 44.1963 20.9131 44.2927C15.9264 44.4322 11.6183 41.0641 8.1287 37.8051C7.7127 37.4117 7.2998 37.0152 6.88804 36.6174C6.79938 36.5325 6.71072 36.4476 6.61938 36.36C5.48355 35.2689 4.46876 34.1212 3.49478 32.8848C3.33903 32.6934 3.18305 32.5021 3.02688 32.3109C-0.0245687 28.5467 -0.0245686 28.5467 0.0385598 26.3409C0.23301 25.0678 0.949889 24.0845 1.93666 23.2936C3.48251 22.2538 5.1835 21.9663 7.0133 22.2743C9.81441 22.9634 11.8145 24.6757 13.7581 26.712C14.5597 27.4737 15.2282 27.7377 16.3156 27.8168C17.1294 27.7737 17.5583 27.3045 18.107 26.7558C19.3112 24.9093 19.5024 22.8421 19.4961 20.6903C19.4988 20.5046 19.5016 20.319 19.5044 20.1277C19.5054 18.3463 19.1346 16.7831 18.4039 15.1657C17.4687 12.9517 17.6415 10.8121 18.4357 8.58064C19.5042 5.96884 22.5373 -0.272417 25.8903 0.309568Z" fill="#E84C8D"/>
</svg>
