<svg width="41" height="40" viewBox="0 0 41 40" fill="none" xmlns="http://www.w3.org/2000/svg">
<path d="M29.5092 2.29642C30.7609 3.32651 31.867 4.76479 32.129 6.39484C32.2134 7.45843 32.2673 8.38133 31.62 9.27911C30.8704 10.0886 29.9694 10.5615 29.0042 11.0738C27.6684 11.8094 27.0447 12.8281 26.4877 14.2205C25.986 16.1439 26.1163 18.1989 26.3287 20.1587C26.3465 20.3363 26.3465 20.3363 26.3647 20.5175C26.4564 21.2734 26.6181 21.8751 27.0391 22.5128C28.4448 23.2301 30.0298 22.6415 31.4444 22.1934C31.6353 22.1308 31.8263 22.0683 32.023 22.0038C32.4095 21.8798 32.7961 21.756 33.1828 21.6327C33.3513 21.5778 33.5198 21.5229 33.6933 21.4663C35.4104 20.9524 36.9796 20.9768 38.5762 21.8342C39.608 22.47 40.1653 23.4458 40.6652 24.517C40.9846 25.9978 40.8431 27.2942 40.1032 28.6207C36.1457 34.6996 26.7945 36.7382 20.2057 38.1588C16.4813 38.9407 12.6956 39.6578 8.8852 39.8184C8.73495 39.8254 8.5847 39.8324 8.42989 39.8396C7.18491 39.8707 5.81647 39.7989 4.69665 39.2034C4.3043 38.8005 4.3043 38.8005 4.15585 38.196C4.26953 36.7099 5.77021 35.3216 6.84924 34.3892C7.53092 33.8341 8.22227 33.293 8.9195 32.7576C9.20119 32.5409 9.48151 32.3225 9.76135 32.1034C11.5192 30.7349 13.3289 29.4371 15.1475 28.1508C18.4102 25.914 18.4102 25.914 20.2526 22.5128C20.3914 21.5067 20.1379 20.7895 19.574 19.9679C18.2732 18.4669 16.237 18.0274 14.3358 17.8815C13.7037 17.8454 13.0713 17.8175 12.4387 17.7906C3.98808 17.4204 3.98808 17.4204 1.10191 14.9734C0.515938 14.2668 0.177324 13.7203 0.23239 12.789C0.654519 10.1595 3.24892 8.16451 5.28947 6.68098C6.83015 5.59889 8.44251 4.62028 10.0728 3.68023C10.1724 3.62208 10.272 3.56393 10.3746 3.50402C16.0137 0.237221 23.7897 -1.82513 29.5092 2.29642Z" fill="currentColor"/>
</svg>
