<svg width="241" height="241" viewBox="0 0 241 241" fill="none" xmlns="http://www.w3.org/2000/svg">
<path d="M189.096 193.249C205.372 190.446 212.985 171.476 203.162 158.2C197.901 151.089 188.918 147.784 180.303 149.79L126.481 162.322C118.365 164.212 115.289 174.143 120.916 180.289L140.448 201.625L189.096 193.249Z" fill="#055131"/>
<path d="M173.631 205.933C174.748 203.542 173.716 200.697 171.325 199.579L148.984 189.134L144.935 197.794L167.277 208.239C169.668 209.357 172.513 208.324 173.631 205.933Z" fill="#055131"/>
<path d="M169.177 213.201C170.751 211.081 170.308 208.088 168.189 206.514L148.389 191.81L142.69 199.485L162.49 214.188C164.609 215.762 167.603 215.32 169.177 213.201Z" fill="#055131"/>
<path d="M162.934 219.08C164.881 217.298 165.015 214.275 163.234 212.327L146.585 194.132L139.533 200.585L156.181 218.78C157.963 220.728 160.986 220.862 162.934 219.08Z" fill="#055131"/>
<path d="M57.3051 195.724C40.8124 194.868 31.0065 176.933 39.1882 162.587C43.5704 154.903 52.0993 150.558 60.8914 151.53L115.818 157.602C124.101 158.517 128.331 168.014 123.471 174.784L106.603 198.282L57.3051 195.724Z" fill="#055131"/>
<path d="M74.1642 206.487C72.771 204.245 73.4592 201.298 75.7012 199.905L96.6488 186.888L101.694 195.008L80.7465 208.024C78.5044 209.418 75.5575 208.729 74.1642 206.487Z" fill="#055131"/>
<path d="M79.4464 213.176C77.6328 211.258 77.7175 208.233 79.6355 206.419L97.5558 189.475L104.123 196.421L86.203 213.365C84.285 215.179 81.2599 215.094 79.4464 213.176Z" fill="#055131"/>
<path d="M86.3424 218.277C84.1976 216.738 83.7064 213.752 85.2453 211.607L99.6225 191.568L107.389 197.141L93.0121 217.179C91.4733 219.324 88.4871 219.815 86.3424 218.277Z" fill="#055131"/>
<path d="M54.5298 100.018C54.5298 97.2428 54.5298 95.8553 54.61 94.684C55.7817 77.5789 69.3977 63.9629 86.5028 62.7912C87.6741 62.7109 89.0617 62.7109 91.8367 62.7109H153.225C156 62.7109 157.388 62.7109 158.559 62.7912C175.664 63.9629 189.28 77.5789 190.452 94.684C190.532 95.8553 190.532 97.2428 190.532 100.018V130.712C190.532 168.268 160.087 198.714 122.531 198.714C84.975 198.714 54.5298 168.268 54.5298 130.712V100.018Z" fill="#00753F"/>
<mask id="mask0_4385_21870" style="mask-type:alpha" maskUnits="userSpaceOnUse" x="54" y="62" width="137" height="137">
<path d="M54.5298 100.018C54.5298 97.2428 54.5298 95.8553 54.61 94.684C55.7817 77.5789 69.3977 63.9629 86.5028 62.7912C87.6741 62.7109 89.0617 62.7109 91.8367 62.7109H153.225C156 62.7109 157.388 62.7109 158.559 62.7912C175.664 63.9629 189.28 77.5789 190.452 94.684C190.532 95.8553 190.532 97.2428 190.532 100.018V130.712C190.532 168.268 160.087 198.714 122.531 198.714C84.975 198.714 54.5298 168.268 54.5298 130.712V100.018Z" fill="#139157"/>
</mask>
<g mask="url(#mask0_4385_21870)">
<path d="M72.6025 130.008C72.6025 111.794 87.3676 97.0293 105.581 97.0293H141.308C159.522 97.0293 174.287 111.794 174.287 130.008V147.871C174.287 175.951 151.524 198.713 123.445 198.713C95.3653 198.713 72.6025 175.951 72.6025 147.871V130.008Z" fill="#3DA94E"/>
<circle cx="152.764" cy="161.309" r="4.72105" fill="#00753F"/>
<circle cx="148.043" cy="151.14" r="3.26842" fill="#00753F"/>
<circle cx="142.777" cy="171.295" r="5.26579" fill="#00753F"/>
</g>
<rect x="74.3213" y="44.373" width="39.9474" height="39.9474" rx="19.9737" fill="#00753F"/>
<rect x="78.6792" y="48.7305" width="31.2316" height="31.2316" rx="15.6158" fill="white"/>
<circle cx="94.2343" cy="65.0019" r="2.99605" fill="black"/>
<path d="M110.76 61.5574C110.174 57.1826 107.875 53.2197 104.367 50.5404C100.86 47.861 96.4313 46.6848 92.0566 47.2704C87.6818 47.8561 83.7189 50.1556 81.0395 53.6631C78.3602 57.1706 77.184 61.5988 77.7696 65.9736L77.9467 65.9943C89.0834 67.2959 100.369 65.7699 110.76 61.5574Z" fill="#00753F"/>
<rect x="132.79" y="44.373" width="39.9474" height="39.9474" rx="19.9737" fill="#00753F"/>
<rect x="137.148" y="48.7305" width="31.2316" height="31.2316" rx="15.6158" fill="white"/>
<circle cx="2.99605" cy="2.99605" r="2.99605" transform="matrix(-1 0 0 1 155.043 62.0059)" fill="black"/>
<path d="M135.522 61.5574C136.107 57.1826 138.407 53.2197 141.914 50.5404C145.422 47.861 149.85 46.6848 154.225 47.2704C158.599 47.8561 162.562 50.1556 165.242 53.6631C167.921 57.1706 169.097 61.5988 168.512 65.9736L168.335 65.9943C157.198 67.2959 145.913 65.7699 135.522 61.5574Z" fill="#00753F"/>
<rect x="113.928" y="78.293" width="7.08158" height="4.35789" rx="2.17895" transform="rotate(-10.6318 113.928 78.293)" fill="#213027"/>
<rect width="7.08158" height="4.35789" rx="2.17895" transform="matrix(-0.982833 -0.184498 -0.184498 0.982833 133.654 78.293)" fill="#213027"/>
<path d="M114.438 92.8926V92.8926C118.927 97.4254 126.32 97.3827 130.852 92.8926V92.8926" stroke="#213027" stroke-width="3.73066" stroke-linecap="round"/>
<path fill-rule="evenodd" clip-rule="evenodd" d="M12.5851 88.2086C12.5851 88.8647 12.7398 89.4848 13.0147 90.0342C13.9051 91.8138 15.6499 93.2518 16.1224 95.1847L17.7002 101.64C17.9155 102.52 17.2486 103.37 16.3419 103.37C15.9711 103.37 15.6154 103.223 15.3532 102.96L9.41718 97.0243C8.92358 96.5307 8.77211 95.8065 8.77211 95.1084C8.77211 92.852 6.94296 91.0229 4.68659 91.0229C2.43022 91.0229 0.601067 92.852 0.601067 95.1084C0.601067 97.3648 2.43022 99.1939 4.68659 99.1939C5.2472 99.1939 5.81943 99.3447 6.20476 99.7519L20.2179 114.561C22.0102 116.455 24.6803 117.243 27.2138 116.625L36.8108 114.285C39.5835 113.61 41.7034 111.372 42.2293 108.567L44.4142 96.9148C44.9699 93.951 42.8513 91.1532 39.8478 90.8846C38.717 90.7835 37.7869 89.9965 36.9197 89.2637C36.2083 88.6624 35.2885 88.3 34.2841 88.3C32.0278 88.3 30.1986 90.1291 30.1986 92.3855C30.1986 94.6419 32.0278 96.471 34.2841 96.471C34.3014 96.471 34.3185 96.4709 34.3357 96.4707C36.3825 96.4454 39.1864 95.5124 39.1864 97.5594L39.1864 98.9666C39.1864 101.098 37.4589 102.825 35.3279 102.825H32.0595C29.9284 102.825 28.2009 101.098 28.2009 98.9666V97.9225C28.2009 96.3859 28.6074 94.0345 28.5655 92.4985C28.5645 92.4608 28.564 92.4229 28.564 92.3849C28.564 91.758 28.7051 91.1641 28.9575 90.6332C29.0107 90.5211 28.9317 90.387 28.8077 90.387C26.2038 90.387 24.0318 92.3771 23.8046 94.971L23.4738 98.747C23.403 99.5557 22.2608 99.6567 22.0491 98.873L20.5786 93.4289C20.1262 91.754 20.7562 89.9435 20.7562 88.2086C20.7562 85.9522 18.927 84.123 16.6706 84.123C14.4143 84.123 12.5851 85.9522 12.5851 88.2086Z" fill="#00753F"/>
<path d="M31.0571 110.613V110.613C26.7782 122.722 35.7602 135.422 48.6024 135.422H58.664" stroke="#00753F" stroke-width="14.9226" stroke-linecap="round"/>
<path fill-rule="evenodd" clip-rule="evenodd" d="M228.415 88.2086C228.415 88.8647 228.26 89.4848 227.985 90.0342C227.095 91.8138 225.35 93.2519 224.878 95.1849L223.3 101.64C223.085 102.52 223.751 103.37 224.658 103.37C225.029 103.37 225.385 103.223 225.647 102.96L231.583 97.0241C232.077 96.5305 232.228 95.8064 232.228 95.1084C232.228 92.852 234.057 91.0229 236.314 91.0229C238.57 91.0229 240.399 92.852 240.399 95.1084C240.399 97.3648 238.57 99.1939 236.314 99.1939C235.753 99.1939 235.181 99.3447 234.795 99.7519L220.782 114.561C218.99 116.455 216.32 117.243 213.786 116.625L204.189 114.285C201.417 113.61 199.297 111.372 198.771 108.567L196.586 96.9148C196.03 93.951 198.149 91.1532 201.152 90.8846C202.283 90.7835 203.213 89.9965 204.08 89.2636C204.792 88.6624 205.712 88.3 206.716 88.3C208.972 88.3 210.801 90.1291 210.801 92.3855C210.801 94.6419 208.972 96.471 206.716 96.471C206.699 96.471 206.682 96.4709 206.664 96.4707C204.618 96.4454 201.814 95.5123 201.814 97.5594L201.814 98.9666C201.814 101.098 203.541 102.825 205.672 102.825H208.941C211.072 102.825 212.799 101.098 212.799 98.9666V97.9225C212.799 96.3859 212.393 94.0345 212.434 92.4985C212.436 92.4608 212.436 92.4229 212.436 92.3849C212.436 91.758 212.295 91.1641 212.043 90.6332C211.989 90.5211 212.068 90.387 212.192 90.387C214.796 90.387 216.968 92.3771 217.195 94.971L217.526 98.747C217.597 99.5557 218.739 99.6567 218.951 98.873L220.421 93.4287C220.874 91.7538 220.244 89.9434 220.244 88.2086C220.244 85.9522 222.073 84.123 224.329 84.123C226.586 84.123 228.415 85.9522 228.415 88.2086Z" fill="#00753F"/>
<path d="M209.942 110.613V110.613C214.221 122.722 205.239 135.422 192.397 135.422H182.336" stroke="#00753F" stroke-width="14.9226" stroke-linecap="round"/>
<ellipse cx="123.153" cy="233.353" rx="49.0582" ry="7.64785" fill="currentColor"/>
<path d="M96.231 16.6516C94.2188 20.1368 93.6736 24.2787 94.7151 28.166C95.7567 32.0533 98.2999 35.3676 101.785 37.3798C105.27 39.392 109.412 39.9373 113.3 38.8957C117.187 37.8541 120.501 35.3109 122.513 31.8257L109.372 24.2386L96.231 16.6516Z" fill="#D72B6A"/>
<path d="M148.759 16.6516C150.771 20.1368 151.317 24.2787 150.275 28.166C149.233 32.0533 146.69 35.3676 143.205 37.3798C139.72 39.392 135.578 39.9373 131.691 38.8957C127.803 37.8541 124.489 35.3109 122.477 31.8257L135.618 24.2386L148.759 16.6516Z" fill="#D72B6A"/>
<path d="M132.057 6.46564C135.944 7.50723 139.259 10.0504 141.271 13.5356C143.283 17.0209 143.828 21.1627 142.787 25.05C141.745 28.9373 139.202 32.2516 135.717 34.2638C132.231 36.276 128.09 36.8213 124.202 35.7797L128.13 21.1227L132.057 6.46564Z" fill="#EE5990"/>
<path d="M112.97 6.46564C109.083 7.50723 105.768 10.0504 103.756 13.5356C101.744 17.0209 101.199 21.1627 102.24 25.05C103.282 28.9373 105.825 32.2516 109.31 34.2638C112.795 36.276 116.937 36.8213 120.825 35.7797L116.897 21.1227L112.97 6.46564Z" fill="#EE5990"/>
<path d="M112.385 25.2975L122.773 0L133.16 25.2975C136.195 32.6871 130.761 40.7926 122.773 40.7926C114.784 40.7926 109.35 32.6871 112.385 25.2975Z" fill="#D72B6A"/>
</svg>
