<svg width="373" height="372" viewBox="0 0 373 372" fill="none" xmlns="http://www.w3.org/2000/svg">
<path d="M285.204 362.643C283.813 362.504 282.439 362.306 281.075 362.071C281.075 362.012 281.075 361.959 281.075 361.9C279.181 347.591 277.298 301.12 277.33 285.693C277.362 270.267 275.726 241.227 274.891 225.908C274.495 218.419 273.65 203.346 272.81 195.889C272.169 190.214 271.703 184.522 271.206 178.837C271.243 176.606 271.297 174.381 271.334 172.156C275.02 168.78 278.619 165.309 282.086 161.704C291.612 151.792 301.663 135.178 295.763 120.843C290.521 108.102 285.065 100.554 277.122 89.316C270.339 79.736 257.785 69.4499 247.328 63.919C237.523 58.7305 230.821 57.1044 214.747 56.8316C198.674 56.5588 177.534 57.4093 166.783 59.7789C156.031 62.1485 147.527 65.4007 142.087 70.3004C133.17 78.3238 127.885 87.4171 124.237 100.79C120.589 114.162 116.315 129.166 112.25 128.84C108.185 128.513 106.751 106.208 106.607 99.5379C106.441 91.9637 105.163 76.9812 109.394 70.0811C109.387 69.4681 109.591 68.8714 109.971 68.3908L110.271 67.9896C110.37 67.7733 110.49 67.5673 110.629 67.3745C110.597 67.2835 110.56 67.1926 110.528 67.0963C110.656 66.8663 110.779 66.631 110.913 66.3956C114.186 62.1592 117.647 58.0459 120.038 53.2211C121.274 50.7338 118.524 48.0486 116.214 50.0117L107.479 57.3719L106.757 56.1844C107.693 54.5797 108.725 52.975 109.784 51.4773C111.389 49.1558 113.106 46.9039 114.786 44.6306C116.545 42.245 118.722 39.8914 117.332 36.7997C117.019 36.2076 116.484 35.763 115.845 35.5627C115.206 35.3623 114.514 35.4224 113.919 35.7299C109.64 38.276 106.644 42.1487 103.756 46.139C103.221 46.8772 102.686 47.6207 102.151 48.3589C101.959 47.9898 101.75 47.6207 101.552 47.2516C101.559 46.8098 101.483 46.3707 101.327 45.9572C101.531 45.6362 101.723 45.3206 101.911 45.0157C104.596 40.5226 107.283 36.033 109.971 31.547C111.512 28.9742 108.367 26.658 106.142 28.3376C102.559 31.0072 99.3013 34.0859 96.4332 37.5111C95.9946 36.0829 95.4757 34.6762 94.9622 33.3068C94.7877 32.8077 94.448 32.3831 93.9994 32.1033C93.8979 31.7453 93.708 31.4186 93.4473 31.1531C93.1865 30.8877 92.8632 30.692 92.507 30.5842C91.6347 30.2435 90.6639 30.2556 89.8004 30.618C88.9368 30.9804 88.2481 31.6646 87.8802 32.5259C87.0939 34.4194 87.8802 36.8853 88.0353 38.843C88.3698 42.9536 88.2946 47.0874 87.8106 51.1831C87.6715 51.4827 87.5378 51.7822 87.4041 52.0817C80.9853 63.6837 78.2787 77.1417 77.5192 90.4607C76.9843 100.089 77.241 109.797 77.5192 119.441C77.7973 129.086 78.3964 138.805 79.846 148.379C82.1674 163.726 88.062 181.746 104.847 186.357C121.038 190.808 133.266 176.36 139.674 163.357C141.498 159.655 143.06 155.815 144.537 151.931C144.611 161.779 144.611 171.669 144.344 175.376C143.9 181.441 143.98 223.517 143.638 235.006C143.194 249.844 142.889 264.623 142.616 279.462C142.343 294.203 142.081 308.945 141.52 323.682C141.236 330.871 140.338 355.123 140.054 359.99C137.791 361.017 134.78 362.515 133.074 364.467C131.1 366.73 132.191 370.202 135.342 370.458C150.998 371.721 163.606 370.399 179.278 370.822C179.805 370.842 180.33 370.743 180.813 370.533C180.975 370.618 181.141 370.695 181.311 370.763C184.419 371.951 185.055 366.366 185.109 365.548C185.11 365.56 185.11 365.573 185.109 365.585V365.516C185.11 365.493 185.11 365.469 185.109 365.446C185.146 365.222 184.793 360.969 184.782 359.29C184.75 354.941 184.879 350.592 185.002 346.244C185.119 342.205 185.28 337.391 185.323 333.352C185.365 328.907 186.435 287.207 186.879 271.015C187.328 254.519 187.981 238.585 188.2 222.099C188.441 204.02 189.024 178.237 189.586 160.185C196.571 160.083 203.552 159.163 210.548 158.944C210.378 159.418 210.337 159.93 210.431 160.426C210.525 160.922 210.75 161.383 211.083 161.763C213.389 164.753 215.213 166.999 217.743 169.786C208.799 174.472 200.546 178.344 192.201 183.362C188.746 185.443 190.966 191.177 194.972 189.978L207.451 185.223L208.056 186.437C203.611 190.085 199.353 191.701 195.042 195.531C192.469 197.815 195.106 203.067 198.599 201.837C201.947 200.655 213.474 194.883 213.474 194.883L214.084 196.28C214.084 196.28 208.944 200.323 207.237 202.591C204.959 205.63 207.317 209.251 211.393 207.502C216.887 205.148 222.091 202.415 227.478 199.858L229.879 198.74C230.024 200.345 230.195 201.949 230.414 203.554C231.425 210.861 234.105 248.026 234.383 255.439C234.667 263.003 235.095 270.561 235.555 278.114C236.469 293.219 237.529 308.325 237.855 323.462C238.037 331.775 238.786 360.279 239.021 366.286C239.021 366.345 239.599 370.651 242.139 370.763C250.355 371.111 256.961 370.17 265.14 370.17C271.997 370.17 278.924 370.908 285.707 369.512C289.74 368.677 289.012 363.034 285.204 362.643ZM225.59 158.361C225.627 159.896 225.723 161.431 225.862 162.971C223.306 161.613 220.995 160.067 218.871 158.874C221.12 158.87 223.366 158.698 225.59 158.361Z" fill="#E84C8D"/>
<path d="M176.764 29.3539C177.524 35.9331 180.209 42.4535 186.51 45.3152C186.944 45.5142 187.413 45.6268 187.89 45.6469C200.054 46.6418 205.269 34.5156 202.947 14.7672C201.974 6.4763 193.234 -4.48911 184.638 1.92966C180.894 4.73788 178.84 9.30056 177.732 14.0718C172.587 14.933 163.75 16.6019 165.799 23.4914C167.104 27.899 172.282 29.1025 176.764 29.3539Z" fill="#E84C8D"/>
<path d="M194.688 14.7671C196.053 19.5931 196.649 24.6042 196.453 29.6159C194.283 29.8823 192.094 29.9593 189.911 29.8459" fill="#E84C8D"/>
<path fill-rule="evenodd" clip-rule="evenodd" d="M194.47 13.9951C194.896 13.8745 195.34 14.1223 195.46 14.5487C196.849 19.4559 197.455 24.5514 197.255 29.6473C197.24 30.0404 196.942 30.3643 196.551 30.4123C194.335 30.6844 192.1 30.763 189.87 30.6472C189.428 30.6242 189.087 30.2468 189.11 29.8043C189.133 29.3618 189.511 29.0217 189.953 29.0447C191.861 29.1438 193.774 29.0943 195.674 28.8969C195.788 24.1992 195.196 19.5096 193.916 14.9856C193.796 14.5592 194.044 14.1158 194.47 13.9951Z" fill="white"/>
<path d="M167.665 164.818C167.093 164.818 166.52 164.671 166.008 164.374C165.451 164.053 152.218 156.37 138.795 144.793C130.84 137.932 124.489 131.126 119.921 124.567C114.009 116.078 111.036 107.913 111.084 100.298C111.14 91.4371 114.313 83.1041 120.021 76.8337C125.824 70.4576 133.569 66.9464 141.83 66.9464C152.416 66.9464 162.095 72.8765 167.665 82.2704C173.236 72.8767 182.915 66.9464 193.501 66.9464C201.305 66.9464 208.75 70.1146 214.467 75.8674C220.741 82.1804 224.305 91.1005 224.247 100.34C224.198 107.942 221.17 116.094 215.245 124.571C210.662 131.128 204.32 137.93 196.396 144.789C183.022 156.365 169.885 164.048 169.332 164.369C168.817 164.669 168.241 164.818 167.665 164.818Z" fill="#FFC633"/>
<path fill-rule="evenodd" clip-rule="evenodd" d="M236.229 99.3073C236.592 99.0542 237.093 99.1438 237.346 99.5076C239.654 102.825 241.906 106.207 244.1 109.502C245.018 110.879 245.924 112.24 246.821 113.576L246.821 113.576C248.191 115.619 249.712 117.983 250.907 120.466C252.099 122.943 252.994 125.593 253.065 128.208L253.065 128.208C253.169 132.086 250.888 135.699 248.987 138.685L248.987 138.686C247.405 141.161 242.968 146.337 238.479 151.312C233.975 156.303 229.335 161.181 227.301 163.079C226.977 163.382 226.47 163.364 226.167 163.04C225.865 162.716 225.883 162.209 226.206 161.906C228.185 160.06 232.785 155.226 237.288 150.237C241.804 145.232 246.139 140.162 247.634 137.823C249.595 134.743 251.55 131.552 251.461 128.252C251.399 125.956 250.606 123.54 249.461 121.161C248.318 118.787 246.852 116.503 245.489 114.47C244.585 113.124 243.674 111.756 242.755 110.376C240.565 107.087 238.327 103.727 236.029 100.424C235.775 100.06 235.865 99.5604 236.229 99.3073ZM213.161 156.891C212.088 157.124 211.506 157.866 211.295 158.453C211.144 158.869 210.684 159.085 210.267 158.935C209.851 158.784 209.635 158.324 209.785 157.908C210.153 156.89 211.122 155.692 212.82 155.323C214.507 154.957 216.73 155.448 219.552 157.385C219.918 157.636 220.011 158.135 219.76 158.5C219.509 158.866 219.01 158.959 218.644 158.708C216.011 156.901 214.244 156.656 213.161 156.891ZM271.896 172.07C272.183 172.408 272.141 172.915 271.803 173.201C260.86 182.471 243.287 193.812 230.451 200.114C230.053 200.309 229.572 200.145 229.377 199.747C229.182 199.349 229.346 198.869 229.743 198.673C242.468 192.426 259.929 181.156 270.766 171.977C271.104 171.69 271.61 171.732 271.896 172.07Z" fill="white"/>
<path d="M157.124 100.332C157.771 102.68 157.626 105.162 157.514 106.252C157.492 106.468 157.231 106.535 157.106 106.356C156.454 105.423 155.029 103.208 154.376 100.839C153.716 98.4444 154.035 96.5864 154.221 95.847C154.263 95.6776 154.46 95.6278 154.582 95.7545C155.139 96.3378 156.455 97.9079 157.124 100.332Z" fill="white"/>
<path d="M144.405 111.527C146.193 113.186 147.485 115.436 148.02 116.457C148.123 116.654 147.933 116.856 147.729 116.767C146.667 116.303 144.312 115.166 142.523 113.505C140.689 111.802 139.982 110.045 139.754 109.325C139.702 109.161 139.838 109.017 140.005 109.057C140.746 109.236 142.569 109.822 144.405 111.527Z" fill="white"/>
<path d="M168.859 96.4662C168.642 98.8643 167.739 101.222 167.289 102.276C167.2 102.483 166.921 102.46 166.865 102.242C166.579 101.112 166.045 98.5851 166.263 96.1776C166.487 93.7126 167.434 92.0853 167.87 91.4531C167.971 91.3075 168.174 91.3318 168.239 91.4967C168.519 92.2104 169.083 94.0044 168.859 96.4662Z" fill="white"/>
<path d="M178.805 100.231C178.188 102.568 176.875 104.76 176.246 105.725C176.123 105.913 175.853 105.844 175.835 105.62C175.741 104.462 175.634 101.877 176.252 99.5349C176.886 97.133 178.098 95.6828 178.631 95.1353C178.753 95.0099 178.947 95.0649 178.986 95.2357C179.154 95.9769 179.438 97.8335 178.805 100.231Z" fill="white"/>
<path d="M190.609 108.972C189.434 111.039 187.791 112.67 186.997 113.394C186.831 113.545 186.589 113.41 186.629 113.189C186.835 112.048 187.395 109.518 188.595 107.407C189.798 105.291 191.303 104.197 191.981 103.782C192.141 103.684 192.325 103.804 192.301 103.989C192.196 104.823 191.83 106.824 190.609 108.972Z" fill="white"/>
<path d="M149.611 136.444C157.296 140.47 166.919 137.335 166.919 137.335C166.919 137.335 164.083 127.673 156.397 123.647C150.012 120.301 142.289 121.899 139.859 122.536C139.424 122.65 139.19 123.09 139.342 123.511C140.187 125.864 143.226 133.099 149.611 136.444Z" fill="#5CC2BB"/>
<path d="M183.727 136.444C176.041 140.47 166.419 137.335 166.419 137.335C166.419 137.335 169.255 127.673 176.941 123.647C183.326 120.301 191.049 121.899 193.479 122.536C193.914 122.65 194.147 123.09 193.996 123.511C193.151 125.864 190.111 133.099 183.727 136.444Z" fill="#5CC2BB"/>
<path d="M154.635 126.626C158.893 134.102 166.881 137.511 166.881 137.511C166.881 137.511 167.963 128.795 163.705 121.319C160.359 115.446 154.714 112.084 152.445 110.911C151.956 110.658 151.4 110.977 151.371 111.527C151.238 114.097 151.283 120.745 154.635 126.628V126.626Z" fill="#E84C8D"/>
<path d="M178.989 126.626C174.731 134.102 166.743 137.511 166.743 137.511C166.743 137.511 165.661 128.795 169.919 121.319C173.265 115.446 178.91 112.084 181.179 110.911C181.668 110.658 182.224 110.977 182.253 111.527C182.386 114.097 182.341 120.745 178.989 126.628V126.626Z" fill="#E84C8D"/>
<path d="M174.08 121.877C174.08 130.512 166.803 137.511 166.803 137.511C166.803 137.511 159.525 130.512 159.525 121.877C159.525 114.696 164.558 108.646 166.253 106.812C166.555 106.485 167.05 106.485 167.352 106.812C169.047 108.646 174.08 114.697 174.08 121.877Z" fill="#E40066"/>
</svg>
