<svg width="423" height="400" viewBox="0 0 423 400" fill="none" xmlns="http://www.w3.org/2000/svg">
<ellipse cx="211.501" cy="367.461" rx="211.501" ry="32.5386" fill="#D0F7F1"/>
<path d="M65.084 156.399C65.084 149.673 65.084 146.31 65.3131 143.474C68.0992 108.985 95.4807 81.6036 129.97 78.8175C132.806 78.5884 136.169 78.5884 142.894 78.5884H270.931C277.657 78.5884 281.019 78.5884 283.856 78.8175C318.345 81.6036 345.726 108.985 348.512 143.474C348.741 146.31 348.741 149.673 348.741 156.399V220.417C348.741 298.747 285.243 362.246 206.913 362.246C128.583 362.246 65.084 298.747 65.084 220.417V156.399Z" fill="#00753F"/>
<mask id="mask0_7510_7405" style="mask-type:alpha" maskUnits="userSpaceOnUse" x="65" y="78" width="284" height="285">
<path d="M65.084 156.399C65.084 149.673 65.084 146.31 65.3131 143.474C68.0992 108.985 95.4807 81.6036 129.97 78.8175C132.806 78.5884 136.169 78.5884 142.894 78.5884H270.931C277.657 78.5884 281.019 78.5884 283.856 78.8175C318.345 81.6036 345.726 108.985 348.512 143.474C348.741 146.31 348.741 149.673 348.741 156.399V220.417C348.741 298.747 285.243 362.246 206.913 362.246C128.583 362.246 65.084 298.747 65.084 220.417V156.399Z" fill="#139157"/>
</mask>
<g mask="url(#mask0_7510_7405)">
<path d="M101.061 218.949C101.061 180.961 131.856 150.166 169.843 150.166H244.358C282.346 150.166 313.141 180.961 313.141 218.949V256.206C313.141 314.77 265.665 362.246 207.101 362.246C148.536 362.246 101.061 314.77 101.061 256.206V218.949Z" fill="#3DA94E"/>
<ellipse cx="269.968" cy="284.23" rx="9.84659" ry="9.84659" fill="#00753F"/>
<ellipse cx="260.122" cy="263.022" rx="6.81687" ry="6.81687" fill="#00753F"/>
<circle cx="249.139" cy="305.06" r="10.9827" fill="#00753F"/>
</g>
<rect x="106.365" y="40.3381" width="83.3173" height="83.3173" rx="41.6586" fill="#00753F"/>
<rect x="115.453" y="49.4275" width="65.139" height="65.139" rx="32.5695" fill="white"/>
<rect x="228.311" y="40.3381" width="83.3173" height="83.3173" rx="41.6586" fill="#00753F"/>
<rect x="237.398" y="49.4275" width="65.139" height="65.139" rx="32.5695" fill="white"/>
<rect x="188.969" y="111.127" width="14.7699" height="9.08916" rx="4.54458" transform="rotate(-10.6318 188.969 111.127)" fill="#213027"/>
<rect width="14.7699" height="9.08916" rx="4.54458" transform="matrix(-0.982833 -0.184498 -0.184498 0.982833 230.113 111.127)" fill="#213027"/>
<path d="M283.783 149.902C293.883 158.86 289.312 175.513 276.054 178.059L194.368 193.744C180.861 196.338 170.427 182.045 177.013 169.97L182.119 160.609C201.093 125.821 247.49 117.714 277.137 144.008L283.783 149.902Z" fill="#00753F"/>
<path d="M280.27 152.345C287.922 159.132 284.459 171.747 274.414 173.676L195.958 188.741C185.725 190.706 177.821 179.878 182.81 170.731L184.262 168.069C203.236 133.28 249.634 125.174 279.28 151.467L280.27 152.345Z" fill="#213027"/>
<mask id="mask1_7510_7405" style="mask-type:alpha" maskUnits="userSpaceOnUse" x="181" y="135" width="104" height="54">
<path d="M280.27 152.345C287.922 159.132 284.459 171.747 274.414 173.676L195.958 188.742C185.725 190.707 177.821 179.879 182.81 170.731L184.262 168.069C203.236 133.28 249.634 125.174 279.28 151.467L280.27 152.345Z" fill="#1D372B"/>
</mask>
<g mask="url(#mask1_7510_7405)">
<path d="M272.799 127.072C280.451 133.858 276.988 146.474 266.944 148.402L188.487 163.468C178.254 165.433 170.35 154.605 175.339 145.457L176.791 142.795C195.765 108.006 242.163 99.8999 271.809 126.193L272.799 127.072Z" fill="white"/>
</g>
<ellipse cx="147.935" cy="79.7351" rx="8.9327" ry="9.32108" fill="black"/>
<ellipse cx="272.114" cy="79.7351" rx="8.9327" ry="9.32108" fill="black"/>
<path d="M165.183 167.191L127.031 214.999C121.503 221.925 113.302 226.188 104.456 226.731L95.0668 227.307C76.8305 228.427 65.9024 207.399 77.2988 193.118V193.118" stroke="#00753F" stroke-width="31.9007" stroke-linecap="round"/>
<path d="M155.97 186.219L135.2 212.246C126.905 222.64 114.138 228.438 100.853 227.843V227.843" stroke="#055131" stroke-width="31.9007" stroke-linecap="round"/>
<path d="M152.322 183.307L132.6 208.02C123.512 219.408 110.096 226.503 95.5674 227.606V227.606" stroke="#00753F" stroke-width="31.9007" stroke-linecap="round"/>
<path d="M175.586 139.93C177.591 135.338 182.587 132.453 185.187 128.171C185.408 127.807 185.607 127.425 185.782 127.024C187.893 122.19 185.686 116.559 180.851 114.447C176.016 112.336 170.385 114.544 168.273 119.378C168.099 119.777 167.954 120.181 167.838 120.589C166.421 125.551 167.839 131.375 165.774 136.105L161.283 146.387C160.115 149.064 156.997 150.286 154.32 149.117C152.402 148.279 151.158 146.389 151.148 144.296L151.124 139.508C151.107 136.125 153.166 133.087 154.52 129.985C156.632 125.151 154.424 119.519 149.589 117.408C144.754 115.297 139.123 117.504 137.012 122.339C136.353 123.848 136.115 125.434 136.245 126.966C136.672 131.969 139.864 136.794 139.617 141.809L138.099 172.592C137.605 182.609 143.357 191.888 152.548 195.902C158.12 198.335 164.406 198.576 170.149 196.576L204.053 184.765C207.657 183.509 211.649 183.988 215.461 183.8C219.116 183.619 222.679 182.023 224.037 178.911C226.149 174.076 223.941 168.445 219.106 166.334C216.329 165.121 213.134 165.775 210.518 167.467C206.838 169.847 203.658 173.358 199.477 174.672L188.305 178.183C184.264 179.453 180.806 175.036 183.008 171.418L194.542 155.825C197.877 151.317 204.382 149.712 208.269 145.669C209.031 144.876 209.668 143.937 210.133 142.871C212.245 138.036 210.037 132.405 205.202 130.293C200.367 128.182 194.736 130.39 192.625 135.225C191.134 138.639 190.624 142.668 188.223 145.516L179.306 156.092C177.867 157.799 175.478 158.357 173.432 157.463C170.88 156.349 169.714 153.376 170.829 150.823L175.586 139.93Z" fill="#055131"/>
<path d="M170.119 140.544C172.124 135.953 177.12 133.067 179.721 128.785C179.941 128.422 180.14 128.039 180.315 127.639C182.427 122.804 180.219 117.173 175.384 115.061C170.549 112.95 164.918 115.158 162.807 119.993C162.632 120.391 162.488 120.796 162.371 121.203C160.954 126.165 162.372 131.99 160.307 136.719L155.817 147.001C154.648 149.678 151.53 150.9 148.853 149.731C146.935 148.894 145.691 147.004 145.681 144.911L145.657 140.123C145.64 136.739 147.699 133.701 149.054 130.6C151.165 125.765 148.957 120.134 144.122 118.022C139.287 115.911 133.656 118.119 131.545 122.954C130.886 124.462 130.648 126.048 130.779 127.58C131.205 132.584 134.398 137.408 134.15 142.424L132.632 173.207C132.138 183.224 137.89 192.502 147.081 196.516C152.654 198.95 158.94 199.19 164.682 197.19L198.586 185.379C202.19 184.124 206.182 184.602 209.994 184.414C213.649 184.234 217.212 182.637 218.571 179.526C220.682 174.691 218.474 169.06 213.639 166.948C210.862 165.736 207.668 166.389 205.051 168.082C201.371 170.461 198.191 173.973 194.01 175.286L182.838 178.797C178.797 180.067 175.339 175.651 177.542 172.032L189.075 156.44C192.41 151.931 198.915 150.326 202.802 146.283C203.564 145.49 204.201 144.552 204.667 143.485C206.778 138.65 204.57 133.019 199.735 130.908C194.901 128.796 189.269 131.004 187.158 135.839C185.667 139.253 185.158 143.282 182.756 146.13L173.839 156.707C172.401 158.413 170.011 158.971 167.965 158.078C165.413 156.963 164.247 153.99 165.362 151.437L170.119 140.544Z" fill="#00753F"/>
<path d="M251.227 222.573L311.004 235.53C319.664 237.407 328.715 235.53 335.914 230.363L343.557 224.878C358.401 214.225 353.588 191.021 335.732 187.151V187.151" stroke="#00753F" stroke-width="31.9007" stroke-linecap="round"/>
<path d="M270.388 231.505L302.931 238.558C315.928 241.375 329.487 237.804 339.409 228.95V228.95" stroke="#055131" stroke-width="31.9007" stroke-linecap="round"/>
<path d="M271.378 226.941L302.278 233.639C316.517 236.725 331.399 233.75 343.358 225.426V225.426" stroke="#00753F" stroke-width="31.9007" stroke-linecap="round"/>
<path d="M225.94 208.013C221.485 205.721 215.79 206.641 211.068 204.964C210.668 204.822 210.272 204.651 209.883 204.451C205.192 202.037 203.346 196.277 205.76 191.586C208.174 186.895 213.934 185.049 218.625 187.463C219.012 187.662 219.379 187.884 219.727 188.126C223.96 191.077 226.541 196.488 231.129 198.85L241.106 203.983C243.703 205.32 246.892 204.298 248.228 201.7C249.186 199.839 248.956 197.589 247.642 195.96L244.636 192.233C242.511 189.599 238.996 188.545 235.987 186.997C231.296 184.583 229.45 178.823 231.864 174.132C234.278 169.441 240.038 167.595 244.729 170.009C246.192 170.762 247.379 171.841 248.246 173.111C251.076 177.259 251.649 183.016 255.009 186.747L275.633 209.651C282.344 217.103 283.747 227.93 279.159 236.847C276.376 242.254 271.656 246.412 265.94 248.489L232.197 260.752C228.611 262.056 225.818 264.949 222.745 267.211C219.797 269.381 216.027 270.393 213.008 268.84C208.317 266.426 206.471 260.666 208.885 255.975C210.271 253.281 213.161 251.769 216.258 251.428C220.614 250.948 225.298 251.661 229.368 250.038L240.246 245.701C244.181 244.133 244.072 238.525 240.078 237.111L221.288 232.311C215.854 230.923 209.797 233.788 204.231 233.11C203.139 232.976 202.052 232.651 201.017 232.119C196.326 229.705 194.48 223.945 196.894 219.254C199.308 214.563 205.068 212.717 209.759 215.131C213.072 216.835 216.012 219.636 219.673 220.327L233.266 222.893C235.46 223.307 237.665 222.229 238.686 220.244C239.96 217.768 238.986 214.727 236.509 213.452L225.94 208.013Z" fill="#055131"/>
<path d="M230.567 205.035C226.112 202.743 220.417 203.663 215.695 201.986C215.295 201.844 214.899 201.673 214.51 201.473C209.819 199.059 207.973 193.299 210.387 188.608C212.801 183.917 218.561 182.071 223.252 184.485C223.639 184.684 224.006 184.906 224.354 185.148C228.587 188.099 231.168 193.51 235.756 195.871L245.733 201.005C248.33 202.342 251.519 201.32 252.855 198.722C253.813 196.861 253.583 194.611 252.269 192.982L249.263 189.255C247.138 186.621 243.623 185.567 240.614 184.019C235.923 181.605 234.077 175.845 236.491 171.154C238.905 166.463 244.665 164.617 249.356 167.031C250.819 167.784 252.006 168.863 252.873 170.133C255.703 174.281 256.276 180.038 259.636 183.769L280.26 206.673C286.971 214.125 288.374 224.952 283.785 233.869C281.003 239.276 276.282 243.434 270.567 245.511L236.824 257.774C233.238 259.078 230.445 261.971 227.371 264.233C224.424 266.403 220.654 267.415 217.635 265.862C212.944 263.448 211.098 257.688 213.512 252.997C214.898 250.303 217.788 248.791 220.885 248.45C225.241 247.97 229.925 248.683 233.995 247.06L244.873 242.723C248.808 241.155 248.699 235.547 244.705 234.133L225.914 229.333C220.481 227.945 214.424 230.81 208.858 230.131C207.766 229.998 206.679 229.673 205.644 229.141C200.953 226.727 199.107 220.967 201.521 216.276C203.935 211.585 209.695 209.739 214.386 212.153C217.699 213.857 220.639 216.658 224.3 217.349L237.893 219.915C240.087 220.328 242.292 219.251 243.313 217.266C244.587 214.79 243.613 211.749 241.136 210.474L230.567 205.035Z" fill="#00753F"/>
<path d="M336.49 58.342L348.589 55.0457C349.126 54.8993 349.646 54.9515 350.147 55.1995C350.648 55.4484 350.964 55.8115 351.094 56.2897L354.025 67.0476C354.155 67.5258 354.067 67.9994 353.762 68.4675C353.456 68.9351 353.035 69.2433 352.497 69.3898L340.397 72.6861C339.86 72.8325 339.339 72.7815 338.84 72.5327C338.338 72.2846 338.022 71.921 337.892 71.4428L334.961 60.6849C334.831 60.2067 334.918 59.7339 335.225 59.2647C335.529 58.7964 335.952 58.4884 336.49 58.342Z" fill="#FFB800"/>
<path d="M310.255 24.6577C310.942 21.7434 312.139 19.1168 313.848 16.7734C315.556 14.4311 317.63 12.3667 320.069 10.5838C322.507 8.80112 325.071 7.54288 327.76 6.81027C337.977 4.02707 346.992 6.37305 354.805 13.8483C355.193 14.2118 355.414 14.657 355.467 15.1841C355.52 15.7107 355.374 16.2019 355.029 16.657L348.478 25.2116C348.114 25.599 347.731 25.8478 347.327 25.9578C346.722 26.1226 346.128 25.9951 345.544 25.5766C342.301 23.2113 339.976 21.7688 338.57 21.2485C336.859 20.6679 334.912 20.6752 332.728 21.2703C330.678 21.8288 329.018 22.8586 327.747 24.3592C326.478 25.8606 326.036 27.3169 326.421 28.7285C326.851 30.3074 327.618 31.4709 328.724 32.2166C329.83 32.9622 331.498 33.5181 333.729 33.8856C336.67 34.3478 339.571 35.5164 342.428 37.3919C345.286 39.2671 347.094 41.5997 347.854 44.3891L348.472 46.6576C348.647 47.2968 348.643 47.9744 348.459 48.6925C348.275 49.4109 347.931 49.8382 347.427 49.9756L335.327 53.2717C334.79 53.4182 334.249 53.2863 333.703 52.8736C333.159 52.4638 332.807 51.9726 332.652 51.4021C332.423 50.5621 331.654 49.5609 330.346 48.4016C329.037 47.2419 327.588 46.462 325.998 46.0644C324.487 45.6822 323.301 45.3654 322.437 45.1127C321.572 44.8614 320.407 44.3918 318.939 43.7094C317.471 43.0258 316.274 42.2777 315.35 41.4648C314.424 40.6521 313.485 39.5266 312.534 38.0885C311.581 36.6512 310.859 35.0246 310.365 33.2099C309.605 30.4202 309.569 27.5691 310.255 24.6577Z" fill="#FFB800"/>
<path d="M50.6797 106.873L39.0277 103.699C38.5104 103.558 38.0098 103.608 37.5275 103.847C37.0446 104.087 36.7409 104.436 36.6154 104.897L33.793 115.257C33.6675 115.718 33.7524 116.174 34.0465 116.624C34.341 117.075 34.7466 117.371 35.2644 117.513L46.9164 120.687C47.4337 120.828 47.9353 120.779 48.4162 120.539C48.8996 120.3 49.2038 119.95 49.3292 119.49L52.1517 109.13C52.2772 108.669 52.193 108.214 51.8972 107.762C51.6045 107.311 51.197 107.014 50.6797 106.873Z" fill="#FFB800"/>
<path d="M75.9438 74.4349C75.2825 71.6284 74.1295 69.0989 72.4838 66.8421C70.8393 64.5865 68.8411 62.5985 66.4932 60.8815C64.1447 59.1647 61.6762 57.953 59.0863 57.2475C49.2475 54.5673 40.5658 56.8265 33.041 64.0253C32.6677 64.3754 32.455 64.804 32.4035 65.3117C32.3526 65.8188 32.4932 66.2919 32.8257 66.7301L39.1345 74.9683C39.4848 75.3414 39.8543 75.581 40.2428 75.6869C40.8256 75.8456 41.3975 75.7229 41.9598 75.3198C45.0834 73.042 47.3224 71.6528 48.6757 71.1518C50.3233 70.5926 52.1984 70.5996 54.3022 71.1728C56.2765 71.7106 57.8746 72.7023 59.0983 74.1474C60.3209 75.5933 60.7464 76.9957 60.3761 78.3551C59.9618 79.8757 59.2227 80.9961 58.1575 81.7143C57.0929 82.4322 55.4862 82.9676 53.338 83.3215C50.5056 83.7666 47.7119 84.892 44.9609 86.6981C42.2083 88.504 40.4669 90.7503 39.735 93.4365L39.1398 95.6211C38.972 96.2367 38.9758 96.8893 39.1531 97.5807C39.3299 98.2726 39.6608 98.6841 40.1467 98.8164L51.7986 101.991C52.3165 102.132 52.8374 102.005 53.3633 101.607C53.8871 101.213 54.2255 100.74 54.3752 100.19C54.5956 99.3812 55.3364 98.4171 56.5959 97.3006C57.8565 96.1838 59.2516 95.4328 60.7825 95.0499C62.2381 94.6818 63.3807 94.3767 64.2127 94.1334C65.0451 93.8914 66.1672 93.4392 67.5809 92.782C68.9944 92.1237 70.147 91.4032 71.0374 90.6204C71.9289 89.8378 72.8331 88.7539 73.7493 87.369C74.6664 85.9848 75.362 84.4184 75.8382 82.6708C76.5698 79.9843 76.6045 77.2386 75.9438 74.4349Z" fill="#FFB800"/>
<path d="M381.756 100.898L375.014 99.061C374.715 98.9794 374.425 99.0085 374.146 99.1467C373.867 99.2854 373.691 99.4876 373.618 99.7541L371.985 105.748C371.913 106.015 371.962 106.278 372.132 106.539C372.302 106.8 372.537 106.971 372.837 107.053L379.578 108.89C379.878 108.971 380.168 108.943 380.446 108.804C380.726 108.666 380.902 108.463 380.974 108.197L382.607 102.203C382.68 101.937 382.631 101.673 382.46 101.412C382.291 101.151 382.055 100.979 381.756 100.898Z" fill="#FCCF5B"/>
<path d="M396.373 82.1298C395.99 80.5061 395.323 79.0426 394.371 77.7369C393.419 76.4318 392.263 75.2816 390.905 74.2883C389.546 73.295 388.118 72.5939 386.62 72.1857C380.927 70.635 375.904 71.9421 371.55 76.1071C371.335 76.3097 371.211 76.5577 371.182 76.8514C371.152 77.1448 371.234 77.4185 371.426 77.672L375.076 82.4384C375.279 82.6543 375.492 82.7929 375.717 82.8542C376.054 82.946 376.385 82.875 376.711 82.6418C378.518 81.3239 379.813 80.5202 380.596 80.2303C381.55 79.9068 382.634 79.9109 383.852 80.2425C384.994 80.5536 385.918 81.1274 386.626 81.9635C387.334 82.8 387.58 83.6115 387.366 84.3979C387.126 85.2777 386.698 85.9259 386.082 86.3414C385.466 86.7568 384.537 87.0666 383.294 87.2713C381.655 87.5289 380.039 88.18 378.447 89.225C376.854 90.2698 375.847 91.5694 375.423 93.1236L375.079 94.3875C374.982 94.7437 374.984 95.1212 375.087 95.5213C375.189 95.9216 375.381 96.1597 375.662 96.2362L382.403 98.0727C382.703 98.1544 383.004 98.0809 383.308 97.8509C383.611 97.6226 383.807 97.3489 383.894 97.031C384.021 96.563 384.45 96.0052 385.179 95.3593C385.908 94.7131 386.715 94.2786 387.601 94.057C388.443 93.8441 389.104 93.6676 389.586 93.5268C390.067 93.3868 390.716 93.1251 391.534 92.7449C392.352 92.364 393.019 91.9472 393.534 91.4943C394.05 91.0415 394.573 90.4144 395.103 89.6131C395.634 88.8123 396.036 87.906 396.312 86.8949C396.735 85.3405 396.755 83.752 396.373 82.1298Z" fill="#FCCF5B"/>
<path d="M98.8882 34.6236L105.9 32.7134C106.211 32.6286 106.512 32.6588 106.803 32.8025C107.093 32.9468 107.276 33.1571 107.351 33.4343L109.05 39.6685C109.125 39.9456 109.074 40.22 108.897 40.4913C108.72 40.7623 108.476 40.9409 108.164 41.0257L101.153 42.936C100.842 43.0208 100.54 42.9912 100.25 42.847C99.9594 42.7033 99.7764 42.4926 99.7009 42.2155L98.0025 35.9813C97.927 35.7042 97.9777 35.4302 98.1556 35.1583C98.3318 34.8869 98.577 34.7084 98.8882 34.6236Z" fill="#FCCF5B"/>
<path d="M83.6849 15.1038C84.0828 13.415 84.7766 11.8929 85.7669 10.5349C86.7565 9.17751 87.9589 7.98124 89.3718 6.94804C90.785 5.91497 92.2704 5.18582 93.8289 4.76127C99.7495 3.14842 104.974 4.5079 109.502 8.83981C109.726 9.05047 109.854 9.30843 109.885 9.61392C109.916 9.91908 109.831 10.2037 109.631 10.4674L105.835 15.4248C105.624 15.6493 105.402 15.7935 105.168 15.8572C104.817 15.9527 104.473 15.8789 104.135 15.6363C102.255 14.2656 100.908 13.4297 100.094 13.1282C99.1021 12.7917 97.9737 12.796 96.7077 13.1408C95.5197 13.4645 94.558 14.0613 93.8217 14.9308C93.086 15.8009 92.8299 16.6448 93.0528 17.4628C93.3021 18.3778 93.7469 19.0521 94.3878 19.4842C95.0284 19.9163 95.9953 20.2384 97.2879 20.4514C98.9924 20.7192 100.673 21.3964 102.329 22.4833C103.985 23.57 105.033 24.9217 105.474 26.5381L105.832 27.8527C105.933 28.2231 105.93 28.6158 105.824 29.0319C105.717 29.4483 105.518 29.6959 105.226 29.7755L98.2143 31.6856C97.9026 31.7705 97.5892 31.6941 97.2727 31.4549C96.9575 31.2174 96.7539 30.9328 96.6638 30.6021C96.5312 30.1154 96.0854 29.5352 95.3275 28.8634C94.569 28.1913 93.7295 27.7394 92.8082 27.509C91.9323 27.2875 91.2448 27.1039 90.7441 26.9575C90.2432 26.8119 89.568 26.5397 88.7172 26.1443C87.8667 25.7481 87.1731 25.3146 86.6373 24.8435C86.1008 24.3726 85.5567 23.7203 85.0054 22.887C84.4535 22.0541 84.0349 21.1114 83.7484 20.0598C83.3082 18.4432 83.2872 16.791 83.6849 15.1038Z" fill="#FCCF5B"/>
<path fill-rule="evenodd" clip-rule="evenodd" d="M111.896 234.873C111.932 234.095 111.885 233.303 111.75 232.508C110.661 226.121 104.231 221.889 97.3875 223.055C91.4948 224.059 87.2172 228.739 86.8373 234.098C84.1446 232.019 80.511 231.031 76.7528 231.672C69.9094 232.838 65.2442 238.962 66.3328 245.349C66.3839 245.649 66.4469 245.944 66.5211 246.234C63.7934 243.105 59.3661 241.436 54.7509 242.223C47.9074 243.389 43.2422 249.512 44.3308 255.9C44.8774 259.107 46.7709 261.771 49.3873 263.481L123.889 357.78L123.983 357.747C127.836 363.259 134.943 366.351 142.378 365.084C152.09 363.428 158.811 354.94 157.815 345.857L157.844 345.847L157.803 345.748C157.769 345.459 157.728 345.17 157.679 344.88C157.202 342.083 156.037 339.565 154.371 337.451L111.936 234.857L111.896 234.873ZM69.0993 251.597C69.0508 251.324 68.9925 251.055 68.9248 250.79C69.1171 251.011 69.3179 251.225 69.5266 251.43L69.0993 251.597Z" fill="#055131"/>
<path fill-rule="evenodd" clip-rule="evenodd" d="M310.053 234.872C310.017 234.094 310.063 233.303 310.199 232.508C311.287 226.121 317.717 221.889 324.561 223.055C330.453 224.059 334.73 228.738 335.111 234.097C337.803 232.019 341.436 231.032 345.194 231.672C352.037 232.838 356.702 238.962 355.614 245.349C355.563 245.65 355.499 245.946 355.425 246.237C358.152 243.106 362.581 241.436 367.197 242.223C374.041 243.389 378.706 249.512 377.617 255.9C377.071 259.106 375.179 261.769 372.564 263.479L298.061 357.78L297.965 357.746C294.113 363.259 287.006 366.351 279.57 365.084C269.858 363.428 263.137 354.94 264.133 345.857L264.106 345.847L264.145 345.753C264.178 345.463 264.22 345.172 264.27 344.88C264.747 342.082 265.913 339.562 267.58 337.446L310.014 234.857L310.053 234.872ZM352.849 251.597C352.898 251.323 352.956 251.053 353.024 250.788C352.831 251.009 352.63 251.223 352.421 251.429L352.849 251.597Z" fill="#055131"/>
</svg>
