<svg width="40" height="41" viewBox="0 0 40 41" fill="none" xmlns="http://www.w3.org/2000/svg">
<path opacity="0.25" d="M41.542 25.8868C39.406 23.0267 37.0005 20.4562 34.3812 18.2214C33.7453 17.679 33.096 17.1589 32.4361 16.658C34.3843 13.7259 37.366 12.0592 39.5749 9.43761C40.2236 8.66765 40.8034 7.8124 41.2577 6.86705C41.3766 6.62021 41.2725 6.27607 41.029 6.20519C38.7884 5.55535 36.4804 5.99258 34.2398 6.40519C31.9308 6.83042 29.6305 7.32111 27.3348 7.83522C26.5141 8.019 25.6944 8.20579 24.8747 8.39378C26.9897 5.69769 28.1738 3.63704 29.8433 1.17278C30.0209 0.910321 29.482 0.509121 29.2191 0.61843C25.5851 2.13614 21.942 3.62142 18.2886 5.07307C17.4832 5.39319 16.6768 5.7109 15.8704 6.02742L17.5103 -0.0206062C17.6159 -0.409794 17.2296 -0.708291 16.9478 -0.529313C14.7225 0.886297 12.5386 2.38959 10.398 3.97577L10.6113 0.974585C10.6384 0.594406 10.1683 0.367981 9.95804 0.656268C8.35541 2.84965 6.81608 5.1061 5.3385 7.4184C5.16854 7.68447 5.39668 8.12351 5.66923 8.09648C6.29038 8.03402 6.90489 7.92351 7.51021 7.76195C6.61601 8.98837 5.87084 10.3619 5.30686 11.8382C5.15017 12.2478 5.4712 12.6646 5.83052 12.4544C7.57299 11.437 9.29249 10.3667 10.9885 9.24723C10.6971 10.0484 10.4056 10.8502 10.1147 11.6514C9.98662 12.0034 10.1969 12.4124 10.547 12.3133C12.5248 11.7535 14.5179 11.2742 16.5232 10.8748C15.3156 11.8911 14.1989 13.0544 13.1985 14.3469C12.9311 14.6928 13.198 15.1811 13.5711 15.1001C17.004 14.3511 20.4654 13.798 23.9432 13.4412C23.1179 14.4172 22.0517 15.0904 21.0156 15.7127C19.6702 16.5205 18.2891 17.2886 17.1683 18.5066C16.9759 18.7163 17.0519 19.0574 17.2459 19.2142C19.2027 20.7943 21.3433 22.0472 23.59 22.9397C20.6629 23.8219 17.6374 24.1355 14.6312 24.4382C14.3045 24.4712 14.1218 24.9084 14.3607 25.2069C16.7687 28.2177 19.1558 31.2519 21.523 34.3072C18.3233 33.9727 15.1553 33.2898 12.0608 32.2706C11.7148 32.1564 11.4948 32.5907 11.6285 32.9324C12.0425 33.9901 12.3972 35.0772 12.6973 36.1865C11.2468 35.6195 9.79624 35.0525 8.34572 34.4856C7.9568 34.3336 7.7409 34.9228 7.97313 35.2387C8.54783 36.0195 9.06996 36.8489 9.5339 37.7252C9.75847 38.1492 9.96978 38.5822 10.1668 39.0249C10.348 39.4315 10.4919 39.8759 10.7343 40.2393C10.8267 40.3774 10.9298 40.4867 11.0436 40.5708H33.3701C33.6906 40.554 34.0112 40.5378 34.3317 40.5198C34.5318 40.5084 34.7237 40.3222 34.7145 40.0693C34.6272 37.6862 32.9654 36.1108 32.2462 34.0273C34.788 34.5582 37.3297 35.0892 39.8715 35.6201C40.1905 35.6868 40.4799 35.3216 40.3038 34.9582C39.0977 32.4682 37.8917 29.9787 36.6851 27.4886C38.2474 27.2057 39.8097 26.9228 41.372 26.6393C41.6793 26.5835 41.7099 26.1126 41.541 25.8862L41.542 25.8868Z" fill="#76CCC6"/>
<path d="M29.7007 30.236C29.6821 30.0678 29.5127 29.9669 29.3638 29.9441C29.2454 29.9255 29.1217 29.8967 28.9968 29.8606C28.7926 28.3531 28.1734 25.6997 27.8719 24.209C27.2629 21.1976 26.8244 19.1676 26.0346 17.9099C25.6418 17.2847 24.4635 16.3393 22.604 15.2973C21.7326 14.809 20.2965 14.0294 18.9524 13.3057C19.0449 13.2949 19.135 13.2829 19.219 13.2667C20.2016 13.0787 21.2287 12.7255 21.8737 11.9364C22.5295 11.134 22.7241 10.2385 22.7398 9.23367C22.7578 8.08412 22.7782 6.70695 22.7344 5.55801C22.6983 4.60365 22.5662 3.36762 21.413 3.50396C21.1476 3.20246 20.3073 3.06672 19.959 3.33639C19.5812 3.19165 19.1518 3.31297 18.7854 3.60606C18.4239 3.89495 18.1908 4.58504 18.2118 5.03308C17.9284 5.22828 17.8209 5.60665 17.8989 5.952C17.9896 6.3538 18.2851 6.64088 18.6353 6.82647C18.6419 7.69313 18.7368 8.57781 18.6377 9.2631C18.6172 9.40424 18.5476 9.63066 18.3572 9.68171C18.1127 9.74718 17.6653 9.75258 17.2533 9.73457C16.8413 9.71655 15.195 9.42526 14.38 9.1622C13.9722 9.03066 12.2107 8.60004 11.0509 8.62466C10.9915 8.62586 10.929 8.63127 10.8653 8.63968C8.99446 8.78983 7.01729 9.12075 5.43712 9.61505C3.35484 10.2667 1.75064 11.964 0.227526 13.4955C-0.476976 14.2036 -0.961058 15.0451 -0.997695 16.0643C-1.03493 17.0997 -0.562861 17.9477 0.0323315 18.7574C0.712809 19.6835 1.37227 20.6426 2.10139 21.5309C2.7074 22.2691 3.55184 22.7321 4.50919 22.4006C5.34522 22.1111 6.19327 21.3405 6.41489 20.4637C6.5284 20.015 6.41309 19.5051 6.1248 19.161C6.23231 18.8336 6.08937 18.4679 5.8185 18.2402C5.50318 17.9754 5.09417 17.9255 4.70318 17.9892C4.17406 17.3033 3.56325 16.6553 3.22751 16.0499C3.15845 15.9249 3.26175 15.7207 3.38607 15.5676C3.93322 14.8919 4.55063 14.2373 5.10138 13.8985C5.3164 13.7664 5.53982 13.6523 5.76925 13.5562C6.56324 14.949 7.18966 16.4306 7.70317 17.9532C8.31398 19.7622 8.78185 21.6168 9.22569 23.4727C9.70437 25.475 9.8371 25.9898 10.1398 28.027C10.4479 30.1021 10.5993 32.1963 10.5464 34.2948C10.4936 36.3765 10.3903 38.087 10.29 40.1669C10.2827 40.3146 10.3044 40.5543 10.3872 40.6275C10.4299 40.711 10.5848 40.7903 10.7122 40.7903H13.1524C13.723 40.7903 15.0935 40.8041 15.8845 40.69C16.4659 40.6059 16.326 39.9351 15.6287 39.8606C15.6263 39.8606 15.6245 39.8612 15.6221 39.8618C15.5818 38.8209 15.5962 33.8558 15.5818 32.3489C15.514 25.1153 14.5596 21.5039 12.3008 15.9604C12.571 15.8318 12.8377 15.6961 13.1008 15.5526C14.4383 16.3538 15.7692 17.1664 17.0929 17.991C18.3362 18.7658 20.3446 20.0528 20.8022 20.3483C21.2599 20.6438 21.5151 21.1658 21.7205 21.6679C21.8581 22.0048 23.1277 28.2384 23.7361 31.5429C23.753 31.6348 23.795 31.7015 23.8497 31.7477C23.9241 31.8486 24.0443 31.9165 24.2016 31.8942C25.8695 31.657 27.3872 31.4024 28.9986 30.8954C29.0935 30.8654 29.5073 30.6985 29.5596 30.6528C29.6863 30.5405 29.7187 30.4 29.7007 30.236Z" fill="#707478"/>
<path d="M6.73262 6.10059C6.76205 6.42912 6.9188 6.69758 7.14703 7.06575C7.37466 7.43392 7.81369 7.68377 8.54402 7.55764C9.46654 7.39848 9.68516 6.48797 9.70197 5.67657C9.85392 5.65494 10.0059 5.63272 10.1578 5.6105C10.2557 5.59609 10.3188 5.51501 10.2876 5.42792C10.0425 4.74444 9.67555 4.11021 9.19807 3.54204C9.10978 3.41531 9.00888 3.2994 8.89117 3.2003C8.14762 2.57387 7.25273 3.06036 6.92481 3.85855C6.82811 4.09339 6.75544 4.36426 6.70979 4.65074C6.5188 4.65014 6.317 4.63032 6.13382 4.7042C5.77947 4.84714 5.58667 5.26395 5.69118 5.63272C5.82271 6.09698 6.28757 6.14443 6.73322 6.09999L6.73262 6.10059Z" fill="#707478"/>
<path fill-rule="evenodd" clip-rule="evenodd" d="M20.0243 3.44088C20.0593 3.4763 20.0589 3.53335 20.0235 3.56829C19.9463 3.64444 19.8328 3.82459 19.7396 4.02334C19.6937 4.12108 19.6545 4.21978 19.628 4.30783C19.6088 4.37136 19.5976 4.42528 19.5938 4.46746C19.6104 4.47247 19.6268 4.47818 19.6432 4.48463L19.6433 4.48468C19.8232 4.55606 19.9856 4.74352 19.9627 4.96044C19.9465 5.11455 19.8428 5.23486 19.7539 5.32129L19.7538 5.32139C19.6975 5.37597 19.5715 5.46298 19.4534 5.54072C19.439 5.55024 19.4245 5.55972 19.4101 5.56909C19.4815 5.57557 19.5541 5.58621 19.6251 5.60161C19.805 5.64063 19.9871 5.71301 20.1065 5.83842C20.1409 5.87455 20.178 5.91224 20.2162 5.95091C20.4989 5.94658 20.7345 5.77491 20.7846 5.45972C20.6548 5.143 20.6649 4.78061 20.7638 4.44434C20.8653 4.09932 21.0625 3.77366 21.3126 3.54038C21.3489 3.50644 21.4059 3.50842 21.4399 3.5448C21.4738 3.58118 21.4718 3.63818 21.4355 3.67213C21.2104 3.88209 21.0296 4.17925 20.9366 4.49519C20.8436 4.81132 20.8408 5.13813 20.9599 5.41158C20.9833 5.46527 21.0265 5.53512 21.0781 5.60307C21.1297 5.67106 21.1852 5.73128 21.2306 5.768L21.2308 5.76811C21.3625 5.87501 21.6075 5.88477 21.7928 5.67821C21.879 5.58216 21.9084 5.44704 21.9113 5.30601C21.9127 5.23665 21.9076 5.16914 21.9014 5.10885C21.8993 5.08857 21.8969 5.0679 21.8946 5.04797C21.8905 5.01253 21.8867 4.97944 21.8853 4.95508C21.8824 4.90541 21.9203 4.86278 21.9699 4.85986C22.0196 4.85694 22.0622 4.89483 22.0651 4.9445C22.0663 4.96441 22.0691 4.98841 22.0726 5.01882C22.075 5.03948 22.0778 5.06309 22.0806 5.09038C22.0871 5.1539 22.093 5.22968 22.0914 5.30964C22.0882 5.46726 22.0558 5.65496 21.927 5.79854C21.6823 6.07126 21.329 6.07983 21.1173 5.90804C21.0564 5.85888 20.991 5.78642 20.9345 5.71197C20.9261 5.70091 20.9178 5.68967 20.9097 5.67832C20.8115 5.91619 20.6114 6.06613 20.3752 6.11427C20.3914 6.13141 20.4073 6.14859 20.4229 6.16575C20.5276 6.2812 20.6273 6.40726 20.6984 6.54906C20.7207 6.59354 20.7027 6.64768 20.6582 6.66997C20.6137 6.69226 20.5596 6.67427 20.5373 6.62979C20.4768 6.50913 20.3895 6.39706 20.2894 6.28683C20.228 6.21918 20.1658 6.15622 20.1029 6.09264C20.0609 6.05012 20.0186 6.00732 19.976 5.96266C19.893 5.87546 19.7524 5.8136 19.5869 5.7777C19.4236 5.74227 19.2487 5.73485 19.1107 5.74647C19.0692 5.74997 19.0306 5.72449 19.0176 5.68489C19.0045 5.64528 19.0204 5.6019 19.0559 5.58001C19.1135 5.54447 19.2352 5.46873 19.3543 5.39024C19.4768 5.30959 19.5868 5.23234 19.6284 5.19202C19.7137 5.10912 19.7745 5.02767 19.7835 4.94159L19.7835 4.94155C19.7955 4.82814 19.7057 4.70328 19.5768 4.65215C19.4476 4.60112 19.2955 4.61192 19.1406 4.64936C18.8663 4.71593 18.6101 4.84744 18.3515 4.99022C18.308 5.01427 18.2531 4.99846 18.2291 4.9549C18.205 4.91135 18.2209 4.85654 18.2644 4.83249C18.5235 4.68939 18.7982 4.54703 19.0981 4.47426L19.0982 4.47424C19.1973 4.4503 19.3061 4.43338 19.4157 4.43814C19.4221 4.3805 19.4367 4.31816 19.4554 4.25588C19.4851 4.15736 19.5279 4.05029 19.5765 3.94683C19.672 3.74318 19.7964 3.53924 19.8969 3.44002C19.9324 3.40508 19.9894 3.40546 20.0243 3.44088ZM14.6988 10.361C14.746 10.3453 14.797 10.3709 14.8127 10.4181C14.8191 10.4375 14.8482 10.4808 14.9187 10.5502C14.9853 10.6159 15.0787 10.6952 15.1962 10.7865C15.431 10.9688 15.7556 11.1937 16.1403 11.445C16.9092 11.9474 17.9123 12.5518 18.9027 13.1259C18.9457 13.1508 18.9604 13.206 18.9354 13.249C18.9105 13.292 18.8554 13.3067 18.8123 13.2818C17.8207 12.7069 16.8145 12.1008 16.0417 11.5958C15.6555 11.3435 15.3262 11.1155 15.0857 10.9288C14.9656 10.8355 14.8661 10.7513 14.7922 10.6786C14.7221 10.6095 14.6632 10.5395 14.6417 10.4749C14.626 10.4276 14.6516 10.3767 14.6988 10.361ZM5.28461 19.0947C5.17851 19.1192 5.08738 19.1546 5.02325 19.1909C4.97995 19.2154 4.92498 19.2002 4.90048 19.1569C4.87597 19.1136 4.8912 19.0586 4.9345 19.0341C5.04878 18.9694 5.21673 18.9137 5.40121 18.8918C5.5861 18.8698 5.79456 18.881 5.98739 18.9573C6.03366 18.9756 6.05633 19.0279 6.03803 19.0742C6.01972 19.1204 5.96738 19.1431 5.92111 19.1248C5.79061 19.0732 5.64719 19.0567 5.50883 19.0635C5.61768 19.1832 5.70567 19.3217 5.76731 19.4716L5.76733 19.4717C5.78497 19.5147 5.80647 19.5544 5.83041 19.5985C5.83985 19.616 5.84968 19.6341 5.8598 19.6534C5.89359 19.7179 5.92822 19.7918 5.94272 19.8755C5.95121 19.9245 5.91835 19.9712 5.86932 19.9796C5.8203 19.9881 5.77367 19.9553 5.76518 19.9062C5.75566 19.8512 5.73203 19.7978 5.7002 19.737C5.69273 19.7228 5.68456 19.7077 5.67607 19.692C5.65065 19.6452 5.62228 19.5928 5.60066 19.5401C5.53079 19.3702 5.42184 19.2168 5.28461 19.0947ZM4.60814 20.8514C4.64222 20.8151 4.69923 20.8134 4.73548 20.8475C4.98927 21.0861 5.33898 21.2214 5.68793 21.2158C5.73768 21.215 5.77866 21.2547 5.77947 21.3044C5.78027 21.3542 5.74059 21.3952 5.69084 21.396C5.29505 21.4023 4.90002 21.2494 4.61207 20.9787C4.57582 20.9447 4.57406 20.8876 4.60814 20.8514ZM3.67828 21.7372C3.71939 21.7091 3.77544 21.7197 3.80347 21.7608C3.85042 21.8297 3.93276 21.8723 4.03805 21.9216L4.0383 21.9217C4.2179 22.0063 4.38548 22.0832 4.56199 22.0984C4.61156 22.1027 4.64828 22.1463 4.64401 22.1959C4.63974 22.2455 4.5961 22.2822 4.54652 22.2779C4.33273 22.2595 4.13642 22.1671 3.96171 22.0848L3.96175 22.0848L3.9999 22.0032L3.9615 22.0847" fill="white"/>
<path d="M26.1676 34.8089V34.5266C26.1676 34.5266 28.4076 34.7741 29.5532 34.5266V34.8434C29.5532 34.8434 28.1661 35.3005 26.1676 34.8089Z" fill="#CF005D"/>
<path d="M26.1671 39.8894C26.1671 40.0753 26.2752 40.2369 26.4284 40.2801C26.9355 40.4231 28.1076 40.6654 29.3002 40.2867C29.4491 40.2394 29.5532 40.0804 29.5532 39.8984V39.8894H26.1671Z" fill="#FFDE8A"/>
<path d="M29.7053 35.0196V39.6586C29.7053 39.7643 29.648 39.8586 29.5627 39.8918C29.1287 40.061 27.7563 40.4884 26.1575 39.8882C26.0711 39.8559 26.0127 39.7611 26.0127 39.6543V35.0185C26.0127 34.8653 26.1303 34.7495 26.2581 34.777C26.7787 34.8889 28.0606 35.093 29.4586 34.7784C29.5803 34.7509 29.6936 34.8547 29.7045 34.9971C29.705 35.0047 29.7053 35.012 29.7053 35.0196Z" fill="#FFB800"/>
<path d="M27.8604 34.7811C28.7953 34.7811 29.5532 34.6522 29.5532 34.4931C29.5532 34.334 28.7953 34.2051 27.8604 34.2051C26.9255 34.2051 26.1676 34.334 26.1676 34.4931C26.1676 34.6522 26.9255 34.7811 27.8604 34.7811Z" fill="#FFE9B0"/>
<path d="M26.8689 34.5293C26.7811 34.4929 26.8148 34.4184 26.9237 34.4059C27.0563 34.3907 27.2786 34.3758 27.4299 34.4214C27.6579 34.4902 27.0368 34.5967 26.8756 34.532C26.8732 34.5312 26.871 34.5301 26.8689 34.5293Z" fill="#B58300"/>
<path d="M29.7053 35.718V39.1335C28.679 39.3332 27.6375 39.1775 27.6375 39.1775V35.8237C28.0573 35.915 29.1238 35.7479 29.7053 35.718Z" fill="#FFE9B0"/>
<path fill-rule="evenodd" clip-rule="evenodd" d="M29.6618 34.6177C29.6793 34.6763 29.646 34.7379 29.5875 34.7554C28.2541 35.1546 26.7495 34.9295 26.1606 34.7672C26.1017 34.751 26.0671 34.6901 26.0834 34.6312C26.0996 34.5723 26.1605 34.5377 26.2194 34.5539C26.7857 34.71 28.2449 34.9264 29.5241 34.5435C29.5826 34.526 29.6442 34.5592 29.6618 34.6177ZM29.6618 39.8577C29.6793 39.9162 29.646 39.9779 29.5875 39.9954C28.2541 40.3945 26.7495 40.1695 26.1606 40.0072C26.1017 39.9909 26.0671 39.93 26.0834 39.8711C26.0996 39.8122 26.1605 39.7776 26.2194 39.7939C26.7857 39.95 28.2449 40.1663 29.5241 39.7834C29.5826 39.7659 29.6442 39.7992 29.6618 39.8577Z" fill="#B58300"/>
</svg>
