<svg width="339" height="331" viewBox="0 0 339 331" fill="none" xmlns="http://www.w3.org/2000/svg">
<ellipse cx="167.516" cy="283.5" rx="143" ry="22" fill="#D0F7F1"/>
<path d="M178.067 174.629C151.417 112.457 219.02 86.4826 242.281 75.4584C265.543 64.4343 272.543 14.5332 272.543 14.5332C272.543 14.5332 299.602 22.0537 293.411 50.3183L300.641 42.541C300.641 42.541 315.55 56.8203 305.101 80.4275L313.112 75.5758C313.112 75.5758 325.595 92.0919 310.508 111.913L319.692 109.332C319.692 109.332 325.495 131.905 305.303 147.113L312.791 148.638C312.791 148.638 303.844 176.832 277.363 180.713L280.268 183.743C280.268 183.743 266.44 207.524 230.667 199.383L178.067 174.629Z" fill="#69DFD3"/>
<path d="M166.209 174.101C185.679 109.319 115.577 91.1373 91.22 82.8066C66.8629 74.476 54.2803 25.6827 54.2803 25.6827C54.2803 25.6827 28.2408 36.2091 37.5789 63.5924L29.5213 56.6798C29.5213 56.6798 16.3158 72.5472 29.3613 94.8293L20.8529 90.9097C20.8529 90.9097 10.3144 108.731 27.541 126.724L18.1235 125.194C18.1235 125.194 14.9038 148.279 36.6822 161.113L29.4134 163.475C29.4134 163.475 41.482 190.477 68.2337 191.347L65.6874 194.685C65.6874 194.685 82.1109 216.753 116.735 204.63L166.209 174.101Z" fill="#A0EFE4"/>
<path d="M195.759 60.728L193.705 60.6973L193.884 60.7L193.715 60.6272L193.705 60.6973L193.884 60.7L193.715 60.6272C193.717 60.6317 193.636 60.8096 193.369 61.0594C192.915 61.5082 191.943 62.1145 190.6 62.6497C186.548 64.3001 179.3 65.4291 171.161 65.2961C164.539 65.1993 158.553 64.3099 154.377 63.0124C152.296 62.3717 150.664 61.6108 149.718 60.9258C149.242 60.5878 148.951 60.273 148.834 60.0967L148.757 59.955L148.585 60.0228L148.764 60.0254L148.757 59.955L148.585 60.0228L148.754 60.0978L148.764 60.0254L148.585 60.0228L148.754 60.0978C148.752 60.0909 148.833 59.9177 149.1 59.6656C149.554 59.2169 150.526 58.6104 151.869 58.0753C155.921 56.4249 163.169 55.2959 171.308 55.4289C177.928 55.5256 183.916 56.4151 188.092 57.7127C190.173 58.3534 191.805 59.1143 192.751 59.7992C193.227 60.1372 193.518 60.4521 193.635 60.6283L193.712 60.7699L193.884 60.7L193.705 60.6973L193.712 60.7699L193.884 60.7L193.705 60.6973L195.759 60.728L197.812 60.7587C197.832 59.6735 197.451 58.6729 196.93 57.9127C196.006 56.5777 194.71 55.6949 193.119 54.8802C190.728 53.6842 187.587 52.7511 183.878 52.0656C180.175 51.3825 175.918 50.9653 171.376 50.8974C164.452 50.7985 158.178 51.5137 153.474 52.8145C151.117 53.475 149.156 54.2614 147.615 55.2877C146.845 55.8087 146.171 56.3924 145.623 57.1457C145.08 57.89 144.669 58.8787 144.657 59.964C144.637 61.0515 145.018 62.052 145.539 62.8122C146.464 64.1472 147.759 65.0301 149.35 65.8448C151.741 67.0409 154.882 67.974 158.591 68.6594C162.294 69.3425 166.551 69.7596 171.093 69.8275C178.017 69.9288 184.291 69.2113 188.995 67.9106C191.352 67.2501 193.313 66.4658 194.854 65.4373C195.624 64.9162 196.298 64.3325 196.846 63.5793C197.389 62.835 197.8 61.8463 197.812 60.7587L195.759 60.728Z" fill="#FBD846"/>
<path d="M281.983 230.003C293.425 212.183 282.074 188.557 261.013 186.352C249.732 185.171 238.828 190.806 233.266 200.691L198.518 262.446C193.278 271.759 200.008 283.267 210.693 283.267L247.784 283.267L281.983 230.003Z" fill="#055131"/>
<path d="M280.588 255.613C279.295 252.485 275.71 250.998 272.583 252.292L243.36 264.379L248.044 275.705L277.267 263.619C280.395 262.325 281.882 258.741 280.588 255.613Z" fill="#055131"/>
<path d="M283.607 266.118C282.966 262.794 279.751 260.62 276.428 261.262L245.377 267.258L247.702 279.293L278.752 273.297C282.075 272.655 284.249 269.441 283.607 266.118Z" fill="#055131"/>
<path d="M283.762 277.114C283.763 273.729 281.02 270.985 277.635 270.984L246.011 270.976L246.008 283.233L277.632 283.241C281.017 283.242 283.761 280.499 283.762 277.114Z" fill="#055131"/>
<path d="M51.0403 230.003C39.5988 212.183 50.949 188.557 72.0105 186.352C83.2913 185.171 94.1953 190.806 99.7574 200.691L134.505 262.446C139.745 271.759 133.016 283.267 122.33 283.267L85.2393 283.267L51.0403 230.003Z" fill="#055131"/>
<path d="M52.433 255.613C53.7267 252.485 57.311 250.998 60.4388 252.292L89.662 264.379L84.9772 275.705L55.7541 263.619C52.6263 262.325 51.1394 258.741 52.433 255.613Z" fill="#055131"/>
<path d="M49.4161 266.118C50.0578 262.794 53.2723 260.62 56.5956 261.262L87.646 267.258L85.3218 279.293L54.2715 273.297C50.9481 272.655 48.7743 269.441 49.4161 266.118Z" fill="#055131"/>
<path d="M49.2613 277.114C49.2605 273.729 52.0037 270.985 55.3885 270.984L87.0125 270.976L87.0156 283.233L55.3916 283.241C52.0068 283.242 49.2622 280.499 49.2613 277.114Z" fill="#055131"/>
<path d="M80.916 154.229C80.916 150.671 80.916 148.892 81.0189 147.39C82.5214 125.457 99.9807 107.997 121.914 106.495C123.416 106.392 125.195 106.392 128.754 106.392H207.47C211.029 106.392 212.808 106.392 214.31 106.495C236.243 107.997 253.703 125.457 255.205 147.39C255.308 148.892 255.308 150.671 255.308 154.229V193.588C255.308 241.745 216.269 280.784 168.112 280.784C119.955 280.784 80.916 241.745 80.916 193.588V154.229Z" fill="#00753F"/>
<path d="M103.113 192.711C103.113 169.319 122.076 150.356 145.469 150.356H189.918C213.31 150.356 232.274 169.319 232.274 192.711V216.371C232.274 252.038 203.36 280.952 167.693 280.952C132.027 280.952 103.113 252.038 103.113 216.371V192.711Z" fill="#3DA94E"/>
<rect x="106.295" y="82.8757" width="51.2233" height="51.2233" rx="25.6116" fill="#00753F"/>
<rect x="111.883" y="88.4639" width="40.0473" height="40.0473" rx="20.0237" fill="white"/>
<rect x="181.266" y="82.8757" width="51.2233" height="51.2233" rx="25.6116" fill="#00753F"/>
<rect x="186.854" y="88.4639" width="40.0473" height="40.0473" rx="20.0237" fill="white"/>
<circle cx="132.023" cy="106.275" r="8.96408" fill="black"/>
<circle cx="206.761" cy="106.275" r="8.96408" fill="black"/>
<rect x="157.08" y="126.37" width="9.08049" height="5.588" rx="2.794" transform="rotate(-10.6318 157.08 126.37)" fill="#213027"/>
<rect width="9.08049" height="5.588" rx="2.794" transform="matrix(-0.982833 -0.184498 -0.184498 0.982833 182.375 126.37)" fill="#213027"/>
<path d="M134.039 77.017C135.051 76.005 135.06 74.346 133.91 73.4948C132.022 72.0982 129.865 71.0912 127.563 70.5439C124.418 69.7958 121.126 69.9357 118.056 70.948C114.985 71.9602 112.256 73.8051 110.172 76.277C108.647 78.0858 107.512 80.1783 106.825 82.4236C106.406 83.792 107.4 85.1202 108.815 85.3319C110.231 85.5437 111.525 84.5515 112.028 83.2119C112.518 81.9084 113.229 80.6917 114.134 79.6174C115.6 77.8791 117.519 76.5817 119.678 75.8699C121.838 75.158 124.152 75.0597 126.364 75.5857C127.731 75.9108 129.026 76.4665 130.195 77.2231C131.396 78.0007 133.027 78.0289 134.039 77.017Z" fill="#213027"/>
<path d="M227.386 83.1522C228.721 82.6387 229.404 81.1266 228.699 79.8814C227.916 78.4997 226.947 77.2277 225.815 76.1026C224.068 74.3668 221.974 73.02 219.67 72.1506C217.367 71.2811 214.905 70.9088 212.447 71.0579C210.854 71.1545 209.286 71.4689 207.785 71.9889C206.433 72.4576 205.947 74.0437 206.61 75.3118C207.274 76.5798 208.838 77.0398 210.217 76.6566C211.045 76.4264 211.898 76.2832 212.761 76.2308C214.489 76.1259 216.22 76.3878 217.841 76.9992C219.461 77.6106 220.933 78.5577 222.161 79.7784C222.775 80.3879 223.32 81.0588 223.79 81.7789C224.572 82.9775 226.05 83.6657 227.386 83.1522Z" fill="#213027"/>
<path d="M110.765 222.832C113.72 221.962 117.053 223.175 120.098 222.707C120.356 222.667 120.615 222.61 120.873 222.534C123.984 221.618 125.764 218.352 124.848 215.241C123.931 212.129 120.666 210.35 117.554 211.266C117.298 211.342 117.05 211.433 116.812 211.54C113.915 212.833 111.732 215.803 108.689 216.699L102.072 218.648C100.349 219.156 98.5412 218.17 98.0339 216.448C97.6703 215.213 98.0689 213.88 99.0506 213.048L101.296 211.145C102.883 209.8 105.128 209.569 107.123 208.981C110.235 208.065 112.015 204.799 111.098 201.688C110.182 198.576 106.916 196.797 103.805 197.713C102.834 197.999 101.993 198.514 101.323 199.181C99.1353 201.359 98.1246 204.769 95.6648 206.635L80.567 218.086C75.6541 221.812 73.5571 228.188 75.2991 234.103C76.3554 237.689 78.7263 240.745 81.9379 242.659L100.9 253.959C102.915 255.16 104.268 257.229 105.863 258.95C107.392 260.6 109.552 261.647 111.555 261.058C114.666 260.141 116.446 256.876 115.529 253.764C115.003 251.977 113.433 250.731 111.601 250.167C109.026 249.375 106.116 249.265 103.845 247.815L97.7761 243.941C95.5807 242.539 96.2941 239.165 98.8689 238.773L110.771 238.042C114.212 237.831 117.539 240.261 120.979 240.493C121.653 240.539 122.347 240.468 123.034 240.266C126.145 239.349 127.925 236.084 127.008 232.972C126.092 229.861 122.827 228.081 119.715 228.998C117.518 229.645 115.419 230.997 113.129 230.992L104.624 230.972C103.251 230.969 102.044 230.064 101.656 228.747C101.173 227.105 102.112 225.381 103.755 224.897L110.765 222.832Z" fill="#00753F"/>
<path fill-rule="evenodd" clip-rule="evenodd" d="M91.7511 232.295C93.9404 227.341 91.6993 221.55 86.7455 219.361L72.6658 213.138C65.674 210.048 66.7184 199.817 74.1904 198.204L92.9837 194.145C98.2777 193.002 101.643 187.784 100.499 182.49C99.3561 177.196 94.1377 173.831 88.8437 174.974L70.0504 179.032C44.0116 184.655 40.372 220.309 64.7376 231.078L78.8172 237.3C83.7711 239.49 89.5617 237.249 91.7511 232.295Z" fill="#00753F"/>
<path d="M124.477 152.165C121.138 146.735 125.482 139.835 131.821 140.498L169.882 144.479C176.341 145.154 179.101 153.04 174.473 157.596L171.467 160.555C158.134 173.681 136.058 170.998 126.258 155.061L124.477 152.165Z" fill="#00753F"/>
<path d="M126.335 151.491C123.809 147.383 127.095 142.163 131.891 142.664L168.555 146.499C173.448 147.011 175.539 152.985 172.033 156.436L171.482 156.978C158.168 170.085 136.122 167.406 126.335 151.491Z" fill="#2B3F33"/>
<mask id="mask0_7364_8246" style="mask-type:alpha" maskUnits="userSpaceOnUse" x="125" y="142" width="49" height="24">
<path d="M126.335 151.491C123.809 147.383 127.095 142.163 131.891 142.664L168.555 146.499C173.448 147.011 175.539 152.985 172.033 156.436L171.482 156.978C158.168 170.085 136.122 167.406 126.335 151.491Z" fill="black"/>
</mask>
<g mask="url(#mask0_7364_8246)">
<path d="M160.749 168.928C162.599 173.381 158.535 178.021 153.877 176.773L118.269 167.232C113.517 165.958 112.39 159.73 116.394 156.872L117.022 156.423C132.229 145.567 153.581 151.674 160.749 168.928Z" fill="#C58F7C"/>
</g>
<path fill-rule="evenodd" clip-rule="evenodd" d="M278.501 134.121C273.301 135.634 270.311 141.075 271.823 146.276C274.903 156.87 266.957 167.456 255.924 167.456H254.929C249.513 167.456 245.122 171.847 245.122 177.263C245.122 182.679 249.513 187.07 254.929 187.07H255.924C280.025 187.07 297.386 163.943 290.656 140.8C289.144 135.599 283.702 132.609 278.501 134.121Z" fill="#00753F"/>
<path d="M285.324 110.168C285.668 107.107 283.894 104.035 283.825 100.955C283.819 100.694 283.831 100.429 283.861 100.162C284.222 96.9387 287.128 94.6187 290.352 94.9802C293.575 95.3417 295.895 98.2479 295.534 101.471C295.504 101.737 295.457 101.997 295.394 102.25C294.624 105.328 292.078 107.993 291.725 111.146L290.956 118.002C290.756 119.786 292.04 121.395 293.825 121.595C295.104 121.739 296.347 121.115 296.995 120.003L298.48 117.461C299.528 115.664 299.366 113.414 299.598 111.346C299.959 108.123 302.865 105.803 306.089 106.164C309.312 106.526 311.632 109.432 311.271 112.656C311.158 113.661 310.798 114.579 310.257 115.355C308.492 117.888 305.309 119.476 303.9 122.223L295.248 139.081C292.432 144.567 286.518 147.74 280.39 147.053C276.675 146.636 273.254 144.833 270.811 142.003L256.387 125.294C254.853 123.518 252.58 122.546 250.609 121.274C248.717 120.055 247.311 118.11 247.544 116.035C247.905 112.812 250.811 110.492 254.035 110.853C255.886 111.061 257.387 112.391 258.26 114.096C259.488 116.494 260.102 119.342 261.925 121.326L266.795 126.629C268.557 128.547 271.755 127.258 271.695 124.654L270.345 112.807C269.955 109.381 266.984 106.527 266.157 103.18C265.995 102.523 265.944 101.828 266.024 101.117C266.385 97.8931 269.291 95.5731 272.515 95.9346C275.738 96.2962 278.058 99.2024 277.697 102.426C277.441 104.702 276.475 107.004 276.878 109.259L278.376 117.631C278.618 118.982 279.719 120.013 281.083 120.166C282.784 120.357 284.319 119.132 284.51 117.43L285.324 110.168Z" fill="#00753F"/>
</svg>
