<svg width="386" height="316" viewBox="0 0 386 316" fill="none" xmlns="http://www.w3.org/2000/svg">
<ellipse cx="191.715" cy="271.71" rx="131.265" ry="20.1947" fill="#D0F7F1"/>
<path d="M178.174 178.227C291.224 170.08 262.272 9.20278 262.272 9.20278C262.272 9.20278 358.029 59.359 363.426 161.419C363.426 161.419 311.534 117.775 293.912 174.392C293.912 174.392 268.873 143.442 250.35 177.908C250.35 177.908 235.676 155.853 204.676 189.65L178.174 178.227Z" fill="#8B5361"/>
<path d="M19.8264 239.203L44.0496 250.287L39.5765 254.191C43.8195 258.021 54.4983 266.379 64.9672 264.222C72.98 262.569 79.5137 254.915 84.3812 241.475C94.6109 213.223 109.359 196.31 125.904 193.853C135.566 192.423 150.566 195.349 167.127 217.478L162.379 221.032C150.661 205.368 138.35 197.997 126.776 199.716C112.485 201.839 99.4072 217.387 89.9521 243.493C84.3372 259.002 76.3321 267.929 66.1641 270.026C62.589 270.765 59.0604 270.586 55.7178 269.843C46.3402 267.757 38.4496 261.252 35.0757 258.119L29.5374 262.954L19.8264 239.203Z" fill="#784753"/>
<path d="M178.836 189.418C87.7662 168.419 130.318 12.0512 130.318 12.0512C130.318 12.0512 46.4486 50.8953 30.01 151.577C30.01 151.577 77.4069 114.182 85.0675 172.394C85.0675 172.394 109.104 144.534 120.116 180.857C120.116 180.857 134.665 160.643 155.912 197.73L178.836 189.418Z" fill="#784753"/>
<path d="M296.342 222.604C306.845 206.246 296.426 184.559 277.093 182.535C266.738 181.451 256.729 186.623 251.623 195.697L219.727 252.385C214.917 260.933 221.094 271.497 230.903 271.497L264.95 271.497L296.342 222.604Z" fill="#055131"/>
<path d="M295.063 246.112C293.876 243.241 290.586 241.876 287.714 243.064L260.889 254.158L265.19 264.556L292.015 253.461C294.886 252.273 296.251 248.983 295.063 246.112Z" fill="#055131"/>
<path d="M297.833 255.755C297.244 252.704 294.294 250.709 291.243 251.298L262.741 256.802L264.874 267.849L293.376 262.345C296.427 261.756 298.422 258.805 297.833 255.755Z" fill="#055131"/>
<path d="M297.976 265.849C297.977 262.742 295.459 260.222 292.352 260.221L263.323 260.214L263.32 271.466L292.349 271.473C295.456 271.474 297.975 268.956 297.976 265.849Z" fill="#055131"/>
<path d="M84.3509 222.604C73.8483 206.246 84.2671 184.559 103.6 182.535C113.955 181.451 123.965 186.623 129.07 195.697L160.967 252.385C165.777 260.933 159.599 271.497 149.791 271.497L115.744 271.497L84.3509 222.604Z" fill="#055131"/>
<path d="M85.6311 246.112C86.8186 243.241 90.1088 241.876 92.9799 243.064L119.805 254.158L115.505 264.556L88.6796 253.461C85.8085 252.273 84.4436 248.983 85.6311 246.112Z" fill="#055131"/>
<path d="M82.861 255.755C83.4501 252.704 86.4008 250.708 89.4514 251.298L117.954 256.802L115.82 267.849L87.318 262.345C84.2674 261.756 82.2719 258.805 82.861 255.755Z" fill="#055131"/>
<path d="M82.7192 265.849C82.7184 262.742 85.2365 260.222 88.3435 260.221L117.373 260.214L117.375 271.466L88.3464 271.473C85.2394 271.474 82.72 268.956 82.7192 265.849Z" fill="#055131"/>
<path d="M111.774 153.048C111.774 149.781 111.774 148.148 111.869 146.769C113.248 126.636 129.275 110.609 149.408 109.23C150.787 109.135 152.42 109.135 155.686 109.135H227.944C231.21 109.135 232.843 109.135 234.222 109.23C254.356 110.609 270.382 126.636 271.761 146.769C271.856 148.148 271.856 149.781 271.856 153.048V189.176C271.856 233.382 236.02 269.217 191.815 269.217C147.61 269.217 111.774 233.382 111.774 189.176V153.048Z" fill="#00753F"/>
<path d="M132.148 188.372C132.148 166.899 149.555 149.492 171.028 149.492H211.83C233.303 149.492 250.71 166.899 250.71 188.372V210.09C250.71 242.83 224.169 269.371 191.429 269.371C158.689 269.371 132.148 242.83 132.148 210.09V188.372Z" fill="#3DA94E"/>
<rect x="135.071" y="87.5492" width="47.0199" height="47.0199" rx="23.51" fill="#00753F"/>
<rect x="140.201" y="92.6788" width="36.761" height="36.761" rx="18.3805" fill="white"/>
<rect x="203.892" y="87.5492" width="47.0199" height="47.0199" rx="23.51" fill="#00753F"/>
<rect x="209.021" y="92.6788" width="36.761" height="36.761" rx="18.3805" fill="white"/>
<circle cx="158.688" cy="109.029" r="8.22849" fill="black"/>
<circle cx="227.295" cy="109.029" r="8.22849" fill="black"/>
<path d="M176.539 105.983C175.889 101.121 173.333 96.7167 169.435 93.7389C165.536 90.7611 160.615 89.4538 155.753 90.1046C150.89 90.7555 146.486 93.3112 143.508 97.2095C140.53 101.108 139.223 106.029 139.874 110.891L158.207 108.437L176.539 105.983Z" fill="#00753F"/>
<path d="M209.254 105.983C209.904 101.121 212.46 96.7167 216.358 93.7389C220.257 90.7611 225.178 89.4538 230.04 90.1046C234.902 90.7555 239.307 93.3112 242.285 97.2095C245.263 101.108 246.57 106.029 245.919 110.891L227.586 108.437L209.254 105.983Z" fill="#00753F"/>
<rect x="181.69" y="127.474" width="8.33535" height="5.12945" rx="2.56472" transform="rotate(-10.6318 181.69 127.474)" fill="#213027"/>
<rect width="8.33535" height="5.12945" rx="2.56472" transform="matrix(-0.982833 -0.184498 -0.184498 0.982833 204.908 127.474)" fill="#213027"/>
<path d="M160.541 82.1713C161.469 81.2424 161.478 79.7195 160.422 78.9381C158.69 77.6562 156.709 76.7318 154.597 76.2294C151.709 75.5427 148.688 75.6711 145.869 76.6003C143.051 77.5295 140.545 79.223 138.632 81.4921C137.233 83.1524 136.19 85.0732 135.56 87.1342C135.175 88.3904 136.088 89.6095 137.387 89.8039C138.686 89.9983 139.874 89.0875 140.336 87.8579C140.786 86.6613 141.438 85.5445 142.27 84.5583C143.615 82.9626 145.377 81.7717 147.359 81.1183C149.341 80.4649 151.466 80.3746 153.496 80.8575C154.751 81.1559 155.939 81.666 157.012 82.3605C158.115 83.0742 159.612 83.1002 160.541 82.1713Z" fill="#213027"/>
<path d="M246.734 89.2317C247.582 90.2347 247.464 91.753 246.347 92.4437C245.107 93.2102 243.765 93.8059 242.357 94.2116C240.185 94.8376 237.906 94.9972 235.668 94.6798C233.43 94.3625 231.284 93.5755 229.372 92.3704C228.132 91.5893 227.009 90.644 226.031 89.5631C225.15 88.5889 225.458 87.0976 226.552 86.37C227.646 85.6424 229.108 85.9628 230.049 86.8798C230.614 87.4309 231.237 87.9226 231.908 88.3457C233.253 89.1932 234.762 89.7466 236.335 89.9698C237.909 90.1929 239.512 90.0807 241.04 89.6405C241.802 89.4207 242.538 89.1216 243.234 88.7494C244.392 88.13 245.885 88.2287 246.734 89.2317Z" fill="#213027"/>
<path d="M139.175 216.021C141.888 215.222 144.948 216.335 147.742 215.906C147.98 215.87 148.217 215.817 148.454 215.747C151.31 214.906 152.943 211.909 152.102 209.053C151.261 206.196 148.264 204.563 145.407 205.404C145.172 205.473 144.945 205.558 144.726 205.655C142.067 206.842 140.063 209.569 137.27 210.391L131.195 212.18C129.614 212.646 127.955 211.742 127.489 210.16C127.155 209.027 127.521 207.804 128.422 207.04L130.483 205.293C131.94 204.058 134.001 203.846 135.833 203.306C138.689 202.465 140.322 199.468 139.481 196.612C138.64 193.755 135.643 192.122 132.786 192.963C131.895 193.226 131.123 193.698 130.508 194.31C128.5 196.31 127.572 199.44 125.314 201.153L111.455 211.664C106.946 215.084 105.021 220.937 106.62 226.367C107.589 229.659 109.766 232.464 112.714 234.221L130.119 244.593C131.97 245.696 133.211 247.595 134.675 249.175C136.079 250.69 138.062 251.651 139.9 251.109C142.756 250.268 144.39 247.271 143.549 244.415C143.066 242.774 141.624 241.63 139.943 241.113C137.579 240.385 134.907 240.284 132.823 238.954L127.252 235.397C125.237 234.111 125.892 231.014 128.255 230.653L139.18 229.983C142.339 229.789 145.393 232.019 148.551 232.233C149.17 232.274 149.807 232.209 150.437 232.024C153.293 231.183 154.927 228.185 154.086 225.329C153.245 222.473 150.247 220.839 147.391 221.681C145.374 222.275 143.447 223.516 141.345 223.511L133.538 223.493C132.278 223.49 131.17 222.659 130.814 221.451C130.37 219.943 131.232 218.36 132.74 217.916L139.175 216.021Z" fill="#00753F"/>
<path fill-rule="evenodd" clip-rule="evenodd" d="M121.722 224.707C123.732 220.16 121.675 214.844 117.127 212.834L104.203 207.123C97.7851 204.286 98.7438 194.895 105.603 193.413L122.854 189.688C127.713 188.639 130.802 183.848 129.753 178.989C128.703 174.129 123.913 171.041 119.053 172.09L101.802 175.815C77.9003 180.977 74.5594 213.705 96.9255 223.59L109.85 229.302C114.397 231.311 119.713 229.254 121.722 224.707Z" fill="#00753F"/>
<path d="M151.762 151.152C148.697 146.168 152.685 139.835 158.504 140.443L193.442 144.097C199.37 144.717 201.904 151.956 197.656 156.138L194.897 158.855C182.658 170.903 162.393 168.44 153.397 153.811L151.762 151.152Z" fill="#00753F"/>
<path d="M153.467 150.534C151.149 146.763 154.165 141.971 158.568 142.432L192.222 145.951C196.714 146.421 198.633 151.905 195.415 155.073L194.91 155.571C182.688 167.603 162.451 165.143 153.467 150.534Z" fill="#2B3F33"/>
<mask id="mask0_7364_8479" style="mask-type:alpha" maskUnits="userSpaceOnUse" x="152" y="142" width="46" height="22">
<path d="M153.467 150.533C151.149 146.763 154.165 141.971 158.568 142.431L192.222 145.951C196.714 146.421 198.633 151.905 195.415 155.073L194.91 155.571C182.688 167.602 162.451 165.143 153.467 150.533Z" fill="black"/>
</mask>
<g mask="url(#mask0_7364_8479)">
<path d="M185.056 166.54C186.755 170.628 183.024 174.886 178.748 173.741L146.062 164.983C141.7 163.814 140.665 158.097 144.341 155.473L144.918 155.061C158.877 145.096 178.476 150.701 185.056 166.54Z" fill="#C58F7C"/>
</g>
<path fill-rule="evenodd" clip-rule="evenodd" d="M295.282 137.886C290.508 139.275 287.763 144.27 289.151 149.044C291.979 158.768 284.684 168.486 274.557 168.486H273.644C268.672 168.486 264.642 172.516 264.642 177.488C264.642 182.46 268.672 186.49 273.644 186.49H274.557C296.681 186.49 312.616 165.261 306.439 144.017C305.051 139.243 300.056 136.498 295.282 137.886Z" fill="#00753F"/>
<path d="M301.543 115.899C301.858 113.089 300.23 110.269 300.167 107.442C300.161 107.202 300.172 106.959 300.199 106.714C300.531 103.755 303.199 101.625 306.158 101.957C309.117 102.289 311.247 104.957 310.915 107.916C310.887 108.16 310.844 108.398 310.786 108.63C310.079 111.455 307.743 113.903 307.418 116.797L306.712 123.089C306.529 124.728 307.708 126.205 309.346 126.388C310.52 126.52 311.661 125.947 312.256 124.927L313.619 122.593C314.582 120.944 314.432 118.878 314.645 116.98C314.977 114.021 317.645 111.892 320.604 112.224C323.563 112.555 325.692 115.223 325.36 118.182C325.257 119.105 324.926 119.948 324.43 120.66C322.81 122.985 319.888 124.443 318.594 126.964L310.652 142.439C308.068 147.475 302.639 150.388 297.014 149.757C293.604 149.375 290.463 147.719 288.22 145.121L274.98 129.784C273.572 128.153 271.486 127.261 269.676 126.094C267.94 124.974 266.649 123.189 266.863 121.285C267.195 118.326 269.862 116.196 272.821 116.528C274.521 116.718 275.898 117.939 276.7 119.505C277.827 121.706 278.391 124.32 280.064 126.141L284.534 131.009C286.152 132.769 289.087 131.586 289.032 129.196L287.793 118.321C287.435 115.176 284.707 112.557 283.948 109.484C283.799 108.881 283.753 108.243 283.826 107.59C284.158 104.631 286.826 102.502 289.785 102.833C292.744 103.165 294.873 105.833 294.541 108.792C294.307 110.882 293.419 112.994 293.79 115.064L295.165 122.749C295.387 123.989 296.397 124.936 297.649 125.077C299.211 125.252 300.62 124.127 300.795 122.565L301.543 115.899Z" fill="#00753F"/>
</svg>
