<svg width="264" height="445" viewBox="0 0 264 445" fill="none" xmlns="http://www.w3.org/2000/svg">
<path d="M176.008 204.505C160.888 188.945 139.672 181.139 118.248 181.296C119.627 169.884 118.182 158.252 113.259 147.456C107.651 135.143 98.4932 125.121 86.5167 121.434C82.467 117.438 77.0519 115.05 69.5453 115.696C55.8879 116.87 41.7796 127.281 30.7055 134.57C28.3089 136.137 25.9573 137.779 23.6268 139.439C25.2428 115.866 23.9955 92.0767 14.1138 70.5443C2.27977 44.7655 -21.5802 21.6461 -51.3645 18.0839C-84.4196 14.1424 -113.999 35.5281 -137.079 56.2832C-159.195 76.1558 -177.285 100.529 -190.072 127.085C-197.985 143.52 -203.789 160.671 -207.504 178.268C-224.509 164.238 -247.946 157.426 -270.426 162.34C-310.403 171.087 -327.803 215.132 -316.355 251.033C-300.694 300.179 -239.352 301.006 -195.916 305.754C-139.502 311.929 -82.5778 314.259 -25.8037 312.655C20.6693 311.341 67.021 307.29 113.025 300.654C138.267 303.756 164.775 311.444 186.702 295.472C190.85 292.442 192.617 288.484 192.723 284.532C202.334 256.99 196.881 225.987 176.029 204.523L176.008 204.505Z" fill="#FBDD90"/>
<path d="M218.636 349.303C206.164 336.468 188.664 330.03 170.992 330.159C172.13 320.745 170.938 311.151 166.877 302.246C162.252 292.09 154.698 283.823 144.819 280.782C141.479 277.486 137.012 275.516 130.82 276.049C119.555 277.018 107.918 285.605 98.7835 291.617C96.8067 292.91 94.8669 294.264 92.9446 295.633C94.2776 276.189 93.2488 256.567 85.0978 238.806C75.3366 217.542 55.6557 198.472 31.0882 195.534C3.82279 192.283 -20.5756 209.923 -39.6132 227.042C-57.8558 243.434 -72.7766 263.538 -83.3246 285.443C-89.8515 299 -94.6388 313.146 -97.7028 327.661C-111.729 316.088 -131.062 310.47 -149.604 314.523C-182.579 321.738 -196.931 358.069 -187.489 387.681C-174.571 428.22 -123.973 428.901 -88.1446 432.817C-41.6114 437.912 5.342 439.833 52.172 438.51C90.5051 437.426 128.738 434.084 166.685 428.611C187.506 431.169 209.37 437.512 227.457 424.337C230.878 421.838 232.336 418.573 232.423 415.313C240.351 392.595 235.853 367.022 218.653 349.318L218.636 349.303Z" fill="#F5ED9D"/>
</svg>
