<svg width="155" height="340" viewBox="0 0 155 340" fill="none" xmlns="http://www.w3.org/2000/svg">
<path d="M79.9662 148.881C67.0051 138.358 48.8662 133.47 30.5768 134.194C31.7153 126.12 30.4421 117.973 26.2022 110.513C21.3728 102.005 13.5205 95.211 3.28355 92.9583C-0.187351 90.2608 -4.81845 88.7346 -11.2247 89.4043C-22.88 90.6214 -34.8888 98.3543 -44.3179 103.802C-46.3586 104.974 -48.3605 106.197 -50.3445 107.432C-49.0453 90.7906 -50.1913 74.0788 -58.7009 59.2026C-68.8917 41.3927 -89.34 25.7991 -114.779 24.1433C-143.012 22.3139 -168.191 38.2157 -187.824 53.4876C-206.637 68.1106 -221.996 85.7868 -232.823 104.849C-239.522 116.645 -244.418 128.885 -247.529 141.38C-262.094 131.989 -282.126 127.864 -301.3 131.966C-335.399 139.268 -350.103 170.774 -340.208 195.72C-326.67 229.872 -274.299 228.699 -237.201 230.799C-189.019 233.533 -140.415 233.545 -91.9522 230.791C-52.2824 228.537 -12.7256 224.359 26.5259 218.371C48.0857 219.833 70.7413 224.488 89.4062 212.616C92.9374 210.364 94.4322 207.527 94.5093 204.742C102.62 185.077 97.8587 163.407 79.9843 148.893L79.9662 148.881Z" fill="#E2E8EB"/>
<path d="M137.285 237.65C126.594 228.971 111.633 224.939 96.5466 225.535C97.4857 218.876 96.4355 212.155 92.9382 206.002C88.9547 198.985 82.4778 193.381 74.0339 191.522C71.1709 189.297 67.351 188.039 62.0668 188.591C52.4529 189.595 42.5475 195.973 34.7699 200.467C33.0867 201.434 31.4354 202.443 29.7989 203.461C30.8705 189.734 29.9253 175.95 22.9061 163.679C14.5003 148.989 -2.36645 136.126 -23.3499 134.761C-46.6376 133.252 -67.4064 146.368 -83.6004 158.965C-99.1183 171.027 -111.788 185.607 -120.718 201.33C-126.243 211.061 -130.282 221.157 -132.848 231.463C-144.862 223.717 -161.386 220.315 -177.202 223.698C-205.328 229.721 -217.456 255.708 -209.294 276.286C-198.128 304.455 -154.93 303.488 -124.329 305.22C-84.5864 307.475 -44.4955 307.485 -4.52108 305.214C28.2004 303.354 60.8288 299.908 93.2053 294.969C110.989 296.175 129.676 300.014 145.072 290.222C147.985 288.364 149.218 286.024 149.281 283.727C155.971 267.506 152.044 249.632 137.3 237.66L137.285 237.65Z" fill="#C9D3D8"/>
</svg>
