<svg width="360" height="360" viewBox="0 0 360 360" fill="none" xmlns="http://www.w3.org/2000/svg">
<g opacity="0.37">
<g opacity="0.75">
<path d="M180.627 335.485L52.0742 272.943C43.1666 268.61 39.4147 257.843 43.7364 249.016L153.902 24.0112C158.224 15.1845 169.048 11.5084 177.955 15.8421L306.508 78.384C315.416 82.7176 319.168 93.4848 314.846 102.312L204.68 327.316C200.358 336.143 189.534 339.819 180.627 335.485Z" fill="#FFB800"/>
<path d="M298.449 113.544L155.108 43.8076L60.7556 236.515L204.096 306.251L298.449 113.544Z" fill="#FFB800"/>
<path d="M139.862 303.16L102.716 285.089C99.1722 283.364 97.68 279.08 99.3992 275.569C101.119 272.057 105.425 270.595 108.969 272.319L146.114 290.39C149.659 292.115 151.151 296.399 149.432 299.91C147.712 303.421 143.406 304.885 139.862 303.16Z" fill="#FFB800" stroke="#FFB800" stroke-width="0.807794" stroke-miterlimit="10"/>
<path d="M247.886 72.9516L218.321 58.5681C217.279 58.0611 216.84 56.8007 217.345 55.7681C217.851 54.7355 219.118 54.3052 220.16 54.8121L249.725 69.1956C250.767 69.7026 251.206 70.963 250.7 71.9956C250.195 73.0282 248.928 73.4589 247.886 72.9516Z" fill="#FFB800" stroke="#FFB800" stroke-width="0.807794" stroke-miterlimit="10"/>
<path d="M287.729 96.061C289.822 97.0794 292.342 96.2234 293.358 94.1491C294.374 92.0747 293.5 89.5675 291.407 88.5491C289.313 87.5307 286.793 88.3867 285.777 90.461C284.762 92.5353 285.635 95.0425 287.729 96.061Z" fill="#FFB800" stroke="#FFB800" stroke-width="0.807794" stroke-miterlimit="10"/>
</g>
<path d="M182.453 335.468L53.9004 272.926C44.9928 268.593 41.2408 257.826 45.5625 248.999L155.728 23.9941C160.05 15.1674 170.874 11.4914 179.781 15.825L308.335 78.3669C317.242 82.7005 320.994 93.4677 316.672 102.294L206.506 327.299C202.184 336.125 191.36 339.802 182.453 335.468Z" fill="#FFB800"/>
<path d="M300.275 113.528L156.935 43.7915L62.5818 236.499L205.922 306.235L300.275 113.528Z" fill="#FBF0D4"/>
<path d="M141.688 303.144L104.543 285.072C100.998 283.348 99.5062 279.064 101.225 275.552C102.945 272.04 107.251 270.578 110.795 272.302L147.941 290.374C151.485 292.098 152.977 296.382 151.258 299.894C149.539 303.405 145.233 304.868 141.688 303.144Z" fill="#D19A0D" stroke="#D19A0D" stroke-width="0.807794" stroke-miterlimit="10"/>
<path d="M249.712 72.935L220.147 58.5515C219.105 58.0445 218.666 56.7841 219.171 55.7515C219.677 54.7189 220.944 54.2886 221.986 54.7955L251.551 69.179C252.593 69.686 253.032 70.9464 252.527 71.979C252.021 73.0116 250.755 73.4423 249.712 72.935Z" fill="#D19A0D" stroke="#D19A0D" stroke-width="0.807794" stroke-miterlimit="10"/>
<path d="M289.555 96.0439C291.648 97.0623 294.168 96.2063 295.184 94.132C296.2 92.0576 295.326 89.5504 293.233 88.532C291.139 87.5136 288.619 88.3696 287.603 90.4439C286.588 92.5183 287.461 95.0254 289.555 96.0439Z" fill="#D19A0D" stroke="#D19A0D" stroke-width="0.807794" stroke-miterlimit="10"/>
</g>
<path d="M60.4746 259.613C48.6408 241.182 60.3801 216.746 82.1638 214.465C93.8314 213.244 105.109 219.072 110.862 229.296L146.801 293.168C152.221 302.8 145.261 314.703 134.209 314.703L95.8461 314.703L60.4746 259.613Z" fill="#055131"/>
<path d="M61.9133 286.066C63.2513 282.831 66.9585 281.293 70.1935 282.631L100.419 295.132L95.5733 306.847L65.3482 294.346C62.1131 293.008 60.5753 289.301 61.9133 286.066Z" fill="#055131"/>
<path d="M58.7952 296.981C59.459 293.544 62.7836 291.295 66.2209 291.959L98.3359 298.161L95.932 310.609L63.8171 304.407C60.3797 303.743 58.1314 300.418 58.7952 296.981Z" fill="#055131"/>
<path d="M58.6305 308.309C58.6296 304.808 61.4669 301.969 64.9677 301.969L97.6761 301.96L97.6793 314.638L64.971 314.646C61.4701 314.647 58.6314 311.81 58.6305 308.309Z" fill="#055131"/>
<path d="M299.346 259.574C311.18 241.143 299.44 216.707 277.656 214.427C265.989 213.205 254.711 219.033 248.958 229.257L213.019 293.13C207.6 302.762 214.56 314.664 225.612 314.664L263.974 314.664L299.346 259.574Z" fill="#055131"/>
<path d="M297.897 286.1C296.559 282.865 292.852 281.327 289.617 282.665L259.392 295.166L264.237 306.882L294.462 294.381C297.697 293.043 299.235 289.335 297.897 286.1Z" fill="#055131"/>
<path d="M301.019 296.911C300.356 293.474 297.031 291.225 293.594 291.889L261.479 298.091L263.882 310.538L295.997 304.337C299.435 303.673 301.683 300.348 301.019 296.911Z" fill="#055131"/>
<path d="M301.19 308.324C301.191 304.823 298.353 301.985 294.853 301.984L262.144 301.975L262.141 314.653L294.849 314.661C298.35 314.662 301.189 311.825 301.19 308.324Z" fill="#055131"/>
<path d="M268.432 181.212C268.432 177.532 268.432 175.692 268.325 174.138C266.771 151.453 248.713 133.395 226.028 131.841C224.474 131.734 222.634 131.734 218.954 131.734L137.538 131.734C133.858 131.734 132.017 131.734 130.464 131.841C107.779 133.395 89.7206 151.453 88.1666 174.138C88.0602 175.692 88.0602 177.532 88.0602 181.212V221.92C88.0602 271.728 128.438 312.106 178.246 312.106C228.054 312.106 268.432 271.728 268.432 221.92V181.212Z" fill="#00753F"/>
<mask id="mask0_9075_41638" style="mask-type:alpha" maskUnits="userSpaceOnUse" x="88" y="131" width="181" height="182">
<path d="M268.432 181.212C268.432 177.532 268.432 175.692 268.325 174.138C266.771 151.453 248.713 133.395 226.028 131.841C224.474 131.734 222.634 131.734 218.954 131.734L137.538 131.734C133.858 131.734 132.017 131.734 130.464 131.841C107.779 133.395 89.7206 151.453 88.1666 174.138C88.0602 175.692 88.0602 177.532 88.0602 181.212V221.92C88.0602 271.728 128.438 312.106 178.246 312.106C228.054 312.106 268.432 271.728 268.432 221.92V181.212Z" fill="#139157"/>
</mask>
<g mask="url(#mask0_9075_41638)">
<path d="M245.553 221.011C245.553 196.856 225.971 177.274 201.815 177.274H154.433C130.277 177.274 110.696 196.856 110.696 221.011V244.703C110.696 281.942 140.884 312.131 178.124 312.131C215.364 312.131 245.553 281.942 245.553 244.703V221.011Z" fill="#3DA94E"/>
<circle cx="6.26123" cy="6.26123" r="6.26123" transform="matrix(-1 0 0 1 144.408 256.248)" fill="#00753F"/>
<circle cx="4.3347" cy="4.3347" r="4.3347" transform="matrix(-1 0 0 1 148.742 244.674)" fill="#00753F"/>
<circle cx="6.98368" cy="6.98368" r="6.98368" transform="matrix(-1 0 0 1 158.373 268.718)" fill="#00753F"/>
</g>
<rect width="52.9796" height="52.9796" rx="26.4898" transform="matrix(-1 0 0 1 242.188 107.413)" fill="#00753F"/>
<rect width="41.4204" height="41.4204" rx="20.7102" transform="matrix(-1 0 0 1 236.405 113.224)" fill="white"/>
<rect width="52.9796" height="52.9796" rx="26.4898" transform="matrix(-1 0 0 1 164.637 107.386)" fill="#00753F"/>
<rect width="41.4204" height="41.4204" rx="20.7102" transform="matrix(-1 0 0 1 158.852 113.153)" fill="white"/>
<circle cx="9.27143" cy="9.27143" r="9.27143" transform="matrix(-1 0 0 1 224.844 122.297)" fill="black"/>
<circle cx="9.27143" cy="9.27143" r="9.27143" transform="matrix(-1 0 0 1 147.547 122.309)" fill="black"/>
<rect width="9.39184" height="5.77959" rx="2.8898" transform="matrix(-0.982833 -0.184498 -0.184498 0.982833 189.649 152.403)" fill="#213027"/>
<rect x="163.483" y="152.375" width="9.39184" height="5.77959" rx="2.8898" transform="rotate(-10.6318 163.483 152.375)" fill="#213027"/>
<path d="M229.244 180.102C232.697 174.486 228.205 167.349 221.648 168.035L182.282 172.152C175.602 172.851 172.747 181.007 177.533 185.719L180.642 188.78C194.433 202.355 217.265 199.58 227.402 183.097L229.244 180.102Z" fill="#00753F"/>
<path d="M227.326 179.377C229.939 175.129 226.54 169.73 221.579 170.248L183.659 174.214C178.598 174.744 176.435 180.923 180.061 184.492L180.631 185.053C194.402 198.61 217.203 195.838 227.326 179.377Z" fill="#213027"/>
<mask id="mask1_9075_41638" style="mask-type:alpha" maskUnits="userSpaceOnUse" x="178" y="170" width="51" height="24">
<path d="M227.338 179.357C229.95 175.109 226.552 169.71 221.591 170.228L183.671 174.194C178.61 174.724 176.447 180.903 180.073 184.472L180.642 185.033C194.414 198.59 217.215 195.818 227.338 179.357Z" fill="black"/>
</mask>
<g mask="url(#mask1_9075_41638)">
<path d="M191.748 197.413C189.834 202.019 194.038 206.818 198.856 205.527L235.684 195.659C240.599 194.342 241.765 187.9 237.624 184.944L236.974 184.48C221.246 173.252 199.162 179.567 191.748 197.413Z" fill="#C58F7C"/>
</g>
<path d="M329.978 167.875C332.737 166.282 334.205 162.92 336.727 160.973C336.941 160.808 337.168 160.655 337.409 160.516C340.314 158.838 344.03 159.834 345.707 162.739C347.385 165.645 346.389 169.36 343.484 171.037C343.244 171.176 342.999 171.296 342.75 171.398C339.715 172.646 335.933 172.163 333.091 173.804L326.912 177.371C325.304 178.3 324.753 180.357 325.681 181.966C326.347 183.118 327.63 183.77 328.953 183.628L331.98 183.303C334.12 183.074 335.893 181.557 337.757 180.481C340.662 178.804 344.378 179.799 346.055 182.704C347.732 185.61 346.737 189.325 343.832 191.002C342.925 191.526 341.94 191.789 340.962 191.815C337.77 191.901 334.495 190.226 331.343 190.738L311.998 193.882C305.703 194.905 299.431 191.929 296.243 186.406C294.309 183.058 293.711 179.102 294.567 175.332L299.624 153.068C300.162 150.702 299.576 148.213 299.425 145.791C299.279 143.468 300.035 141.104 301.905 140.024C304.81 138.347 308.525 139.342 310.203 142.248C311.166 143.916 310.98 145.982 310.096 147.755C308.854 150.249 306.86 152.509 306.327 155.244L304.902 162.553C304.386 165.197 307.422 167.068 309.553 165.42L318.587 157.024C321.2 154.597 321.752 150.372 324.031 147.629C324.478 147.091 325.026 146.622 325.667 146.252C328.572 144.575 332.287 145.57 333.965 148.476C335.642 151.381 334.647 155.096 331.741 156.774C329.69 157.958 327.18 158.566 325.55 160.286L319.5 166.671C318.524 167.702 318.341 169.251 319.051 170.481C319.936 172.014 321.898 172.54 323.431 171.654L329.978 167.875Z" fill="#00753F"/>
<path d="M46.9124 105.418C44.6596 103.165 44.0759 99.6565 42.4733 96.903C42.1702 96.3823 41.7956 95.8918 41.3495 95.4457C38.5667 92.6629 34.0549 92.6629 31.2721 95.4457C28.4893 98.2285 28.4893 102.74 31.2721 105.523C31.7246 105.976 32.2228 106.355 32.7519 106.66C35.5941 108.3 39.2426 108.849 41.563 111.169L48.1255 117.731C49.6662 119.272 49.6662 121.77 48.1255 123.311C47.0215 124.415 45.3703 124.764 43.9139 124.201L40.5824 122.914C38.2278 122.004 36.6786 119.747 34.8937 117.962C32.1109 115.18 27.599 115.18 24.8162 117.962C22.0334 120.745 22.0334 125.257 24.8162 128.04C25.908 129.132 27.266 129.795 28.6812 130.03C31.8312 130.553 35.3298 129.859 38.2416 131.169L60.012 140.968C66.834 144.038 74.8441 142.571 80.1341 137.281C83.3415 134.073 85.2202 129.773 85.3946 125.241L86.449 97.8262C86.5422 95.4014 87.719 93.1543 88.6325 90.9062C89.7415 88.1771 89.7339 84.94 87.8002 83.0063C85.0174 80.2235 80.5056 80.2235 77.7228 83.0064C75.9509 84.7782 75.6322 87.5314 76.3528 90.0163C77.129 92.6926 78.4139 95.3715 78.2212 98.1514L77.5647 107.623C77.3462 110.776 73.3379 111.974 71.4244 109.46L63.2032 96.3546C61.308 93.3336 61.7939 89.2609 60.7741 85.8436C60.447 84.7474 59.8507 83.7145 58.985 82.8489C56.2022 80.0661 51.6904 80.0661 48.9076 82.8489C46.1248 85.6317 46.1248 90.1435 48.9076 92.9263C50.8728 94.8915 53.5319 96.3422 54.8562 98.7856L59.7732 107.858C60.5666 109.322 60.3033 111.133 59.1258 112.311C57.6567 113.78 55.2747 113.78 53.8055 112.311L46.9124 105.418Z" fill="#00753F"/>
<path d="M213.473 101.274C212.426 100.227 212.416 98.5114 213.606 97.631C215.558 96.1866 217.79 95.145 220.17 94.5789C223.423 93.8052 226.828 93.9499 230.004 94.9969C233.179 96.0438 236.002 97.9519 238.158 100.509C239.735 102.379 240.909 104.544 241.62 106.866C242.053 108.281 241.025 109.655 239.561 109.874C238.097 110.093 236.759 109.067 236.238 107.681C235.731 106.333 234.996 105.075 234.06 103.964C232.544 102.166 230.559 100.824 228.325 100.088C226.092 99.3513 223.698 99.2495 221.41 99.7936C219.996 100.13 218.657 100.705 217.448 101.487C216.206 102.291 214.519 102.321 213.473 101.274Z" fill="#213027"/>
<path d="M129.075 105.462C129.338 104.005 128.367 102.59 126.888 102.546C125.246 102.496 123.601 102.671 121.999 103.068C119.527 103.681 117.212 104.81 115.207 106.38C113.202 107.951 111.552 109.927 110.365 112.18C109.596 113.641 109.032 115.196 108.687 116.802C108.376 118.249 109.517 119.53 110.994 119.624C112.471 119.718 113.717 118.582 114.119 117.157C114.36 116.301 114.691 115.47 115.107 114.679C115.942 113.094 117.103 111.704 118.513 110.6C119.922 109.495 121.55 108.702 123.288 108.271C124.156 108.056 125.042 107.933 125.931 107.904C127.411 107.856 128.812 106.919 129.075 105.462Z" fill="#213027"/>
<path fill-rule="evenodd" clip-rule="evenodd" d="M305.517 175.206C299.916 175.325 295.472 179.961 295.591 185.562C295.832 196.97 285.059 205.419 274.037 202.466L262.529 199.382C257.118 197.932 251.557 201.143 250.107 206.554C248.657 211.965 251.868 217.527 257.279 218.977L268.787 222.06C292.865 228.512 316.4 210.054 315.872 185.132C315.753 179.532 311.117 175.088 305.517 175.206Z" fill="#00753F"/>
<path fill-rule="evenodd" clip-rule="evenodd" d="M67.7962 115.962C62.4483 117.63 59.4646 123.317 61.1319 128.664L87.3549 212.776C89.0221 218.124 94.709 221.108 100.057 219.44C105.405 217.773 108.388 212.086 106.721 206.738L80.4982 122.627C78.8309 117.279 73.144 114.295 67.7962 115.962Z" fill="#00753F"/>
</svg>
