<svg width="335" height="281" viewBox="0 0 335 281" fill="none" xmlns="http://www.w3.org/2000/svg">
<rect width="335" height="281" rx="16" fill="#F1FCFA"/>
<path fill-rule="evenodd" clip-rule="evenodd" d="M223.782 140.393C223.782 173.193 197.191 199.784 164.391 199.784C131.589 199.784 105 173.193 105 140.393C105 107.591 131.589 81 164.391 81C197.191 81 223.782 107.591 223.782 140.393Z" fill="#F175AC"/>
<path fill-rule="evenodd" clip-rule="evenodd" d="M210.8 140.393C210.8 166.026 190.023 186.802 164.391 186.802C138.759 186.802 117.98 166.025 117.98 140.393C117.98 114.761 138.759 93.9819 164.391 93.9819C190.024 93.9819 210.8 114.761 210.8 140.393Z" fill="#D72B6A"/>
<path fill-rule="evenodd" clip-rule="evenodd" d="M197.152 140.393C197.152 158.487 182.483 173.154 164.391 173.154C146.297 173.154 131.628 158.487 131.628 140.393C131.628 122.299 146.297 107.633 164.391 107.633C182.483 107.633 197.152 122.299 197.152 140.393Z" fill="#F175AC"/>
<path fill-rule="evenodd" clip-rule="evenodd" d="M186.21 140.393C186.21 152.442 176.443 162.212 164.391 162.212C152.34 162.212 142.57 152.443 142.57 140.393C142.57 128.342 152.34 118.572 164.391 118.572C176.442 118.572 186.21 128.342 186.21 140.393Z" fill="#D72B6A"/>
<path fill-rule="evenodd" clip-rule="evenodd" d="M175.778 140.393C175.778 146.683 170.681 151.78 164.391 151.78C158.102 151.78 153.002 146.683 153.002 140.393C153.002 134.104 158.102 129.004 164.391 129.004C170.681 129.004 175.778 134.104 175.778 140.393Z" fill="#F175AC"/>
<path d="M227.671 171.885C238.184 150.614 198.65 148.439 187.719 152.138C191.419 163.068 217.157 193.155 227.671 171.885Z" fill="#69DFD3"/>
<path d="M164.134 137.894C164.424 137.902 164.715 137.971 164.992 138.107L212.359 161.519C213.383 162.026 213.803 163.267 213.297 164.291C212.79 165.316 211.55 165.735 210.525 165.229L163.159 141.817C162.134 141.31 161.714 140.07 162.221 139.045C162.59 138.297 163.352 137.872 164.134 137.894Z" fill="#FBE8F2"/>
<rect x="16.5" y="10.5" width="105" height="25" rx="12.5" fill="white"/>
<rect x="16.5" y="10.5" width="105" height="25" rx="12.5" stroke="#FAD0E5"/>
<path d="M39.272 19.6C39.464 19.6 39.62 19.664 39.74 19.792C39.86 19.92 39.92 20.08 39.92 20.272V27.268C39.92 27.476 39.848 27.652 39.704 27.796C39.568 27.932 39.396 28 39.188 28C39.084 28 38.976 27.984 38.864 27.952C38.76 27.912 38.68 27.86 38.624 27.796L33.908 21.808L34.22 21.616V27.328C34.22 27.52 34.156 27.68 34.028 27.808C33.908 27.936 33.748 28 33.548 28C33.356 28 33.2 27.936 33.08 27.808C32.96 27.68 32.9 27.52 32.9 27.328V20.332C32.9 20.124 32.968 19.952 33.104 19.816C33.248 19.672 33.424 19.6 33.632 19.6C33.744 19.6 33.86 19.624 33.98 19.672C34.1 19.712 34.188 19.776 34.244 19.864L38.816 25.696L38.612 25.84V20.272C38.612 20.08 38.672 19.92 38.792 19.792C38.912 19.664 39.072 19.6 39.272 19.6ZM48.0722 24.796C48.0722 25.452 47.9242 26.032 47.6282 26.536C47.3402 27.032 46.9482 27.42 46.4522 27.7C45.9642 27.98 45.4162 28.12 44.8082 28.12C44.2002 28.12 43.6482 27.98 43.1522 27.7C42.6642 27.42 42.2722 27.032 41.9762 26.536C41.6882 26.032 41.5442 25.452 41.5442 24.796C41.5442 24.14 41.6882 23.564 41.9762 23.068C42.2722 22.564 42.6642 22.172 43.1522 21.892C43.6482 21.604 44.2002 21.46 44.8082 21.46C45.4162 21.46 45.9642 21.604 46.4522 21.892C46.9482 22.172 47.3402 22.564 47.6282 23.068C47.9242 23.564 48.0722 24.14 48.0722 24.796ZM46.6322 24.796C46.6322 24.388 46.5482 24.036 46.3802 23.74C46.2202 23.436 46.0002 23.2 45.7202 23.032C45.4482 22.864 45.1442 22.78 44.8082 22.78C44.4722 22.78 44.1642 22.864 43.8842 23.032C43.6122 23.2 43.3922 23.436 43.2242 23.74C43.0642 24.036 42.9842 24.388 42.9842 24.796C42.9842 25.196 43.0642 25.548 43.2242 25.852C43.3922 26.148 43.6122 26.38 43.8842 26.548C44.1642 26.716 44.4722 26.8 44.8082 26.8C45.1442 26.8 45.4482 26.716 45.7202 26.548C46.0002 26.38 46.2202 26.148 46.3802 25.852C46.5482 25.548 46.6322 25.196 46.6322 24.796ZM56.9645 21.58C57.1485 21.58 57.3085 21.652 57.4445 21.796C57.5805 21.932 57.6485 22.108 57.6485 22.324C57.6485 22.38 57.6445 22.432 57.6365 22.48C57.6285 22.52 57.6165 22.56 57.6005 22.6L55.7645 27.544C55.7085 27.704 55.6085 27.828 55.4645 27.916C55.3205 27.996 55.1685 28.024 55.0085 28C54.7365 27.984 54.5325 27.832 54.3965 27.544L53.2085 24.124L53.5205 24.136L52.4045 27.544C52.2685 27.832 52.0645 27.984 51.7925 28C51.6405 28.024 51.4885 27.996 51.3365 27.916C51.1925 27.828 51.0925 27.704 51.0365 27.544L49.2005 22.6C49.1685 22.512 49.1525 22.42 49.1525 22.324C49.1525 22.132 49.2165 21.96 49.3445 21.808C49.4725 21.656 49.6485 21.58 49.8725 21.58C50.0245 21.58 50.1605 21.616 50.2805 21.688C50.4005 21.76 50.4845 21.876 50.5325 22.036L51.9845 25.972L51.6845 25.948L52.7765 22.984C52.9045 22.688 53.1245 22.54 53.4365 22.54C53.6125 22.54 53.7445 22.58 53.8325 22.66C53.9285 22.732 54.0045 22.84 54.0605 22.984L55.1525 25.948L54.7925 25.996L56.2685 22.036C56.3645 21.732 56.5965 21.58 56.9645 21.58ZM66.2147 19.6C66.6307 19.6 67.0187 19.72 67.3787 19.96C67.7467 20.2 68.0427 20.524 68.2667 20.932C68.4907 21.34 68.6027 21.796 68.6027 22.3C68.6027 22.796 68.4907 23.248 68.2667 23.656C68.0427 24.064 67.7467 24.392 67.3787 24.64C67.0187 24.88 66.6307 25 66.2147 25H64.0067L64.1267 24.784V27.268C64.1267 27.476 64.0627 27.652 63.9347 27.796C63.8067 27.932 63.6387 28 63.4307 28C63.2307 28 63.0667 27.932 62.9387 27.796C62.8107 27.652 62.7467 27.476 62.7467 27.268V20.332C62.7467 20.124 62.8147 19.952 62.9507 19.816C63.0947 19.672 63.2707 19.6 63.4787 19.6H66.2147ZM66.2147 23.632C66.3667 23.632 66.5147 23.568 66.6587 23.44C66.8027 23.312 66.9227 23.148 67.0187 22.948C67.1147 22.74 67.1627 22.524 67.1627 22.3C67.1627 22.068 67.1147 21.852 67.0187 21.652C66.9227 21.452 66.8027 21.292 66.6587 21.172C66.5147 21.044 66.3667 20.98 66.2147 20.98H63.9827L64.1267 20.764V23.824L63.9947 23.632H66.2147ZM71.6572 27.268C71.6572 27.476 71.5852 27.652 71.4412 27.796C71.3052 27.932 71.1332 28 70.9252 28C70.7252 28 70.5572 27.932 70.4212 27.796C70.2852 27.652 70.2172 27.476 70.2172 27.268V19.852C70.2172 19.644 70.2852 19.472 70.4212 19.336C70.5652 19.192 70.7412 19.12 70.9492 19.12C71.1572 19.12 71.3252 19.192 71.4532 19.336C71.5892 19.472 71.6572 19.644 71.6572 19.852V27.268ZM78.8276 21.46C79.0356 21.46 79.2076 21.528 79.3436 21.664C79.4796 21.8 79.5476 21.976 79.5476 22.192V27.268C79.5476 27.476 79.4796 27.652 79.3436 27.796C79.2076 27.932 79.0356 28 78.8276 28C78.6196 28 78.4476 27.932 78.3116 27.796C78.1756 27.652 78.1076 27.476 78.1076 27.268V26.68L78.3716 26.788C78.3716 26.892 78.3156 27.02 78.2036 27.172C78.0916 27.316 77.9396 27.46 77.7476 27.604C77.5556 27.748 77.3276 27.872 77.0636 27.976C76.8076 28.072 76.5276 28.12 76.2236 28.12C75.6716 28.12 75.1716 27.98 74.7236 27.7C74.2756 27.412 73.9196 27.02 73.6556 26.524C73.3996 26.02 73.2716 25.444 73.2716 24.796C73.2716 24.14 73.3996 23.564 73.6556 23.068C73.9196 22.564 74.2716 22.172 74.7116 21.892C75.1516 21.604 75.6396 21.46 76.1756 21.46C76.5196 21.46 76.8356 21.512 77.1236 21.616C77.4116 21.72 77.6596 21.852 77.8676 22.012C78.0836 22.172 78.2476 22.336 78.3596 22.504C78.4796 22.664 78.5396 22.8 78.5396 22.912L78.1076 23.068V22.192C78.1076 21.984 78.1756 21.812 78.3116 21.676C78.4476 21.532 78.6196 21.46 78.8276 21.46ZM76.4036 26.8C76.7556 26.8 77.0636 26.712 77.3276 26.536C77.5916 26.36 77.7956 26.12 77.9396 25.816C78.0916 25.512 78.1676 25.172 78.1676 24.796C78.1676 24.412 78.0916 24.068 77.9396 23.764C77.7956 23.46 77.5916 23.22 77.3276 23.044C77.0636 22.868 76.7556 22.78 76.4036 22.78C76.0596 22.78 75.7556 22.868 75.4916 23.044C75.2276 23.22 75.0196 23.46 74.8676 23.764C74.7236 24.068 74.6516 24.412 74.6516 24.796C74.6516 25.172 74.7236 25.512 74.8676 25.816C75.0196 26.12 75.2276 26.36 75.4916 26.536C75.7556 26.712 76.0596 26.8 76.4036 26.8ZM86.1107 21.58C86.3187 21.58 86.4907 21.652 86.6267 21.796C86.7627 21.932 86.8307 22.104 86.8307 22.312V27.412C86.8307 28.148 86.6907 28.732 86.4107 29.164C86.1387 29.604 85.7707 29.92 85.3067 30.112C84.8427 30.304 84.3227 30.4 83.7467 30.4C83.4907 30.4 83.2187 30.38 82.9307 30.34C82.6427 30.3 82.4067 30.24 82.2227 30.16C81.9827 30.056 81.8147 29.924 81.7187 29.764C81.6307 29.612 81.6147 29.448 81.6707 29.272C81.7427 29.04 81.8587 28.88 82.0187 28.792C82.1787 28.712 82.3467 28.704 82.5227 28.768C82.6507 28.808 82.8187 28.868 83.0267 28.948C83.2347 29.036 83.4747 29.08 83.7467 29.08C84.1147 29.08 84.4187 29.028 84.6587 28.924C84.9067 28.828 85.0907 28.66 85.2107 28.42C85.3387 28.188 85.4027 27.868 85.4027 27.46V26.656L85.6547 26.944C85.5187 27.208 85.3467 27.428 85.1387 27.604C84.9387 27.772 84.6987 27.9 84.4187 27.988C84.1387 28.076 83.8187 28.12 83.4587 28.12C83.0347 28.12 82.6627 28.024 82.3427 27.832C82.0307 27.632 81.7867 27.36 81.6107 27.016C81.4347 26.664 81.3467 26.264 81.3467 25.816V22.312C81.3467 22.104 81.4147 21.932 81.5507 21.796C81.6867 21.652 81.8587 21.58 82.0667 21.58C82.2747 21.58 82.4467 21.652 82.5827 21.796C82.7187 21.932 82.7867 22.104 82.7867 22.312V25.384C82.7867 25.904 82.8987 26.272 83.1227 26.488C83.3547 26.696 83.6747 26.8 84.0827 26.8C84.3627 26.8 84.5987 26.748 84.7907 26.644C84.9827 26.532 85.1307 26.372 85.2347 26.164C85.3387 25.948 85.3907 25.688 85.3907 25.384V22.312C85.3907 22.104 85.4587 21.932 85.5947 21.796C85.7307 21.652 85.9027 21.58 86.1107 21.58ZM89.9857 27.268C89.9857 27.476 89.9177 27.652 89.7817 27.796C89.6457 27.932 89.4737 28 89.2657 28C89.0577 28 88.8857 27.932 88.7497 27.796C88.6137 27.652 88.5457 27.476 88.5457 27.268V22.312C88.5457 22.104 88.6137 21.932 88.7497 21.796C88.8857 21.652 89.0577 21.58 89.2657 21.58C89.4737 21.58 89.6457 21.652 89.7817 21.796C89.9177 21.932 89.9857 22.104 89.9857 22.312V27.268ZM89.2537 20.8C88.9817 20.8 88.7897 20.756 88.6777 20.668C88.5657 20.58 88.5097 20.424 88.5097 20.2V19.972C88.5097 19.74 88.5697 19.584 88.6897 19.504C88.8177 19.416 89.0097 19.372 89.2657 19.372C89.5457 19.372 89.7417 19.416 89.8537 19.504C89.9657 19.592 90.0217 19.748 90.0217 19.972V20.2C90.0217 20.432 89.9617 20.592 89.8417 20.68C89.7217 20.76 89.5257 20.8 89.2537 20.8ZM95.1376 21.46C95.7296 21.46 96.1776 21.584 96.4816 21.832C96.7936 22.08 97.0056 22.412 97.1176 22.828C97.2376 23.236 97.2976 23.692 97.2976 24.196V27.268C97.2976 27.476 97.2296 27.652 97.0936 27.796C96.9576 27.932 96.7856 28 96.5776 28C96.3696 28 96.1976 27.932 96.0616 27.796C95.9256 27.652 95.8576 27.476 95.8576 27.268V24.196C95.8576 23.932 95.8216 23.696 95.7496 23.488C95.6856 23.272 95.5656 23.1 95.3896 22.972C95.2136 22.844 94.9616 22.78 94.6336 22.78C94.3136 22.78 94.0416 22.844 93.8176 22.972C93.6016 23.1 93.4336 23.272 93.3136 23.488C93.2016 23.696 93.1456 23.932 93.1456 24.196V27.268C93.1456 27.476 93.0776 27.652 92.9416 27.796C92.8056 27.932 92.6336 28 92.4256 28C92.2176 28 92.0456 27.932 91.9096 27.796C91.7736 27.652 91.7056 27.476 91.7056 27.268V22.312C91.7056 22.104 91.7736 21.932 91.9096 21.796C92.0456 21.652 92.2176 21.58 92.4256 21.58C92.6336 21.58 92.8056 21.652 92.9416 21.796C93.0776 21.932 93.1456 22.104 93.1456 22.312V22.828L92.9656 22.792C93.0376 22.656 93.1416 22.512 93.2776 22.36C93.4136 22.2 93.5736 22.052 93.7576 21.916C93.9416 21.78 94.1496 21.672 94.3816 21.592C94.6136 21.504 94.8656 21.46 95.1376 21.46ZM101.758 21.46C102.094 21.46 102.402 21.512 102.682 21.616C102.962 21.72 103.202 21.852 103.402 22.012C103.61 22.172 103.77 22.336 103.882 22.504C104.002 22.664 104.062 22.8 104.062 22.912L103.75 23.068V22.192C103.75 21.984 103.818 21.812 103.954 21.676C104.09 21.532 104.262 21.46 104.47 21.46C104.678 21.46 104.85 21.528 104.986 21.664C105.122 21.8 105.19 21.976 105.19 22.192V27.532C105.19 28.228 105.038 28.784 104.734 29.2C104.438 29.624 104.046 29.928 103.558 30.112C103.07 30.304 102.546 30.4 101.986 30.4C101.826 30.4 101.618 30.38 101.362 30.34C101.106 30.3 100.862 30.252 100.63 30.196C100.398 30.14 100.222 30.088 100.102 30.04C99.8621 29.936 99.6941 29.804 99.5981 29.644C99.5101 29.492 99.4941 29.328 99.5501 29.152C99.6221 28.92 99.7381 28.76 99.8981 28.672C100.058 28.592 100.226 28.584 100.402 28.648C100.482 28.672 100.614 28.72 100.798 28.792C100.982 28.864 101.182 28.928 101.398 28.984C101.622 29.048 101.818 29.08 101.986 29.08C102.586 29.08 103.03 28.96 103.318 28.72C103.606 28.48 103.75 28.148 103.75 27.724V26.68L103.894 26.788C103.894 26.892 103.838 27.02 103.726 27.172C103.622 27.316 103.474 27.46 103.282 27.604C103.098 27.748 102.878 27.872 102.622 27.976C102.366 28.072 102.094 28.12 101.806 28.12C101.238 28.12 100.726 27.98 100.27 27.7C99.8141 27.412 99.4541 27.02 99.1901 26.524C98.9261 26.02 98.7941 25.444 98.7941 24.796C98.7941 24.14 98.9261 23.564 99.1901 23.068C99.4541 22.564 99.8101 22.172 100.258 21.892C100.706 21.604 101.206 21.46 101.758 21.46ZM101.986 22.78C101.626 22.78 101.31 22.868 101.038 23.044C100.766 23.22 100.554 23.46 100.402 23.764C100.25 24.068 100.174 24.412 100.174 24.796C100.174 25.172 100.25 25.512 100.402 25.816C100.554 26.12 100.766 26.36 101.038 26.536C101.31 26.712 101.626 26.8 101.986 26.8C102.354 26.8 102.674 26.712 102.946 26.536C103.218 26.36 103.43 26.12 103.582 25.816C103.734 25.512 103.81 25.172 103.81 24.796C103.81 24.412 103.734 24.068 103.582 23.764C103.43 23.46 103.218 23.22 102.946 23.044C102.674 22.868 102.354 22.78 101.986 22.78Z" fill="#E84C8D"/>
<path d="M310.786 30.6421L305.771 32.795C305.009 33.1206 304.286 33.0583 303.601 32.608C302.915 32.1578 302.573 31.5244 302.573 30.7078V15.2843C302.573 14.646 302.794 14.1057 303.236 13.6634C303.678 13.2211 304.219 13 304.857 13H316.716C317.354 13 317.894 13.2211 318.337 13.6634C318.779 14.1057 319 14.646 319 15.2843V30.7078C319 31.5244 318.657 32.1578 317.972 32.608C317.287 33.0583 316.563 33.1206 315.802 32.795L310.786 30.6421ZM310.786 28.5426L316.558 31.0285C316.687 31.0851 316.811 31.073 316.928 30.9922C317.046 30.9111 317.104 30.8017 317.104 30.6639V15.2843C317.104 15.187 317.064 15.0979 316.983 15.0171C316.902 14.936 316.813 14.8954 316.716 14.8954H304.857C304.76 14.8954 304.671 14.936 304.59 15.0171C304.509 15.0979 304.468 15.187 304.468 15.2843V30.6639C304.468 30.8017 304.527 30.9111 304.644 30.9922C304.762 31.073 304.885 31.0851 305.015 31.0285L310.786 28.5426ZM310.786 14.8954H304.468H317.104H310.786Z" fill="#178A86"/>
</svg>
