<svg width="615" height="588" viewBox="0 0 615 588" fill="none" xmlns="http://www.w3.org/2000/svg">
<rect x="1.60655" y="0.606546" width="612.787" height="586.787" rx="18.8029" fill="#FDF2F7"/>
<rect x="1.60655" y="0.606546" width="612.787" height="586.787" rx="18.8029" stroke="#C9D3D8" stroke-width="1.21309"/>
<g style="mix-blend-mode:soft-light" opacity="0.8">
<path d="M194.032 356.334C190.63 354.989 187.766 355.531 185.05 357.863C172.638 368.575 163.487 382.084 157.917 396.967C154.307 387.687 150.298 378.552 145.872 369.581C139.288 356.218 131.47 343.009 120.191 332.828C109.658 323.326 91.7749 313.6 77.3331 320.123C69.8038 323.519 65.9248 330.641 63.3487 337.948C60.4245 346.241 58.4353 354.95 56.645 363.524C53.8998 376.694 52.1592 390.068 51.3138 403.48C47.8028 399.793 44.1525 396.232 40.3432 392.825C31.9486 385.326 21.1669 377.449 11.2306 387.842C-2.52497 402.241 -2.8333 425.698 5.90941 442.507C5.86963 442.575 5.82984 442.633 5.79006 442.7C4.04947 445.845 5.17339 451.1 8.92311 452.503C71.1764 475.728 139.238 483.247 205.221 473.492C223.9 470.725 242.341 466.719 260.413 461.348C264.162 460.235 266.659 455.948 265.316 452.261C251.849 415.276 234.244 372.252 194.002 356.305L194.032 356.334Z" fill="white"/>
</g>
<g style="mix-blend-mode:soft-light" opacity="0.8">
<path d="M527.071 493.346C525.703 492.808 524.55 493.025 523.458 493.958C518.463 498.247 514.781 503.655 512.54 509.613C511.088 505.898 509.475 502.241 507.694 498.65C505.044 493.3 501.899 488.012 497.361 483.936C493.123 480.132 485.927 476.239 480.116 478.85C477.087 480.21 475.526 483.061 474.489 485.986C473.313 489.306 472.512 492.792 471.792 496.225C470.687 501.497 469.987 506.851 469.647 512.221C468.234 510.745 466.765 509.319 465.233 507.955C461.855 504.953 457.517 501.799 453.519 505.96C447.984 511.725 447.86 521.115 451.378 527.844C451.362 527.872 451.346 527.895 451.33 527.922C450.629 529.181 451.082 531.285 452.59 531.846C477.639 541.144 505.024 544.154 531.574 540.249C539.089 539.141 546.509 537.537 553.781 535.387C555.29 534.942 556.294 533.225 555.754 531.749C550.335 516.943 543.252 499.719 527.059 493.335L527.071 493.346Z" fill="white"/>
</g>
<g style="mix-blend-mode:soft-light" opacity="0.8">
<path d="M582.418 120.409C582.402 114.206 581.557 107.98 579.802 102.013C578.182 96.494 576.025 88.6793 569.876 86.338C563.427 83.8826 556.109 88.4209 550.735 91.5452C547.866 93.2176 545.108 95.0725 542.477 97.0718C540.975 89.1658 538.778 81.3739 534.408 74.4639C528.931 65.8129 519.945 58.6064 509.308 57.1012C498.536 55.5732 487.962 60.2712 480.739 67.8654C472.962 76.0374 469.161 86.7561 466.395 97.2998C463.447 108.543 461.471 120.022 460.349 131.569C439.351 126.369 415.832 137.339 407.858 157.347C406.957 159.605 408.443 162.676 410.584 163.786C422.589 169.989 436.506 169.069 449.704 168.97C464.38 168.864 479.055 168.613 493.723 168.218C523.589 167.412 553.43 166.005 583.24 164.029C584.441 163.953 585.445 163.596 586.267 163.056C588.053 163.033 589.855 162.296 591.135 160.517C600.287 147.829 595.798 128.581 582.442 120.394L582.418 120.409Z" fill="white"/>
</g>
</svg>
