<svg width="428" height="428" viewBox="0 0 428 428" fill="none" xmlns="http://www.w3.org/2000/svg">
<g opacity="0.25">
<path fill-rule="evenodd" clip-rule="evenodd" d="M160.352 51.8372C181.015 43.0001 204.096 36.1971 225.298 37.6175L225.308 37.6115C248.195 39.1472 262.797 51.9033 267.701 71.1551C271.423 85.7821 266.86 98.7853 261.952 112.77C259.813 118.865 257.608 125.147 255.996 131.831C255.483 133.955 254.909 136.256 254.301 138.696C247.553 165.747 236.558 209.829 257.584 218.924C259.677 219.831 261.691 220.688 263.627 221.512C282.105 229.38 293.608 234.278 301.153 250.447C307.484 264.03 308.026 277.785 296.559 291.969C285.091 306.161 261.548 319.907 244.334 323.414C227.121 326.921 212.509 318.847 203.719 306.651C195.435 295.155 190.085 282.662 189.479 261.979C188.867 241.179 190.848 218.192 197.634 197.076C198.854 193.277 200.07 189.688 201.244 186.22C205.822 172.703 209.776 161.024 210.974 145.897C212.504 126.555 201.745 109.552 183.838 101.659C174.839 97.6929 164.842 96.2631 153.904 99.8666C143.644 103.248 133.864 109.278 125.922 116.467C112.139 128.952 98.5366 150.007 104.525 165.395C114.623 140.087 140.733 134.559 161.076 143.85C185.358 154.941 180.308 186.415 164.644 204.533C148.995 222.629 125.549 230.435 103.107 216.151C84.0278 204.005 73.1792 173.072 74.5006 151.429C75.8742 128.973 85.8758 109.299 104.208 90.9841C120.009 75.2088 139.389 60.8061 160.352 51.8372ZM342.556 333.335C362.09 352.529 360.347 384.52 338.663 404.788C316.98 425.057 283.566 425.928 264.032 406.733C244.498 387.539 246.241 355.549 267.924 335.28C289.608 315.012 323.022 314.141 342.556 333.335Z" fill="#FFD61E"/>
</g>
<ellipse opacity="0.5" cx="213.595" cy="369.409" rx="159.786" ry="27.5823" fill="#F9F4CB"/>
<path d="M356.97 303.768C371.126 281.722 357.083 252.494 331.025 249.766C317.068 248.305 303.576 255.276 296.695 267.506L252.197 346.581C246.388 356.905 253.848 369.662 265.695 369.662L314.658 369.662L356.97 303.768Z" fill="#055131"/>
<path d="M355.245 335.452C353.644 331.582 349.21 329.743 345.34 331.343L309.183 346.296L314.979 360.309L351.136 345.356C355.006 343.755 356.845 339.321 355.245 335.452Z" fill="#055131"/>
<path d="M358.978 348.446C358.184 344.334 354.207 341.645 350.095 342.439L311.678 349.857L314.553 364.746L352.971 357.328C357.082 356.534 359.772 352.557 358.978 348.446Z" fill="#055131"/>
<path d="M359.171 362.051C359.172 357.864 355.779 354.468 351.591 354.467L312.464 354.457L312.46 369.621L351.587 369.631C355.775 369.632 359.17 366.239 359.171 362.051Z" fill="#055131"/>
<path d="M71.2329 303.768C57.0768 281.722 71.1194 252.494 97.1777 249.766C111.135 248.305 124.626 255.276 131.508 267.506L176.006 346.581C181.815 356.905 174.355 369.662 162.508 369.662L113.545 369.662L71.2329 303.768Z" fill="#055131"/>
<path d="M72.9581 335.452C74.5587 331.582 78.9931 329.743 82.8627 331.343L119.02 346.296L113.223 360.309L77.0666 345.356C73.197 343.755 71.3575 339.321 72.9581 335.452Z" fill="#055131"/>
<path d="M69.2253 348.446C70.0194 344.334 73.9961 341.645 78.1076 342.439L116.525 349.857L113.65 364.746L75.232 357.328C71.1205 356.534 68.4312 352.557 69.2253 348.446Z" fill="#055131"/>
<path d="M69.032 362.051C69.0309 357.864 72.4246 354.468 76.612 354.467L115.74 354.457L115.743 369.621L76.6159 369.631C72.4285 369.632 69.033 366.239 69.032 362.051Z" fill="#055131"/>
<path d="M108.196 210.021C108.196 200.363 108.196 195.534 108.877 191.499C112.337 171.023 128.379 154.981 148.855 151.521C152.89 150.84 157.719 150.84 167.377 150.84H264.781C274.439 150.84 279.268 150.84 283.303 151.521C303.779 154.981 319.821 171.023 323.28 191.499C323.962 195.534 323.962 200.363 323.962 210.021V258.703C323.962 318.285 275.661 366.586 216.079 366.586C156.497 366.586 108.196 318.285 108.196 258.703V210.021Z" fill="#00753F"/>
<path d="M135.66 257.632C135.66 228.693 159.119 205.233 188.059 205.233H243.064C272.003 205.233 295.463 228.693 295.463 257.632V286.895C295.463 331.024 259.69 366.797 215.561 366.797C171.433 366.797 135.66 331.024 135.66 286.895V257.632Z" fill="#3DA94E"/>
<rect x="139.597" y="121.75" width="63.3759" height="63.37" rx="31.685" fill="#00753F"/>
<rect x="146.51" y="128.663" width="49.5485" height="49.5438" rx="24.7719" fill="white"/>
<rect x="232.358" y="121.75" width="63.3759" height="63.37" rx="31.685" fill="#00753F"/>
<rect x="239.27" y="128.663" width="49.5485" height="49.5438" rx="24.7719" fill="white"/>
<ellipse cx="171.43" cy="150.698" rx="11.0908" ry="11.0898" fill="black"/>
<ellipse cx="263.901" cy="150.698" rx="11.0908" ry="11.0898" fill="black"/>
<rect width="11.2348" height="6.91312" rx="3.45656" transform="matrix(0.982836 -0.184481 0.184514 0.98283 202.432 175.556)" fill="#213027"/>
<rect width="11.2348" height="6.91312" rx="3.45656" transform="matrix(-0.982836 -0.184481 -0.184514 0.98283 233.728 175.556)" fill="#213027"/>
<path d="M173.924 114.501C175.176 113.249 175.188 111.197 173.764 110.143C171.429 108.416 168.76 107.17 165.913 106.493C162.021 105.567 157.949 105.741 154.149 106.993C150.35 108.245 146.974 110.527 144.395 113.586C142.509 115.823 141.104 118.412 140.254 121.189C139.736 122.882 140.966 124.526 142.717 124.788C144.468 125.05 146.069 123.822 146.692 122.165C147.298 120.552 148.177 119.047 149.297 117.718C151.111 115.567 153.485 113.963 156.157 113.082C158.829 112.201 161.692 112.08 164.429 112.73C166.12 113.133 167.722 113.82 169.169 114.756C170.655 115.718 172.672 115.753 173.924 114.501Z" fill="#213027"/>
<path d="M276.906 106.88C275.153 107.127 273.908 108.759 274.412 110.457C274.97 112.34 275.784 114.144 276.835 115.815C278.456 118.394 280.605 120.601 283.14 122.291C285.674 123.982 288.538 125.116 291.542 125.622C293.49 125.949 295.468 126.008 297.421 125.799C299.182 125.611 300.21 123.835 299.764 122.121C299.318 120.408 297.561 119.418 295.792 119.495C294.729 119.542 293.661 119.477 292.606 119.299C290.493 118.944 288.48 118.146 286.697 116.957C284.915 115.769 283.404 114.217 282.263 112.403C281.694 111.498 281.224 110.537 280.858 109.538C280.25 107.875 278.66 106.634 276.906 106.88Z" fill="#213027"/>
<path d="M169.776 227.051C168.187 226.271 167.512 224.332 168.518 222.876C169.635 221.259 170.97 219.799 172.488 218.537C174.832 216.59 177.56 215.161 180.495 214.343C183.43 213.525 186.504 213.338 189.517 213.792C191.47 214.086 193.368 214.646 195.159 215.452C196.774 216.179 197.199 218.186 196.242 219.676C195.285 221.165 193.306 221.56 191.649 220.936C190.654 220.561 189.619 220.291 188.561 220.131C186.442 219.812 184.28 219.944 182.216 220.519C180.153 221.094 178.234 222.099 176.586 223.468C175.763 224.152 175.017 224.918 174.359 225.754C173.263 227.145 171.366 227.83 169.776 227.051Z" fill="#213027"/>
<path fill-rule="evenodd" clip-rule="evenodd" d="M71.4558 153.406C79.044 153.406 85.1955 159.557 85.1955 167.144V206.354C85.1955 221.275 96.3688 233.833 111.19 235.569L114.273 235.93C121.81 236.812 127.204 243.637 126.321 251.173C125.439 258.709 118.613 264.103 111.076 263.22L107.993 262.859C79.3267 259.501 57.7161 235.214 57.7161 206.354V167.144C57.7161 159.557 63.8675 153.406 71.4558 153.406Z" fill="#00753F"/>
<path fill-rule="evenodd" clip-rule="evenodd" d="M59.8554 156.872L75.5886 133.59C79.1628 128.3 86.1873 126.62 91.7679 129.72L105.719 137.47L123.908 149.837C127.548 150.118 130.415 153.16 130.415 156.872C130.415 160.768 127.256 163.927 123.359 163.927C119.732 163.927 116.745 161.191 116.348 157.671C111.777 154.441 105.094 149.795 102.191 148.053C98.6633 145.937 95.4293 148.347 94.2533 149.817L89.8433 156.872C88.0793 159.518 89.5493 161.87 90.7253 163.046L94.2533 166.574C95.3831 167.703 97.3422 167.401 98.6819 166.934C98.9481 163.28 101.997 160.398 105.719 160.398C109.616 160.398 112.775 163.557 112.775 167.454C112.775 171.24 109.792 174.33 106.047 174.501C105.696 174.94 105.293 175.516 104.837 176.275C102.504 180.163 97.8273 181.257 92.7135 180.974C91.2397 180.892 89.7896 180.553 88.3454 180.216C87.9195 180.116 87.4942 180.017 87.0689 179.924C86.6882 179.842 86.2755 179.754 85.8326 179.659C81.8427 178.809 75.4003 177.436 67.7934 174.511C56.1236 170.023 57.7974 160.988 59.8554 156.872Z" fill="#00753F"/>
<path fill-rule="evenodd" clip-rule="evenodd" d="M293.895 284.675C284.026 284.069 274.874 279.314 268.707 271.586L241.036 236.916C236.82 231.634 237.685 223.935 242.968 219.719C248.25 215.504 255.95 216.369 260.166 221.651L287.836 256.321C289.687 258.64 292.433 260.067 295.394 260.248L302.204 260.667C304.844 260.829 306.426 257.785 304.776 255.719L323.906 240.454C338.788 259.1 324.518 286.555 300.705 285.093L293.895 284.675Z" fill="#00753F"/>
<path fill-rule="evenodd" clip-rule="evenodd" d="M297.802 285.492C284.256 286.099 271.237 280.187 262.779 269.589L247.715 250.715C243.499 245.432 244.364 237.733 249.646 233.518C254.929 229.303 262.629 230.167 266.845 235.45L281.909 254.324C285.482 258.802 290.983 261.3 296.707 261.044C303.459 260.741 309.177 265.969 309.48 272.721C309.782 279.472 304.554 285.19 297.802 285.492Z" fill="#055131"/>
<path fill-rule="evenodd" clip-rule="evenodd" d="M300.164 285.297C286.237 284.24 273.377 277.439 264.665 266.524L250.362 248.602C246.146 243.32 247.011 235.621 252.293 231.405C257.576 227.19 265.276 228.055 269.492 233.337L283.795 251.259C288.267 256.861 294.867 260.352 302.015 260.894C308.754 261.405 313.803 267.283 313.292 274.021C312.781 280.76 306.903 285.808 300.164 285.297Z" fill="#00753F"/>
<path d="M243.132 209.687C241.63 206.248 237.854 204.08 235.995 200.82C235.873 200.606 235.761 200.384 235.66 200.153C234.129 196.647 235.73 192.563 239.237 191.032C242.743 189.501 246.828 191.102 248.359 194.608C248.458 194.836 248.544 195.065 248.618 195.297C249.785 198.982 248.704 203.377 250.251 206.919L253.428 214.195C254.276 216.136 256.537 217.022 258.479 216.175C259.87 215.567 260.772 214.197 260.78 212.679L260.797 209.207C260.809 206.753 259.316 204.549 258.334 202.3C256.802 198.794 258.404 194.71 261.91 193.179C265.417 191.648 269.501 193.249 271.032 196.755C271.483 197.787 271.662 198.868 271.602 199.92C271.386 203.675 268.967 207.31 269.152 211.066L270.243 233.199C270.602 240.464 266.43 247.193 259.764 250.103C255.723 251.868 251.164 252.043 246.999 250.592L222.542 242.073C219.843 241.133 216.847 241.499 213.994 241.319C211.393 241.155 208.883 239.998 207.915 237.782C206.383 234.275 207.985 230.192 211.491 228.661C213.456 227.803 215.71 228.233 217.581 229.394C220.37 231.125 222.753 233.773 225.885 234.757L233.83 237.253C236.762 238.174 239.269 234.972 237.672 232.347L229.436 221.214C226.938 217.837 222.018 216.634 219.203 213.515C218.716 212.975 218.306 212.348 217.999 211.645C216.468 208.139 218.069 204.055 221.575 202.524C225.082 200.993 229.166 202.594 230.697 206.1C231.779 208.576 232.148 211.498 233.89 213.563L240.357 221.233C241.401 222.471 243.134 222.875 244.617 222.228C246.469 221.419 247.314 219.263 246.506 217.412L243.132 209.687Z" fill="#055131"/>
<path d="M247.096 210.134C245.594 206.695 241.818 204.527 239.958 201.267C239.836 201.053 239.725 200.831 239.624 200.6C238.093 197.094 239.694 193.01 243.201 191.479C246.707 189.948 250.791 191.549 252.323 195.055C252.422 195.282 252.508 195.512 252.581 195.743C253.749 199.429 252.667 203.824 254.215 207.366L257.392 214.642C258.24 216.583 260.501 217.469 262.443 216.621C263.834 216.014 264.736 214.643 264.743 213.126L264.761 209.653C264.773 207.199 263.279 204.996 262.297 202.747C260.766 199.241 262.367 195.157 265.874 193.626C269.38 192.095 273.464 193.696 274.996 197.202C275.446 198.234 275.626 199.315 275.565 200.367C275.349 204.122 272.93 207.757 273.116 211.513L274.207 233.646C274.565 240.91 270.394 247.639 263.728 250.55C259.686 252.315 255.127 252.49 250.962 251.039L226.506 242.52C223.807 241.58 220.811 241.946 217.958 241.766C215.356 241.601 212.846 240.445 211.878 238.229C210.347 234.722 211.948 230.639 215.455 229.107C217.42 228.249 219.674 228.68 221.545 229.841C224.334 231.572 226.717 234.22 229.848 235.204L237.794 237.7C240.725 238.621 243.233 235.418 241.636 232.794L233.4 221.661C230.902 218.284 225.981 217.081 223.167 213.962C222.68 213.422 222.27 212.795 221.963 212.092C220.431 208.585 222.032 204.502 225.539 202.971C229.046 201.439 233.13 203.041 234.661 206.547C235.743 209.023 236.112 211.945 237.854 214.01L244.321 221.68C245.364 222.918 247.097 223.322 248.581 222.674C250.432 221.866 251.278 219.71 250.469 217.859L247.096 210.134Z" fill="#00753F"/>
<path d="M349.449 164.691L339.181 161.893C338.725 161.769 338.284 161.813 337.859 162.024C337.433 162.235 337.166 162.543 337.055 162.949L334.568 172.079C334.457 172.484 334.532 172.886 334.791 173.283C335.051 173.68 335.408 173.942 335.865 174.066L346.133 176.864C346.588 176.988 347.031 176.944 347.454 176.733C347.88 176.523 348.148 176.214 348.259 175.808L350.746 166.679C350.857 166.273 350.782 165.872 350.522 165.474C350.264 165.076 349.905 164.815 349.449 164.691Z" fill="#FFB800"/>
<path d="M371.715 136.106C371.132 133.632 370.116 131.403 368.666 129.415C367.217 127.427 365.456 125.675 363.387 124.162C361.317 122.649 359.142 121.581 356.86 120.96C348.19 118.598 340.539 120.589 333.908 126.932C333.579 127.241 333.392 127.619 333.346 128.066C333.302 128.513 333.425 128.93 333.718 129.316L339.278 136.576C339.586 136.904 339.912 137.116 340.254 137.209C340.768 137.349 341.272 137.241 341.768 136.885C344.52 134.878 346.493 133.654 347.686 133.212C349.138 132.72 350.79 132.726 352.644 133.231C354.384 133.705 355.792 134.579 356.87 135.852C357.948 137.126 358.323 138.362 357.996 139.56C357.631 140.9 356.98 141.887 356.041 142.52C355.103 143.153 353.687 143.625 351.794 143.937C349.298 144.329 346.836 145.321 344.412 146.912C341.987 148.504 340.452 150.483 339.807 152.85L339.282 154.775C339.135 155.318 339.138 155.893 339.294 156.502C339.45 157.112 339.742 157.474 340.17 157.591L350.438 160.388C350.894 160.513 351.353 160.401 351.816 160.05C352.278 159.703 352.576 159.286 352.708 158.802C352.902 158.089 353.555 157.239 354.665 156.255C355.776 155.271 357.005 154.609 358.354 154.272C359.637 153.948 360.644 153.679 361.377 153.464C362.111 153.251 363.099 152.853 364.345 152.273C365.591 151.693 366.606 151.058 367.391 150.369C368.177 149.679 368.974 148.724 369.781 147.503C370.589 146.284 371.202 144.903 371.622 143.363C372.266 140.996 372.297 138.576 371.715 136.106Z" fill="#FFB800"/>
</svg>
