<svg width="40" height="41" viewBox="0 0 40 41" fill="none" xmlns="http://www.w3.org/2000/svg">
<path opacity="0.25" d="M38.6696 37.3498C37.0896 37.1011 35.505 36.8789 33.9211 36.6579C34.1483 36.4058 34.3818 36.1599 34.6119 35.9106C35.7668 34.9546 36.9528 34.036 38.1699 33.1604C38.3237 33.0501 38.4232 32.8783 38.3695 32.6838C38.3242 32.5199 38.1467 32.3469 37.9641 32.3684C37.6945 32.4 37.426 32.4356 37.158 32.4752C36.5678 32.4746 35.9895 32.6482 35.4067 32.7923C34.6447 32.9806 33.8696 33.0739 33.0867 33.0863C33.4886 32.1784 33.8883 31.2694 34.2812 30.3576C34.8583 29.0172 35.4225 27.6707 35.959 26.3134C36.2275 25.635 36.4887 24.9544 36.7419 24.2698C36.8748 23.9108 37.0054 23.5507 37.1331 23.1895C37.2366 22.8984 37.3898 22.5874 37.2428 22.2844C37.1009 21.9916 36.7662 21.9136 36.4745 22.004C36.4011 22.0267 36.3349 22.0589 36.2733 22.0973C36.2043 22.1171 36.1331 22.1476 36.0613 22.1906C35.6 22.4648 35.1647 22.7921 34.7492 23.1307C34.3937 23.4207 34.059 23.7333 33.7419 24.0623C32.5785 24.9058 31.4597 25.8108 30.3924 26.7735C31.172 22.9594 31.9515 19.1453 32.7305 15.3317C32.8159 14.914 32.3552 14.6268 32.0262 14.9117C29.7598 16.8744 27.6139 18.9729 25.6014 21.194C25.5477 15.944 25.8886 10.6917 26.6258 5.49313C26.8485 3.92158 27.1114 2.35568 27.407 0.796001C27.4901 0.358454 26.8689 0.000615135 26.6354 0.46134C23.9869 5.69269 21.3362 10.9274 18.9806 16.299C18.5498 17.2809 18.1298 18.2679 17.7205 19.2589C17.3802 15.0225 17.1473 10.7776 17.0257 6.52877C16.9862 5.14886 16.9585 3.76838 16.9415 2.3879C16.9359 1.91644 16.2405 1.79603 16.1099 2.26636C14.8007 6.98328 13.1003 11.5905 11.0131 16.0191C10.5185 17.0683 10.0018 18.1063 9.4659 19.1351C7.36748 15.9666 5.98701 12.3639 5.43244 8.59949C5.36065 8.11333 4.61388 8.24278 4.59861 8.70351C4.49516 11.7737 4.51834 14.8467 4.66645 17.9146C4.25717 17.4675 3.91063 16.9575 3.56297 16.4652C3.07568 15.7755 2.42501 15.0751 1.91962 14.5691C1.41424 14.0637 0.825757 14.434 0.9326 14.7749C1.11745 15.3656 1.7506 18.0995 2.13727 19.3821C2.52394 20.6648 4.21194 29.7928 4.21194 29.7928L4.78799 33.2655C3.89763 32.8059 3.00671 32.3469 2.11635 31.8873C1.6822 31.6634 1.28309 32.1767 1.5957 32.5476C3.00727 34.2237 4.46633 35.8586 5.97005 37.451C4.3007 37.8875 2.63135 38.3244 0.961995 38.7609C0.575326 38.862 0.531797 39.4907 0.953516 39.5783C2.31477 39.8626 3.67547 40.1464 5.03673 40.4308C6.16677 40.6665 7.29512 40.9215 8.43139 41.1267H30.7305C31.0007 41.0583 31.2692 40.9802 31.5372 40.8932C32.7514 40.498 35.7487 39.5263 37.5486 38.9333C37.8805 38.8694 38.2112 38.7982 38.5396 38.7173C38.8861 38.632 39.3 38.4714 39.3424 38.0593C39.3859 37.637 39.0416 37.4081 38.6708 37.3493L38.6696 37.3498Z" fill="#76CCC6"/>
<path d="M18.105 39.671C18.105 39.671 18.1063 39.6732 18.1067 39.6741C18.1067 39.6723 18.1059 39.6701 18.1054 39.668C18.1054 39.6688 18.1054 39.6697 18.1054 39.6706L18.105 39.671Z" fill="#1E78F0"/>
<path d="M27.9053 27.8364C27.9301 26.9829 27.9101 25.6027 27.8875 24.7492C27.8658 23.9144 27.5085 20.689 27.3916 19.9172C27.3847 19.8699 27.3764 19.8229 27.3677 19.7769C27.3677 19.7769 27.3677 19.776 27.3677 19.7756C27.2235 18.7374 26.5047 17.3107 25.7672 16.5936C25.4252 16.2607 24.9976 15.9426 24.5791 15.7088C24.0902 15.4364 23.2867 15.2125 22.5957 15.2047C22.3602 15.2021 21.8687 15.2208 21.2863 15.2508C20.0439 15.1947 18.0918 15.1521 17.5412 15.1773C16.8507 15.2091 16.0554 15.4603 15.5765 15.7497C15.1663 15.9974 14.7499 16.3307 14.4197 16.6749C13.9751 17.1381 13.5992 17.6409 13.3532 18.2072C13.0468 18.7826 12.7935 19.3436 12.6935 20.0037C12.5766 20.7759 12.2194 24.0013 12.1977 24.8357C12.1755 25.6888 12.1551 27.0694 12.1799 27.9229C12.1999 28.6 12.0895 29.4496 12.2029 30.3387C12.2094 30.4895 12.2225 30.6386 12.2464 30.785C12.3159 31.2118 12.5766 31.6203 13.0216 31.7176C13.4267 31.8062 14.3523 31.7319 14.7052 31.4499C14.7021 31.8975 14.7017 32.3451 14.7 32.7936C14.6952 33.9778 14.6682 35.1629 14.5848 36.3445C14.5444 36.9207 14.4718 38.7594 14.4462 39.1501C14.2641 39.2309 13.8239 39.4552 13.6857 39.6112C13.5257 39.7915 13.6114 40.0275 13.8638 40.0501C15.1202 40.1613 17.4886 40.0609 17.7967 40.0609C18.1048 40.0609 18.1031 39.762 18.1048 39.5573C18.1066 39.3526 18.0961 38.4704 18.1092 38.1215C18.1209 37.7973 18.1366 37.4726 18.1422 37.148C18.1483 36.7912 18.187 35.7726 18.1891 35.4162C18.1974 34.1108 18.4138 29.5391 18.4412 28.2154C18.4716 26.7639 18.5294 25.3133 18.5855 23.8627C19.226 23.8588 19.8666 23.7684 20.5089 23.7741C20.8144 23.7767 21.1555 23.7914 21.4758 23.7406C21.4862 24.3911 21.6318 25.0452 21.7053 25.6966C21.7683 26.2533 21.7661 26.8139 21.8391 27.371C21.916 27.9585 22.1129 30.3265 22.1311 30.9219C22.1494 31.5294 22.1789 32.1365 22.2115 32.7432C22.2759 33.9569 22.3515 35.1707 22.3689 36.3862C22.3784 37.0537 22.3915 38.1779 22.3915 38.8372C22.3915 39.4964 22.3563 40.0766 22.5601 40.0827C23.2202 40.1027 24.2901 40.1092 24.9485 40.0788C25.4991 40.0531 25.9271 40.0862 26.4656 39.9484C26.7785 39.8684 26.6881 39.4895 26.3939 39.4013C26.2861 39.3691 25.7755 39.0554 25.7755 39.0554C25.7755 39.0554 25.6573 37.6851 25.6355 36.5283C25.6125 35.288 25.6082 33.495 25.496 32.2612C25.476 32.0422 25.4574 31.7463 25.4395 31.4047C25.8276 31.6515 26.6798 31.7141 27.0635 31.6302C27.5085 31.5329 27.7693 31.1248 27.8388 30.6977C27.8627 30.5512 27.8758 30.4017 27.8823 30.2509C27.9957 29.3618 27.8853 28.5122 27.9053 27.8351V27.8364Z" fill="#707478"/>
<path fill-rule="evenodd" clip-rule="evenodd" d="M24.5915 20.9031C24.6408 20.8968 24.6859 20.9317 24.6921 20.981C24.9074 22.6761 24.957 24.3871 25.0061 26.089L25.0987 29.2936L25.0987 29.2941C25.1017 29.3911 25.1052 29.5044 25.0767 29.6146C25.0473 29.7294 24.9848 29.8332 24.9307 29.9231C24.9232 29.9356 24.9158 29.9479 24.9087 29.9599C24.847 30.0638 24.8024 30.1517 24.797 30.2464L24.797 30.2465C24.792 30.3329 24.8012 30.45 24.8322 30.5383C24.8478 30.5825 24.8662 30.6118 24.8839 30.628C24.8985 30.6414 24.9133 30.6471 24.9359 30.6441C24.9591 30.641 24.9825 30.6471 25.0011 30.6607C25.0159 30.445 25.1016 30.2344 25.2444 30.0716C25.2772 30.0343 25.3341 30.0305 25.3714 30.0633C25.4088 30.0961 25.4125 30.153 25.3797 30.1903C25.326 30.2516 25.2821 30.3213 25.2492 30.396C25.295 30.4179 25.3483 30.4248 25.3977 30.4148C25.4464 30.4049 25.4939 30.4364 25.5037 30.4851C25.5136 30.5339 25.4821 30.5813 25.4333 30.5912C25.3537 30.6073 25.2698 30.599 25.1947 30.5686C25.1785 30.6497 25.1744 30.7332 25.1838 30.8152C25.1894 30.8646 25.1539 30.9092 25.1045 30.9148C25.0784 30.9178 25.0537 30.9093 25.0353 30.8934C25.048 30.9827 25.0833 31.0764 25.1345 31.159C25.1739 31.2224 25.2201 31.2752 25.2671 31.3116C25.3147 31.3485 25.3579 31.3649 25.3928 31.366C25.4425 31.3677 25.4814 31.4092 25.4798 31.4589C25.4782 31.5086 25.4366 31.5476 25.3869 31.5459C25.3023 31.5432 25.2234 31.5055 25.1569 31.4539C25.0898 31.4019 25.0299 31.3319 24.9816 31.2538C24.9027 31.1267 24.8479 30.967 24.8501 30.813C24.8173 30.8021 24.7878 30.7841 24.7624 30.7608C24.7142 30.7168 24.6831 30.6567 24.6624 30.598C24.6211 30.4805 24.6114 30.338 24.6173 30.2363M15.4947 20.99C15.544 20.9962 15.5789 21.0413 15.5726 21.0906C15.3586 22.7756 15.3091 24.4778 15.26 26.1811L15.1674 29.3857L15.1674 29.3858C15.1643 29.4868 15.1627 29.5749 15.1837 29.6565L15.1837 29.6566C15.2062 29.7442 15.2538 29.8237 15.3092 29.9163C15.3168 29.9289 15.3245 29.9418 15.3323 29.955C15.3938 30.0586 15.4608 30.1802 15.4689 30.3231C15.4748 30.4248 15.4651 30.5674 15.4237 30.6849C15.4031 30.7436 15.3719 30.8037 15.3238 30.8477C15.2983 30.871 15.2689 30.889 15.2361 30.8999C15.2383 31.054 15.1834 31.2136 15.1046 31.3408C15.0563 31.4188 14.9964 31.4889 14.9293 31.5408C14.8628 31.5924 14.7839 31.6301 14.6993 31.6328C14.6496 31.6345 14.608 31.5955 14.6064 31.5458C14.6047 31.4962 14.6437 31.4546 14.6934 31.4529C14.7282 31.4518 14.7714 31.4354 14.819 31.3986C14.8661 31.3621 14.9123 31.3094 14.9516 31.2459C15.0028 31.1633 15.0381 31.0696 15.0509 30.9803C15.0325 30.9962 15.0077 31.0047 14.9816 31.0017C14.9323 30.9961 14.8968 30.9515 14.9024 30.9021C14.9117 30.8201 14.9077 30.7366 14.8915 30.6555C14.8163 30.6859 14.7325 30.6942 14.6528 30.6781C14.6041 30.6682 14.5726 30.6208 14.5825 30.572C14.5923 30.5233 14.6398 30.4918 14.6885 30.5017C14.7379 30.5117 14.7912 30.5048 14.8369 30.4829C14.8041 30.4082 14.7602 30.3385 14.7064 30.2772C14.6737 30.2399 14.6774 30.183 14.7147 30.1502C14.7521 30.1174 14.809 30.1212 14.8418 30.1585C14.9846 30.3213 15.0703 30.5319 15.085 30.7476C15.1037 30.734 15.127 30.7279 15.1503 30.731C15.1729 30.7341 15.1877 30.7283 15.2023 30.715C15.22 30.6987 15.2384 30.6694 15.2539 30.6252C15.285 30.537 15.2942 30.4199 15.2892 30.3335L15.2892 30.3334C15.2838 30.2386 15.2392 30.1508 15.1775 30.0468C15.1704 30.0348 15.163 30.0225 15.1555 30.01C15.1014 29.9201 15.0389 29.8162 15.0094 29.7014C14.981 29.5913 14.9845 29.478 14.9875 29.381L14.9875 29.3803L15.08 26.1759C15.1291 24.474 15.1787 22.7631 15.3941 21.0679C15.4003 21.0186 15.4454 20.9837 15.4947 20.99ZM26.5674 31.2352C26.6073 31.2648 26.6156 31.3212 26.5859 31.3611C26.5174 31.4531 26.4158 31.5191 26.304 31.5442C26.2555 31.5551 26.2073 31.5247 26.1964 31.4762C26.1855 31.4277 26.216 31.3795 26.2645 31.3686C26.3343 31.3529 26.3987 31.3111 26.4415 31.2536C26.4712 31.2137 26.5275 31.2055 26.5674 31.2352ZM27.1229 31.2754C27.1672 31.2979 27.1849 31.352 27.1624 31.3964C27.1106 31.4983 27.0224 31.5807 26.9166 31.625C26.8707 31.6442 26.818 31.6227 26.7988 31.5768C26.7796 31.531 26.8011 31.4782 26.847 31.459C26.9132 31.4313 26.9693 31.3789 27.0019 31.3148C27.0244 31.2705 27.0785 31.2528 27.1229 31.2754ZM13.5187 31.3221C13.5586 31.2924 13.615 31.3007 13.6447 31.3405C13.6874 31.398 13.7518 31.4398 13.8217 31.4555C13.8702 31.4664 13.9006 31.5146 13.8897 31.5631C13.8788 31.6116 13.8307 31.642 13.7822 31.6311C13.6704 31.606 13.5688 31.54 13.5003 31.448C13.4706 31.4081 13.4789 31.3517 13.5187 31.3221ZM12.9633 31.3623C13.0076 31.3398 13.0618 31.3574 13.0843 31.4018C13.1169 31.4658 13.173 31.5182 13.2392 31.5459C13.2851 31.5652 13.3066 31.6179 13.2874 31.6637C13.2682 31.7096 13.2155 31.7312 13.1696 31.7119C13.0638 31.6676 12.9756 31.5852 12.9238 31.4833C12.9013 31.4389 12.919 31.3848 12.9633 31.3623Z" fill="white"/>
<path d="M30.5967 24.3642C30.4729 23.9374 29.5946 20.9789 29.2948 20.0684C28.9949 19.158 28.3583 17.0986 28.1801 16.4784C28.0019 15.8583 27.636 14.2478 27.2922 14.2478C27.2401 14.2239 27.1706 14.21 27.0793 14.21C26.653 14.21 25.2954 14.1809 24.3389 14.2161C23.1968 14.2578 22.0535 14.2517 20.9114 14.2734C20.1309 14.2886 19.2961 14.3225 18.4487 14.3577C18.4457 14.1374 18.4418 13.9175 18.4357 13.6972C18.4322 13.5698 18.3887 13.4425 18.1541 13.429C17.7556 13.406 16.8955 13.429 16.7465 13.433C16.3145 13.4451 16.2884 13.5138 16.2676 14.0205C16.2628 14.1404 16.2602 14.2825 16.2589 14.4386C15.6092 14.4564 14.9721 14.4659 14.3676 14.4581C14.0009 14.4533 13.7123 14.4803 13.5128 14.6393C13.3134 14.7984 13.2208 15.0861 13.1074 15.3998C12.9366 15.8731 12.5342 17.0403 12.3469 17.5075C12.0336 18.2889 10.998 21.4878 10.7585 22.3478C10.4834 23.3351 10.1288 24.4289 9.84113 25.4124C9.79507 25.5697 9.83592 25.7665 10.0532 25.7722C10.2705 25.7774 13.8701 25.7757 14.7005 25.7739C16.5153 25.77 18.3266 25.7713 20.1418 25.777C21.1691 25.7805 23.0169 25.8135 23.2216 25.8187C23.4263 25.8239 23.5488 25.7813 23.6271 25.548C23.7057 25.3146 24.348 23.1813 24.6935 22.18C25.0386 21.1783 25.5205 19.7464 25.8277 18.9881C25.9803 18.6118 26.2128 18.0151 26.4366 17.4406C26.8981 18.1646 27.2688 19.0615 27.3679 19.7755C27.3679 19.7755 27.3679 19.7764 27.3679 19.7768C27.3766 19.8233 27.3848 19.8698 27.3918 19.9172C27.5087 20.6894 27.8659 23.9148 27.8876 24.7492C27.8889 24.7961 27.8902 24.8448 27.8911 24.8948C28.7133 24.8926 29.5351 24.8883 30.3573 24.88C30.4885 24.8787 30.7202 24.7918 30.5963 24.3646L30.5967 24.3642Z" fill="#FFB800"/>
<path fill-rule="evenodd" clip-rule="evenodd" d="M18.5434 14.3701C18.5931 14.3695 18.6339 14.4093 18.6345 14.459C18.6393 14.843 18.6397 15.2274 18.6353 15.6115L18.6353 15.6115C18.6341 15.7161 18.6343 15.8683 18.6345 16.0387C18.6349 16.3852 18.6354 16.8072 18.624 17.0582L18.624 17.0582C18.6182 17.1833 18.6083 17.2964 18.5897 17.391C18.5715 17.4835 18.543 17.5694 18.4923 17.631L18.4923 17.631C18.4452 17.6882 18.3883 17.7293 18.3087 17.7557C18.2329 17.7808 18.1387 17.7917 18.0176 17.795C17.7796 17.8016 16.8825 17.8064 16.6862 17.8024L16.686 17.8024C16.4879 17.798 16.378 17.7832 16.2557 17.7048C16.1683 17.6488 16.1325 17.5443 16.1133 17.3912C16.0934 17.2331 16.088 16.9907 16.0917 16.6173L16.1817 16.6182L16.0917 16.6173C16.0947 16.3096 16.0893 15.8793 16.0838 15.4491C16.0799 15.1379 16.0759 14.8267 16.0752 14.5621C16.0751 14.5124 16.1152 14.4719 16.1649 14.4718C16.2147 14.4717 16.2551 14.5119 16.2552 14.5616C16.2559 14.8219 16.2598 15.1314 16.2638 15.4423C16.2692 15.8752 16.2747 16.3106 16.2717 16.6191L16.2717 16.6191C16.268 16.9936 16.2737 17.2244 16.2919 17.3687C16.3106 17.518 16.3398 17.5449 16.3528 17.5532C16.4313 17.6035 16.4986 17.6182 16.6899 17.6225C16.883 17.6264 17.7771 17.6216 18.0127 17.6151C18.1285 17.6119 18.2016 17.6015 18.2521 17.5848C18.2988 17.5693 18.3274 17.5481 18.3533 17.5166C18.3752 17.49 18.3966 17.4397 18.4131 17.3562C18.4291 17.2747 18.4386 17.1721 18.4441 17.05C18.4554 16.8029 18.4549 16.3917 18.4544 16.0478C18.4542 15.8749 18.454 15.719 18.4554 15.6094C18.4597 15.2269 18.4593 14.8439 18.4545 14.4612C18.4539 14.4115 18.4937 14.3707 18.5434 14.3701ZM27.5767 14.9775C27.6212 14.9997 27.6394 15.0537 27.6172 15.0982C27.214 15.9085 26.8399 16.7339 26.4961 17.5711C26.4772 17.6171 26.4246 17.639 26.3786 17.6202C26.3327 17.6013 26.3107 17.5487 26.3296 17.5027C26.675 16.6616 27.0509 15.8322 27.4561 15.018C27.4782 14.9735 27.5322 14.9554 27.5767 14.9775Z" fill="#B58300"/>
<path fill-rule="evenodd" clip-rule="evenodd" d="M25.8012 11.3251C25.196 11.3425 24.5894 11.3935 24.0104 11.4429C22.6245 11.5613 21.1981 11.746 19.9353 12.3014C19.6167 12.4415 19.0689 12.8169 18.7205 13.2627C18.5467 13.4852 18.4332 13.7117 18.4106 13.9241C18.389 14.1275 18.4488 14.3327 18.6539 14.5307C18.9388 14.8058 19.3448 15.0962 19.7778 15.3542C20.3155 15.2647 20.9067 15.2796 21.3623 15.291C21.4708 15.2937 21.5716 15.2962 21.6621 15.2971C22.266 15.303 22.8801 15.3534 23.4766 15.4742L23.5107 15.473C23.6201 15.4693 23.7304 15.4656 23.8413 15.4621C23.9078 15.4268 23.9742 15.391 24.0408 15.355C24.0515 15.1074 24.0593 14.8682 24.0593 14.6398C24.0593 14.5013 24.0529 14.3491 24.046 14.1844C24.0426 14.1039 24.0391 14.0205 24.0361 13.9341C24.0273 13.6753 24.0239 13.3977 24.0474 13.1266C24.0941 12.5899 24.2494 12.0409 24.7206 11.7173C25.0251 11.5082 25.4064 11.3917 25.8012 11.3251ZM28.142 11.2036C28.0391 11.1814 27.936 11.161 27.833 11.1425C26.5904 10.92 25.2009 11.0369 23.9846 11.1407C22.5956 11.2593 21.1255 11.4466 19.8132 12.0237C19.4535 12.1819 18.8638 12.5868 18.4815 13.076C18.29 13.321 18.14 13.6006 18.109 13.892C18.077 14.1924 18.1737 14.4887 18.4432 14.749C18.689 14.9863 19.0113 15.2282 19.3578 15.4509C19.3227 15.4617 19.2879 15.4731 19.2536 15.4852C18.9046 15.4878 18.5555 15.4938 18.2066 15.505C17.7798 15.5188 17.3866 15.6859 17.0413 15.923C16.5289 16.0552 16.0659 16.2685 15.729 16.6029C15.382 16.9473 15.1792 17.41 15.1837 18.0115C15.1855 18.2529 15.2316 18.5236 15.3195 18.7825C15.2798 19.1887 15.3305 19.6203 15.6321 19.8688C15.7924 20.0009 16.0062 20.0827 16.2316 20.1347C16.4589 20.1873 16.7107 20.2124 16.9573 20.2228C17.3165 20.2381 17.681 20.2223 17.9514 20.2106C18.0494 20.2064 18.135 20.2027 18.2036 20.2011C18.3041 20.1989 18.405 20.1964 18.5063 20.1936C18.75 20.9413 19.1012 21.629 19.5415 22.1273C19.8331 22.4572 20.2939 22.5974 20.7361 22.6656C21.0553 22.7148 21.3901 22.7294 21.6716 22.7417C21.7807 22.7465 21.8817 22.7509 21.9708 22.7568C23.0727 22.8303 24.2388 22.8846 25.3549 22.7333C26.5266 22.5745 27.3458 21.8702 27.9763 20.9498C28.1372 20.7148 28.3062 20.4717 28.483 20.2234C28.5445 20.221 28.5992 20.219 28.6463 20.218C28.7785 20.2153 28.9112 20.2119 29.0442 20.2076C29.1787 20.2378 29.3149 20.2632 29.4522 20.2839C30.1389 20.6279 30.8718 20.8838 31.5982 21.078C32.0473 21.1981 32.6091 21.3315 33.1772 21.3865C33.7431 21.4414 34.3307 21.4202 34.8239 21.2178C35.1805 21.0715 35.2784 20.7052 35.3028 20.3862C35.3155 20.2211 35.3099 20.0512 35.3019 19.8988C35.2994 19.8531 35.2969 19.8096 35.2944 19.7683C35.2884 19.6675 35.2831 19.5797 35.2831 19.5046C35.2831 19.3249 35.2889 19.1464 35.2948 18.9626C35.2984 18.8505 35.3021 18.7364 35.3046 18.6189C35.3529 18.6059 35.4011 18.5923 35.449 18.578C35.4808 18.7491 35.5368 18.9204 35.6261 19.0917C35.894 19.6051 36.4988 19.6809 37.0273 19.5868C37.2992 19.5384 37.5705 19.4431 37.8053 19.3213C38.0385 19.2003 38.2451 19.0482 38.379 18.8801C38.63 18.565 38.7635 18.1627 38.8241 17.7464C38.8809 17.3573 38.8753 16.9471 38.8372 16.5659C38.9825 16.4452 39.1248 16.3241 39.2639 16.204C39.6177 15.8986 39.9291 15.6167 40.1285 15.2878C40.3337 14.9496 40.4167 14.5693 40.3369 14.0763C40.3329 14.0516 40.3283 14.0087 40.322 13.9492C40.3161 13.8939 40.3087 13.8244 40.2988 13.7421C40.2792 13.5791 40.2513 13.3794 40.2098 13.1897C40.1691 13.0038 40.1122 12.8119 40.0284 12.6739C39.9863 12.6046 39.9298 12.5359 39.8527 12.4936C39.769 12.4477 39.6739 12.4403 39.5789 12.4751C39.3208 12.5698 39.0665 12.6665 38.8141 12.7626C37.9153 13.1046 37.0402 13.4376 36.1036 13.6326C36.0864 13.3818 36.06 13.1328 36.0229 12.8871C35.9504 12.4055 35.8076 11.9971 35.5378 11.6986C35.2643 11.396 34.8773 11.2248 34.3564 11.1855C32.4048 11.0382 30.3947 11.1162 28.4406 11.192C28.341 11.1959 28.2414 11.1998 28.142 11.2036ZM28.1152 11.5082C27.9933 11.5129 27.8716 11.5175 27.75 11.522C27.6055 11.5274 27.4506 11.5294 27.2884 11.5315C26.9663 11.5357 26.6158 11.5402 26.2629 11.5722C25.7344 11.6201 25.2412 11.7278 24.8923 11.9674C24.5364 12.2118 24.394 12.6423 24.3497 13.1528C24.3277 13.4053 24.3306 13.6683 24.3393 13.9238C24.3421 14.004 24.3454 14.0842 24.3487 14.1632C24.3558 14.3319 24.3627 14.4949 24.3627 14.6398C24.3627 14.8176 24.3581 15.0009 24.3512 15.1878C24.8738 14.9089 25.4189 14.6425 26.0149 14.5435C26.4106 13.99 26.9041 13.4877 27.5861 13.2707C27.82 13.1963 28.0673 13.1466 28.3204 13.1156C28.7712 12.6687 29.3063 12.3179 29.8845 12.0479C29.2973 11.8285 28.7049 11.6379 28.1152 11.5082ZM30.285 11.8762C29.9066 11.7287 29.5229 11.5899 29.1367 11.469C30.0993 11.4331 31.0678 11.4032 32.0309 11.4057C31.4386 11.5031 30.8458 11.6558 30.285 11.8762ZM30.2864 12.2026C29.747 12.4253 29.2453 12.7135 28.8119 13.0776C29.4781 13.0531 30.1637 13.1276 30.7482 13.2088C31.2743 13.282 31.8923 13.3993 32.4449 13.638C32.9514 13.8568 33.4146 14.1828 33.6965 14.6813C34.1922 14.4223 34.7067 14.2184 35.2383 14.0865C35.2462 14.0765 35.254 14.0667 35.2617 14.057C34.7614 14.0619 34.247 13.9117 33.7617 13.719C33.4723 13.604 33.1884 13.4719 32.9196 13.3443C32.8749 13.3231 32.8307 13.302 32.787 13.2812C32.5661 13.176 32.3575 13.0766 32.1619 12.9929C32.0217 12.933 31.8804 12.8721 31.7382 12.8108C31.2636 12.6063 30.7788 12.3973 30.2864 12.2026ZM35.495 13.7373C34.9899 13.8043 34.4347 13.6598 33.8737 13.4371C33.5941 13.326 33.3178 13.1976 33.0497 13.0703C33.006 13.0495 32.9625 13.0288 32.9191 13.0081C32.6983 12.9029 32.483 12.8003 32.2812 12.714C32.1427 12.6548 32.0025 12.5944 31.8611 12.5334C31.4844 12.3711 31.0982 12.2046 30.7066 12.0447C31.565 11.7518 32.4897 11.6102 33.3619 11.5782C33.3797 11.5776 33.3976 11.5769 33.4157 11.5762C33.6465 11.5676 33.8949 11.5583 34.1382 11.5771C34.4007 11.5973 34.6427 11.6495 34.8371 11.7606C34.9688 11.8358 35.0609 11.9803 35.1398 12.1749C35.1785 12.2706 35.2114 12.3713 35.2451 12.4741L35.2456 12.4757C35.2783 12.5757 35.3122 12.6795 35.3512 12.772C35.4908 13.1029 35.5618 13.2835 35.5776 13.4234C35.5893 13.5271 35.5707 13.6119 35.495 13.7373ZM35.1156 14.4331C35.1221 14.441 35.1295 14.4483 35.1378 14.4549C35.2032 14.5073 35.2987 14.4967 35.351 14.4313C35.3638 14.4153 35.3763 14.3996 35.3887 14.3842C35.3959 14.3751 35.4031 14.3662 35.4102 14.3573C35.5474 14.3258 35.6855 14.2995 35.8246 14.2786C35.8333 15.2727 35.7113 16.2877 35.5329 17.2409L35.5321 17.2452L35.5321 17.2453L35.5301 17.2557C35.4683 17.5859 35.4043 17.928 35.4162 18.271C35.38 18.2822 35.3437 18.293 35.3074 18.3034C35.305 17.9579 35.2813 17.6078 35.2001 17.2776C35.0227 16.5562 34.5214 16.1362 33.9339 15.8723C33.9489 15.5675 33.9294 15.2485 33.8246 14.9566C34.244 14.7366 34.6746 14.5588 35.1156 14.4331ZM33.4302 14.8267C33.1911 14.4069 32.7931 14.1189 32.3246 13.9164C31.8102 13.6942 31.2247 13.5813 30.7064 13.5093C30.013 13.4129 29.2025 13.3304 28.4609 13.4052C28.1296 13.7496 27.8522 14.1509 27.6473 14.6167C27.6435 14.6253 27.6398 14.6339 27.6361 14.6426C27.7629 14.6678 27.8884 14.6943 28.0109 14.7203C28.0312 14.7245 28.0513 14.7288 28.0714 14.7331C28.2704 14.7751 28.4606 14.8145 28.6398 14.8441C29.0853 14.9176 29.5321 14.9825 29.9806 15.0477C30.0996 15.065 30.2187 15.0823 30.3379 15.0998C30.8885 14.8244 31.5208 14.752 32.2358 14.9903C32.4128 15.0493 32.5731 15.1492 32.716 15.2776C32.9494 15.1158 33.1875 14.9648 33.4302 14.8267ZM32.9263 15.5011C33.1325 15.3594 33.342 15.2269 33.5546 15.1049C33.6179 15.303 33.6387 15.5233 33.6345 15.7528C33.4192 15.6763 33.1962 15.6154 32.9749 15.5638C32.959 15.5425 32.9428 15.5216 32.9263 15.5011ZM32.4578 15.4561C32.3569 15.3749 32.2506 15.315 32.1399 15.2781C31.7116 15.1353 31.3233 15.1181 30.9691 15.1948C31.3065 15.2474 31.6438 15.3037 31.9801 15.3671C32.048 15.38 32.1184 15.393 32.1903 15.4062C32.2779 15.4224 32.3676 15.4389 32.4578 15.4561ZM29.9336 15.3474C29.4863 15.2824 29.0373 15.2171 28.5904 15.1434C28.4036 15.1126 28.2073 15.0718 28.0087 15.0298C27.9886 15.0256 27.9685 15.0213 27.9483 15.0171C27.8124 14.9883 27.6755 14.9593 27.5379 14.9324C27.4748 15.1695 27.447 15.4111 27.4177 15.6655C27.4132 15.7043 27.4087 15.7434 27.4041 15.7828C27.6116 15.8518 27.8138 15.9341 28.0091 16.0323C28.3006 16.1788 28.5886 16.3346 28.8748 16.4938C29.1769 16.0471 29.5275 15.6435 29.9336 15.3474ZM29.1404 16.6425C29.4994 16.1165 29.9142 15.677 30.3914 15.4143C30.9051 15.4901 31.4164 15.5694 31.9238 15.6652C31.9946 15.6786 32.066 15.6918 32.1381 15.705C32.1389 15.7052 32.1396 15.7053 32.1403 15.7055C31.5224 16.1953 30.9402 16.7547 30.3976 17.343C30.0677 17.1668 29.7417 16.9824 29.4142 16.7972C29.3231 16.7456 29.2319 16.694 29.1404 16.6425ZM28.7098 16.7491C28.4315 16.5945 28.1533 16.4442 27.8729 16.3033C27.7088 16.2209 27.5386 16.15 27.3631 16.0892C27.338 16.2489 27.3048 16.4109 27.2544 16.5724C27.148 16.9142 26.9973 17.2194 26.8091 17.493C26.8905 17.6017 26.9696 17.7121 27.0475 17.8208C27.0746 17.8585 27.1014 17.896 27.1282 17.9332C27.2547 18.1088 27.3808 18.2793 27.5174 18.4403C27.5972 18.5343 27.68 18.6253 27.7656 18.7133C28.0093 18.0861 28.3192 17.3819 28.7098 16.7491ZM28.0024 18.9427C28.2515 18.2894 28.5703 17.5501 28.9748 16.8974C29.0701 16.951 29.1655 17.005 29.2612 17.0591C29.5677 17.2325 29.8763 17.407 30.1874 17.5744C29.6341 18.1932 29.1231 18.8384 28.6588 19.4649C28.4283 19.305 28.2086 19.1313 28.0024 18.9427ZM27.6475 19.0244C27.5218 18.9012 27.4011 18.772 27.2861 18.6365C27.1413 18.4659 27.0095 18.2873 26.8821 18.1105C26.8543 18.0719 26.8267 18.0335 26.7993 17.9952C26.7388 17.9108 26.6789 17.8273 26.6182 17.7448C26.5236 17.8584 26.422 17.9658 26.3143 18.0675C26.4066 18.1617 26.4963 18.256 26.585 18.3493C26.8474 18.6252 27.102 18.8931 27.3954 19.1278C27.4498 19.1713 27.5059 19.2133 27.5635 19.2537C27.5905 19.1792 27.6184 19.1027 27.6475 19.0244ZM27.8256 19.4211C27.846 19.3645 27.8669 19.3068 27.8884 19.2479C28.0765 19.4133 28.2741 19.5668 28.4792 19.7095C28.476 19.7138 28.4728 19.7182 28.4696 19.7226C28.243 19.6384 28.027 19.5379 27.8256 19.4211ZM27.4581 19.5492C27.3711 19.491 27.287 19.4295 27.2059 19.3646C26.8963 19.117 26.6174 18.8238 26.3474 18.5401C26.2594 18.4476 26.1723 18.3561 26.0855 18.2675C26.0268 18.3151 25.9666 18.3613 25.9051 18.4062C26.0419 18.5763 26.1626 18.7696 26.2771 18.953C26.3154 19.0142 26.3529 19.0743 26.3901 19.1321C26.5764 19.4212 26.7576 19.6586 26.9917 19.7874C27.0746 19.833 27.1873 19.8671 27.3223 19.8907C27.3353 19.8669 27.3491 19.8378 27.3642 19.8017C27.3923 19.7348 27.4213 19.6534 27.4581 19.5492ZM27.6411 19.9259C27.642 19.9236 27.643 19.9213 27.644 19.919C27.6692 19.859 27.6947 19.7894 27.7224 19.7115C27.8666 19.7925 28.0169 19.8656 28.1718 19.9309C28.0017 19.9354 27.8181 19.9364 27.6411 19.9259ZM26.8372 20.0486C26.5341 19.8786 26.32 19.5833 26.1351 19.2964C26.0922 19.2298 26.0509 19.1637 26.0103 19.0988C25.8923 18.9103 25.7805 18.7314 25.6537 18.5776C25.5197 18.663 25.3804 18.7432 25.2364 18.8188C25.0255 18.9295 24.8103 19.0312 24.5917 19.1248C24.7072 19.4305 24.8627 19.7149 25.0703 19.9708C25.1109 20.0208 25.1908 20.0643 25.3237 20.091C25.4536 20.1172 25.6124 20.1231 25.7829 20.1176C25.9525 20.112 26.126 20.0955 26.2849 20.0799L26.3119 20.0773C26.4566 20.063 26.594 20.0495 26.6939 20.0495C26.7463 20.0495 26.7938 20.0492 26.8372 20.0486ZM24.4959 18.8358C24.6995 18.748 24.8995 18.653 25.0955 18.5501C25.2128 18.4886 25.3263 18.4241 25.4356 18.3564C25.3385 18.2776 25.234 18.2186 25.1171 18.1838C24.9217 18.1256 24.6565 18.1651 24.3738 18.2841C24.4044 18.4731 24.4444 18.6574 24.4959 18.8358ZM24.0905 18.4271C24.1224 18.6051 24.163 18.7806 24.2139 18.9521C23.9055 19.0735 23.5899 19.1793 23.2689 19.2718C23.323 19.1211 23.4463 18.9481 23.622 18.7799C23.758 18.6496 23.9194 18.5279 24.0905 18.4271ZM24.332 17.9741C24.6261 17.8623 24.9368 17.8136 25.2037 17.8931C25.3974 17.9508 25.5586 18.0547 25.6975 18.182C25.7559 18.1401 25.8128 18.0971 25.8683 18.0529C25.7593 17.9494 25.6481 17.8505 25.5322 17.7583C25.256 17.5386 24.9612 17.3521 24.6525 17.1921C24.539 17.3302 24.4219 17.4634 24.3007 17.5917C24.308 17.7204 24.3183 17.848 24.332 17.9741ZM24.0174 17.8759C24.0244 17.9531 24.0326 18.03 24.0421 18.1066C23.8118 18.2292 23.5929 18.3876 23.4121 18.5608C23.2078 18.7566 23.0411 18.9818 22.9708 19.2066C22.9547 19.2582 22.9469 19.3094 22.9468 19.3595C22.0649 19.5869 21.1483 19.7191 20.2323 19.7971C20.6672 19.7086 21.097 19.589 21.5184 19.4271C22.5074 19.0472 23.3238 18.5343 24.0174 17.8759ZM24.2862 17.1557C24.3149 17.1226 24.3434 17.0892 24.3717 17.0555C24.343 17.0424 24.3142 17.0295 24.2854 17.0168C24.2854 17.0632 24.2857 17.1095 24.2862 17.1557ZM23.9825 16.8921C23.9809 17.0866 23.9831 17.2817 23.9913 17.4759C23.2897 18.1927 22.4521 18.7435 21.4097 19.1439C20.5352 19.4798 19.6162 19.6286 18.675 19.694C18.3854 18.6029 18.3268 17.4261 18.5604 16.5437C18.6179 16.3263 18.7302 16.1602 18.882 16.0311C19.5161 16.0329 20.1453 16.0892 20.6796 16.156C20.7688 16.1939 20.8559 16.2286 20.9396 16.2595C21.2861 16.3875 21.6334 16.4238 21.9895 16.4035C22.043 16.4004 22.0961 16.396 22.1487 16.3902C22.7761 16.5116 23.3962 16.666 23.9825 16.8921ZM24.289 16.6883C24.3827 16.7275 24.4755 16.7687 24.5675 16.8119C24.6966 16.6447 24.821 16.4701 24.9412 16.288C24.7386 16.1847 24.5287 16.0953 24.3133 16.0183C24.303 16.2403 24.2938 16.4641 24.289 16.6883ZM24.0142 15.9204C24.004 16.1339 23.9945 16.3513 23.9885 16.5701C23.6202 16.4339 23.2417 16.3246 22.8601 16.233C23.1713 16.1316 23.468 15.9953 23.7555 15.8488C23.8424 15.871 23.9287 15.8948 24.0142 15.9204ZM24.464 15.7503C24.683 15.8307 24.8972 15.9237 25.1049 16.031C25.1438 15.9676 25.1824 15.9034 25.2205 15.8384C25.2365 15.811 25.2526 15.7834 25.2687 15.7556C25.0018 15.7469 24.7328 15.7464 24.464 15.7503ZM25.6099 15.7716C25.567 15.8459 25.5245 15.9195 25.4822 15.9917L25.3514 15.915L25.4822 15.9917C25.4454 16.0546 25.4081 16.1168 25.3704 16.1782C25.7558 16.4071 26.1145 16.6899 26.4346 17.0368C26.4963 17.1036 26.5553 17.1719 26.6123 17.2412C26.7589 17.0132 26.8778 16.7615 26.9648 16.4822C27.0139 16.3248 27.0455 16.1638 27.0701 15.9982C26.6078 15.8701 26.1158 15.803 25.6099 15.7716ZM27.1089 15.6943C26.6802 15.5792 26.2325 15.514 25.7793 15.4793C25.9084 15.2585 26.0428 15.0371 26.1881 14.825C26.1904 14.8247 26.1926 14.8244 26.1949 14.8242C26.518 14.7861 26.8729 14.8179 27.2387 14.8781C27.1728 15.1353 27.1429 15.3965 27.1144 15.6459C27.1126 15.6621 27.1107 15.6782 27.1089 15.6943ZM27.3318 14.5861C27.3436 14.5555 27.3562 14.525 27.3697 14.4945C27.5358 14.117 27.7463 13.7788 27.9921 13.4772C27.8843 13.5001 27.7794 13.5275 27.6781 13.5598C27.1688 13.7218 26.7676 14.0716 26.4233 14.5051C26.7215 14.4986 27.03 14.5347 27.3318 14.5861ZM25.7715 14.9065C25.6547 15.091 25.5451 15.2777 25.4403 15.4587C25.1312 15.4447 24.8201 15.4425 24.5114 15.4463C24.9308 15.2232 25.3415 15.0216 25.7715 14.9065ZM26.429 17.4968C26.3591 17.4092 26.2872 17.3242 26.2117 17.2425C25.9107 16.9164 25.5727 16.6502 25.2079 16.4345C25.0909 16.6129 24.9697 16.7847 24.8439 16.95C25.1496 17.112 25.4436 17.3002 25.721 17.5209C25.8533 17.6261 25.9784 17.7382 26.0989 17.8537C26.218 17.7419 26.3283 17.6232 26.429 17.4968ZM23.1775 15.7876C22.9037 15.7961 22.6346 15.8027 22.3741 15.8027C21.9342 15.8027 21.4908 15.7987 21.0479 15.7948C20.8999 15.7934 20.752 15.7921 20.6043 15.7909C20.6569 15.8152 20.7088 15.8384 20.7598 15.8604C21.1167 15.9059 21.4289 15.9554 21.6689 15.9958C21.8321 16.0232 21.996 16.0522 22.1599 16.0835C22.5122 16.0393 22.8473 15.9305 23.1775 15.7876ZM18.4659 16.0381C18.0126 16.0554 17.5697 16.1055 17.1695 16.2035C16.7634 16.4936 16.4124 16.902 16.1454 17.2878C15.9682 17.5437 15.6998 18.1746 15.6287 18.7466C15.7439 19.0561 15.9226 19.3266 16.1503 19.4799C16.4389 19.6742 16.8462 19.7467 17.2907 19.7594C17.6332 19.7692 17.979 19.7436 18.289 19.7207C18.3153 19.7188 18.3413 19.7168 18.367 19.715C18.0809 18.6045 18.0205 17.3976 18.2671 16.4661C18.3103 16.303 18.3782 16.1611 18.4659 16.0381ZM15.9837 19.7334C15.9828 19.7328 15.9818 19.7322 15.9809 19.7315C15.8782 19.6624 15.786 19.5776 15.704 19.482C15.7359 19.5432 15.7762 19.5945 15.825 19.6347C15.8693 19.6712 15.9225 19.7041 15.9837 19.7334ZM15.487 18.0112C15.6076 17.6352 15.7674 17.3008 15.896 17.1151C16.0387 16.909 16.2066 16.6932 16.3964 16.4889C16.2234 16.5819 16.0707 16.6911 15.9427 16.8182C15.6568 17.1019 15.4831 17.4847 15.487 18.0092C15.487 18.0099 15.487 18.0105 15.487 18.0112ZM18.8226 20.1834C19.056 20.8712 19.3797 21.4861 19.7689 21.9264C19.9867 22.173 20.3558 22.3 20.7824 22.3658C21.0841 22.4124 21.3901 22.4257 21.6664 22.4377C21.7805 22.4426 21.8894 22.4474 21.9909 22.4541C23.0925 22.5276 24.2313 22.5795 25.3141 22.4327C26.3714 22.2894 27.1242 21.6571 27.726 20.7783C27.8469 20.6019 27.9724 20.4206 28.1024 20.2359C27.8932 20.2399 27.6618 20.2374 27.4456 20.2141C27.3719 20.2735 27.2849 20.3072 27.1823 20.3262C27.0573 20.3494 26.8972 20.3529 26.6939 20.3529C26.6094 20.3529 26.4856 20.365 26.3306 20.3802L26.3145 20.3818C26.1563 20.3974 25.9736 20.4148 25.7928 20.4207C25.613 20.4266 25.4273 20.4214 25.2638 20.3884C25.1193 20.3593 24.9732 20.3049 24.8682 20.1992C24.8682 20.1999 24.8683 20.2005 24.8683 20.2012C24.8683 20.285 24.8003 20.3529 24.7166 20.3529C24.512 20.3529 24.1324 20.2799 23.7861 20.1508C23.6115 20.0857 23.4376 20.0036 23.2946 19.9038C23.1946 19.8341 23.1014 19.7499 23.0366 19.6496C21.6621 20.0056 20.2124 20.1334 18.8226 20.1834ZM23.3555 19.5625C23.6792 19.4692 23.9983 19.3624 24.3109 19.2399C24.4202 19.5272 24.5635 19.8007 24.7505 20.0533C24.7396 20.0508 24.7283 20.0495 24.7166 20.0495C24.559 20.0495 24.2163 19.9874 23.8921 19.8666C23.7315 19.8067 23.5831 19.7352 23.4682 19.655C23.4233 19.6237 23.3859 19.5927 23.3555 19.5625ZM33.5425 18.7619C33.4143 19.2432 33.1624 19.6586 32.7471 19.8552C32.0459 20.1871 31.2005 20.3555 30.3513 20.3523C30.7852 20.5236 31.231 20.6658 31.6765 20.7849C32.1207 20.9037 32.6634 21.032 33.2065 21.0846C33.7519 21.1375 34.282 21.1122 34.7087 20.9372C34.8926 20.8617 34.9773 20.6639 35.0004 20.3631C35.0114 20.2183 35.0069 20.0643 34.9989 19.9148C34.9969 19.8754 34.9945 19.8356 34.9921 19.7963C34.9859 19.6913 34.9798 19.5894 34.9798 19.5046C34.9798 19.3265 34.9859 19.1344 34.9919 18.9421C34.9946 18.8581 34.9973 18.7741 34.9994 18.6912C34.5466 18.7842 34.0794 18.8162 33.5995 18.768C33.5805 18.766 33.5615 18.764 33.5425 18.7619ZM35.0042 18.3801C35.0048 18.0197 34.9843 17.6705 34.9055 17.35C34.7671 16.787 34.3948 16.4345 33.9068 16.1946C33.8872 16.3649 33.8613 16.5295 33.8376 16.6801C33.8328 16.7102 33.8281 16.7404 33.8233 16.7708C33.773 17.0915 33.7191 17.4343 33.6499 17.7757C33.6549 18.0108 33.6407 18.2431 33.6054 18.4636C33.6136 18.4645 33.6217 18.4653 33.6299 18.4661C34.0993 18.5134 34.5576 18.4783 35.0042 18.3801ZM33.5158 16.7734C33.5185 16.7565 33.5211 16.7397 33.5238 16.7229C33.5285 16.6928 33.5332 16.6628 33.5379 16.6329C33.5663 16.4526 33.5961 16.2622 33.6151 16.0688C33.4831 16.0187 33.3461 15.9749 33.2061 15.9357C33.3377 16.1892 33.4416 16.4749 33.5158 16.7734ZM32.7946 15.834C33.1246 16.3262 33.3252 17.0512 33.3458 17.7488C33.3 17.9715 33.2475 18.1917 33.1851 18.4042C32.3024 18.2475 31.4813 17.9029 30.6759 17.4889C31.2565 16.8647 31.8791 16.2791 32.5386 15.7807C32.6237 15.7976 32.7092 15.8152 32.7946 15.834ZM30.4638 17.7207C29.9028 18.3434 29.3841 18.9964 28.9121 19.6325C29.0566 19.7238 29.2048 19.8101 29.3559 19.8919C30.2634 19.8505 31.1702 19.7549 32.0369 19.5265C32.2121 19.4803 32.4141 19.4256 32.592 19.3402C32.771 19.2542 32.9035 19.1473 32.9652 19.0099C33.0106 18.9088 33.0523 18.8037 33.0909 18.6954C32.1539 18.5228 31.2918 18.151 30.4638 17.7207ZM35.7404 18.4829C35.7656 18.6403 35.814 18.7959 35.8951 18.9513C36.0658 19.2785 36.4786 19.3764 36.9742 19.2881C37.2144 19.2454 37.4567 19.1605 37.6656 19.0521C37.8762 18.9428 38.0434 18.8146 38.1418 18.6911C38.3478 18.4324 38.4678 18.0877 38.524 17.7026C38.5666 17.4103 38.5715 17.1006 38.5521 16.7989C37.7089 17.4758 36.7653 18.119 35.7404 18.4829ZM38.5172 16.4367C37.6651 17.1344 36.7271 17.7937 35.7181 18.1683C35.7202 17.8924 35.7728 17.6082 35.8302 17.3011L35.831 17.2968L35.831 17.2967C36.0138 16.3204 36.1396 15.2726 36.1276 14.2419C36.3847 14.2183 36.6451 14.2136 36.9087 14.2295C37.4408 14.2617 37.7527 14.4356 37.9627 14.6996C38.1812 14.9741 38.3041 15.3628 38.4158 15.8585C38.4554 16.0344 38.491 16.2303 38.5172 16.4367ZM38.7912 16.2088C38.8839 16.1306 38.9754 16.0523 39.0657 15.9744C39.424 15.6651 39.6983 15.4124 39.8692 15.1305C40.0344 14.858 40.1065 14.5514 40.0375 14.1248C40.0326 14.0944 40.0263 14.0369 40.0186 13.9656C40.0126 13.9095 40.0056 13.8449 39.9976 13.7782C39.9785 13.6188 39.9519 13.4303 39.9134 13.2546C39.8742 13.0751 39.8256 12.9244 39.7691 12.8313C39.741 12.7851 39.7187 12.7661 39.7069 12.7596L39.7066 12.7594C39.7016 12.7567 39.6978 12.7546 39.6833 12.7599C39.4331 12.8517 39.1841 12.9465 38.9348 13.0414C38.0216 13.3891 37.1061 13.7376 36.1278 13.9374C36.3908 13.9145 36.6572 13.9104 36.927 13.9267C37.5269 13.963 37.9261 14.1664 38.2001 14.5107C38.4657 14.8445 38.5998 15.2952 38.7117 15.7918C38.741 15.9217 38.7681 16.0618 38.7912 16.2088ZM35.7077 12.8383C35.6472 12.4942 35.5483 12.2196 35.3998 12.0106C35.4071 12.0275 35.4141 12.0443 35.4209 12.061C35.4637 12.1665 35.4993 12.2757 35.532 12.3756L35.5334 12.3799C35.5672 12.4832 35.5973 12.575 35.6307 12.6541C35.6581 12.7191 35.6839 12.7803 35.7077 12.8383Z" fill="#6B4D00"/>
</svg>
