<svg width="380" height="297" viewBox="0 0 380 297" fill="none" xmlns="http://www.w3.org/2000/svg">
<path d="M106.921 69.9397C105.116 67.739 102.451 66.5034 99.6834 66.317C99.9693 64.8236 99.8927 63.2739 99.3591 61.8009C98.7515 60.1211 97.664 58.7093 96.1526 58.1068C95.6676 57.54 94.9911 57.1724 94.0158 57.1852C92.2416 57.2082 90.3217 58.4463 88.8232 59.3016C88.4989 59.4854 88.1798 59.6794 87.8633 59.876C88.2947 56.7793 88.3585 53.6264 87.2863 50.688C86.0022 47.17 83.1403 43.887 79.3288 43.1287C75.0986 42.2888 71.0777 44.8264 67.9019 47.3436C64.8588 49.7536 62.2931 52.7967 60.3911 56.1793C59.2142 58.2727 58.3028 60.481 57.6569 62.7685C55.5942 60.7516 52.6328 59.6258 49.6841 60.0572C44.4404 60.8257 41.7777 66.4728 42.9163 71.3233C44.4736 77.9635 52.3851 78.6656 57.948 79.7123C65.1728 81.073 72.4997 81.9308 79.8445 82.2678C85.8567 82.5435 91.879 82.4567 97.881 82.0252C101.11 82.6788 104.46 83.9502 107.442 82.0533C108.006 81.6934 108.271 81.1879 108.322 80.6671C109.824 77.1236 109.413 72.9776 106.923 69.9422L106.921 69.9397Z" fill="#FBE8F2"/>
<path d="M299.691 27.5122C299.684 24.8283 299.332 22.1345 298.602 19.5526C297.928 17.1647 297.03 13.7835 294.471 12.7705C291.787 11.7081 288.741 13.6717 286.505 15.0235C285.311 15.7471 284.163 16.5496 283.068 17.4147C282.443 13.994 281.528 10.6227 279.71 7.63289C277.43 3.8899 273.691 0.771825 269.263 0.120584C264.78 -0.540525 260.38 1.49214 257.373 4.77795C254.137 8.31373 252.555 12.9514 251.404 17.5133C250.177 22.3779 249.355 27.3445 248.887 32.3406C240.148 30.0909 230.36 34.837 227.041 43.4939C226.666 44.4708 227.285 45.7996 228.176 46.2798C233.172 48.9637 238.964 48.5657 244.457 48.523C250.565 48.4769 256.673 48.3684 262.777 48.1974C275.207 47.8487 287.626 47.2402 300.033 46.3851C300.533 46.3522 300.951 46.1976 301.293 45.9641C302.036 45.9542 302.786 45.6352 303.319 44.8655C307.128 39.376 305.259 31.048 299.701 27.5056L299.691 27.5122Z" fill="#FBE8F2"/>
<ellipse cx="189" cy="244" rx="152" ry="20" fill="#FBE8F2"/>
<path d="M291.912 34.762C289.508 29.8861 284.919 26.7746 279.79 25.2806C274.66 23.7866 268.285 23.4177 263.209 25.0578C260.866 25.8712 258.777 27.285 257.151 29.158C255.029 30.7054 253.135 32.545 251.528 34.6225C247.337 40.0401 244.776 46.6431 243.391 53.5124C241.161 59.8209 240.003 66.4425 240.646 73.1614C241.825 85.3561 249.481 97.35 262.386 99.2968C265.52 99.7419 268.715 99.4367 271.708 98.4064C274.701 97.3761 277.407 95.65 279.603 93.3701C282.36 91.4017 284.721 88.9318 286.564 86.0895C293.224 76.0625 294.7 62.7892 294.614 51.0648C294.602 45.5604 294.381 39.7731 291.912 34.762Z" fill="#FFB800"/>
<path fill-rule="evenodd" clip-rule="evenodd" d="M280.412 28.1101C280.346 29.1712 279.433 29.9782 278.372 29.9125C272.958 29.5776 267.532 32.5809 263.772 36.9911C260.007 41.4063 257.752 47.0078 255.85 52.8606C253.59 59.8425 251.875 66.9408 251.657 74.1036L251.656 74.1206C251.391 80.8561 253.075 87.525 256.506 93.3273C257.047 94.2425 256.744 95.4229 255.829 95.964C254.914 96.5051 253.733 96.2019 253.192 95.2868C249.386 88.8493 247.517 81.4508 247.809 73.978C248.044 66.3004 249.877 58.8127 252.187 51.6741L252.188 51.6718C254.119 45.7305 256.561 39.515 260.843 34.4932C265.129 29.466 271.637 25.6387 278.609 26.07C279.67 26.1356 280.477 27.049 280.412 28.1101Z" fill="#B96204"/>
<path fill-rule="evenodd" clip-rule="evenodd" d="M282.791 53.9262C283.903 55.4016 284.707 57.2963 284.982 59.0117C285.15 60.0614 284.436 61.0488 283.386 61.2172C282.336 61.3856 281.349 60.6711 281.181 59.6214C281.007 58.5408 280.46 57.2298 279.716 56.2436C278.91 55.1733 278.284 54.9884 278.054 55.0053L278.053 55.0053C276.693 55.1044 274.994 56.3705 273.953 58.4515C272.935 60.6647 272.435 63.0806 272.49 65.5161C272.491 65.56 272.491 65.6039 272.489 65.6477C272.433 66.8752 272.607 68.1023 273.003 69.2653C273.275 70.0225 273.824 70.6485 274.539 71.0161C275.249 71.3806 276.07 71.4639 276.838 71.2501C277.55 71.0115 278.261 70.3995 278.864 69.6657C279.151 69.3162 279.377 68.9843 279.53 68.7416C279.605 68.6213 279.661 68.5258 279.696 68.4645C279.713 68.4339 279.725 68.4121 279.731 68.4003L279.736 68.3913L279.734 68.3956C279.735 68.3939 279.736 68.3923 279.737 68.3906C280.228 67.4513 281.387 67.0858 282.329 67.5744C283.272 68.0641 283.64 69.226 283.151 70.1696L281.442 69.283C283.151 70.1696 283.151 70.1701 283.15 70.1706L283.149 70.1738L283.146 70.1791L283.139 70.193C283.133 70.2037 283.126 70.2174 283.117 70.2337C283.099 70.2664 283.075 70.3101 283.045 70.3634C282.984 70.4698 282.899 70.6157 282.789 70.79C282.571 71.1367 282.252 71.6072 281.838 72.11C281.048 73.0715 279.749 74.3575 277.99 74.9237C277.972 74.9296 277.953 74.9353 277.935 74.9407C276.216 75.437 274.372 75.2581 272.78 74.4406C271.189 73.6232 269.97 72.2289 269.372 70.5426L269.365 70.5222C268.816 68.9199 268.571 67.2299 268.64 65.5383C268.582 62.529 269.207 59.5454 270.469 56.8123C270.477 56.796 270.485 56.7798 270.493 56.7637C271.865 53.9975 274.533 51.402 277.773 51.1657M282.791 53.9262C281.742 52.535 280.008 51.0024 277.774 51.1656L282.791 53.9262Z" fill="#B96204"/>
<path fill-rule="evenodd" clip-rule="evenodd" d="M276.747 64.5793C277.878 62.3178 280.628 61.4011 282.89 62.5319L320.483 81.3284C322.745 82.4592 323.661 85.2093 322.531 87.4709C321.4 89.7324 318.65 90.6491 316.388 89.5183L278.795 70.7218C276.533 69.591 275.617 66.8409 276.747 64.5793Z" fill="#B96204"/>
<path d="M302.597 190.323C314.661 171.534 302.694 146.623 280.486 144.298C268.591 143.052 257.094 148.994 251.229 159.417L215.903 222.2C209.791 233.062 217.641 246.485 230.104 246.485L266.538 246.485L302.597 190.323Z" fill="#055131"/>
<path d="M301.13 217.328C299.766 214.03 295.987 212.462 292.689 213.826L261.875 226.57L266.815 238.513L297.628 225.769C300.926 224.405 302.494 220.625 301.13 217.328Z" fill="#055131"/>
<path d="M304.311 228.404C303.635 224.899 300.245 222.607 296.741 223.284L264.001 229.606L266.452 242.296L299.192 235.974C302.696 235.297 304.988 231.908 304.311 228.404Z" fill="#055131"/>
<path d="M304.475 239.998C304.476 236.429 301.583 233.535 298.014 233.534L264.67 233.525L264.666 246.45L298.011 246.458C301.58 246.459 304.474 243.567 304.475 239.998Z" fill="#055131"/>
<path d="M59.0901 190.324C47.0261 171.535 58.9938 146.623 81.2014 144.298C93.096 143.053 104.593 148.994 110.458 159.417L145.784 222.2C151.896 233.062 144.047 246.486 131.583 246.486L95.1499 246.486L59.0901 190.324Z" fill="#055131"/>
<path d="M60.5575 217.328C61.9216 214.03 65.7009 212.462 68.9989 213.826L99.8122 226.57L94.8726 238.514L64.0593 225.769C60.7613 224.405 59.1935 220.626 60.5575 217.328Z" fill="#055131"/>
<path d="M57.3763 228.404C58.053 224.899 61.4423 222.607 64.9465 223.284L97.6864 229.606L95.2358 242.296L62.4959 235.974C58.9917 235.297 56.6995 231.908 57.3763 228.404Z" fill="#055131"/>
<path d="M57.2126 239.998C57.2117 236.429 60.1042 233.535 63.6731 233.534L97.0179 233.525L97.0212 246.45L63.6764 246.458C60.1075 246.459 57.2135 243.567 57.2126 239.998Z" fill="#055131"/>
<path d="M90.793 82.9147C90.793 64.4304 104.002 48.5868 122.185 45.2616C162.126 37.9573 203.062 37.9573 243.003 45.2616C261.186 48.5868 274.395 64.4304 274.395 82.9147V114.918H90.793V82.9147Z" fill="#EF503A"/>
<path d="M92.7459 89.0524C92.7459 71.5112 105.281 56.4759 122.536 53.3204C162.245 46.0586 202.943 46.0586 242.652 53.3204C259.907 56.4759 272.442 71.5112 272.442 89.0524V119.103H92.7459V89.0524Z" stroke="white" stroke-width="3.90588"/>
<path d="M90.5918 110.428C90.5918 82.5708 113.175 59.9878 141.032 59.9878H224.033C251.89 59.9878 274.473 82.5707 274.473 110.428V151.928C274.473 202.705 233.31 243.868 182.532 243.868C131.755 243.868 90.5918 202.705 90.5918 151.928V110.428Z" fill="#00753F"/>
<mask id="mask0_7360_38389" style="mask-type:alpha" maskUnits="userSpaceOnUse" x="90" y="59" width="185" height="185">
<path d="M90.793 110.428C90.793 82.5708 113.376 59.9878 141.233 59.9878H224.234C252.091 59.9878 274.674 82.5707 274.674 110.428V151.928C274.674 202.705 233.511 243.868 182.734 243.868C131.956 243.868 90.793 202.705 90.793 151.928V110.428Z" fill="#139157"/>
</mask>
<g mask="url(#mask0_7360_38389)">
<path d="M113.992 151.004C113.992 126.339 133.987 106.344 158.652 106.344H205.521C230.186 106.344 250.18 126.339 250.18 151.004V175.951C250.18 213.558 219.694 244.045 182.086 244.045C144.479 244.045 113.992 213.558 113.992 175.951V151.004Z" fill="#3DA94E"/>
<path d="M105.761 119.71H87.7637V128.033H98.6083C106.966 128.033 113.74 134.807 113.74 143.165C113.74 151.522 106.966 158.296 98.6084 158.296H87.7637V245.305H182.087V151.992H160.209C148.507 151.992 137.738 145.607 132.124 135.34C126.854 125.703 116.745 119.71 105.761 119.71Z" fill="#EF503A"/>
<path d="M258.412 119.71H276.41V128.033H265.565C257.208 128.033 250.434 134.807 250.434 143.165C250.434 151.522 257.208 158.296 265.565 158.296H276.41V245.305H182.087V151.992H203.965C215.666 151.992 226.435 145.607 232.05 135.34C237.32 125.703 247.429 119.71 258.412 119.71Z" fill="#EF503A"/>
<path d="M159.538 175.273L179.09 175.207L184.21 180.327V216.637L179.09 221.757H159.538L154.484 216.703V180.327L159.538 175.273ZM173.105 211.849V185.115H165.59V211.849H173.105ZM189.553 206.928H200.592V210.519L202.321 211.915H206.444L208.173 210.519V204.866L206.444 203.469H189.553V175.273H219.279V190.169H208.173V185.182H200.659V193.627H214.225L219.279 198.681V216.77L214.225 221.824H194.674L189.553 216.703V206.928Z" fill="white"/>
</g>
<rect x="117.35" y="35.1909" width="54.0105" height="54.0103" rx="27.0052" fill="#00753F"/>
<rect x="123.244" y="41.0835" width="42.2264" height="42.2262" rx="21.1131" fill="white"/>
<rect x="196.402" y="35.1909" width="54.0105" height="54.0103" rx="27.0052" fill="#00753F"/>
<rect x="202.295" y="41.084" width="42.2264" height="42.2262" rx="21.1131" fill="white"/>
<ellipse cx="144.475" cy="59.8639" rx="9.45184" ry="9.4518" fill="black"/>
<ellipse cx="223.282" cy="59.8639" rx="9.45184" ry="9.4518" fill="black"/>
<path d="M164.982 56.3652C164.235 50.7802 161.299 45.721 156.821 42.3004C152.343 38.8799 146.69 37.3783 141.105 38.1259C135.52 38.8735 130.461 41.8092 127.04 46.287C123.62 50.7648 122.118 56.418 122.866 62.003L143.924 59.1841L164.982 56.3652Z" fill="#00753F"/>
<path d="M202.563 56.3657C203.31 50.7807 206.246 45.7214 210.724 42.3009C215.202 38.8804 220.855 37.3788 226.44 38.1264C232.025 38.874 237.084 41.8096 240.505 46.2875C243.925 50.7653 245.427 56.4185 244.679 62.0035L223.621 59.1846L202.563 56.3657Z" fill="#00753F"/>
<rect width="9.57459" height="5.89203" rx="2.94602" transform="matrix(0.982833 -0.184497 0.184498 0.982833 170.9 81.0522)" fill="#213027"/>
<rect width="9.57459" height="5.89203" rx="2.94602" transform="matrix(-0.982833 -0.184497 -0.184498 0.982833 197.568 81.0522)" fill="#213027"/>
<path d="M146.606 29.0139C147.673 27.9469 147.683 26.1976 146.47 25.3C144.48 23.8275 142.205 22.7657 139.778 22.1886C136.462 21.3998 132.991 21.5473 129.753 22.6146C126.516 23.682 123.638 25.6272 121.441 28.2336C119.833 30.1408 118.635 32.3471 117.911 34.7146C117.47 36.1575 118.518 37.5579 120.01 37.7812C121.503 38.0045 122.867 36.9583 123.398 35.5459C123.914 34.1714 124.663 32.8885 125.618 31.7557C127.164 29.9228 129.187 28.5549 131.464 27.8043C133.741 27.0538 136.182 26.95 138.514 27.5047C139.955 27.8475 141.32 28.4334 142.553 29.2312C143.82 30.0511 145.539 30.0808 146.606 29.0139Z" fill="#213027"/>
<path d="M245.612 37.1242C246.587 38.2763 246.451 40.0203 245.167 40.8138C243.743 41.6942 242.202 42.3785 240.585 42.8446C238.09 43.5636 235.471 43.7469 232.901 43.3824C230.33 43.0179 227.865 42.1138 225.669 40.7296C224.245 39.8323 222.955 38.7465 221.831 37.5049C220.819 36.3859 221.174 34.6729 222.43 33.8371C223.686 33.0013 225.366 33.3693 226.446 34.4227C227.095 35.0557 227.811 35.6205 228.582 36.1066C230.127 37.08 231.86 37.7157 233.668 37.9721C235.476 38.2284 237.317 38.0995 239.071 37.5939C239.948 37.3414 240.792 36.9978 241.591 36.5703C242.922 35.8587 244.638 35.9721 245.612 37.1242Z" fill="#213027"/>
<path d="M121.535 182.918C124.981 181.903 128.956 183.38 132.445 182.523C132.537 182.5 132.629 182.475 132.721 182.448C136.002 181.482 137.879 178.039 136.912 174.758C135.946 171.477 132.503 169.601 129.222 170.567C129.137 170.592 129.053 170.619 128.971 170.647C125.467 171.84 122.877 175.412 119.327 176.457L112.897 178.351C111.081 178.886 109.175 177.847 108.64 176.03C108.256 174.729 108.677 173.324 109.712 172.446L112.079 170.439C113.753 169.021 116.119 168.777 118.224 168.158C121.505 167.191 123.381 163.748 122.415 160.468C121.448 157.187 118.005 155.31 114.725 156.277C113.89 156.523 113.146 156.929 112.516 157.452C109.747 159.754 108.57 163.842 105.701 166.018L90.2223 177.758C85.042 181.687 82.8309 188.41 84.6678 194.646C85.7814 198.428 88.2814 201.65 91.6677 203.668L111.31 215.373C113.661 216.774 115.231 219.217 117.179 221.139C118.769 222.707 120.906 223.654 122.896 223.068C126.177 222.101 128.053 218.658 127.087 215.378C126.576 213.641 125.129 212.389 123.395 211.738C120.453 210.634 117.015 210.54 114.366 208.849L108.368 205.019C106.053 203.542 106.805 199.984 109.52 199.57L121.443 198.838C125.457 198.592 129.441 201.534 133.461 201.395C133.971 201.377 134.487 201.295 135 201.144C138.281 200.178 140.157 196.735 139.191 193.454C138.224 190.174 134.781 188.297 131.501 189.263C129.184 189.946 126.971 191.372 124.556 191.366L115.588 191.345C114.141 191.342 112.868 190.388 112.459 188.999C111.949 187.267 112.94 185.45 114.672 184.94L121.535 182.918Z" fill="#00753F"/>
<path fill-rule="evenodd" clip-rule="evenodd" d="M102.015 192.74C104.324 187.517 101.961 181.411 96.7374 179.103L81.8916 172.542C74.5193 169.284 75.6206 158.496 83.4991 156.794L103.315 152.515C108.897 151.31 112.445 145.807 111.24 140.225C110.034 134.643 104.532 131.095 98.9498 132.301L79.1339 136.58C51.6782 142.509 47.8406 180.103 73.532 191.457L88.3778 198.018C93.6011 200.327 99.7069 197.964 102.015 192.74Z" fill="#00753F"/>
<path d="M137.085 109.163C133.335 103.065 138.213 95.3153 145.333 96.06L183.036 100.003C190.39 100.772 193.407 109.875 188.138 115.062C173.163 129.803 148.092 127.063 137.085 109.163Z" fill="#00753F"/>
<path d="M138.482 107.54C135.818 103.209 139.283 97.7046 144.341 98.2335L182.808 102.257C188.043 102.804 190.281 109.197 186.529 112.89L186.086 113.326C172.047 127.147 148.802 124.321 138.482 107.54Z" fill="#2B3F33"/>
<mask id="mask1_7360_38389" style="mask-type:alpha" maskUnits="userSpaceOnUse" x="137" y="98" width="52" height="25">
<path d="M138.48 107.54C135.817 103.209 139.281 97.7046 144.339 98.2335L182.806 102.257C188.041 102.804 190.279 109.197 186.527 112.89L186.084 113.326C172.045 127.147 148.8 124.321 138.48 107.54Z" fill="black"/>
</mask>
<g mask="url(#mask1_7360_38389)">
<path d="M174.762 125.925C176.713 130.621 172.428 135.513 167.516 134.197L130.157 124.187C125.072 122.824 123.866 116.16 128.15 113.102L128.656 112.74C144.691 101.294 167.204 107.732 174.762 125.925Z" fill="#C58F7C"/>
</g>
<path d="M68.8442 183.988L77.4399 172.62C79.076 170.456 81.9385 169.623 84.4803 170.571L89.3331 172.38C92.5065 173.564 94.1217 177.094 92.9424 180.268L87.716 194.34C86.4117 197.851 82.2934 199.385 79.0094 197.583L70.7872 193.071C67.505 191.27 66.5862 186.975 68.8442 183.988Z" fill="white"/>
<mask id="mask2_7360_38389" style="mask-type:alpha" maskUnits="userSpaceOnUse" x="67" y="170" width="27" height="29">
<path d="M68.8442 183.988L77.4399 172.62C79.076 170.456 81.9385 169.623 84.4803 170.57L89.3331 172.38C92.5065 173.563 94.1217 177.093 92.9424 180.268L87.716 194.339C86.4117 197.851 82.2934 199.385 79.0094 197.583L70.7872 193.071C67.505 191.269 66.5862 186.974 68.8442 183.988Z" fill="white"/>
</mask>
<g mask="url(#mask2_7360_38389)">
<path fill-rule="evenodd" clip-rule="evenodd" d="M90.1121 167.263L70.4405 196.771L68.7617 195.651L88.4334 166.144L90.1121 167.263Z" fill="#EF503A"/>
<path fill-rule="evenodd" clip-rule="evenodd" d="M93.0305 166.897L74.2254 196.965L75.936 198.034L94.741 167.967L93.0305 166.897Z" fill="#EF503A"/>
</g>
<path fill-rule="evenodd" clip-rule="evenodd" d="M301.376 94.0663C295.892 95.6608 292.739 101.399 294.334 106.882C297.582 118.053 289.203 129.215 277.57 129.215H276.521C270.81 129.215 266.18 133.845 266.18 139.555C266.18 145.266 270.81 149.896 276.521 149.896H277.57C302.983 149.896 321.287 125.51 314.192 101.108C312.597 95.6245 306.859 92.4718 301.376 94.0663Z" fill="#00753F"/>
<path d="M308.863 130.392L295.401 125.714C292.838 124.823 291.164 122.357 291.284 119.646L291.511 114.472C291.66 111.089 294.522 108.465 297.905 108.61L312.902 109.251C316.645 109.41 319.372 112.856 318.669 116.536L316.907 125.748C316.203 129.425 312.4 131.621 308.863 130.392Z" fill="white"/>
<mask id="mask3_7360_38389" style="mask-type:alpha" maskUnits="userSpaceOnUse" x="291" y="108" width="28" height="23">
<path d="M309.43 130.151L295.755 126.134C293.152 125.37 291.36 122.988 291.347 120.275L291.322 115.096C291.305 111.709 294.035 108.949 297.422 108.928L312.432 108.837C316.178 108.814 319.07 112.123 318.547 115.832L317.237 125.119C316.714 128.826 313.022 131.206 309.43 130.151Z" fill="white"/>
</mask>
<g mask="url(#mask3_7360_38389)">
<path fill-rule="evenodd" clip-rule="evenodd" d="M286.258 116.175L320.818 124.131L320.365 126.097L285.806 118.142L286.258 116.175Z" fill="#EF503A"/>
<path fill-rule="evenodd" clip-rule="evenodd" d="M284.885 113.577L319.662 120.525L320.057 118.546L285.281 111.599L284.885 113.577Z" fill="#EF503A"/>
</g>
<path d="M308.507 69.3575C308.907 65.787 306.762 62.1298 306.999 58.5448C307.006 58.45 307.014 58.3549 307.025 58.2595C307.406 54.8606 310.47 52.4143 313.869 52.7955C317.268 53.1768 319.714 56.2411 319.333 59.6399C319.323 59.7278 319.312 59.8151 319.298 59.9017C318.732 63.5589 315.666 66.7303 315.253 70.4081L314.506 77.0694C314.295 78.9512 315.649 80.6478 317.531 80.8589C318.88 81.0101 320.19 80.352 320.874 79.1801L322.439 76.4996C323.545 74.6051 323.374 72.2321 323.618 70.0521C323.999 66.6533 327.064 64.207 330.463 64.5882C333.861 64.9694 336.308 68.0337 335.926 71.4326C335.829 72.2976 335.559 73.1009 335.153 73.8116C333.367 76.9387 329.546 78.8084 327.902 82.0122L319.032 99.296C316.063 105.08 309.827 108.426 303.366 107.702C299.448 107.262 295.841 105.361 293.265 102.377L278.323 85.0681C276.535 82.9966 273.856 81.8756 271.625 80.2909C269.804 78.9981 268.501 77.0577 268.732 74.9962C269.113 71.5974 272.177 69.1511 275.576 69.5323C277.375 69.734 278.859 70.9405 279.802 72.5356C281.401 75.2411 282.091 78.61 284.217 80.9245L289.031 86.1659C290.888 88.1885 294.261 86.8294 294.197 84.0839L292.845 72.2155C292.39 68.2195 288.8 64.8075 288.238 60.825C288.167 60.3194 288.158 59.7967 288.217 59.2658C288.598 55.867 291.663 53.4207 295.062 53.8019C298.46 54.1831 300.907 57.2475 300.526 60.6463C300.256 63.0466 299.237 65.4736 299.662 67.8512L301.242 76.6787C301.496 78.1032 302.657 79.1907 304.096 79.352C305.89 79.5532 307.508 78.2617 307.709 76.4673L308.507 69.3575Z" fill="#00753F"/>
<path d="M363.822 68.719C361.418 63.8431 356.829 60.7316 351.7 59.2376C346.57 57.7436 340.196 57.3747 335.12 59.0149C332.776 59.8283 330.688 61.242 329.061 63.1151C326.939 64.6624 325.045 66.5021 323.438 68.5795C319.247 73.9971 316.686 80.6001 315.301 87.4694C313.071 93.7779 311.913 100.399 312.556 107.118C313.735 119.313 321.391 131.307 334.296 133.254C337.43 133.699 340.625 133.394 343.618 132.363C346.611 131.333 349.317 129.607 351.513 127.327C354.27 125.359 356.632 122.889 358.475 120.046C365.134 110.019 366.61 96.7463 366.525 85.0218C366.512 79.5175 366.291 73.7301 363.822 68.719Z" fill="#FFB800"/>
<path fill-rule="evenodd" clip-rule="evenodd" d="M371.044 102.25C370.841 103.293 369.83 103.975 368.787 103.771L348.624 99.8477C347.58 99.6447 346.899 98.6341 347.102 97.5905C347.305 96.547 348.316 95.8657 349.359 96.0688L369.522 99.9925C370.565 100.196 371.247 101.206 371.044 102.25Z" fill="#B96204"/>
<path fill-rule="evenodd" clip-rule="evenodd" d="M352.322 62.0671C352.256 63.1282 351.343 63.9352 350.282 63.8695C344.868 63.5346 339.443 66.538 335.682 70.9481C331.918 75.3633 329.662 80.9648 327.76 86.8177C325.5 93.7996 323.785 100.898 323.567 108.061L323.566 108.078C323.302 114.813 324.986 121.482 328.416 127.284C328.957 128.199 328.654 129.38 327.739 129.921C326.824 130.462 325.643 130.159 325.102 129.244C321.296 122.806 319.427 115.408 319.719 107.935C319.954 100.257 321.787 92.7698 324.097 85.6311L324.098 85.6289C326.029 79.6875 328.471 73.472 332.753 68.4502C337.039 63.423 343.548 59.5957 350.52 60.027C351.581 60.0927 352.388 61.0061 352.322 62.0671Z" fill="#B96204"/>
<path fill-rule="evenodd" clip-rule="evenodd" d="M354.701 87.8837C355.813 89.3592 356.617 91.2538 356.892 92.9692C357.061 94.0189 356.346 95.0064 355.296 95.1747C354.247 95.3431 353.259 94.6286 353.091 93.5789C352.918 92.4983 352.37 91.1873 351.627 90.2011C350.82 89.1308 350.194 88.946 349.964 88.9628L349.963 88.9628C348.603 89.0619 346.904 90.328 345.863 92.409C344.845 94.6222 344.345 97.0381 344.401 99.4736C344.402 99.5175 344.401 99.5614 344.399 99.6053C344.343 100.833 344.517 102.06 344.914 103.223C345.185 103.98 345.734 104.606 346.45 104.974C347.159 105.338 347.98 105.421 348.748 105.208C349.46 104.969 350.171 104.357 350.774 103.623C351.061 103.274 351.287 102.942 351.44 102.699C351.515 102.579 351.571 102.483 351.606 102.422C351.623 102.391 351.635 102.37 351.642 102.358L351.646 102.349L351.644 102.353C351.645 102.351 351.646 102.35 351.647 102.348C352.138 101.409 353.297 101.043 354.239 101.532C355.183 102.022 355.551 103.184 355.061 104.127L353.352 103.241C355.061 104.127 355.061 104.128 355.061 104.128L355.059 104.131L355.056 104.137L355.049 104.151C355.043 104.161 355.036 104.175 355.027 104.191C355.009 104.224 354.985 104.268 354.955 104.321C354.895 104.427 354.809 104.573 354.699 104.748C354.482 105.094 354.162 105.565 353.749 106.068C352.958 107.029 351.659 108.315 349.901 108.881C349.882 108.887 349.863 108.893 349.845 108.898C348.126 109.394 346.282 109.216 344.691 108.398C343.099 107.581 341.88 106.186 341.282 104.5L341.275 104.48C340.727 102.877 340.481 101.187 340.55 99.4958C340.492 96.4865 341.117 93.5029 342.379 90.7698C342.387 90.7535 342.395 90.7373 342.403 90.7212C343.775 87.955 346.443 85.3595 349.683 85.1232M354.701 87.8837C353.652 86.4925 351.918 84.96 349.684 85.1231L354.701 87.8837Z" fill="#B96204"/>
</svg>
