<svg width="40" height="41" viewBox="0 0 40 41" fill="none" xmlns="http://www.w3.org/2000/svg">
<g opacity="0.25">
<path opacity="0.87" fill-rule="evenodd" clip-rule="evenodd" d="M28.4163 7.27051C28.6654 7.26994 28.7817 7.39187 28.7654 7.63626C28.7152 7.65587 28.6654 7.67802 28.6158 7.70276C28.5516 7.8566 28.4908 8.01178 28.4329 8.16825C28.2557 8.43425 28.0782 8.70025 27.9009 8.96625C27.878 8.94879 27.8614 8.92661 27.8511 8.89975C27.8837 8.58939 27.9226 8.27907 27.9674 7.96875C28.0266 7.78365 28.1044 7.6063 28.2002 7.43676C28.26 7.35942 28.3322 7.30403 28.4163 7.27051Z" fill="#A1DCD8"/>
<path opacity="0.855" fill-rule="evenodd" clip-rule="evenodd" d="M31.675 7.93441C31.8702 7.89584 31.9699 7.97344 31.9743 8.16716C31.8659 8.76053 31.5999 9.27035 31.1763 9.69665C31.1869 9.06633 31.3532 8.47894 31.675 7.93441Z" fill="#A1DCD8"/>
<path opacity="0.885" fill-rule="evenodd" clip-rule="evenodd" d="M23.5288 8.16754C23.6748 8.14902 23.7802 8.20445 23.8447 8.33379C23.9225 8.71613 23.9005 9.09295 23.7782 9.46428C23.575 9.83854 23.3808 10.2154 23.1963 10.5948C23.2159 10.208 23.2159 9.82009 23.1963 9.43103C23.2159 9.06083 23.2658 8.69508 23.3459 8.33379C23.3928 8.25918 23.4536 8.20378 23.5288 8.16754Z" fill="#A1DCD8"/>
<path opacity="0.885" fill-rule="evenodd" clip-rule="evenodd" d="M11.3647 8.16754C11.5107 8.14902 11.6161 8.20445 11.6806 8.33379C11.7584 8.71613 11.7365 9.09295 11.6141 9.46428C11.4109 9.83854 11.2168 10.2154 11.0322 10.5948C11.0518 10.208 11.0518 9.82009 11.0322 9.43103C11.0518 9.06083 11.1017 8.69508 11.1819 8.33379C11.2287 8.25918 11.2896 8.20378 11.3647 8.16754Z" fill="#A1DCD8"/>
<path opacity="0.858" fill-rule="evenodd" clip-rule="evenodd" d="M16.7461 9.1981C16.9232 9.17054 17.0341 9.24256 17.0786 9.41423C17.0346 9.87846 16.885 10.3052 16.6297 10.6943C16.5715 10.4022 16.5327 10.1085 16.5133 9.81323C16.5097 9.57436 16.5873 9.36931 16.7461 9.1981Z" fill="#A1DCD8"/>
<path opacity="0.817" fill-rule="evenodd" clip-rule="evenodd" d="M29.9126 9.92851C29.7849 9.93127 29.6632 9.90913 29.5469 9.86201C29.5598 9.62142 29.6819 9.52719 29.9126 9.57939C29.9495 9.69407 29.9495 9.81044 29.9126 9.92851Z" fill="#A1DCD8"/>
<path opacity="0.869" fill-rule="evenodd" clip-rule="evenodd" d="M20.7028 9.86328C20.7361 9.86328 20.7693 9.86328 20.8026 9.86328C20.7924 10.0053 20.7536 10.1383 20.6862 10.2623C20.7001 10.8834 20.5338 11.4486 20.1875 11.958C20.0342 11.3214 20.0896 10.7008 20.3537 10.096C20.4549 9.98783 20.5713 9.91026 20.7028 9.86328Z" fill="#A1DCD8"/>
<path opacity="0.882" fill-rule="evenodd" clip-rule="evenodd" d="M13.4542 10.8271C13.8009 10.8773 13.9284 11.0768 13.8366 11.4256C13.7888 11.6099 13.7223 11.7873 13.6371 11.9576C13.4155 12.2241 13.2104 12.5012 13.022 12.7889C13.0273 12.4237 13.0218 12.0579 13.0054 11.6916C13.0564 11.4498 13.134 11.2171 13.2381 10.9934C13.2981 10.9161 13.3702 10.8607 13.4542 10.8271Z" fill="#A1DCD8"/>
<path opacity="0.886" fill-rule="evenodd" clip-rule="evenodd" d="M23.6284 13.0215C23.8855 13.0238 24.0075 13.1568 23.9942 13.4205C23.9792 13.6608 23.9294 13.8936 23.8446 14.1187C23.6863 14.3321 23.5423 14.5538 23.4123 14.7837C23.3495 14.5118 23.2996 14.2347 23.2627 13.9525C23.3029 13.7034 23.3638 13.4596 23.4456 13.221C23.4908 13.1371 23.5516 13.0706 23.6284 13.0215Z" fill="#A1DCD8"/>
<path opacity="0.885" fill-rule="evenodd" clip-rule="evenodd" d="M15.5489 14.5184C15.8098 14.4952 15.9317 14.6171 15.9147 14.8841C15.867 15.241 15.7728 15.5846 15.632 15.9149C15.471 16.1705 15.2937 16.4143 15.1 16.6464C15.0383 15.999 15.127 15.3673 15.366 14.7512C15.3982 14.6474 15.4591 14.5698 15.5489 14.5184Z" fill="#A1DCD8"/>
<path opacity="0.832" fill-rule="evenodd" clip-rule="evenodd" d="M10.495 15.0509C10.6825 15.0389 10.7712 15.1276 10.761 15.3169C10.7275 15.7379 10.6001 16.1258 10.3787 16.4806C10.2813 16.052 10.2813 15.6197 10.3787 15.1839C10.4153 15.1357 10.4541 15.0914 10.495 15.0509Z" fill="#A1DCD8"/>
<path opacity="0.85" fill-rule="evenodd" clip-rule="evenodd" d="M31.0435 15.3828C31.3068 15.3873 31.4009 15.5203 31.3261 15.7818C31.2034 16.1718 31.0039 16.5154 30.7276 16.8126C30.711 16.807 30.6944 16.8015 30.6777 16.7959C30.7186 16.5053 30.7466 16.2116 30.7609 15.9148C30.8127 15.7115 30.9068 15.5342 31.0435 15.3828Z" fill="#A1DCD8"/>
<path opacity="0.879" fill-rule="evenodd" clip-rule="evenodd" d="M11.6919 16.014C11.8747 15.997 11.9911 16.0746 12.041 16.2467C12.0695 16.6107 12.0252 16.9653 11.908 17.3107C11.7285 17.6176 11.5567 17.9279 11.3926 18.2417C11.409 17.8414 11.3924 17.4424 11.3428 17.0447C11.3839 16.7755 11.4394 16.5095 11.509 16.2467C11.5412 16.143 11.6021 16.0654 11.6919 16.014Z" fill="#A1DCD8"/>
<path opacity="0.839" fill-rule="evenodd" clip-rule="evenodd" d="M27.3527 16.0484C27.4478 16.0336 27.5309 16.0558 27.602 16.1149C27.6619 16.5404 27.5844 16.9394 27.3693 17.3119C27.2971 17.4339 27.2253 17.5556 27.1532 17.6776C27.1119 17.1729 27.1505 16.6743 27.2695 16.1814C27.2915 16.132 27.3194 16.0877 27.3527 16.0484Z" fill="#A1DCD8"/>
<path opacity="0.778" fill-rule="evenodd" clip-rule="evenodd" d="M25.6238 19.4044C25.536 19.3831 25.4805 19.3276 25.4575 19.2382C25.4964 18.9492 25.5463 18.661 25.6071 18.3737C25.6427 18.2154 25.7368 18.1546 25.8898 18.1908C25.94 18.3059 25.9233 18.4109 25.8399 18.5067C25.806 18.8172 25.7338 19.1165 25.6238 19.4044Z" fill="#A1DCD8"/>
<path opacity="0.892" fill-rule="evenodd" clip-rule="evenodd" d="M14.7178 19.5715C14.6956 19.5715 14.6846 19.5824 14.6846 19.6047C14.4391 19.8943 14.2064 20.1936 13.9863 20.5025C14.1181 19.7912 14.301 19.093 14.5349 18.4077C14.626 18.2654 14.7369 18.2431 14.8674 18.3412C14.8896 18.4852 14.8896 18.6295 14.8674 18.7735C14.8196 19.0405 14.7697 19.3065 14.7178 19.5715Z" fill="#A1DCD8"/>
<path opacity="0.988" fill-rule="evenodd" clip-rule="evenodd" d="M19.1066 -0.744025C19.4282 -0.749544 19.7497 -0.744025 20.0709 -0.7274C20.4664 -0.665456 20.8044 -0.493654 21.085 -0.212029C21.4009 0.159471 21.6782 0.558468 21.9162 0.984963C22.0044 1.36045 22.1982 1.66525 22.4981 1.89933C22.6298 1.95542 22.7628 1.95542 22.8971 1.89933C23.4441 1.63137 24.0093 1.40973 24.5928 1.23434C25.1099 1.15597 25.5867 1.25572 26.0226 1.53358C26.238 1.77056 26.399 2.04207 26.5047 2.3482C26.5705 2.45613 26.665 2.52815 26.7873 2.56433C27.1817 2.71059 27.5807 2.84359 27.9843 2.96333C28.7029 3.06593 29.4234 3.15458 30.1456 3.22932C30.8245 3.2776 31.3622 3.57133 31.7582 4.11044C32.0837 4.68137 32.0172 5.2023 31.5587 5.67318C31.2724 6.0126 30.9342 6.28415 30.5446 6.4878C30.2091 6.62359 29.8599 6.69565 29.4972 6.70393C29.159 6.66649 28.8209 6.62772 28.4831 6.58755C27.4633 6.58848 26.4439 6.58848 25.4241 6.58755C24.6896 6.5552 23.9581 6.4887 23.2296 6.38805C22.4881 6.32601 21.7566 6.38144 21.0351 6.5543C20.5255 6.79247 20.0046 7.00307 19.4724 7.18605C18.951 7.31027 18.4245 7.4045 17.893 7.46867C17.2877 7.46561 16.8665 7.18854 16.6295 6.63743C16.5792 6.46918 16.5238 6.30293 16.4633 6.13868C16.3844 6.02167 16.2736 5.96625 16.1308 5.97243C15.1288 6.12541 14.1701 6.41911 13.2547 6.85355C12.3811 7.11519 11.5166 7.40337 10.6612 7.71804C10.1072 7.90979 9.57522 7.86544 9.0652 7.58504C8.81759 7.4054 8.73447 7.16709 8.81583 6.87017C9.08289 6.18706 9.52066 5.63844 10.1292 5.22431C10.3564 5.07189 10.5891 4.92782 10.8274 4.79206C10.472 4.75506 10.1561 4.62758 9.87982 4.40969C9.64199 4.06173 9.65309 3.71813 9.91307 3.37895C10.0184 3.27365 10.1236 3.16838 10.2289 3.06307C11.1805 2.40988 12.2002 1.87789 13.2879 1.46709C13.6056 1.23909 13.9603 1.09502 14.3519 1.03484C14.496 1.02377 14.6401 1.01266 14.7842 1.00159C15.0741 0.930833 15.3622 0.853228 15.6487 0.76884C16.033 0.754077 16.3876 0.643255 16.7127 0.436342C17.1717 -0.0217734 17.7148 -0.343199 18.3419 -0.527901C18.6017 -0.598058 18.8566 -0.670111 19.1066 -0.744025Z" fill="#76CCC6"/>
</g>
<path d="M30.1393 11.831C29.6429 11.0487 28.5551 10.749 27.6235 11.177C26.7499 11.5783 26.5357 12.5432 26.64 13.3717C26.7389 14.1556 27.0524 14.8616 27.8365 15.2391C27.9467 15.3319 28.1508 15.3616 28.2758 15.4082C28.2763 15.4625 28.283 15.5176 28.2944 15.5723C28.2306 15.7175 28.1757 15.8638 28.1457 16.0191C28.1128 16.1893 28.2674 16.3946 28.4816 16.3253C28.5732 16.2956 28.6497 16.3118 28.7427 16.3357C28.9839 16.3977 29.1537 16.1581 29.0511 15.9701C28.9944 15.8665 28.9408 15.7618 28.8969 15.6531C28.888 15.6312 28.8795 15.6088 28.8711 15.5865C28.88 15.5515 28.8762 15.5152 28.8635 15.4806C29.4085 15.2214 29.735 15.0222 29.9991 14.6236C30.5052 13.8601 30.626 12.5967 30.1398 11.831H30.1393Z" fill="#FFB800"/>
<path fill-rule="evenodd" clip-rule="evenodd" d="M28.3455 15.2389C28.4947 15.1985 28.7072 15.2194 28.8688 15.2731C28.9631 15.3045 29.0141 15.4064 28.9828 15.5007C28.9514 15.5951 28.8495 15.6461 28.7551 15.6147C28.6371 15.5755 28.4998 15.5701 28.4394 15.5864C28.3435 15.6123 28.2446 15.5556 28.2187 15.4596C28.1927 15.3637 28.2495 15.2648 28.3455 15.2389ZM28.6111 16.2026C28.7105 16.2013 28.7921 16.2809 28.7934 16.3803C28.8091 17.5973 28.7683 18.34 28.7283 19.0688C28.7273 19.088 28.7262 19.1073 28.7252 19.1265C28.6843 19.8712 28.6458 20.615 28.6704 21.8601C28.6724 21.9595 28.5934 22.0417 28.494 22.0436C28.3946 22.0456 28.3124 21.9666 28.3105 21.8672C28.2856 20.6093 28.3247 19.8554 28.3657 19.1068C28.3667 19.0876 28.3678 19.0684 28.3688 19.0493C28.4087 18.3228 28.449 17.5897 28.4334 16.3849C28.4321 16.2855 28.5117 16.2039 28.6111 16.2026Z" fill="#B58300"/>
<path d="M30.2578 22.1184C30.3006 22.0647 30.3366 22.005 30.3657 21.9395C30.47 21.7061 30.4974 21.4038 30.3093 21.2177C30.597 20.7078 30.1971 20.2381 29.8158 20.0364C29.382 19.8072 28.8915 19.8089 28.4383 19.9518C27.538 20.2355 26.8572 22.3124 26.5399 23.3285C26.4558 21.8232 26.0821 20.2051 25.1822 19.0757C24.2629 17.9214 22.7836 17.7485 21.5129 17.6199C20.1314 17.4804 19.079 17.5531 17.7371 17.9865C16.5926 18.3565 15.6668 18.8734 15.1708 20.2116C14.6245 21.686 14.4972 23.3934 14.3828 24.9785C14.2537 26.7646 14.2558 28.5628 14.295 30.3535C14.3252 31.7264 14.0573 33.9443 15.3097 34.2352C15.473 34.4492 15.6413 34.4725 15.7837 34.5118C15.8744 34.5367 16.1351 34.571 16.2952 34.4602C16.3509 34.5249 16.306 35.5845 16.307 35.8306C16.3114 36.7654 16.3139 37.7003 16.3232 38.6356C16.3275 39.0432 16.3452 39.6749 16.3096 40.0038C16.1132 40.1852 15.6265 40.458 15.6265 40.8051C15.6265 41.1522 15.8129 41.2546 16.3319 41.2546C16.8509 41.2546 17.6993 41.2027 18.3107 41.2027C18.9222 41.2027 18.8847 41.2142 19.02 41.0459C19.1552 40.8776 19.0542 40.465 19.056 40.0988C19.0581 39.6447 19.0495 38.4908 19.0355 38.0371C19.0071 37.1095 18.9841 36.1835 18.9743 35.2554C18.956 33.5307 18.9323 32.132 18.9373 30.4073C18.9398 29.5202 18.9467 28.335 18.9582 27.4471C18.9686 26.6479 18.997 24.689 18.997 24.689C18.997 24.689 19.8739 24.6819 19.9803 24.6701C20.3378 24.6312 20.6986 24.6244 21.0572 24.6092C21.2442 24.6012 21.8968 24.6219 21.8968 24.6219C21.8968 24.6219 21.9223 32.9998 21.9202 36.5172C21.9194 37.4255 21.9417 39.1324 21.9417 39.74C21.9417 40.3476 21.8976 40.8043 21.9667 41.0149C22.0357 41.2254 22.1703 41.2432 22.4486 41.2432L24.1989 41.2546C25.0164 41.2546 25.2872 41.2195 25.3099 40.8846C25.3325 40.5497 24.7776 40.2647 24.7024 40.0948C24.6272 39.9248 24.6664 38.8893 24.6441 38.4199C24.6024 37.5422 24.6326 36.239 24.6334 35.36C24.6348 33.5482 24.6377 31.7372 24.6488 29.9254C24.6542 29.0759 24.6069 27.7163 24.6386 26.8677C25.2687 28.0309 26.3782 27.9832 27.4414 27.2429C28.2013 26.5217 28.7131 25.2267 28.9923 23.5517C29.4001 23.4697 30.0633 23.156 30.2352 22.674C30.2862 22.5306 30.2657 22.4397 30.2737 22.2993C30.1996 22.23 30.1942 22.1695 30.2575 22.1179L30.2578 22.1184Z" fill="#707478"/>
<path d="M19.4439 15.7757C19.528 16.1766 19.7097 16.4721 20.0392 16.6277C20.3125 16.7567 20.6416 16.7161 20.8605 16.5233C21.054 16.3529 21.2039 16.144 21.2584 15.8785C21.3125 15.6129 21.3564 15.1322 21.3193 14.7648C21.2821 14.3973 21.0818 14.0037 20.9107 13.8367C20.7396 13.6696 20.4769 13.6198 20.1866 13.6959C19.8968 13.772 19.7608 13.8849 19.6319 14.1238C19.5673 14.2438 19.5136 14.391 19.4731 14.5538C19.1427 14.6252 18.7638 14.747 18.749 15.125C18.7342 15.5009 19.0967 15.7233 19.4439 15.7753V15.7757Z" fill="#707478"/>
<path fill-rule="evenodd" clip-rule="evenodd" d="M20.5161 14.3735C20.5635 14.3583 20.6142 14.3843 20.6294 14.4316C20.7528 14.8155 20.8115 15.1934 20.8137 15.627C20.8139 15.6704 20.7831 15.7078 20.7404 15.7159C20.585 15.7454 20.3589 15.7555 20.2068 15.7538C20.1571 15.7532 20.1173 15.7125 20.1178 15.6628C20.1184 15.6131 20.1591 15.5732 20.2088 15.5738C20.3315 15.5752 20.4998 15.5683 20.6326 15.5508C20.6244 15.1668 20.5681 14.8293 20.458 14.4867C20.4428 14.4394 20.4688 14.3887 20.5161 14.3735ZM28.5317 20.5747C28.4654 20.5367 28.4073 20.5259 28.3561 20.5382C28.3078 20.5497 28.2592 20.5199 28.2476 20.4716C28.2361 20.4233 28.2659 20.3747 28.3142 20.3631C28.4236 20.3369 28.5292 20.3658 28.6212 20.4185C28.6786 20.4514 28.7331 20.4948 28.7839 20.5441C28.8677 20.484 28.945 20.4477 29.03 20.4265C29.1285 20.4018 29.2337 20.3989 29.3585 20.3954L29.3624 20.3953C29.412 20.3939 29.4534 20.4331 29.4548 20.4828C29.4562 20.5325 29.4171 20.5739 29.3674 20.5752C29.2356 20.5789 29.1504 20.5819 29.0736 20.6011C29.0188 20.6148 28.9661 20.6374 28.9045 20.6794C29.0348 20.846 29.1376 21.046 29.186 21.1933C29.2145 21.2799 29.2346 21.3733 29.2464 21.4666C29.2803 21.4754 29.3315 21.4808 29.4004 21.4782C29.4968 21.4745 29.6121 21.4558 29.7284 21.4244C29.8447 21.393 29.9587 21.3497 30.0531 21.2986C30.1493 21.2464 30.2166 21.1906 30.25 21.1384C30.2767 21.0965 30.3323 21.0842 30.3742 21.1109C30.4161 21.1376 30.4284 21.1933 30.4017 21.2352C30.3444 21.325 30.2462 21.3986 30.1389 21.4568C30.0297 21.516 29.9021 21.5639 29.7754 21.5982C29.6487 21.6324 29.5198 21.6538 29.4073 21.6581C29.3572 21.66 29.3065 21.6587 29.259 21.6521C29.2591 21.668 29.259 21.6837 29.2586 21.6992C29.2566 21.7807 29.2475 21.8591 29.2304 21.9281C29.2136 21.996 29.1875 22.0611 29.1473 22.1104L29.0775 22.0536L29.1473 22.1104C29.1473 22.1104 29.1473 22.1104 29.1473 22.1104C29.0804 22.1926 28.9959 22.2322 28.9036 22.2138C28.8672 22.2065 28.8338 22.1909 28.8036 22.1707C28.8091 22.1452 28.8225 22.1153 28.8489 22.0803C28.8789 22.0406 28.871 21.9842 28.8313 21.9542C28.7916 21.9243 28.7352 21.9322 28.7052 21.9719C28.6948 21.9857 28.6854 21.9995 28.6769 22.0134C28.6939 21.9024 28.6968 21.7874 28.6847 21.6725L28.5952 21.6819L28.5085 21.7059C28.5301 21.784 28.5879 21.9199 28.6669 22.0306C28.629 22.099 28.6145 22.1679 28.6225 22.2349C28.5439 22.4627 28.4006 22.6579 28.2029 22.7771C28.1603 22.8028 28.105 22.7891 28.0794 22.7466C28.0537 22.704 28.0674 22.6487 28.1099 22.623C28.3858 22.4565 28.5472 22.0855 28.5057 21.6913C28.5008 21.6448 28.5324 21.6022 28.5784 21.5935C28.6244 21.5847 28.6694 21.6128 28.6819 21.6579C28.7018 21.7295 28.7654 21.8733 28.8441 21.9655C28.8844 22.0126 28.9174 22.033 28.9388 22.0373C28.9493 22.0394 28.9712 22.0416 29.0077 21.9968L29.0077 21.9967C29.0246 21.9761 29.0421 21.9395 29.0557 21.8848C29.0689 21.8314 29.0769 21.7665 29.0786 21.6947C29.0798 21.6463 29.0782 21.5958 29.0737 21.5448C29.0728 21.5397 29.0723 21.5345 29.0723 21.5293C29.0629 21.4336 29.0438 21.3368 29.015 21.2496C28.9695 21.111 28.864 20.9093 28.7326 20.7532C28.6671 20.6753 28.5985 20.613 28.5317 20.5747ZM28.7583 22.4705C28.7004 22.4192 28.648 22.352 28.6284 22.2683C28.6258 22.2572 28.6239 22.2461 28.6225 22.2349C28.6443 22.1717 28.6612 22.106 28.6728 22.0387C28.6839 22.0539 28.6954 22.0685 28.7072 22.0823C28.7342 22.1139 28.7664 22.1457 28.8036 22.1707C28.7988 22.1927 28.8 22.2114 28.8037 22.2273C28.8127 22.2658 28.8413 22.3064 28.8897 22.346C28.9374 22.3849 28.9969 22.417 29.0529 22.4396C29.1108 22.4631 29.1554 22.4728 29.1719 22.4736C29.1719 22.4736 29.1718 22.4736 29.1718 22.4736L29.1673 22.5635L29.1719 22.4736C29.5111 22.4904 29.8677 22.3945 30.1284 22.1686C30.166 22.1361 30.2228 22.1402 30.2554 22.1777C30.2879 22.2153 30.2838 22.2721 30.2463 22.3047C29.9438 22.5667 29.5387 22.6721 29.1629 22.6534L29.1627 22.6534C29.1172 22.6511 29.051 22.6331 28.9854 22.6065C28.9609 22.5966 28.9352 22.5849 28.9093 22.5716C28.9153 22.5568 28.9216 22.5471 28.9266 22.5418C28.9604 22.5054 28.9582 22.4484 28.9218 22.4146C28.8853 22.3808 28.8284 22.383 28.7946 22.4194C28.7804 22.4346 28.7684 22.4519 28.7583 22.4705ZM28.906 23.1342C29.0456 23.2588 29.2293 23.3018 29.4047 23.2949C29.5802 23.2881 29.7568 23.2313 29.8931 23.1442C29.935 23.1174 29.9472 23.0617 29.9204 23.0198C29.8937 22.978 29.838 22.9657 29.7961 22.9925C29.6871 23.0622 29.5416 23.1095 29.3977 23.1151C29.2538 23.1207 29.1208 23.0847 29.0259 22.9999L29.0258 22.9999C28.9458 22.9285 28.9044 22.8286 28.8936 22.7338C28.8882 22.6866 28.8907 22.6431 28.8983 22.608C28.9015 22.5935 28.9053 22.5814 28.9093 22.5716C28.8637 22.5482 28.8174 22.5194 28.7757 22.4853C28.7699 22.4805 28.7641 22.4755 28.7583 22.4705C28.7416 22.5011 28.73 22.5353 28.7225 22.5695C28.7102 22.6258 28.7073 22.6894 28.7147 22.7543C28.7295 22.8835 28.7865 23.0276 28.906 23.1342ZM28.906 23.1342L28.9659 23.0671L28.906 23.1342C28.906 23.1342 28.906 23.1342 28.906 23.1342ZM17.2038 22.1478C17.2493 22.1677 17.2701 22.2208 17.2502 22.2664C17.2205 22.3344 17.1898 22.4816 17.1614 22.7063C17.1336 22.9269 17.1093 23.2113 17.0882 23.5454C17.046 24.2133 17.0172 25.0751 16.9996 26.0121C16.9645 27.886 16.9742 30.0565 17.011 31.5687C17.0139 31.687 17.0174 31.7937 17.0453 31.8911C17.0773 32.0018 17.1398 32.0959 17.2139 32.1997C17.2202 32.2086 17.2266 32.2175 17.233 32.2265C17.3002 32.3202 17.3749 32.4244 17.4233 32.5466L17.3397 32.5798L17.4233 32.5466C17.4886 32.7113 17.4958 32.8982 17.4573 33.0684C17.4194 33.2355 17.3357 33.3937 17.2094 33.5015C17.2182 33.5487 17.2237 33.5971 17.2243 33.6466C17.2243 33.6466 17.2244 33.6466 17.2244 33.6467L17.1344 33.6478L17.2243 33.6465C17.2243 33.6466 17.2243 33.6466 17.2243 33.6466C17.228 33.9025 17.1001 34.1399 16.9277 34.2885C16.9277 34.2885 16.9277 34.2885 16.9278 34.2884L16.8689 34.2203L16.9277 34.2885C16.7558 34.437 16.5463 34.5052 16.3469 34.5371C16.3216 34.5411 16.2958 34.5343 16.276 34.5181C16.1457 34.4126 16.0159 34.2568 15.9117 34.0852C15.8076 33.9136 15.7252 33.7199 15.6953 33.5363C15.6873 33.4872 15.7206 33.441 15.7697 33.433C15.8187 33.425 15.865 33.4583 15.873 33.5074C15.8981 33.6616 15.9695 33.8334 16.0656 33.9918C16.1528 34.1355 16.2573 34.263 16.3587 34.3524C16.3453 34.3549 16.3319 34.3572 16.3184 34.3594L16.3327 34.4482L16.3893 34.3783C16.3792 34.3701 16.3689 34.3614 16.3587 34.3524C16.5251 34.3212 16.6829 34.2621 16.8101 34.1522L16.8102 34.1522C16.9478 34.0335 17.0472 33.8448 17.0444 33.6491L17.0444 33.649C17.0425 33.5012 16.9857 33.3597 16.9218 33.2064L17.0049 33.1717L16.9219 33.2066C16.8897 33.1298 16.8733 33.022 16.8624 32.9254C16.8568 32.8755 16.8524 32.8254 16.8484 32.7799C16.8443 32.7337 16.8408 32.6931 16.8368 32.6599C16.8308 32.6106 16.866 32.5657 16.9153 32.5598C16.9647 32.5538 17.0095 32.589 17.0155 32.6383C17.0198 32.6745 17.0236 32.7176 17.0275 32.7621L17.0277 32.7641C17.0317 32.8099 17.036 32.8579 17.0413 32.9053C17.0523 33.0032 17.0669 33.0868 17.0879 33.1369L17.0879 33.1371C17.1097 33.1892 17.1326 33.2443 17.1534 33.302C17.2134 33.2284 17.258 33.1334 17.2817 33.0286C17.3134 32.889 17.3062 32.7396 17.256 32.613C17.2161 32.5123 17.1542 32.4257 17.0849 32.3289C17.0791 32.3208 17.0732 32.3125 17.0673 32.3042C16.9934 32.2005 16.9137 32.0843 16.8723 31.9409L16.8723 31.9408C16.8371 31.8182 16.8339 31.6888 16.8311 31.575L16.8311 31.5731L16.831 31.5731C16.7942 30.0583 16.7844 27.8852 16.8197 26.0088C16.8373 25.0706 16.8661 24.2058 16.9085 23.534C16.9297 23.1983 16.9544 22.9097 16.9828 22.6838C17.0108 22.4621 17.0436 22.2895 17.0853 22.1943C17.1052 22.1487 17.1583 22.1279 17.2038 22.1478ZM24.4264 22.1592C24.4657 22.1287 24.5222 22.1358 24.5527 22.1751C24.595 22.2294 24.6251 22.3132 24.6488 22.4053C24.6733 22.5009 24.694 22.6183 24.7116 22.7497C24.7469 23.0128 24.7706 23.3398 24.7863 23.6769C24.8176 24.3515 24.817 25.0741 24.8098 25.4236V25.4237C24.7972 26.0273 24.7839 26.8832 24.7839 27.3579C24.7839 27.4076 24.7436 27.4479 24.6939 27.4479C24.6442 27.4479 24.6039 27.4076 24.6039 27.3579C24.6039 26.8812 24.6172 26.0238 24.6298 25.4199C24.637 25.0735 24.6376 24.355 24.6065 23.6853C24.5909 23.3502 24.5674 23.0292 24.5332 22.7736C24.5161 22.6457 24.4965 22.5361 24.4744 22.4502C24.4515 22.3608 24.4285 22.3086 24.4106 22.2855C24.3801 22.2463 24.3872 22.1898 24.4264 22.1592ZM28.1087 23.3032C28.1509 23.2769 28.2064 23.2897 28.2327 23.3319C28.3014 23.4417 28.4197 23.498 28.5628 23.517C28.7061 23.5361 28.8623 23.5157 28.9833 23.4837C29.0313 23.4709 29.0806 23.4996 29.0933 23.5476C29.106 23.5957 29.0774 23.645 29.0293 23.6577C28.8932 23.6937 28.7124 23.7185 28.539 23.6955C28.3654 23.6723 28.1873 23.599 28.0801 23.4272C28.0537 23.3851 28.0666 23.3295 28.1087 23.3032ZM26.493 23.3338C26.5416 23.3442 26.5726 23.392 26.5622 23.4406C26.4738 23.8547 26.2323 25.1002 26.181 25.9272C26.1779 25.9768 26.1352 26.0145 26.0856 26.0114C26.036 26.0083 25.9982 25.9656 26.0013 25.916C26.0536 25.0745 26.2977 23.8177 26.3862 23.403C26.3966 23.3544 26.4444 23.3234 26.493 23.3338ZM14.9735 33.3781C15.023 33.3734 15.0669 33.4096 15.0717 33.4591C15.0925 33.6756 15.1724 33.883 15.2945 34.0421C15.3247 34.0815 15.3173 34.138 15.2779 34.1683C15.2384 34.1985 15.1819 34.1911 15.1517 34.1517C15.0076 33.964 14.9163 33.7241 14.8925 33.4763C14.8878 33.4268 14.924 33.3829 14.9735 33.3781Z" fill="white"/>
</svg>
