<svg width="145" height="143" viewBox="0 0 145 143" fill="none" xmlns="http://www.w3.org/2000/svg">
<g opacity="0.2">
<mask id="mask0_3639_6049" style="mask-type:luminance" maskUnits="userSpaceOnUse" x="0" y="0" width="145" height="143">
<path d="M144.334 0.373096H0.264297V142.768H144.334V0.373096Z" fill="white"/>
</mask>
<g mask="url(#mask0_3639_6049)">
<mask id="mask1_3639_6049" style="mask-type:luminance" maskUnits="userSpaceOnUse" x="-17" y="-21" width="174" height="178">
<path d="M156.291 24.4L30.8975 -20.4843L-16.5258 112.003L108.868 156.887L156.291 24.4Z" fill="white"/>
</mask>
<g mask="url(#mask1_3639_6049)">
<mask id="mask2_3639_6049" style="mask-type:luminance" maskUnits="userSpaceOnUse" x="-17" y="-21" width="174" height="178">
<path d="M156.291 24.4L30.8975 -20.4843L-16.5258 112.003L108.868 156.887L156.291 24.4Z" fill="white"/>
</mask>
<g mask="url(#mask2_3639_6049)">
<path d="M69.1782 65.7706C67.6273 62.3809 65.0948 59.5801 62.4707 56.9953C59.3624 53.9393 56.025 51.1058 53.2242 47.7488C52.4848 46.8589 53.4271 45.6875 54.461 45.9754C57.7657 46.9112 61.2077 47.4216 64.6498 47.2449C67.5815 47.101 70.4869 46.4335 73.2288 45.393C76.095 44.3068 79.0005 42.9129 81.5461 41.1853C84.4515 39.2091 86.84 36.6504 88.7967 33.7384C90.6748 30.9376 92.1668 27.9144 93.5802 24.8584C93.8223 24.2498 94.0972 23.6609 94.3982 23.0785C94.4113 23.0457 94.4244 23.0196 94.4375 22.9869C94.444 22.9738 94.4571 22.9541 94.4702 22.941C94.5029 22.8691 94.5356 22.7971 94.5749 22.7251C94.8694 22.195 95.6808 22.1296 96.1323 22.4503C96.1847 22.483 96.2239 22.5288 96.2698 22.568C96.6035 22.8167 96.7736 23.2355 96.5446 23.7459C96.1847 24.5312 95.8248 25.3165 95.4583 26.1017C94.6796 28.2023 94.3131 30.4665 94.1626 32.6783C93.9467 35.9306 94.2346 39.2025 94.9348 42.3829C95.6154 45.4388 96.7147 48.3901 98.4096 51.0404C100.366 54.1029 102.853 56.8383 105.588 59.2268C108.801 62.0275 112.355 64.4095 116.032 66.5559C116.503 66.8373 116.615 67.5309 116.373 67.9824C116.085 68.5125 115.568 68.6565 115.011 68.5256C111.406 67.7207 107.656 67.3542 103.985 67.8712C100.53 68.3554 97.2775 69.5792 94.215 71.2151C86.7092 75.2265 79.8905 80.9655 75.2116 88.1245C73.7916 90.297 72.5744 92.607 71.5732 95.0086C70.8992 97.6458 70.0878 100.25 69.1716 102.815C68.7659 103.961 66.7308 103.62 67.0056 102.351C67.0252 102.253 67.0514 102.161 67.071 102.063H67.0645C67.071 102.043 67.0776 102.024 67.0841 102.011C67.6338 99.4977 68.3929 97.0634 69.3418 94.7207C70.873 88.8639 71.7237 82.837 71.3965 76.7774C71.2002 73.0998 70.716 69.1473 69.1782 65.7706ZM73.1176 87.3457C75.349 83.8121 78.0647 80.5794 81.2058 77.7001C84.4843 74.6965 88.1619 72.0985 92.0097 69.8867C95.262 68.0217 98.763 66.5297 102.46 65.8492C105.032 65.3714 107.623 65.3191 110.195 65.5416C105.137 62.1453 100.464 58.0947 97.055 53.0232C93.1941 47.2842 91.6105 40.2103 91.8854 33.3392C91.8919 33.2018 91.905 33.0709 91.9115 32.9401C89.8175 36.4541 87.3112 39.6802 83.9804 42.1865C81.2778 44.2151 78.1498 45.8184 75.0284 47.0879C72.1164 48.2723 69.0473 49.11 65.9128 49.3848C63.0204 49.64 60.1476 49.4437 57.3207 48.9202C61.9865 53.6972 67.516 57.7806 70.6767 63.7551C72.5286 67.2495 73.1961 71.2936 73.5167 75.1938C73.8505 79.251 73.6869 83.3213 73.1176 87.3457ZM40.8694 10.2001C40.8825 10.2001 40.9021 10.2001 40.9218 10.2001C40.9349 10.1936 40.9479 10.1936 40.961 10.1936C40.8367 10.2132 40.8301 10.2067 40.8694 10.2001ZM40.5422 10.2721H40.5488C40.5815 10.2656 40.6207 10.259 40.6535 10.246C40.6338 10.2525 40.5946 10.2656 40.5422 10.2721ZM41.5042 14.7416C40.2281 14.9248 38.8735 14.3555 38.1014 13.3281C37.6564 12.7392 37.4208 12.0848 37.3946 11.3453C37.3684 10.6517 37.6498 9.89913 38.0948 9.36907C39.24 8.01449 41.2097 7.50407 42.7606 8.47911C42.7737 8.48565 42.7868 8.49874 42.7999 8.50528C42.8129 8.51837 42.8326 8.52492 42.8457 8.538C43.8992 9.30363 44.3835 10.6844 44.1413 11.9474C44.0105 12.6345 43.7422 13.2561 43.271 13.7731C42.8064 14.277 42.1847 14.6369 41.5042 14.7416ZM41.2555 12.5036C41.2751 12.497 41.2882 12.497 41.3078 12.497C41.4649 12.4512 41.334 12.4774 41.2555 12.5036ZM39.6653 11.594C39.6653 11.6005 39.6719 11.6005 39.6719 11.6071C39.6457 11.5351 39.613 11.4697 39.6653 11.594ZM39.6981 11.6987C39.6981 11.6856 39.6915 11.666 39.685 11.6398C39.6915 11.6594 39.6981 11.6856 39.6981 11.6987ZM40.5619 10.2656C40.5553 10.2656 40.5553 10.2721 40.5488 10.2721C40.5291 10.2787 40.5095 10.2852 40.4899 10.2852C40.5095 10.2852 40.5226 10.2787 40.5422 10.2721C40.4833 10.2983 40.4244 10.3245 40.3721 10.3507C40.3197 10.3768 40.2674 10.403 40.215 10.4292C40.13 10.4946 40.0449 10.5601 39.9598 10.632C39.9402 10.6451 39.9205 10.6778 39.8944 10.6975C39.914 10.6778 39.9402 10.6451 39.9794 10.5993C39.9467 10.6386 39.9075 10.6778 39.8747 10.7171C39.8682 10.7237 39.8682 10.7367 39.8617 10.7433C39.8551 10.7498 39.8486 10.7564 39.8551 10.7498C39.8028 10.8153 39.7635 10.8873 39.7177 10.9592C39.6915 11.0181 39.6719 11.0836 39.6523 11.1425C39.6392 11.2275 39.6326 11.3061 39.6261 11.3911C39.6326 11.4369 39.6392 11.4827 39.6523 11.5285C39.6588 11.5547 39.6719 11.5874 39.6784 11.6202C39.7177 11.7052 39.757 11.7838 39.8028 11.8688C39.8355 11.9081 39.8682 11.9539 39.9009 11.9932C39.9271 12.0259 39.9598 12.0521 39.9925 12.0848C39.9925 12.0848 40.1496 12.2287 40.215 12.2745C40.2739 12.3138 40.3328 12.3465 40.3917 12.3793C40.5095 12.4316 40.6273 12.4774 40.7516 12.5101C40.8105 12.5232 40.8629 12.5298 40.9218 12.5363C40.961 12.5428 41.0003 12.5428 41.0396 12.5428C41.1115 12.5298 41.177 12.5167 41.249 12.5036C41.2882 12.484 41.3537 12.4709 41.3733 12.4578C41.3995 12.4447 41.4256 12.4316 41.4584 12.412C41.5238 12.3662 41.5827 12.3138 41.6416 12.2549C41.6612 12.2287 41.6808 12.2026 41.7005 12.1764C41.7397 12.124 41.7659 12.0717 41.7986 12.0128C41.851 11.895 41.8903 11.7772 41.9295 11.6529C41.9492 11.5089 41.9622 11.3584 41.9622 11.2079C41.9622 11.1752 41.9557 11.1425 41.9492 11.1097C41.9361 11.0181 41.9099 10.9265 41.8903 10.8349C41.8772 10.8022 41.8641 10.7629 41.8444 10.7237C41.8248 10.6909 41.8052 10.6517 41.7856 10.6124C41.7397 10.5535 41.6939 10.4946 41.6416 10.4357C41.6612 10.4488 41.6808 10.4619 41.7005 10.4815C41.6808 10.4619 41.6612 10.4488 41.6416 10.4292C41.635 10.4292 41.635 10.4226 41.635 10.4226C41.5958 10.3768 41.5369 10.3441 41.5369 10.3441C41.5303 10.3376 41.5303 10.3376 41.5238 10.331C41.5173 10.331 41.5107 10.3245 41.5042 10.3245C41.406 10.2787 41.3013 10.246 41.2031 10.2198C41.1312 10.2067 41.0592 10.1936 40.9872 10.1936C40.9807 10.1936 40.9741 10.1936 40.961 10.1936C40.9872 10.1936 41.0134 10.1871 41.0461 10.1805C41.0068 10.1871 40.9676 10.1936 40.9218 10.1936C40.9021 10.2001 40.8825 10.2001 40.8694 10.2001C40.8563 10.2067 40.8498 10.2067 40.8432 10.2067C40.7778 10.2132 40.7189 10.2329 40.6535 10.246C40.7254 10.2263 40.6273 10.2394 40.5619 10.2656ZM41.5631 10.3703C41.5892 10.3899 41.6154 10.4095 41.6416 10.4292V10.4357C41.5565 10.3703 41.5303 10.3441 41.5369 10.3441C41.5434 10.3507 41.55 10.3637 41.5631 10.3703ZM39.8617 10.7433C39.8682 10.7367 39.8813 10.7171 39.8944 10.6975C39.8747 10.7302 39.8617 10.7433 39.8551 10.7498C39.8551 10.7498 39.8551 10.7433 39.8617 10.7433ZM27.1338 37.3441C29.8888 37.0038 32.4344 35.8848 34.5284 34.0591C35.4315 33.2673 36.5832 34.3339 36.3018 35.2566C36.3018 35.3089 36.3083 35.3548 36.3018 35.4136C35.968 38.0835 36.9169 40.6815 38.8474 42.5465C39.5214 43.2074 38.8212 44.5292 37.905 44.3853C35.1108 43.9403 32.2969 44.7452 30.1767 46.6298C29.5747 47.1664 28.4557 46.8131 28.3575 45.9754C28.0696 43.5215 27.3956 41.1592 26.3289 38.9212C26.0345 38.306 26.414 37.4292 27.1338 37.3441ZM18.6006 83.7859C23.2075 84.3748 27.7948 83.1969 31.7996 80.9131C33.7693 79.7876 35.6409 78.3937 37.1525 76.6923C38.8081 74.8339 40.1365 72.694 41.2948 70.4953C42.6035 68.0348 43.6833 65.4631 44.8088 62.924C45.3912 61.6087 47.5049 62.3547 46.9159 63.6766C46.255 65.162 45.6072 66.6802 44.9201 68.1788C45.0967 68.4994 45.1229 68.9051 44.8612 69.3043C43.9123 70.7243 43.6113 72.6221 43.4935 74.3627C43.343 76.5876 43.5262 78.8191 43.9123 81.0113C44.2657 83.0202 44.7761 85.0358 45.6268 86.8942C46.6411 89.1126 48.2967 91.0299 50.0308 92.7183C52.295 94.9235 54.8929 96.7624 57.4777 98.5619C58.4789 99.2621 57.6282 101.088 56.4569 100.532C51.9678 98.418 46.7458 96.2127 42.1586 99.3341C40.2216 100.656 38.7099 102.488 37.4143 104.432C35.8306 106.82 34.5088 109.392 33.3505 112.01C31.937 115.223 30.8049 118.547 29.9608 121.95C29.8037 122.539 29.0643 122.82 28.5277 122.63C27.9126 122.408 27.7031 121.786 27.8537 121.197C30.4843 111.165 30.9555 99.5108 24.0975 90.9907C22.383 88.8574 20.2955 87.1036 17.8743 85.821C16.8861 85.2975 17.5602 83.655 18.6006 83.7859ZM29.3195 95.3293C31.335 99.8576 32.0483 104.824 31.8912 109.758C32.9252 107.56 34.0965 105.426 35.4118 103.404C38.2453 99.0593 42.3549 95.2834 47.8583 95.4994C48.5846 95.5321 49.3045 95.6303 50.0177 95.7677C47.518 93.6409 45.28 91.2263 43.8272 88.3208C41.8314 84.3487 41.0854 79.4669 41.2293 75.0433C40.6273 75.9398 39.986 76.8101 39.2793 77.6412C36.0597 81.4301 31.5248 84.1131 26.7477 85.4088C25.3277 85.7948 23.8684 86.037 22.4026 86.1351C25.4128 88.5629 27.749 91.8021 29.3195 95.3293ZM68.3929 133.48C68.6547 133.329 68.9753 133.284 69.2829 133.401C70.9974 134.069 72.1687 135.79 72.0967 137.635C72.0247 139.5 70.6571 141.084 68.9099 141.594C67.3459 142.052 65.6314 141.352 64.6367 140.115C63.5504 138.781 63.3868 137.001 64.2703 135.515C65.1013 134.115 66.7896 133.316 68.3929 133.48ZM66.0829 136.824C66.096 136.804 66.1091 136.778 66.1222 136.745C66.1156 136.752 66.096 136.791 66.0829 136.824ZM68.0526 139.5C68.0395 139.5 67.9937 139.507 67.9217 139.507C67.9283 139.52 67.9872 139.513 68.0526 139.5ZM116.242 43.1878C116.242 43.1878 116.242 43.1878 116.235 43.1878C116.215 43.1681 116.176 43.1485 116.143 43.1354C116.163 43.1354 116.209 43.1485 116.242 43.1878ZM114.73 44.8892C113.447 44.0123 112.662 42.324 113.225 40.8058C113.539 39.9616 114.213 39.2484 115.031 38.8754C115.469 38.679 115.914 38.5874 116.392 38.5809C116.641 38.5743 116.876 38.6136 117.099 38.6856C118.532 38.3846 120.024 39.3531 120.593 40.6487C121.261 42.1538 120.665 43.9207 119.317 44.8303C117.91 45.7726 116.143 45.8577 114.73 44.8892ZM118.519 42.4745C118.499 42.5203 118.493 42.553 118.519 42.4745V42.4745ZM118.571 42.3829C118.565 42.3829 118.558 42.3894 118.552 42.4025C118.565 42.3894 118.565 42.3829 118.571 42.3829ZM117.073 43.371C117.04 43.371 117.007 43.371 117.007 43.371C117.014 43.3775 117.04 43.371 117.073 43.371ZM115.476 42.5137C115.476 42.5137 115.476 42.5203 115.483 42.5203C115.443 42.4679 115.391 42.409 115.476 42.5137ZM115.515 42.5792C115.515 42.5792 115.515 42.5726 115.509 42.5595C115.509 42.5661 115.515 42.5792 115.515 42.5792ZM115.267 41.7416C115.267 41.7612 115.26 41.7677 115.267 41.7416V41.7416ZM117.57 40.8647C117.563 40.8647 117.557 40.8647 117.557 40.8647C117.596 40.8778 117.635 40.8778 117.655 40.8712C117.622 40.8712 117.596 40.8647 117.57 40.8647ZM118.63 42.1735C118.63 42.1669 118.63 42.1604 118.63 42.1604C118.643 42.1277 118.65 42.1015 118.65 42.1015C118.643 42.1015 118.637 42.108 118.63 42.1277C118.637 42.0491 118.637 41.9575 118.65 41.8855C118.643 41.879 118.643 41.8724 118.643 41.8659C118.637 41.8201 118.624 41.7743 118.617 41.7285C118.584 41.6761 118.552 41.5649 118.532 41.5191C118.512 41.4798 118.493 41.4471 118.48 41.4144C118.401 41.3228 118.329 41.2311 118.244 41.1395C118.192 41.1068 118.139 41.061 118.087 41.0217C118.054 40.9956 118.022 40.9759 117.989 40.9563C117.93 40.9367 117.865 40.917 117.806 40.8974C117.845 40.9039 117.812 40.8712 117.734 40.8712H117.727C117.721 40.8647 117.714 40.8647 117.707 40.8647C117.707 40.8647 117.714 40.8647 117.721 40.8712C117.707 40.8712 117.701 40.8712 117.694 40.8712C117.334 41.061 116.922 41.0217 116.516 40.8123C116.831 40.9759 116.543 40.8712 116.431 40.8189H116.425C116.392 40.8189 116.359 40.8123 116.327 40.8123C116.281 40.8254 116.222 40.832 116.176 40.8385C116.176 40.8385 116.117 40.8516 116.078 40.8647C116.045 40.8778 116.019 40.8909 115.986 40.9039C115.947 40.9236 115.901 40.9432 115.862 40.9628C115.823 40.9825 115.64 41.0414 115.803 40.9956C115.947 40.9498 115.797 41.0021 115.751 41.0414C115.712 41.0675 115.672 41.1003 115.64 41.1264C115.633 41.133 115.607 41.1657 115.581 41.1919C115.587 41.1722 115.581 41.1657 115.541 41.2181C115.535 41.2311 115.528 41.2377 115.522 41.2508C115.502 41.2639 115.489 41.2769 115.489 41.2769C115.496 41.2769 115.502 41.2704 115.502 41.2704C115.476 41.3097 115.443 41.3489 115.417 41.3882C115.411 41.3947 115.411 41.4013 115.404 41.4078C115.384 41.4864 115.332 41.5845 115.306 41.6565C115.299 41.7154 115.28 41.7939 115.28 41.8135C115.28 41.8201 115.28 41.8332 115.28 41.8463C115.273 41.8201 115.267 41.8201 115.28 41.9248C115.273 41.9379 115.273 41.951 115.273 41.9575C115.28 41.951 115.28 41.951 115.28 41.9444C115.286 42.0033 115.358 42.1865 115.352 42.2585C115.352 42.2585 115.358 42.2651 115.358 42.2716C115.378 42.3109 115.397 42.3567 115.417 42.396C115.424 42.409 115.476 42.5007 115.502 42.5465C115.561 42.6315 115.627 42.7101 115.692 42.7886C115.725 42.8148 115.751 42.8475 115.777 42.8736C115.797 42.8933 115.823 42.9129 115.842 42.9325C115.928 42.998 116.013 43.0569 116.104 43.1158C116.111 43.1223 116.124 43.1289 116.143 43.1354C116.13 43.1354 116.13 43.1419 116.183 43.1616C116.202 43.1747 116.222 43.1812 116.235 43.1878C116.248 43.1943 116.255 43.2008 116.255 43.2074C116.255 43.2008 116.248 43.1943 116.242 43.1878C116.333 43.227 116.418 43.2663 116.51 43.2925C116.53 43.299 116.562 43.3055 116.595 43.3121C116.575 43.3186 116.595 43.3252 116.693 43.3383C116.706 43.3448 116.713 43.3514 116.719 43.3514C116.713 43.3514 116.706 43.3448 116.706 43.3448C116.824 43.3579 116.948 43.3579 117.073 43.3644C117.086 43.3644 117.086 43.3644 117.099 43.3644C117.151 43.3579 117.217 43.3383 117.236 43.3383C117.282 43.3317 117.334 43.3186 117.38 43.3055C117.406 43.299 117.433 43.299 117.459 43.2925C117.57 43.2597 117.557 43.2663 117.406 43.3121C117.518 43.3055 117.655 43.2139 117.753 43.1681C117.825 43.1354 117.891 43.0961 117.956 43.0634C117.989 43.0438 118.008 43.0372 118.015 43.0372C118.087 42.9784 118.166 42.8933 118.205 42.8606C118.244 42.8278 118.277 42.7886 118.316 42.7559C118.316 42.7559 118.316 42.7559 118.316 42.7493C118.349 42.7166 118.486 42.5007 118.539 42.4156C118.558 42.3698 118.578 42.324 118.597 42.2782C118.597 42.2716 118.611 42.2323 118.624 42.1931C118.617 42.2389 118.624 42.2651 118.63 42.1735ZM116.706 43.3448C116.7 43.3383 116.7 43.3383 116.693 43.3383C116.667 43.3317 116.634 43.3186 116.595 43.3121C116.615 43.3121 116.674 43.3186 116.706 43.3448ZM115.28 41.9444C115.28 41.9379 115.28 41.9313 115.28 41.9248C115.28 41.8986 115.28 41.8724 115.28 41.8463C115.286 41.8724 115.293 41.9248 115.28 41.9444ZM117.721 40.8712C117.721 40.8712 117.721 40.8712 117.727 40.8712C117.753 40.8778 117.773 40.8909 117.806 40.8974C117.786 40.8974 117.76 40.8843 117.721 40.8712ZM115.509 41.2704C115.509 41.2639 115.515 41.2573 115.522 41.2508C115.535 41.2377 115.561 41.2115 115.581 41.1919C115.568 41.2181 115.541 41.2573 115.509 41.2704ZM118.63 42.1277C118.63 42.1342 118.63 42.1473 118.63 42.1604C118.63 42.1735 118.624 42.18 118.624 42.1931C118.624 42.1735 118.63 42.1473 118.63 42.1277ZM3.94238 108.986C5.29697 109.471 4.54442 111.578 3.18983 111.093C1.82872 110.609 2.58127 108.496 3.94238 108.986ZM98.1413 137.001C98.3311 136.916 98.5143 136.824 98.7041 136.739C98.8349 136.667 98.9724 136.634 99.1163 136.641C99.2668 136.621 99.4174 136.641 99.5548 136.693C99.7053 136.739 99.8296 136.824 99.9278 136.929C100.046 137.02 100.131 137.131 100.19 137.269C100.222 137.36 100.248 137.452 100.281 137.544C100.314 137.74 100.301 137.936 100.235 138.126C100.19 138.218 100.144 138.303 100.098 138.394C99.9801 138.551 99.8362 138.676 99.6595 138.761C99.4697 138.852 99.2865 138.938 99.0967 139.029C98.9658 139.095 98.8284 139.127 98.6844 139.121C98.5339 139.147 98.3834 139.127 98.246 139.068C98.0955 139.023 97.9712 138.944 97.873 138.833C97.7552 138.741 97.6701 138.63 97.6112 138.493C97.5785 138.401 97.5524 138.309 97.5196 138.224C97.4869 138.021 97.5 137.825 97.5654 137.635C97.6112 137.55 97.6571 137.459 97.7029 137.374C97.8207 137.21 97.9646 137.086 98.1413 137.001ZM130.461 91.9264C131.816 92.4107 131.063 94.5178 129.709 94.0336C128.348 93.5493 129.1 91.4357 130.461 91.9264ZM62.6278 28.15C61.2732 27.6657 62.0257 25.552 63.3868 26.0428C64.7414 26.5271 63.9889 28.6342 62.6278 28.15ZM88.9472 2.6747C87.5926 2.19046 88.3451 0.0767888 89.7063 0.567579C91.0608 1.05182 90.3083 3.15895 88.9472 2.6747ZM2.89537 62.551C4.24995 63.0353 3.49741 65.1424 2.14282 64.6582C0.788239 64.1739 1.54079 62.0603 2.89537 62.551ZM142.993 45.2294C144.348 45.7137 143.595 47.8208 142.234 47.3366C140.879 46.8523 141.632 44.7452 142.993 45.2294ZM100.569 96.4613C100.654 96.4286 100.746 96.4024 100.837 96.3697C101.034 96.337 101.23 96.3501 101.42 96.4155C101.557 96.4679 101.695 96.5137 101.832 96.566C101.983 96.6119 102.107 96.6904 102.205 96.8016C102.323 96.8932 102.408 97.0045 102.467 97.1419C102.539 97.2728 102.571 97.4102 102.565 97.5607C102.585 97.7047 102.565 97.8552 102.513 97.9991C102.467 98.0842 102.414 98.1758 102.369 98.2609C102.257 98.4245 102.113 98.5488 101.937 98.6339C101.845 98.6601 101.754 98.6928 101.662 98.719C101.466 98.7582 101.269 98.7386 101.079 98.6732C100.942 98.6274 100.805 98.575 100.667 98.5292C100.523 98.4834 100.399 98.3983 100.294 98.2936C100.176 98.202 100.091 98.0908 100.032 97.9533C99.967 97.8159 99.9343 97.6785 99.9343 97.5345C99.9147 97.384 99.9343 97.2401 99.9932 97.0961C100.039 97.0045 100.085 96.9194 100.131 96.8278C100.242 96.6707 100.386 96.5464 100.569 96.4613Z" fill="#F38AB9"/>
</g>
</g>
</g>
</g>
</svg>
