<svg width="40" height="41" viewBox="0 0 40 41" fill="none" xmlns="http://www.w3.org/2000/svg">
<g clip-path="url(#clip0_1311_2464)">
<path opacity="0.25" d="M33.107 28.8957C33.0637 28.2739 32.9572 27.6547 32.7902 27.0543C32.4582 25.8618 31.904 24.7346 31.2333 23.6975C30.5543 22.647 29.7568 21.6757 28.904 20.7607C30.4186 19.9892 31.9055 18.7049 32.1618 16.9663C32.4567 14.9653 30.9723 13.1818 29.0971 12.6607C28.202 12.4118 27.2558 12.4244 26.3497 12.6179C27.0773 11.6049 27.9556 10.7014 28.6514 9.66279C29.4071 8.53448 29.8737 7.17299 29.6895 5.80368C29.5204 4.54601 28.4478 2.86423 26.9593 3.36762C26.2333 3.61331 25.5345 4.02176 24.8925 4.43437C24.2312 4.85899 23.6049 5.33942 23.0126 5.8548C22.0548 6.68786 21.189 7.61691 20.3743 8.58925C20.5303 7.41764 20.5893 6.23351 20.5439 5.052C20.511 4.20642 20.4244 3.36292 20.2908 2.52725C20.1869 1.87572 20.0575 1.20437 19.7177 0.627958C19.3732 0.044241 18.8132 -0.356901 18.1321 -0.427844C17.4312 -0.500874 16.7344 -0.187368 16.166 0.196038C15.5502 0.611787 15.0137 1.13917 14.5017 1.67385C13.9912 2.20697 13.5126 2.77347 13.0914 3.37962C12.343 4.45576 11.7903 5.70822 11.735 7.01754C10.9845 6.31437 10.3592 5.47192 9.46515 4.92993C8.3806 4.27319 7.11339 4.23615 6.104 5.04939C5.08939 5.8668 4.74806 7.16673 4.61758 8.40719C4.47353 9.77807 4.40568 11.2606 4.85714 12.584C5.16559 13.488 5.74022 14.319 6.53563 14.8349C4.77937 15.5949 3.25172 16.8322 2.14473 18.4024C1.45424 19.381 0.884302 20.5192 0.817497 21.7315C0.756955 22.8264 1.19797 23.9683 2.12073 24.6005C2.91508 25.1451 3.9036 25.1743 4.81539 24.9396C3.85975 26.7935 2.54974 28.8008 3.64577 30.8399C4.63324 32.676 7.01422 33.2243 8.88269 32.5926C9.74751 32.3005 10.5278 31.8132 11.2162 31.2196C11.1786 31.8727 11.189 32.5268 11.2579 33.181C11.3117 33.6901 11.3874 34.2018 11.5069 34.7C11.6149 35.1502 11.8644 35.5143 12.3331 35.6327C13.0831 35.8221 13.974 35.5644 14.6525 35.2451C15.3571 34.9139 15.9667 34.3938 16.4364 33.7767C16.8785 33.1956 17.1713 32.5242 17.2944 31.8111C18.4839 32.855 19.1389 34.4804 20.6258 35.181C22.6655 36.1413 24.7714 34.7673 26.3283 33.5127C26.5512 33.3333 26.7531 33.1293 26.8601 32.8591C26.9776 32.5639 26.9515 32.2545 26.8862 31.9499C26.7834 31.471 26.654 30.9953 26.5256 30.5206C26.9228 30.6808 27.2912 30.9426 27.6686 31.1241C28.2704 31.4142 28.9081 31.6061 29.5699 31.6964C30.6816 31.8482 32.3685 31.8618 32.9092 30.6547C33.1539 30.1085 33.1477 29.482 33.107 28.8957Z" fill="#76CCC6"/>
</g>
<path d="M31.1934 18.9358C30.8411 18.4837 30.178 18.3648 29.6062 18.3851C29.5729 18.3841 29.5404 18.3826 29.5063 18.3826C28.873 18.3826 27.9468 18.4545 27.1534 18.6077C26.8195 18.3965 26.4445 18.2587 26.0722 18.1873C25.8134 17.5623 25.6217 17.0676 25.2903 16.2913C25.0631 15.7595 24.7659 15.2638 24.4162 14.8305C24.0861 14.4211 23.6185 14.0945 23.1373 13.9393C22.9323 13.8734 22.738 13.8223 22.5377 13.7876C22.5369 13.7876 22.5365 13.7876 22.5356 13.7871C21.8665 13.6692 20.8707 13.5874 20.3783 13.5651C19.8603 13.5418 18.9546 13.516 18.4354 13.5348C18.4192 13.5353 18.4038 13.5363 18.3888 13.5373C18.0284 13.5413 17.6676 13.5571 17.3081 13.5864C16.811 13.627 16.2315 13.6563 15.8758 14.1222C15.5043 14.6085 15.436 15.3272 15.5043 15.9478C15.53 16.1783 15.5756 16.4034 15.6367 16.6229C15.4548 17.2589 15.1866 18.2176 14.9138 19.2179C14.535 20.4719 13.0989 25.7069 12.9713 26.149C12.8436 26.5917 12.5169 26.9139 12.1949 27.1909C11.9793 27.3763 7.75353 29.7502 5.50186 30.9552C5.43952 30.9884 5.39895 31.0375 5.37589 31.093C5.31739 31.1758 5.29732 31.2873 5.33532 31.4157C5.75551 32.8378 5.94681 33.9352 6.44557 35.2617C6.47503 35.34 6.63004 35.6771 6.66805 35.7172C6.76028 35.8154 6.86618 35.8297 6.98489 35.7995C7.10659 35.7683 7.16766 35.6146 7.17278 35.4862C7.17705 35.3836 7.18858 35.2761 7.20524 35.166C8.65411 34.2574 10.4894 33.4014 11.5006 32.8353C13.5426 31.6923 14.9142 30.8982 15.6696 29.9762C16.0449 29.5182 16.5061 28.3394 16.9122 26.5758C17.1479 25.5522 17.5442 23.7157 17.8589 22.24C18.034 22.3179 18.2138 22.3982 18.3952 22.4804C18.6412 23.2914 18.8786 24.0845 19.0511 24.6823C19.394 25.8724 20.0021 28.3147 20.0516 28.7776C20.1012 29.2406 20.1977 30.2553 20.1815 30.7197C20.1708 31.031 19.6609 38.2457 19.5935 41.1227C19.5917 41.2025 19.6114 41.2659 19.6438 41.3145C19.6819 41.4121 19.7583 41.4905 19.8753 41.4999C21.1158 41.598 22.2448 41.5584 23.4909 41.5167C23.5643 41.5143 23.8914 41.4731 23.9379 41.4473C24.0507 41.3849 24.1019 41.2758 24.122 41.137C24.1429 40.9943 24.0426 40.8714 23.9418 40.8178C23.8615 40.7752 23.7795 40.7221 23.698 40.6632C23.8564 39.3734 23.9508 37.0422 24.037 35.743C24.2108 33.1188 24.3077 29.2857 24.0003 28.0643C23.8474 27.4571 23.6629 26.1946 23.241 24.4359C23.0314 23.562 22.6881 22.4339 22.3738 21.4509C22.9302 21.2502 23.5523 21.0008 24.0165 20.7574C24.2044 21.036 24.4277 21.2675 24.7343 21.3989C25.2442 21.6175 25.9582 21.7597 26.9984 21.5763C27.267 21.5287 28.1744 21.0122 28.7551 20.5517C28.7598 20.7272 28.8307 20.9171 28.9157 21.0172C29.0229 21.1441 29.2389 21.214 29.4213 21.2169C29.6164 21.2526 29.8534 21.1946 30.0473 21.1297C30.166 21.3186 30.5221 21.3503 30.7497 21.0965C30.9773 21.2169 31.2856 20.9473 31.4381 20.6712C31.7186 20.1636 31.5184 19.3522 31.1934 18.9348V18.9358ZM22.44 17.3447C22.6052 17.6173 22.7927 17.9529 22.9498 18.281C22.706 18.3098 22.4476 18.3415 22.1923 18.3757C22.2743 18.0351 22.3482 17.6852 22.4404 17.3447H22.44ZM29.0899 20.2523C29.1365 20.2028 29.1749 20.1557 29.2035 20.1121C29.2671 20.0154 29.3085 20.0675 29.3641 20.1473C29.4144 20.2196 29.4644 20.2925 29.5156 20.3634C29.5323 20.3867 29.5601 20.4129 29.5942 20.4397C29.5934 20.4734 29.5904 20.5061 29.584 20.5374C29.4887 20.4045 29.297 20.3569 29.1429 20.3183C29.1249 20.295 29.1074 20.2722 29.0895 20.2523H29.0899Z" fill="#707478"/>
<path d="M19.0299 11.0777C18.9943 11.3657 19.0795 11.626 19.2069 11.9853C19.3343 12.3447 19.6654 12.6416 20.3177 12.6689C21.1252 12.7026 21.4846 11.9893 21.6546 11.3067C21.775 11.3196 21.8955 11.3325 22.0159 11.3454C22.1002 11.3543 22.1696 11.3003 22.1622 11.221C22.1047 10.6177 21.9421 10.0284 21.6779 9.46924C21.6204 9.29327 21.5391 9.1292 21.4271 8.98396C20.9036 8.30636 20.0431 8.55867 19.6124 9.18472C19.4855 9.36911 19.3725 9.5887 19.2798 9.82663C19.1152 9.79044 18.9457 9.73592 18.7742 9.76516C18.4426 9.82217 18.1992 10.1454 18.22 10.4819C18.2463 10.9062 18.6379 11.0331 19.0299 11.0777Z" fill="#707478"/>
<path fill-rule="evenodd" clip-rule="evenodd" d="M15.6308 16.7281C15.677 16.7097 15.7294 16.7321 15.7478 16.7783L15.6642 16.8117L15.5807 16.8451C15.5622 16.799 15.5847 16.7466 15.6308 16.7281ZM16.3266 18.1383C16.4038 18.3042 16.4773 18.4633 16.5483 18.6171C17.0133 19.624 17.3743 20.4059 18.0057 21.3873C18.1171 21.5605 18.3039 21.737 18.521 21.879C18.7381 22.0209 18.978 22.1234 19.1915 22.1554C19.3313 22.1763 19.5347 22.1711 19.7807 22.143C20.0252 22.1151 20.3061 22.0654 20.5982 22.0003C21.1829 21.8701 21.8071 21.6798 22.2677 21.4854C22.3135 21.4661 22.3662 21.4875 22.3856 21.5333C22.4049 21.5791 22.3835 21.6319 22.3377 21.6512C21.8648 21.8508 21.2299 22.044 20.6373 22.176C20.3408 22.242 20.0535 22.2931 19.8011 22.3219C19.5503 22.3505 19.3283 22.3579 19.1649 22.3334C18.9189 22.2965 18.6546 22.1814 18.4225 22.0296C18.1905 21.8779 17.9829 21.6847 17.8543 21.4846C17.2158 20.4922 16.8494 19.6987 16.3845 18.6918C16.3135 18.5381 16.2403 18.3794 16.1634 18.2143C16.0383 17.9456 15.8925 17.603 15.7783 17.3284C15.7211 17.1909 15.6718 17.0701 15.6367 16.9837C15.6191 16.9405 15.6051 16.9059 15.5955 16.8821C15.5907 16.8702 15.587 16.8609 15.5845 16.8547L15.5807 16.8451C15.5807 16.8451 15.5807 16.8451 15.6642 16.8117C15.7478 16.7783 15.7478 16.7783 15.7478 16.7783L15.7516 16.7876C15.754 16.7938 15.7577 16.803 15.7625 16.8148C15.772 16.8385 15.7859 16.873 15.8034 16.916C15.8384 17.002 15.8876 17.1223 15.9445 17.2593C16.0585 17.5334 16.2031 17.8732 16.3266 18.1383Z" fill="white"/>
<path fill-rule="evenodd" clip-rule="evenodd" d="M18.9439 16.3943C18.9899 16.3756 19.0424 16.3978 19.0611 16.4439C19.4879 17.4954 19.7748 18.0703 20.2676 18.8744C20.2936 18.9168 20.2803 18.9722 20.2379 18.9982C20.1955 19.0242 20.1401 19.0109 20.1141 18.9685C19.6154 18.1547 19.3242 17.5707 18.8943 16.5116C18.8756 16.4655 18.8978 16.413 18.9439 16.3943Z" fill="white"/>
<path fill-rule="evenodd" clip-rule="evenodd" d="M20.2005 18.8772C21.4964 18.4987 24.0895 17.9526 25.7787 18.0251C25.8284 18.0272 25.8669 18.0692 25.8648 18.1189C25.8626 18.1685 25.8207 18.2071 25.771 18.2049C24.1115 18.1337 21.5411 18.6732 20.251 19.05C20.2033 19.064 20.1533 19.0366 20.1394 18.9889C20.1254 18.9412 20.1528 18.8912 20.2005 18.8772Z" fill="white"/>
<path fill-rule="evenodd" clip-rule="evenodd" d="M26.2529 20.0235C26.3026 20.0251 26.3416 20.0666 26.34 20.1163C26.3312 20.3938 26.2825 20.6827 26.154 20.9306C26.026 21.1775 25.8059 21.3876 25.5382 21.4325C25.3369 21.4663 25.0974 21.4037 24.9569 21.3335C24.8073 21.2588 24.6931 21.1194 24.6498 20.9983C24.6331 20.9515 24.6575 20.9 24.7043 20.8833C24.7511 20.8665 24.8026 20.8909 24.8193 20.9377C24.8469 21.0149 24.9291 21.1184 25.0374 21.1725C25.1548 21.2312 25.3552 21.2807 25.5084 21.255L25.5084 21.255C25.7018 21.2225 25.8822 21.0638 25.9942 20.8478C26.1057 20.6327 26.1518 20.3734 26.1601 20.1106C26.1617 20.0609 26.2032 20.0219 26.2529 20.0235Z" fill="white"/>
<path fill-rule="evenodd" clip-rule="evenodd" d="M26.9302 19.9903C26.9799 19.9883 27.0218 20.0268 27.0239 20.0765C27.0332 20.3003 26.993 20.601 26.7391 21.0146C26.6071 21.2296 26.4314 21.3672 26.2423 21.4218C26.0526 21.4765 25.8559 21.4456 25.6907 21.3347C25.6495 21.307 25.6385 21.2511 25.6662 21.2098C25.6939 21.1685 25.7498 21.1575 25.791 21.1852C25.9124 21.2667 26.0541 21.2888 26.1924 21.2488C26.3312 21.2088 26.473 21.104 26.5857 20.9204C26.8211 20.5369 26.8518 20.2715 26.8441 20.084C26.842 20.0343 26.8806 19.9924 26.9302 19.9903Z" fill="white"/>
<path fill-rule="evenodd" clip-rule="evenodd" d="M27.4701 20.7668C27.5122 20.7933 27.5248 20.8489 27.4983 20.8909C27.4347 20.9919 27.3832 21.0573 27.323 21.1152C27.2732 21.1632 27.218 21.2052 27.1505 21.2566C27.1392 21.2652 27.1276 21.274 27.1156 21.2832L27.0609 21.2117L27.1157 21.2831C27.014 21.3611 26.8825 21.407 26.7535 21.4097C26.6239 21.4124 26.489 21.3712 26.3928 21.2646C26.3595 21.2277 26.3624 21.1708 26.3993 21.1375C26.4362 21.1042 26.4931 21.1071 26.5264 21.144C26.5797 21.203 26.6592 21.2316 26.7497 21.2297C26.8408 21.2279 26.9352 21.1947 27.0061 21.1403L27.0062 21.1403C27.019 21.1305 27.031 21.1213 27.0425 21.1126C27.1107 21.0606 27.1564 21.0257 27.1981 20.9855C27.2448 20.9406 27.2875 20.8878 27.346 20.795C27.3725 20.7529 27.4281 20.7403 27.4701 20.7668Z" fill="white"/>
<path fill-rule="evenodd" clip-rule="evenodd" d="M27.1538 18.6342C27.1936 18.6044 27.25 18.6125 27.2797 18.6523C27.357 18.7556 27.4596 18.9519 27.5429 19.1633C27.626 19.3741 27.6959 19.6143 27.6982 19.805C27.6988 19.8547 27.659 19.8955 27.6093 19.8961C27.5596 19.8967 27.5188 19.8569 27.5182 19.8072C27.5163 19.65 27.4563 19.4344 27.3755 19.2293C27.2948 19.0249 27.1992 18.8452 27.1356 18.7601C27.1058 18.7203 27.114 18.6639 27.1538 18.6342Z" fill="white"/>
<path fill-rule="evenodd" clip-rule="evenodd" d="M30.4063 20.0508C30.456 20.0498 30.4971 20.0894 30.498 20.1391C30.5006 20.2744 30.4666 20.4705 30.4133 20.6511C30.3863 20.7422 30.3537 20.832 30.3168 20.9105C30.2805 20.9878 30.2375 21.0599 30.1875 21.1109C30.1527 21.1464 30.0957 21.147 30.0602 21.1122C30.0247 21.0774 30.0241 21.0204 30.0589 20.9849C30.0884 20.9549 30.1212 20.9037 30.1539 20.834C30.186 20.7656 30.2156 20.6848 30.2406 20.6001C30.2912 20.4289 30.3201 20.2525 30.318 20.1425C30.3171 20.0928 30.3566 20.0517 30.4063 20.0508Z" fill="white"/>
<path fill-rule="evenodd" clip-rule="evenodd" d="M31.0124 20.052C31.0614 20.0439 31.1077 20.0771 31.1158 20.1262C31.1502 20.3349 31.0964 20.7136 30.8695 21.094C30.844 21.1367 30.7887 21.1507 30.7461 21.1252C30.7034 21.0997 30.6894 21.0445 30.7149 21.0018C30.9244 20.6506 30.9644 20.3145 30.9382 20.1554C30.9301 20.1064 30.9633 20.0601 31.0124 20.052Z" fill="white"/>
<path fill-rule="evenodd" clip-rule="evenodd" d="M29.7854 19.0713C29.539 18.9753 29.1351 18.9449 28.5615 19.0157C28.5122 19.0218 28.4672 18.9868 28.4611 18.9374C28.455 18.8881 28.4901 18.8432 28.5394 18.8371C29.1226 18.7651 29.5625 18.7912 29.8508 18.9036C29.9962 18.9603 30.1091 19.0413 30.179 19.1488C30.2498 19.2576 30.2704 19.3844 30.2473 19.5195L30.2473 19.5195C30.2197 19.6813 30.1657 19.8017 30.0853 19.8859C30.0038 19.9711 29.9035 20.0107 29.8004 20.0258C29.6992 20.0407 29.5918 20.0326 29.491 20.0205C29.4515 20.0158 29.4138 20.0106 29.3772 20.0055C29.3157 19.997 29.2574 19.9889 29.1983 19.9842C29.1488 19.9802 29.1118 19.9368 29.1158 19.8873C29.1198 19.8377 29.1631 19.8008 29.2127 19.8048C29.276 19.8098 29.3445 19.8193 29.41 19.8283C29.4454 19.8332 29.48 19.8379 29.5125 19.8418C29.6102 19.8536 29.6978 19.859 29.7742 19.8477C29.8485 19.8368 29.9081 19.8107 29.9551 19.7615C30.0031 19.7113 30.0461 19.6285 30.0699 19.4892C30.0865 19.3918 30.0706 19.3123 30.0281 19.2469C29.9846 19.1801 29.9074 19.1189 29.7854 19.0713Z" fill="white"/>
<path d="M27.7376 23.6847L27.5455 23.5939C27.3223 23.4877 27.1358 23.3935 26.986 23.3114C26.8362 23.2293 26.713 23.1509 26.6164 23.0762C26.5198 23.0016 26.4453 22.9269 26.3931 22.8524C26.3408 22.7778 26.3009 22.696 26.2734 22.6068C26.2171 22.4245 26.2227 22.2503 26.2902 22.0843C26.3577 21.9184 26.4699 21.8027 26.627 21.7373C26.7139 21.7012 26.8031 21.6881 26.8948 21.6981C26.9865 21.708 27.0728 21.74 27.1535 21.7939C27.1864 21.6927 27.2355 21.6044 27.3008 21.5291C27.3661 21.4537 27.4422 21.398 27.5291 21.3618C27.6862 21.2965 27.8362 21.303 27.9792 21.3813C28.1221 21.4597 28.2218 21.59 28.2781 21.7723C28.3057 21.8615 28.3197 21.9542 28.3201 22.0503C28.3206 22.1464 28.304 22.2589 28.2703 22.3878C28.2366 22.5168 28.1844 22.6682 28.1136 22.8421C28.0429 23.0159 27.9504 23.2262 27.8362 23.4729L27.7376 23.6847Z" fill="#ED5498"/>
<path d="M35.4646 24.0521L35.7261 23.9285C36.0301 23.7838 36.2841 23.6556 36.488 23.5438C36.692 23.432 36.8598 23.3253 36.9913 23.2236C37.1229 23.1219 37.2242 23.0203 37.2954 22.9188C37.3665 22.8173 37.4208 22.7058 37.4584 22.5843C37.535 22.3361 37.5274 22.099 37.4355 21.873C37.3436 21.6469 37.1907 21.4894 36.9769 21.4004C36.8586 21.3512 36.737 21.3334 36.6121 21.347C36.4873 21.3605 36.3698 21.4041 36.2599 21.4775C36.2152 21.3397 36.1483 21.2195 36.0593 21.1169C35.9704 21.0143 35.8667 20.9384 35.7485 20.8891C35.5346 20.8001 35.3304 20.809 35.1357 20.9157C34.9409 21.0224 34.8053 21.1998 34.7286 21.4481C34.6911 21.5695 34.672 21.6957 34.6714 21.8266C34.6707 21.9574 34.6934 22.1106 34.7393 22.2862C34.7851 22.4618 34.8562 22.6679 34.9525 22.9047C35.0488 23.1415 35.1748 23.4278 35.3303 23.7637L35.4646 24.0521Z" fill="#ED5498"/>
<path d="M28.9521 23.5646L28.8464 23.2997C28.724 22.9912 28.6257 22.7286 28.5513 22.512C28.4769 22.2954 28.4234 22.1075 28.3909 21.9485C28.3584 21.7896 28.3456 21.6519 28.3523 21.5356C28.3591 21.4193 28.382 21.3084 28.4211 21.2028C28.501 20.987 28.6301 20.8379 28.8082 20.7555C28.9863 20.673 29.1683 20.6782 29.3542 20.771C29.457 20.8223 29.5456 20.8964 29.6198 20.9933C29.694 21.0901 29.7478 21.2013 29.781 21.3266C29.8822 21.2684 29.9887 21.2372 30.1003 21.2331C30.212 21.2289 30.3192 21.2525 30.422 21.3038C30.6079 21.3966 30.7363 21.5464 30.8074 21.7532C30.8784 21.9599 30.8739 22.1712 30.794 22.387C30.7549 22.4926 30.7013 22.5882 30.6333 22.6739C30.5652 22.7596 30.4703 22.8435 30.3486 22.9255C30.2268 23.0075 30.0726 23.0917 29.886 23.1781C29.6994 23.2645 29.4676 23.3622 29.1905 23.4715L28.9521 23.5646Z" fill="#F38AB9"/>
<path d="M32.9131 23.7141L33.0188 23.4492C33.1412 23.1406 33.2396 22.878 33.314 22.6614C33.3884 22.4448 33.4418 22.257 33.4743 22.098C33.5068 21.939 33.5197 21.8013 33.5129 21.685C33.5061 21.5687 33.4832 21.4578 33.4441 21.3522C33.3642 21.1364 33.2352 20.9873 33.057 20.9049C32.8789 20.8225 32.6969 20.8276 32.511 20.9204C32.4082 20.9717 32.3197 21.0458 32.2454 21.1427C32.1712 21.2395 32.1175 21.3507 32.0842 21.476C31.983 21.4178 31.8766 21.3866 31.7649 21.3825C31.6533 21.3784 31.546 21.4019 31.4432 21.4533C31.2573 21.546 31.1289 21.6958 31.0579 21.9026C30.9869 22.1094 30.9913 22.3206 31.0712 22.5364C31.1103 22.642 31.1639 22.7376 31.232 22.8233C31.3 22.909 31.3949 22.9929 31.5167 23.0749C31.6384 23.1569 31.7926 23.2411 31.9792 23.3275C32.1658 23.4139 32.3977 23.5117 32.6748 23.6209L32.9131 23.7141Z" fill="#F38AB9"/>
<path d="M34.1276 23.8341L34.3197 23.7433C34.543 23.6371 34.7295 23.5429 34.8793 23.4608C35.0291 23.3787 35.1523 23.3003 35.2489 23.2257C35.3455 23.151 35.4199 23.0763 35.4722 23.0018C35.5244 22.9272 35.5643 22.8454 35.5919 22.7562C35.6482 22.5739 35.6426 22.3997 35.5751 22.2338C35.5076 22.0678 35.3953 21.9521 35.2382 21.8867C35.1514 21.8506 35.0621 21.8375 34.9704 21.8475C34.8787 21.8575 34.7925 21.8894 34.7117 21.9433C34.6789 21.8421 34.6298 21.7538 34.5644 21.6785C34.4991 21.6032 34.423 21.5474 34.3361 21.5112C34.1791 21.4459 34.0291 21.4524 33.8861 21.5307C33.7431 21.6091 33.6434 21.7394 33.5871 21.9217C33.5596 22.0109 33.5456 22.1036 33.5451 22.1997C33.5446 22.2958 33.5613 22.4083 33.595 22.5372C33.6287 22.6662 33.6809 22.8176 33.7516 22.9915C33.8223 23.1653 33.9148 23.3756 34.029 23.6223L34.1276 23.8341Z" fill="#F38AB9"/>
<path d="M26.2542 41.4206C26.6341 41.5326 27.1388 41.3195 27.2804 40.8015C27.3859 40.4163 27.2346 39.9871 26.9593 39.8498C26.9408 39.8136 26.9135 39.7833 26.8765 39.764C26.4624 39.5469 25.9628 39.5613 25.7583 40.1759C25.5848 40.6984 25.8397 41.2981 26.2542 41.4201V41.4206Z" fill="#FFB800"/>
<path d="M30.61 40.176C30.406 39.5609 29.9059 39.547 29.4918 39.7641C29.4548 39.7835 29.428 39.8137 29.409 39.8499C29.1338 39.9867 28.9825 40.4165 29.088 40.8016C29.2295 41.3196 29.7343 41.5327 30.1141 41.4207C30.5281 41.2988 30.7831 40.699 30.61 40.1765V40.176Z" fill="#FFB800"/>
<path d="M32.9559 41.4206C33.3357 41.5326 33.8405 41.3195 33.982 40.8015C34.0875 40.4163 33.9362 39.9871 33.661 39.8498C33.6425 39.8136 33.6152 39.7833 33.5782 39.764C33.1641 39.5469 32.6644 39.5613 32.46 40.1759C32.2865 40.6984 32.5414 41.2981 32.9559 41.4201V41.4206Z" fill="#FFB800"/>
<path d="M37.1701 40.8949C37.4301 40.3209 37.1391 39.9135 36.7556 39.7291C36.7213 39.7127 36.6862 39.7112 36.6529 39.7206C36.4026 39.5928 36.0445 39.7598 35.8682 40.1013C35.6309 40.5608 35.8011 41.1051 36.0986 41.3326C36.4229 41.5809 36.9494 41.3827 37.1701 40.8949Z" fill="#FFB800"/>
<path d="M39.1878 22.9146C39.1883 22.7823 38.9033 22.6152 38.7714 22.6172C34.9065 22.6802 31.2272 22.6935 27.3623 22.757C26.8104 22.7659 26.258 22.7748 25.7061 22.7843C25.4451 22.7887 25.1847 22.7927 24.9237 22.7971C24.772 22.7996 24.5883 22.7714 24.4352 22.8175C24.2899 22.7733 24.0873 22.9032 24.1234 23.1193C24.2561 23.9184 24.2927 24.7273 24.3394 25.5363C24.3885 26.3879 24.438 27.2395 24.487 28.0911C24.5855 29.7942 24.6836 31.4974 24.7822 33.2006C24.79 33.3364 24.8793 33.4142 24.9779 33.434C25.0102 33.4588 25.0505 33.4752 25.0986 33.4791C26.8946 33.6219 30.047 33.5302 32.2686 33.5302C34.4902 33.5302 37.6505 33.5124 38.677 33.5124C38.9495 33.5124 39.0569 33.3627 39.0634 33.1693C39.1822 29.6346 39.1698 26.4196 39.1878 22.9161V22.9146Z" fill="#FFB800"/>
<path d="M25.227 20.8039C25.4833 20.6894 25.4671 20.1163 25.1872 20.0142C25.1447 19.9989 25.0915 19.987 25.0346 19.9766C24.794 19.9835 24.5553 19.9904 24.3198 19.9974L23.7295 20.0147C23.5125 20.0212 23.3413 20.215 23.3473 20.4475C23.3533 20.676 23.5278 20.8574 23.7401 20.8574C23.7438 20.8574 23.7475 20.8574 23.7512 20.8574L24.342 20.84C24.6247 20.8316 24.9124 20.8232 25.2025 20.8148C25.2108 20.8113 25.2192 20.8078 25.2279 20.8039H25.227Z" fill="#FFB800"/>
<path d="M29.4003 19.9094C29.391 19.9079 29.3817 19.9064 29.3723 19.9044C28.806 19.8999 28.2345 19.9029 27.6639 19.9118C27.6843 20.2187 27.6385 20.522 27.498 20.7575C28.1959 20.7456 28.8963 20.7411 29.5857 20.749C29.8288 20.578 29.7143 19.9569 29.4003 19.9098V19.9094Z" fill="#FFB800"/>
<path d="M32.1921 19.995C31.9752 19.988 31.7815 19.9845 31.5618 19.9785C31.5981 20.2293 31.5301 20.6565 31.29 20.8558C31.639 20.8642 31.7565 20.8257 32.0999 20.8362C32.5373 20.85 32.9105 20.6726 32.9366 20.4401C32.9626 20.2076 32.6295 20.0084 32.193 19.9945L32.1921 19.995Z" fill="#FFB800"/>
<path fill-rule="evenodd" clip-rule="evenodd" d="M32.1672 20.6819C32.2664 20.6767 32.3511 20.7529 32.3563 20.8522L32.4512 22.659C32.4564 22.7583 32.3801 22.843 32.2809 22.8482C32.1816 22.8534 32.0969 22.7771 32.0917 22.6779L31.9968 20.8711C31.9916 20.7718 32.0679 20.6871 32.1672 20.6819ZM24.2518 20.7035C24.3509 20.6957 24.4375 20.7697 24.4454 20.8688L24.2659 20.883C24.4454 20.8688 24.4454 20.8688 24.4454 20.8688L24.4463 20.8807C24.4469 20.8885 24.4478 20.9001 24.449 20.9151C24.4513 20.9451 24.4547 20.989 24.4588 21.0444C24.4672 21.1552 24.4788 21.3123 24.4917 21.4976C24.5176 21.8681 24.549 22.3518 24.5711 22.8034C24.576 22.9027 24.4994 22.9871 24.4001 22.992C24.3008 22.9968 24.2164 22.9202 24.2115 22.821C24.1896 22.3729 24.1584 21.892 24.1326 21.5227C24.1197 21.3382 24.1082 21.1817 24.0999 21.0714C24.0957 21.0162 24.0924 20.9726 24.0901 20.9428C24.0889 20.9279 24.088 20.9165 24.0874 20.9088L24.0865 20.8972C24.0865 20.8972 24.0865 20.8972 24.2624 20.8832L24.0865 20.8972C24.0787 20.7981 24.1527 20.7114 24.2518 20.7035ZM26.6506 23.0908C26.75 23.0869 26.8337 23.1642 26.8377 23.2635C26.87 24.0742 26.9022 24.8032 26.9345 25.485C27.805 25.4471 28.6002 25.4158 29.3456 25.3904C29.3478 24.7537 29.35 24.0804 29.3522 23.3465C29.3525 23.2471 29.4333 23.1667 29.5327 23.167C29.6321 23.1673 29.7125 23.2481 29.7122 23.3476C29.71 24.0765 29.7078 24.7455 29.7056 25.3784C30.4808 25.3533 31.2045 25.3346 31.9072 25.3211C31.9116 24.6321 31.9181 23.9622 31.9277 23.3467C31.9292 23.2473 32.0111 23.168 32.1105 23.1695C32.2099 23.1711 32.2892 23.2529 32.2876 23.3523C32.2782 23.964 32.2716 24.6297 32.2673 25.3147C32.9822 25.3027 33.6805 25.2962 34.3954 25.2938C34.4106 24.6584 34.4285 24.0432 34.4496 23.4771C34.4534 23.3778 34.5369 23.3003 34.6362 23.304C34.7356 23.3077 34.8131 23.3912 34.8094 23.4906C34.7884 24.0521 34.7706 24.6624 34.7555 25.293C35.3825 25.2922 36.0262 25.2944 36.7082 25.2989C36.717 24.7148 36.724 24.1006 36.7284 23.4484C36.7291 23.349 36.8102 23.269 36.9097 23.2696C37.0091 23.2703 37.0891 23.3514 37.0884 23.4509C37.084 24.103 37.077 24.7173 37.0682 25.3015C37.5795 25.3054 38.1136 25.3104 38.679 25.3163C38.7784 25.3174 38.8582 25.3988 38.8571 25.4982C38.8561 25.5976 38.7747 25.6774 38.6752 25.6763C38.109 25.6704 37.5743 25.6653 37.0625 25.6615C37.049 26.4803 37.0324 27.2405 37.0155 27.9649C37.4555 27.9743 37.9089 27.9848 38.3786 27.9965C38.478 27.999 38.5565 28.0816 38.554 28.181C38.5516 28.2803 38.469 28.3589 38.3696 28.3564C37.9001 28.3447 37.4469 28.3342 37.007 28.3248C37.005 28.4095 37.003 28.4937 37.001 28.5776L36.9976 28.721C36.9812 29.4041 36.9655 30.0605 36.953 30.7114C37.419 30.712 37.8922 30.7124 38.3741 30.7124C38.4735 30.7124 38.5541 30.7929 38.5541 30.8924C38.5541 30.9918 38.4735 31.0724 38.3741 31.0724C37.8898 31.0724 37.4145 31.072 36.9464 31.0714C36.9359 31.6778 36.9286 32.2827 36.9265 32.9034C36.9262 33.0028 36.8453 33.0832 36.7459 33.0828C36.6465 33.0825 36.5662 33.0017 36.5665 32.9022C36.5686 32.2816 36.5759 31.6767 36.5864 31.0709C35.938 31.0699 35.3031 31.0685 34.6772 31.0669C34.6755 31.3549 34.6743 31.6152 34.6733 31.841C34.6721 32.1348 34.6715 32.3703 34.6711 32.5322C34.671 32.6132 34.6709 32.6758 34.6708 32.7181L34.6707 32.7822V32.7824C34.6707 32.7824 34.6707 32.7825 34.4907 32.7824C34.3107 32.7823 34.3107 32.7822 34.3107 32.7822V32.782L34.3108 32.7176C34.3109 32.6752 34.311 32.6125 34.3111 32.5314C34.3115 32.3693 34.3121 32.1336 34.3134 31.8395C34.3143 31.6138 34.3155 31.3537 34.3172 31.066C33.9516 31.065 33.5889 31.0639 33.2281 31.0629C32.9071 31.062 32.5877 31.0611 32.2692 31.0602C32.2706 31.3201 32.272 31.5562 32.2734 31.7632C32.2752 32.0573 32.277 32.2928 32.2782 32.4547C32.2789 32.5357 32.2794 32.5983 32.2797 32.6406L32.2803 32.7047L32.2803 32.7049C32.2803 32.7049 32.2803 32.705 32.1033 32.7065L32.2803 32.705C32.2811 32.8044 32.2013 32.8857 32.1019 32.8866C32.0024 32.8874 31.9212 32.8076 31.9203 32.7081L32.0974 32.7066C31.9203 32.7081 31.9203 32.7081 31.9203 32.7081L31.9197 32.6436C31.9194 32.6012 31.9189 32.5385 31.9182 32.4575C31.917 32.2954 31.9153 32.0598 31.9134 31.7655C31.912 31.5576 31.9106 31.3205 31.9092 31.0593C31.1666 31.0574 30.4279 31.0557 29.6852 31.0548C29.6832 31.63 29.6813 32.2364 29.6793 32.891C29.679 32.9904 29.5982 33.0707 29.4988 33.0704C29.3994 33.0701 29.319 32.9893 29.3193 32.8899C29.3213 32.2356 29.3232 31.6294 29.3252 31.0545C28.6285 31.0539 27.9271 31.0541 27.2146 31.0553C27.2419 31.6455 27.2692 32.2733 27.2966 32.9596C27.3005 33.0589 27.2232 33.1427 27.1239 33.1466C27.0246 33.1506 26.9408 33.0733 26.9369 32.9739C26.9093 32.2823 26.8818 31.6502 26.8543 31.056C26.38 31.0571 25.9005 31.0587 25.4137 31.061C25.3143 31.0614 25.2333 30.9812 25.2328 30.8818C25.2324 30.7824 25.3126 30.7014 25.412 30.701C25.8936 30.6988 26.3681 30.6972 26.8374 30.6961C26.7969 29.8451 26.7565 29.0665 26.7161 28.2925C26.2413 28.2987 25.7515 28.3057 25.2425 28.3133C25.1431 28.3148 25.0613 28.2355 25.0598 28.1361C25.0583 28.0367 25.1377 27.9549 25.2371 27.9534C25.7412 27.9458 26.2267 27.9389 26.6973 27.9327C26.6622 27.2612 26.6272 26.5852 26.5921 25.8605C26.1456 25.8804 25.6794 25.902 25.1901 25.9255C25.0908 25.9302 25.0065 25.8536 25.0017 25.7543C24.997 25.655 25.0736 25.5706 25.1729 25.5659C25.6621 25.5424 26.1284 25.5208 26.5748 25.5009C26.5426 24.8186 26.5103 24.0891 26.4779 23.2778C26.474 23.1785 26.5513 23.0948 26.6506 23.0908ZM26.9517 25.8446C26.987 26.5731 27.0223 27.2525 27.0576 27.9282C27.8514 27.9183 28.6046 27.9108 29.3365 27.9059C29.3391 27.2057 29.3417 26.5013 29.3444 25.7506C28.6045 25.7759 27.8153 25.807 26.9517 25.8446ZM29.7044 25.7386C29.7018 26.4931 29.6992 27.2006 29.6966 27.9037C30.4431 27.8996 31.1706 27.8983 31.9001 27.9003C31.9 27.174 31.9014 26.4202 31.9052 25.6812C31.2029 25.6947 30.4795 25.7135 29.7044 25.7386ZM32.2652 25.6748C32.2614 26.416 32.26 27.1725 32.2601 27.9015C32.9453 27.9043 33.6352 27.9101 34.3474 27.919C34.3576 27.1748 34.3706 26.4043 34.3871 25.6539C33.6745 25.6562 32.9781 25.6628 32.2652 25.6748ZM34.7472 25.653C34.7306 26.4048 34.7176 27.1774 34.7074 27.9237C35.3339 27.9324 35.9795 27.9435 36.6556 27.9573C36.6725 27.2341 36.6891 26.4756 36.7025 25.6589C36.0195 25.6544 35.375 25.6522 34.7472 25.653ZM36.6471 28.3172C35.9724 28.3035 35.328 28.2924 34.7026 28.2837C34.6974 28.7018 34.693 29.109 34.6893 29.4968C34.6852 29.9283 34.682 30.3356 34.6795 30.7069C35.3068 30.7085 35.9432 30.7099 36.593 30.7109C36.6055 30.0571 36.6213 29.3983 36.6377 28.7137L36.6411 28.569C36.6431 28.4855 36.6451 28.4016 36.6471 28.3172ZM34.3195 30.706C34.322 30.3339 34.3252 29.9258 34.3293 29.4934C34.333 29.1053 34.3374 28.6976 34.3427 28.2789C33.6322 28.2701 32.9439 28.2643 32.2603 28.2615C32.2606 28.6585 32.2614 29.045 32.2625 29.4136C32.2638 29.8752 32.2655 30.3088 32.2674 30.7002C32.5876 30.7011 32.9087 30.702 33.2314 30.7029C33.5919 30.7039 33.9543 30.705 34.3195 30.706ZM31.9074 30.6993C31.9055 30.3083 31.9038 29.8754 31.9025 29.4147C31.9014 29.0454 31.9006 28.6582 31.9003 28.2603C31.1704 28.2583 30.4424 28.2596 29.6952 28.2637C29.6923 29.0505 29.6894 29.841 29.6864 30.6948C30.4282 30.6957 31.1659 30.6974 31.9074 30.6993ZM29.3264 30.6945C29.3294 29.8415 29.3323 29.0518 29.3352 28.2659C28.6095 28.2708 27.8629 28.2782 27.0764 28.2879C27.1168 29.0623 27.1573 29.8422 27.1977 30.6953C27.9164 30.6941 28.6238 30.6939 29.3264 30.6945ZM34.4907 32.7824L34.3107 32.7823C34.3107 32.8817 34.3912 32.9623 34.4906 32.9624C34.59 32.9624 34.6707 32.8819 34.6707 32.7825L34.4907 32.7824ZM25.2827 33.2702C25.3821 33.2668 25.4654 33.3446 25.4688 33.444C25.5394 35.5196 25.6232 37.2733 25.7816 39.3904C28.5399 39.3216 31.5058 39.3207 33.7977 39.3374C34.9676 39.346 35.9622 39.3591 36.6643 39.37C37.0154 39.3755 37.2934 39.3805 37.4836 39.384C37.5788 39.3858 37.652 39.3873 37.7014 39.3883C37.7261 39.3888 37.7449 39.3892 37.7575 39.3894L37.7754 39.3898L37.7763 39.3898L37.7765 39.3898C37.7765 39.3898 37.7766 39.3898 37.7727 39.5698C37.7688 39.7498 37.7687 39.7498 37.7687 39.7498L37.7685 39.7498L37.7676 39.7497L37.75 39.7494C37.7374 39.7491 37.7187 39.7487 37.6941 39.7482C37.6448 39.7472 37.5718 39.7458 37.4769 39.744C37.287 39.7404 37.0094 39.7355 36.6587 39.73C35.9573 39.719 34.9638 39.706 33.7951 39.6974C31.4574 39.6804 28.4202 39.6817 25.6197 39.7547C25.5238 39.7572 25.4428 39.6841 25.4355 39.5884C25.2683 37.3879 25.1817 35.5909 25.109 33.4562C25.1056 33.3569 25.1834 33.2736 25.2827 33.2702ZM37.7727 39.5698L37.7688 39.7498C37.8682 39.7519 37.9505 39.6731 37.9527 39.5737C37.9548 39.4743 37.876 39.392 37.7766 39.3898L37.7727 39.5698Z" fill="#B58300"/>
<defs>
<clipPath id="clip0_1311_2464">
<rect width="32.3161" height="36.1346" fill="white" transform="translate(0.8125 -0.4375)"/>
</clipPath>
</defs>
</svg>
