<svg width="42" height="41" viewBox="0 0 42 41" fill="none" xmlns="http://www.w3.org/2000/svg">
<path d="M39.2446 23.3624C39.2495 23.2315 39.1805 23.1463 39.0898 23.1048C39.0884 23.0936 39.0869 23.083 39.0848 23.071C39.0616 22.943 38.9335 22.8606 38.8118 22.8515C35.0105 22.5728 31.2513 23.5242 27.4528 23.3553C27.198 23.1836 26.9419 23.0154 26.6808 22.8536C25.6161 22.1949 24.4987 21.6066 23.3868 21.0331C22.2799 20.4617 21.154 19.9262 20.0098 19.4336C18.9845 18.9924 17.86 18.5146 16.7179 18.6694C16.2282 18.7356 15.7405 18.9488 15.2887 19.1423C15.0087 19.2626 12.9131 20.2232 12.1299 20.5258C11.5965 20.732 11.0638 20.9395 10.5374 21.1633C10.023 21.3822 3.5849 23.8761 2.48221 24.2941C1.70463 24.5889 0.912268 24.8655 0.146649 25.1962C-0.231938 24.9548 -0.674561 24.8373 -1.05385 24.5798C-1.25229 24.4446 -1.56896 24.6543 -1.48662 24.8943C-1.43877 25.0343 -1.23892 25.5164 -1.14181 25.8056C-1.0447 26.0948 0.0361693 28.7731 0.600532 30.3712C0.650494 30.5119 0.789122 30.6315 0.950268 30.5823C2.82069 30.0109 4.60877 29.2248 6.39404 28.4311C6.36238 28.5218 6.34127 28.6154 6.30116 28.6992C5.79238 29.7519 5.54609 31.0509 5.23154 32.1107C4.83606 33.4407 3.87904 36.9204 3.59756 38.3123C3.28723 39.845 3.00857 40.8358 2.64687 42.3572C2.22114 42.6112 1.82848 42.9314 1.55474 43.1298C1.37037 43.2635 1.33308 43.7533 1.60541 43.7561C3.59053 43.7765 5.7952 43.6653 7.75358 43.6865C8.02239 43.6893 8.1575 43.5035 8.21731 43.1397C8.27713 42.7752 8.72045 41.7633 9.06456 39.4249C9.40867 37.0865 10.3263 33.7623 11.182 31.0784C11.8062 31.0685 15.0671 30.9426 16.4231 30.9081C17.7685 30.8743 19.1478 30.9109 20.456 31.2557C20.5193 31.2726 20.577 31.2684 20.627 31.2508C20.9887 31.5252 21.6994 31.438 22.0977 31.433C22.8373 31.4239 23.5557 31.4225 24.2953 31.476C26.5619 31.6392 28.825 31.9714 31.0979 32.0361C32.2189 32.0678 33.3406 32.0248 34.4552 31.9031C35.2736 31.8137 36.1089 31.7799 36.9182 31.623C37.6746 31.4767 38.3572 31.1846 38.8442 30.5682C39.2931 30.0003 39.4972 29.2945 39.5739 28.5838C39.7632 26.8295 39.1791 25.111 39.246 23.3624H39.2446Z" fill="#707478"/>
<path d="M39.7892 20.4242C39.7223 20.0168 39.7392 19.6136 39.6343 19.2069C39.5759 18.9796 39.5119 18.7516 39.4352 18.5306C39.4056 18.4448 39.3719 18.3596 39.3437 18.2731C39.3374 18.2533 39.3325 18.2266 39.3254 18.2027C39.4056 18.0415 39.3219 17.7748 39.0791 17.7446C39.0693 17.7432 39.0608 17.7439 39.0517 17.7432C39.0228 17.6292 38.9335 17.5081 38.7829 17.525C38.3403 17.5736 38.0567 17.7671 37.88 18.0324C37.4853 18.4863 37.1834 18.9979 36.9856 19.5503C36.9617 19.6178 37.0103 19.6804 37.0856 19.691C37.2805 19.7191 37.4747 19.7473 37.6696 19.7754C37.6731 19.8008 37.6774 19.8254 37.6809 19.8493C37.7759 20.4454 38.0546 20.9766 38.6618 21.0653C39.1143 21.1315 39.8877 21.0231 39.7892 20.4242Z" fill="#707478"/>
<path d="M20.7825 24.4007C20.8881 23.9461 20.6791 23.6308 20.5968 23.2023C20.5665 23.0447 20.3491 22.9912 20.2597 22.9841C18.5933 22.849 16.7891 22.8258 15.1178 22.7484C14.9869 22.7421 14.8708 22.8195 14.8223 22.9356C14.6871 23.2593 14.7005 23.6203 14.6949 23.9679C14.6928 24.1305 14.7448 24.2297 14.9088 24.2529C16.7574 24.5098 18.6264 24.4964 20.4863 24.5879C20.5996 24.5935 20.753 24.5245 20.7818 24.4007H20.7825Z" fill="#FFB800"/>
<path d="M43.8724 12.7365C43.8724 12.7365 43.8724 12.7351 43.8724 12.7336C43.8619 12.5056 43.7788 12.0919 43.5572 11.9568C43.2321 11.759 42.7402 11.7281 42.3743 11.7393C40.2934 11.8062 38.1507 12.3002 36.3408 13.3508C34.5984 14.3627 33.2129 15.8559 32.1587 17.5596C31.5972 18.4673 31.1736 19.4004 30.9252 20.4412C30.802 20.957 30.7028 21.4756 30.7366 22.0083C30.7528 22.2715 30.795 22.5298 30.8527 22.7852C30.7795 22.6684 30.7014 22.5544 30.6127 22.4474C30.1166 21.8479 29.3426 21.3954 28.5945 21.2012C27.4158 20.8951 26.1781 21.3067 25.1507 21.9647C25.6686 22.249 26.1809 22.5424 26.6812 22.8521C26.9423 23.0139 27.1984 23.1821 27.4531 23.3538C30.6303 23.4952 33.7801 22.8528 36.9502 22.8021C36.7433 22.9428 36.5491 23.1061 36.3739 23.2975C35.8151 23.9062 35.4401 24.7464 35.3113 25.5585C35.267 25.8371 35.255 26.1158 35.2824 26.3923C34.9278 25.8104 34.4598 25.3593 33.6372 25.3467C32.3185 25.3255 31.1651 26.1158 30.5768 27.2318C30.301 26.3508 29.7549 25.5564 29.0287 24.9786C27.9612 24.1293 26.5447 23.9259 25.2337 24.213C23.8242 24.5212 22.5554 25.3347 21.4732 26.2629C20.3888 27.1924 19.4339 28.2972 18.6746 29.5069C17.7682 30.9509 17.1363 32.6031 17.1377 34.3251C17.1377 34.3976 17.1602 34.456 17.1961 34.501C17.2397 34.5693 17.3129 34.6185 17.4192 34.6213C21.2951 34.7241 25.1767 34.8437 29.054 34.7522C30.9955 34.7065 32.9342 34.5862 34.8736 34.4862C36.7693 34.3884 38.6679 34.323 40.5651 34.2484C40.9964 34.2315 41.4278 34.2294 41.8585 34.216C42.1315 34.2076 42.5382 34.2005 42.793 34.0922C43.1983 33.9198 43.2764 33.6932 43.2848 33.3118C43.2933 32.9304 43.3383 31.3977 43.3383 30.4456C43.3383 29.4935 43.4404 27.191 43.4453 25.569C43.4502 23.9336 43.5396 22.3271 43.5952 20.6924C43.6318 19.6221 43.6768 18.5912 43.7556 17.523C43.8204 16.649 43.9055 15.7722 43.9266 14.8961C43.9407 14.3134 43.9963 13.4521 43.8724 12.7351V12.7365ZM38.6623 21.0654C38.055 20.9767 37.7763 20.4447 37.6813 19.8494C37.6778 19.8255 37.6736 19.8008 37.6701 19.7755C37.4752 19.7474 37.2809 19.7192 37.086 19.6911C37.01 19.6798 36.9615 19.6172 36.9861 19.5503C37.1845 18.9979 37.4857 18.4863 37.8805 18.0325C38.0247 17.8164 38.2415 17.6496 38.5553 17.5687C38.4568 18.7678 38.6771 19.9845 39.2288 21.0527C39.0359 21.0907 38.8276 21.09 38.6616 21.0661L38.6623 21.0654Z" fill="#FFB800"/>
<path fill-rule="evenodd" clip-rule="evenodd" d="M37.6482 34.2011C37.7472 34.1619 37.8593 34.2103 37.8986 34.3093L37.7193 34.3804L37.54 34.4515C37.5007 34.3525 37.5492 34.2404 37.6482 34.2011ZM41.5051 43.5657C41.3284 43.6429 41.3284 43.6429 41.3284 43.6428L41.3283 43.6427L41.3113 43.6038C41.3002 43.5782 41.2837 43.5405 41.2626 43.492C41.2204 43.395 41.1594 43.2549 41.0846 43.0826C40.9349 42.7378 40.7295 42.2638 40.507 41.7466C40.0622 40.7131 39.5475 39.5045 39.2713 38.812C39.091 38.3607 38.6581 37.2704 38.2704 36.2933C38.0766 35.8046 37.894 35.3442 37.7598 35.0059L37.54 34.4515C37.54 34.4515 37.54 34.4515 37.7193 34.3804C37.8986 34.3093 37.8985 34.3093 37.8986 34.3093L38.1184 34.8637C38.2525 35.202 38.4351 35.6624 38.629 36.151C39.0167 37.1284 39.4494 38.2181 39.6295 38.669L39.6295 38.669C39.9035 39.3558 40.4162 40.5598 40.8613 41.5941C41.0836 42.1108 41.2888 42.5844 41.4384 42.9289C41.5132 43.1012 41.5741 43.2411 41.6162 43.3379C41.6373 43.3864 41.6538 43.424 41.6649 43.4496L41.6819 43.4885C41.6819 43.4885 41.6819 43.4886 41.5051 43.5657ZM41.5051 43.5657L41.3284 43.6428C41.371 43.7405 41.4847 43.7851 41.5823 43.7425C41.6799 43.6999 41.7245 43.5861 41.6819 43.4885L41.5051 43.5657Z" fill="#B58300"/>
<path fill-rule="evenodd" clip-rule="evenodd" d="M27.7403 34.5008C27.6443 34.4648 27.5356 34.5092 27.4976 34.6L27.6714 34.6651L27.8452 34.7303C27.8832 34.6395 27.8363 34.5368 27.7403 34.5008ZM24.0011 43.0864C24.1724 43.1572 24.1724 43.1572 24.1724 43.1571L24.1725 43.157L24.189 43.1213C24.1998 43.0978 24.2157 43.0633 24.2362 43.0188C24.2771 42.9299 24.3362 42.8015 24.4088 42.6434C24.5539 42.3274 24.753 41.8928 24.9688 41.4186C25.3999 40.4711 25.8989 39.363 26.1668 38.7281C26.3415 38.3144 26.7612 37.3148 27.137 36.4189C27.325 35.9709 27.502 35.5488 27.6321 35.2386L27.8452 34.7303C27.8452 34.7303 27.8452 34.7303 27.6714 34.6651C27.4976 34.6 27.4976 34.6 27.4976 34.6L27.2845 35.1083C27.1544 35.4184 26.9774 35.8405 26.7894 36.2885C26.4135 37.1845 25.994 38.1837 25.8195 38.597L25.8195 38.597C25.5538 39.2267 25.0568 40.3305 24.6253 41.2788C24.4097 41.7525 24.2108 42.1868 24.0658 42.5026C23.9933 42.6605 23.9343 42.7888 23.8934 42.8776C23.8729 42.922 23.857 42.9565 23.8462 42.98L23.8297 43.0156C23.8297 43.0157 23.8297 43.0157 24.0011 43.0864ZM24.0011 43.0864L24.1724 43.1571C24.1311 43.2466 24.0209 43.2875 23.9262 43.2485C23.8316 43.2094 23.7884 43.1051 23.8297 43.0156L24.0011 43.0864Z" fill="#B58300"/>
<path fill-rule="evenodd" clip-rule="evenodd" d="M42.1212 12.3254C42.1693 12.4204 42.1314 12.5365 42.0364 12.5846C41.0949 13.0619 40.2492 13.792 39.6966 14.6831L39.6965 14.6831C38.3303 16.8847 38.3862 19.8421 39.9784 21.8664C40.0227 21.9227 40.0321 21.9989 40.0029 22.0643C39.9738 22.1296 39.9108 22.1735 39.8394 22.1781C38.8768 22.2408 37.9068 22.4176 37.1357 22.9109C37.046 22.9683 36.9267 22.9421 36.8693 22.8524C36.8119 22.7627 36.8381 22.6434 36.9278 22.586C37.6817 22.1036 38.5876 21.9051 39.4653 21.8211C37.9727 19.6745 37.9865 16.7071 39.3688 14.4797C39.9632 13.5215 40.8655 12.7457 41.862 12.2406C41.957 12.1924 42.073 12.2304 42.1212 12.3254Z" fill="#B58300"/>
<path fill-rule="evenodd" clip-rule="evenodd" d="M15.3951 24.4489C15.4157 24.498 15.3925 24.5545 15.3434 24.5751C15.1947 24.6373 15.0294 24.7063 14.8501 24.7813C13.7345 25.2475 12.0751 25.941 10.5001 26.6204C8.66828 27.4106 6.96057 28.1776 6.34941 28.5466C6.30383 28.5742 6.24455 28.5595 6.21702 28.5139C6.18949 28.4683 6.20413 28.4091 6.24972 28.3815C6.87496 28.004 8.59776 27.231 10.4237 26.4433C11.9999 25.7634 13.6604 25.0695 14.7758 24.6033C14.9551 24.5284 15.1204 24.4593 15.2689 24.3971C15.318 24.3766 15.3745 24.3997 15.3951 24.4489Z" fill="white"/>
<path fill-rule="evenodd" clip-rule="evenodd" d="M16.142 24.4805C16.1909 24.4595 16.2476 24.4822 16.2686 24.5311C16.3363 24.6892 16.5016 24.8168 16.7512 24.9131C16.9986 25.0084 17.3123 25.0665 17.6491 25.0965C18.3223 25.1566 19.0661 25.103 19.504 25.0306C19.5565 25.0219 19.6061 25.0575 19.6148 25.11C19.6235 25.1625 19.588 25.2122 19.5354 25.2209C19.0838 25.2955 18.3235 25.3503 17.632 25.2886C17.2864 25.2578 16.9528 25.1975 16.6818 25.093C16.4131 24.9894 16.1893 24.8357 16.0913 24.6071C16.0703 24.5581 16.093 24.5015 16.142 24.4805Z" fill="white"/>
<path fill-rule="evenodd" clip-rule="evenodd" d="M16.8837 24.9427C16.9319 24.9201 16.9893 24.9409 17.0119 24.9892C17.1205 25.2212 17.3445 25.3981 17.6514 25.5314C17.9576 25.6644 18.3353 25.7491 18.7327 25.8031C19.3299 25.8843 19.9555 25.8948 20.4324 25.9028C20.5918 25.9055 20.7346 25.9079 20.8541 25.9125M16.8837 24.9427C16.8355 24.9653 16.8147 25.0227 16.8372 25.0709L16.8837 24.9427ZM16.8372 25.0709C16.9739 25.3628 17.246 25.5656 17.5746 25.7083L16.8372 25.0709ZM17.5746 25.7083C17.9039 25.8514 18.3012 25.9391 18.7067 25.9942L17.5746 25.7083ZM18.7067 25.9942C19.3166 26.0771 19.9614 26.0879 20.4393 26.0959L18.7067 25.9942ZM20.4393 26.0959C20.5952 26.0985 20.7334 26.1008 20.8467 26.1052L20.4393 26.0959ZM21.4626 26.0001C21.4652 26.0533 21.4241 26.0984 21.3709 26.101C21.1921 26.1095 21.0169 26.1117 20.8468 26.1052L20.8467 26.1052M21.4626 26.0001C21.4601 25.9469 21.4149 25.9058 21.3617 25.9083L21.4626 26.0001ZM21.3617 25.9083C21.1872 25.9167 21.0177 25.9187 20.8542 25.9125L21.3617 25.9083Z" fill="white"/>
<path fill-rule="evenodd" clip-rule="evenodd" d="M19.9554 21.0041C19.8254 20.9825 19.6997 21.0054 19.5779 21.0969C19.345 21.272 19.3251 21.5908 19.4975 21.9609C19.6675 22.3259 20.0107 22.699 20.4204 22.9224C20.4672 22.9479 20.4844 23.0065 20.4589 23.0532C20.4334 23.1 20.3749 23.1172 20.3281 23.0917C19.8835 22.8493 19.5107 22.4459 19.3227 22.0423C19.1371 21.6438 19.1173 21.2019 19.462 20.9428C19.6291 20.8172 19.809 20.7842 19.9871 20.8139C20.1614 20.8429 20.3306 20.9311 20.486 21.0413C20.7513 21.2293 20.9985 21.4979 21.1846 21.7001C21.2156 21.7338 21.2449 21.7656 21.2723 21.7949C21.457 21.9926 21.779 22.2036 22.1334 22.3808C22.4867 22.5575 22.861 22.6951 23.1438 22.7514C24.5006 23.021 25.6403 23.2097 27.2564 23.1978C27.3096 23.1974 27.3531 23.2402 27.3535 23.2935C27.3539 23.3467 27.3111 23.3902 27.2578 23.3906C25.6228 23.4026 24.4685 23.2113 23.1062 22.9405L23.1062 22.9405C22.8014 22.8799 22.4104 22.735 22.0472 22.5533C21.6851 22.3723 21.3393 22.149 21.1314 21.9266C21.1023 21.8955 21.0718 21.8624 21.04 21.8279C20.8527 21.6246 20.6215 21.3737 20.3745 21.1986C20.2308 21.0968 20.0893 21.0264 19.9554 21.0041Z" fill="white"/>
<g opacity="0.25">
<path opacity="0.904" fill-rule="evenodd" clip-rule="evenodd" d="M30.1866 1.63924C30.9458 1.88934 31.4146 2.40309 31.593 3.18049C31.6471 3.3063 31.6451 3.43071 31.5869 3.55362C31.5046 3.5766 31.4258 3.56574 31.3506 3.52101C31.2691 3.25685 31.1825 2.99463 31.0908 2.73438C30.8422 2.27175 30.4605 1.98914 29.9456 1.88648C29.9153 1.83409 29.9197 1.78513 29.9588 1.73956C30.0351 1.70082 30.111 1.66739 30.1866 1.63924Z" fill="#A1DCD8"/>
<path opacity="0.909" fill-rule="evenodd" clip-rule="evenodd" d="M29.7448 2.29203C29.9059 2.35604 30.0637 2.43398 30.2183 2.52593C30.546 2.89202 30.8 3.30293 30.9803 3.75868C30.982 3.87021 30.9766 3.98137 30.964 4.09217C30.9217 4.28871 30.8193 4.3289 30.6569 4.21271C30.6907 3.86627 30.6026 3.55381 30.3925 3.27527C30.2567 3.09598 30.1209 2.9167 29.9851 2.73741C29.863 2.67703 29.7469 2.60812 29.6368 2.53069C29.6278 2.42871 29.6638 2.34917 29.7448 2.29203Z" fill="#A1DCD8"/>
<path opacity="0.978" fill-rule="evenodd" clip-rule="evenodd" d="M25.0898 1.65574C28.1133 2.2221 30.1292 3.94572 31.1377 6.82661C31.7394 8.91357 31.5625 10.9347 30.6069 12.8901C29.2621 15.3853 27.1858 16.8128 24.3777 17.1727C21.1977 17.3162 18.8001 16.0276 17.1851 13.3072C16.1651 11.2598 16.0015 9.1397 16.6944 6.94691C17.5128 4.69446 19.0235 3.11283 21.2265 2.20202C21.287 2.13035 21.3608 2.07775 21.448 2.04418C22.6352 1.63437 23.8492 1.5049 25.0898 1.65574Z" fill="#A1DCD8"/>
<path fill-rule="evenodd" clip-rule="evenodd" d="M24.6626 2.7608C27.4919 3.25504 29.3326 4.8657 30.1849 7.59282C30.7348 10.1811 30.0853 12.4242 28.2362 14.3219C26.5393 15.864 24.5535 16.4437 22.2788 16.061C19.3564 15.2287 17.6895 13.3063 17.278 10.2937C17.1086 7.48088 18.1877 5.29997 20.5155 3.751C21.0208 3.47082 21.5369 3.22097 22.0639 3.00139C22.9182 2.75562 23.7844 2.67541 24.6626 2.7608Z" fill="white"/>
<path opacity="0.903" fill-rule="evenodd" clip-rule="evenodd" d="M17.4969 1.61591C17.5976 1.62605 17.6904 1.65868 17.7753 1.71381C17.7981 1.7786 17.791 1.8395 17.7543 1.89649C17.5065 1.94266 17.2754 2.02977 17.0609 2.1578C16.6533 2.49922 16.3616 2.92267 16.1858 3.42814C16.0376 3.4669 15.9559 3.41173 15.9409 3.2626C16.1867 2.44265 16.7053 1.89378 17.4969 1.61591Z" fill="#A1DCD8"/>
<path opacity="0.895" fill-rule="evenodd" clip-rule="evenodd" d="M17.8869 1.88802C18.0556 1.88823 18.1201 1.96467 18.0805 2.11731C17.5996 2.41474 17.1985 2.79571 16.8772 3.26022C16.7988 3.38204 16.7392 3.51263 16.6985 3.65204C16.6017 3.76158 16.5157 3.7554 16.4404 3.63342C16.514 3.1617 16.7358 2.77301 17.1057 2.46728C17.3749 2.27891 17.6353 2.08581 17.8869 1.88802Z" fill="#A1DCD8"/>
<path fill-rule="evenodd" clip-rule="evenodd" d="M28.4569 6.84395C28.8166 6.82168 28.9277 6.97065 28.7905 7.29088C28.5009 7.70258 28.1599 8.06541 27.7676 8.37934C26.8899 9.04636 25.9593 9.62432 24.9756 10.1133C24.6825 10.2275 24.3852 10.3314 24.084 10.4251C24.0747 10.4106 24.0654 10.3961 24.056 10.3816C24.1547 10.2469 24.2062 10.0958 24.2107 9.92836C24.1734 9.79101 24.1205 9.66096 24.052 9.53815C24.2373 9.3384 24.4342 9.15024 24.6427 8.9737C25.5455 8.24955 26.5197 7.6436 27.5653 7.1558C27.861 7.04118 28.1582 6.93723 28.4569 6.84395Z" fill="#A1DCD8"/>
<path fill-rule="evenodd" clip-rule="evenodd" d="M21.0238 7.10151C21.415 7.21031 21.7599 7.40383 22.0586 7.68204C22.635 8.19536 23.1326 8.7778 23.5514 9.42932C23.2396 9.50329 23.0976 9.69713 23.1254 10.0108C23.0845 10.0269 23.0487 10.0192 23.0182 9.98754C22.3721 9.46077 21.803 8.8628 21.3108 8.19365C21.1038 7.91249 20.9713 7.60287 20.9135 7.26477C20.9268 7.19226 20.9636 7.13782 21.0238 7.10151Z" fill="#A1DCD8"/>
<path fill-rule="evenodd" clip-rule="evenodd" d="M23.5523 9.59684C23.8911 9.65348 24.0184 9.84341 23.934 10.1666C23.7192 10.3897 23.5233 10.3721 23.3463 10.1138C23.2956 9.88819 23.3642 9.71586 23.5523 9.59684Z" fill="#247F79"/>
</g>
</svg>
