<svg width="100" height="101" viewBox="0 0 100 101" fill="none" xmlns="http://www.w3.org/2000/svg">
<g opacity="0.2">
<path opacity="0.25" d="M3 79.6327V44.3038C3 35.686 6.59415 23.9233 23.7481 16.8167C26.9015 15.5903 30.452 17.1525 31.6784 20.3059C32.8658 23.359 31.4413 26.806 28.445 28.1301C16.6414 33.0312 15.2528 39.6886 15.2528 44.3038V44.9164H37.7162C41.0998 44.9164 43.8426 47.6593 43.8426 51.0428V79.6327C43.8426 83.0162 41.0998 85.7591 37.7162 85.7591H9.1264C5.74288 85.7591 3 83.0162 3 79.6327ZM57.1574 79.6327V44.3038C57.1574 35.686 60.7515 23.9233 77.9054 16.8167C81.0588 15.5903 84.6094 17.1524 85.8358 20.3059C87.0232 23.359 85.5987 26.806 82.6023 28.1301C70.7988 33.0312 69.4101 39.6886 69.4101 44.3038V44.9164H91.8736C95.2571 44.9164 98 47.6593 98 51.0428V79.6327C98 83.0162 95.2571 85.7591 91.8736 85.7591H63.2837C59.9002 85.7591 57.1574 83.0162 57.1574 79.6327Z" fill="black"/>
</g>
</svg>
