<svg width="209" height="421" viewBox="0 0 209 421" fill="none" xmlns="http://www.w3.org/2000/svg">
<path d="M117.654 169.575C130.532 157.025 148.286 151.037 166.032 151.651C165.147 142.165 166.607 132.561 170.93 123.728C175.855 113.653 183.668 105.557 193.674 102.773C197.119 99.5539 201.66 97.6979 207.864 98.4029C219.153 99.6841 230.606 108.628 239.617 114.917C241.567 116.27 243.478 117.683 245.371 119.111C244.565 99.5441 246.136 79.8634 254.81 62.2471C265.197 41.1569 285.487 22.5417 310.244 20.2635C337.719 17.7449 361.742 36.1313 380.395 53.8485C398.269 70.8126 412.705 91.4143 422.699 113.705C428.884 127.5 433.305 141.841 435.985 156.504C450.39 145.264 469.962 140.151 488.476 144.729C521.398 152.88 534.819 189.764 524.523 219.249C510.438 259.613 459.598 258.912 423.503 261.863C376.625 265.705 329.411 266.349 282.41 263.737C243.937 261.598 205.626 257.194 167.662 250.657C146.679 252.656 124.544 258.428 106.738 244.699C103.37 242.095 101.995 238.776 101.997 235.499C94.6563 212.463 99.8751 186.901 117.636 169.589L117.654 169.575Z" fill="#FBDD90"/>
<path d="M21.3885 304.055C34.6752 290.192 53.4041 283.155 72.3654 283.164C71.0756 273.073 72.2837 262.77 76.5753 253.185C81.4635 242.255 89.5073 233.329 100.084 229.994C103.644 226.433 108.422 224.287 115.069 224.813C127.163 225.769 139.712 234.897 149.557 241.28C151.687 242.653 153.778 244.092 155.851 245.546C154.278 224.694 155.237 203.633 163.852 184.517C174.169 161.631 195.144 141.026 221.482 137.692C250.712 134.004 277.019 152.75 297.571 170.979C317.265 188.432 333.421 209.892 344.9 233.317C352.002 247.814 357.243 262.957 360.637 278.508C375.602 265.988 396.302 259.818 416.227 264.03C451.659 271.528 467.326 310.403 457.412 342.244C443.851 385.834 389.568 386.938 351.155 391.403C301.266 397.211 250.903 399.618 200.648 398.543C159.511 397.662 118.466 394.358 77.7115 388.764C55.3912 391.663 31.9789 398.628 12.4763 384.626C8.78659 381.969 7.19898 378.477 7.08107 374.98C-1.59182 350.663 3.04637 323.193 21.3699 304.071L21.3885 304.055Z" fill="#F5ED9D"/>
</svg>
