<svg width="165" height="348" viewBox="0 0 165 348" fill="none" xmlns="http://www.w3.org/2000/svg">
<path d="M116.077 135.234C127.442 125.398 143.626 120.485 160.104 120.618C158.851 113.385 159.766 106.018 163.369 99.1846C167.474 91.392 174.347 85.056 183.495 82.7388C186.542 80.2131 190.666 78.7085 196.45 79.1296C206.973 79.8945 217.998 86.5127 226.637 91.1477C228.507 92.1447 230.343 93.1885 232.163 94.2436C230.522 79.3053 231.08 64.2347 238.316 50.6071C246.981 34.292 264.94 19.6805 287.784 17.4696C313.138 15.0234 336.246 28.6191 354.345 41.8052C371.689 54.4306 386.011 69.9013 396.293 86.7473C402.656 97.1727 407.408 108.048 410.562 119.203C423.403 110.34 441.311 106.061 458.682 109.209C489.572 114.813 503.697 142.747 495.499 165.475C484.285 196.59 437.126 197.019 403.803 199.96C360.523 203.786 316.787 205.174 273.1 204.069C237.339 203.165 201.625 200.526 166.135 196.251C146.776 198.177 126.521 203.008 109.389 192.854C106.147 190.928 104.722 188.417 104.573 185.913C96.7175 168.447 100.388 148.812 116.061 135.245L116.077 135.234Z" fill="#E2E8EB"/>
<path d="M18.578 251.45C30.7137 240.947 47.9953 235.701 65.5912 235.842C64.253 228.119 65.2298 220.252 69.0781 212.955C73.4612 204.634 80.8008 197.868 90.5692 195.394C93.8227 192.697 98.2265 191.09 104.402 191.54C115.639 192.357 127.412 199.424 136.637 204.373C138.633 205.438 140.594 206.552 142.538 207.679C140.786 191.728 141.381 175.635 149.108 161.083C158.361 143.661 177.538 128.059 201.932 125.698C229.005 123.086 253.68 137.604 273.007 151.684C291.527 165.166 306.821 181.686 317.8 199.674C324.595 210.807 329.67 222.42 333.037 234.332C346.749 224.867 365.872 220.298 384.421 223.659C417.406 229.643 432.489 259.472 423.735 283.742C411.761 316.968 361.403 317.426 325.819 320.566C279.604 324.651 232.902 326.133 186.251 324.954C148.065 323.988 109.928 321.171 72.031 316.605C51.3587 318.662 29.7301 323.82 11.4359 312.978C7.97474 310.921 6.45257 308.24 6.29418 305.566C-2.09462 286.916 1.82487 265.949 18.561 251.462L18.578 251.45Z" fill="#C9D3D8"/>
</svg>
