<svg width="372" height="372" viewBox="0 0 372 372" fill="none" xmlns="http://www.w3.org/2000/svg">
<ellipse cx="188.291" cy="319" rx="143" ry="22" fill="#FBE8F2"/>
<path d="M311.225 262.999C323.496 243.887 311.323 218.548 288.734 216.183C276.636 214.916 264.941 220.96 258.975 231.562L221.708 297.795C216.088 307.783 223.306 320.125 234.766 320.125L274.546 320.125L311.225 262.999Z" fill="#055131"/>
<path d="M309.73 290.466C308.343 287.111 304.498 285.517 301.144 286.904L269.801 299.867L274.826 312.015L306.168 299.052C309.523 297.665 311.117 293.821 309.73 290.466Z" fill="#055131"/>
<path d="M312.967 301.732C312.279 298.168 308.831 295.836 305.267 296.525L271.965 302.956L274.458 315.864L307.76 309.432C311.324 308.744 313.655 305.297 312.967 301.732Z" fill="#055131"/>
<path d="M313.133 313.526C313.134 309.896 310.192 306.952 306.562 306.951L272.644 306.943L272.641 320.089L306.558 320.098C310.189 320.099 313.132 317.156 313.133 313.526Z" fill="#055131"/>
<path d="M63.5364 262.999C51.2653 243.887 63.4385 218.548 86.0273 216.183C98.1261 214.916 109.821 220.96 115.786 231.562L153.054 297.795C158.673 307.783 151.456 320.125 139.996 320.125L100.215 320.125L63.5364 262.999Z" fill="#055131"/>
<path d="M65.0317 290.466C66.4192 287.111 70.2634 285.517 73.618 286.904L104.96 299.867L99.9359 312.015L68.5936 299.052C65.239 297.665 63.6443 293.821 65.0317 290.466Z" fill="#055131"/>
<path d="M61.7947 301.732C62.483 298.168 65.9305 295.836 69.4949 296.525L102.797 302.956L100.304 315.864L67.0022 309.432C63.4378 308.744 61.1063 305.297 61.7947 301.732Z" fill="#055131"/>
<path d="M61.6286 313.526C61.6277 309.896 64.5698 306.952 68.2001 306.951L102.117 306.943L102.121 320.089L68.2034 320.098C64.5732 320.099 61.6296 317.156 61.6286 313.526Z" fill="#055131"/>
<path d="M95.5781 179.298C95.5781 175.482 95.5781 173.574 95.6885 171.963C97.2999 148.439 116.025 129.714 139.549 128.102C141.16 127.992 143.068 127.992 146.885 127.992H231.31C235.126 127.992 237.034 127.992 238.645 128.102C262.169 129.714 280.894 148.439 282.506 171.963C282.616 173.574 282.616 175.482 282.616 179.298V221.511C282.616 273.16 240.746 315.03 189.097 315.03C137.448 315.03 95.5781 273.16 95.5781 221.511V179.298Z" fill="#00753F"/>
<path d="M119.384 220.571C119.384 195.482 139.722 175.144 164.81 175.144H212.483C237.572 175.144 257.91 195.482 257.91 220.571V245.947C257.91 284.2 226.9 315.21 188.647 315.21C150.394 315.21 119.384 284.2 119.384 245.947V220.571Z" fill="#3DA94E"/>
<rect x="122.797" y="102.77" width="54.9377" height="54.9377" rx="27.4689" fill="#00753F"/>
<rect x="128.79" y="108.764" width="42.9513" height="42.9513" rx="21.4757" fill="white"/>
<rect x="203.206" y="102.77" width="54.9377" height="54.9377" rx="27.4689" fill="#00753F"/>
<rect x="209.199" y="108.764" width="42.9513" height="42.9513" rx="21.4757" fill="white"/>
<circle cx="150.391" cy="127.867" r="9.6141" fill="black"/>
<circle cx="230.55" cy="127.867" r="9.6141" fill="black"/>
<path d="M171.248 118.155C170.487 114.106 167.501 110.438 162.947 107.959C158.392 105.479 152.642 104.39 146.961 104.932C141.28 105.474 136.134 107.602 132.655 110.849C129.175 114.095 127.648 118.193 128.408 122.242L149.828 120.199L171.248 118.155Z" fill="#00753F"/>
<path d="M209.472 118.155C210.232 114.106 213.218 110.438 217.773 107.959C222.328 105.479 228.078 104.39 233.759 104.932C239.44 105.474 244.586 107.602 248.065 110.849C251.544 114.095 253.072 118.193 252.311 122.242L230.892 120.199L209.472 118.155Z" fill="#00753F"/>
<rect x="177.266" y="149.418" width="9.73896" height="5.99321" rx="2.9966" transform="rotate(-10.6318 177.266 149.418)" fill="#213027"/>
<rect width="9.73896" height="5.99321" rx="2.9966" transform="matrix(-0.982833 -0.184498 -0.184498 0.982833 204.395 149.418)" fill="#213027"/>
<path d="M152.555 96.4868C153.64 95.4015 153.65 93.6221 152.416 92.7092C150.392 91.2114 148.078 90.1313 145.61 89.5443C142.236 88.742 138.706 88.8921 135.413 89.9777C132.12 91.0634 129.192 93.042 126.957 95.6932C125.322 97.6331 124.104 99.8773 123.367 102.285C122.918 103.753 123.985 105.178 125.503 105.405C127.021 105.632 128.408 104.568 128.948 103.131C129.474 101.733 130.236 100.428 131.207 99.2758C132.779 97.4114 134.837 96.02 137.153 95.2565C139.469 94.4931 141.951 94.3875 144.324 94.9517C145.79 95.3004 147.179 95.8964 148.432 96.7079C149.721 97.5418 151.469 97.5721 152.555 96.4868Z" fill="#213027"/>
<path d="M227.35 96.4868C226.264 95.4015 226.254 93.6221 227.488 92.7092C229.512 91.2114 231.826 90.1313 234.294 89.5443C237.668 88.742 241.198 88.8921 244.491 89.9777C247.785 91.0634 250.712 93.042 252.947 95.6932C254.582 97.6331 255.8 99.8773 256.537 102.285C256.986 103.753 255.92 105.178 254.402 105.405C252.884 105.632 251.496 104.568 250.956 103.131C250.431 101.733 249.669 100.428 248.697 99.2758C247.126 97.4114 245.067 96.02 242.751 95.2565C240.435 94.4931 237.953 94.3875 235.58 94.9517C234.114 95.3004 232.726 95.8964 231.472 96.7079C230.183 97.5418 228.435 97.5721 227.35 96.4868Z" fill="#213027"/>
<path d="M300.863 270.128C299.683 273.213 296.481 275.267 294.9 278.168C294.765 278.414 294.646 278.672 294.543 278.941C293.301 282.191 294.928 285.832 298.178 287.074C301.427 288.317 305.069 286.689 306.311 283.44C306.413 283.172 306.496 282.901 306.56 282.629C307.342 279.317 306.228 275.524 307.443 272.346L310.085 265.435C310.773 263.636 312.789 262.735 314.588 263.423C315.877 263.916 316.755 265.122 316.826 266.501L316.988 269.654C317.104 271.882 315.841 273.946 315.044 276.031C313.802 279.28 315.429 282.921 318.678 284.164C321.928 285.406 325.569 283.779 326.812 280.529C327.199 279.515 327.307 278.463 327.174 277.458C326.739 274.175 324.488 271.096 324.497 267.784L324.551 247.461C324.569 240.848 320.496 234.913 314.318 232.552C310.573 231.12 306.425 231.154 302.704 232.648L280.735 241.47C278.399 242.407 275.755 242.215 273.25 242.456C270.848 242.687 268.55 243.848 267.751 245.939C266.509 249.189 268.136 252.83 271.385 254.072C273.252 254.786 275.336 254.257 277.008 253.062C279.358 251.382 281.345 248.971 284.059 247.977L291.31 245.322C293.933 244.361 296.346 247.163 295.006 249.615L287.888 260.24C285.83 263.312 281.594 264.569 279.159 267.351C278.681 267.897 278.29 268.535 278.016 269.252C276.774 272.501 278.401 276.142 281.651 277.385C284.9 278.627 288.542 277 289.784 273.75C290.661 271.455 290.873 268.786 292.367 266.836L297.916 259.596C298.811 258.427 300.368 257.987 301.743 258.512C303.458 259.168 304.318 261.09 303.662 262.806L300.863 270.128Z" fill="#00753F"/>
<path fill-rule="evenodd" clip-rule="evenodd" d="M308.331 249.006C302.754 247.384 299.547 241.547 301.169 235.97C304.472 224.608 295.949 213.253 284.117 213.253H283.05C277.241 213.253 272.532 208.544 272.532 202.736C272.532 196.927 277.241 192.218 283.05 192.218H284.117C309.966 192.218 328.585 217.022 321.367 241.843C319.746 247.421 313.909 250.628 308.331 249.006Z" fill="#00753F"/>
<path d="M142.298 177.084C138.717 171.261 143.376 163.86 150.175 164.571L190.996 168.841C197.923 169.565 200.883 178.023 195.92 182.909L192.696 186.083C178.396 200.16 154.719 197.283 144.208 180.19L142.298 177.084Z" fill="#00753F"/>
<path d="M144.29 176.361C141.581 171.955 145.105 166.357 150.249 166.895L189.571 171.007C194.819 171.556 197.062 177.964 193.302 181.665L192.711 182.246C178.431 196.304 154.787 193.43 144.29 176.361Z" fill="#2B3F33"/>
<mask id="mask0_7356_11725" style="mask-type:alpha" maskUnits="userSpaceOnUse" x="143" y="166" width="53" height="26">
<path d="M144.289 176.361C141.58 171.955 145.104 166.356 150.248 166.894L189.57 171.007C194.818 171.556 197.061 177.964 193.301 181.665L192.71 182.246C178.43 196.304 154.786 193.43 144.289 176.361Z" fill="black"/>
</mask>
<g mask="url(#mask0_7356_11725)">
<path d="M181.199 195.062C183.183 199.839 178.824 204.815 173.828 203.476L135.639 193.243C130.542 191.878 129.333 185.198 133.627 182.132L134.301 181.651C150.611 170.008 173.511 176.557 181.199 195.062Z" fill="#C58F7C"/>
</g>
<path fill-rule="evenodd" clip-rule="evenodd" d="M107.199 253.296C109.547 247.983 107.143 241.772 101.83 239.424L86.7293 232.75C79.2305 229.436 80.3506 218.463 88.3644 216.732L108.521 212.38C114.198 211.154 117.807 205.557 116.581 199.879C115.355 194.201 109.758 190.592 104.08 191.818L83.9243 196.171C55.9972 202.202 52.0937 240.441 78.2262 251.99L93.3268 258.664C98.6399 261.012 104.85 258.609 107.199 253.296Z" fill="#00753F"/>
<path d="M101.215 138.962C90.5781 113.446 66.4494 99.2252 47.3215 107.199C28.1935 115.172 21.3098 142.321 31.9462 167.837C42.5826 193.353 66.7113 207.573 85.8393 199.6C104.967 191.626 111.851 164.478 101.215 138.962Z" fill="#FFCF54"/>
<mask id="mask1_7356_11725" style="mask-type:alpha" maskUnits="userSpaceOnUse" x="26" y="104" width="81" height="98">
<path d="M101.215 138.962C90.5781 113.446 66.4494 99.2253 47.3215 107.199C28.1935 115.172 21.3098 142.321 31.9462 167.837C42.5826 193.353 66.7113 207.574 85.8393 199.6C104.967 191.626 111.851 164.478 101.215 138.962Z" fill="#FFCF54"/>
</mask>
<g mask="url(#mask1_7356_11725)">
<path d="M105.265 152.98C103.692 141.325 92.9683 133.153 81.314 134.726L46.5905 139.415C34.9362 140.988 26.7641 151.711 28.3375 163.366L30.6815 180.727C33.5495 201.97 53.0953 216.866 74.3383 213.998C95.5812 211.13 110.477 191.584 107.609 170.341L105.265 152.98Z" fill="#00753F"/>
<path d="M97.7647 171.277C96.3715 160.958 86.8772 153.722 76.5585 155.115L56.9509 157.763C46.6322 159.156 39.3966 168.65 40.7897 178.969L42.1988 189.406C44.323 205.139 58.7992 216.171 74.5324 214.047C90.2656 211.923 101.298 197.447 99.1738 181.713L97.7647 171.277Z" fill="#3DA94E"/>
<path d="M21.0825 198.379C14.9742 191.2 18.5739 180.102 27.7332 177.875C32.6391 176.682 37.7846 178.519 40.8269 182.548L54.8231 201.085C59.9297 207.849 55.8617 217.608 47.4632 218.742L39.3405 219.838L21.0825 198.379Z" fill="#055131"/>
<path d="M122.956 184.626C126.942 176.084 120.528 166.338 111.106 166.619C106.059 166.77 101.585 169.905 99.7201 174.597L91.1407 196.182C88.0105 204.058 94.5209 212.389 102.919 211.255L111.042 210.158L122.956 184.626Z" fill="#055131"/>
<rect width="22.8005" height="22.8005" rx="11.4003" transform="matrix(-0.991009 0.133797 0.133796 0.991009 89.8203 123.016)" fill="#00753F"/>
<rect width="17.8259" height="17.8259" rx="8.91294" transform="matrix(-0.991009 0.133797 0.133796 0.991009 87.6885 125.813)" fill="white"/>
<rect width="22.8005" height="22.8005" rx="11.4003" transform="matrix(-0.991009 0.133797 0.133796 0.991009 56.748 127.481)" fill="#00753F"/>
<rect width="17.8259" height="17.8259" rx="8.91294" transform="matrix(-0.991009 0.133797 0.133796 0.991009 54.6162 130.278)" fill="white"/>
<circle cx="3.99009" cy="3.99009" r="3.99009" transform="matrix(-0.991009 0.133797 0.133796 0.991009 83.2852 130.382)" fill="black"/>
<circle cx="3.99009" cy="3.99009" r="3.99009" transform="matrix(-0.991009 0.133797 0.133796 0.991009 50.3164 134.833)" fill="black"/>
<path d="M70.7466 132.034C70.8346 130.326 71.859 128.652 73.5947 127.379C75.3303 126.106 77.6349 125.339 80.0015 125.247C82.3681 125.154 84.6029 125.744 86.2141 126.886C87.8254 128.027 88.6812 129.628 88.5932 131.336L79.6699 131.685L70.7466 132.034Z" fill="#00753F"/>
<path d="M55.0261 134.156C54.4885 132.533 53.0567 131.19 51.0457 130.423C49.0347 129.656 46.6092 129.528 44.3028 130.066C41.9964 130.605 39.998 131.766 38.7472 133.294C37.4965 134.822 37.0959 136.593 37.6335 138.216L46.3298 136.186L55.0261 134.156Z" fill="#00753F"/>
<rect width="4.04191" height="2.48733" rx="1.24367" transform="matrix(-0.998681 -0.0513392 -0.0513392 0.998681 70.0078 145.226)" fill="#213027"/>
<rect x="58.8496" y="146.733" width="4.04191" height="2.48733" rx="1.24367" transform="rotate(-18.3209 58.8496 146.733)" fill="#213027"/>
<path d="M77.2323 122.084C76.7256 121.697 76.6226 120.966 77.0794 120.522C77.8288 119.794 78.7205 119.221 79.7031 118.843C81.0461 118.325 82.5063 118.191 83.9211 118.455C85.3359 118.718 86.6497 119.369 87.7162 120.336C88.4966 121.043 89.1221 121.898 89.5588 122.848C89.825 123.426 89.4655 124.072 88.8538 124.249C88.2421 124.427 87.6123 124.066 87.3104 123.505C87.0166 122.96 86.6308 122.465 86.1673 122.045C85.4173 121.366 84.4934 120.908 83.4985 120.722C82.5036 120.537 81.4767 120.631 80.5323 120.995C79.9487 121.22 79.4107 121.542 78.94 121.946C78.4563 122.36 77.7389 122.47 77.2323 122.084Z" fill="#213027"/>
<path d="M46.4692 126.237C46.8553 125.73 46.7607 124.998 46.2026 124.691C45.2868 124.187 44.2752 123.871 43.2273 123.767C41.7953 123.624 40.3517 123.882 39.0575 124.512C37.7633 125.141 36.6692 126.117 35.8971 127.332C35.3322 128.221 34.956 129.211 34.7866 130.243C34.6834 130.871 35.2011 131.398 35.8381 131.407C36.475 131.416 36.9866 130.901 37.129 130.28C37.2675 129.676 37.5084 129.097 37.8439 128.569C38.3868 127.715 39.1562 127.029 40.0663 126.586C40.9765 126.143 41.9916 125.962 42.9987 126.063C43.6211 126.125 44.2252 126.293 44.786 126.557C45.3623 126.828 46.0831 126.743 46.4692 126.237Z" fill="#213027"/>
<path d="M25.706 201.426C26.4685 202.824 28.2015 203.612 28.964 205.01C29.6554 206.278 29.1883 207.866 27.9208 208.557C26.6532 209.249 25.0652 208.782 24.3739 207.514C23.5925 206.082 23.9047 204.137 23.1233 202.705L21.8217 200.318C21.4389 199.617 20.5597 199.358 19.8579 199.741C19.355 200.015 19.0612 200.56 19.1085 201.131L19.2167 202.437C19.2931 203.36 19.9271 204.139 20.3706 204.952C21.0619 206.219 20.5949 207.807 19.3273 208.499C18.0598 209.19 16.4718 208.723 15.7804 207.455C14.734 205.537 16.1458 202.965 15.8477 200.8L14.8738 193.729C14.4993 191.01 15.8451 188.343 18.2547 187.029C19.7156 186.232 21.4235 186.016 23.0369 186.424L29.8065 188.135C32.5908 188.839 36.7758 187.428 38.151 189.949C38.8423 191.217 38.3752 192.805 37.1077 193.496C34.6776 194.822 31.8484 191.757 29.1451 191.161L28.4271 191.003C27.2949 190.754 26.458 192.04 27.145 192.974L30.0496 196.256C31.4439 197.832 34.2159 198.26 35.2233 200.107C35.9147 201.375 35.4476 202.963 34.1801 203.654C32.9126 204.346 31.3246 203.879 30.6332 202.611C30.1449 201.716 29.9096 200.63 29.1867 199.911L26.5027 197.241C26.0696 196.81 25.4048 196.715 24.8684 197.008C24.1992 197.373 23.9527 198.211 24.3177 198.88L25.706 201.426Z" fill="#00753F"/>
<path fill-rule="evenodd" clip-rule="evenodd" d="M21.6313 193.464C23.8353 192.487 24.8302 189.908 23.8534 187.704C21.8636 183.215 24.7386 178.071 29.6052 177.414L30.0441 177.355C32.4333 177.033 34.1085 174.834 33.786 172.445C33.4634 170.056 31.2652 168.381 28.8761 168.703L28.4372 168.763C17.8056 170.198 11.5251 181.434 15.8719 191.242C16.8487 193.446 19.4273 194.441 21.6313 193.464Z" fill="#00753F"/>
<path d="M95.9923 181.071C94.4183 180.83 92.7402 181.73 91.1663 181.488C89.7391 181.269 88.7597 179.935 88.9786 178.508C89.1975 177.081 90.5319 176.101 91.9591 176.32C93.5719 176.568 94.9286 177.995 96.5414 178.242L99.2283 178.654C100.018 178.776 100.757 178.233 100.878 177.443C100.965 176.877 100.71 176.313 100.228 176.004L99.1237 175.298C98.3435 174.8 97.3396 174.831 96.4242 174.691C94.9971 174.472 94.0177 173.138 94.2366 171.71C94.4555 170.283 95.7899 169.304 97.217 169.523C99.377 169.854 100.566 172.536 102.468 173.612L108.681 177.126C111.07 178.477 112.375 181.164 111.959 183.877C111.706 185.522 110.842 187.011 109.54 188.047L104.074 192.392C101.826 194.179 100.41 198.362 97.571 197.927C96.1439 197.708 95.1644 196.373 95.3833 194.946C95.8031 192.21 99.9554 191.819 102.068 190.031L102.63 189.556C103.515 188.807 102.999 187.361 101.84 187.341L97.4687 187.66C95.3704 187.813 93.3486 189.758 91.2691 189.439C89.842 189.22 88.8625 187.885 89.0814 186.458C89.3004 185.031 90.6348 184.052 92.0619 184.271C93.0697 184.425 94.076 184.897 95.0862 184.758L98.8367 184.243C99.4419 184.16 99.9205 183.688 100.013 183.085C100.129 182.331 99.6116 181.627 98.8581 181.511L95.9923 181.071Z" fill="#00753F"/>
<path fill-rule="evenodd" clip-rule="evenodd" d="M104.594 184.06C103.333 182.005 103.977 179.317 106.032 178.056L111.872 174.473C114.772 172.693 113.702 168.242 110.31 167.975L101.778 167.305C99.3749 167.115 97.5798 165.014 97.7688 162.611C97.9578 160.207 100.059 158.412 102.463 158.601L110.994 159.272C122.816 160.202 126.544 175.713 116.438 181.914L110.597 185.497C108.543 186.758 105.855 186.114 104.594 184.06Z" fill="#00753F"/>
<path d="M85.7424 155.077C86.9668 152.314 84.4882 149.347 81.5515 150.061L66.0012 153.84C62.9682 154.577 62.2199 158.556 64.7172 160.428C71.8146 165.75 82.1484 163.187 85.7424 155.077Z" fill="#00753F"/>
<path d="M85.0668 154.476C85.9364 152.514 84.176 150.407 82.0902 150.914L66.2244 154.77C64.0652 155.294 63.4902 158.095 65.2681 159.428L65.4783 159.586C72.1322 164.575 81.6973 162.08 85.0668 154.476Z" fill="#2B3F33"/>
<mask id="mask2_7356_11725" style="mask-type:alpha" maskUnits="userSpaceOnUse" x="64" y="150" width="22" height="13">
<path d="M85.0658 154.476C85.9355 152.514 84.175 150.407 82.0892 150.914L66.2235 154.77C64.0642 155.294 63.4892 158.095 65.2671 159.428L65.4773 159.586C72.1312 164.575 81.6964 162.08 85.0658 154.476Z" fill="black"/>
</mask>
<g mask="url(#mask2_7356_11725)">
<path d="M70.9245 164.218C70.3736 166.292 72.4429 168.097 74.4233 167.269L89.4873 160.971C91.5375 160.114 91.6658 157.258 89.7007 156.22L89.4685 156.097C82.114 152.215 73.0589 156.18 70.9245 164.218Z" fill="#C58F7C"/>
</g>
</g>
<path opacity="0.3" d="M59.8411 105.019L37.5335 178.455C35.6074 175.51 33.8918 172.349 32.404 168.961L51.5951 105.807C54.2827 105.149 57.0473 104.901 59.8411 105.019Z" fill="white"/>
<path opacity="0.3" d="M82.5866 114.058L57.335 197.197C52.7281 194.743 48.3318 191.339 44.3773 187.14C44.3671 187.123 68.8163 106.644 68.8163 106.644C73.5754 108.147 78.2454 110.668 82.5866 114.058Z" fill="white"/>
<path d="M45.821 103.666C24.7852 112.438 16.9573 141.889 28.3951 169.312C39.1797 195.185 63.3042 210.144 83.6701 204.397L112.771 274.194C113.582 276.151 115.831 277.067 117.779 276.261C117.937 276.192 118.103 276.117 118.25 276.031C119.878 275.076 120.583 273.043 119.846 271.252L90.7402 201.447C90.8874 201.36 91.0448 201.291 91.192 201.205C109.265 190.598 115.423 163.163 104.724 137.495C93.2867 110.072 66.8654 94.8888 45.821 103.666ZM97.6543 140.445C107.458 163.972 101.466 188.934 84.3533 196.079C67.2096 203.23 45.2788 189.906 35.4703 166.37C26.2628 144.274 30.9593 120.934 45.7586 112.248C46.7198 111.684 47.7303 111.184 48.7764 110.745C65.9201 103.593 87.8423 116.923 97.6594 140.454L97.6543 140.445Z" fill="#E28D00"/>
<path d="M127.592 243.147C130.761 242.214 134.336 243.514 137.602 243.013C137.879 242.97 138.156 242.909 138.433 242.827C141.77 241.845 143.679 238.342 142.696 235.005C141.713 231.668 138.211 229.76 134.874 230.742C134.598 230.823 134.333 230.922 134.078 231.036C130.971 232.423 128.63 235.608 125.365 236.57L118.268 238.66C116.421 239.204 114.482 238.147 113.938 236.299C113.548 234.976 113.975 233.546 115.028 232.654L117.436 230.612C119.139 229.17 121.546 228.922 123.686 228.291C127.023 227.309 128.932 223.807 127.949 220.469C126.966 217.132 123.464 215.224 120.127 216.206C119.086 216.513 118.184 217.065 117.465 217.781C115.119 220.117 114.035 223.774 111.397 225.775L95.2041 238.057C89.935 242.053 87.6859 248.891 89.5542 255.235C90.6871 259.081 93.2299 262.359 96.6744 264.411L117.011 276.531C119.173 277.819 120.624 280.038 122.334 281.884C123.975 283.654 126.291 284.777 128.439 284.144C131.776 283.161 133.685 279.659 132.702 276.322C132.137 274.406 130.453 273.069 128.489 272.464C125.727 271.614 122.605 271.496 120.17 269.941L113.661 265.786C111.307 264.283 112.072 260.665 114.833 260.243L127.598 259.46C131.289 259.233 134.857 261.839 138.546 262.089C139.27 262.138 140.014 262.061 140.75 261.845C144.087 260.862 145.996 257.36 145.013 254.023C144.03 250.685 140.528 248.777 137.191 249.76C134.834 250.454 132.584 251.904 130.127 251.898L121.005 251.877C119.533 251.874 118.239 250.903 117.823 249.491C117.304 247.729 118.311 245.88 120.073 245.362L127.592 243.147Z" fill="#00753F"/>
<path d="M104.686 93.5922C103.561 97.8178 99.3901 100.177 98.0463 101.843C97.7573 102.205 97.3401 102.221 96.9391 101.898C95.2204 100.493 90.751 99.1049 88.7988 95.2556C85.4882 88.7425 92.5518 84.9752 96.2163 89.4204C98.8846 84.3153 106.573 86.5364 104.692 93.5908L104.686 93.5922Z" fill="#E84C8D"/>
</svg>
