<svg width="450" height="450" viewBox="0 0 450 450" fill="none" xmlns="http://www.w3.org/2000/svg">
<ellipse opacity="0.5" cx="224.574" cy="388.397" rx="168" ry="29" fill="#F9F4CB"/>
<path d="M375.32 319.382C390.203 296.203 375.439 265.472 348.041 262.604C333.366 261.068 319.181 268.398 311.946 281.256L263.037 368.171C257.879 377.337 264.503 388.663 275.021 388.663L330.832 388.663L375.32 319.382Z" fill="#055131"/>
<path d="M373.506 352.694C371.823 348.626 367.16 346.692 363.092 348.374L325.076 364.096L331.171 378.829L369.186 363.107C373.254 361.425 375.188 356.763 373.506 352.694Z" fill="#055131"/>
<path d="M377.431 366.356C376.596 362.034 372.415 359.206 368.092 360.041L327.699 367.84L330.723 383.495L371.115 375.695C375.438 374.86 378.266 370.679 377.431 366.356Z" fill="#055131"/>
<path d="M377.634 380.661C377.635 376.258 374.067 372.688 369.664 372.687L328.525 372.676L328.521 388.62L369.66 388.63C374.063 388.631 377.633 385.063 377.634 380.661Z" fill="#055131"/>
<path d="M74.8948 319.382C60.011 296.203 74.7754 265.472 102.173 262.604C116.848 261.068 131.033 268.398 138.269 281.256L187.178 368.171C192.335 377.337 185.712 388.663 175.193 388.663L119.382 388.663L74.8948 319.382Z" fill="#055131"/>
<path d="M76.7088 352.694C78.3916 348.626 83.054 346.692 87.1226 348.374L125.138 364.096L119.044 378.829L81.0285 363.107C76.9599 361.425 75.026 356.763 76.7088 352.694Z" fill="#055131"/>
<path d="M72.7832 366.356C73.6181 362.034 77.7993 359.206 82.1221 360.041L122.515 367.84L119.491 383.495L79.0987 375.695C74.7759 374.86 71.9484 370.679 72.7832 366.356Z" fill="#055131"/>
<path d="M72.5802 380.661C72.579 376.258 76.1472 372.688 80.5498 372.687L121.689 372.676L121.693 388.62L80.5539 388.63C76.1513 388.631 72.5813 385.063 72.5802 380.661Z" fill="#055131"/>
<path d="M113.758 220.817C113.758 203.212 113.758 194.409 116.279 187.346C120.646 175.111 130.275 165.482 142.51 161.115C149.573 158.594 158.376 158.594 175.981 158.594H278.392C295.997 158.594 304.8 158.594 311.863 161.115C324.098 165.482 333.727 175.111 338.094 187.346C340.615 194.409 340.615 203.212 340.615 220.817V272.001C340.615 334.645 289.831 385.429 227.187 385.429C164.542 385.429 113.758 334.646 113.758 272.001V220.817Z" fill="#00753F"/>
<path d="M142.633 270.875C142.633 240.448 167.299 215.782 197.725 215.782H255.558C285.985 215.782 310.651 240.448 310.651 270.875V301.642C310.651 348.038 273.039 385.651 226.642 385.651C180.245 385.651 142.633 348.038 142.633 301.642V270.875Z" fill="#3DA94E"/>
<rect x="146.773" y="128.008" width="66.6337" height="66.6273" rx="33.3136" fill="#00753F"/>
<rect x="154.041" y="135.277" width="52.0954" height="52.0904" rx="26.0452" fill="white"/>
<rect x="244.302" y="128.008" width="66.6337" height="66.6273" rx="33.3136" fill="#00753F"/>
<rect x="251.569" y="135.277" width="52.0954" height="52.0904" rx="26.0452" fill="white"/>
<ellipse cx="180.242" cy="158.444" rx="11.6609" ry="11.6598" fill="black"/>
<ellipse cx="277.467" cy="158.444" rx="11.6609" ry="11.6598" fill="black"/>
<rect width="11.8123" height="7.26845" rx="3.63423" transform="matrix(0.982836 -0.184481 0.184515 0.98283 212.838 184.581)" fill="#213027"/>
<rect width="11.8123" height="7.26845" rx="3.63423" transform="matrix(-0.982836 -0.184481 -0.184515 0.98283 245.742 184.581)" fill="#213027"/>
<path d="M182.865 120.387C184.181 119.07 184.193 116.912 182.697 115.805C180.242 113.989 177.435 112.679 174.441 111.967C170.35 110.994 166.068 111.176 162.074 112.493C158.079 113.809 154.529 116.209 151.818 119.424C149.835 121.777 148.357 124.498 147.464 127.419C146.919 129.199 148.212 130.927 150.054 131.202C151.895 131.478 153.578 130.187 154.233 128.444C154.87 126.749 155.794 125.166 156.972 123.769C158.879 121.508 161.375 119.82 164.184 118.895C166.993 117.969 170.004 117.841 172.882 118.525C174.66 118.948 176.344 119.671 177.865 120.655C179.428 121.666 181.548 121.703 182.865 120.387Z" fill="#213027"/>
<path d="M291.14 112.375C289.297 112.634 287.988 114.35 288.517 116.135C289.104 118.115 289.96 120.011 291.065 121.769C292.77 124.48 295.029 126.801 297.694 128.578C300.359 130.355 303.37 131.548 306.529 132.079C308.576 132.424 310.656 132.485 312.71 132.266C314.561 132.068 315.642 130.2 315.173 128.399C314.704 126.598 312.856 125.556 310.996 125.638C309.879 125.687 308.756 125.618 307.647 125.432C305.426 125.058 303.308 124.219 301.434 122.97C299.56 121.72 297.972 120.088 296.773 118.181C296.174 117.229 295.68 116.219 295.295 115.169C294.655 113.421 292.984 112.115 291.14 112.375Z" fill="#213027"/>
<path d="M178.504 238.722C176.832 237.902 176.123 235.864 177.181 234.332C178.355 232.633 179.758 231.097 181.355 229.77C183.819 227.724 186.688 226.221 189.773 225.361C192.859 224.501 196.091 224.304 199.259 224.781C201.312 225.091 203.307 225.68 205.191 226.527C206.889 227.291 207.336 229.402 206.329 230.968C205.323 232.534 203.243 232.949 201.501 232.293C200.454 231.899 199.366 231.615 198.254 231.447C196.026 231.111 193.753 231.25 191.583 231.855C189.413 232.459 187.396 233.516 185.663 234.955C184.798 235.674 184.014 236.48 183.322 237.359C182.17 238.821 180.175 239.542 178.504 238.722Z" fill="#213027"/>
<path fill-rule="evenodd" clip-rule="evenodd" d="M75.1296 161.291C83.1079 161.291 89.5756 167.758 89.5756 175.736V216.961C89.5756 232.649 101.323 245.852 116.906 247.677L120.148 248.057C128.072 248.985 133.744 256.16 132.815 264.084C131.887 272.007 124.711 277.678 116.787 276.75L113.545 276.37C83.4051 272.84 60.6836 247.304 60.6836 216.961V175.736C60.6836 167.758 67.1513 161.291 75.1296 161.291Z" fill="#00753F"/>
<path fill-rule="evenodd" clip-rule="evenodd" d="M62.9325 164.937L80.5075 138.928C83.6809 134.232 89.9175 132.74 94.8723 135.493L111.154 144.537L130.277 157.54C134.105 157.834 137.119 161.033 137.119 164.936C137.119 169.032 133.798 172.353 129.7 172.353C125.887 172.353 122.746 169.477 122.329 165.776C117.523 162.38 110.496 157.495 107.444 155.664C103.735 153.439 100.335 155.973 99.0985 157.519L94.4618 164.937C92.6072 167.718 94.1527 170.191 95.3891 171.427L99.0985 175.136C100.286 176.324 102.346 176.006 103.755 175.515C104.035 171.673 107.24 168.643 111.154 168.643C115.251 168.643 118.572 171.965 118.572 176.061C118.572 180.043 115.435 183.291 111.498 183.471C111.129 183.932 110.705 184.538 110.226 185.336C107.702 189.543 102.568 190.639 97.0088 190.247C95.7144 190.156 94.4425 189.851 93.175 189.548L93.1738 189.548C92.7843 189.455 92.3952 189.362 92.0059 189.275C91.4844 189.159 90.8959 189.033 90.2453 188.895L90.2449 188.895C86.0499 188.001 79.2764 186.557 71.2785 183.481C59.0088 178.763 60.7687 169.264 62.9325 164.937Z" fill="#00753F"/>
<path fill-rule="evenodd" clip-rule="evenodd" d="M309.003 299.308C298.626 298.671 289.004 293.671 282.52 285.546L253.427 249.094C248.994 243.54 249.904 235.445 255.458 231.013C261.012 226.582 269.108 227.491 273.54 233.045L302.633 269.497C304.579 271.934 307.466 273.435 310.579 273.626L317.739 274.065C320.514 274.236 322.177 271.036 320.443 268.863L340.556 252.813C356.203 272.418 341.2 301.285 316.163 299.748L309.003 299.308Z" fill="#00753F"/>
<path fill-rule="evenodd" clip-rule="evenodd" d="M313.111 300.167C298.868 300.805 285.18 294.59 276.287 283.447L260.449 263.602C256.016 258.048 256.925 249.953 262.479 245.521C268.034 241.089 276.129 241.999 280.562 247.552L296.4 267.397C300.158 272.105 305.941 274.732 311.959 274.462C319.058 274.144 325.071 279.641 325.389 286.739C325.707 293.837 320.21 299.849 313.111 300.167Z" fill="#055131"/>
<path fill-rule="evenodd" clip-rule="evenodd" d="M315.593 299.961C300.951 298.85 287.43 291.7 278.27 280.223L263.231 261.38C258.799 255.827 259.708 247.732 265.262 243.3C270.816 238.868 278.912 239.777 283.345 245.331L298.383 264.173C303.085 270.064 310.024 273.734 317.54 274.304C324.625 274.842 329.934 281.021 329.396 288.106C328.859 295.191 322.679 300.499 315.593 299.961Z" fill="#00753F"/>
<path d="M255.237 219.567C253.904 216.513 250.693 214.606 248.668 211.96C248.317 211.502 248.016 210.994 247.774 210.442C246.164 206.755 247.848 202.462 251.535 200.852C255.222 199.242 259.516 200.925 261.126 204.612C261.37 205.171 261.539 205.745 261.636 206.321C262.206 209.705 261.335 213.481 262.709 216.626L266.456 225.205C267.347 227.246 269.725 228.178 271.766 227.287C273.229 226.648 274.177 225.207 274.185 223.611L274.203 219.961C274.216 217.38 272.646 215.064 271.613 212.699C270.003 209.013 271.687 204.719 275.373 203.109C279.06 201.5 283.354 203.183 284.964 206.869C285.579 208.276 285.714 209.771 285.44 211.172C284.801 214.45 282.775 217.598 282.939 220.934L284.135 245.186C284.512 252.824 280.126 259.899 273.117 262.96C268.868 264.815 264.074 264.999 259.696 263.473L233.295 254.277C230.899 253.443 228.259 253.734 225.721 253.745C222.739 253.757 219.71 252.541 218.603 250.004C216.993 246.318 218.676 242.024 222.363 240.414C224.68 239.403 227.378 240.095 229.463 241.663C231.792 243.416 233.909 245.697 236.69 246.571L245.85 249.449C248.932 250.417 251.569 247.05 249.889 244.291L240.566 231.688C238.348 228.689 234.175 227.611 231.28 225.259C230.407 224.549 229.686 223.626 229.205 222.524C227.595 218.838 229.279 214.544 232.965 212.934C236.652 211.324 240.946 213.008 242.556 216.694C243.693 219.298 244.082 222.369 245.913 224.541L252.712 232.605C253.81 233.907 255.632 234.332 257.192 233.651C259.138 232.801 260.027 230.534 259.177 228.588L255.237 219.567Z" fill="#055131"/>
<path d="M259.405 220.037C258.071 216.983 254.861 215.075 252.835 212.429C252.485 211.971 252.183 211.464 251.942 210.912C250.332 207.225 252.015 202.931 255.702 201.322C259.389 199.712 263.683 201.395 265.293 205.082C265.538 205.641 265.706 206.215 265.803 206.791C266.374 210.175 265.503 213.95 266.876 217.096L270.623 225.675C271.515 227.716 273.892 228.648 275.933 227.757C277.396 227.118 278.344 225.677 278.352 224.081L278.37 220.43C278.383 217.85 276.813 215.534 275.781 213.169C274.17 209.483 275.854 205.189 279.541 203.579C283.228 201.969 287.522 203.653 289.132 207.339C289.746 208.746 289.881 210.241 289.608 211.642C288.969 214.919 286.942 218.068 287.106 221.403L288.303 245.656C288.679 253.294 284.293 260.369 277.285 263.429C273.035 265.285 268.242 265.468 263.863 263.943L237.463 254.747C235.066 253.912 232.427 254.204 229.889 254.215C226.906 254.227 223.878 253.011 222.77 250.474C221.16 246.788 222.844 242.494 226.53 240.884C228.847 239.873 231.545 240.564 233.63 242.133C235.959 243.885 238.077 246.167 240.857 247.04L250.018 249.919C253.1 250.887 255.736 247.52 254.057 244.76L244.734 232.158C242.516 229.159 238.342 228.081 235.448 225.729C234.575 225.019 233.854 224.096 233.372 222.994C231.762 219.308 233.446 215.014 237.133 213.404C240.82 211.794 245.114 213.478 246.724 217.164C247.861 219.767 248.249 222.839 250.081 225.011L256.88 233.075C257.977 234.376 259.799 234.802 261.359 234.121C263.306 233.271 264.195 231.004 263.345 229.057L259.405 220.037Z" fill="#00753F"/>
<path d="M367.412 173.156L356.616 170.215C356.137 170.084 355.673 170.131 355.226 170.352C354.779 170.574 354.497 170.898 354.381 171.325L351.766 180.923C351.65 181.35 351.728 181.773 352.001 182.19C352.274 182.608 352.65 182.883 353.129 183.013L363.925 185.954C364.404 186.085 364.869 186.04 365.315 185.817C365.763 185.596 366.044 185.272 366.161 184.845L368.776 175.246C368.892 174.82 368.814 174.398 368.54 173.979C368.269 173.561 367.891 173.286 367.412 173.156Z" fill="#FFB800"/>
<path d="M390.822 143.102C390.21 140.501 389.141 138.158 387.617 136.067C386.093 133.977 384.241 132.135 382.066 130.544C379.89 128.953 377.603 127.831 375.204 127.177C366.088 124.694 358.044 126.787 351.072 133.457C350.726 133.781 350.529 134.178 350.482 134.649C350.434 135.119 350.565 135.557 350.873 135.963L356.718 143.596C357.042 143.941 357.385 144.163 357.745 144.261C358.285 144.409 358.815 144.295 359.336 143.921C362.23 141.811 364.304 140.524 365.558 140.06C367.085 139.542 368.822 139.548 370.771 140.079C372.6 140.577 374.081 141.496 375.215 142.835C376.347 144.175 376.742 145.474 376.399 146.734C376.015 148.142 375.33 149.181 374.343 149.846C373.357 150.511 371.868 151.007 369.878 151.335C367.253 151.748 364.665 152.79 362.116 154.464C359.566 156.137 357.952 158.218 357.274 160.707L356.723 162.731C356.567 163.301 356.571 163.906 356.735 164.546C356.899 165.188 357.206 165.569 357.656 165.691L368.451 168.632C368.931 168.763 369.414 168.645 369.901 168.277C370.386 167.911 370.7 167.473 370.839 166.964C371.043 166.215 371.729 165.321 372.896 164.287C374.064 163.252 375.357 162.556 376.775 162.202C378.124 161.861 379.182 161.578 379.953 161.352C380.724 161.128 381.764 160.709 383.074 160.1C384.384 159.49 385.451 158.823 386.276 158.098C387.102 157.373 387.94 156.368 388.789 155.085C389.639 153.803 390.283 152.351 390.724 150.732C391.402 148.243 391.434 145.699 390.822 143.102Z" fill="#FFB800"/>
</svg>
